%TF.GenerationSoftware,KiCad,Pcbnew,7.0.8*%
%TF.CreationDate,2024-01-04T13:35:50+01:00*%
%TF.ProjectId,OSSI_CM1,4f535349-5f43-44d3-912e-6b696361645f,rev?*%
%TF.SameCoordinates,Original*%
%TF.FileFunction,Copper,L4,Bot*%
%TF.FilePolarity,Positive*%
%FSLAX46Y46*%
G04 Gerber Fmt 4.6, Leading zero omitted, Abs format (unit mm)*
G04 Created by KiCad (PCBNEW 7.0.8) date 2024-01-04 13:35:50*
%MOMM*%
%LPD*%
G01*
G04 APERTURE LIST*
%TA.AperFunction,ComponentPad*%
%ADD10R,1.700000X1.700000*%
%TD*%
%TA.AperFunction,ComponentPad*%
%ADD11O,1.700000X1.700000*%
%TD*%
%TA.AperFunction,SMDPad,CuDef*%
%ADD12R,0.150000X0.300000*%
%TD*%
%TA.AperFunction,ViaPad*%
%ADD13C,0.700000*%
%TD*%
%TA.AperFunction,Conductor*%
%ADD14C,0.300000*%
%TD*%
%TA.AperFunction,Conductor*%
%ADD15C,0.700000*%
%TD*%
%TA.AperFunction,Conductor*%
%ADD16C,0.500000*%
%TD*%
%TA.AperFunction,Conductor*%
%ADD17C,0.250000*%
%TD*%
%TA.AperFunction,Conductor*%
%ADD18C,0.400000*%
%TD*%
G04 APERTURE END LIST*
D10*
%TO.P,X101,1,1*%
%TO.N,+3V3*%
X131850000Y-126454000D03*
D11*
%TO.P,X101,2,2*%
%TO.N,/JTAG_TMS{slash}SWD_DIO{slash}PTA3*%
X131850000Y-123914000D03*
%TO.P,X101,3,3*%
%TO.N,GND*%
X134390000Y-126454000D03*
%TO.P,X101,4,4*%
%TO.N,/JTAG_CLK{slash}SWD_CLK{slash}PTA0*%
X134390000Y-123914000D03*
%TO.P,X101,5,5*%
%TO.N,GND*%
X136930000Y-126454000D03*
%TO.P,X101,6,6*%
%TO.N,/JTAG_TDO{slash}TRACE_SWO{slash}PTA2*%
X136930000Y-123914000D03*
%TO.P,X101,7,7*%
%TO.N,unconnected-(X101-Pad7)*%
X139470000Y-126454000D03*
%TO.P,X101,8,8*%
%TO.N,Net-(U102B-JTAG_TDI{slash}PTA1)*%
X139470000Y-123914000D03*
%TO.P,X101,9,9*%
%TO.N,GND*%
X142010000Y-126454000D03*
%TO.P,X101,10,10*%
%TO.N,/~{RESET}*%
X142010000Y-123914000D03*
%TD*%
D10*
%TO.P,X201,1,Pin_1*%
%TO.N,+3V3_ANA*%
X119380000Y-77470000D03*
D11*
%TO.P,X201,2,Pin_2*%
%TO.N,1V25_REF*%
X119380000Y-80010000D03*
%TO.P,X201,3,Pin_3*%
%TO.N,2V50_REF*%
X119380000Y-82550000D03*
%TO.P,X201,4,Pin_4*%
%TO.N,AGND*%
X119380000Y-85090000D03*
%TO.P,X201,5,Pin_5*%
%TO.N,AC_Grid_Voltage*%
X119380000Y-87630000D03*
%TO.P,X201,6,Pin_6*%
%TO.N,Relay_Ctrl_Voltage*%
X119380000Y-90170000D03*
%TO.P,X201,7,Pin_7*%
%TO.N,AGND*%
X119380000Y-92710000D03*
%TO.P,X201,8,Pin_8*%
%TO.N,DC_Link_Voltage*%
X119380000Y-95250000D03*
%TO.P,X201,9,Pin_9*%
%TO.N,AC_Current*%
X119380000Y-97790000D03*
%TO.P,X201,10,Pin_10*%
%TO.N,AGND*%
X119380000Y-100330000D03*
%TO.P,X201,11,Pin_11*%
%TO.N,AC_Relay_Voltage*%
X119380000Y-102870000D03*
%TO.P,X201,12,Pin_12*%
%TO.N,DC_Input_Voltage*%
X119380000Y-105410000D03*
%TO.P,X201,13,Pin_13*%
%TO.N,AGND*%
X119380000Y-107950000D03*
%TO.P,X201,14,Pin_14*%
%TO.N,DC_Current*%
X119380000Y-110490000D03*
%TO.P,X201,15,Pin_15*%
%TO.N,AC_Inverter_Voltage*%
X119380000Y-113030000D03*
%TO.P,X201,16,Pin_16*%
%TO.N,AGND*%
X119380000Y-115570000D03*
%TO.P,X201,17,Pin_17*%
%TO.N,LED_Red_Ctrl*%
X119380000Y-118110000D03*
%TO.P,X201,18,Pin_18*%
%TO.N,LED_Green_Ctrl*%
X119380000Y-120650000D03*
%TO.P,X201,19,Pin_19*%
%TO.N,GND*%
X119380000Y-123190000D03*
%TO.P,X201,20,Pin_20*%
%TO.N,+3V3*%
X119380000Y-125730000D03*
%TD*%
D12*
%TO.P,STAR101,1,1*%
%TO.N,AGND*%
X138187500Y-98504000D03*
%TO.P,STAR101,2,2*%
%TO.N,GND*%
X138610000Y-98504000D03*
%TD*%
D10*
%TO.P,X202,21,Pin_21*%
%TO.N,GND*%
X165100000Y-125730000D03*
D11*
%TO.P,X202,22,Pin_22*%
%TO.N,UART_RX*%
X165100000Y-123190000D03*
%TO.P,X202,23,Pin_23*%
%TO.N,UART_TX*%
X165100000Y-120650000D03*
%TO.P,X202,24,Pin_24*%
%TO.N,GND*%
X165100000Y-118110000D03*
%TO.P,X202,25,Pin_25*%
%TO.N,I2C_Dat*%
X165100000Y-115570000D03*
%TO.P,X202,26,Pin_26*%
%TO.N,I2C_Clk*%
X165100000Y-113030000D03*
%TO.P,X202,27,Pin_27*%
%TO.N,GND*%
X165100000Y-110490000D03*
%TO.P,X202,28,Pin_28*%
%TO.N,HISIDE_PWM_\u00B5C*%
X165100000Y-107950000D03*
%TO.P,X202,29,Pin_29*%
%TO.N,Boost_T1*%
X165100000Y-105410000D03*
%TO.P,X202,30,Pin_30*%
%TO.N,GND*%
X165100000Y-102870000D03*
%TO.P,X202,31,Pin_31*%
%TO.N,Relay_Voltage_Ctrl*%
X165100000Y-100330000D03*
%TO.P,X202,32,Pin_32*%
%TO.N,Bridge_T1*%
X165100000Y-97790000D03*
%TO.P,X202,33,Pin_33*%
%TO.N,GND*%
X165100000Y-95250000D03*
%TO.P,X202,34,Pin_34*%
%TO.N,Bridge_T2*%
X165100000Y-92710000D03*
%TO.P,X202,35,Pin_35*%
%TO.N,Bridge_T3*%
X165100000Y-90170000D03*
%TO.P,X202,36,Pin_36*%
%TO.N,GND*%
X165100000Y-87630000D03*
%TO.P,X202,37,Pin_37*%
%TO.N,Bridge_T4*%
X165100000Y-85090000D03*
%TO.P,X202,38,Pin_38*%
%TO.N,Inv_Relay_Ctrl*%
X165100000Y-82550000D03*
%TO.P,X202,39,Pin_39*%
%TO.N,GND*%
X165100000Y-80010000D03*
%TO.P,X202,40,Pin_40*%
%TO.N,Grid_Relay_Ctrl*%
X165100000Y-77470000D03*
%TO.P,X202,41,Pin_41*%
%TO.N,GND*%
X165100000Y-74930000D03*
%TD*%
D13*
%TO.N,GND*%
X147801944Y-127027056D03*
X144398000Y-103852000D03*
X145150000Y-106504000D03*
X133100000Y-117797400D03*
X149350000Y-104204000D03*
X154800000Y-108204000D03*
X154850000Y-74204000D03*
X139450000Y-98504000D03*
X133500000Y-115297400D03*
X153350000Y-121529000D03*
X145375000Y-118475000D03*
X123400000Y-122304000D03*
X157900000Y-125754000D03*
X150900000Y-74254000D03*
X147750000Y-93204000D03*
X139750000Y-94604000D03*
X149912107Y-90291893D03*
%TO.N,AGND*%
X136000000Y-83704000D03*
X133900000Y-86004000D03*
X124850000Y-81404000D03*
X136000000Y-85054000D03*
X135050000Y-74104000D03*
X130000000Y-106904000D03*
X135000000Y-103904000D03*
X133550000Y-88404000D03*
X126550000Y-98254000D03*
X130450000Y-98204000D03*
X124900000Y-76054000D03*
X137750000Y-98504000D03*
X129500000Y-91354000D03*
X133849500Y-101954000D03*
X132936800Y-108804000D03*
X130050000Y-103554000D03*
X140050000Y-79154000D03*
X127850000Y-81804000D03*
X128600000Y-104954000D03*
X129800000Y-75054000D03*
%TO.N,+3V3*%
X136600000Y-119510600D03*
X125249000Y-125730000D03*
X141100000Y-120900000D03*
X125249000Y-124938710D03*
X125241251Y-126582128D03*
X156300000Y-120179000D03*
X141450000Y-108363361D03*
X158700000Y-117154000D03*
X149862107Y-91991893D03*
X143450000Y-106504000D03*
X139400000Y-93504000D03*
X158700000Y-111804000D03*
%TO.N,2V50_REF*%
X127900000Y-86004000D03*
X127750000Y-106104000D03*
%TO.N,/JTAG_TMS{slash}SWD_DIO{slash}PTA3*%
X139700000Y-117754000D03*
%TO.N,I2C_Clk*%
X154425000Y-115579000D03*
X147350000Y-85754000D03*
%TO.N,I2C_Dat*%
X152168629Y-116704000D03*
X146100000Y-84704000D03*
%TO.N,Net-(U102A-PTC8)*%
X141600000Y-94504000D03*
X126447000Y-118157000D03*
%TO.N,Net-(U102A-PTC9)*%
X126477000Y-120727000D03*
X141150000Y-93354000D03*
%TO.N,Net-(U102C-VREF_OUT)*%
X136200000Y-103704000D03*
X138900000Y-85104000D03*
%TO.N,+3V3_ANA*%
X138350000Y-79154000D03*
X137836800Y-108804000D03*
X130050000Y-101854000D03*
%TD*%
D14*
%TO.N,GND*%
X138700000Y-98504000D02*
X139300000Y-98504000D01*
D15*
%TO.N,AGND*%
X135000000Y-103904000D02*
X135000000Y-88004000D01*
X128800000Y-104754000D02*
X128800000Y-82754000D01*
X135000000Y-88004000D02*
X136550000Y-86454000D01*
X128800000Y-82754000D02*
X127850000Y-81804000D01*
X136550000Y-86454000D02*
X136550000Y-85604000D01*
X128600000Y-104954000D02*
X128800000Y-104754000D01*
X136550000Y-85604000D02*
X136000000Y-85054000D01*
D14*
X137750000Y-98504000D02*
X138350000Y-98504000D01*
D16*
%TO.N,2V50_REF*%
X127900000Y-86004000D02*
X127750000Y-86154000D01*
X127750000Y-86154000D02*
X127750000Y-106104000D01*
D17*
%TO.N,/JTAG_TMS{slash}SWD_DIO{slash}PTA3*%
X139700000Y-118604000D02*
X139700000Y-117754000D01*
X131850000Y-123914000D02*
X133260000Y-122504000D01*
X133260000Y-122504000D02*
X135800000Y-122504000D01*
X135800000Y-122504000D02*
X139700000Y-118604000D01*
D16*
%TO.N,I2C_Clk*%
X156974000Y-113030000D02*
X165100000Y-113030000D01*
X147350000Y-85754000D02*
X146850000Y-86254000D01*
X154425000Y-115579000D02*
X156974000Y-113030000D01*
X146850000Y-86254000D02*
X146850000Y-108004000D01*
X146850000Y-108004000D02*
X154425000Y-115579000D01*
%TO.N,I2C_Dat*%
X155500000Y-116704000D02*
X156634000Y-115570000D01*
X152168629Y-116704000D02*
X155500000Y-116704000D01*
X145950000Y-110485371D02*
X152168629Y-116704000D01*
X156634000Y-115570000D02*
X165100000Y-115570000D01*
X145950000Y-84854000D02*
X145950000Y-110485371D01*
X146100000Y-84704000D02*
X145950000Y-84854000D01*
D18*
%TO.N,Net-(U102A-PTC8)*%
X141600000Y-98985371D02*
X141600000Y-94504000D01*
X130800000Y-113804000D02*
X138500000Y-113804000D01*
X138500000Y-113804000D02*
X139350000Y-112954000D01*
X126447000Y-118157000D02*
X130800000Y-113804000D01*
X139350000Y-112954000D02*
X139350000Y-101235371D01*
X139350000Y-101235371D02*
X141600000Y-98985371D01*
%TO.N,Net-(U102A-PTC9)*%
X141850000Y-93354000D02*
X141150000Y-93354000D01*
X138906600Y-114547400D02*
X139950000Y-113504000D01*
X139950000Y-101904000D02*
X142500000Y-99354000D01*
X132656600Y-114547400D02*
X138906600Y-114547400D01*
X142500000Y-94004000D02*
X141850000Y-93354000D01*
X126477000Y-120727000D02*
X132656600Y-114547400D01*
X142500000Y-99354000D02*
X142500000Y-94004000D01*
X139950000Y-113504000D02*
X139950000Y-101904000D01*
D17*
%TO.N,Net-(U102C-VREF_OUT)*%
X138900000Y-85104000D02*
X135675000Y-88329000D01*
X135675000Y-103179000D02*
X136200000Y-103704000D01*
X135675000Y-88329000D02*
X135675000Y-103179000D01*
%TD*%
M02*
