%TF.GenerationSoftware,KiCad,Pcbnew,7.0.8*%
%TF.CreationDate,2024-01-04T13:35:51+01:00*%
%TF.ProjectId,OSSI_CM1,4f535349-5f43-44d3-912e-6b696361645f,rev?*%
%TF.SameCoordinates,Original*%
%TF.FileFunction,Legend,Top*%
%TF.FilePolarity,Positive*%
%FSLAX46Y46*%
G04 Gerber Fmt 4.6, Leading zero omitted, Abs format (unit mm)*
G04 Created by KiCad (PCBNEW 7.0.8) date 2024-01-04 13:35:51*
%MOMM*%
%LPD*%
G01*
G04 APERTURE LIST*
%ADD10C,0.154000*%
%ADD11C,0.150000*%
%ADD12C,0.120000*%
%ADD13C,0.327000*%
G04 APERTURE END LIST*
D10*
X135279008Y-122393291D02*
X135400227Y-122332682D01*
X135400227Y-122332682D02*
X135551750Y-122181159D01*
X135551750Y-122181159D02*
X135582054Y-122090245D01*
X135582054Y-122090245D02*
X135582054Y-122029636D01*
X135582054Y-122029636D02*
X135551750Y-121938722D01*
X135551750Y-121938722D02*
X135491141Y-121878113D01*
X135491141Y-121878113D02*
X135400227Y-121847808D01*
X135400227Y-121847808D02*
X135339618Y-121847808D01*
X135339618Y-121847808D02*
X135248704Y-121878113D01*
X135248704Y-121878113D02*
X135097181Y-121969027D01*
X135097181Y-121969027D02*
X135006267Y-121999331D01*
X135006267Y-121999331D02*
X134945658Y-121999331D01*
X134945658Y-121999331D02*
X134854744Y-121969027D01*
X134854744Y-121969027D02*
X134794135Y-121908418D01*
X134794135Y-121908418D02*
X134763831Y-121817504D01*
X134763831Y-121817504D02*
X134763831Y-121756895D01*
X134763831Y-121756895D02*
X134794135Y-121665981D01*
X134794135Y-121665981D02*
X134945658Y-121514458D01*
X134945658Y-121514458D02*
X135066876Y-121453849D01*
X135703273Y-121544763D02*
X136188146Y-121059889D01*
X137036674Y-120575016D02*
X137036674Y-120635625D01*
X137036674Y-120635625D02*
X136976065Y-120756843D01*
X136976065Y-120756843D02*
X136915456Y-120817453D01*
X136915456Y-120817453D02*
X136794238Y-120878062D01*
X136794238Y-120878062D02*
X136673019Y-120878062D01*
X136673019Y-120878062D02*
X136582106Y-120847757D01*
X136582106Y-120847757D02*
X136430583Y-120756843D01*
X136430583Y-120756843D02*
X136339669Y-120665930D01*
X136339669Y-120665930D02*
X136248755Y-120514407D01*
X136248755Y-120514407D02*
X136218451Y-120423493D01*
X136218451Y-120423493D02*
X136218451Y-120302275D01*
X136218451Y-120302275D02*
X136279060Y-120181056D01*
X136279060Y-120181056D02*
X136339669Y-120120447D01*
X136339669Y-120120447D02*
X136460887Y-120059838D01*
X136460887Y-120059838D02*
X136521496Y-120059838D01*
X137673070Y-120059838D02*
X137370025Y-120362884D01*
X137370025Y-120362884D02*
X136733628Y-119726488D01*
X137885202Y-119847706D02*
X137248806Y-119211310D01*
X138248857Y-119484051D02*
X137612461Y-119393138D01*
X137612461Y-118847655D02*
X137612461Y-119574965D01*
X150514284Y-82249134D02*
X150742856Y-82249134D01*
X150742856Y-82249134D02*
X150857141Y-82306277D01*
X150857141Y-82306277D02*
X150971427Y-82420563D01*
X150971427Y-82420563D02*
X151028570Y-82649134D01*
X151028570Y-82649134D02*
X151028570Y-83049134D01*
X151028570Y-83049134D02*
X150971427Y-83277706D01*
X150971427Y-83277706D02*
X150857141Y-83391992D01*
X150857141Y-83391992D02*
X150742856Y-83449134D01*
X150742856Y-83449134D02*
X150514284Y-83449134D01*
X150514284Y-83449134D02*
X150399999Y-83391992D01*
X150399999Y-83391992D02*
X150285713Y-83277706D01*
X150285713Y-83277706D02*
X150228570Y-83049134D01*
X150228570Y-83049134D02*
X150228570Y-82649134D01*
X150228570Y-82649134D02*
X150285713Y-82420563D01*
X150285713Y-82420563D02*
X150399999Y-82306277D01*
X150399999Y-82306277D02*
X150514284Y-82249134D01*
X151542856Y-83334849D02*
X151599999Y-83391992D01*
X151599999Y-83391992D02*
X151542856Y-83449134D01*
X151542856Y-83449134D02*
X151485713Y-83391992D01*
X151485713Y-83391992D02*
X151542856Y-83334849D01*
X151542856Y-83334849D02*
X151542856Y-83449134D01*
X152057142Y-83391992D02*
X152228571Y-83449134D01*
X152228571Y-83449134D02*
X152514285Y-83449134D01*
X152514285Y-83449134D02*
X152628571Y-83391992D01*
X152628571Y-83391992D02*
X152685713Y-83334849D01*
X152685713Y-83334849D02*
X152742856Y-83220563D01*
X152742856Y-83220563D02*
X152742856Y-83106277D01*
X152742856Y-83106277D02*
X152685713Y-82991992D01*
X152685713Y-82991992D02*
X152628571Y-82934849D01*
X152628571Y-82934849D02*
X152514285Y-82877706D01*
X152514285Y-82877706D02*
X152285713Y-82820563D01*
X152285713Y-82820563D02*
X152171428Y-82763420D01*
X152171428Y-82763420D02*
X152114285Y-82706277D01*
X152114285Y-82706277D02*
X152057142Y-82591992D01*
X152057142Y-82591992D02*
X152057142Y-82477706D01*
X152057142Y-82477706D02*
X152114285Y-82363420D01*
X152114285Y-82363420D02*
X152171428Y-82306277D01*
X152171428Y-82306277D02*
X152285713Y-82249134D01*
X152285713Y-82249134D02*
X152571428Y-82249134D01*
X152571428Y-82249134D02*
X152742856Y-82306277D01*
X153257142Y-83334849D02*
X153314285Y-83391992D01*
X153314285Y-83391992D02*
X153257142Y-83449134D01*
X153257142Y-83449134D02*
X153199999Y-83391992D01*
X153199999Y-83391992D02*
X153257142Y-83334849D01*
X153257142Y-83334849D02*
X153257142Y-83449134D01*
X153771428Y-83391992D02*
X153942857Y-83449134D01*
X153942857Y-83449134D02*
X154228571Y-83449134D01*
X154228571Y-83449134D02*
X154342857Y-83391992D01*
X154342857Y-83391992D02*
X154399999Y-83334849D01*
X154399999Y-83334849D02*
X154457142Y-83220563D01*
X154457142Y-83220563D02*
X154457142Y-83106277D01*
X154457142Y-83106277D02*
X154399999Y-82991992D01*
X154399999Y-82991992D02*
X154342857Y-82934849D01*
X154342857Y-82934849D02*
X154228571Y-82877706D01*
X154228571Y-82877706D02*
X153999999Y-82820563D01*
X153999999Y-82820563D02*
X153885714Y-82763420D01*
X153885714Y-82763420D02*
X153828571Y-82706277D01*
X153828571Y-82706277D02*
X153771428Y-82591992D01*
X153771428Y-82591992D02*
X153771428Y-82477706D01*
X153771428Y-82477706D02*
X153828571Y-82363420D01*
X153828571Y-82363420D02*
X153885714Y-82306277D01*
X153885714Y-82306277D02*
X153999999Y-82249134D01*
X153999999Y-82249134D02*
X154285714Y-82249134D01*
X154285714Y-82249134D02*
X154457142Y-82306277D01*
X154971428Y-83334849D02*
X155028571Y-83391992D01*
X155028571Y-83391992D02*
X154971428Y-83449134D01*
X154971428Y-83449134D02*
X154914285Y-83391992D01*
X154914285Y-83391992D02*
X154971428Y-83334849D01*
X154971428Y-83334849D02*
X154971428Y-83449134D01*
X155542857Y-83449134D02*
X155542857Y-82249134D01*
X156114286Y-83334849D02*
X156171429Y-83391992D01*
X156171429Y-83391992D02*
X156114286Y-83449134D01*
X156114286Y-83449134D02*
X156057143Y-83391992D01*
X156057143Y-83391992D02*
X156114286Y-83334849D01*
X156114286Y-83334849D02*
X156114286Y-83449134D01*
X150914286Y-85266849D02*
X150857143Y-85323992D01*
X150857143Y-85323992D02*
X150685715Y-85381134D01*
X150685715Y-85381134D02*
X150571429Y-85381134D01*
X150571429Y-85381134D02*
X150400000Y-85323992D01*
X150400000Y-85323992D02*
X150285715Y-85209706D01*
X150285715Y-85209706D02*
X150228572Y-85095420D01*
X150228572Y-85095420D02*
X150171429Y-84866849D01*
X150171429Y-84866849D02*
X150171429Y-84695420D01*
X150171429Y-84695420D02*
X150228572Y-84466849D01*
X150228572Y-84466849D02*
X150285715Y-84352563D01*
X150285715Y-84352563D02*
X150400000Y-84238277D01*
X150400000Y-84238277D02*
X150571429Y-84181134D01*
X150571429Y-84181134D02*
X150685715Y-84181134D01*
X150685715Y-84181134D02*
X150857143Y-84238277D01*
X150857143Y-84238277D02*
X150914286Y-84295420D01*
X151600000Y-85381134D02*
X151485715Y-85323992D01*
X151485715Y-85323992D02*
X151428572Y-85266849D01*
X151428572Y-85266849D02*
X151371429Y-85152563D01*
X151371429Y-85152563D02*
X151371429Y-84809706D01*
X151371429Y-84809706D02*
X151428572Y-84695420D01*
X151428572Y-84695420D02*
X151485715Y-84638277D01*
X151485715Y-84638277D02*
X151600000Y-84581134D01*
X151600000Y-84581134D02*
X151771429Y-84581134D01*
X151771429Y-84581134D02*
X151885715Y-84638277D01*
X151885715Y-84638277D02*
X151942858Y-84695420D01*
X151942858Y-84695420D02*
X152000000Y-84809706D01*
X152000000Y-84809706D02*
X152000000Y-85152563D01*
X152000000Y-85152563D02*
X151942858Y-85266849D01*
X151942858Y-85266849D02*
X151885715Y-85323992D01*
X151885715Y-85323992D02*
X151771429Y-85381134D01*
X151771429Y-85381134D02*
X151600000Y-85381134D01*
X152514286Y-84581134D02*
X152514286Y-85381134D01*
X152514286Y-84695420D02*
X152571429Y-84638277D01*
X152571429Y-84638277D02*
X152685714Y-84581134D01*
X152685714Y-84581134D02*
X152857143Y-84581134D01*
X152857143Y-84581134D02*
X152971429Y-84638277D01*
X152971429Y-84638277D02*
X153028572Y-84752563D01*
X153028572Y-84752563D02*
X153028572Y-85381134D01*
X153428571Y-84581134D02*
X153885714Y-84581134D01*
X153600000Y-84181134D02*
X153600000Y-85209706D01*
X153600000Y-85209706D02*
X153657143Y-85323992D01*
X153657143Y-85323992D02*
X153771428Y-85381134D01*
X153771428Y-85381134D02*
X153885714Y-85381134D01*
X154285714Y-85381134D02*
X154285714Y-84581134D01*
X154285714Y-84809706D02*
X154342857Y-84695420D01*
X154342857Y-84695420D02*
X154400000Y-84638277D01*
X154400000Y-84638277D02*
X154514285Y-84581134D01*
X154514285Y-84581134D02*
X154628571Y-84581134D01*
X155199999Y-85381134D02*
X155085714Y-85323992D01*
X155085714Y-85323992D02*
X155028571Y-85266849D01*
X155028571Y-85266849D02*
X154971428Y-85152563D01*
X154971428Y-85152563D02*
X154971428Y-84809706D01*
X154971428Y-84809706D02*
X155028571Y-84695420D01*
X155028571Y-84695420D02*
X155085714Y-84638277D01*
X155085714Y-84638277D02*
X155199999Y-84581134D01*
X155199999Y-84581134D02*
X155371428Y-84581134D01*
X155371428Y-84581134D02*
X155485714Y-84638277D01*
X155485714Y-84638277D02*
X155542857Y-84695420D01*
X155542857Y-84695420D02*
X155599999Y-84809706D01*
X155599999Y-84809706D02*
X155599999Y-85152563D01*
X155599999Y-85152563D02*
X155542857Y-85266849D01*
X155542857Y-85266849D02*
X155485714Y-85323992D01*
X155485714Y-85323992D02*
X155371428Y-85381134D01*
X155371428Y-85381134D02*
X155199999Y-85381134D01*
X156285713Y-85381134D02*
X156171428Y-85323992D01*
X156171428Y-85323992D02*
X156114285Y-85209706D01*
X156114285Y-85209706D02*
X156114285Y-84181134D01*
X149314286Y-87313134D02*
X149314286Y-86113134D01*
X149314286Y-86113134D02*
X149714286Y-86970277D01*
X149714286Y-86970277D02*
X150114286Y-86113134D01*
X150114286Y-86113134D02*
X150114286Y-87313134D01*
X150857143Y-87313134D02*
X150742858Y-87255992D01*
X150742858Y-87255992D02*
X150685715Y-87198849D01*
X150685715Y-87198849D02*
X150628572Y-87084563D01*
X150628572Y-87084563D02*
X150628572Y-86741706D01*
X150628572Y-86741706D02*
X150685715Y-86627420D01*
X150685715Y-86627420D02*
X150742858Y-86570277D01*
X150742858Y-86570277D02*
X150857143Y-86513134D01*
X150857143Y-86513134D02*
X151028572Y-86513134D01*
X151028572Y-86513134D02*
X151142858Y-86570277D01*
X151142858Y-86570277D02*
X151200001Y-86627420D01*
X151200001Y-86627420D02*
X151257143Y-86741706D01*
X151257143Y-86741706D02*
X151257143Y-87084563D01*
X151257143Y-87084563D02*
X151200001Y-87198849D01*
X151200001Y-87198849D02*
X151142858Y-87255992D01*
X151142858Y-87255992D02*
X151028572Y-87313134D01*
X151028572Y-87313134D02*
X150857143Y-87313134D01*
X152285715Y-87313134D02*
X152285715Y-86113134D01*
X152285715Y-87255992D02*
X152171429Y-87313134D01*
X152171429Y-87313134D02*
X151942857Y-87313134D01*
X151942857Y-87313134D02*
X151828572Y-87255992D01*
X151828572Y-87255992D02*
X151771429Y-87198849D01*
X151771429Y-87198849D02*
X151714286Y-87084563D01*
X151714286Y-87084563D02*
X151714286Y-86741706D01*
X151714286Y-86741706D02*
X151771429Y-86627420D01*
X151771429Y-86627420D02*
X151828572Y-86570277D01*
X151828572Y-86570277D02*
X151942857Y-86513134D01*
X151942857Y-86513134D02*
X152171429Y-86513134D01*
X152171429Y-86513134D02*
X152285715Y-86570277D01*
X153371429Y-86513134D02*
X153371429Y-87313134D01*
X152857143Y-86513134D02*
X152857143Y-87141706D01*
X152857143Y-87141706D02*
X152914286Y-87255992D01*
X152914286Y-87255992D02*
X153028571Y-87313134D01*
X153028571Y-87313134D02*
X153200000Y-87313134D01*
X153200000Y-87313134D02*
X153314286Y-87255992D01*
X153314286Y-87255992D02*
X153371429Y-87198849D01*
X154114285Y-87313134D02*
X154000000Y-87255992D01*
X154000000Y-87255992D02*
X153942857Y-87141706D01*
X153942857Y-87141706D02*
X153942857Y-86113134D01*
X155028571Y-87255992D02*
X154914285Y-87313134D01*
X154914285Y-87313134D02*
X154685714Y-87313134D01*
X154685714Y-87313134D02*
X154571428Y-87255992D01*
X154571428Y-87255992D02*
X154514285Y-87141706D01*
X154514285Y-87141706D02*
X154514285Y-86684563D01*
X154514285Y-86684563D02*
X154571428Y-86570277D01*
X154571428Y-86570277D02*
X154685714Y-86513134D01*
X154685714Y-86513134D02*
X154914285Y-86513134D01*
X154914285Y-86513134D02*
X155028571Y-86570277D01*
X155028571Y-86570277D02*
X155085714Y-86684563D01*
X155085714Y-86684563D02*
X155085714Y-86798849D01*
X155085714Y-86798849D02*
X154514285Y-86913134D01*
X157142856Y-87313134D02*
X156457142Y-87313134D01*
X156799999Y-87313134D02*
X156799999Y-86113134D01*
X156799999Y-86113134D02*
X156685713Y-86284563D01*
X156685713Y-86284563D02*
X156571428Y-86398849D01*
X156571428Y-86398849D02*
X156457142Y-86455992D01*
X151371428Y-88045134D02*
X151771428Y-89245134D01*
X151771428Y-89245134D02*
X152171428Y-88045134D01*
X153199999Y-89245134D02*
X152514285Y-89245134D01*
X152857142Y-89245134D02*
X152857142Y-88045134D01*
X152857142Y-88045134D02*
X152742856Y-88216563D01*
X152742856Y-88216563D02*
X152628571Y-88330849D01*
X152628571Y-88330849D02*
X152514285Y-88387992D01*
X153714285Y-89130849D02*
X153771428Y-89187992D01*
X153771428Y-89187992D02*
X153714285Y-89245134D01*
X153714285Y-89245134D02*
X153657142Y-89187992D01*
X153657142Y-89187992D02*
X153714285Y-89130849D01*
X153714285Y-89130849D02*
X153714285Y-89245134D01*
X154514285Y-88045134D02*
X154628571Y-88045134D01*
X154628571Y-88045134D02*
X154742857Y-88102277D01*
X154742857Y-88102277D02*
X154800000Y-88159420D01*
X154800000Y-88159420D02*
X154857142Y-88273706D01*
X154857142Y-88273706D02*
X154914285Y-88502277D01*
X154914285Y-88502277D02*
X154914285Y-88787992D01*
X154914285Y-88787992D02*
X154857142Y-89016563D01*
X154857142Y-89016563D02*
X154800000Y-89130849D01*
X154800000Y-89130849D02*
X154742857Y-89187992D01*
X154742857Y-89187992D02*
X154628571Y-89245134D01*
X154628571Y-89245134D02*
X154514285Y-89245134D01*
X154514285Y-89245134D02*
X154400000Y-89187992D01*
X154400000Y-89187992D02*
X154342857Y-89130849D01*
X154342857Y-89130849D02*
X154285714Y-89016563D01*
X154285714Y-89016563D02*
X154228571Y-88787992D01*
X154228571Y-88787992D02*
X154228571Y-88502277D01*
X154228571Y-88502277D02*
X154285714Y-88273706D01*
X154285714Y-88273706D02*
X154342857Y-88159420D01*
X154342857Y-88159420D02*
X154400000Y-88102277D01*
X154400000Y-88102277D02*
X154514285Y-88045134D01*
X132579008Y-122293291D02*
X132700227Y-122232682D01*
X132700227Y-122232682D02*
X132851750Y-122081159D01*
X132851750Y-122081159D02*
X132882054Y-121990245D01*
X132882054Y-121990245D02*
X132882054Y-121929636D01*
X132882054Y-121929636D02*
X132851750Y-121838722D01*
X132851750Y-121838722D02*
X132791141Y-121778113D01*
X132791141Y-121778113D02*
X132700227Y-121747808D01*
X132700227Y-121747808D02*
X132639618Y-121747808D01*
X132639618Y-121747808D02*
X132548704Y-121778113D01*
X132548704Y-121778113D02*
X132397181Y-121869027D01*
X132397181Y-121869027D02*
X132306267Y-121899331D01*
X132306267Y-121899331D02*
X132245658Y-121899331D01*
X132245658Y-121899331D02*
X132154744Y-121869027D01*
X132154744Y-121869027D02*
X132094135Y-121808418D01*
X132094135Y-121808418D02*
X132063831Y-121717504D01*
X132063831Y-121717504D02*
X132063831Y-121656895D01*
X132063831Y-121656895D02*
X132094135Y-121565981D01*
X132094135Y-121565981D02*
X132245658Y-121414458D01*
X132245658Y-121414458D02*
X132366876Y-121353849D01*
X133003273Y-121444763D02*
X133488146Y-120959889D01*
X134033628Y-120899280D02*
X133397232Y-120262884D01*
X133397232Y-120262884D02*
X133548755Y-120111361D01*
X133548755Y-120111361D02*
X133669974Y-120050752D01*
X133669974Y-120050752D02*
X133791192Y-120050752D01*
X133791192Y-120050752D02*
X133882106Y-120081056D01*
X133882106Y-120081056D02*
X134033628Y-120171970D01*
X134033628Y-120171970D02*
X134124542Y-120262884D01*
X134124542Y-120262884D02*
X134215456Y-120414407D01*
X134215456Y-120414407D02*
X134245760Y-120505321D01*
X134245760Y-120505321D02*
X134245760Y-120626539D01*
X134245760Y-120626539D02*
X134185151Y-120747757D01*
X134185151Y-120747757D02*
X134033628Y-120899280D01*
X134670025Y-120262884D02*
X134033628Y-119626488D01*
X134457892Y-119202224D02*
X134579111Y-119081006D01*
X134579111Y-119081006D02*
X134670024Y-119050701D01*
X134670024Y-119050701D02*
X134791243Y-119050701D01*
X134791243Y-119050701D02*
X134942765Y-119141615D01*
X134942765Y-119141615D02*
X135154897Y-119353747D01*
X135154897Y-119353747D02*
X135245811Y-119505270D01*
X135245811Y-119505270D02*
X135245811Y-119626488D01*
X135245811Y-119626488D02*
X135215507Y-119717402D01*
X135215507Y-119717402D02*
X135094288Y-119838620D01*
X135094288Y-119838620D02*
X135003375Y-119868925D01*
X135003375Y-119868925D02*
X134882156Y-119868925D01*
X134882156Y-119868925D02*
X134730633Y-119778011D01*
X134730633Y-119778011D02*
X134518501Y-119565879D01*
X134518501Y-119565879D02*
X134427588Y-119414356D01*
X134427588Y-119414356D02*
X134427588Y-119293138D01*
X134427588Y-119293138D02*
X134457892Y-119202224D01*
X155477811Y-80084847D02*
X155001620Y-80418180D01*
X155477811Y-80656275D02*
X154477811Y-80656275D01*
X154477811Y-80656275D02*
X154477811Y-80275323D01*
X154477811Y-80275323D02*
X154525430Y-80180085D01*
X154525430Y-80180085D02*
X154573049Y-80132466D01*
X154573049Y-80132466D02*
X154668287Y-80084847D01*
X154668287Y-80084847D02*
X154811144Y-80084847D01*
X154811144Y-80084847D02*
X154906382Y-80132466D01*
X154906382Y-80132466D02*
X154954001Y-80180085D01*
X154954001Y-80180085D02*
X155001620Y-80275323D01*
X155001620Y-80275323D02*
X155001620Y-80656275D01*
X155477811Y-79132466D02*
X155477811Y-79703894D01*
X155477811Y-79418180D02*
X154477811Y-79418180D01*
X154477811Y-79418180D02*
X154620668Y-79513418D01*
X154620668Y-79513418D02*
X154715906Y-79608656D01*
X154715906Y-79608656D02*
X154763525Y-79703894D01*
X154811144Y-78275323D02*
X155477811Y-78275323D01*
X154430192Y-78513418D02*
X155144477Y-78751513D01*
X155144477Y-78751513D02*
X155144477Y-78132466D01*
X154477811Y-77561037D02*
X154477811Y-77465799D01*
X154477811Y-77465799D02*
X154525430Y-77370561D01*
X154525430Y-77370561D02*
X154573049Y-77322942D01*
X154573049Y-77322942D02*
X154668287Y-77275323D01*
X154668287Y-77275323D02*
X154858763Y-77227704D01*
X154858763Y-77227704D02*
X155096858Y-77227704D01*
X155096858Y-77227704D02*
X155287334Y-77275323D01*
X155287334Y-77275323D02*
X155382572Y-77322942D01*
X155382572Y-77322942D02*
X155430192Y-77370561D01*
X155430192Y-77370561D02*
X155477811Y-77465799D01*
X155477811Y-77465799D02*
X155477811Y-77561037D01*
X155477811Y-77561037D02*
X155430192Y-77656275D01*
X155430192Y-77656275D02*
X155382572Y-77703894D01*
X155382572Y-77703894D02*
X155287334Y-77751513D01*
X155287334Y-77751513D02*
X155096858Y-77799132D01*
X155096858Y-77799132D02*
X154858763Y-77799132D01*
X154858763Y-77799132D02*
X154668287Y-77751513D01*
X154668287Y-77751513D02*
X154573049Y-77703894D01*
X154573049Y-77703894D02*
X154525430Y-77656275D01*
X154525430Y-77656275D02*
X154477811Y-77561037D01*
X152654611Y-77018285D02*
X151654611Y-77018285D01*
X152130801Y-77018285D02*
X152130801Y-76446857D01*
X152654611Y-76446857D02*
X151654611Y-76446857D01*
X152654611Y-75446857D02*
X152654611Y-76018285D01*
X152654611Y-75732571D02*
X151654611Y-75732571D01*
X151654611Y-75732571D02*
X151797468Y-75827809D01*
X151797468Y-75827809D02*
X151892706Y-75923047D01*
X151892706Y-75923047D02*
X151940325Y-76018285D01*
X151987944Y-74589714D02*
X152654611Y-74589714D01*
X151606992Y-74827809D02*
X152321277Y-75065904D01*
X152321277Y-75065904D02*
X152321277Y-74446857D01*
X151654611Y-73875428D02*
X151654611Y-73780190D01*
X151654611Y-73780190D02*
X151702230Y-73684952D01*
X151702230Y-73684952D02*
X151749849Y-73637333D01*
X151749849Y-73637333D02*
X151845087Y-73589714D01*
X151845087Y-73589714D02*
X152035563Y-73542095D01*
X152035563Y-73542095D02*
X152273658Y-73542095D01*
X152273658Y-73542095D02*
X152464134Y-73589714D01*
X152464134Y-73589714D02*
X152559372Y-73637333D01*
X152559372Y-73637333D02*
X152606992Y-73684952D01*
X152606992Y-73684952D02*
X152654611Y-73780190D01*
X152654611Y-73780190D02*
X152654611Y-73875428D01*
X152654611Y-73875428D02*
X152606992Y-73970666D01*
X152606992Y-73970666D02*
X152559372Y-74018285D01*
X152559372Y-74018285D02*
X152464134Y-74065904D01*
X152464134Y-74065904D02*
X152273658Y-74113523D01*
X152273658Y-74113523D02*
X152035563Y-74113523D01*
X152035563Y-74113523D02*
X151845087Y-74065904D01*
X151845087Y-74065904D02*
X151749849Y-74018285D01*
X151749849Y-74018285D02*
X151702230Y-73970666D01*
X151702230Y-73970666D02*
X151654611Y-73875428D01*
X153262830Y-112349400D02*
X153262830Y-112416744D01*
X153262830Y-112416744D02*
X153195486Y-112551431D01*
X153195486Y-112551431D02*
X153128143Y-112618774D01*
X153128143Y-112618774D02*
X152993456Y-112686118D01*
X152993456Y-112686118D02*
X152858769Y-112686118D01*
X152858769Y-112686118D02*
X152757753Y-112652446D01*
X152757753Y-112652446D02*
X152589395Y-112551431D01*
X152589395Y-112551431D02*
X152488379Y-112450416D01*
X152488379Y-112450416D02*
X152387364Y-112282057D01*
X152387364Y-112282057D02*
X152353692Y-112181042D01*
X152353692Y-112181042D02*
X152353692Y-112046355D01*
X152353692Y-112046355D02*
X152421036Y-111911668D01*
X152421036Y-111911668D02*
X152488379Y-111844324D01*
X152488379Y-111844324D02*
X152623066Y-111776981D01*
X152623066Y-111776981D02*
X152690410Y-111776981D01*
X154003608Y-111743309D02*
X153599547Y-112147370D01*
X153801578Y-111945339D02*
X153094471Y-111238233D01*
X153094471Y-111238233D02*
X153128143Y-111406591D01*
X153128143Y-111406591D02*
X153128143Y-111541278D01*
X153128143Y-111541278D02*
X153094471Y-111642294D01*
X153734234Y-110598469D02*
X153801578Y-110531126D01*
X153801578Y-110531126D02*
X153902593Y-110497454D01*
X153902593Y-110497454D02*
X153969937Y-110497454D01*
X153969937Y-110497454D02*
X154070952Y-110531126D01*
X154070952Y-110531126D02*
X154239311Y-110632141D01*
X154239311Y-110632141D02*
X154407669Y-110800500D01*
X154407669Y-110800500D02*
X154508685Y-110968859D01*
X154508685Y-110968859D02*
X154542356Y-111069874D01*
X154542356Y-111069874D02*
X154542356Y-111137217D01*
X154542356Y-111137217D02*
X154508685Y-111238233D01*
X154508685Y-111238233D02*
X154441341Y-111305576D01*
X154441341Y-111305576D02*
X154340326Y-111339248D01*
X154340326Y-111339248D02*
X154272982Y-111339248D01*
X154272982Y-111339248D02*
X154171967Y-111305576D01*
X154171967Y-111305576D02*
X154003608Y-111204561D01*
X154003608Y-111204561D02*
X153835250Y-111036202D01*
X153835250Y-111036202D02*
X153734234Y-110867843D01*
X153734234Y-110867843D02*
X153700562Y-110766828D01*
X153700562Y-110766828D02*
X153700562Y-110699485D01*
X153700562Y-110699485D02*
X153734234Y-110598469D01*
X154306654Y-110160736D02*
X154306654Y-110093393D01*
X154306654Y-110093393D02*
X154340326Y-109992378D01*
X154340326Y-109992378D02*
X154508685Y-109824019D01*
X154508685Y-109824019D02*
X154609700Y-109790347D01*
X154609700Y-109790347D02*
X154677043Y-109790347D01*
X154677043Y-109790347D02*
X154778059Y-109824019D01*
X154778059Y-109824019D02*
X154845402Y-109891362D01*
X154845402Y-109891362D02*
X154912746Y-110026049D01*
X154912746Y-110026049D02*
X154912746Y-110834172D01*
X154912746Y-110834172D02*
X155350478Y-110396439D01*
X124780952Y-122504611D02*
X124447619Y-122028420D01*
X124209524Y-122504611D02*
X124209524Y-121504611D01*
X124209524Y-121504611D02*
X124590476Y-121504611D01*
X124590476Y-121504611D02*
X124685714Y-121552230D01*
X124685714Y-121552230D02*
X124733333Y-121599849D01*
X124733333Y-121599849D02*
X124780952Y-121695087D01*
X124780952Y-121695087D02*
X124780952Y-121837944D01*
X124780952Y-121837944D02*
X124733333Y-121933182D01*
X124733333Y-121933182D02*
X124685714Y-121980801D01*
X124685714Y-121980801D02*
X124590476Y-122028420D01*
X124590476Y-122028420D02*
X124209524Y-122028420D01*
X125733333Y-122504611D02*
X125161905Y-122504611D01*
X125447619Y-122504611D02*
X125447619Y-121504611D01*
X125447619Y-121504611D02*
X125352381Y-121647468D01*
X125352381Y-121647468D02*
X125257143Y-121742706D01*
X125257143Y-121742706D02*
X125161905Y-121790325D01*
X126114286Y-121599849D02*
X126161905Y-121552230D01*
X126161905Y-121552230D02*
X126257143Y-121504611D01*
X126257143Y-121504611D02*
X126495238Y-121504611D01*
X126495238Y-121504611D02*
X126590476Y-121552230D01*
X126590476Y-121552230D02*
X126638095Y-121599849D01*
X126638095Y-121599849D02*
X126685714Y-121695087D01*
X126685714Y-121695087D02*
X126685714Y-121790325D01*
X126685714Y-121790325D02*
X126638095Y-121933182D01*
X126638095Y-121933182D02*
X126066667Y-122504611D01*
X126066667Y-122504611D02*
X126685714Y-122504611D01*
X127542857Y-121837944D02*
X127542857Y-122504611D01*
X127304762Y-121456992D02*
X127066667Y-122171277D01*
X127066667Y-122171277D02*
X127685714Y-122171277D01*
X129354611Y-76794475D02*
X128354611Y-76794475D01*
X128354611Y-76794475D02*
X128354611Y-76556380D01*
X128354611Y-76556380D02*
X128402230Y-76413523D01*
X128402230Y-76413523D02*
X128497468Y-76318285D01*
X128497468Y-76318285D02*
X128592706Y-76270666D01*
X128592706Y-76270666D02*
X128783182Y-76223047D01*
X128783182Y-76223047D02*
X128926039Y-76223047D01*
X128926039Y-76223047D02*
X129116515Y-76270666D01*
X129116515Y-76270666D02*
X129211753Y-76318285D01*
X129211753Y-76318285D02*
X129306992Y-76413523D01*
X129306992Y-76413523D02*
X129354611Y-76556380D01*
X129354611Y-76556380D02*
X129354611Y-76794475D01*
X129354611Y-75270666D02*
X129354611Y-75842094D01*
X129354611Y-75556380D02*
X128354611Y-75556380D01*
X128354611Y-75556380D02*
X128497468Y-75651618D01*
X128497468Y-75651618D02*
X128592706Y-75746856D01*
X128592706Y-75746856D02*
X128640325Y-75842094D01*
X128354611Y-74651618D02*
X128354611Y-74556380D01*
X128354611Y-74556380D02*
X128402230Y-74461142D01*
X128402230Y-74461142D02*
X128449849Y-74413523D01*
X128449849Y-74413523D02*
X128545087Y-74365904D01*
X128545087Y-74365904D02*
X128735563Y-74318285D01*
X128735563Y-74318285D02*
X128973658Y-74318285D01*
X128973658Y-74318285D02*
X129164134Y-74365904D01*
X129164134Y-74365904D02*
X129259372Y-74413523D01*
X129259372Y-74413523D02*
X129306992Y-74461142D01*
X129306992Y-74461142D02*
X129354611Y-74556380D01*
X129354611Y-74556380D02*
X129354611Y-74651618D01*
X129354611Y-74651618D02*
X129306992Y-74746856D01*
X129306992Y-74746856D02*
X129259372Y-74794475D01*
X129259372Y-74794475D02*
X129164134Y-74842094D01*
X129164134Y-74842094D02*
X128973658Y-74889713D01*
X128973658Y-74889713D02*
X128735563Y-74889713D01*
X128735563Y-74889713D02*
X128545087Y-74842094D01*
X128545087Y-74842094D02*
X128449849Y-74794475D01*
X128449849Y-74794475D02*
X128402230Y-74746856D01*
X128402230Y-74746856D02*
X128354611Y-74651618D01*
X129354611Y-73365904D02*
X129354611Y-73937332D01*
X129354611Y-73651618D02*
X128354611Y-73651618D01*
X128354611Y-73651618D02*
X128497468Y-73746856D01*
X128497468Y-73746856D02*
X128592706Y-73842094D01*
X128592706Y-73842094D02*
X128640325Y-73937332D01*
X158950952Y-107164611D02*
X158617619Y-106688420D01*
X158379524Y-107164611D02*
X158379524Y-106164611D01*
X158379524Y-106164611D02*
X158760476Y-106164611D01*
X158760476Y-106164611D02*
X158855714Y-106212230D01*
X158855714Y-106212230D02*
X158903333Y-106259849D01*
X158903333Y-106259849D02*
X158950952Y-106355087D01*
X158950952Y-106355087D02*
X158950952Y-106497944D01*
X158950952Y-106497944D02*
X158903333Y-106593182D01*
X158903333Y-106593182D02*
X158855714Y-106640801D01*
X158855714Y-106640801D02*
X158760476Y-106688420D01*
X158760476Y-106688420D02*
X158379524Y-106688420D01*
X159903333Y-107164611D02*
X159331905Y-107164611D01*
X159617619Y-107164611D02*
X159617619Y-106164611D01*
X159617619Y-106164611D02*
X159522381Y-106307468D01*
X159522381Y-106307468D02*
X159427143Y-106402706D01*
X159427143Y-106402706D02*
X159331905Y-106450325D01*
X160855714Y-107164611D02*
X160284286Y-107164611D01*
X160570000Y-107164611D02*
X160570000Y-106164611D01*
X160570000Y-106164611D02*
X160474762Y-106307468D01*
X160474762Y-106307468D02*
X160379524Y-106402706D01*
X160379524Y-106402706D02*
X160284286Y-106450325D01*
X161712857Y-106497944D02*
X161712857Y-107164611D01*
X161474762Y-106116992D02*
X161236667Y-106831277D01*
X161236667Y-106831277D02*
X161855714Y-106831277D01*
X141254611Y-83923047D02*
X140778420Y-84256380D01*
X141254611Y-84494475D02*
X140254611Y-84494475D01*
X140254611Y-84494475D02*
X140254611Y-84113523D01*
X140254611Y-84113523D02*
X140302230Y-84018285D01*
X140302230Y-84018285D02*
X140349849Y-83970666D01*
X140349849Y-83970666D02*
X140445087Y-83923047D01*
X140445087Y-83923047D02*
X140587944Y-83923047D01*
X140587944Y-83923047D02*
X140683182Y-83970666D01*
X140683182Y-83970666D02*
X140730801Y-84018285D01*
X140730801Y-84018285D02*
X140778420Y-84113523D01*
X140778420Y-84113523D02*
X140778420Y-84494475D01*
X141254611Y-82970666D02*
X141254611Y-83542094D01*
X141254611Y-83256380D02*
X140254611Y-83256380D01*
X140254611Y-83256380D02*
X140397468Y-83351618D01*
X140397468Y-83351618D02*
X140492706Y-83446856D01*
X140492706Y-83446856D02*
X140540325Y-83542094D01*
X140254611Y-82637332D02*
X140254611Y-82018285D01*
X140254611Y-82018285D02*
X140635563Y-82351618D01*
X140635563Y-82351618D02*
X140635563Y-82208761D01*
X140635563Y-82208761D02*
X140683182Y-82113523D01*
X140683182Y-82113523D02*
X140730801Y-82065904D01*
X140730801Y-82065904D02*
X140826039Y-82018285D01*
X140826039Y-82018285D02*
X141064134Y-82018285D01*
X141064134Y-82018285D02*
X141159372Y-82065904D01*
X141159372Y-82065904D02*
X141206992Y-82113523D01*
X141206992Y-82113523D02*
X141254611Y-82208761D01*
X141254611Y-82208761D02*
X141254611Y-82494475D01*
X141254611Y-82494475D02*
X141206992Y-82589713D01*
X141206992Y-82589713D02*
X141159372Y-82637332D01*
X141254611Y-81065904D02*
X141254611Y-81637332D01*
X141254611Y-81351618D02*
X140254611Y-81351618D01*
X140254611Y-81351618D02*
X140397468Y-81446856D01*
X140397468Y-81446856D02*
X140492706Y-81542094D01*
X140492706Y-81542094D02*
X140540325Y-81637332D01*
X125092857Y-79262349D02*
X124792857Y-78833777D01*
X124578571Y-79262349D02*
X124578571Y-78362349D01*
X124578571Y-78362349D02*
X124921428Y-78362349D01*
X124921428Y-78362349D02*
X125007143Y-78405206D01*
X125007143Y-78405206D02*
X125050000Y-78448063D01*
X125050000Y-78448063D02*
X125092857Y-78533777D01*
X125092857Y-78533777D02*
X125092857Y-78662349D01*
X125092857Y-78662349D02*
X125050000Y-78748063D01*
X125050000Y-78748063D02*
X125007143Y-78790920D01*
X125007143Y-78790920D02*
X124921428Y-78833777D01*
X124921428Y-78833777D02*
X124578571Y-78833777D01*
X125950000Y-79262349D02*
X125435714Y-79262349D01*
X125692857Y-79262349D02*
X125692857Y-78362349D01*
X125692857Y-78362349D02*
X125607143Y-78490920D01*
X125607143Y-78490920D02*
X125521428Y-78576634D01*
X125521428Y-78576634D02*
X125435714Y-78619492D01*
X126250000Y-78362349D02*
X126807143Y-78362349D01*
X126807143Y-78362349D02*
X126507143Y-78705206D01*
X126507143Y-78705206D02*
X126635714Y-78705206D01*
X126635714Y-78705206D02*
X126721429Y-78748063D01*
X126721429Y-78748063D02*
X126764286Y-78790920D01*
X126764286Y-78790920D02*
X126807143Y-78876634D01*
X126807143Y-78876634D02*
X126807143Y-79090920D01*
X126807143Y-79090920D02*
X126764286Y-79176634D01*
X126764286Y-79176634D02*
X126721429Y-79219492D01*
X126721429Y-79219492D02*
X126635714Y-79262349D01*
X126635714Y-79262349D02*
X126378571Y-79262349D01*
X126378571Y-79262349D02*
X126292857Y-79219492D01*
X126292857Y-79219492D02*
X126250000Y-79176634D01*
X127150000Y-78448063D02*
X127192857Y-78405206D01*
X127192857Y-78405206D02*
X127278572Y-78362349D01*
X127278572Y-78362349D02*
X127492857Y-78362349D01*
X127492857Y-78362349D02*
X127578572Y-78405206D01*
X127578572Y-78405206D02*
X127621429Y-78448063D01*
X127621429Y-78448063D02*
X127664286Y-78533777D01*
X127664286Y-78533777D02*
X127664286Y-78619492D01*
X127664286Y-78619492D02*
X127621429Y-78748063D01*
X127621429Y-78748063D02*
X127107143Y-79262349D01*
X127107143Y-79262349D02*
X127664286Y-79262349D01*
X158530952Y-102184611D02*
X158197619Y-101708420D01*
X157959524Y-102184611D02*
X157959524Y-101184611D01*
X157959524Y-101184611D02*
X158340476Y-101184611D01*
X158340476Y-101184611D02*
X158435714Y-101232230D01*
X158435714Y-101232230D02*
X158483333Y-101279849D01*
X158483333Y-101279849D02*
X158530952Y-101375087D01*
X158530952Y-101375087D02*
X158530952Y-101517944D01*
X158530952Y-101517944D02*
X158483333Y-101613182D01*
X158483333Y-101613182D02*
X158435714Y-101660801D01*
X158435714Y-101660801D02*
X158340476Y-101708420D01*
X158340476Y-101708420D02*
X157959524Y-101708420D01*
X159483333Y-102184611D02*
X158911905Y-102184611D01*
X159197619Y-102184611D02*
X159197619Y-101184611D01*
X159197619Y-101184611D02*
X159102381Y-101327468D01*
X159102381Y-101327468D02*
X159007143Y-101422706D01*
X159007143Y-101422706D02*
X158911905Y-101470325D01*
X160435714Y-102184611D02*
X159864286Y-102184611D01*
X160150000Y-102184611D02*
X160150000Y-101184611D01*
X160150000Y-101184611D02*
X160054762Y-101327468D01*
X160054762Y-101327468D02*
X159959524Y-101422706D01*
X159959524Y-101422706D02*
X159864286Y-101470325D01*
X161340476Y-101184611D02*
X160864286Y-101184611D01*
X160864286Y-101184611D02*
X160816667Y-101660801D01*
X160816667Y-101660801D02*
X160864286Y-101613182D01*
X160864286Y-101613182D02*
X160959524Y-101565563D01*
X160959524Y-101565563D02*
X161197619Y-101565563D01*
X161197619Y-101565563D02*
X161292857Y-101613182D01*
X161292857Y-101613182D02*
X161340476Y-101660801D01*
X161340476Y-101660801D02*
X161388095Y-101756039D01*
X161388095Y-101756039D02*
X161388095Y-101994134D01*
X161388095Y-101994134D02*
X161340476Y-102089372D01*
X161340476Y-102089372D02*
X161292857Y-102136992D01*
X161292857Y-102136992D02*
X161197619Y-102184611D01*
X161197619Y-102184611D02*
X160959524Y-102184611D01*
X160959524Y-102184611D02*
X160864286Y-102136992D01*
X160864286Y-102136992D02*
X160816667Y-102089372D01*
X122780952Y-104624611D02*
X122447619Y-104148420D01*
X122209524Y-104624611D02*
X122209524Y-103624611D01*
X122209524Y-103624611D02*
X122590476Y-103624611D01*
X122590476Y-103624611D02*
X122685714Y-103672230D01*
X122685714Y-103672230D02*
X122733333Y-103719849D01*
X122733333Y-103719849D02*
X122780952Y-103815087D01*
X122780952Y-103815087D02*
X122780952Y-103957944D01*
X122780952Y-103957944D02*
X122733333Y-104053182D01*
X122733333Y-104053182D02*
X122685714Y-104100801D01*
X122685714Y-104100801D02*
X122590476Y-104148420D01*
X122590476Y-104148420D02*
X122209524Y-104148420D01*
X123733333Y-104624611D02*
X123161905Y-104624611D01*
X123447619Y-104624611D02*
X123447619Y-103624611D01*
X123447619Y-103624611D02*
X123352381Y-103767468D01*
X123352381Y-103767468D02*
X123257143Y-103862706D01*
X123257143Y-103862706D02*
X123161905Y-103910325D01*
X124352381Y-103624611D02*
X124447619Y-103624611D01*
X124447619Y-103624611D02*
X124542857Y-103672230D01*
X124542857Y-103672230D02*
X124590476Y-103719849D01*
X124590476Y-103719849D02*
X124638095Y-103815087D01*
X124638095Y-103815087D02*
X124685714Y-104005563D01*
X124685714Y-104005563D02*
X124685714Y-104243658D01*
X124685714Y-104243658D02*
X124638095Y-104434134D01*
X124638095Y-104434134D02*
X124590476Y-104529372D01*
X124590476Y-104529372D02*
X124542857Y-104576992D01*
X124542857Y-104576992D02*
X124447619Y-104624611D01*
X124447619Y-104624611D02*
X124352381Y-104624611D01*
X124352381Y-104624611D02*
X124257143Y-104576992D01*
X124257143Y-104576992D02*
X124209524Y-104529372D01*
X124209524Y-104529372D02*
X124161905Y-104434134D01*
X124161905Y-104434134D02*
X124114286Y-104243658D01*
X124114286Y-104243658D02*
X124114286Y-104005563D01*
X124114286Y-104005563D02*
X124161905Y-103815087D01*
X124161905Y-103815087D02*
X124209524Y-103719849D01*
X124209524Y-103719849D02*
X124257143Y-103672230D01*
X124257143Y-103672230D02*
X124352381Y-103624611D01*
X125590476Y-103624611D02*
X125114286Y-103624611D01*
X125114286Y-103624611D02*
X125066667Y-104100801D01*
X125066667Y-104100801D02*
X125114286Y-104053182D01*
X125114286Y-104053182D02*
X125209524Y-104005563D01*
X125209524Y-104005563D02*
X125447619Y-104005563D01*
X125447619Y-104005563D02*
X125542857Y-104053182D01*
X125542857Y-104053182D02*
X125590476Y-104100801D01*
X125590476Y-104100801D02*
X125638095Y-104196039D01*
X125638095Y-104196039D02*
X125638095Y-104434134D01*
X125638095Y-104434134D02*
X125590476Y-104529372D01*
X125590476Y-104529372D02*
X125542857Y-104576992D01*
X125542857Y-104576992D02*
X125447619Y-104624611D01*
X125447619Y-104624611D02*
X125209524Y-104624611D01*
X125209524Y-104624611D02*
X125114286Y-104576992D01*
X125114286Y-104576992D02*
X125066667Y-104529372D01*
X156530952Y-123263372D02*
X156483333Y-123310992D01*
X156483333Y-123310992D02*
X156340476Y-123358611D01*
X156340476Y-123358611D02*
X156245238Y-123358611D01*
X156245238Y-123358611D02*
X156102381Y-123310992D01*
X156102381Y-123310992D02*
X156007143Y-123215753D01*
X156007143Y-123215753D02*
X155959524Y-123120515D01*
X155959524Y-123120515D02*
X155911905Y-122930039D01*
X155911905Y-122930039D02*
X155911905Y-122787182D01*
X155911905Y-122787182D02*
X155959524Y-122596706D01*
X155959524Y-122596706D02*
X156007143Y-122501468D01*
X156007143Y-122501468D02*
X156102381Y-122406230D01*
X156102381Y-122406230D02*
X156245238Y-122358611D01*
X156245238Y-122358611D02*
X156340476Y-122358611D01*
X156340476Y-122358611D02*
X156483333Y-122406230D01*
X156483333Y-122406230D02*
X156530952Y-122453849D01*
X157483333Y-123358611D02*
X156911905Y-123358611D01*
X157197619Y-123358611D02*
X157197619Y-122358611D01*
X157197619Y-122358611D02*
X157102381Y-122501468D01*
X157102381Y-122501468D02*
X157007143Y-122596706D01*
X157007143Y-122596706D02*
X156911905Y-122644325D01*
X158435714Y-123358611D02*
X157864286Y-123358611D01*
X158150000Y-123358611D02*
X158150000Y-122358611D01*
X158150000Y-122358611D02*
X158054762Y-122501468D01*
X158054762Y-122501468D02*
X157959524Y-122596706D01*
X157959524Y-122596706D02*
X157864286Y-122644325D01*
X159340476Y-122358611D02*
X158864286Y-122358611D01*
X158864286Y-122358611D02*
X158816667Y-122834801D01*
X158816667Y-122834801D02*
X158864286Y-122787182D01*
X158864286Y-122787182D02*
X158959524Y-122739563D01*
X158959524Y-122739563D02*
X159197619Y-122739563D01*
X159197619Y-122739563D02*
X159292857Y-122787182D01*
X159292857Y-122787182D02*
X159340476Y-122834801D01*
X159340476Y-122834801D02*
X159388095Y-122930039D01*
X159388095Y-122930039D02*
X159388095Y-123168134D01*
X159388095Y-123168134D02*
X159340476Y-123263372D01*
X159340476Y-123263372D02*
X159292857Y-123310992D01*
X159292857Y-123310992D02*
X159197619Y-123358611D01*
X159197619Y-123358611D02*
X158959524Y-123358611D01*
X158959524Y-123358611D02*
X158864286Y-123310992D01*
X158864286Y-123310992D02*
X158816667Y-123263372D01*
X122830952Y-119914611D02*
X122497619Y-119438420D01*
X122259524Y-119914611D02*
X122259524Y-118914611D01*
X122259524Y-118914611D02*
X122640476Y-118914611D01*
X122640476Y-118914611D02*
X122735714Y-118962230D01*
X122735714Y-118962230D02*
X122783333Y-119009849D01*
X122783333Y-119009849D02*
X122830952Y-119105087D01*
X122830952Y-119105087D02*
X122830952Y-119247944D01*
X122830952Y-119247944D02*
X122783333Y-119343182D01*
X122783333Y-119343182D02*
X122735714Y-119390801D01*
X122735714Y-119390801D02*
X122640476Y-119438420D01*
X122640476Y-119438420D02*
X122259524Y-119438420D01*
X123783333Y-119914611D02*
X123211905Y-119914611D01*
X123497619Y-119914611D02*
X123497619Y-118914611D01*
X123497619Y-118914611D02*
X123402381Y-119057468D01*
X123402381Y-119057468D02*
X123307143Y-119152706D01*
X123307143Y-119152706D02*
X123211905Y-119200325D01*
X124164286Y-119009849D02*
X124211905Y-118962230D01*
X124211905Y-118962230D02*
X124307143Y-118914611D01*
X124307143Y-118914611D02*
X124545238Y-118914611D01*
X124545238Y-118914611D02*
X124640476Y-118962230D01*
X124640476Y-118962230D02*
X124688095Y-119009849D01*
X124688095Y-119009849D02*
X124735714Y-119105087D01*
X124735714Y-119105087D02*
X124735714Y-119200325D01*
X124735714Y-119200325D02*
X124688095Y-119343182D01*
X124688095Y-119343182D02*
X124116667Y-119914611D01*
X124116667Y-119914611D02*
X124735714Y-119914611D01*
X125069048Y-118914611D02*
X125688095Y-118914611D01*
X125688095Y-118914611D02*
X125354762Y-119295563D01*
X125354762Y-119295563D02*
X125497619Y-119295563D01*
X125497619Y-119295563D02*
X125592857Y-119343182D01*
X125592857Y-119343182D02*
X125640476Y-119390801D01*
X125640476Y-119390801D02*
X125688095Y-119486039D01*
X125688095Y-119486039D02*
X125688095Y-119724134D01*
X125688095Y-119724134D02*
X125640476Y-119819372D01*
X125640476Y-119819372D02*
X125592857Y-119866992D01*
X125592857Y-119866992D02*
X125497619Y-119914611D01*
X125497619Y-119914611D02*
X125211905Y-119914611D01*
X125211905Y-119914611D02*
X125116667Y-119866992D01*
X125116667Y-119866992D02*
X125069048Y-119819372D01*
X150804611Y-103023047D02*
X150328420Y-103356380D01*
X150804611Y-103594475D02*
X149804611Y-103594475D01*
X149804611Y-103594475D02*
X149804611Y-103213523D01*
X149804611Y-103213523D02*
X149852230Y-103118285D01*
X149852230Y-103118285D02*
X149899849Y-103070666D01*
X149899849Y-103070666D02*
X149995087Y-103023047D01*
X149995087Y-103023047D02*
X150137944Y-103023047D01*
X150137944Y-103023047D02*
X150233182Y-103070666D01*
X150233182Y-103070666D02*
X150280801Y-103118285D01*
X150280801Y-103118285D02*
X150328420Y-103213523D01*
X150328420Y-103213523D02*
X150328420Y-103594475D01*
X150804611Y-102070666D02*
X150804611Y-102642094D01*
X150804611Y-102356380D02*
X149804611Y-102356380D01*
X149804611Y-102356380D02*
X149947468Y-102451618D01*
X149947468Y-102451618D02*
X150042706Y-102546856D01*
X150042706Y-102546856D02*
X150090325Y-102642094D01*
X150804611Y-101118285D02*
X150804611Y-101689713D01*
X150804611Y-101403999D02*
X149804611Y-101403999D01*
X149804611Y-101403999D02*
X149947468Y-101499237D01*
X149947468Y-101499237D02*
X150042706Y-101594475D01*
X150042706Y-101594475D02*
X150090325Y-101689713D01*
X149804611Y-100261142D02*
X149804611Y-100451618D01*
X149804611Y-100451618D02*
X149852230Y-100546856D01*
X149852230Y-100546856D02*
X149899849Y-100594475D01*
X149899849Y-100594475D02*
X150042706Y-100689713D01*
X150042706Y-100689713D02*
X150233182Y-100737332D01*
X150233182Y-100737332D02*
X150614134Y-100737332D01*
X150614134Y-100737332D02*
X150709372Y-100689713D01*
X150709372Y-100689713D02*
X150756992Y-100642094D01*
X150756992Y-100642094D02*
X150804611Y-100546856D01*
X150804611Y-100546856D02*
X150804611Y-100356380D01*
X150804611Y-100356380D02*
X150756992Y-100261142D01*
X150756992Y-100261142D02*
X150709372Y-100213523D01*
X150709372Y-100213523D02*
X150614134Y-100165904D01*
X150614134Y-100165904D02*
X150376039Y-100165904D01*
X150376039Y-100165904D02*
X150280801Y-100213523D01*
X150280801Y-100213523D02*
X150233182Y-100261142D01*
X150233182Y-100261142D02*
X150185563Y-100356380D01*
X150185563Y-100356380D02*
X150185563Y-100546856D01*
X150185563Y-100546856D02*
X150233182Y-100642094D01*
X150233182Y-100642094D02*
X150280801Y-100689713D01*
X150280801Y-100689713D02*
X150376039Y-100737332D01*
X146271882Y-89558454D02*
X145699462Y-89457439D01*
X145867821Y-89962515D02*
X145160714Y-89255408D01*
X145160714Y-89255408D02*
X145430088Y-88986034D01*
X145430088Y-88986034D02*
X145531104Y-88952362D01*
X145531104Y-88952362D02*
X145598447Y-88952362D01*
X145598447Y-88952362D02*
X145699462Y-88986034D01*
X145699462Y-88986034D02*
X145800478Y-89087049D01*
X145800478Y-89087049D02*
X145834149Y-89188065D01*
X145834149Y-89188065D02*
X145834149Y-89255408D01*
X145834149Y-89255408D02*
X145800478Y-89356423D01*
X145800478Y-89356423D02*
X145531104Y-89625797D01*
X146945317Y-88885019D02*
X146541256Y-89289080D01*
X146743287Y-89087049D02*
X146036180Y-88379943D01*
X146036180Y-88379943D02*
X146069852Y-88548301D01*
X146069852Y-88548301D02*
X146069852Y-88682988D01*
X146069852Y-88682988D02*
X146036180Y-88784004D01*
X146574928Y-87975882D02*
X146574928Y-87908538D01*
X146574928Y-87908538D02*
X146608600Y-87807523D01*
X146608600Y-87807523D02*
X146776959Y-87639164D01*
X146776959Y-87639164D02*
X146877974Y-87605492D01*
X146877974Y-87605492D02*
X146945317Y-87605492D01*
X146945317Y-87605492D02*
X147046333Y-87639164D01*
X147046333Y-87639164D02*
X147113676Y-87706508D01*
X147113676Y-87706508D02*
X147181020Y-87841195D01*
X147181020Y-87841195D02*
X147181020Y-88649317D01*
X147181020Y-88649317D02*
X147618752Y-88211584D01*
X148292187Y-87538149D02*
X147888126Y-87942210D01*
X148090157Y-87740179D02*
X147383050Y-87033072D01*
X147383050Y-87033072D02*
X147416722Y-87201431D01*
X147416722Y-87201431D02*
X147416722Y-87336118D01*
X147416722Y-87336118D02*
X147383050Y-87437134D01*
X126560563Y-101174749D02*
X126543133Y-101239798D01*
X126543133Y-101239798D02*
X126443225Y-101352466D01*
X126443225Y-101352466D02*
X126360746Y-101400085D01*
X126360746Y-101400085D02*
X126213218Y-101430274D01*
X126213218Y-101430274D02*
X126083121Y-101395415D01*
X126083121Y-101395415D02*
X125994262Y-101336746D01*
X125994262Y-101336746D02*
X125857785Y-101195598D01*
X125857785Y-101195598D02*
X125786356Y-101071880D01*
X125786356Y-101071880D02*
X125732358Y-100883113D01*
X125732358Y-100883113D02*
X125725978Y-100776825D01*
X125725978Y-100776825D02*
X125760838Y-100646727D01*
X125760838Y-100646727D02*
X125860746Y-100534060D01*
X125860746Y-100534060D02*
X125943225Y-100486441D01*
X125943225Y-100486441D02*
X126090752Y-100456251D01*
X126090752Y-100456251D02*
X126155801Y-100473681D01*
X127432968Y-100781037D02*
X126938096Y-101066752D01*
X127185532Y-100923894D02*
X126685532Y-100057869D01*
X126685532Y-100057869D02*
X126674482Y-100229206D01*
X126674482Y-100229206D02*
X126639622Y-100359304D01*
X126639622Y-100359304D02*
X126580953Y-100448162D01*
X127469079Y-99605488D02*
X127551557Y-99557869D01*
X127551557Y-99557869D02*
X127657846Y-99551489D01*
X127657846Y-99551489D02*
X127722894Y-99568919D01*
X127722894Y-99568919D02*
X127811753Y-99627588D01*
X127811753Y-99627588D02*
X127948230Y-99768736D01*
X127948230Y-99768736D02*
X128067278Y-99974932D01*
X128067278Y-99974932D02*
X128121277Y-100163699D01*
X128121277Y-100163699D02*
X128127656Y-100269987D01*
X128127656Y-100269987D02*
X128110227Y-100335036D01*
X128110227Y-100335036D02*
X128051557Y-100423894D01*
X128051557Y-100423894D02*
X127969079Y-100471514D01*
X127969079Y-100471514D02*
X127862791Y-100477893D01*
X127862791Y-100477893D02*
X127797742Y-100460463D01*
X127797742Y-100460463D02*
X127708884Y-100401794D01*
X127708884Y-100401794D02*
X127572406Y-100260647D01*
X127572406Y-100260647D02*
X127453358Y-100054450D01*
X127453358Y-100054450D02*
X127399360Y-99865683D01*
X127399360Y-99865683D02*
X127392980Y-99759395D01*
X127392980Y-99759395D02*
X127410410Y-99694346D01*
X127410410Y-99694346D02*
X127469079Y-99605488D01*
X128500061Y-99010250D02*
X128335104Y-99105488D01*
X128335104Y-99105488D02*
X128276435Y-99194346D01*
X128276435Y-99194346D02*
X128259005Y-99259395D01*
X128259005Y-99259395D02*
X128247955Y-99430732D01*
X128247955Y-99430732D02*
X128301954Y-99619499D01*
X128301954Y-99619499D02*
X128492430Y-99949413D01*
X128492430Y-99949413D02*
X128581289Y-100008082D01*
X128581289Y-100008082D02*
X128646338Y-100025512D01*
X128646338Y-100025512D02*
X128752626Y-100019133D01*
X128752626Y-100019133D02*
X128917583Y-99923894D01*
X128917583Y-99923894D02*
X128976252Y-99835036D01*
X128976252Y-99835036D02*
X128993682Y-99769987D01*
X128993682Y-99769987D02*
X128987302Y-99663699D01*
X128987302Y-99663699D02*
X128868254Y-99457503D01*
X128868254Y-99457503D02*
X128779396Y-99398834D01*
X128779396Y-99398834D02*
X128714347Y-99381404D01*
X128714347Y-99381404D02*
X128608059Y-99387783D01*
X128608059Y-99387783D02*
X128443102Y-99483022D01*
X128443102Y-99483022D02*
X128384433Y-99571880D01*
X128384433Y-99571880D02*
X128367003Y-99636929D01*
X128367003Y-99636929D02*
X128373383Y-99743217D01*
X138654611Y-112973047D02*
X138654611Y-113449237D01*
X138654611Y-113449237D02*
X137654611Y-113449237D01*
X138654611Y-112115904D02*
X138654611Y-112687332D01*
X138654611Y-112401618D02*
X137654611Y-112401618D01*
X137654611Y-112401618D02*
X137797468Y-112496856D01*
X137797468Y-112496856D02*
X137892706Y-112592094D01*
X137892706Y-112592094D02*
X137940325Y-112687332D01*
X137654611Y-111496856D02*
X137654611Y-111401618D01*
X137654611Y-111401618D02*
X137702230Y-111306380D01*
X137702230Y-111306380D02*
X137749849Y-111258761D01*
X137749849Y-111258761D02*
X137845087Y-111211142D01*
X137845087Y-111211142D02*
X138035563Y-111163523D01*
X138035563Y-111163523D02*
X138273658Y-111163523D01*
X138273658Y-111163523D02*
X138464134Y-111211142D01*
X138464134Y-111211142D02*
X138559372Y-111258761D01*
X138559372Y-111258761D02*
X138606992Y-111306380D01*
X138606992Y-111306380D02*
X138654611Y-111401618D01*
X138654611Y-111401618D02*
X138654611Y-111496856D01*
X138654611Y-111496856D02*
X138606992Y-111592094D01*
X138606992Y-111592094D02*
X138559372Y-111639713D01*
X138559372Y-111639713D02*
X138464134Y-111687332D01*
X138464134Y-111687332D02*
X138273658Y-111734951D01*
X138273658Y-111734951D02*
X138035563Y-111734951D01*
X138035563Y-111734951D02*
X137845087Y-111687332D01*
X137845087Y-111687332D02*
X137749849Y-111639713D01*
X137749849Y-111639713D02*
X137702230Y-111592094D01*
X137702230Y-111592094D02*
X137654611Y-111496856D01*
X138654611Y-110211142D02*
X138654611Y-110782570D01*
X138654611Y-110496856D02*
X137654611Y-110496856D01*
X137654611Y-110496856D02*
X137797468Y-110592094D01*
X137797468Y-110592094D02*
X137892706Y-110687332D01*
X137892706Y-110687332D02*
X137940325Y-110782570D01*
X158430952Y-114784611D02*
X158097619Y-114308420D01*
X157859524Y-114784611D02*
X157859524Y-113784611D01*
X157859524Y-113784611D02*
X158240476Y-113784611D01*
X158240476Y-113784611D02*
X158335714Y-113832230D01*
X158335714Y-113832230D02*
X158383333Y-113879849D01*
X158383333Y-113879849D02*
X158430952Y-113975087D01*
X158430952Y-113975087D02*
X158430952Y-114117944D01*
X158430952Y-114117944D02*
X158383333Y-114213182D01*
X158383333Y-114213182D02*
X158335714Y-114260801D01*
X158335714Y-114260801D02*
X158240476Y-114308420D01*
X158240476Y-114308420D02*
X157859524Y-114308420D01*
X159383333Y-114784611D02*
X158811905Y-114784611D01*
X159097619Y-114784611D02*
X159097619Y-113784611D01*
X159097619Y-113784611D02*
X159002381Y-113927468D01*
X159002381Y-113927468D02*
X158907143Y-114022706D01*
X158907143Y-114022706D02*
X158811905Y-114070325D01*
X159764286Y-113879849D02*
X159811905Y-113832230D01*
X159811905Y-113832230D02*
X159907143Y-113784611D01*
X159907143Y-113784611D02*
X160145238Y-113784611D01*
X160145238Y-113784611D02*
X160240476Y-113832230D01*
X160240476Y-113832230D02*
X160288095Y-113879849D01*
X160288095Y-113879849D02*
X160335714Y-113975087D01*
X160335714Y-113975087D02*
X160335714Y-114070325D01*
X160335714Y-114070325D02*
X160288095Y-114213182D01*
X160288095Y-114213182D02*
X159716667Y-114784611D01*
X159716667Y-114784611D02*
X160335714Y-114784611D01*
X160669048Y-113784611D02*
X161335714Y-113784611D01*
X161335714Y-113784611D02*
X160907143Y-114784611D01*
X122780952Y-97054611D02*
X122447619Y-96578420D01*
X122209524Y-97054611D02*
X122209524Y-96054611D01*
X122209524Y-96054611D02*
X122590476Y-96054611D01*
X122590476Y-96054611D02*
X122685714Y-96102230D01*
X122685714Y-96102230D02*
X122733333Y-96149849D01*
X122733333Y-96149849D02*
X122780952Y-96245087D01*
X122780952Y-96245087D02*
X122780952Y-96387944D01*
X122780952Y-96387944D02*
X122733333Y-96483182D01*
X122733333Y-96483182D02*
X122685714Y-96530801D01*
X122685714Y-96530801D02*
X122590476Y-96578420D01*
X122590476Y-96578420D02*
X122209524Y-96578420D01*
X123733333Y-97054611D02*
X123161905Y-97054611D01*
X123447619Y-97054611D02*
X123447619Y-96054611D01*
X123447619Y-96054611D02*
X123352381Y-96197468D01*
X123352381Y-96197468D02*
X123257143Y-96292706D01*
X123257143Y-96292706D02*
X123161905Y-96340325D01*
X124352381Y-96054611D02*
X124447619Y-96054611D01*
X124447619Y-96054611D02*
X124542857Y-96102230D01*
X124542857Y-96102230D02*
X124590476Y-96149849D01*
X124590476Y-96149849D02*
X124638095Y-96245087D01*
X124638095Y-96245087D02*
X124685714Y-96435563D01*
X124685714Y-96435563D02*
X124685714Y-96673658D01*
X124685714Y-96673658D02*
X124638095Y-96864134D01*
X124638095Y-96864134D02*
X124590476Y-96959372D01*
X124590476Y-96959372D02*
X124542857Y-97006992D01*
X124542857Y-97006992D02*
X124447619Y-97054611D01*
X124447619Y-97054611D02*
X124352381Y-97054611D01*
X124352381Y-97054611D02*
X124257143Y-97006992D01*
X124257143Y-97006992D02*
X124209524Y-96959372D01*
X124209524Y-96959372D02*
X124161905Y-96864134D01*
X124161905Y-96864134D02*
X124114286Y-96673658D01*
X124114286Y-96673658D02*
X124114286Y-96435563D01*
X124114286Y-96435563D02*
X124161905Y-96245087D01*
X124161905Y-96245087D02*
X124209524Y-96149849D01*
X124209524Y-96149849D02*
X124257143Y-96102230D01*
X124257143Y-96102230D02*
X124352381Y-96054611D01*
X125066667Y-96149849D02*
X125114286Y-96102230D01*
X125114286Y-96102230D02*
X125209524Y-96054611D01*
X125209524Y-96054611D02*
X125447619Y-96054611D01*
X125447619Y-96054611D02*
X125542857Y-96102230D01*
X125542857Y-96102230D02*
X125590476Y-96149849D01*
X125590476Y-96149849D02*
X125638095Y-96245087D01*
X125638095Y-96245087D02*
X125638095Y-96340325D01*
X125638095Y-96340325D02*
X125590476Y-96483182D01*
X125590476Y-96483182D02*
X125019048Y-97054611D01*
X125019048Y-97054611D02*
X125638095Y-97054611D01*
X122780952Y-99717811D02*
X122447619Y-99241620D01*
X122209524Y-99717811D02*
X122209524Y-98717811D01*
X122209524Y-98717811D02*
X122590476Y-98717811D01*
X122590476Y-98717811D02*
X122685714Y-98765430D01*
X122685714Y-98765430D02*
X122733333Y-98813049D01*
X122733333Y-98813049D02*
X122780952Y-98908287D01*
X122780952Y-98908287D02*
X122780952Y-99051144D01*
X122780952Y-99051144D02*
X122733333Y-99146382D01*
X122733333Y-99146382D02*
X122685714Y-99194001D01*
X122685714Y-99194001D02*
X122590476Y-99241620D01*
X122590476Y-99241620D02*
X122209524Y-99241620D01*
X123733333Y-99717811D02*
X123161905Y-99717811D01*
X123447619Y-99717811D02*
X123447619Y-98717811D01*
X123447619Y-98717811D02*
X123352381Y-98860668D01*
X123352381Y-98860668D02*
X123257143Y-98955906D01*
X123257143Y-98955906D02*
X123161905Y-99003525D01*
X124352381Y-98717811D02*
X124447619Y-98717811D01*
X124447619Y-98717811D02*
X124542857Y-98765430D01*
X124542857Y-98765430D02*
X124590476Y-98813049D01*
X124590476Y-98813049D02*
X124638095Y-98908287D01*
X124638095Y-98908287D02*
X124685714Y-99098763D01*
X124685714Y-99098763D02*
X124685714Y-99336858D01*
X124685714Y-99336858D02*
X124638095Y-99527334D01*
X124638095Y-99527334D02*
X124590476Y-99622572D01*
X124590476Y-99622572D02*
X124542857Y-99670192D01*
X124542857Y-99670192D02*
X124447619Y-99717811D01*
X124447619Y-99717811D02*
X124352381Y-99717811D01*
X124352381Y-99717811D02*
X124257143Y-99670192D01*
X124257143Y-99670192D02*
X124209524Y-99622572D01*
X124209524Y-99622572D02*
X124161905Y-99527334D01*
X124161905Y-99527334D02*
X124114286Y-99336858D01*
X124114286Y-99336858D02*
X124114286Y-99098763D01*
X124114286Y-99098763D02*
X124161905Y-98908287D01*
X124161905Y-98908287D02*
X124209524Y-98813049D01*
X124209524Y-98813049D02*
X124257143Y-98765430D01*
X124257143Y-98765430D02*
X124352381Y-98717811D01*
X125542857Y-99051144D02*
X125542857Y-99717811D01*
X125304762Y-98670192D02*
X125066667Y-99384477D01*
X125066667Y-99384477D02*
X125685714Y-99384477D01*
X122780952Y-92097811D02*
X122447619Y-91621620D01*
X122209524Y-92097811D02*
X122209524Y-91097811D01*
X122209524Y-91097811D02*
X122590476Y-91097811D01*
X122590476Y-91097811D02*
X122685714Y-91145430D01*
X122685714Y-91145430D02*
X122733333Y-91193049D01*
X122733333Y-91193049D02*
X122780952Y-91288287D01*
X122780952Y-91288287D02*
X122780952Y-91431144D01*
X122780952Y-91431144D02*
X122733333Y-91526382D01*
X122733333Y-91526382D02*
X122685714Y-91574001D01*
X122685714Y-91574001D02*
X122590476Y-91621620D01*
X122590476Y-91621620D02*
X122209524Y-91621620D01*
X123733333Y-92097811D02*
X123161905Y-92097811D01*
X123447619Y-92097811D02*
X123447619Y-91097811D01*
X123447619Y-91097811D02*
X123352381Y-91240668D01*
X123352381Y-91240668D02*
X123257143Y-91335906D01*
X123257143Y-91335906D02*
X123161905Y-91383525D01*
X124352381Y-91097811D02*
X124447619Y-91097811D01*
X124447619Y-91097811D02*
X124542857Y-91145430D01*
X124542857Y-91145430D02*
X124590476Y-91193049D01*
X124590476Y-91193049D02*
X124638095Y-91288287D01*
X124638095Y-91288287D02*
X124685714Y-91478763D01*
X124685714Y-91478763D02*
X124685714Y-91716858D01*
X124685714Y-91716858D02*
X124638095Y-91907334D01*
X124638095Y-91907334D02*
X124590476Y-92002572D01*
X124590476Y-92002572D02*
X124542857Y-92050192D01*
X124542857Y-92050192D02*
X124447619Y-92097811D01*
X124447619Y-92097811D02*
X124352381Y-92097811D01*
X124352381Y-92097811D02*
X124257143Y-92050192D01*
X124257143Y-92050192D02*
X124209524Y-92002572D01*
X124209524Y-92002572D02*
X124161905Y-91907334D01*
X124161905Y-91907334D02*
X124114286Y-91716858D01*
X124114286Y-91716858D02*
X124114286Y-91478763D01*
X124114286Y-91478763D02*
X124161905Y-91288287D01*
X124161905Y-91288287D02*
X124209524Y-91193049D01*
X124209524Y-91193049D02*
X124257143Y-91145430D01*
X124257143Y-91145430D02*
X124352381Y-91097811D01*
X125161905Y-92097811D02*
X125352381Y-92097811D01*
X125352381Y-92097811D02*
X125447619Y-92050192D01*
X125447619Y-92050192D02*
X125495238Y-92002572D01*
X125495238Y-92002572D02*
X125590476Y-91859715D01*
X125590476Y-91859715D02*
X125638095Y-91669239D01*
X125638095Y-91669239D02*
X125638095Y-91288287D01*
X125638095Y-91288287D02*
X125590476Y-91193049D01*
X125590476Y-91193049D02*
X125542857Y-91145430D01*
X125542857Y-91145430D02*
X125447619Y-91097811D01*
X125447619Y-91097811D02*
X125257143Y-91097811D01*
X125257143Y-91097811D02*
X125161905Y-91145430D01*
X125161905Y-91145430D02*
X125114286Y-91193049D01*
X125114286Y-91193049D02*
X125066667Y-91288287D01*
X125066667Y-91288287D02*
X125066667Y-91526382D01*
X125066667Y-91526382D02*
X125114286Y-91621620D01*
X125114286Y-91621620D02*
X125161905Y-91669239D01*
X125161905Y-91669239D02*
X125257143Y-91716858D01*
X125257143Y-91716858D02*
X125447619Y-91716858D01*
X125447619Y-91716858D02*
X125542857Y-91669239D01*
X125542857Y-91669239D02*
X125590476Y-91621620D01*
X125590476Y-91621620D02*
X125638095Y-91526382D01*
X137930952Y-88813372D02*
X137883333Y-88860992D01*
X137883333Y-88860992D02*
X137740476Y-88908611D01*
X137740476Y-88908611D02*
X137645238Y-88908611D01*
X137645238Y-88908611D02*
X137502381Y-88860992D01*
X137502381Y-88860992D02*
X137407143Y-88765753D01*
X137407143Y-88765753D02*
X137359524Y-88670515D01*
X137359524Y-88670515D02*
X137311905Y-88480039D01*
X137311905Y-88480039D02*
X137311905Y-88337182D01*
X137311905Y-88337182D02*
X137359524Y-88146706D01*
X137359524Y-88146706D02*
X137407143Y-88051468D01*
X137407143Y-88051468D02*
X137502381Y-87956230D01*
X137502381Y-87956230D02*
X137645238Y-87908611D01*
X137645238Y-87908611D02*
X137740476Y-87908611D01*
X137740476Y-87908611D02*
X137883333Y-87956230D01*
X137883333Y-87956230D02*
X137930952Y-88003849D01*
X138883333Y-88908611D02*
X138311905Y-88908611D01*
X138597619Y-88908611D02*
X138597619Y-87908611D01*
X138597619Y-87908611D02*
X138502381Y-88051468D01*
X138502381Y-88051468D02*
X138407143Y-88146706D01*
X138407143Y-88146706D02*
X138311905Y-88194325D01*
X139835714Y-88908611D02*
X139264286Y-88908611D01*
X139550000Y-88908611D02*
X139550000Y-87908611D01*
X139550000Y-87908611D02*
X139454762Y-88051468D01*
X139454762Y-88051468D02*
X139359524Y-88146706D01*
X139359524Y-88146706D02*
X139264286Y-88194325D01*
X140216667Y-88003849D02*
X140264286Y-87956230D01*
X140264286Y-87956230D02*
X140359524Y-87908611D01*
X140359524Y-87908611D02*
X140597619Y-87908611D01*
X140597619Y-87908611D02*
X140692857Y-87956230D01*
X140692857Y-87956230D02*
X140740476Y-88003849D01*
X140740476Y-88003849D02*
X140788095Y-88099087D01*
X140788095Y-88099087D02*
X140788095Y-88194325D01*
X140788095Y-88194325D02*
X140740476Y-88337182D01*
X140740476Y-88337182D02*
X140169048Y-88908611D01*
X140169048Y-88908611D02*
X140788095Y-88908611D01*
X158530952Y-94637811D02*
X158197619Y-94161620D01*
X157959524Y-94637811D02*
X157959524Y-93637811D01*
X157959524Y-93637811D02*
X158340476Y-93637811D01*
X158340476Y-93637811D02*
X158435714Y-93685430D01*
X158435714Y-93685430D02*
X158483333Y-93733049D01*
X158483333Y-93733049D02*
X158530952Y-93828287D01*
X158530952Y-93828287D02*
X158530952Y-93971144D01*
X158530952Y-93971144D02*
X158483333Y-94066382D01*
X158483333Y-94066382D02*
X158435714Y-94114001D01*
X158435714Y-94114001D02*
X158340476Y-94161620D01*
X158340476Y-94161620D02*
X157959524Y-94161620D01*
X159483333Y-94637811D02*
X158911905Y-94637811D01*
X159197619Y-94637811D02*
X159197619Y-93637811D01*
X159197619Y-93637811D02*
X159102381Y-93780668D01*
X159102381Y-93780668D02*
X159007143Y-93875906D01*
X159007143Y-93875906D02*
X158911905Y-93923525D01*
X160435714Y-94637811D02*
X159864286Y-94637811D01*
X160150000Y-94637811D02*
X160150000Y-93637811D01*
X160150000Y-93637811D02*
X160054762Y-93780668D01*
X160054762Y-93780668D02*
X159959524Y-93875906D01*
X159959524Y-93875906D02*
X159864286Y-93923525D01*
X161007143Y-94066382D02*
X160911905Y-94018763D01*
X160911905Y-94018763D02*
X160864286Y-93971144D01*
X160864286Y-93971144D02*
X160816667Y-93875906D01*
X160816667Y-93875906D02*
X160816667Y-93828287D01*
X160816667Y-93828287D02*
X160864286Y-93733049D01*
X160864286Y-93733049D02*
X160911905Y-93685430D01*
X160911905Y-93685430D02*
X161007143Y-93637811D01*
X161007143Y-93637811D02*
X161197619Y-93637811D01*
X161197619Y-93637811D02*
X161292857Y-93685430D01*
X161292857Y-93685430D02*
X161340476Y-93733049D01*
X161340476Y-93733049D02*
X161388095Y-93828287D01*
X161388095Y-93828287D02*
X161388095Y-93875906D01*
X161388095Y-93875906D02*
X161340476Y-93971144D01*
X161340476Y-93971144D02*
X161292857Y-94018763D01*
X161292857Y-94018763D02*
X161197619Y-94066382D01*
X161197619Y-94066382D02*
X161007143Y-94066382D01*
X161007143Y-94066382D02*
X160911905Y-94114001D01*
X160911905Y-94114001D02*
X160864286Y-94161620D01*
X160864286Y-94161620D02*
X160816667Y-94256858D01*
X160816667Y-94256858D02*
X160816667Y-94447334D01*
X160816667Y-94447334D02*
X160864286Y-94542572D01*
X160864286Y-94542572D02*
X160911905Y-94590192D01*
X160911905Y-94590192D02*
X161007143Y-94637811D01*
X161007143Y-94637811D02*
X161197619Y-94637811D01*
X161197619Y-94637811D02*
X161292857Y-94590192D01*
X161292857Y-94590192D02*
X161340476Y-94542572D01*
X161340476Y-94542572D02*
X161388095Y-94447334D01*
X161388095Y-94447334D02*
X161388095Y-94256858D01*
X161388095Y-94256858D02*
X161340476Y-94161620D01*
X161340476Y-94161620D02*
X161292857Y-94114001D01*
X161292857Y-94114001D02*
X161197619Y-94066382D01*
X147454611Y-127103571D02*
X146978420Y-127436904D01*
X147454611Y-127674999D02*
X146454611Y-127674999D01*
X146454611Y-127674999D02*
X146454611Y-127294047D01*
X146454611Y-127294047D02*
X146502230Y-127198809D01*
X146502230Y-127198809D02*
X146549849Y-127151190D01*
X146549849Y-127151190D02*
X146645087Y-127103571D01*
X146645087Y-127103571D02*
X146787944Y-127103571D01*
X146787944Y-127103571D02*
X146883182Y-127151190D01*
X146883182Y-127151190D02*
X146930801Y-127198809D01*
X146930801Y-127198809D02*
X146978420Y-127294047D01*
X146978420Y-127294047D02*
X146978420Y-127674999D01*
X146930801Y-126674999D02*
X146930801Y-126341666D01*
X147454611Y-126198809D02*
X147454611Y-126674999D01*
X147454611Y-126674999D02*
X146454611Y-126674999D01*
X146454611Y-126674999D02*
X146454611Y-126198809D01*
X147406992Y-125817856D02*
X147454611Y-125674999D01*
X147454611Y-125674999D02*
X147454611Y-125436904D01*
X147454611Y-125436904D02*
X147406992Y-125341666D01*
X147406992Y-125341666D02*
X147359372Y-125294047D01*
X147359372Y-125294047D02*
X147264134Y-125246428D01*
X147264134Y-125246428D02*
X147168896Y-125246428D01*
X147168896Y-125246428D02*
X147073658Y-125294047D01*
X147073658Y-125294047D02*
X147026039Y-125341666D01*
X147026039Y-125341666D02*
X146978420Y-125436904D01*
X146978420Y-125436904D02*
X146930801Y-125627380D01*
X146930801Y-125627380D02*
X146883182Y-125722618D01*
X146883182Y-125722618D02*
X146835563Y-125770237D01*
X146835563Y-125770237D02*
X146740325Y-125817856D01*
X146740325Y-125817856D02*
X146645087Y-125817856D01*
X146645087Y-125817856D02*
X146549849Y-125770237D01*
X146549849Y-125770237D02*
X146502230Y-125722618D01*
X146502230Y-125722618D02*
X146454611Y-125627380D01*
X146454611Y-125627380D02*
X146454611Y-125389285D01*
X146454611Y-125389285D02*
X146502230Y-125246428D01*
X146930801Y-124817856D02*
X146930801Y-124484523D01*
X147454611Y-124341666D02*
X147454611Y-124817856D01*
X147454611Y-124817856D02*
X146454611Y-124817856D01*
X146454611Y-124817856D02*
X146454611Y-124341666D01*
X146454611Y-124055951D02*
X146454611Y-123484523D01*
X147454611Y-123770237D02*
X146454611Y-123770237D01*
X146454611Y-122960713D02*
X146454611Y-122865475D01*
X146454611Y-122865475D02*
X146502230Y-122770237D01*
X146502230Y-122770237D02*
X146549849Y-122722618D01*
X146549849Y-122722618D02*
X146645087Y-122674999D01*
X146645087Y-122674999D02*
X146835563Y-122627380D01*
X146835563Y-122627380D02*
X147073658Y-122627380D01*
X147073658Y-122627380D02*
X147264134Y-122674999D01*
X147264134Y-122674999D02*
X147359372Y-122722618D01*
X147359372Y-122722618D02*
X147406992Y-122770237D01*
X147406992Y-122770237D02*
X147454611Y-122865475D01*
X147454611Y-122865475D02*
X147454611Y-122960713D01*
X147454611Y-122960713D02*
X147406992Y-123055951D01*
X147406992Y-123055951D02*
X147359372Y-123103570D01*
X147359372Y-123103570D02*
X147264134Y-123151189D01*
X147264134Y-123151189D02*
X147073658Y-123198808D01*
X147073658Y-123198808D02*
X146835563Y-123198808D01*
X146835563Y-123198808D02*
X146645087Y-123151189D01*
X146645087Y-123151189D02*
X146549849Y-123103570D01*
X146549849Y-123103570D02*
X146502230Y-123055951D01*
X146502230Y-123055951D02*
X146454611Y-122960713D01*
X122780952Y-107337811D02*
X122447619Y-106861620D01*
X122209524Y-107337811D02*
X122209524Y-106337811D01*
X122209524Y-106337811D02*
X122590476Y-106337811D01*
X122590476Y-106337811D02*
X122685714Y-106385430D01*
X122685714Y-106385430D02*
X122733333Y-106433049D01*
X122733333Y-106433049D02*
X122780952Y-106528287D01*
X122780952Y-106528287D02*
X122780952Y-106671144D01*
X122780952Y-106671144D02*
X122733333Y-106766382D01*
X122733333Y-106766382D02*
X122685714Y-106814001D01*
X122685714Y-106814001D02*
X122590476Y-106861620D01*
X122590476Y-106861620D02*
X122209524Y-106861620D01*
X123733333Y-107337811D02*
X123161905Y-107337811D01*
X123447619Y-107337811D02*
X123447619Y-106337811D01*
X123447619Y-106337811D02*
X123352381Y-106480668D01*
X123352381Y-106480668D02*
X123257143Y-106575906D01*
X123257143Y-106575906D02*
X123161905Y-106623525D01*
X124352381Y-106337811D02*
X124447619Y-106337811D01*
X124447619Y-106337811D02*
X124542857Y-106385430D01*
X124542857Y-106385430D02*
X124590476Y-106433049D01*
X124590476Y-106433049D02*
X124638095Y-106528287D01*
X124638095Y-106528287D02*
X124685714Y-106718763D01*
X124685714Y-106718763D02*
X124685714Y-106956858D01*
X124685714Y-106956858D02*
X124638095Y-107147334D01*
X124638095Y-107147334D02*
X124590476Y-107242572D01*
X124590476Y-107242572D02*
X124542857Y-107290192D01*
X124542857Y-107290192D02*
X124447619Y-107337811D01*
X124447619Y-107337811D02*
X124352381Y-107337811D01*
X124352381Y-107337811D02*
X124257143Y-107290192D01*
X124257143Y-107290192D02*
X124209524Y-107242572D01*
X124209524Y-107242572D02*
X124161905Y-107147334D01*
X124161905Y-107147334D02*
X124114286Y-106956858D01*
X124114286Y-106956858D02*
X124114286Y-106718763D01*
X124114286Y-106718763D02*
X124161905Y-106528287D01*
X124161905Y-106528287D02*
X124209524Y-106433049D01*
X124209524Y-106433049D02*
X124257143Y-106385430D01*
X124257143Y-106385430D02*
X124352381Y-106337811D01*
X125542857Y-106337811D02*
X125352381Y-106337811D01*
X125352381Y-106337811D02*
X125257143Y-106385430D01*
X125257143Y-106385430D02*
X125209524Y-106433049D01*
X125209524Y-106433049D02*
X125114286Y-106575906D01*
X125114286Y-106575906D02*
X125066667Y-106766382D01*
X125066667Y-106766382D02*
X125066667Y-107147334D01*
X125066667Y-107147334D02*
X125114286Y-107242572D01*
X125114286Y-107242572D02*
X125161905Y-107290192D01*
X125161905Y-107290192D02*
X125257143Y-107337811D01*
X125257143Y-107337811D02*
X125447619Y-107337811D01*
X125447619Y-107337811D02*
X125542857Y-107290192D01*
X125542857Y-107290192D02*
X125590476Y-107242572D01*
X125590476Y-107242572D02*
X125638095Y-107147334D01*
X125638095Y-107147334D02*
X125638095Y-106909239D01*
X125638095Y-106909239D02*
X125590476Y-106814001D01*
X125590476Y-106814001D02*
X125542857Y-106766382D01*
X125542857Y-106766382D02*
X125447619Y-106718763D01*
X125447619Y-106718763D02*
X125257143Y-106718763D01*
X125257143Y-106718763D02*
X125161905Y-106766382D01*
X125161905Y-106766382D02*
X125114286Y-106814001D01*
X125114286Y-106814001D02*
X125066667Y-106909239D01*
X133159372Y-107673047D02*
X133206992Y-107720666D01*
X133206992Y-107720666D02*
X133254611Y-107863523D01*
X133254611Y-107863523D02*
X133254611Y-107958761D01*
X133254611Y-107958761D02*
X133206992Y-108101618D01*
X133206992Y-108101618D02*
X133111753Y-108196856D01*
X133111753Y-108196856D02*
X133016515Y-108244475D01*
X133016515Y-108244475D02*
X132826039Y-108292094D01*
X132826039Y-108292094D02*
X132683182Y-108292094D01*
X132683182Y-108292094D02*
X132492706Y-108244475D01*
X132492706Y-108244475D02*
X132397468Y-108196856D01*
X132397468Y-108196856D02*
X132302230Y-108101618D01*
X132302230Y-108101618D02*
X132254611Y-107958761D01*
X132254611Y-107958761D02*
X132254611Y-107863523D01*
X132254611Y-107863523D02*
X132302230Y-107720666D01*
X132302230Y-107720666D02*
X132349849Y-107673047D01*
X133254611Y-106720666D02*
X133254611Y-107292094D01*
X133254611Y-107006380D02*
X132254611Y-107006380D01*
X132254611Y-107006380D02*
X132397468Y-107101618D01*
X132397468Y-107101618D02*
X132492706Y-107196856D01*
X132492706Y-107196856D02*
X132540325Y-107292094D01*
X133254611Y-105768285D02*
X133254611Y-106339713D01*
X133254611Y-106053999D02*
X132254611Y-106053999D01*
X132254611Y-106053999D02*
X132397468Y-106149237D01*
X132397468Y-106149237D02*
X132492706Y-106244475D01*
X132492706Y-106244475D02*
X132540325Y-106339713D01*
X132254611Y-104911142D02*
X132254611Y-105101618D01*
X132254611Y-105101618D02*
X132302230Y-105196856D01*
X132302230Y-105196856D02*
X132349849Y-105244475D01*
X132349849Y-105244475D02*
X132492706Y-105339713D01*
X132492706Y-105339713D02*
X132683182Y-105387332D01*
X132683182Y-105387332D02*
X133064134Y-105387332D01*
X133064134Y-105387332D02*
X133159372Y-105339713D01*
X133159372Y-105339713D02*
X133206992Y-105292094D01*
X133206992Y-105292094D02*
X133254611Y-105196856D01*
X133254611Y-105196856D02*
X133254611Y-105006380D01*
X133254611Y-105006380D02*
X133206992Y-104911142D01*
X133206992Y-104911142D02*
X133159372Y-104863523D01*
X133159372Y-104863523D02*
X133064134Y-104815904D01*
X133064134Y-104815904D02*
X132826039Y-104815904D01*
X132826039Y-104815904D02*
X132730801Y-104863523D01*
X132730801Y-104863523D02*
X132683182Y-104911142D01*
X132683182Y-104911142D02*
X132635563Y-105006380D01*
X132635563Y-105006380D02*
X132635563Y-105196856D01*
X132635563Y-105196856D02*
X132683182Y-105292094D01*
X132683182Y-105292094D02*
X132730801Y-105339713D01*
X132730801Y-105339713D02*
X132826039Y-105387332D01*
X131180952Y-116663372D02*
X131133333Y-116710992D01*
X131133333Y-116710992D02*
X130990476Y-116758611D01*
X130990476Y-116758611D02*
X130895238Y-116758611D01*
X130895238Y-116758611D02*
X130752381Y-116710992D01*
X130752381Y-116710992D02*
X130657143Y-116615753D01*
X130657143Y-116615753D02*
X130609524Y-116520515D01*
X130609524Y-116520515D02*
X130561905Y-116330039D01*
X130561905Y-116330039D02*
X130561905Y-116187182D01*
X130561905Y-116187182D02*
X130609524Y-115996706D01*
X130609524Y-115996706D02*
X130657143Y-115901468D01*
X130657143Y-115901468D02*
X130752381Y-115806230D01*
X130752381Y-115806230D02*
X130895238Y-115758611D01*
X130895238Y-115758611D02*
X130990476Y-115758611D01*
X130990476Y-115758611D02*
X131133333Y-115806230D01*
X131133333Y-115806230D02*
X131180952Y-115853849D01*
X132133333Y-116758611D02*
X131561905Y-116758611D01*
X131847619Y-116758611D02*
X131847619Y-115758611D01*
X131847619Y-115758611D02*
X131752381Y-115901468D01*
X131752381Y-115901468D02*
X131657143Y-115996706D01*
X131657143Y-115996706D02*
X131561905Y-116044325D01*
X132514286Y-115853849D02*
X132561905Y-115806230D01*
X132561905Y-115806230D02*
X132657143Y-115758611D01*
X132657143Y-115758611D02*
X132895238Y-115758611D01*
X132895238Y-115758611D02*
X132990476Y-115806230D01*
X132990476Y-115806230D02*
X133038095Y-115853849D01*
X133038095Y-115853849D02*
X133085714Y-115949087D01*
X133085714Y-115949087D02*
X133085714Y-116044325D01*
X133085714Y-116044325D02*
X133038095Y-116187182D01*
X133038095Y-116187182D02*
X132466667Y-116758611D01*
X132466667Y-116758611D02*
X133085714Y-116758611D01*
X133704762Y-115758611D02*
X133800000Y-115758611D01*
X133800000Y-115758611D02*
X133895238Y-115806230D01*
X133895238Y-115806230D02*
X133942857Y-115853849D01*
X133942857Y-115853849D02*
X133990476Y-115949087D01*
X133990476Y-115949087D02*
X134038095Y-116139563D01*
X134038095Y-116139563D02*
X134038095Y-116377658D01*
X134038095Y-116377658D02*
X133990476Y-116568134D01*
X133990476Y-116568134D02*
X133942857Y-116663372D01*
X133942857Y-116663372D02*
X133895238Y-116710992D01*
X133895238Y-116710992D02*
X133800000Y-116758611D01*
X133800000Y-116758611D02*
X133704762Y-116758611D01*
X133704762Y-116758611D02*
X133609524Y-116710992D01*
X133609524Y-116710992D02*
X133561905Y-116663372D01*
X133561905Y-116663372D02*
X133514286Y-116568134D01*
X133514286Y-116568134D02*
X133466667Y-116377658D01*
X133466667Y-116377658D02*
X133466667Y-116139563D01*
X133466667Y-116139563D02*
X133514286Y-115949087D01*
X133514286Y-115949087D02*
X133561905Y-115853849D01*
X133561905Y-115853849D02*
X133609524Y-115806230D01*
X133609524Y-115806230D02*
X133704762Y-115758611D01*
D11*
X136004819Y-81168285D02*
X136814342Y-81168285D01*
X136814342Y-81168285D02*
X136909580Y-81120666D01*
X136909580Y-81120666D02*
X136957200Y-81073047D01*
X136957200Y-81073047D02*
X137004819Y-80977809D01*
X137004819Y-80977809D02*
X137004819Y-80787333D01*
X137004819Y-80787333D02*
X136957200Y-80692095D01*
X136957200Y-80692095D02*
X136909580Y-80644476D01*
X136909580Y-80644476D02*
X136814342Y-80596857D01*
X136814342Y-80596857D02*
X136004819Y-80596857D01*
X137004819Y-79596857D02*
X137004819Y-80168285D01*
X137004819Y-79882571D02*
X136004819Y-79882571D01*
X136004819Y-79882571D02*
X136147676Y-79977809D01*
X136147676Y-79977809D02*
X136242914Y-80073047D01*
X136242914Y-80073047D02*
X136290533Y-80168285D01*
X136004819Y-78977809D02*
X136004819Y-78882571D01*
X136004819Y-78882571D02*
X136052438Y-78787333D01*
X136052438Y-78787333D02*
X136100057Y-78739714D01*
X136100057Y-78739714D02*
X136195295Y-78692095D01*
X136195295Y-78692095D02*
X136385771Y-78644476D01*
X136385771Y-78644476D02*
X136623866Y-78644476D01*
X136623866Y-78644476D02*
X136814342Y-78692095D01*
X136814342Y-78692095D02*
X136909580Y-78739714D01*
X136909580Y-78739714D02*
X136957200Y-78787333D01*
X136957200Y-78787333D02*
X137004819Y-78882571D01*
X137004819Y-78882571D02*
X137004819Y-78977809D01*
X137004819Y-78977809D02*
X136957200Y-79073047D01*
X136957200Y-79073047D02*
X136909580Y-79120666D01*
X136909580Y-79120666D02*
X136814342Y-79168285D01*
X136814342Y-79168285D02*
X136623866Y-79215904D01*
X136623866Y-79215904D02*
X136385771Y-79215904D01*
X136385771Y-79215904D02*
X136195295Y-79168285D01*
X136195295Y-79168285D02*
X136100057Y-79120666D01*
X136100057Y-79120666D02*
X136052438Y-79073047D01*
X136052438Y-79073047D02*
X136004819Y-78977809D01*
X136338152Y-77787333D02*
X137004819Y-77787333D01*
X135957200Y-78025428D02*
X136671485Y-78263523D01*
X136671485Y-78263523D02*
X136671485Y-77644476D01*
D10*
X158530952Y-91924611D02*
X158197619Y-91448420D01*
X157959524Y-91924611D02*
X157959524Y-90924611D01*
X157959524Y-90924611D02*
X158340476Y-90924611D01*
X158340476Y-90924611D02*
X158435714Y-90972230D01*
X158435714Y-90972230D02*
X158483333Y-91019849D01*
X158483333Y-91019849D02*
X158530952Y-91115087D01*
X158530952Y-91115087D02*
X158530952Y-91257944D01*
X158530952Y-91257944D02*
X158483333Y-91353182D01*
X158483333Y-91353182D02*
X158435714Y-91400801D01*
X158435714Y-91400801D02*
X158340476Y-91448420D01*
X158340476Y-91448420D02*
X157959524Y-91448420D01*
X159483333Y-91924611D02*
X158911905Y-91924611D01*
X159197619Y-91924611D02*
X159197619Y-90924611D01*
X159197619Y-90924611D02*
X159102381Y-91067468D01*
X159102381Y-91067468D02*
X159007143Y-91162706D01*
X159007143Y-91162706D02*
X158911905Y-91210325D01*
X160435714Y-91924611D02*
X159864286Y-91924611D01*
X160150000Y-91924611D02*
X160150000Y-90924611D01*
X160150000Y-90924611D02*
X160054762Y-91067468D01*
X160054762Y-91067468D02*
X159959524Y-91162706D01*
X159959524Y-91162706D02*
X159864286Y-91210325D01*
X160911905Y-91924611D02*
X161102381Y-91924611D01*
X161102381Y-91924611D02*
X161197619Y-91876992D01*
X161197619Y-91876992D02*
X161245238Y-91829372D01*
X161245238Y-91829372D02*
X161340476Y-91686515D01*
X161340476Y-91686515D02*
X161388095Y-91496039D01*
X161388095Y-91496039D02*
X161388095Y-91115087D01*
X161388095Y-91115087D02*
X161340476Y-91019849D01*
X161340476Y-91019849D02*
X161292857Y-90972230D01*
X161292857Y-90972230D02*
X161197619Y-90924611D01*
X161197619Y-90924611D02*
X161007143Y-90924611D01*
X161007143Y-90924611D02*
X160911905Y-90972230D01*
X160911905Y-90972230D02*
X160864286Y-91019849D01*
X160864286Y-91019849D02*
X160816667Y-91115087D01*
X160816667Y-91115087D02*
X160816667Y-91353182D01*
X160816667Y-91353182D02*
X160864286Y-91448420D01*
X160864286Y-91448420D02*
X160911905Y-91496039D01*
X160911905Y-91496039D02*
X161007143Y-91543658D01*
X161007143Y-91543658D02*
X161197619Y-91543658D01*
X161197619Y-91543658D02*
X161292857Y-91496039D01*
X161292857Y-91496039D02*
X161340476Y-91448420D01*
X161340476Y-91448420D02*
X161388095Y-91353182D01*
X123680952Y-75459372D02*
X123633333Y-75506992D01*
X123633333Y-75506992D02*
X123490476Y-75554611D01*
X123490476Y-75554611D02*
X123395238Y-75554611D01*
X123395238Y-75554611D02*
X123252381Y-75506992D01*
X123252381Y-75506992D02*
X123157143Y-75411753D01*
X123157143Y-75411753D02*
X123109524Y-75316515D01*
X123109524Y-75316515D02*
X123061905Y-75126039D01*
X123061905Y-75126039D02*
X123061905Y-74983182D01*
X123061905Y-74983182D02*
X123109524Y-74792706D01*
X123109524Y-74792706D02*
X123157143Y-74697468D01*
X123157143Y-74697468D02*
X123252381Y-74602230D01*
X123252381Y-74602230D02*
X123395238Y-74554611D01*
X123395238Y-74554611D02*
X123490476Y-74554611D01*
X123490476Y-74554611D02*
X123633333Y-74602230D01*
X123633333Y-74602230D02*
X123680952Y-74649849D01*
X124633333Y-75554611D02*
X124061905Y-75554611D01*
X124347619Y-75554611D02*
X124347619Y-74554611D01*
X124347619Y-74554611D02*
X124252381Y-74697468D01*
X124252381Y-74697468D02*
X124157143Y-74792706D01*
X124157143Y-74792706D02*
X124061905Y-74840325D01*
X125014286Y-74649849D02*
X125061905Y-74602230D01*
X125061905Y-74602230D02*
X125157143Y-74554611D01*
X125157143Y-74554611D02*
X125395238Y-74554611D01*
X125395238Y-74554611D02*
X125490476Y-74602230D01*
X125490476Y-74602230D02*
X125538095Y-74649849D01*
X125538095Y-74649849D02*
X125585714Y-74745087D01*
X125585714Y-74745087D02*
X125585714Y-74840325D01*
X125585714Y-74840325D02*
X125538095Y-74983182D01*
X125538095Y-74983182D02*
X124966667Y-75554611D01*
X124966667Y-75554611D02*
X125585714Y-75554611D01*
X126442857Y-74887944D02*
X126442857Y-75554611D01*
X126204762Y-74506992D02*
X125966667Y-75221277D01*
X125966667Y-75221277D02*
X126585714Y-75221277D01*
X143130172Y-86366744D02*
X142557752Y-86265729D01*
X142726111Y-86770805D02*
X142019004Y-86063698D01*
X142019004Y-86063698D02*
X142288378Y-85794324D01*
X142288378Y-85794324D02*
X142389394Y-85760652D01*
X142389394Y-85760652D02*
X142456737Y-85760652D01*
X142456737Y-85760652D02*
X142557752Y-85794324D01*
X142557752Y-85794324D02*
X142658768Y-85895339D01*
X142658768Y-85895339D02*
X142692439Y-85996355D01*
X142692439Y-85996355D02*
X142692439Y-86063698D01*
X142692439Y-86063698D02*
X142658768Y-86164713D01*
X142658768Y-86164713D02*
X142389394Y-86434087D01*
X143803607Y-85693309D02*
X143399546Y-86097370D01*
X143601577Y-85895339D02*
X142894470Y-85188233D01*
X142894470Y-85188233D02*
X142928142Y-85356591D01*
X142928142Y-85356591D02*
X142928142Y-85491278D01*
X142928142Y-85491278D02*
X142894470Y-85592294D01*
X143433218Y-84784172D02*
X143433218Y-84716828D01*
X143433218Y-84716828D02*
X143466890Y-84615813D01*
X143466890Y-84615813D02*
X143635249Y-84447454D01*
X143635249Y-84447454D02*
X143736264Y-84413782D01*
X143736264Y-84413782D02*
X143803607Y-84413782D01*
X143803607Y-84413782D02*
X143904623Y-84447454D01*
X143904623Y-84447454D02*
X143971966Y-84514798D01*
X143971966Y-84514798D02*
X144039310Y-84649485D01*
X144039310Y-84649485D02*
X144039310Y-85457607D01*
X144039310Y-85457607D02*
X144477042Y-85019874D01*
X144106653Y-84110736D02*
X144106653Y-84043393D01*
X144106653Y-84043393D02*
X144140325Y-83942378D01*
X144140325Y-83942378D02*
X144308684Y-83774019D01*
X144308684Y-83774019D02*
X144409699Y-83740347D01*
X144409699Y-83740347D02*
X144477042Y-83740347D01*
X144477042Y-83740347D02*
X144578058Y-83774019D01*
X144578058Y-83774019D02*
X144645401Y-83841362D01*
X144645401Y-83841362D02*
X144712745Y-83976049D01*
X144712745Y-83976049D02*
X144712745Y-84784172D01*
X144712745Y-84784172D02*
X145150477Y-84346439D01*
X126986745Y-85182751D02*
X126541522Y-84809059D01*
X126434787Y-85330647D02*
X126175968Y-84364722D01*
X126175968Y-84364722D02*
X126543940Y-84266124D01*
X126543940Y-84266124D02*
X126648258Y-84287471D01*
X126648258Y-84287471D02*
X126706579Y-84321143D01*
X126706579Y-84321143D02*
X126777225Y-84400811D01*
X126777225Y-84400811D02*
X126814199Y-84538800D01*
X126814199Y-84538800D02*
X126792852Y-84643118D01*
X126792852Y-84643118D02*
X126759180Y-84701439D01*
X126759180Y-84701439D02*
X126679512Y-84772085D01*
X126679512Y-84772085D02*
X126311540Y-84870683D01*
X127906674Y-84936256D02*
X127354717Y-85084153D01*
X127630695Y-85010205D02*
X127371876Y-84044279D01*
X127371876Y-84044279D02*
X127316858Y-84206918D01*
X127316858Y-84206918D02*
X127249514Y-84323560D01*
X127249514Y-84323560D02*
X127169846Y-84394206D01*
X127969831Y-83884058D02*
X128567785Y-83723836D01*
X128567785Y-83723836D02*
X128344407Y-84178081D01*
X128344407Y-84178081D02*
X128482396Y-84141107D01*
X128482396Y-84141107D02*
X128586714Y-84162454D01*
X128586714Y-84162454D02*
X128645035Y-84196126D01*
X128645035Y-84196126D02*
X128715681Y-84275794D01*
X128715681Y-84275794D02*
X128777305Y-84505776D01*
X128777305Y-84505776D02*
X128755958Y-84610094D01*
X128755958Y-84610094D02*
X128722286Y-84668415D01*
X128722286Y-84668415D02*
X128642618Y-84739061D01*
X128642618Y-84739061D02*
X128366639Y-84813009D01*
X128366639Y-84813009D02*
X128262321Y-84791662D01*
X128262321Y-84791662D02*
X128204000Y-84757990D01*
X129481994Y-83823967D02*
X129654540Y-84467917D01*
X129153414Y-83517618D02*
X129108302Y-84269189D01*
X129108302Y-84269189D02*
X129706257Y-84108968D01*
X126859372Y-97123047D02*
X126906992Y-97170666D01*
X126906992Y-97170666D02*
X126954611Y-97313523D01*
X126954611Y-97313523D02*
X126954611Y-97408761D01*
X126954611Y-97408761D02*
X126906992Y-97551618D01*
X126906992Y-97551618D02*
X126811753Y-97646856D01*
X126811753Y-97646856D02*
X126716515Y-97694475D01*
X126716515Y-97694475D02*
X126526039Y-97742094D01*
X126526039Y-97742094D02*
X126383182Y-97742094D01*
X126383182Y-97742094D02*
X126192706Y-97694475D01*
X126192706Y-97694475D02*
X126097468Y-97646856D01*
X126097468Y-97646856D02*
X126002230Y-97551618D01*
X126002230Y-97551618D02*
X125954611Y-97408761D01*
X125954611Y-97408761D02*
X125954611Y-97313523D01*
X125954611Y-97313523D02*
X126002230Y-97170666D01*
X126002230Y-97170666D02*
X126049849Y-97123047D01*
X126954611Y-96170666D02*
X126954611Y-96742094D01*
X126954611Y-96456380D02*
X125954611Y-96456380D01*
X125954611Y-96456380D02*
X126097468Y-96551618D01*
X126097468Y-96551618D02*
X126192706Y-96646856D01*
X126192706Y-96646856D02*
X126240325Y-96742094D01*
X125954611Y-95551618D02*
X125954611Y-95456380D01*
X125954611Y-95456380D02*
X126002230Y-95361142D01*
X126002230Y-95361142D02*
X126049849Y-95313523D01*
X126049849Y-95313523D02*
X126145087Y-95265904D01*
X126145087Y-95265904D02*
X126335563Y-95218285D01*
X126335563Y-95218285D02*
X126573658Y-95218285D01*
X126573658Y-95218285D02*
X126764134Y-95265904D01*
X126764134Y-95265904D02*
X126859372Y-95313523D01*
X126859372Y-95313523D02*
X126906992Y-95361142D01*
X126906992Y-95361142D02*
X126954611Y-95456380D01*
X126954611Y-95456380D02*
X126954611Y-95551618D01*
X126954611Y-95551618D02*
X126906992Y-95646856D01*
X126906992Y-95646856D02*
X126859372Y-95694475D01*
X126859372Y-95694475D02*
X126764134Y-95742094D01*
X126764134Y-95742094D02*
X126573658Y-95789713D01*
X126573658Y-95789713D02*
X126335563Y-95789713D01*
X126335563Y-95789713D02*
X126145087Y-95742094D01*
X126145087Y-95742094D02*
X126049849Y-95694475D01*
X126049849Y-95694475D02*
X126002230Y-95646856D01*
X126002230Y-95646856D02*
X125954611Y-95551618D01*
X125954611Y-94313523D02*
X125954611Y-94789713D01*
X125954611Y-94789713D02*
X126430801Y-94837332D01*
X126430801Y-94837332D02*
X126383182Y-94789713D01*
X126383182Y-94789713D02*
X126335563Y-94694475D01*
X126335563Y-94694475D02*
X126335563Y-94456380D01*
X126335563Y-94456380D02*
X126383182Y-94361142D01*
X126383182Y-94361142D02*
X126430801Y-94313523D01*
X126430801Y-94313523D02*
X126526039Y-94265904D01*
X126526039Y-94265904D02*
X126764134Y-94265904D01*
X126764134Y-94265904D02*
X126859372Y-94313523D01*
X126859372Y-94313523D02*
X126906992Y-94361142D01*
X126906992Y-94361142D02*
X126954611Y-94456380D01*
X126954611Y-94456380D02*
X126954611Y-94694475D01*
X126954611Y-94694475D02*
X126906992Y-94789713D01*
X126906992Y-94789713D02*
X126859372Y-94837332D01*
X125654611Y-84723047D02*
X125178420Y-85056380D01*
X125654611Y-85294475D02*
X124654611Y-85294475D01*
X124654611Y-85294475D02*
X124654611Y-84913523D01*
X124654611Y-84913523D02*
X124702230Y-84818285D01*
X124702230Y-84818285D02*
X124749849Y-84770666D01*
X124749849Y-84770666D02*
X124845087Y-84723047D01*
X124845087Y-84723047D02*
X124987944Y-84723047D01*
X124987944Y-84723047D02*
X125083182Y-84770666D01*
X125083182Y-84770666D02*
X125130801Y-84818285D01*
X125130801Y-84818285D02*
X125178420Y-84913523D01*
X125178420Y-84913523D02*
X125178420Y-85294475D01*
X125654611Y-83770666D02*
X125654611Y-84342094D01*
X125654611Y-84056380D02*
X124654611Y-84056380D01*
X124654611Y-84056380D02*
X124797468Y-84151618D01*
X124797468Y-84151618D02*
X124892706Y-84246856D01*
X124892706Y-84246856D02*
X124940325Y-84342094D01*
X124654611Y-83437332D02*
X124654611Y-82818285D01*
X124654611Y-82818285D02*
X125035563Y-83151618D01*
X125035563Y-83151618D02*
X125035563Y-83008761D01*
X125035563Y-83008761D02*
X125083182Y-82913523D01*
X125083182Y-82913523D02*
X125130801Y-82865904D01*
X125130801Y-82865904D02*
X125226039Y-82818285D01*
X125226039Y-82818285D02*
X125464134Y-82818285D01*
X125464134Y-82818285D02*
X125559372Y-82865904D01*
X125559372Y-82865904D02*
X125606992Y-82913523D01*
X125606992Y-82913523D02*
X125654611Y-83008761D01*
X125654611Y-83008761D02*
X125654611Y-83294475D01*
X125654611Y-83294475D02*
X125606992Y-83389713D01*
X125606992Y-83389713D02*
X125559372Y-83437332D01*
X124654611Y-82484951D02*
X124654611Y-81865904D01*
X124654611Y-81865904D02*
X125035563Y-82199237D01*
X125035563Y-82199237D02*
X125035563Y-82056380D01*
X125035563Y-82056380D02*
X125083182Y-81961142D01*
X125083182Y-81961142D02*
X125130801Y-81913523D01*
X125130801Y-81913523D02*
X125226039Y-81865904D01*
X125226039Y-81865904D02*
X125464134Y-81865904D01*
X125464134Y-81865904D02*
X125559372Y-81913523D01*
X125559372Y-81913523D02*
X125606992Y-81961142D01*
X125606992Y-81961142D02*
X125654611Y-82056380D01*
X125654611Y-82056380D02*
X125654611Y-82342094D01*
X125654611Y-82342094D02*
X125606992Y-82437332D01*
X125606992Y-82437332D02*
X125559372Y-82484951D01*
X158580952Y-87017811D02*
X158247619Y-86541620D01*
X158009524Y-87017811D02*
X158009524Y-86017811D01*
X158009524Y-86017811D02*
X158390476Y-86017811D01*
X158390476Y-86017811D02*
X158485714Y-86065430D01*
X158485714Y-86065430D02*
X158533333Y-86113049D01*
X158533333Y-86113049D02*
X158580952Y-86208287D01*
X158580952Y-86208287D02*
X158580952Y-86351144D01*
X158580952Y-86351144D02*
X158533333Y-86446382D01*
X158533333Y-86446382D02*
X158485714Y-86494001D01*
X158485714Y-86494001D02*
X158390476Y-86541620D01*
X158390476Y-86541620D02*
X158009524Y-86541620D01*
X159533333Y-87017811D02*
X158961905Y-87017811D01*
X159247619Y-87017811D02*
X159247619Y-86017811D01*
X159247619Y-86017811D02*
X159152381Y-86160668D01*
X159152381Y-86160668D02*
X159057143Y-86255906D01*
X159057143Y-86255906D02*
X158961905Y-86303525D01*
X159914286Y-86113049D02*
X159961905Y-86065430D01*
X159961905Y-86065430D02*
X160057143Y-86017811D01*
X160057143Y-86017811D02*
X160295238Y-86017811D01*
X160295238Y-86017811D02*
X160390476Y-86065430D01*
X160390476Y-86065430D02*
X160438095Y-86113049D01*
X160438095Y-86113049D02*
X160485714Y-86208287D01*
X160485714Y-86208287D02*
X160485714Y-86303525D01*
X160485714Y-86303525D02*
X160438095Y-86446382D01*
X160438095Y-86446382D02*
X159866667Y-87017811D01*
X159866667Y-87017811D02*
X160485714Y-87017811D01*
X161104762Y-86017811D02*
X161200000Y-86017811D01*
X161200000Y-86017811D02*
X161295238Y-86065430D01*
X161295238Y-86065430D02*
X161342857Y-86113049D01*
X161342857Y-86113049D02*
X161390476Y-86208287D01*
X161390476Y-86208287D02*
X161438095Y-86398763D01*
X161438095Y-86398763D02*
X161438095Y-86636858D01*
X161438095Y-86636858D02*
X161390476Y-86827334D01*
X161390476Y-86827334D02*
X161342857Y-86922572D01*
X161342857Y-86922572D02*
X161295238Y-86970192D01*
X161295238Y-86970192D02*
X161200000Y-87017811D01*
X161200000Y-87017811D02*
X161104762Y-87017811D01*
X161104762Y-87017811D02*
X161009524Y-86970192D01*
X161009524Y-86970192D02*
X160961905Y-86922572D01*
X160961905Y-86922572D02*
X160914286Y-86827334D01*
X160914286Y-86827334D02*
X160866667Y-86636858D01*
X160866667Y-86636858D02*
X160866667Y-86398763D01*
X160866667Y-86398763D02*
X160914286Y-86208287D01*
X160914286Y-86208287D02*
X160961905Y-86113049D01*
X160961905Y-86113049D02*
X161009524Y-86065430D01*
X161009524Y-86065430D02*
X161104762Y-86017811D01*
X148985714Y-121158611D02*
X148985714Y-121968134D01*
X148985714Y-121968134D02*
X149033333Y-122063372D01*
X149033333Y-122063372D02*
X149080952Y-122110992D01*
X149080952Y-122110992D02*
X149176190Y-122158611D01*
X149176190Y-122158611D02*
X149366666Y-122158611D01*
X149366666Y-122158611D02*
X149461904Y-122110992D01*
X149461904Y-122110992D02*
X149509523Y-122063372D01*
X149509523Y-122063372D02*
X149557142Y-121968134D01*
X149557142Y-121968134D02*
X149557142Y-121158611D01*
X150557142Y-122158611D02*
X149985714Y-122158611D01*
X150271428Y-122158611D02*
X150271428Y-121158611D01*
X150271428Y-121158611D02*
X150176190Y-121301468D01*
X150176190Y-121301468D02*
X150080952Y-121396706D01*
X150080952Y-121396706D02*
X149985714Y-121444325D01*
X151176190Y-121158611D02*
X151271428Y-121158611D01*
X151271428Y-121158611D02*
X151366666Y-121206230D01*
X151366666Y-121206230D02*
X151414285Y-121253849D01*
X151414285Y-121253849D02*
X151461904Y-121349087D01*
X151461904Y-121349087D02*
X151509523Y-121539563D01*
X151509523Y-121539563D02*
X151509523Y-121777658D01*
X151509523Y-121777658D02*
X151461904Y-121968134D01*
X151461904Y-121968134D02*
X151414285Y-122063372D01*
X151414285Y-122063372D02*
X151366666Y-122110992D01*
X151366666Y-122110992D02*
X151271428Y-122158611D01*
X151271428Y-122158611D02*
X151176190Y-122158611D01*
X151176190Y-122158611D02*
X151080952Y-122110992D01*
X151080952Y-122110992D02*
X151033333Y-122063372D01*
X151033333Y-122063372D02*
X150985714Y-121968134D01*
X150985714Y-121968134D02*
X150938095Y-121777658D01*
X150938095Y-121777658D02*
X150938095Y-121539563D01*
X150938095Y-121539563D02*
X150985714Y-121349087D01*
X150985714Y-121349087D02*
X151033333Y-121253849D01*
X151033333Y-121253849D02*
X151080952Y-121206230D01*
X151080952Y-121206230D02*
X151176190Y-121158611D01*
X151842857Y-121158611D02*
X152461904Y-121158611D01*
X152461904Y-121158611D02*
X152128571Y-121539563D01*
X152128571Y-121539563D02*
X152271428Y-121539563D01*
X152271428Y-121539563D02*
X152366666Y-121587182D01*
X152366666Y-121587182D02*
X152414285Y-121634801D01*
X152414285Y-121634801D02*
X152461904Y-121730039D01*
X152461904Y-121730039D02*
X152461904Y-121968134D01*
X152461904Y-121968134D02*
X152414285Y-122063372D01*
X152414285Y-122063372D02*
X152366666Y-122110992D01*
X152366666Y-122110992D02*
X152271428Y-122158611D01*
X152271428Y-122158611D02*
X151985714Y-122158611D01*
X151985714Y-122158611D02*
X151890476Y-122110992D01*
X151890476Y-122110992D02*
X151842857Y-122063372D01*
X140030952Y-76558611D02*
X139697619Y-76082420D01*
X139459524Y-76558611D02*
X139459524Y-75558611D01*
X139459524Y-75558611D02*
X139840476Y-75558611D01*
X139840476Y-75558611D02*
X139935714Y-75606230D01*
X139935714Y-75606230D02*
X139983333Y-75653849D01*
X139983333Y-75653849D02*
X140030952Y-75749087D01*
X140030952Y-75749087D02*
X140030952Y-75891944D01*
X140030952Y-75891944D02*
X139983333Y-75987182D01*
X139983333Y-75987182D02*
X139935714Y-76034801D01*
X139935714Y-76034801D02*
X139840476Y-76082420D01*
X139840476Y-76082420D02*
X139459524Y-76082420D01*
X140983333Y-76558611D02*
X140411905Y-76558611D01*
X140697619Y-76558611D02*
X140697619Y-75558611D01*
X140697619Y-75558611D02*
X140602381Y-75701468D01*
X140602381Y-75701468D02*
X140507143Y-75796706D01*
X140507143Y-75796706D02*
X140411905Y-75844325D01*
X141364286Y-75653849D02*
X141411905Y-75606230D01*
X141411905Y-75606230D02*
X141507143Y-75558611D01*
X141507143Y-75558611D02*
X141745238Y-75558611D01*
X141745238Y-75558611D02*
X141840476Y-75606230D01*
X141840476Y-75606230D02*
X141888095Y-75653849D01*
X141888095Y-75653849D02*
X141935714Y-75749087D01*
X141935714Y-75749087D02*
X141935714Y-75844325D01*
X141935714Y-75844325D02*
X141888095Y-75987182D01*
X141888095Y-75987182D02*
X141316667Y-76558611D01*
X141316667Y-76558611D02*
X141935714Y-76558611D01*
X142411905Y-76558611D02*
X142602381Y-76558611D01*
X142602381Y-76558611D02*
X142697619Y-76510992D01*
X142697619Y-76510992D02*
X142745238Y-76463372D01*
X142745238Y-76463372D02*
X142840476Y-76320515D01*
X142840476Y-76320515D02*
X142888095Y-76130039D01*
X142888095Y-76130039D02*
X142888095Y-75749087D01*
X142888095Y-75749087D02*
X142840476Y-75653849D01*
X142840476Y-75653849D02*
X142792857Y-75606230D01*
X142792857Y-75606230D02*
X142697619Y-75558611D01*
X142697619Y-75558611D02*
X142507143Y-75558611D01*
X142507143Y-75558611D02*
X142411905Y-75606230D01*
X142411905Y-75606230D02*
X142364286Y-75653849D01*
X142364286Y-75653849D02*
X142316667Y-75749087D01*
X142316667Y-75749087D02*
X142316667Y-75987182D01*
X142316667Y-75987182D02*
X142364286Y-76082420D01*
X142364286Y-76082420D02*
X142411905Y-76130039D01*
X142411905Y-76130039D02*
X142507143Y-76177658D01*
X142507143Y-76177658D02*
X142697619Y-76177658D01*
X142697619Y-76177658D02*
X142792857Y-76130039D01*
X142792857Y-76130039D02*
X142840476Y-76082420D01*
X142840476Y-76082420D02*
X142888095Y-75987182D01*
X122780952Y-112194611D02*
X122447619Y-111718420D01*
X122209524Y-112194611D02*
X122209524Y-111194611D01*
X122209524Y-111194611D02*
X122590476Y-111194611D01*
X122590476Y-111194611D02*
X122685714Y-111242230D01*
X122685714Y-111242230D02*
X122733333Y-111289849D01*
X122733333Y-111289849D02*
X122780952Y-111385087D01*
X122780952Y-111385087D02*
X122780952Y-111527944D01*
X122780952Y-111527944D02*
X122733333Y-111623182D01*
X122733333Y-111623182D02*
X122685714Y-111670801D01*
X122685714Y-111670801D02*
X122590476Y-111718420D01*
X122590476Y-111718420D02*
X122209524Y-111718420D01*
X123733333Y-112194611D02*
X123161905Y-112194611D01*
X123447619Y-112194611D02*
X123447619Y-111194611D01*
X123447619Y-111194611D02*
X123352381Y-111337468D01*
X123352381Y-111337468D02*
X123257143Y-111432706D01*
X123257143Y-111432706D02*
X123161905Y-111480325D01*
X124352381Y-111194611D02*
X124447619Y-111194611D01*
X124447619Y-111194611D02*
X124542857Y-111242230D01*
X124542857Y-111242230D02*
X124590476Y-111289849D01*
X124590476Y-111289849D02*
X124638095Y-111385087D01*
X124638095Y-111385087D02*
X124685714Y-111575563D01*
X124685714Y-111575563D02*
X124685714Y-111813658D01*
X124685714Y-111813658D02*
X124638095Y-112004134D01*
X124638095Y-112004134D02*
X124590476Y-112099372D01*
X124590476Y-112099372D02*
X124542857Y-112146992D01*
X124542857Y-112146992D02*
X124447619Y-112194611D01*
X124447619Y-112194611D02*
X124352381Y-112194611D01*
X124352381Y-112194611D02*
X124257143Y-112146992D01*
X124257143Y-112146992D02*
X124209524Y-112099372D01*
X124209524Y-112099372D02*
X124161905Y-112004134D01*
X124161905Y-112004134D02*
X124114286Y-111813658D01*
X124114286Y-111813658D02*
X124114286Y-111575563D01*
X124114286Y-111575563D02*
X124161905Y-111385087D01*
X124161905Y-111385087D02*
X124209524Y-111289849D01*
X124209524Y-111289849D02*
X124257143Y-111242230D01*
X124257143Y-111242230D02*
X124352381Y-111194611D01*
X125019048Y-111194611D02*
X125685714Y-111194611D01*
X125685714Y-111194611D02*
X125257143Y-112194611D01*
X148604611Y-76918285D02*
X147604611Y-76918285D01*
X148080801Y-76918285D02*
X148080801Y-76346857D01*
X148604611Y-76346857D02*
X147604611Y-76346857D01*
X148604611Y-75346857D02*
X148604611Y-75918285D01*
X148604611Y-75632571D02*
X147604611Y-75632571D01*
X147604611Y-75632571D02*
X147747468Y-75727809D01*
X147747468Y-75727809D02*
X147842706Y-75823047D01*
X147842706Y-75823047D02*
X147890325Y-75918285D01*
X147937944Y-74489714D02*
X148604611Y-74489714D01*
X147556992Y-74727809D02*
X148271277Y-74965904D01*
X148271277Y-74965904D02*
X148271277Y-74346857D01*
X148604611Y-73442095D02*
X148604611Y-74013523D01*
X148604611Y-73727809D02*
X147604611Y-73727809D01*
X147604611Y-73727809D02*
X147747468Y-73823047D01*
X147747468Y-73823047D02*
X147842706Y-73918285D01*
X147842706Y-73918285D02*
X147890325Y-74013523D01*
X121180952Y-81864611D02*
X120847619Y-81388420D01*
X120609524Y-81864611D02*
X120609524Y-80864611D01*
X120609524Y-80864611D02*
X120990476Y-80864611D01*
X120990476Y-80864611D02*
X121085714Y-80912230D01*
X121085714Y-80912230D02*
X121133333Y-80959849D01*
X121133333Y-80959849D02*
X121180952Y-81055087D01*
X121180952Y-81055087D02*
X121180952Y-81197944D01*
X121180952Y-81197944D02*
X121133333Y-81293182D01*
X121133333Y-81293182D02*
X121085714Y-81340801D01*
X121085714Y-81340801D02*
X120990476Y-81388420D01*
X120990476Y-81388420D02*
X120609524Y-81388420D01*
X122133333Y-81864611D02*
X121561905Y-81864611D01*
X121847619Y-81864611D02*
X121847619Y-80864611D01*
X121847619Y-80864611D02*
X121752381Y-81007468D01*
X121752381Y-81007468D02*
X121657143Y-81102706D01*
X121657143Y-81102706D02*
X121561905Y-81150325D01*
X122466667Y-80864611D02*
X123085714Y-80864611D01*
X123085714Y-80864611D02*
X122752381Y-81245563D01*
X122752381Y-81245563D02*
X122895238Y-81245563D01*
X122895238Y-81245563D02*
X122990476Y-81293182D01*
X122990476Y-81293182D02*
X123038095Y-81340801D01*
X123038095Y-81340801D02*
X123085714Y-81436039D01*
X123085714Y-81436039D02*
X123085714Y-81674134D01*
X123085714Y-81674134D02*
X123038095Y-81769372D01*
X123038095Y-81769372D02*
X122990476Y-81816992D01*
X122990476Y-81816992D02*
X122895238Y-81864611D01*
X122895238Y-81864611D02*
X122609524Y-81864611D01*
X122609524Y-81864611D02*
X122514286Y-81816992D01*
X122514286Y-81816992D02*
X122466667Y-81769372D01*
X123990476Y-80864611D02*
X123514286Y-80864611D01*
X123514286Y-80864611D02*
X123466667Y-81340801D01*
X123466667Y-81340801D02*
X123514286Y-81293182D01*
X123514286Y-81293182D02*
X123609524Y-81245563D01*
X123609524Y-81245563D02*
X123847619Y-81245563D01*
X123847619Y-81245563D02*
X123942857Y-81293182D01*
X123942857Y-81293182D02*
X123990476Y-81340801D01*
X123990476Y-81340801D02*
X124038095Y-81436039D01*
X124038095Y-81436039D02*
X124038095Y-81674134D01*
X124038095Y-81674134D02*
X123990476Y-81769372D01*
X123990476Y-81769372D02*
X123942857Y-81816992D01*
X123942857Y-81816992D02*
X123847619Y-81864611D01*
X123847619Y-81864611D02*
X123609524Y-81864611D01*
X123609524Y-81864611D02*
X123514286Y-81816992D01*
X123514286Y-81816992D02*
X123466667Y-81769372D01*
X127509372Y-104423047D02*
X127556992Y-104470666D01*
X127556992Y-104470666D02*
X127604611Y-104613523D01*
X127604611Y-104613523D02*
X127604611Y-104708761D01*
X127604611Y-104708761D02*
X127556992Y-104851618D01*
X127556992Y-104851618D02*
X127461753Y-104946856D01*
X127461753Y-104946856D02*
X127366515Y-104994475D01*
X127366515Y-104994475D02*
X127176039Y-105042094D01*
X127176039Y-105042094D02*
X127033182Y-105042094D01*
X127033182Y-105042094D02*
X126842706Y-104994475D01*
X126842706Y-104994475D02*
X126747468Y-104946856D01*
X126747468Y-104946856D02*
X126652230Y-104851618D01*
X126652230Y-104851618D02*
X126604611Y-104708761D01*
X126604611Y-104708761D02*
X126604611Y-104613523D01*
X126604611Y-104613523D02*
X126652230Y-104470666D01*
X126652230Y-104470666D02*
X126699849Y-104423047D01*
X127604611Y-103470666D02*
X127604611Y-104042094D01*
X127604611Y-103756380D02*
X126604611Y-103756380D01*
X126604611Y-103756380D02*
X126747468Y-103851618D01*
X126747468Y-103851618D02*
X126842706Y-103946856D01*
X126842706Y-103946856D02*
X126890325Y-104042094D01*
X126604611Y-102851618D02*
X126604611Y-102756380D01*
X126604611Y-102756380D02*
X126652230Y-102661142D01*
X126652230Y-102661142D02*
X126699849Y-102613523D01*
X126699849Y-102613523D02*
X126795087Y-102565904D01*
X126795087Y-102565904D02*
X126985563Y-102518285D01*
X126985563Y-102518285D02*
X127223658Y-102518285D01*
X127223658Y-102518285D02*
X127414134Y-102565904D01*
X127414134Y-102565904D02*
X127509372Y-102613523D01*
X127509372Y-102613523D02*
X127556992Y-102661142D01*
X127556992Y-102661142D02*
X127604611Y-102756380D01*
X127604611Y-102756380D02*
X127604611Y-102851618D01*
X127604611Y-102851618D02*
X127556992Y-102946856D01*
X127556992Y-102946856D02*
X127509372Y-102994475D01*
X127509372Y-102994475D02*
X127414134Y-103042094D01*
X127414134Y-103042094D02*
X127223658Y-103089713D01*
X127223658Y-103089713D02*
X126985563Y-103089713D01*
X126985563Y-103089713D02*
X126795087Y-103042094D01*
X126795087Y-103042094D02*
X126699849Y-102994475D01*
X126699849Y-102994475D02*
X126652230Y-102946856D01*
X126652230Y-102946856D02*
X126604611Y-102851618D01*
X127604611Y-102042094D02*
X127604611Y-101851618D01*
X127604611Y-101851618D02*
X127556992Y-101756380D01*
X127556992Y-101756380D02*
X127509372Y-101708761D01*
X127509372Y-101708761D02*
X127366515Y-101613523D01*
X127366515Y-101613523D02*
X127176039Y-101565904D01*
X127176039Y-101565904D02*
X126795087Y-101565904D01*
X126795087Y-101565904D02*
X126699849Y-101613523D01*
X126699849Y-101613523D02*
X126652230Y-101661142D01*
X126652230Y-101661142D02*
X126604611Y-101756380D01*
X126604611Y-101756380D02*
X126604611Y-101946856D01*
X126604611Y-101946856D02*
X126652230Y-102042094D01*
X126652230Y-102042094D02*
X126699849Y-102089713D01*
X126699849Y-102089713D02*
X126795087Y-102137332D01*
X126795087Y-102137332D02*
X127033182Y-102137332D01*
X127033182Y-102137332D02*
X127128420Y-102089713D01*
X127128420Y-102089713D02*
X127176039Y-102042094D01*
X127176039Y-102042094D02*
X127223658Y-101946856D01*
X127223658Y-101946856D02*
X127223658Y-101756380D01*
X127223658Y-101756380D02*
X127176039Y-101661142D01*
X127176039Y-101661142D02*
X127128420Y-101613523D01*
X127128420Y-101613523D02*
X127033182Y-101565904D01*
X150443201Y-115316744D02*
X149870781Y-115215729D01*
X150039140Y-115720805D02*
X149332033Y-115013698D01*
X149332033Y-115013698D02*
X149601407Y-114744324D01*
X149601407Y-114744324D02*
X149702423Y-114710652D01*
X149702423Y-114710652D02*
X149769766Y-114710652D01*
X149769766Y-114710652D02*
X149870781Y-114744324D01*
X149870781Y-114744324D02*
X149971797Y-114845339D01*
X149971797Y-114845339D02*
X150005468Y-114946355D01*
X150005468Y-114946355D02*
X150005468Y-115013698D01*
X150005468Y-115013698D02*
X149971797Y-115114713D01*
X149971797Y-115114713D02*
X149702423Y-115384087D01*
X151116636Y-114643309D02*
X150712575Y-115047370D01*
X150914606Y-114845339D02*
X150207499Y-114138233D01*
X150207499Y-114138233D02*
X150241171Y-114306591D01*
X150241171Y-114306591D02*
X150241171Y-114441278D01*
X150241171Y-114441278D02*
X150207499Y-114542294D01*
X151790071Y-113969874D02*
X151386010Y-114373935D01*
X151588041Y-114171904D02*
X150880934Y-113464798D01*
X150880934Y-113464798D02*
X150914606Y-113633156D01*
X150914606Y-113633156D02*
X150914606Y-113767843D01*
X150914606Y-113767843D02*
X150880934Y-113868859D01*
X151520697Y-112825034D02*
X151588041Y-112757691D01*
X151588041Y-112757691D02*
X151689056Y-112724019D01*
X151689056Y-112724019D02*
X151756400Y-112724019D01*
X151756400Y-112724019D02*
X151857415Y-112757691D01*
X151857415Y-112757691D02*
X152025774Y-112858706D01*
X152025774Y-112858706D02*
X152194132Y-113027065D01*
X152194132Y-113027065D02*
X152295148Y-113195424D01*
X152295148Y-113195424D02*
X152328819Y-113296439D01*
X152328819Y-113296439D02*
X152328819Y-113363782D01*
X152328819Y-113363782D02*
X152295148Y-113464798D01*
X152295148Y-113464798D02*
X152227804Y-113532141D01*
X152227804Y-113532141D02*
X152126789Y-113565813D01*
X152126789Y-113565813D02*
X152059445Y-113565813D01*
X152059445Y-113565813D02*
X151958430Y-113532141D01*
X151958430Y-113532141D02*
X151790071Y-113431126D01*
X151790071Y-113431126D02*
X151621713Y-113262767D01*
X151621713Y-113262767D02*
X151520697Y-113094408D01*
X151520697Y-113094408D02*
X151487026Y-112993393D01*
X151487026Y-112993393D02*
X151487026Y-112926049D01*
X151487026Y-112926049D02*
X151520697Y-112825034D01*
X140504611Y-107323047D02*
X140028420Y-107656380D01*
X140504611Y-107894475D02*
X139504611Y-107894475D01*
X139504611Y-107894475D02*
X139504611Y-107513523D01*
X139504611Y-107513523D02*
X139552230Y-107418285D01*
X139552230Y-107418285D02*
X139599849Y-107370666D01*
X139599849Y-107370666D02*
X139695087Y-107323047D01*
X139695087Y-107323047D02*
X139837944Y-107323047D01*
X139837944Y-107323047D02*
X139933182Y-107370666D01*
X139933182Y-107370666D02*
X139980801Y-107418285D01*
X139980801Y-107418285D02*
X140028420Y-107513523D01*
X140028420Y-107513523D02*
X140028420Y-107894475D01*
X140504611Y-106370666D02*
X140504611Y-106942094D01*
X140504611Y-106656380D02*
X139504611Y-106656380D01*
X139504611Y-106656380D02*
X139647468Y-106751618D01*
X139647468Y-106751618D02*
X139742706Y-106846856D01*
X139742706Y-106846856D02*
X139790325Y-106942094D01*
X140504611Y-105418285D02*
X140504611Y-105989713D01*
X140504611Y-105703999D02*
X139504611Y-105703999D01*
X139504611Y-105703999D02*
X139647468Y-105799237D01*
X139647468Y-105799237D02*
X139742706Y-105894475D01*
X139742706Y-105894475D02*
X139790325Y-105989713D01*
X140504611Y-104465904D02*
X140504611Y-105037332D01*
X140504611Y-104751618D02*
X139504611Y-104751618D01*
X139504611Y-104751618D02*
X139647468Y-104846856D01*
X139647468Y-104846856D02*
X139742706Y-104942094D01*
X139742706Y-104942094D02*
X139790325Y-105037332D01*
X121858535Y-125850344D02*
X121906155Y-125897963D01*
X121906155Y-125897963D02*
X121953774Y-126040820D01*
X121953774Y-126040820D02*
X121953774Y-126136058D01*
X121953774Y-126136058D02*
X121906155Y-126278915D01*
X121906155Y-126278915D02*
X121810916Y-126374153D01*
X121810916Y-126374153D02*
X121715678Y-126421772D01*
X121715678Y-126421772D02*
X121525202Y-126469391D01*
X121525202Y-126469391D02*
X121382345Y-126469391D01*
X121382345Y-126469391D02*
X121191869Y-126421772D01*
X121191869Y-126421772D02*
X121096631Y-126374153D01*
X121096631Y-126374153D02*
X121001393Y-126278915D01*
X121001393Y-126278915D02*
X120953774Y-126136058D01*
X120953774Y-126136058D02*
X120953774Y-126040820D01*
X120953774Y-126040820D02*
X121001393Y-125897963D01*
X121001393Y-125897963D02*
X121049012Y-125850344D01*
X121953774Y-124897963D02*
X121953774Y-125469391D01*
X121953774Y-125183677D02*
X120953774Y-125183677D01*
X120953774Y-125183677D02*
X121096631Y-125278915D01*
X121096631Y-125278915D02*
X121191869Y-125374153D01*
X121191869Y-125374153D02*
X121239488Y-125469391D01*
X121953774Y-123945582D02*
X121953774Y-124517010D01*
X121953774Y-124231296D02*
X120953774Y-124231296D01*
X120953774Y-124231296D02*
X121096631Y-124326534D01*
X121096631Y-124326534D02*
X121191869Y-124421772D01*
X121191869Y-124421772D02*
X121239488Y-124517010D01*
X121287107Y-123088439D02*
X121953774Y-123088439D01*
X120906155Y-123326534D02*
X121620440Y-123564629D01*
X121620440Y-123564629D02*
X121620440Y-122945582D01*
X122780952Y-114957811D02*
X122447619Y-114481620D01*
X122209524Y-114957811D02*
X122209524Y-113957811D01*
X122209524Y-113957811D02*
X122590476Y-113957811D01*
X122590476Y-113957811D02*
X122685714Y-114005430D01*
X122685714Y-114005430D02*
X122733333Y-114053049D01*
X122733333Y-114053049D02*
X122780952Y-114148287D01*
X122780952Y-114148287D02*
X122780952Y-114291144D01*
X122780952Y-114291144D02*
X122733333Y-114386382D01*
X122733333Y-114386382D02*
X122685714Y-114434001D01*
X122685714Y-114434001D02*
X122590476Y-114481620D01*
X122590476Y-114481620D02*
X122209524Y-114481620D01*
X123733333Y-114957811D02*
X123161905Y-114957811D01*
X123447619Y-114957811D02*
X123447619Y-113957811D01*
X123447619Y-113957811D02*
X123352381Y-114100668D01*
X123352381Y-114100668D02*
X123257143Y-114195906D01*
X123257143Y-114195906D02*
X123161905Y-114243525D01*
X124352381Y-113957811D02*
X124447619Y-113957811D01*
X124447619Y-113957811D02*
X124542857Y-114005430D01*
X124542857Y-114005430D02*
X124590476Y-114053049D01*
X124590476Y-114053049D02*
X124638095Y-114148287D01*
X124638095Y-114148287D02*
X124685714Y-114338763D01*
X124685714Y-114338763D02*
X124685714Y-114576858D01*
X124685714Y-114576858D02*
X124638095Y-114767334D01*
X124638095Y-114767334D02*
X124590476Y-114862572D01*
X124590476Y-114862572D02*
X124542857Y-114910192D01*
X124542857Y-114910192D02*
X124447619Y-114957811D01*
X124447619Y-114957811D02*
X124352381Y-114957811D01*
X124352381Y-114957811D02*
X124257143Y-114910192D01*
X124257143Y-114910192D02*
X124209524Y-114862572D01*
X124209524Y-114862572D02*
X124161905Y-114767334D01*
X124161905Y-114767334D02*
X124114286Y-114576858D01*
X124114286Y-114576858D02*
X124114286Y-114338763D01*
X124114286Y-114338763D02*
X124161905Y-114148287D01*
X124161905Y-114148287D02*
X124209524Y-114053049D01*
X124209524Y-114053049D02*
X124257143Y-114005430D01*
X124257143Y-114005430D02*
X124352381Y-113957811D01*
X125257143Y-114386382D02*
X125161905Y-114338763D01*
X125161905Y-114338763D02*
X125114286Y-114291144D01*
X125114286Y-114291144D02*
X125066667Y-114195906D01*
X125066667Y-114195906D02*
X125066667Y-114148287D01*
X125066667Y-114148287D02*
X125114286Y-114053049D01*
X125114286Y-114053049D02*
X125161905Y-114005430D01*
X125161905Y-114005430D02*
X125257143Y-113957811D01*
X125257143Y-113957811D02*
X125447619Y-113957811D01*
X125447619Y-113957811D02*
X125542857Y-114005430D01*
X125542857Y-114005430D02*
X125590476Y-114053049D01*
X125590476Y-114053049D02*
X125638095Y-114148287D01*
X125638095Y-114148287D02*
X125638095Y-114195906D01*
X125638095Y-114195906D02*
X125590476Y-114291144D01*
X125590476Y-114291144D02*
X125542857Y-114338763D01*
X125542857Y-114338763D02*
X125447619Y-114386382D01*
X125447619Y-114386382D02*
X125257143Y-114386382D01*
X125257143Y-114386382D02*
X125161905Y-114434001D01*
X125161905Y-114434001D02*
X125114286Y-114481620D01*
X125114286Y-114481620D02*
X125066667Y-114576858D01*
X125066667Y-114576858D02*
X125066667Y-114767334D01*
X125066667Y-114767334D02*
X125114286Y-114862572D01*
X125114286Y-114862572D02*
X125161905Y-114910192D01*
X125161905Y-114910192D02*
X125257143Y-114957811D01*
X125257143Y-114957811D02*
X125447619Y-114957811D01*
X125447619Y-114957811D02*
X125542857Y-114910192D01*
X125542857Y-114910192D02*
X125590476Y-114862572D01*
X125590476Y-114862572D02*
X125638095Y-114767334D01*
X125638095Y-114767334D02*
X125638095Y-114576858D01*
X125638095Y-114576858D02*
X125590476Y-114481620D01*
X125590476Y-114481620D02*
X125542857Y-114434001D01*
X125542857Y-114434001D02*
X125447619Y-114386382D01*
X158530952Y-79397811D02*
X158197619Y-78921620D01*
X157959524Y-79397811D02*
X157959524Y-78397811D01*
X157959524Y-78397811D02*
X158340476Y-78397811D01*
X158340476Y-78397811D02*
X158435714Y-78445430D01*
X158435714Y-78445430D02*
X158483333Y-78493049D01*
X158483333Y-78493049D02*
X158530952Y-78588287D01*
X158530952Y-78588287D02*
X158530952Y-78731144D01*
X158530952Y-78731144D02*
X158483333Y-78826382D01*
X158483333Y-78826382D02*
X158435714Y-78874001D01*
X158435714Y-78874001D02*
X158340476Y-78921620D01*
X158340476Y-78921620D02*
X157959524Y-78921620D01*
X159483333Y-79397811D02*
X158911905Y-79397811D01*
X159197619Y-79397811D02*
X159197619Y-78397811D01*
X159197619Y-78397811D02*
X159102381Y-78540668D01*
X159102381Y-78540668D02*
X159007143Y-78635906D01*
X159007143Y-78635906D02*
X158911905Y-78683525D01*
X159864286Y-78493049D02*
X159911905Y-78445430D01*
X159911905Y-78445430D02*
X160007143Y-78397811D01*
X160007143Y-78397811D02*
X160245238Y-78397811D01*
X160245238Y-78397811D02*
X160340476Y-78445430D01*
X160340476Y-78445430D02*
X160388095Y-78493049D01*
X160388095Y-78493049D02*
X160435714Y-78588287D01*
X160435714Y-78588287D02*
X160435714Y-78683525D01*
X160435714Y-78683525D02*
X160388095Y-78826382D01*
X160388095Y-78826382D02*
X159816667Y-79397811D01*
X159816667Y-79397811D02*
X160435714Y-79397811D01*
X161292857Y-78397811D02*
X161102381Y-78397811D01*
X161102381Y-78397811D02*
X161007143Y-78445430D01*
X161007143Y-78445430D02*
X160959524Y-78493049D01*
X160959524Y-78493049D02*
X160864286Y-78635906D01*
X160864286Y-78635906D02*
X160816667Y-78826382D01*
X160816667Y-78826382D02*
X160816667Y-79207334D01*
X160816667Y-79207334D02*
X160864286Y-79302572D01*
X160864286Y-79302572D02*
X160911905Y-79350192D01*
X160911905Y-79350192D02*
X161007143Y-79397811D01*
X161007143Y-79397811D02*
X161197619Y-79397811D01*
X161197619Y-79397811D02*
X161292857Y-79350192D01*
X161292857Y-79350192D02*
X161340476Y-79302572D01*
X161340476Y-79302572D02*
X161388095Y-79207334D01*
X161388095Y-79207334D02*
X161388095Y-78969239D01*
X161388095Y-78969239D02*
X161340476Y-78874001D01*
X161340476Y-78874001D02*
X161292857Y-78826382D01*
X161292857Y-78826382D02*
X161197619Y-78778763D01*
X161197619Y-78778763D02*
X161007143Y-78778763D01*
X161007143Y-78778763D02*
X160911905Y-78826382D01*
X160911905Y-78826382D02*
X160864286Y-78874001D01*
X160864286Y-78874001D02*
X160816667Y-78969239D01*
X128386172Y-94423047D02*
X128433792Y-94470666D01*
X128433792Y-94470666D02*
X128481411Y-94613523D01*
X128481411Y-94613523D02*
X128481411Y-94708761D01*
X128481411Y-94708761D02*
X128433792Y-94851618D01*
X128433792Y-94851618D02*
X128338553Y-94946856D01*
X128338553Y-94946856D02*
X128243315Y-94994475D01*
X128243315Y-94994475D02*
X128052839Y-95042094D01*
X128052839Y-95042094D02*
X127909982Y-95042094D01*
X127909982Y-95042094D02*
X127719506Y-94994475D01*
X127719506Y-94994475D02*
X127624268Y-94946856D01*
X127624268Y-94946856D02*
X127529030Y-94851618D01*
X127529030Y-94851618D02*
X127481411Y-94708761D01*
X127481411Y-94708761D02*
X127481411Y-94613523D01*
X127481411Y-94613523D02*
X127529030Y-94470666D01*
X127529030Y-94470666D02*
X127576649Y-94423047D01*
X128481411Y-93470666D02*
X128481411Y-94042094D01*
X128481411Y-93756380D02*
X127481411Y-93756380D01*
X127481411Y-93756380D02*
X127624268Y-93851618D01*
X127624268Y-93851618D02*
X127719506Y-93946856D01*
X127719506Y-93946856D02*
X127767125Y-94042094D01*
X127481411Y-92851618D02*
X127481411Y-92756380D01*
X127481411Y-92756380D02*
X127529030Y-92661142D01*
X127529030Y-92661142D02*
X127576649Y-92613523D01*
X127576649Y-92613523D02*
X127671887Y-92565904D01*
X127671887Y-92565904D02*
X127862363Y-92518285D01*
X127862363Y-92518285D02*
X128100458Y-92518285D01*
X128100458Y-92518285D02*
X128290934Y-92565904D01*
X128290934Y-92565904D02*
X128386172Y-92613523D01*
X128386172Y-92613523D02*
X128433792Y-92661142D01*
X128433792Y-92661142D02*
X128481411Y-92756380D01*
X128481411Y-92756380D02*
X128481411Y-92851618D01*
X128481411Y-92851618D02*
X128433792Y-92946856D01*
X128433792Y-92946856D02*
X128386172Y-92994475D01*
X128386172Y-92994475D02*
X128290934Y-93042094D01*
X128290934Y-93042094D02*
X128100458Y-93089713D01*
X128100458Y-93089713D02*
X127862363Y-93089713D01*
X127862363Y-93089713D02*
X127671887Y-93042094D01*
X127671887Y-93042094D02*
X127576649Y-92994475D01*
X127576649Y-92994475D02*
X127529030Y-92946856D01*
X127529030Y-92946856D02*
X127481411Y-92851618D01*
X127481411Y-92184951D02*
X127481411Y-91565904D01*
X127481411Y-91565904D02*
X127862363Y-91899237D01*
X127862363Y-91899237D02*
X127862363Y-91756380D01*
X127862363Y-91756380D02*
X127909982Y-91661142D01*
X127909982Y-91661142D02*
X127957601Y-91613523D01*
X127957601Y-91613523D02*
X128052839Y-91565904D01*
X128052839Y-91565904D02*
X128290934Y-91565904D01*
X128290934Y-91565904D02*
X128386172Y-91613523D01*
X128386172Y-91613523D02*
X128433792Y-91661142D01*
X128433792Y-91661142D02*
X128481411Y-91756380D01*
X128481411Y-91756380D02*
X128481411Y-92042094D01*
X128481411Y-92042094D02*
X128433792Y-92137332D01*
X128433792Y-92137332D02*
X128386172Y-92184951D01*
X148077424Y-113355066D02*
X148414141Y-113691784D01*
X147471332Y-113220379D02*
X148077424Y-113355066D01*
X148077424Y-113355066D02*
X147942737Y-112748975D01*
X149255935Y-112849990D02*
X148851874Y-113254051D01*
X149053905Y-113052020D02*
X148346798Y-112344914D01*
X148346798Y-112344914D02*
X148380470Y-112513272D01*
X148380470Y-112513272D02*
X148380470Y-112647959D01*
X148380470Y-112647959D02*
X148346798Y-112748975D01*
X148986561Y-111705150D02*
X149053905Y-111637807D01*
X149053905Y-111637807D02*
X149154920Y-111604135D01*
X149154920Y-111604135D02*
X149222264Y-111604135D01*
X149222264Y-111604135D02*
X149323279Y-111637807D01*
X149323279Y-111637807D02*
X149491638Y-111738822D01*
X149491638Y-111738822D02*
X149659996Y-111907181D01*
X149659996Y-111907181D02*
X149761012Y-112075539D01*
X149761012Y-112075539D02*
X149794683Y-112176555D01*
X149794683Y-112176555D02*
X149794683Y-112243898D01*
X149794683Y-112243898D02*
X149761012Y-112344914D01*
X149761012Y-112344914D02*
X149693668Y-112412257D01*
X149693668Y-112412257D02*
X149592653Y-112445929D01*
X149592653Y-112445929D02*
X149525309Y-112445929D01*
X149525309Y-112445929D02*
X149424294Y-112412257D01*
X149424294Y-112412257D02*
X149255935Y-112311242D01*
X149255935Y-112311242D02*
X149087577Y-112142883D01*
X149087577Y-112142883D02*
X148986561Y-111974524D01*
X148986561Y-111974524D02*
X148952890Y-111873509D01*
X148952890Y-111873509D02*
X148952890Y-111806165D01*
X148952890Y-111806165D02*
X148986561Y-111705150D01*
X150602805Y-111503120D02*
X150198744Y-111907181D01*
X150400775Y-111705150D02*
X149693668Y-110998043D01*
X149693668Y-110998043D02*
X149727340Y-111166402D01*
X149727340Y-111166402D02*
X149727340Y-111301089D01*
X149727340Y-111301089D02*
X149693668Y-111402104D01*
X151477811Y-80084847D02*
X151001620Y-80418180D01*
X151477811Y-80656275D02*
X150477811Y-80656275D01*
X150477811Y-80656275D02*
X150477811Y-80275323D01*
X150477811Y-80275323D02*
X150525430Y-80180085D01*
X150525430Y-80180085D02*
X150573049Y-80132466D01*
X150573049Y-80132466D02*
X150668287Y-80084847D01*
X150668287Y-80084847D02*
X150811144Y-80084847D01*
X150811144Y-80084847D02*
X150906382Y-80132466D01*
X150906382Y-80132466D02*
X150954001Y-80180085D01*
X150954001Y-80180085D02*
X151001620Y-80275323D01*
X151001620Y-80275323D02*
X151001620Y-80656275D01*
X151477811Y-79132466D02*
X151477811Y-79703894D01*
X151477811Y-79418180D02*
X150477811Y-79418180D01*
X150477811Y-79418180D02*
X150620668Y-79513418D01*
X150620668Y-79513418D02*
X150715906Y-79608656D01*
X150715906Y-79608656D02*
X150763525Y-79703894D01*
X150811144Y-78275323D02*
X151477811Y-78275323D01*
X150430192Y-78513418D02*
X151144477Y-78751513D01*
X151144477Y-78751513D02*
X151144477Y-78132466D01*
X151477811Y-77227704D02*
X151477811Y-77799132D01*
X151477811Y-77513418D02*
X150477811Y-77513418D01*
X150477811Y-77513418D02*
X150620668Y-77608656D01*
X150620668Y-77608656D02*
X150715906Y-77703894D01*
X150715906Y-77703894D02*
X150763525Y-77799132D01*
X145230952Y-104113372D02*
X145183333Y-104160992D01*
X145183333Y-104160992D02*
X145040476Y-104208611D01*
X145040476Y-104208611D02*
X144945238Y-104208611D01*
X144945238Y-104208611D02*
X144802381Y-104160992D01*
X144802381Y-104160992D02*
X144707143Y-104065753D01*
X144707143Y-104065753D02*
X144659524Y-103970515D01*
X144659524Y-103970515D02*
X144611905Y-103780039D01*
X144611905Y-103780039D02*
X144611905Y-103637182D01*
X144611905Y-103637182D02*
X144659524Y-103446706D01*
X144659524Y-103446706D02*
X144707143Y-103351468D01*
X144707143Y-103351468D02*
X144802381Y-103256230D01*
X144802381Y-103256230D02*
X144945238Y-103208611D01*
X144945238Y-103208611D02*
X145040476Y-103208611D01*
X145040476Y-103208611D02*
X145183333Y-103256230D01*
X145183333Y-103256230D02*
X145230952Y-103303849D01*
X146183333Y-104208611D02*
X145611905Y-104208611D01*
X145897619Y-104208611D02*
X145897619Y-103208611D01*
X145897619Y-103208611D02*
X145802381Y-103351468D01*
X145802381Y-103351468D02*
X145707143Y-103446706D01*
X145707143Y-103446706D02*
X145611905Y-103494325D01*
X146802381Y-103208611D02*
X146897619Y-103208611D01*
X146897619Y-103208611D02*
X146992857Y-103256230D01*
X146992857Y-103256230D02*
X147040476Y-103303849D01*
X147040476Y-103303849D02*
X147088095Y-103399087D01*
X147088095Y-103399087D02*
X147135714Y-103589563D01*
X147135714Y-103589563D02*
X147135714Y-103827658D01*
X147135714Y-103827658D02*
X147088095Y-104018134D01*
X147088095Y-104018134D02*
X147040476Y-104113372D01*
X147040476Y-104113372D02*
X146992857Y-104160992D01*
X146992857Y-104160992D02*
X146897619Y-104208611D01*
X146897619Y-104208611D02*
X146802381Y-104208611D01*
X146802381Y-104208611D02*
X146707143Y-104160992D01*
X146707143Y-104160992D02*
X146659524Y-104113372D01*
X146659524Y-104113372D02*
X146611905Y-104018134D01*
X146611905Y-104018134D02*
X146564286Y-103827658D01*
X146564286Y-103827658D02*
X146564286Y-103589563D01*
X146564286Y-103589563D02*
X146611905Y-103399087D01*
X146611905Y-103399087D02*
X146659524Y-103303849D01*
X146659524Y-103303849D02*
X146707143Y-103256230D01*
X146707143Y-103256230D02*
X146802381Y-103208611D01*
X147707143Y-103637182D02*
X147611905Y-103589563D01*
X147611905Y-103589563D02*
X147564286Y-103541944D01*
X147564286Y-103541944D02*
X147516667Y-103446706D01*
X147516667Y-103446706D02*
X147516667Y-103399087D01*
X147516667Y-103399087D02*
X147564286Y-103303849D01*
X147564286Y-103303849D02*
X147611905Y-103256230D01*
X147611905Y-103256230D02*
X147707143Y-103208611D01*
X147707143Y-103208611D02*
X147897619Y-103208611D01*
X147897619Y-103208611D02*
X147992857Y-103256230D01*
X147992857Y-103256230D02*
X148040476Y-103303849D01*
X148040476Y-103303849D02*
X148088095Y-103399087D01*
X148088095Y-103399087D02*
X148088095Y-103446706D01*
X148088095Y-103446706D02*
X148040476Y-103541944D01*
X148040476Y-103541944D02*
X147992857Y-103589563D01*
X147992857Y-103589563D02*
X147897619Y-103637182D01*
X147897619Y-103637182D02*
X147707143Y-103637182D01*
X147707143Y-103637182D02*
X147611905Y-103684801D01*
X147611905Y-103684801D02*
X147564286Y-103732420D01*
X147564286Y-103732420D02*
X147516667Y-103827658D01*
X147516667Y-103827658D02*
X147516667Y-104018134D01*
X147516667Y-104018134D02*
X147564286Y-104113372D01*
X147564286Y-104113372D02*
X147611905Y-104160992D01*
X147611905Y-104160992D02*
X147707143Y-104208611D01*
X147707143Y-104208611D02*
X147897619Y-104208611D01*
X147897619Y-104208611D02*
X147992857Y-104160992D01*
X147992857Y-104160992D02*
X148040476Y-104113372D01*
X148040476Y-104113372D02*
X148088095Y-104018134D01*
X148088095Y-104018134D02*
X148088095Y-103827658D01*
X148088095Y-103827658D02*
X148040476Y-103732420D01*
X148040476Y-103732420D02*
X147992857Y-103684801D01*
X147992857Y-103684801D02*
X147897619Y-103637182D01*
X158430952Y-117497811D02*
X158097619Y-117021620D01*
X157859524Y-117497811D02*
X157859524Y-116497811D01*
X157859524Y-116497811D02*
X158240476Y-116497811D01*
X158240476Y-116497811D02*
X158335714Y-116545430D01*
X158335714Y-116545430D02*
X158383333Y-116593049D01*
X158383333Y-116593049D02*
X158430952Y-116688287D01*
X158430952Y-116688287D02*
X158430952Y-116831144D01*
X158430952Y-116831144D02*
X158383333Y-116926382D01*
X158383333Y-116926382D02*
X158335714Y-116974001D01*
X158335714Y-116974001D02*
X158240476Y-117021620D01*
X158240476Y-117021620D02*
X157859524Y-117021620D01*
X159383333Y-117497811D02*
X158811905Y-117497811D01*
X159097619Y-117497811D02*
X159097619Y-116497811D01*
X159097619Y-116497811D02*
X159002381Y-116640668D01*
X159002381Y-116640668D02*
X158907143Y-116735906D01*
X158907143Y-116735906D02*
X158811905Y-116783525D01*
X159764286Y-116593049D02*
X159811905Y-116545430D01*
X159811905Y-116545430D02*
X159907143Y-116497811D01*
X159907143Y-116497811D02*
X160145238Y-116497811D01*
X160145238Y-116497811D02*
X160240476Y-116545430D01*
X160240476Y-116545430D02*
X160288095Y-116593049D01*
X160288095Y-116593049D02*
X160335714Y-116688287D01*
X160335714Y-116688287D02*
X160335714Y-116783525D01*
X160335714Y-116783525D02*
X160288095Y-116926382D01*
X160288095Y-116926382D02*
X159716667Y-117497811D01*
X159716667Y-117497811D02*
X160335714Y-117497811D01*
X160907143Y-116926382D02*
X160811905Y-116878763D01*
X160811905Y-116878763D02*
X160764286Y-116831144D01*
X160764286Y-116831144D02*
X160716667Y-116735906D01*
X160716667Y-116735906D02*
X160716667Y-116688287D01*
X160716667Y-116688287D02*
X160764286Y-116593049D01*
X160764286Y-116593049D02*
X160811905Y-116545430D01*
X160811905Y-116545430D02*
X160907143Y-116497811D01*
X160907143Y-116497811D02*
X161097619Y-116497811D01*
X161097619Y-116497811D02*
X161192857Y-116545430D01*
X161192857Y-116545430D02*
X161240476Y-116593049D01*
X161240476Y-116593049D02*
X161288095Y-116688287D01*
X161288095Y-116688287D02*
X161288095Y-116735906D01*
X161288095Y-116735906D02*
X161240476Y-116831144D01*
X161240476Y-116831144D02*
X161192857Y-116878763D01*
X161192857Y-116878763D02*
X161097619Y-116926382D01*
X161097619Y-116926382D02*
X160907143Y-116926382D01*
X160907143Y-116926382D02*
X160811905Y-116974001D01*
X160811905Y-116974001D02*
X160764286Y-117021620D01*
X160764286Y-117021620D02*
X160716667Y-117116858D01*
X160716667Y-117116858D02*
X160716667Y-117307334D01*
X160716667Y-117307334D02*
X160764286Y-117402572D01*
X160764286Y-117402572D02*
X160811905Y-117450192D01*
X160811905Y-117450192D02*
X160907143Y-117497811D01*
X160907143Y-117497811D02*
X161097619Y-117497811D01*
X161097619Y-117497811D02*
X161192857Y-117450192D01*
X161192857Y-117450192D02*
X161240476Y-117402572D01*
X161240476Y-117402572D02*
X161288095Y-117307334D01*
X161288095Y-117307334D02*
X161288095Y-117116858D01*
X161288095Y-117116858D02*
X161240476Y-117021620D01*
X161240476Y-117021620D02*
X161192857Y-116974001D01*
X161192857Y-116974001D02*
X161097619Y-116926382D01*
X133209372Y-94673047D02*
X133256992Y-94720666D01*
X133256992Y-94720666D02*
X133304611Y-94863523D01*
X133304611Y-94863523D02*
X133304611Y-94958761D01*
X133304611Y-94958761D02*
X133256992Y-95101618D01*
X133256992Y-95101618D02*
X133161753Y-95196856D01*
X133161753Y-95196856D02*
X133066515Y-95244475D01*
X133066515Y-95244475D02*
X132876039Y-95292094D01*
X132876039Y-95292094D02*
X132733182Y-95292094D01*
X132733182Y-95292094D02*
X132542706Y-95244475D01*
X132542706Y-95244475D02*
X132447468Y-95196856D01*
X132447468Y-95196856D02*
X132352230Y-95101618D01*
X132352230Y-95101618D02*
X132304611Y-94958761D01*
X132304611Y-94958761D02*
X132304611Y-94863523D01*
X132304611Y-94863523D02*
X132352230Y-94720666D01*
X132352230Y-94720666D02*
X132399849Y-94673047D01*
X133304611Y-93720666D02*
X133304611Y-94292094D01*
X133304611Y-94006380D02*
X132304611Y-94006380D01*
X132304611Y-94006380D02*
X132447468Y-94101618D01*
X132447468Y-94101618D02*
X132542706Y-94196856D01*
X132542706Y-94196856D02*
X132590325Y-94292094D01*
X133304611Y-92768285D02*
X133304611Y-93339713D01*
X133304611Y-93053999D02*
X132304611Y-93053999D01*
X132304611Y-93053999D02*
X132447468Y-93149237D01*
X132447468Y-93149237D02*
X132542706Y-93244475D01*
X132542706Y-93244475D02*
X132590325Y-93339713D01*
X132304611Y-92434951D02*
X132304611Y-91815904D01*
X132304611Y-91815904D02*
X132685563Y-92149237D01*
X132685563Y-92149237D02*
X132685563Y-92006380D01*
X132685563Y-92006380D02*
X132733182Y-91911142D01*
X132733182Y-91911142D02*
X132780801Y-91863523D01*
X132780801Y-91863523D02*
X132876039Y-91815904D01*
X132876039Y-91815904D02*
X133114134Y-91815904D01*
X133114134Y-91815904D02*
X133209372Y-91863523D01*
X133209372Y-91863523D02*
X133256992Y-91911142D01*
X133256992Y-91911142D02*
X133304611Y-92006380D01*
X133304611Y-92006380D02*
X133304611Y-92292094D01*
X133304611Y-92292094D02*
X133256992Y-92387332D01*
X133256992Y-92387332D02*
X133209372Y-92434951D01*
X134738484Y-107029822D02*
X134690865Y-107077442D01*
X134690865Y-107077442D02*
X134548008Y-107125061D01*
X134548008Y-107125061D02*
X134452770Y-107125061D01*
X134452770Y-107125061D02*
X134309913Y-107077442D01*
X134309913Y-107077442D02*
X134214675Y-106982203D01*
X134214675Y-106982203D02*
X134167056Y-106886965D01*
X134167056Y-106886965D02*
X134119437Y-106696489D01*
X134119437Y-106696489D02*
X134119437Y-106553632D01*
X134119437Y-106553632D02*
X134167056Y-106363156D01*
X134167056Y-106363156D02*
X134214675Y-106267918D01*
X134214675Y-106267918D02*
X134309913Y-106172680D01*
X134309913Y-106172680D02*
X134452770Y-106125061D01*
X134452770Y-106125061D02*
X134548008Y-106125061D01*
X134548008Y-106125061D02*
X134690865Y-106172680D01*
X134690865Y-106172680D02*
X134738484Y-106220299D01*
X135690865Y-107125061D02*
X135119437Y-107125061D01*
X135405151Y-107125061D02*
X135405151Y-106125061D01*
X135405151Y-106125061D02*
X135309913Y-106267918D01*
X135309913Y-106267918D02*
X135214675Y-106363156D01*
X135214675Y-106363156D02*
X135119437Y-106410775D01*
X136643246Y-107125061D02*
X136071818Y-107125061D01*
X136357532Y-107125061D02*
X136357532Y-106125061D01*
X136357532Y-106125061D02*
X136262294Y-106267918D01*
X136262294Y-106267918D02*
X136167056Y-106363156D01*
X136167056Y-106363156D02*
X136071818Y-106410775D01*
X137262294Y-106125061D02*
X137357532Y-106125061D01*
X137357532Y-106125061D02*
X137452770Y-106172680D01*
X137452770Y-106172680D02*
X137500389Y-106220299D01*
X137500389Y-106220299D02*
X137548008Y-106315537D01*
X137548008Y-106315537D02*
X137595627Y-106506013D01*
X137595627Y-106506013D02*
X137595627Y-106744108D01*
X137595627Y-106744108D02*
X137548008Y-106934584D01*
X137548008Y-106934584D02*
X137500389Y-107029822D01*
X137500389Y-107029822D02*
X137452770Y-107077442D01*
X137452770Y-107077442D02*
X137357532Y-107125061D01*
X137357532Y-107125061D02*
X137262294Y-107125061D01*
X137262294Y-107125061D02*
X137167056Y-107077442D01*
X137167056Y-107077442D02*
X137119437Y-107029822D01*
X137119437Y-107029822D02*
X137071818Y-106934584D01*
X137071818Y-106934584D02*
X137024199Y-106744108D01*
X137024199Y-106744108D02*
X137024199Y-106506013D01*
X137024199Y-106506013D02*
X137071818Y-106315537D01*
X137071818Y-106315537D02*
X137119437Y-106220299D01*
X137119437Y-106220299D02*
X137167056Y-106172680D01*
X137167056Y-106172680D02*
X137262294Y-106125061D01*
D11*
X127938095Y-121354819D02*
X128604761Y-122354819D01*
X128604761Y-121354819D02*
X127938095Y-122354819D01*
X129509523Y-122354819D02*
X128938095Y-122354819D01*
X129223809Y-122354819D02*
X129223809Y-121354819D01*
X129223809Y-121354819D02*
X129128571Y-121497676D01*
X129128571Y-121497676D02*
X129033333Y-121592914D01*
X129033333Y-121592914D02*
X128938095Y-121640533D01*
X130128571Y-121354819D02*
X130223809Y-121354819D01*
X130223809Y-121354819D02*
X130319047Y-121402438D01*
X130319047Y-121402438D02*
X130366666Y-121450057D01*
X130366666Y-121450057D02*
X130414285Y-121545295D01*
X130414285Y-121545295D02*
X130461904Y-121735771D01*
X130461904Y-121735771D02*
X130461904Y-121973866D01*
X130461904Y-121973866D02*
X130414285Y-122164342D01*
X130414285Y-122164342D02*
X130366666Y-122259580D01*
X130366666Y-122259580D02*
X130319047Y-122307200D01*
X130319047Y-122307200D02*
X130223809Y-122354819D01*
X130223809Y-122354819D02*
X130128571Y-122354819D01*
X130128571Y-122354819D02*
X130033333Y-122307200D01*
X130033333Y-122307200D02*
X129985714Y-122259580D01*
X129985714Y-122259580D02*
X129938095Y-122164342D01*
X129938095Y-122164342D02*
X129890476Y-121973866D01*
X129890476Y-121973866D02*
X129890476Y-121735771D01*
X129890476Y-121735771D02*
X129938095Y-121545295D01*
X129938095Y-121545295D02*
X129985714Y-121450057D01*
X129985714Y-121450057D02*
X130033333Y-121402438D01*
X130033333Y-121402438D02*
X130128571Y-121354819D01*
X131414285Y-122354819D02*
X130842857Y-122354819D01*
X131128571Y-122354819D02*
X131128571Y-121354819D01*
X131128571Y-121354819D02*
X131033333Y-121497676D01*
X131033333Y-121497676D02*
X130938095Y-121592914D01*
X130938095Y-121592914D02*
X130842857Y-121640533D01*
D10*
X136022634Y-86761142D02*
X136065492Y-86803999D01*
X136065492Y-86803999D02*
X136108349Y-86932571D01*
X136108349Y-86932571D02*
X136108349Y-87018285D01*
X136108349Y-87018285D02*
X136065492Y-87146856D01*
X136065492Y-87146856D02*
X135979777Y-87232571D01*
X135979777Y-87232571D02*
X135894063Y-87275428D01*
X135894063Y-87275428D02*
X135722634Y-87318285D01*
X135722634Y-87318285D02*
X135594063Y-87318285D01*
X135594063Y-87318285D02*
X135422634Y-87275428D01*
X135422634Y-87275428D02*
X135336920Y-87232571D01*
X135336920Y-87232571D02*
X135251206Y-87146856D01*
X135251206Y-87146856D02*
X135208349Y-87018285D01*
X135208349Y-87018285D02*
X135208349Y-86932571D01*
X135208349Y-86932571D02*
X135251206Y-86803999D01*
X135251206Y-86803999D02*
X135294063Y-86761142D01*
X136108349Y-85903999D02*
X136108349Y-86418285D01*
X136108349Y-86161142D02*
X135208349Y-86161142D01*
X135208349Y-86161142D02*
X135336920Y-86246856D01*
X135336920Y-86246856D02*
X135422634Y-86332571D01*
X135422634Y-86332571D02*
X135465492Y-86418285D01*
X135208349Y-85346856D02*
X135208349Y-85261142D01*
X135208349Y-85261142D02*
X135251206Y-85175428D01*
X135251206Y-85175428D02*
X135294063Y-85132571D01*
X135294063Y-85132571D02*
X135379777Y-85089713D01*
X135379777Y-85089713D02*
X135551206Y-85046856D01*
X135551206Y-85046856D02*
X135765492Y-85046856D01*
X135765492Y-85046856D02*
X135936920Y-85089713D01*
X135936920Y-85089713D02*
X136022634Y-85132571D01*
X136022634Y-85132571D02*
X136065492Y-85175428D01*
X136065492Y-85175428D02*
X136108349Y-85261142D01*
X136108349Y-85261142D02*
X136108349Y-85346856D01*
X136108349Y-85346856D02*
X136065492Y-85432571D01*
X136065492Y-85432571D02*
X136022634Y-85475428D01*
X136022634Y-85475428D02*
X135936920Y-85518285D01*
X135936920Y-85518285D02*
X135765492Y-85561142D01*
X135765492Y-85561142D02*
X135551206Y-85561142D01*
X135551206Y-85561142D02*
X135379777Y-85518285D01*
X135379777Y-85518285D02*
X135294063Y-85475428D01*
X135294063Y-85475428D02*
X135251206Y-85432571D01*
X135251206Y-85432571D02*
X135208349Y-85346856D01*
X135508349Y-84275428D02*
X136108349Y-84275428D01*
X135165492Y-84489713D02*
X135808349Y-84703999D01*
X135808349Y-84703999D02*
X135808349Y-84146856D01*
X158530952Y-84354611D02*
X158197619Y-83878420D01*
X157959524Y-84354611D02*
X157959524Y-83354611D01*
X157959524Y-83354611D02*
X158340476Y-83354611D01*
X158340476Y-83354611D02*
X158435714Y-83402230D01*
X158435714Y-83402230D02*
X158483333Y-83449849D01*
X158483333Y-83449849D02*
X158530952Y-83545087D01*
X158530952Y-83545087D02*
X158530952Y-83687944D01*
X158530952Y-83687944D02*
X158483333Y-83783182D01*
X158483333Y-83783182D02*
X158435714Y-83830801D01*
X158435714Y-83830801D02*
X158340476Y-83878420D01*
X158340476Y-83878420D02*
X157959524Y-83878420D01*
X159483333Y-84354611D02*
X158911905Y-84354611D01*
X159197619Y-84354611D02*
X159197619Y-83354611D01*
X159197619Y-83354611D02*
X159102381Y-83497468D01*
X159102381Y-83497468D02*
X159007143Y-83592706D01*
X159007143Y-83592706D02*
X158911905Y-83640325D01*
X159864286Y-83449849D02*
X159911905Y-83402230D01*
X159911905Y-83402230D02*
X160007143Y-83354611D01*
X160007143Y-83354611D02*
X160245238Y-83354611D01*
X160245238Y-83354611D02*
X160340476Y-83402230D01*
X160340476Y-83402230D02*
X160388095Y-83449849D01*
X160388095Y-83449849D02*
X160435714Y-83545087D01*
X160435714Y-83545087D02*
X160435714Y-83640325D01*
X160435714Y-83640325D02*
X160388095Y-83783182D01*
X160388095Y-83783182D02*
X159816667Y-84354611D01*
X159816667Y-84354611D02*
X160435714Y-84354611D01*
X161340476Y-83354611D02*
X160864286Y-83354611D01*
X160864286Y-83354611D02*
X160816667Y-83830801D01*
X160816667Y-83830801D02*
X160864286Y-83783182D01*
X160864286Y-83783182D02*
X160959524Y-83735563D01*
X160959524Y-83735563D02*
X161197619Y-83735563D01*
X161197619Y-83735563D02*
X161292857Y-83783182D01*
X161292857Y-83783182D02*
X161340476Y-83830801D01*
X161340476Y-83830801D02*
X161388095Y-83926039D01*
X161388095Y-83926039D02*
X161388095Y-84164134D01*
X161388095Y-84164134D02*
X161340476Y-84259372D01*
X161340476Y-84259372D02*
X161292857Y-84306992D01*
X161292857Y-84306992D02*
X161197619Y-84354611D01*
X161197619Y-84354611D02*
X160959524Y-84354611D01*
X160959524Y-84354611D02*
X160864286Y-84306992D01*
X160864286Y-84306992D02*
X160816667Y-84259372D01*
X140030952Y-74808611D02*
X139697619Y-74332420D01*
X139459524Y-74808611D02*
X139459524Y-73808611D01*
X139459524Y-73808611D02*
X139840476Y-73808611D01*
X139840476Y-73808611D02*
X139935714Y-73856230D01*
X139935714Y-73856230D02*
X139983333Y-73903849D01*
X139983333Y-73903849D02*
X140030952Y-73999087D01*
X140030952Y-73999087D02*
X140030952Y-74141944D01*
X140030952Y-74141944D02*
X139983333Y-74237182D01*
X139983333Y-74237182D02*
X139935714Y-74284801D01*
X139935714Y-74284801D02*
X139840476Y-74332420D01*
X139840476Y-74332420D02*
X139459524Y-74332420D01*
X140983333Y-74808611D02*
X140411905Y-74808611D01*
X140697619Y-74808611D02*
X140697619Y-73808611D01*
X140697619Y-73808611D02*
X140602381Y-73951468D01*
X140602381Y-73951468D02*
X140507143Y-74046706D01*
X140507143Y-74046706D02*
X140411905Y-74094325D01*
X141316667Y-73808611D02*
X141935714Y-73808611D01*
X141935714Y-73808611D02*
X141602381Y-74189563D01*
X141602381Y-74189563D02*
X141745238Y-74189563D01*
X141745238Y-74189563D02*
X141840476Y-74237182D01*
X141840476Y-74237182D02*
X141888095Y-74284801D01*
X141888095Y-74284801D02*
X141935714Y-74380039D01*
X141935714Y-74380039D02*
X141935714Y-74618134D01*
X141935714Y-74618134D02*
X141888095Y-74713372D01*
X141888095Y-74713372D02*
X141840476Y-74760992D01*
X141840476Y-74760992D02*
X141745238Y-74808611D01*
X141745238Y-74808611D02*
X141459524Y-74808611D01*
X141459524Y-74808611D02*
X141364286Y-74760992D01*
X141364286Y-74760992D02*
X141316667Y-74713372D01*
X142554762Y-73808611D02*
X142650000Y-73808611D01*
X142650000Y-73808611D02*
X142745238Y-73856230D01*
X142745238Y-73856230D02*
X142792857Y-73903849D01*
X142792857Y-73903849D02*
X142840476Y-73999087D01*
X142840476Y-73999087D02*
X142888095Y-74189563D01*
X142888095Y-74189563D02*
X142888095Y-74427658D01*
X142888095Y-74427658D02*
X142840476Y-74618134D01*
X142840476Y-74618134D02*
X142792857Y-74713372D01*
X142792857Y-74713372D02*
X142745238Y-74760992D01*
X142745238Y-74760992D02*
X142650000Y-74808611D01*
X142650000Y-74808611D02*
X142554762Y-74808611D01*
X142554762Y-74808611D02*
X142459524Y-74760992D01*
X142459524Y-74760992D02*
X142411905Y-74713372D01*
X142411905Y-74713372D02*
X142364286Y-74618134D01*
X142364286Y-74618134D02*
X142316667Y-74427658D01*
X142316667Y-74427658D02*
X142316667Y-74189563D01*
X142316667Y-74189563D02*
X142364286Y-73999087D01*
X142364286Y-73999087D02*
X142411905Y-73903849D01*
X142411905Y-73903849D02*
X142459524Y-73856230D01*
X142459524Y-73856230D02*
X142554762Y-73808611D01*
X133159372Y-99173047D02*
X133206992Y-99220666D01*
X133206992Y-99220666D02*
X133254611Y-99363523D01*
X133254611Y-99363523D02*
X133254611Y-99458761D01*
X133254611Y-99458761D02*
X133206992Y-99601618D01*
X133206992Y-99601618D02*
X133111753Y-99696856D01*
X133111753Y-99696856D02*
X133016515Y-99744475D01*
X133016515Y-99744475D02*
X132826039Y-99792094D01*
X132826039Y-99792094D02*
X132683182Y-99792094D01*
X132683182Y-99792094D02*
X132492706Y-99744475D01*
X132492706Y-99744475D02*
X132397468Y-99696856D01*
X132397468Y-99696856D02*
X132302230Y-99601618D01*
X132302230Y-99601618D02*
X132254611Y-99458761D01*
X132254611Y-99458761D02*
X132254611Y-99363523D01*
X132254611Y-99363523D02*
X132302230Y-99220666D01*
X132302230Y-99220666D02*
X132349849Y-99173047D01*
X133254611Y-98220666D02*
X133254611Y-98792094D01*
X133254611Y-98506380D02*
X132254611Y-98506380D01*
X132254611Y-98506380D02*
X132397468Y-98601618D01*
X132397468Y-98601618D02*
X132492706Y-98696856D01*
X132492706Y-98696856D02*
X132540325Y-98792094D01*
X132254611Y-97601618D02*
X132254611Y-97506380D01*
X132254611Y-97506380D02*
X132302230Y-97411142D01*
X132302230Y-97411142D02*
X132349849Y-97363523D01*
X132349849Y-97363523D02*
X132445087Y-97315904D01*
X132445087Y-97315904D02*
X132635563Y-97268285D01*
X132635563Y-97268285D02*
X132873658Y-97268285D01*
X132873658Y-97268285D02*
X133064134Y-97315904D01*
X133064134Y-97315904D02*
X133159372Y-97363523D01*
X133159372Y-97363523D02*
X133206992Y-97411142D01*
X133206992Y-97411142D02*
X133254611Y-97506380D01*
X133254611Y-97506380D02*
X133254611Y-97601618D01*
X133254611Y-97601618D02*
X133206992Y-97696856D01*
X133206992Y-97696856D02*
X133159372Y-97744475D01*
X133159372Y-97744475D02*
X133064134Y-97792094D01*
X133064134Y-97792094D02*
X132873658Y-97839713D01*
X132873658Y-97839713D02*
X132635563Y-97839713D01*
X132635563Y-97839713D02*
X132445087Y-97792094D01*
X132445087Y-97792094D02*
X132349849Y-97744475D01*
X132349849Y-97744475D02*
X132302230Y-97696856D01*
X132302230Y-97696856D02*
X132254611Y-97601618D01*
X132254611Y-96934951D02*
X132254611Y-96268285D01*
X132254611Y-96268285D02*
X133254611Y-96696856D01*
X129930952Y-88013372D02*
X129883333Y-88060992D01*
X129883333Y-88060992D02*
X129740476Y-88108611D01*
X129740476Y-88108611D02*
X129645238Y-88108611D01*
X129645238Y-88108611D02*
X129502381Y-88060992D01*
X129502381Y-88060992D02*
X129407143Y-87965753D01*
X129407143Y-87965753D02*
X129359524Y-87870515D01*
X129359524Y-87870515D02*
X129311905Y-87680039D01*
X129311905Y-87680039D02*
X129311905Y-87537182D01*
X129311905Y-87537182D02*
X129359524Y-87346706D01*
X129359524Y-87346706D02*
X129407143Y-87251468D01*
X129407143Y-87251468D02*
X129502381Y-87156230D01*
X129502381Y-87156230D02*
X129645238Y-87108611D01*
X129645238Y-87108611D02*
X129740476Y-87108611D01*
X129740476Y-87108611D02*
X129883333Y-87156230D01*
X129883333Y-87156230D02*
X129930952Y-87203849D01*
X130883333Y-88108611D02*
X130311905Y-88108611D01*
X130597619Y-88108611D02*
X130597619Y-87108611D01*
X130597619Y-87108611D02*
X130502381Y-87251468D01*
X130502381Y-87251468D02*
X130407143Y-87346706D01*
X130407143Y-87346706D02*
X130311905Y-87394325D01*
X131264286Y-87203849D02*
X131311905Y-87156230D01*
X131311905Y-87156230D02*
X131407143Y-87108611D01*
X131407143Y-87108611D02*
X131645238Y-87108611D01*
X131645238Y-87108611D02*
X131740476Y-87156230D01*
X131740476Y-87156230D02*
X131788095Y-87203849D01*
X131788095Y-87203849D02*
X131835714Y-87299087D01*
X131835714Y-87299087D02*
X131835714Y-87394325D01*
X131835714Y-87394325D02*
X131788095Y-87537182D01*
X131788095Y-87537182D02*
X131216667Y-88108611D01*
X131216667Y-88108611D02*
X131835714Y-88108611D01*
X132169048Y-87108611D02*
X132788095Y-87108611D01*
X132788095Y-87108611D02*
X132454762Y-87489563D01*
X132454762Y-87489563D02*
X132597619Y-87489563D01*
X132597619Y-87489563D02*
X132692857Y-87537182D01*
X132692857Y-87537182D02*
X132740476Y-87584801D01*
X132740476Y-87584801D02*
X132788095Y-87680039D01*
X132788095Y-87680039D02*
X132788095Y-87918134D01*
X132788095Y-87918134D02*
X132740476Y-88013372D01*
X132740476Y-88013372D02*
X132692857Y-88060992D01*
X132692857Y-88060992D02*
X132597619Y-88108611D01*
X132597619Y-88108611D02*
X132311905Y-88108611D01*
X132311905Y-88108611D02*
X132216667Y-88060992D01*
X132216667Y-88060992D02*
X132169048Y-88013372D01*
D11*
X132234649Y-89808819D02*
X132234649Y-90618342D01*
X132234649Y-90618342D02*
X132282268Y-90713580D01*
X132282268Y-90713580D02*
X132329887Y-90761200D01*
X132329887Y-90761200D02*
X132425125Y-90808819D01*
X132425125Y-90808819D02*
X132615601Y-90808819D01*
X132615601Y-90808819D02*
X132710839Y-90761200D01*
X132710839Y-90761200D02*
X132758458Y-90713580D01*
X132758458Y-90713580D02*
X132806077Y-90618342D01*
X132806077Y-90618342D02*
X132806077Y-89808819D01*
X133806077Y-90808819D02*
X133234649Y-90808819D01*
X133520363Y-90808819D02*
X133520363Y-89808819D01*
X133520363Y-89808819D02*
X133425125Y-89951676D01*
X133425125Y-89951676D02*
X133329887Y-90046914D01*
X133329887Y-90046914D02*
X133234649Y-90094533D01*
X134425125Y-89808819D02*
X134520363Y-89808819D01*
X134520363Y-89808819D02*
X134615601Y-89856438D01*
X134615601Y-89856438D02*
X134663220Y-89904057D01*
X134663220Y-89904057D02*
X134710839Y-89999295D01*
X134710839Y-89999295D02*
X134758458Y-90189771D01*
X134758458Y-90189771D02*
X134758458Y-90427866D01*
X134758458Y-90427866D02*
X134710839Y-90618342D01*
X134710839Y-90618342D02*
X134663220Y-90713580D01*
X134663220Y-90713580D02*
X134615601Y-90761200D01*
X134615601Y-90761200D02*
X134520363Y-90808819D01*
X134520363Y-90808819D02*
X134425125Y-90808819D01*
X134425125Y-90808819D02*
X134329887Y-90761200D01*
X134329887Y-90761200D02*
X134282268Y-90713580D01*
X134282268Y-90713580D02*
X134234649Y-90618342D01*
X134234649Y-90618342D02*
X134187030Y-90427866D01*
X134187030Y-90427866D02*
X134187030Y-90189771D01*
X134187030Y-90189771D02*
X134234649Y-89999295D01*
X134234649Y-89999295D02*
X134282268Y-89904057D01*
X134282268Y-89904057D02*
X134329887Y-89856438D01*
X134329887Y-89856438D02*
X134425125Y-89808819D01*
X135139411Y-89904057D02*
X135187030Y-89856438D01*
X135187030Y-89856438D02*
X135282268Y-89808819D01*
X135282268Y-89808819D02*
X135520363Y-89808819D01*
X135520363Y-89808819D02*
X135615601Y-89856438D01*
X135615601Y-89856438D02*
X135663220Y-89904057D01*
X135663220Y-89904057D02*
X135710839Y-89999295D01*
X135710839Y-89999295D02*
X135710839Y-90094533D01*
X135710839Y-90094533D02*
X135663220Y-90237390D01*
X135663220Y-90237390D02*
X135091792Y-90808819D01*
X135091792Y-90808819D02*
X135710839Y-90808819D01*
D10*
X133059372Y-103373047D02*
X133106992Y-103420666D01*
X133106992Y-103420666D02*
X133154611Y-103563523D01*
X133154611Y-103563523D02*
X133154611Y-103658761D01*
X133154611Y-103658761D02*
X133106992Y-103801618D01*
X133106992Y-103801618D02*
X133011753Y-103896856D01*
X133011753Y-103896856D02*
X132916515Y-103944475D01*
X132916515Y-103944475D02*
X132726039Y-103992094D01*
X132726039Y-103992094D02*
X132583182Y-103992094D01*
X132583182Y-103992094D02*
X132392706Y-103944475D01*
X132392706Y-103944475D02*
X132297468Y-103896856D01*
X132297468Y-103896856D02*
X132202230Y-103801618D01*
X132202230Y-103801618D02*
X132154611Y-103658761D01*
X132154611Y-103658761D02*
X132154611Y-103563523D01*
X132154611Y-103563523D02*
X132202230Y-103420666D01*
X132202230Y-103420666D02*
X132249849Y-103373047D01*
X133154611Y-102420666D02*
X133154611Y-102992094D01*
X133154611Y-102706380D02*
X132154611Y-102706380D01*
X132154611Y-102706380D02*
X132297468Y-102801618D01*
X132297468Y-102801618D02*
X132392706Y-102896856D01*
X132392706Y-102896856D02*
X132440325Y-102992094D01*
X133154611Y-101468285D02*
X133154611Y-102039713D01*
X133154611Y-101753999D02*
X132154611Y-101753999D01*
X132154611Y-101753999D02*
X132297468Y-101849237D01*
X132297468Y-101849237D02*
X132392706Y-101944475D01*
X132392706Y-101944475D02*
X132440325Y-102039713D01*
X132154611Y-101134951D02*
X132154611Y-100468285D01*
X132154611Y-100468285D02*
X133154611Y-100896856D01*
X134110563Y-84524749D02*
X134093133Y-84589798D01*
X134093133Y-84589798D02*
X133993225Y-84702466D01*
X133993225Y-84702466D02*
X133910746Y-84750085D01*
X133910746Y-84750085D02*
X133763218Y-84780274D01*
X133763218Y-84780274D02*
X133633121Y-84745415D01*
X133633121Y-84745415D02*
X133544262Y-84686746D01*
X133544262Y-84686746D02*
X133407785Y-84545598D01*
X133407785Y-84545598D02*
X133336356Y-84421880D01*
X133336356Y-84421880D02*
X133282358Y-84233113D01*
X133282358Y-84233113D02*
X133275978Y-84126825D01*
X133275978Y-84126825D02*
X133310838Y-83996727D01*
X133310838Y-83996727D02*
X133410746Y-83884060D01*
X133410746Y-83884060D02*
X133493225Y-83836441D01*
X133493225Y-83836441D02*
X133640752Y-83806251D01*
X133640752Y-83806251D02*
X133705801Y-83823681D01*
X134982968Y-84131037D02*
X134488096Y-84416752D01*
X134735532Y-84273894D02*
X134235532Y-83407869D01*
X134235532Y-83407869D02*
X134224482Y-83579206D01*
X134224482Y-83579206D02*
X134189622Y-83709304D01*
X134189622Y-83709304D02*
X134130953Y-83798162D01*
X135807754Y-83654847D02*
X135312882Y-83940561D01*
X135560318Y-83797704D02*
X135060318Y-82931679D01*
X135060318Y-82931679D02*
X135049268Y-83103016D01*
X135049268Y-83103016D02*
X135014409Y-83233113D01*
X135014409Y-83233113D02*
X134955739Y-83321972D01*
X136220147Y-83416752D02*
X136385104Y-83321513D01*
X136385104Y-83321513D02*
X136443773Y-83232655D01*
X136443773Y-83232655D02*
X136461203Y-83167606D01*
X136461203Y-83167606D02*
X136472253Y-82996269D01*
X136472253Y-82996269D02*
X136418254Y-82807503D01*
X136418254Y-82807503D02*
X136227778Y-82477588D01*
X136227778Y-82477588D02*
X136138920Y-82418919D01*
X136138920Y-82418919D02*
X136073871Y-82401489D01*
X136073871Y-82401489D02*
X135967583Y-82407869D01*
X135967583Y-82407869D02*
X135802626Y-82503107D01*
X135802626Y-82503107D02*
X135743957Y-82591965D01*
X135743957Y-82591965D02*
X135726527Y-82657014D01*
X135726527Y-82657014D02*
X135732907Y-82763302D01*
X135732907Y-82763302D02*
X135851954Y-82969499D01*
X135851954Y-82969499D02*
X135940813Y-83028168D01*
X135940813Y-83028168D02*
X136005861Y-83045598D01*
X136005861Y-83045598D02*
X136112149Y-83039218D01*
X136112149Y-83039218D02*
X136277107Y-82943980D01*
X136277107Y-82943980D02*
X136335776Y-82855122D01*
X136335776Y-82855122D02*
X136353206Y-82790073D01*
X136353206Y-82790073D02*
X136346826Y-82683785D01*
X131930952Y-110763372D02*
X131883333Y-110810992D01*
X131883333Y-110810992D02*
X131740476Y-110858611D01*
X131740476Y-110858611D02*
X131645238Y-110858611D01*
X131645238Y-110858611D02*
X131502381Y-110810992D01*
X131502381Y-110810992D02*
X131407143Y-110715753D01*
X131407143Y-110715753D02*
X131359524Y-110620515D01*
X131359524Y-110620515D02*
X131311905Y-110430039D01*
X131311905Y-110430039D02*
X131311905Y-110287182D01*
X131311905Y-110287182D02*
X131359524Y-110096706D01*
X131359524Y-110096706D02*
X131407143Y-110001468D01*
X131407143Y-110001468D02*
X131502381Y-109906230D01*
X131502381Y-109906230D02*
X131645238Y-109858611D01*
X131645238Y-109858611D02*
X131740476Y-109858611D01*
X131740476Y-109858611D02*
X131883333Y-109906230D01*
X131883333Y-109906230D02*
X131930952Y-109953849D01*
X132883333Y-110858611D02*
X132311905Y-110858611D01*
X132597619Y-110858611D02*
X132597619Y-109858611D01*
X132597619Y-109858611D02*
X132502381Y-110001468D01*
X132502381Y-110001468D02*
X132407143Y-110096706D01*
X132407143Y-110096706D02*
X132311905Y-110144325D01*
X133835714Y-110858611D02*
X133264286Y-110858611D01*
X133550000Y-110858611D02*
X133550000Y-109858611D01*
X133550000Y-109858611D02*
X133454762Y-110001468D01*
X133454762Y-110001468D02*
X133359524Y-110096706D01*
X133359524Y-110096706D02*
X133264286Y-110144325D01*
X134407143Y-110287182D02*
X134311905Y-110239563D01*
X134311905Y-110239563D02*
X134264286Y-110191944D01*
X134264286Y-110191944D02*
X134216667Y-110096706D01*
X134216667Y-110096706D02*
X134216667Y-110049087D01*
X134216667Y-110049087D02*
X134264286Y-109953849D01*
X134264286Y-109953849D02*
X134311905Y-109906230D01*
X134311905Y-109906230D02*
X134407143Y-109858611D01*
X134407143Y-109858611D02*
X134597619Y-109858611D01*
X134597619Y-109858611D02*
X134692857Y-109906230D01*
X134692857Y-109906230D02*
X134740476Y-109953849D01*
X134740476Y-109953849D02*
X134788095Y-110049087D01*
X134788095Y-110049087D02*
X134788095Y-110096706D01*
X134788095Y-110096706D02*
X134740476Y-110191944D01*
X134740476Y-110191944D02*
X134692857Y-110239563D01*
X134692857Y-110239563D02*
X134597619Y-110287182D01*
X134597619Y-110287182D02*
X134407143Y-110287182D01*
X134407143Y-110287182D02*
X134311905Y-110334801D01*
X134311905Y-110334801D02*
X134264286Y-110382420D01*
X134264286Y-110382420D02*
X134216667Y-110477658D01*
X134216667Y-110477658D02*
X134216667Y-110668134D01*
X134216667Y-110668134D02*
X134264286Y-110763372D01*
X134264286Y-110763372D02*
X134311905Y-110810992D01*
X134311905Y-110810992D02*
X134407143Y-110858611D01*
X134407143Y-110858611D02*
X134597619Y-110858611D01*
X134597619Y-110858611D02*
X134692857Y-110810992D01*
X134692857Y-110810992D02*
X134740476Y-110763372D01*
X134740476Y-110763372D02*
X134788095Y-110668134D01*
X134788095Y-110668134D02*
X134788095Y-110477658D01*
X134788095Y-110477658D02*
X134740476Y-110382420D01*
X134740476Y-110382420D02*
X134692857Y-110334801D01*
X134692857Y-110334801D02*
X134597619Y-110287182D01*
X122780952Y-89434611D02*
X122447619Y-88958420D01*
X122209524Y-89434611D02*
X122209524Y-88434611D01*
X122209524Y-88434611D02*
X122590476Y-88434611D01*
X122590476Y-88434611D02*
X122685714Y-88482230D01*
X122685714Y-88482230D02*
X122733333Y-88529849D01*
X122733333Y-88529849D02*
X122780952Y-88625087D01*
X122780952Y-88625087D02*
X122780952Y-88767944D01*
X122780952Y-88767944D02*
X122733333Y-88863182D01*
X122733333Y-88863182D02*
X122685714Y-88910801D01*
X122685714Y-88910801D02*
X122590476Y-88958420D01*
X122590476Y-88958420D02*
X122209524Y-88958420D01*
X123733333Y-89434611D02*
X123161905Y-89434611D01*
X123447619Y-89434611D02*
X123447619Y-88434611D01*
X123447619Y-88434611D02*
X123352381Y-88577468D01*
X123352381Y-88577468D02*
X123257143Y-88672706D01*
X123257143Y-88672706D02*
X123161905Y-88720325D01*
X124352381Y-88434611D02*
X124447619Y-88434611D01*
X124447619Y-88434611D02*
X124542857Y-88482230D01*
X124542857Y-88482230D02*
X124590476Y-88529849D01*
X124590476Y-88529849D02*
X124638095Y-88625087D01*
X124638095Y-88625087D02*
X124685714Y-88815563D01*
X124685714Y-88815563D02*
X124685714Y-89053658D01*
X124685714Y-89053658D02*
X124638095Y-89244134D01*
X124638095Y-89244134D02*
X124590476Y-89339372D01*
X124590476Y-89339372D02*
X124542857Y-89386992D01*
X124542857Y-89386992D02*
X124447619Y-89434611D01*
X124447619Y-89434611D02*
X124352381Y-89434611D01*
X124352381Y-89434611D02*
X124257143Y-89386992D01*
X124257143Y-89386992D02*
X124209524Y-89339372D01*
X124209524Y-89339372D02*
X124161905Y-89244134D01*
X124161905Y-89244134D02*
X124114286Y-89053658D01*
X124114286Y-89053658D02*
X124114286Y-88815563D01*
X124114286Y-88815563D02*
X124161905Y-88625087D01*
X124161905Y-88625087D02*
X124209524Y-88529849D01*
X124209524Y-88529849D02*
X124257143Y-88482230D01*
X124257143Y-88482230D02*
X124352381Y-88434611D01*
X125019048Y-88434611D02*
X125638095Y-88434611D01*
X125638095Y-88434611D02*
X125304762Y-88815563D01*
X125304762Y-88815563D02*
X125447619Y-88815563D01*
X125447619Y-88815563D02*
X125542857Y-88863182D01*
X125542857Y-88863182D02*
X125590476Y-88910801D01*
X125590476Y-88910801D02*
X125638095Y-89006039D01*
X125638095Y-89006039D02*
X125638095Y-89244134D01*
X125638095Y-89244134D02*
X125590476Y-89339372D01*
X125590476Y-89339372D02*
X125542857Y-89386992D01*
X125542857Y-89386992D02*
X125447619Y-89434611D01*
X125447619Y-89434611D02*
X125161905Y-89434611D01*
X125161905Y-89434611D02*
X125066667Y-89386992D01*
X125066667Y-89386992D02*
X125019048Y-89339372D01*
X149130952Y-97685411D02*
X148797619Y-97209220D01*
X148559524Y-97685411D02*
X148559524Y-96685411D01*
X148559524Y-96685411D02*
X148940476Y-96685411D01*
X148940476Y-96685411D02*
X149035714Y-96733030D01*
X149035714Y-96733030D02*
X149083333Y-96780649D01*
X149083333Y-96780649D02*
X149130952Y-96875887D01*
X149130952Y-96875887D02*
X149130952Y-97018744D01*
X149130952Y-97018744D02*
X149083333Y-97113982D01*
X149083333Y-97113982D02*
X149035714Y-97161601D01*
X149035714Y-97161601D02*
X148940476Y-97209220D01*
X148940476Y-97209220D02*
X148559524Y-97209220D01*
X150083333Y-97685411D02*
X149511905Y-97685411D01*
X149797619Y-97685411D02*
X149797619Y-96685411D01*
X149797619Y-96685411D02*
X149702381Y-96828268D01*
X149702381Y-96828268D02*
X149607143Y-96923506D01*
X149607143Y-96923506D02*
X149511905Y-96971125D01*
X151035714Y-97685411D02*
X150464286Y-97685411D01*
X150750000Y-97685411D02*
X150750000Y-96685411D01*
X150750000Y-96685411D02*
X150654762Y-96828268D01*
X150654762Y-96828268D02*
X150559524Y-96923506D01*
X150559524Y-96923506D02*
X150464286Y-96971125D01*
X151416667Y-96780649D02*
X151464286Y-96733030D01*
X151464286Y-96733030D02*
X151559524Y-96685411D01*
X151559524Y-96685411D02*
X151797619Y-96685411D01*
X151797619Y-96685411D02*
X151892857Y-96733030D01*
X151892857Y-96733030D02*
X151940476Y-96780649D01*
X151940476Y-96780649D02*
X151988095Y-96875887D01*
X151988095Y-96875887D02*
X151988095Y-96971125D01*
X151988095Y-96971125D02*
X151940476Y-97113982D01*
X151940476Y-97113982D02*
X151369048Y-97685411D01*
X151369048Y-97685411D02*
X151988095Y-97685411D01*
X147462829Y-118249400D02*
X147462829Y-118316744D01*
X147462829Y-118316744D02*
X147395485Y-118451431D01*
X147395485Y-118451431D02*
X147328142Y-118518774D01*
X147328142Y-118518774D02*
X147193455Y-118586118D01*
X147193455Y-118586118D02*
X147058768Y-118586118D01*
X147058768Y-118586118D02*
X146957752Y-118552446D01*
X146957752Y-118552446D02*
X146789394Y-118451431D01*
X146789394Y-118451431D02*
X146688378Y-118350416D01*
X146688378Y-118350416D02*
X146587363Y-118182057D01*
X146587363Y-118182057D02*
X146553691Y-118081042D01*
X146553691Y-118081042D02*
X146553691Y-117946355D01*
X146553691Y-117946355D02*
X146621035Y-117811668D01*
X146621035Y-117811668D02*
X146688378Y-117744324D01*
X146688378Y-117744324D02*
X146823065Y-117676981D01*
X146823065Y-117676981D02*
X146890409Y-117676981D01*
X148203607Y-117643309D02*
X147799546Y-118047370D01*
X148001577Y-117845339D02*
X147294470Y-117138233D01*
X147294470Y-117138233D02*
X147328142Y-117306591D01*
X147328142Y-117306591D02*
X147328142Y-117441278D01*
X147328142Y-117441278D02*
X147294470Y-117542294D01*
X147934233Y-116498469D02*
X148001577Y-116431126D01*
X148001577Y-116431126D02*
X148102592Y-116397454D01*
X148102592Y-116397454D02*
X148169936Y-116397454D01*
X148169936Y-116397454D02*
X148270951Y-116431126D01*
X148270951Y-116431126D02*
X148439310Y-116532141D01*
X148439310Y-116532141D02*
X148607668Y-116700500D01*
X148607668Y-116700500D02*
X148708684Y-116868859D01*
X148708684Y-116868859D02*
X148742355Y-116969874D01*
X148742355Y-116969874D02*
X148742355Y-117037217D01*
X148742355Y-117037217D02*
X148708684Y-117138233D01*
X148708684Y-117138233D02*
X148641340Y-117205576D01*
X148641340Y-117205576D02*
X148540325Y-117239248D01*
X148540325Y-117239248D02*
X148472981Y-117239248D01*
X148472981Y-117239248D02*
X148371966Y-117205576D01*
X148371966Y-117205576D02*
X148203607Y-117104561D01*
X148203607Y-117104561D02*
X148035249Y-116936202D01*
X148035249Y-116936202D02*
X147934233Y-116767843D01*
X147934233Y-116767843D02*
X147900561Y-116666828D01*
X147900561Y-116666828D02*
X147900561Y-116599485D01*
X147900561Y-116599485D02*
X147934233Y-116498469D01*
X149550477Y-116296439D02*
X149146416Y-116700500D01*
X149348447Y-116498469D02*
X148641340Y-115791362D01*
X148641340Y-115791362D02*
X148675012Y-115959721D01*
X148675012Y-115959721D02*
X148675012Y-116094408D01*
X148675012Y-116094408D02*
X148641340Y-116195424D01*
X147383733Y-92284847D02*
X147431353Y-92332466D01*
X147431353Y-92332466D02*
X147478972Y-92475323D01*
X147478972Y-92475323D02*
X147478972Y-92570561D01*
X147478972Y-92570561D02*
X147431353Y-92713418D01*
X147431353Y-92713418D02*
X147336114Y-92808656D01*
X147336114Y-92808656D02*
X147240876Y-92856275D01*
X147240876Y-92856275D02*
X147050400Y-92903894D01*
X147050400Y-92903894D02*
X146907543Y-92903894D01*
X146907543Y-92903894D02*
X146717067Y-92856275D01*
X146717067Y-92856275D02*
X146621829Y-92808656D01*
X146621829Y-92808656D02*
X146526591Y-92713418D01*
X146526591Y-92713418D02*
X146478972Y-92570561D01*
X146478972Y-92570561D02*
X146478972Y-92475323D01*
X146478972Y-92475323D02*
X146526591Y-92332466D01*
X146526591Y-92332466D02*
X146574210Y-92284847D01*
X147478972Y-91332466D02*
X147478972Y-91903894D01*
X147478972Y-91618180D02*
X146478972Y-91618180D01*
X146478972Y-91618180D02*
X146621829Y-91713418D01*
X146621829Y-91713418D02*
X146717067Y-91808656D01*
X146717067Y-91808656D02*
X146764686Y-91903894D01*
X147478972Y-90380085D02*
X147478972Y-90951513D01*
X147478972Y-90665799D02*
X146478972Y-90665799D01*
X146478972Y-90665799D02*
X146621829Y-90761037D01*
X146621829Y-90761037D02*
X146717067Y-90856275D01*
X146717067Y-90856275D02*
X146764686Y-90951513D01*
X147478972Y-89427704D02*
X147478972Y-89999132D01*
X147478972Y-89713418D02*
X146478972Y-89713418D01*
X146478972Y-89713418D02*
X146621829Y-89808656D01*
X146621829Y-89808656D02*
X146717067Y-89903894D01*
X146717067Y-89903894D02*
X146764686Y-89999132D01*
X130154611Y-125873047D02*
X129678420Y-126206380D01*
X130154611Y-126444475D02*
X129154611Y-126444475D01*
X129154611Y-126444475D02*
X129154611Y-126063523D01*
X129154611Y-126063523D02*
X129202230Y-125968285D01*
X129202230Y-125968285D02*
X129249849Y-125920666D01*
X129249849Y-125920666D02*
X129345087Y-125873047D01*
X129345087Y-125873047D02*
X129487944Y-125873047D01*
X129487944Y-125873047D02*
X129583182Y-125920666D01*
X129583182Y-125920666D02*
X129630801Y-125968285D01*
X129630801Y-125968285D02*
X129678420Y-126063523D01*
X129678420Y-126063523D02*
X129678420Y-126444475D01*
X130154611Y-124920666D02*
X130154611Y-125492094D01*
X130154611Y-125206380D02*
X129154611Y-125206380D01*
X129154611Y-125206380D02*
X129297468Y-125301618D01*
X129297468Y-125301618D02*
X129392706Y-125396856D01*
X129392706Y-125396856D02*
X129440325Y-125492094D01*
X129154611Y-124301618D02*
X129154611Y-124206380D01*
X129154611Y-124206380D02*
X129202230Y-124111142D01*
X129202230Y-124111142D02*
X129249849Y-124063523D01*
X129249849Y-124063523D02*
X129345087Y-124015904D01*
X129345087Y-124015904D02*
X129535563Y-123968285D01*
X129535563Y-123968285D02*
X129773658Y-123968285D01*
X129773658Y-123968285D02*
X129964134Y-124015904D01*
X129964134Y-124015904D02*
X130059372Y-124063523D01*
X130059372Y-124063523D02*
X130106992Y-124111142D01*
X130106992Y-124111142D02*
X130154611Y-124206380D01*
X130154611Y-124206380D02*
X130154611Y-124301618D01*
X130154611Y-124301618D02*
X130106992Y-124396856D01*
X130106992Y-124396856D02*
X130059372Y-124444475D01*
X130059372Y-124444475D02*
X129964134Y-124492094D01*
X129964134Y-124492094D02*
X129773658Y-124539713D01*
X129773658Y-124539713D02*
X129535563Y-124539713D01*
X129535563Y-124539713D02*
X129345087Y-124492094D01*
X129345087Y-124492094D02*
X129249849Y-124444475D01*
X129249849Y-124444475D02*
X129202230Y-124396856D01*
X129202230Y-124396856D02*
X129154611Y-124301618D01*
X130154611Y-123015904D02*
X130154611Y-123587332D01*
X130154611Y-123301618D02*
X129154611Y-123301618D01*
X129154611Y-123301618D02*
X129297468Y-123396856D01*
X129297468Y-123396856D02*
X129392706Y-123492094D01*
X129392706Y-123492094D02*
X129440325Y-123587332D01*
X142080952Y-120054611D02*
X141747619Y-119578420D01*
X141509524Y-120054611D02*
X141509524Y-119054611D01*
X141509524Y-119054611D02*
X141890476Y-119054611D01*
X141890476Y-119054611D02*
X141985714Y-119102230D01*
X141985714Y-119102230D02*
X142033333Y-119149849D01*
X142033333Y-119149849D02*
X142080952Y-119245087D01*
X142080952Y-119245087D02*
X142080952Y-119387944D01*
X142080952Y-119387944D02*
X142033333Y-119483182D01*
X142033333Y-119483182D02*
X141985714Y-119530801D01*
X141985714Y-119530801D02*
X141890476Y-119578420D01*
X141890476Y-119578420D02*
X141509524Y-119578420D01*
X143033333Y-120054611D02*
X142461905Y-120054611D01*
X142747619Y-120054611D02*
X142747619Y-119054611D01*
X142747619Y-119054611D02*
X142652381Y-119197468D01*
X142652381Y-119197468D02*
X142557143Y-119292706D01*
X142557143Y-119292706D02*
X142461905Y-119340325D01*
X143366667Y-119054611D02*
X143985714Y-119054611D01*
X143985714Y-119054611D02*
X143652381Y-119435563D01*
X143652381Y-119435563D02*
X143795238Y-119435563D01*
X143795238Y-119435563D02*
X143890476Y-119483182D01*
X143890476Y-119483182D02*
X143938095Y-119530801D01*
X143938095Y-119530801D02*
X143985714Y-119626039D01*
X143985714Y-119626039D02*
X143985714Y-119864134D01*
X143985714Y-119864134D02*
X143938095Y-119959372D01*
X143938095Y-119959372D02*
X143890476Y-120006992D01*
X143890476Y-120006992D02*
X143795238Y-120054611D01*
X143795238Y-120054611D02*
X143509524Y-120054611D01*
X143509524Y-120054611D02*
X143414286Y-120006992D01*
X143414286Y-120006992D02*
X143366667Y-119959372D01*
X144842857Y-119054611D02*
X144652381Y-119054611D01*
X144652381Y-119054611D02*
X144557143Y-119102230D01*
X144557143Y-119102230D02*
X144509524Y-119149849D01*
X144509524Y-119149849D02*
X144414286Y-119292706D01*
X144414286Y-119292706D02*
X144366667Y-119483182D01*
X144366667Y-119483182D02*
X144366667Y-119864134D01*
X144366667Y-119864134D02*
X144414286Y-119959372D01*
X144414286Y-119959372D02*
X144461905Y-120006992D01*
X144461905Y-120006992D02*
X144557143Y-120054611D01*
X144557143Y-120054611D02*
X144747619Y-120054611D01*
X144747619Y-120054611D02*
X144842857Y-120006992D01*
X144842857Y-120006992D02*
X144890476Y-119959372D01*
X144890476Y-119959372D02*
X144938095Y-119864134D01*
X144938095Y-119864134D02*
X144938095Y-119626039D01*
X144938095Y-119626039D02*
X144890476Y-119530801D01*
X144890476Y-119530801D02*
X144842857Y-119483182D01*
X144842857Y-119483182D02*
X144747619Y-119435563D01*
X144747619Y-119435563D02*
X144557143Y-119435563D01*
X144557143Y-119435563D02*
X144461905Y-119483182D01*
X144461905Y-119483182D02*
X144414286Y-119530801D01*
X144414286Y-119530801D02*
X144366667Y-119626039D01*
X158530952Y-99544611D02*
X158197619Y-99068420D01*
X157959524Y-99544611D02*
X157959524Y-98544611D01*
X157959524Y-98544611D02*
X158340476Y-98544611D01*
X158340476Y-98544611D02*
X158435714Y-98592230D01*
X158435714Y-98592230D02*
X158483333Y-98639849D01*
X158483333Y-98639849D02*
X158530952Y-98735087D01*
X158530952Y-98735087D02*
X158530952Y-98877944D01*
X158530952Y-98877944D02*
X158483333Y-98973182D01*
X158483333Y-98973182D02*
X158435714Y-99020801D01*
X158435714Y-99020801D02*
X158340476Y-99068420D01*
X158340476Y-99068420D02*
X157959524Y-99068420D01*
X159483333Y-99544611D02*
X158911905Y-99544611D01*
X159197619Y-99544611D02*
X159197619Y-98544611D01*
X159197619Y-98544611D02*
X159102381Y-98687468D01*
X159102381Y-98687468D02*
X159007143Y-98782706D01*
X159007143Y-98782706D02*
X158911905Y-98830325D01*
X160435714Y-99544611D02*
X159864286Y-99544611D01*
X160150000Y-99544611D02*
X160150000Y-98544611D01*
X160150000Y-98544611D02*
X160054762Y-98687468D01*
X160054762Y-98687468D02*
X159959524Y-98782706D01*
X159959524Y-98782706D02*
X159864286Y-98830325D01*
X160769048Y-98544611D02*
X161435714Y-98544611D01*
X161435714Y-98544611D02*
X161007143Y-99544611D01*
X141530952Y-78363372D02*
X141483333Y-78410992D01*
X141483333Y-78410992D02*
X141340476Y-78458611D01*
X141340476Y-78458611D02*
X141245238Y-78458611D01*
X141245238Y-78458611D02*
X141102381Y-78410992D01*
X141102381Y-78410992D02*
X141007143Y-78315753D01*
X141007143Y-78315753D02*
X140959524Y-78220515D01*
X140959524Y-78220515D02*
X140911905Y-78030039D01*
X140911905Y-78030039D02*
X140911905Y-77887182D01*
X140911905Y-77887182D02*
X140959524Y-77696706D01*
X140959524Y-77696706D02*
X141007143Y-77601468D01*
X141007143Y-77601468D02*
X141102381Y-77506230D01*
X141102381Y-77506230D02*
X141245238Y-77458611D01*
X141245238Y-77458611D02*
X141340476Y-77458611D01*
X141340476Y-77458611D02*
X141483333Y-77506230D01*
X141483333Y-77506230D02*
X141530952Y-77553849D01*
X142483333Y-78458611D02*
X141911905Y-78458611D01*
X142197619Y-78458611D02*
X142197619Y-77458611D01*
X142197619Y-77458611D02*
X142102381Y-77601468D01*
X142102381Y-77601468D02*
X142007143Y-77696706D01*
X142007143Y-77696706D02*
X141911905Y-77744325D01*
X142864286Y-77553849D02*
X142911905Y-77506230D01*
X142911905Y-77506230D02*
X143007143Y-77458611D01*
X143007143Y-77458611D02*
X143245238Y-77458611D01*
X143245238Y-77458611D02*
X143340476Y-77506230D01*
X143340476Y-77506230D02*
X143388095Y-77553849D01*
X143388095Y-77553849D02*
X143435714Y-77649087D01*
X143435714Y-77649087D02*
X143435714Y-77744325D01*
X143435714Y-77744325D02*
X143388095Y-77887182D01*
X143388095Y-77887182D02*
X142816667Y-78458611D01*
X142816667Y-78458611D02*
X143435714Y-78458611D01*
X143816667Y-77553849D02*
X143864286Y-77506230D01*
X143864286Y-77506230D02*
X143959524Y-77458611D01*
X143959524Y-77458611D02*
X144197619Y-77458611D01*
X144197619Y-77458611D02*
X144292857Y-77506230D01*
X144292857Y-77506230D02*
X144340476Y-77553849D01*
X144340476Y-77553849D02*
X144388095Y-77649087D01*
X144388095Y-77649087D02*
X144388095Y-77744325D01*
X144388095Y-77744325D02*
X144340476Y-77887182D01*
X144340476Y-77887182D02*
X143769048Y-78458611D01*
X143769048Y-78458611D02*
X144388095Y-78458611D01*
X158380952Y-109754611D02*
X158047619Y-109278420D01*
X157809524Y-109754611D02*
X157809524Y-108754611D01*
X157809524Y-108754611D02*
X158190476Y-108754611D01*
X158190476Y-108754611D02*
X158285714Y-108802230D01*
X158285714Y-108802230D02*
X158333333Y-108849849D01*
X158333333Y-108849849D02*
X158380952Y-108945087D01*
X158380952Y-108945087D02*
X158380952Y-109087944D01*
X158380952Y-109087944D02*
X158333333Y-109183182D01*
X158333333Y-109183182D02*
X158285714Y-109230801D01*
X158285714Y-109230801D02*
X158190476Y-109278420D01*
X158190476Y-109278420D02*
X157809524Y-109278420D01*
X159333333Y-109754611D02*
X158761905Y-109754611D01*
X159047619Y-109754611D02*
X159047619Y-108754611D01*
X159047619Y-108754611D02*
X158952381Y-108897468D01*
X158952381Y-108897468D02*
X158857143Y-108992706D01*
X158857143Y-108992706D02*
X158761905Y-109040325D01*
X160285714Y-109754611D02*
X159714286Y-109754611D01*
X160000000Y-109754611D02*
X160000000Y-108754611D01*
X160000000Y-108754611D02*
X159904762Y-108897468D01*
X159904762Y-108897468D02*
X159809524Y-108992706D01*
X159809524Y-108992706D02*
X159714286Y-109040325D01*
X160619048Y-108754611D02*
X161238095Y-108754611D01*
X161238095Y-108754611D02*
X160904762Y-109135563D01*
X160904762Y-109135563D02*
X161047619Y-109135563D01*
X161047619Y-109135563D02*
X161142857Y-109183182D01*
X161142857Y-109183182D02*
X161190476Y-109230801D01*
X161190476Y-109230801D02*
X161238095Y-109326039D01*
X161238095Y-109326039D02*
X161238095Y-109564134D01*
X161238095Y-109564134D02*
X161190476Y-109659372D01*
X161190476Y-109659372D02*
X161142857Y-109706992D01*
X161142857Y-109706992D02*
X161047619Y-109754611D01*
X161047619Y-109754611D02*
X160761905Y-109754611D01*
X160761905Y-109754611D02*
X160666667Y-109706992D01*
X160666667Y-109706992D02*
X160619048Y-109659372D01*
X130980952Y-119059372D02*
X130933333Y-119106992D01*
X130933333Y-119106992D02*
X130790476Y-119154611D01*
X130790476Y-119154611D02*
X130695238Y-119154611D01*
X130695238Y-119154611D02*
X130552381Y-119106992D01*
X130552381Y-119106992D02*
X130457143Y-119011753D01*
X130457143Y-119011753D02*
X130409524Y-118916515D01*
X130409524Y-118916515D02*
X130361905Y-118726039D01*
X130361905Y-118726039D02*
X130361905Y-118583182D01*
X130361905Y-118583182D02*
X130409524Y-118392706D01*
X130409524Y-118392706D02*
X130457143Y-118297468D01*
X130457143Y-118297468D02*
X130552381Y-118202230D01*
X130552381Y-118202230D02*
X130695238Y-118154611D01*
X130695238Y-118154611D02*
X130790476Y-118154611D01*
X130790476Y-118154611D02*
X130933333Y-118202230D01*
X130933333Y-118202230D02*
X130980952Y-118249849D01*
X131933333Y-119154611D02*
X131361905Y-119154611D01*
X131647619Y-119154611D02*
X131647619Y-118154611D01*
X131647619Y-118154611D02*
X131552381Y-118297468D01*
X131552381Y-118297468D02*
X131457143Y-118392706D01*
X131457143Y-118392706D02*
X131361905Y-118440325D01*
X132314286Y-118249849D02*
X132361905Y-118202230D01*
X132361905Y-118202230D02*
X132457143Y-118154611D01*
X132457143Y-118154611D02*
X132695238Y-118154611D01*
X132695238Y-118154611D02*
X132790476Y-118202230D01*
X132790476Y-118202230D02*
X132838095Y-118249849D01*
X132838095Y-118249849D02*
X132885714Y-118345087D01*
X132885714Y-118345087D02*
X132885714Y-118440325D01*
X132885714Y-118440325D02*
X132838095Y-118583182D01*
X132838095Y-118583182D02*
X132266667Y-119154611D01*
X132266667Y-119154611D02*
X132885714Y-119154611D01*
X133838095Y-119154611D02*
X133266667Y-119154611D01*
X133552381Y-119154611D02*
X133552381Y-118154611D01*
X133552381Y-118154611D02*
X133457143Y-118297468D01*
X133457143Y-118297468D02*
X133361905Y-118392706D01*
X133361905Y-118392706D02*
X133266667Y-118440325D01*
D11*
X118978095Y-74520819D02*
X119644761Y-75520819D01*
X119644761Y-74520819D02*
X118978095Y-75520819D01*
X119978095Y-74616057D02*
X120025714Y-74568438D01*
X120025714Y-74568438D02*
X120120952Y-74520819D01*
X120120952Y-74520819D02*
X120359047Y-74520819D01*
X120359047Y-74520819D02*
X120454285Y-74568438D01*
X120454285Y-74568438D02*
X120501904Y-74616057D01*
X120501904Y-74616057D02*
X120549523Y-74711295D01*
X120549523Y-74711295D02*
X120549523Y-74806533D01*
X120549523Y-74806533D02*
X120501904Y-74949390D01*
X120501904Y-74949390D02*
X119930476Y-75520819D01*
X119930476Y-75520819D02*
X120549523Y-75520819D01*
X121168571Y-74520819D02*
X121263809Y-74520819D01*
X121263809Y-74520819D02*
X121359047Y-74568438D01*
X121359047Y-74568438D02*
X121406666Y-74616057D01*
X121406666Y-74616057D02*
X121454285Y-74711295D01*
X121454285Y-74711295D02*
X121501904Y-74901771D01*
X121501904Y-74901771D02*
X121501904Y-75139866D01*
X121501904Y-75139866D02*
X121454285Y-75330342D01*
X121454285Y-75330342D02*
X121406666Y-75425580D01*
X121406666Y-75425580D02*
X121359047Y-75473200D01*
X121359047Y-75473200D02*
X121263809Y-75520819D01*
X121263809Y-75520819D02*
X121168571Y-75520819D01*
X121168571Y-75520819D02*
X121073333Y-75473200D01*
X121073333Y-75473200D02*
X121025714Y-75425580D01*
X121025714Y-75425580D02*
X120978095Y-75330342D01*
X120978095Y-75330342D02*
X120930476Y-75139866D01*
X120930476Y-75139866D02*
X120930476Y-74901771D01*
X120930476Y-74901771D02*
X120978095Y-74711295D01*
X120978095Y-74711295D02*
X121025714Y-74616057D01*
X121025714Y-74616057D02*
X121073333Y-74568438D01*
X121073333Y-74568438D02*
X121168571Y-74520819D01*
X122454285Y-75520819D02*
X121882857Y-75520819D01*
X122168571Y-75520819D02*
X122168571Y-74520819D01*
X122168571Y-74520819D02*
X122073333Y-74663676D01*
X122073333Y-74663676D02*
X121978095Y-74758914D01*
X121978095Y-74758914D02*
X121882857Y-74806533D01*
X166764819Y-127305904D02*
X167764819Y-126639238D01*
X166764819Y-126639238D02*
X167764819Y-127305904D01*
X166860057Y-126305904D02*
X166812438Y-126258285D01*
X166812438Y-126258285D02*
X166764819Y-126163047D01*
X166764819Y-126163047D02*
X166764819Y-125924952D01*
X166764819Y-125924952D02*
X166812438Y-125829714D01*
X166812438Y-125829714D02*
X166860057Y-125782095D01*
X166860057Y-125782095D02*
X166955295Y-125734476D01*
X166955295Y-125734476D02*
X167050533Y-125734476D01*
X167050533Y-125734476D02*
X167193390Y-125782095D01*
X167193390Y-125782095D02*
X167764819Y-126353523D01*
X167764819Y-126353523D02*
X167764819Y-125734476D01*
X166764819Y-125115428D02*
X166764819Y-125020190D01*
X166764819Y-125020190D02*
X166812438Y-124924952D01*
X166812438Y-124924952D02*
X166860057Y-124877333D01*
X166860057Y-124877333D02*
X166955295Y-124829714D01*
X166955295Y-124829714D02*
X167145771Y-124782095D01*
X167145771Y-124782095D02*
X167383866Y-124782095D01*
X167383866Y-124782095D02*
X167574342Y-124829714D01*
X167574342Y-124829714D02*
X167669580Y-124877333D01*
X167669580Y-124877333D02*
X167717200Y-124924952D01*
X167717200Y-124924952D02*
X167764819Y-125020190D01*
X167764819Y-125020190D02*
X167764819Y-125115428D01*
X167764819Y-125115428D02*
X167717200Y-125210666D01*
X167717200Y-125210666D02*
X167669580Y-125258285D01*
X167669580Y-125258285D02*
X167574342Y-125305904D01*
X167574342Y-125305904D02*
X167383866Y-125353523D01*
X167383866Y-125353523D02*
X167145771Y-125353523D01*
X167145771Y-125353523D02*
X166955295Y-125305904D01*
X166955295Y-125305904D02*
X166860057Y-125258285D01*
X166860057Y-125258285D02*
X166812438Y-125210666D01*
X166812438Y-125210666D02*
X166764819Y-125115428D01*
X166860057Y-124401142D02*
X166812438Y-124353523D01*
X166812438Y-124353523D02*
X166764819Y-124258285D01*
X166764819Y-124258285D02*
X166764819Y-124020190D01*
X166764819Y-124020190D02*
X166812438Y-123924952D01*
X166812438Y-123924952D02*
X166860057Y-123877333D01*
X166860057Y-123877333D02*
X166955295Y-123829714D01*
X166955295Y-123829714D02*
X167050533Y-123829714D01*
X167050533Y-123829714D02*
X167193390Y-123877333D01*
X167193390Y-123877333D02*
X167764819Y-124448761D01*
X167764819Y-124448761D02*
X167764819Y-123829714D01*
D10*
%TO.C,R140*%
X153100000Y-79165800D02*
X153100000Y-78765800D01*
X154000000Y-78765800D02*
X154000000Y-79165800D01*
%TO.C,H140*%
X153100000Y-75265800D02*
X153100000Y-74865800D01*
X153350000Y-75265800D02*
X153550000Y-74915800D01*
X153550000Y-75265800D02*
X153550000Y-74865800D01*
X153750000Y-75265800D02*
X153350000Y-75265800D01*
X153750000Y-75265800D02*
X153550000Y-74915800D01*
X153750000Y-74865800D02*
X153350000Y-74865800D01*
X154000000Y-74865800D02*
X154000000Y-75265800D01*
%TO.C,C102*%
X153159365Y-110531030D02*
X152876523Y-110813872D01*
X152240127Y-110177476D02*
X152522969Y-109894634D01*
%TO.C,R124*%
X124100000Y-121100000D02*
X123700000Y-121100000D01*
X123700000Y-120200000D02*
X124100000Y-120200000D01*
%TO.C,D101*%
X133263200Y-73529000D02*
X133263200Y-73682400D01*
X131513200Y-73529000D02*
X133263200Y-73529000D01*
X131513200Y-73529000D02*
X131513200Y-73682400D01*
X133263200Y-74520600D02*
X133263200Y-75587400D01*
X131513200Y-74647600D02*
X131513200Y-74520600D01*
X131499200Y-75587400D02*
X131499200Y-75460400D01*
X133263200Y-76425600D02*
X133263200Y-76579000D01*
X131513200Y-76425600D02*
X131513200Y-76579000D01*
X133263200Y-76579000D02*
X131513200Y-76579000D01*
X132243151Y-74004000D02*
G75*
G03*
X132243151Y-74004000I-254951J0D01*
G01*
%TO.C,R114*%
X160220000Y-105860000D02*
X159820000Y-105860000D01*
X159820000Y-104960000D02*
X160220000Y-104960000D01*
%TO.C,R131*%
X139800000Y-82654000D02*
X139800000Y-83054000D01*
X138900000Y-83054000D02*
X138900000Y-82654000D01*
%TO.C,R132*%
X125888200Y-80554000D02*
X125488200Y-80554000D01*
X125488200Y-79654000D02*
X125888200Y-79654000D01*
%TO.C,R115*%
X159850000Y-100780000D02*
X159450000Y-100780000D01*
X159450000Y-99880000D02*
X159850000Y-99880000D01*
%TO.C,R105*%
X123700000Y-102420000D02*
X124100000Y-102420000D01*
X124100000Y-103320000D02*
X123700000Y-103320000D01*
%TO.C,C115*%
X155311800Y-121079001D02*
X155711800Y-121079001D01*
X155711800Y-121979001D02*
X155311800Y-121979001D01*
%TO.C,R123*%
X124100000Y-118560000D02*
X123700000Y-118560000D01*
X123700000Y-117660000D02*
X124100000Y-117660000D01*
%TO.C,R116*%
X149389008Y-101704000D02*
X149389008Y-102104000D01*
X148489008Y-102104000D02*
X148489008Y-101704000D01*
%TO.C,R121*%
X145240381Y-87227223D02*
X145523223Y-86944381D01*
X146159619Y-87580777D02*
X145876777Y-87863619D01*
%TO.C,C106*%
X129050000Y-98104000D02*
X129050000Y-97704000D01*
X129950000Y-97704000D02*
X129950000Y-98104000D01*
D11*
%TO.C,L101*%
X137036800Y-111704000D02*
X137036800Y-112304000D01*
X135636800Y-112304000D02*
X135636800Y-111704000D01*
D10*
%TO.C,R127*%
X159350000Y-112580000D02*
X159750000Y-112580000D01*
X159750000Y-113480000D02*
X159350000Y-113480000D01*
%TO.C,R102*%
X123700000Y-94800000D02*
X124100000Y-94800000D01*
X124100000Y-95700000D02*
X123700000Y-95700000D01*
%TO.C,R104*%
X123700000Y-97340000D02*
X124100000Y-97340000D01*
X124100000Y-98240000D02*
X123700000Y-98240000D01*
%TO.C,R109*%
X123700000Y-89720000D02*
X124100000Y-89720000D01*
X124100000Y-90620000D02*
X123700000Y-90620000D01*
%TO.C,C112*%
X135500000Y-87954000D02*
X135900000Y-87954000D01*
X135900000Y-88854000D02*
X135500000Y-88854000D01*
%TO.C,R118*%
X159450000Y-92260000D02*
X159850000Y-92260000D01*
X159850000Y-93160000D02*
X159450000Y-93160000D01*
%TO.C,RESET0*%
X144400000Y-127000000D02*
X146200000Y-127000000D01*
X146200000Y-127000000D02*
X146200000Y-123200000D01*
X146200000Y-123200000D02*
X144400000Y-123200000D01*
X144400000Y-123200000D02*
X144400000Y-127000000D01*
%TO.C,R106*%
X123700000Y-104960000D02*
X124100000Y-104960000D01*
X124100000Y-105860000D02*
X123700000Y-105860000D01*
%TO.C,C116*%
X131000000Y-106254000D02*
X131000000Y-105854000D01*
X131900000Y-105854000D02*
X131900000Y-106254000D01*
%TO.C,C120*%
X135375000Y-114847400D02*
X135775000Y-114847400D01*
X135775000Y-115747400D02*
X135375000Y-115747400D01*
%TO.C,U104*%
X134088200Y-77254000D02*
X130438200Y-77254000D01*
X134088200Y-77604000D02*
X134088200Y-77254000D01*
X130088200Y-77604000D02*
X130438200Y-77254000D01*
X134088200Y-78854000D02*
X134088200Y-78404000D01*
X130088200Y-78854000D02*
X130088200Y-78404000D01*
X134088200Y-80129000D02*
X134088200Y-79679000D01*
X130088200Y-80129000D02*
X130088200Y-79679000D01*
X134088200Y-81404000D02*
X134088200Y-80954000D01*
X130088200Y-81404000D02*
X130088200Y-80954000D01*
X134088200Y-82404000D02*
X134088200Y-82204000D01*
X134088200Y-82404000D02*
X130088200Y-82404000D01*
X130088200Y-82404000D02*
X130088200Y-82204000D01*
X131371043Y-77904000D02*
G75*
G03*
X131371043Y-77904000I-282843J0D01*
G01*
%TO.C,R119*%
X159450000Y-89720000D02*
X159850000Y-89720000D01*
X159850000Y-90620000D02*
X159450000Y-90620000D01*
D11*
%TO.C,C124*%
X124200000Y-78104000D02*
X123600000Y-78104000D01*
X123600000Y-76704000D02*
X124200000Y-76704000D01*
D10*
%TO.C,R122*%
X144090381Y-86077223D02*
X144373223Y-85794381D01*
X145009619Y-86430777D02*
X144726777Y-86713619D01*
%TO.C,R134*%
X131588200Y-84454000D02*
X131188200Y-84454000D01*
X131188200Y-83554000D02*
X131588200Y-83554000D01*
%TO.C,C105*%
X127250000Y-97604000D02*
X127250000Y-97204000D01*
X128150000Y-97204000D02*
X128150000Y-97604000D01*
%TO.C,R133*%
X126976400Y-82254000D02*
X126976400Y-82654000D01*
X126076400Y-82654000D02*
X126076400Y-82254000D01*
%TO.C,R120*%
X159500000Y-84640000D02*
X159900000Y-84640000D01*
X159900000Y-85540000D02*
X159500000Y-85540000D01*
%TO.C,U103*%
X154150001Y-122479000D02*
X150500001Y-122479000D01*
X154150001Y-122829000D02*
X154150001Y-122479000D01*
X150150001Y-122829000D02*
X150500001Y-122479000D01*
X154150001Y-124079000D02*
X154150001Y-123629000D01*
X150150001Y-124079000D02*
X150150001Y-123629000D01*
X154150001Y-125354000D02*
X154150001Y-124904000D01*
X150150001Y-125354000D02*
X150150001Y-124904000D01*
X154150001Y-126629000D02*
X154150001Y-126179000D01*
X150150001Y-126629000D02*
X150150001Y-126179000D01*
X154150001Y-127629000D02*
X154150001Y-127429000D01*
X154150001Y-127629000D02*
X150150001Y-127629000D01*
X150150001Y-127629000D02*
X150150001Y-127429000D01*
X151432844Y-123129000D02*
G75*
G03*
X151432844Y-123129000I-282843J0D01*
G01*
%TO.C,R129*%
X137700000Y-76504000D02*
X137300000Y-76504000D01*
X137300000Y-75604000D02*
X137700000Y-75604000D01*
%TO.C,R107*%
X123700000Y-110040000D02*
X124100000Y-110040000D01*
X124100000Y-110940000D02*
X123700000Y-110940000D01*
%TO.C,H141*%
X149100000Y-75265800D02*
X149100000Y-74865800D01*
X149350000Y-75265800D02*
X149550000Y-74915800D01*
X149550000Y-75265800D02*
X149550000Y-74865800D01*
X149750000Y-75265800D02*
X149350000Y-75265800D01*
X149750000Y-75265800D02*
X149550000Y-74915800D01*
X149750000Y-74865800D02*
X149350000Y-74865800D01*
X150000000Y-74865800D02*
X150000000Y-75265800D01*
%TO.C,R135*%
X122750000Y-80460000D02*
X122350000Y-80460000D01*
X122350000Y-79560000D02*
X122750000Y-79560000D01*
%TO.C,C109*%
X128150000Y-102954000D02*
X128150000Y-102554000D01*
X129050000Y-102554000D02*
X129050000Y-102954000D01*
%TO.C,R110*%
X149411700Y-113005904D02*
X149694542Y-112723062D01*
X150330938Y-113359458D02*
X150048096Y-113642300D01*
%TO.C,R111*%
X141000000Y-106387200D02*
X141000000Y-105987200D01*
X141900000Y-105987200D02*
X141900000Y-106387200D01*
D11*
%TO.C,C114*%
X124124163Y-124431297D02*
X124124163Y-125031297D01*
X122724163Y-125031297D02*
X122724163Y-124431297D01*
D10*
%TO.C,R108*%
X123700000Y-112580000D02*
X124100000Y-112580000D01*
X124100000Y-113480000D02*
X123700000Y-113480000D01*
%TO.C,R126*%
X159450000Y-77020000D02*
X159850000Y-77020000D01*
X159850000Y-77920000D02*
X159450000Y-77920000D01*
%TO.C,C103*%
X129950000Y-93104000D02*
X129950000Y-93504000D01*
X129050000Y-93504000D02*
X129050000Y-93104000D01*
%TO.C,Y101*%
X142049446Y-113226379D02*
X141130207Y-112307140D01*
X144524319Y-115701252D02*
X143605080Y-114782013D01*
X149049803Y-104387544D02*
X141130207Y-112307140D01*
X149969042Y-105306783D02*
X149049803Y-104387544D01*
X152443915Y-107781656D02*
X144524319Y-115701252D01*
X152443915Y-107781656D02*
X151524676Y-106862417D01*
%TO.C,R141*%
X149100000Y-79165800D02*
X149100000Y-78765800D01*
X150000000Y-78765800D02*
X150000000Y-79165800D01*
%TO.C,C108*%
X144472103Y-105576540D02*
X144072103Y-105576540D01*
X144072103Y-104676540D02*
X144472103Y-104676540D01*
%TO.C,R128*%
X159350000Y-115120000D02*
X159750000Y-115120000D01*
X159750000Y-116020000D02*
X159350000Y-116020000D01*
%TO.C,C113*%
X130950000Y-93204000D02*
X130950000Y-92804000D01*
X131850000Y-92804000D02*
X131850000Y-93204000D01*
%TO.C,C110*%
X135657532Y-104747250D02*
X136057532Y-104747250D01*
X136057532Y-105647250D02*
X135657532Y-105647250D01*
D12*
%TO.C,X101*%
X130520000Y-127784000D02*
X130520000Y-126454000D01*
X131850000Y-127784000D02*
X130520000Y-127784000D01*
X133120000Y-127784000D02*
X143340000Y-127784000D01*
X133120000Y-127784000D02*
X133120000Y-125184000D01*
X143340000Y-127784000D02*
X143340000Y-122584000D01*
X130520000Y-125184000D02*
X130520000Y-122584000D01*
X133120000Y-125184000D02*
X130520000Y-125184000D01*
X130520000Y-122584000D02*
X143340000Y-122584000D01*
D10*
%TO.C,C104*%
X137800000Y-85692200D02*
X137800000Y-86092200D01*
X136900000Y-86092200D02*
X136900000Y-85692200D01*
%TO.C,R125*%
X159450000Y-82100000D02*
X159850000Y-82100000D01*
X159850000Y-83000000D02*
X159450000Y-83000000D01*
%TO.C,R130*%
X137300000Y-73904000D02*
X137700000Y-73904000D01*
X137700000Y-74804000D02*
X137300000Y-74804000D01*
%TO.C,C107*%
X131850000Y-98254000D02*
X131850000Y-98654000D01*
X130950000Y-98654000D02*
X130950000Y-98254000D01*
D11*
%TO.C,C123*%
X131750000Y-86704000D02*
X131150000Y-86704000D01*
X131150000Y-85304000D02*
X131750000Y-85304000D01*
D12*
%TO.C,U102*%
X134071342Y-92580598D02*
X135041342Y-92580598D01*
X134741342Y-91380598D02*
X134741342Y-92580598D01*
X134891342Y-102230598D02*
X134891342Y-101080598D01*
X135941342Y-91380598D02*
X134741342Y-91380598D01*
X135941342Y-102230598D02*
X134891342Y-102230598D01*
X144441342Y-91530598D02*
X145591342Y-91530598D01*
X144441342Y-102130598D02*
X145491342Y-102130598D01*
X145491342Y-102130598D02*
X145491342Y-101080598D01*
X145591342Y-91530598D02*
X145591342Y-92580598D01*
D13*
X134104842Y-92080598D02*
G75*
G03*
X134104842Y-92080598I-163500J0D01*
G01*
D10*
%TO.C,C117*%
X130950000Y-102904000D02*
X130950000Y-102504000D01*
X131850000Y-102504000D02*
X131850000Y-102904000D01*
%TO.C,C119*%
X136900000Y-83054000D02*
X136900000Y-82654000D01*
X137800000Y-82654000D02*
X137800000Y-83054000D01*
D11*
%TO.C,C118*%
X135036800Y-108104000D02*
X135636800Y-108104000D01*
X135636800Y-109504000D02*
X135036800Y-109504000D01*
D10*
%TO.C,R103*%
X123700000Y-87180000D02*
X124100000Y-87180000D01*
X124100000Y-88080000D02*
X123700000Y-88080000D01*
%TO.C,R112*%
X150450000Y-99154000D02*
X150050000Y-99154000D01*
X150050000Y-98254000D02*
X150450000Y-98254000D01*
%TO.C,C101*%
X146697684Y-115719920D02*
X146980526Y-115437078D01*
X147616922Y-116073474D02*
X147334080Y-116356316D01*
%TO.C,C111*%
X148947561Y-90965800D02*
X148947561Y-91365800D01*
X148047561Y-91365800D02*
X148047561Y-90965800D01*
%TO.C,R101*%
X127920000Y-125014000D02*
X127920000Y-124614000D01*
X128820000Y-124614000D02*
X128820000Y-125014000D01*
%TO.C,R136*%
X143038200Y-120450000D02*
X143438200Y-120450000D01*
X143438200Y-121350000D02*
X143038200Y-121350000D01*
%TO.C,R117*%
X159450000Y-97340000D02*
X159850000Y-97340000D01*
X159850000Y-98240000D02*
X159450000Y-98240000D01*
%TO.C,C122*%
X139388200Y-78454000D02*
X138988200Y-78454000D01*
X138988200Y-77554000D02*
X139388200Y-77554000D01*
%TO.C,R113*%
X159750000Y-108400000D02*
X159350000Y-108400000D01*
X159350000Y-107500000D02*
X159750000Y-107500000D01*
D11*
%TO.C,C121*%
X135275000Y-117097400D02*
X135875000Y-117097400D01*
X135875000Y-118497400D02*
X135275000Y-118497400D01*
%TD*%
M02*
