  0
SECTION
  2
HEADER
  9
$ANGBASE
  50
0.0
  9
$ANGDIR
  70
1
  9
$MEASUREMENT
  70
1
  0
ENDSEC
  0
SECTION
  2
TABLES
  0
TABLE
  2
LTYPE
  70
4
  0
LTYPE
  5
40F
  2
CONTINUOUS
  70
0
  3
Solid line
  72
65
  73
0
  40
0.0
  0
LTYPE
  5
410
  2
DASHDOT
 70
0
  3
Dash Dot ____ _ ____ _
 72
65
 73
4
 40
2.0
 49
1.25
 49
-0.25
 49
0.25
 49
-0.25
  0
LTYPE
  5
411
  2
DASHED
 70
0
  3
Dashed __ __ __ __ __
 72
65
 73
2
 40
0.75
 49
0.5
 49
-0.25
  0
LTYPE
  5
43B
  2
DOTTED
 70
0
  3
Dotted .  .  .  .
 72
65
 73
2
 40
0.2
 49
0.0
 49
-0.2
  0
ENDTAB
  0
TABLE
  2
STYLE
  70
4
  0
STYLE
  2
KICAD
  70
0
  40
0
  41
1
  42
1
  50
0
  71
0
  3
isocp.shx
  0
STYLE
  2
KICADB
  70
0
  40
0
  41
1
  42
1
  50
0
  71
0
  3
isocp.shx
  0
STYLE
  2
KICADI
  70
0
  40
0
  41
1
  42
1
  50
15
  71
0
  3
isocp.shx
  0
STYLE
  2
KICADBI
  70
0
  40
0
  41
1
  42
1
  50
15
  71
0
  3
isocp.shx
  0
ENDTAB
  0
TABLE
  2
LAYER
  70
1
  0
LAYER
  2
BLACK
  70
0
  62
7
  6
CONTINUOUS
  0
ENDTAB
  0
ENDSEC
  0
SECTION
  2
ENTITIES
0
LINE
8
BLACK
6
CONTINUOUS
10
119.8
20
-73.286
11
167
21
-73.286
0
LINE
8
BLACK
6
CONTINUOUS
10
117.5
20
-128.15
11
117.5
21
-75.6
0
LINE
8
BLACK
6
CONTINUOUS
10
167
20
-128.15
11
117.5
21
-128.15
0
LINE
8
BLACK
6
CONTINUOUS
10
117.5
20
-75.6
11
119.8
21
-73.286
0
LINE
8
BLACK
6
CONTINUOUS
10
167
20
-73.286
11
167
21
-128.15
0
LINE
8
BLACK
6
CONTINUOUS
10
120.058
20
-131.315
11
120.058
21
-129.315
0
LINE
8
BLACK
6
CONTINUOUS
10
120.058
20
-129.315
11
120.534
21
-129.315
0
LINE
8
BLACK
6
CONTINUOUS
10
120.534
20
-129.315
11
120.82
21
-129.41
0
LINE
8
BLACK
6
CONTINUOUS
10
120.82
20
-129.41
11
121.01
21
-129.601
0
LINE
8
BLACK
6
CONTINUOUS
10
121.01
20
-129.601
11
121.105
21
-129.791
0
LINE
8
BLACK
6
CONTINUOUS
10
121.105
20
-129.791
11
121.201
21
-130.172
0
LINE
8
BLACK
6
CONTINUOUS
10
121.201
20
-130.172
11
121.201
21
-130.458
0
LINE
8
BLACK
6
CONTINUOUS
10
121.201
20
-130.458
11
121.105
21
-130.839
0
LINE
8
BLACK
6
CONTINUOUS
10
121.105
20
-130.839
11
121.01
21
-131.029
0
LINE
8
BLACK
6
CONTINUOUS
10
121.01
20
-131.029
11
120.82
21
-131.22
0
LINE
8
BLACK
6
CONTINUOUS
10
120.82
20
-131.22
11
120.534
21
-131.315
0
LINE
8
BLACK
6
CONTINUOUS
10
120.534
20
-131.315
11
120.058
21
-131.315
0
LINE
8
BLACK
6
CONTINUOUS
10
122.058
20
-131.315
11
122.058
21
-129.982
0
LINE
8
BLACK
6
CONTINUOUS
10
122.058
20
-130.362
11
122.153
21
-130.172
0
LINE
8
BLACK
6
CONTINUOUS
10
122.153
20
-130.172
11
122.248
21
-130.077
0
LINE
8
BLACK
6
CONTINUOUS
10
122.248
20
-130.077
11
122.439
21
-129.982
0
LINE
8
BLACK
6
CONTINUOUS
10
122.439
20
-129.982
11
122.629
21
-129.982
0
LINE
8
BLACK
6
CONTINUOUS
10
123.296
20
-131.315
11
123.296
21
-129.982
0
LINE
8
BLACK
6
CONTINUOUS
10
123.296
20
-129.315
11
123.201
21
-129.41
0
LINE
8
BLACK
6
CONTINUOUS
10
123.201
20
-129.41
11
123.296
21
-129.505
0
LINE
8
BLACK
6
CONTINUOUS
10
123.296
20
-129.505
11
123.391
21
-129.41
0
LINE
8
BLACK
6
CONTINUOUS
10
123.391
20
-129.41
11
123.296
21
-129.315
0
LINE
8
BLACK
6
CONTINUOUS
10
123.296
20
-129.315
11
123.296
21
-129.505
0
LINE
8
BLACK
6
CONTINUOUS
10
124.534
20
-131.315
11
124.343
21
-131.22
0
LINE
8
BLACK
6
CONTINUOUS
10
124.343
20
-131.22
11
124.248
21
-131.029
0
LINE
8
BLACK
6
CONTINUOUS
10
124.248
20
-131.029
11
124.248
21
-129.315
0
LINE
8
BLACK
6
CONTINUOUS
10
125.582
20
-131.315
11
125.391
21
-131.22
0
LINE
8
BLACK
6
CONTINUOUS
10
125.391
20
-131.22
11
125.296
21
-131.029
0
LINE
8
BLACK
6
CONTINUOUS
10
125.296
20
-131.029
11
125.296
21
-129.315
0
LINE
8
BLACK
6
CONTINUOUS
10
127.867
20
-131.315
11
127.867
21
-129.315
0
LINE
8
BLACK
6
CONTINUOUS
10
127.867
20
-129.315
11
128.534
21
-130.743
0
LINE
8
BLACK
6
CONTINUOUS
10
128.534
20
-130.743
11
129.201
21
-129.315
0
LINE
8
BLACK
6
CONTINUOUS
10
129.201
20
-129.315
11
129.201
21
-131.315
0
LINE
8
BLACK
6
CONTINUOUS
10
131.01
20
-131.315
11
131.01
21
-130.267
0
LINE
8
BLACK
6
CONTINUOUS
10
131.01
20
-130.267
11
130.915
21
-130.077
0
LINE
8
BLACK
6
CONTINUOUS
10
130.915
20
-130.077
11
130.724
21
-129.982
0
LINE
8
BLACK
6
CONTINUOUS
10
130.724
20
-129.982
11
130.343
21
-129.982
0
LINE
8
BLACK
6
CONTINUOUS
10
130.343
20
-129.982
11
130.153
21
-130.077
0
LINE
8
BLACK
6
CONTINUOUS
10
131.01
20
-131.22
11
130.82
21
-131.315
0
LINE
8
BLACK
6
CONTINUOUS
10
130.82
20
-131.315
11
130.343
21
-131.315
0
LINE
8
BLACK
6
CONTINUOUS
10
130.343
20
-131.315
11
130.153
21
-131.22
0
LINE
8
BLACK
6
CONTINUOUS
10
130.153
20
-131.22
11
130.058
21
-131.029
0
LINE
8
BLACK
6
CONTINUOUS
10
130.058
20
-131.029
11
130.058
21
-130.839
0
LINE
8
BLACK
6
CONTINUOUS
10
130.058
20
-130.839
11
130.153
21
-130.648
0
LINE
8
BLACK
6
CONTINUOUS
10
130.153
20
-130.648
11
130.343
21
-130.553
0
LINE
8
BLACK
6
CONTINUOUS
10
130.343
20
-130.553
11
130.82
21
-130.553
0
LINE
8
BLACK
6
CONTINUOUS
10
130.82
20
-130.553
11
131.01
21
-130.458
0
LINE
8
BLACK
6
CONTINUOUS
10
131.963
20
-129.982
11
131.963
21
-131.982
0
LINE
8
BLACK
6
CONTINUOUS
10
131.963
20
-130.077
11
132.153
21
-129.982
0
LINE
8
BLACK
6
CONTINUOUS
10
132.153
20
-129.982
11
132.534
21
-129.982
0
LINE
8
BLACK
6
CONTINUOUS
10
132.534
20
-129.982
11
132.724
21
-130.077
0
LINE
8
BLACK
6
CONTINUOUS
10
132.724
20
-130.077
11
132.82
21
-130.172
0
LINE
8
BLACK
6
CONTINUOUS
10
132.82
20
-130.172
11
132.915
21
-130.362
0
LINE
8
BLACK
6
CONTINUOUS
10
132.915
20
-130.362
11
132.915
21
-130.934
0
LINE
8
BLACK
6
CONTINUOUS
10
132.915
20
-130.934
11
132.82
21
-131.124
0
LINE
8
BLACK
6
CONTINUOUS
10
132.82
20
-131.124
11
132.724
21
-131.22
0
LINE
8
BLACK
6
CONTINUOUS
10
132.724
20
-131.22
11
132.534
21
-131.315
0
LINE
8
BLACK
6
CONTINUOUS
10
132.534
20
-131.315
11
132.153
21
-131.315
0
LINE
8
BLACK
6
CONTINUOUS
10
132.153
20
-131.315
11
131.963
21
-131.22
0
LINE
8
BLACK
6
CONTINUOUS
10
133.772
20
-131.124
11
133.867
21
-131.22
0
LINE
8
BLACK
6
CONTINUOUS
10
133.867
20
-131.22
11
133.772
21
-131.315
0
LINE
8
BLACK
6
CONTINUOUS
10
133.772
20
-131.315
11
133.677
21
-131.22
0
LINE
8
BLACK
6
CONTINUOUS
10
133.677
20
-131.22
11
133.772
21
-131.124
0
LINE
8
BLACK
6
CONTINUOUS
10
133.772
20
-131.124
11
133.772
21
-131.315
0
LINE
8
BLACK
6
CONTINUOUS
10
133.772
20
-130.077
11
133.867
21
-130.172
0
LINE
8
BLACK
6
CONTINUOUS
10
133.867
20
-130.172
11
133.772
21
-130.267
0
LINE
8
BLACK
6
CONTINUOUS
10
133.772
20
-130.267
11
133.677
21
-130.172
0
LINE
8
BLACK
6
CONTINUOUS
10
133.677
20
-130.172
11
133.772
21
-130.077
0
LINE
8
BLACK
6
CONTINUOUS
10
133.772
20
-130.077
11
133.772
21
-130.267
  0
ENDSEC
  0
EOF
