%TF.GenerationSoftware,KiCad,Pcbnew,7.0.8*%
%TF.CreationDate,2024-01-04T13:35:50+01:00*%
%TF.ProjectId,OSSI_CM1,4f535349-5f43-44d3-912e-6b696361645f,rev?*%
%TF.SameCoordinates,Original*%
%TF.FileFunction,Paste,Top*%
%TF.FilePolarity,Positive*%
%FSLAX46Y46*%
G04 Gerber Fmt 4.6, Leading zero omitted, Abs format (unit mm)*
G04 Created by KiCad (PCBNEW 7.0.8) date 2024-01-04 13:35:50*
%MOMM*%
%LPD*%
G01*
G04 APERTURE LIST*
G04 Aperture macros list*
%AMRotRect*
0 Rectangle, with rotation*
0 The origin of the aperture is its center*
0 $1 length*
0 $2 width*
0 $3 Rotation angle, in degrees counterclockwise*
0 Add horizontal line*
21,1,$1,$2,0,0,$3*%
G04 Aperture macros list end*
%ADD10R,1.100000X1.100000*%
%ADD11RotRect,1.100000X1.100000X225.000000*%
%ADD12R,1.050000X0.600000*%
%ADD13RotRect,1.100000X1.100000X45.000000*%
%ADD14R,1.500000X1.250000*%
%ADD15R,1.500000X1.500000*%
%ADD16R,1.970000X0.600000*%
%ADD17R,1.250000X1.500000*%
%ADD18RotRect,5.500000X2.000000X45.000000*%
%ADD19O,1.500000X0.250000*%
%ADD20O,0.250000X1.500000*%
G04 APERTURE END LIST*
D10*
%TO.C,R140*%
X153550000Y-79804000D03*
X153550000Y-78127600D03*
%TD*%
%TO.C,H140*%
X153550000Y-75904000D03*
X153550000Y-74227600D03*
%TD*%
D11*
%TO.C,C102*%
X153292443Y-109761556D03*
X152107049Y-110946950D03*
%TD*%
D10*
%TO.C,R124*%
X124738200Y-120650000D03*
X123061800Y-120650000D03*
%TD*%
D12*
%TO.C,D101*%
X131038200Y-74104000D03*
X131038200Y-75054000D03*
X131038200Y-76004000D03*
X133738200Y-76004000D03*
X133738200Y-74104000D03*
%TD*%
D10*
%TO.C,R114*%
X160858200Y-105410000D03*
X159181800Y-105410000D03*
%TD*%
%TO.C,R131*%
X139350000Y-82015800D03*
X139350000Y-83692200D03*
%TD*%
%TO.C,R132*%
X126526400Y-80104000D03*
X124850000Y-80104000D03*
%TD*%
%TO.C,R115*%
X160488200Y-100330000D03*
X158811800Y-100330000D03*
%TD*%
%TO.C,R105*%
X123061800Y-102870000D03*
X124738200Y-102870000D03*
%TD*%
%TO.C,C115*%
X154673600Y-121529001D03*
X156350000Y-121529001D03*
%TD*%
%TO.C,R123*%
X124738200Y-118110000D03*
X123061800Y-118110000D03*
%TD*%
%TO.C,R116*%
X148939008Y-101065800D03*
X148939008Y-102742200D03*
%TD*%
D13*
%TO.C,R121*%
X145107303Y-87996697D03*
X146292697Y-86811303D03*
%TD*%
D10*
%TO.C,C106*%
X129500000Y-98742200D03*
X129500000Y-97065800D03*
%TD*%
D14*
%TO.C,L101*%
X136336800Y-110979000D03*
X136336800Y-113029000D03*
%TD*%
D10*
%TO.C,R127*%
X158711800Y-113030000D03*
X160388200Y-113030000D03*
%TD*%
%TO.C,R102*%
X123061800Y-95250000D03*
X124738200Y-95250000D03*
%TD*%
%TO.C,R104*%
X123061800Y-97790000D03*
X124738200Y-97790000D03*
%TD*%
%TO.C,R109*%
X123061800Y-90170000D03*
X124738200Y-90170000D03*
%TD*%
%TO.C,C112*%
X134861800Y-88404000D03*
X136538200Y-88404000D03*
%TD*%
%TO.C,R118*%
X158811800Y-92710000D03*
X160488200Y-92710000D03*
%TD*%
D15*
%TO.C,RESET0*%
X145300000Y-126100000D03*
X145300000Y-124100000D03*
%TD*%
D10*
%TO.C,R106*%
X123061800Y-105410000D03*
X124738200Y-105410000D03*
%TD*%
%TO.C,C116*%
X131450000Y-106892200D03*
X131450000Y-105215800D03*
%TD*%
%TO.C,C120*%
X134736800Y-115297400D03*
X136413200Y-115297400D03*
%TD*%
D16*
%TO.C,U104*%
X129613200Y-77999000D03*
X129613200Y-79269000D03*
X129613200Y-80539000D03*
X129613200Y-81809000D03*
X134563200Y-81809000D03*
X134563200Y-80539000D03*
X134563200Y-79269000D03*
X134563200Y-77999000D03*
%TD*%
D10*
%TO.C,R119*%
X158811800Y-90170000D03*
X160488200Y-90170000D03*
%TD*%
D17*
%TO.C,C124*%
X124925000Y-77404000D03*
X122875000Y-77404000D03*
%TD*%
D13*
%TO.C,R122*%
X143957303Y-86846697D03*
X145142697Y-85661303D03*
%TD*%
D10*
%TO.C,R134*%
X132226400Y-84004000D03*
X130550000Y-84004000D03*
%TD*%
%TO.C,C105*%
X127700000Y-98242200D03*
X127700000Y-96565800D03*
%TD*%
%TO.C,R133*%
X126526400Y-81615800D03*
X126526400Y-83292200D03*
%TD*%
%TO.C,R120*%
X158861800Y-85090000D03*
X160538200Y-85090000D03*
%TD*%
D16*
%TO.C,U103*%
X149675001Y-123224000D03*
X149675001Y-124494000D03*
X149675001Y-125764000D03*
X149675001Y-127034000D03*
X154625001Y-127034000D03*
X154625001Y-125764000D03*
X154625001Y-124494000D03*
X154625001Y-123224000D03*
%TD*%
D10*
%TO.C,R129*%
X138338200Y-76054000D03*
X136661800Y-76054000D03*
%TD*%
%TO.C,R107*%
X123061800Y-110490000D03*
X124738200Y-110490000D03*
%TD*%
%TO.C,H141*%
X149550000Y-75904000D03*
X149550000Y-74227600D03*
%TD*%
%TO.C,R135*%
X123388200Y-80010000D03*
X121711800Y-80010000D03*
%TD*%
%TO.C,C109*%
X128600000Y-103592200D03*
X128600000Y-101915800D03*
%TD*%
D13*
%TO.C,R110*%
X149278622Y-113775378D03*
X150464016Y-112589984D03*
%TD*%
D10*
%TO.C,R111*%
X141450000Y-107025400D03*
X141450000Y-105349000D03*
%TD*%
D14*
%TO.C,C114*%
X123424163Y-123706297D03*
X123424163Y-125756297D03*
%TD*%
D10*
%TO.C,R108*%
X123061800Y-113030000D03*
X124738200Y-113030000D03*
%TD*%
%TO.C,R126*%
X158811800Y-77470000D03*
X160488200Y-77470000D03*
%TD*%
%TO.C,C103*%
X129500000Y-92465800D03*
X129500000Y-94142200D03*
%TD*%
D18*
%TO.C,Y101*%
X143286882Y-113544577D03*
X150287240Y-106544219D03*
%TD*%
D10*
%TO.C,R141*%
X149550000Y-79804000D03*
X149550000Y-78127600D03*
%TD*%
%TO.C,C108*%
X145110303Y-105126540D03*
X143433903Y-105126540D03*
%TD*%
%TO.C,R128*%
X158711800Y-115570000D03*
X160388200Y-115570000D03*
%TD*%
%TO.C,C113*%
X131400000Y-93842200D03*
X131400000Y-92165800D03*
%TD*%
%TO.C,C110*%
X135019332Y-105197250D03*
X136695732Y-105197250D03*
%TD*%
%TO.C,C104*%
X137350000Y-85054000D03*
X137350000Y-86730400D03*
%TD*%
%TO.C,R125*%
X158811800Y-82550000D03*
X160488200Y-82550000D03*
%TD*%
%TO.C,R130*%
X136661800Y-74354000D03*
X138338200Y-74354000D03*
%TD*%
%TO.C,C107*%
X131400000Y-97615800D03*
X131400000Y-99292200D03*
%TD*%
D17*
%TO.C,C123*%
X132475000Y-86004000D03*
X130425000Y-86004000D03*
%TD*%
D19*
%TO.C,U102*%
X134441342Y-93080598D03*
X135191342Y-93080598D03*
X134441342Y-93580598D03*
X135191342Y-93580598D03*
X134441342Y-94080598D03*
X135191342Y-94080598D03*
X134441342Y-94580598D03*
X135191342Y-94580598D03*
X134441342Y-95080598D03*
X135191342Y-95080598D03*
X134441342Y-95580598D03*
X135191342Y-95580598D03*
X134441342Y-96080598D03*
X135191342Y-96080598D03*
X134441342Y-96580598D03*
X135191342Y-96580598D03*
X134441342Y-97080598D03*
X135191342Y-97080598D03*
X134441342Y-97580598D03*
X135191342Y-97580598D03*
X134441342Y-98080598D03*
X135191342Y-98080598D03*
X134441342Y-98580598D03*
X135191342Y-98580598D03*
X134441342Y-99080598D03*
X135191342Y-99080598D03*
X134441342Y-99580598D03*
X135191342Y-99580598D03*
X134441342Y-100080598D03*
X135191342Y-100080598D03*
X134441342Y-100580598D03*
X135191342Y-100580598D03*
D20*
X136441342Y-101830598D03*
X136441342Y-102580598D03*
X136941342Y-101830598D03*
X136941342Y-102580598D03*
X137441342Y-101830598D03*
X137441342Y-102580598D03*
X137941342Y-101830598D03*
X137941342Y-102580598D03*
X138441342Y-101830598D03*
X138441342Y-102580598D03*
X138941342Y-101830598D03*
X138941342Y-102580598D03*
X139441342Y-101830598D03*
X139441342Y-102580598D03*
X139941342Y-101830598D03*
X139941342Y-102580598D03*
X140441342Y-101830598D03*
X140441342Y-102580598D03*
X140941342Y-101830598D03*
X140941342Y-102580598D03*
X141441342Y-101830598D03*
X141441342Y-102580598D03*
X141941342Y-101830598D03*
X141941342Y-102580598D03*
X142441342Y-101830598D03*
X142441342Y-102580598D03*
X142941342Y-101830598D03*
X142941342Y-102580598D03*
X143441342Y-101830598D03*
X143441342Y-102580598D03*
X143941342Y-101830598D03*
X143941342Y-102580598D03*
D19*
X145191342Y-100580598D03*
X145941342Y-100580598D03*
X145191342Y-100080598D03*
X145941342Y-100080598D03*
X145191342Y-99580598D03*
X145941342Y-99580598D03*
X145191342Y-99080598D03*
X145941342Y-99080598D03*
X145191342Y-98580598D03*
X145941342Y-98580598D03*
X145191342Y-98080598D03*
X145941342Y-98080598D03*
X145191342Y-97580598D03*
X145941342Y-97580598D03*
X145191342Y-97080598D03*
X145941342Y-97080598D03*
X145191342Y-96580598D03*
X145941342Y-96580598D03*
X145191342Y-96080598D03*
X145941342Y-96080598D03*
X145191342Y-95580598D03*
X145941342Y-95580598D03*
X145191342Y-95080598D03*
X145941342Y-95080598D03*
X145191342Y-94580598D03*
X145941342Y-94580598D03*
X145191342Y-94080598D03*
X145941342Y-94080598D03*
X145191342Y-93580598D03*
X145941342Y-93580598D03*
X145191342Y-93080598D03*
X145941342Y-93080598D03*
D20*
X143941342Y-91080598D03*
X143941342Y-91830598D03*
X143441342Y-91080598D03*
X143441342Y-91830598D03*
X142941342Y-91080598D03*
X142941342Y-91830598D03*
X142441342Y-91080598D03*
X142441342Y-91830598D03*
X141941342Y-91080598D03*
X141941342Y-91830598D03*
X141441342Y-91080598D03*
X141441342Y-91830598D03*
X140941342Y-91080598D03*
X140941342Y-91830598D03*
X140441342Y-91080598D03*
X140441342Y-91830598D03*
X139941342Y-91080598D03*
X139941342Y-91830598D03*
X139441342Y-91080598D03*
X139441342Y-91830598D03*
X138941342Y-91080598D03*
X138941342Y-91830598D03*
X138441342Y-91080598D03*
X138441342Y-91830598D03*
X137941342Y-91080598D03*
X137941342Y-91830598D03*
X137441342Y-91080598D03*
X137441342Y-91830598D03*
X136941342Y-91080598D03*
X136941342Y-91830598D03*
X136441342Y-91080598D03*
X136441342Y-91830598D03*
%TD*%
D10*
%TO.C,C117*%
X131400000Y-103542200D03*
X131400000Y-101865800D03*
%TD*%
%TO.C,C119*%
X137350000Y-83692200D03*
X137350000Y-82015800D03*
%TD*%
D17*
%TO.C,C118*%
X134311800Y-108804000D03*
X136361800Y-108804000D03*
%TD*%
D10*
%TO.C,R103*%
X123061800Y-87630000D03*
X124738200Y-87630000D03*
%TD*%
%TO.C,R112*%
X151088200Y-98704000D03*
X149411800Y-98704000D03*
%TD*%
D13*
%TO.C,C101*%
X146564606Y-116489394D03*
X147750000Y-115304000D03*
%TD*%
D10*
%TO.C,C111*%
X148497561Y-90327600D03*
X148497561Y-92004000D03*
%TD*%
%TO.C,R101*%
X128370000Y-125652200D03*
X128370000Y-123975800D03*
%TD*%
%TO.C,R136*%
X142400000Y-120900000D03*
X144076400Y-120900000D03*
%TD*%
%TO.C,R117*%
X158811800Y-97790000D03*
X160488200Y-97790000D03*
%TD*%
%TO.C,C122*%
X140026400Y-78004000D03*
X138350000Y-78004000D03*
%TD*%
%TO.C,R113*%
X160388200Y-107950000D03*
X158711800Y-107950000D03*
%TD*%
D17*
%TO.C,C121*%
X134550000Y-117797400D03*
X136600000Y-117797400D03*
%TD*%
M02*
