M48
; DRILL file {KiCad 7.0.8} date Thu Jan  4 13:36:29 2024
; FORMAT={-:-/ absolute / metric / decimal}
; #@! TF.CreationDate,2024-01-04T13:36:29+01:00
; #@! TF.GenerationSoftware,Kicad,Pcbnew,7.0.8
; #@! TF.FileFunction,Plated,1,4,PTH
FMAT,2
METRIC
; #@! TA.AperFunction,Plated,PTH,ViaDrill
T1C0.300
; #@! TA.AperFunction,Plated,PTH,ComponentDrill
T2C1.000
%
G90
G05
T1
X123.4Y-122.304
X124.85Y-81.404
X124.9Y-76.054
X125.241Y-126.582
X125.249Y-124.939
X125.249Y-125.73
X126.447Y-118.157
X126.477Y-120.727
X126.55Y-98.254
X127.75Y-106.104
X127.85Y-81.804
X127.9Y-86.004
X128.6Y-104.954
X129.5Y-91.354
X129.8Y-75.054
X130.0Y-106.904
X130.05Y-101.854
X130.05Y-103.554
X130.45Y-98.204
X132.937Y-108.804
X133.1Y-117.797
X133.5Y-115.297
X133.55Y-88.404
X133.85Y-101.954
X133.9Y-86.004
X135.0Y-103.904
X135.05Y-74.104
X136.0Y-83.704
X136.0Y-85.054
X136.2Y-103.704
X136.6Y-119.511
X137.75Y-98.504
X137.837Y-108.804
X138.35Y-79.154
X138.9Y-85.104
X139.4Y-93.504
X139.45Y-98.504
X139.7Y-117.754
X139.75Y-94.604
X140.05Y-79.154
X141.1Y-120.9
X141.15Y-93.354
X141.45Y-108.363
X141.6Y-94.504
X143.45Y-106.504
X144.398Y-103.852
X145.15Y-106.504
X145.375Y-118.475
X146.1Y-84.704
X147.35Y-85.754
X147.75Y-93.204
X147.802Y-127.027
X149.35Y-104.204
X149.862Y-91.992
X149.912Y-90.292
X150.9Y-74.254
X152.169Y-116.704
X153.35Y-121.529
X154.425Y-115.579
X154.8Y-108.204
X154.85Y-74.204
X156.3Y-120.179
X157.9Y-125.754
X158.7Y-111.804
X158.7Y-117.154
T2
X119.38Y-77.47
X119.38Y-80.01
X119.38Y-82.55
X119.38Y-85.09
X119.38Y-87.63
X119.38Y-90.17
X119.38Y-92.71
X119.38Y-95.25
X119.38Y-97.79
X119.38Y-100.33
X119.38Y-102.87
X119.38Y-105.41
X119.38Y-107.95
X119.38Y-110.49
X119.38Y-113.03
X119.38Y-115.57
X119.38Y-118.11
X119.38Y-120.65
X119.38Y-123.19
X119.38Y-125.73
X131.85Y-123.914
X131.85Y-126.454
X134.39Y-123.914
X134.39Y-126.454
X136.93Y-123.914
X136.93Y-126.454
X139.47Y-123.914
X139.47Y-126.454
X142.01Y-123.914
X142.01Y-126.454
X165.1Y-74.93
X165.1Y-77.47
X165.1Y-80.01
X165.1Y-82.55
X165.1Y-85.09
X165.1Y-87.63
X165.1Y-90.17
X165.1Y-92.71
X165.1Y-95.25
X165.1Y-97.79
X165.1Y-100.33
X165.1Y-102.87
X165.1Y-105.41
X165.1Y-107.95
X165.1Y-110.49
X165.1Y-113.03
X165.1Y-115.57
X165.1Y-118.11
X165.1Y-120.65
X165.1Y-123.19
X165.1Y-125.73
T0
M30
