%TF.GenerationSoftware,KiCad,Pcbnew,7.0.8*%
%TF.CreationDate,2024-01-04T13:35:50+01:00*%
%TF.ProjectId,OSSI_CM1,4f535349-5f43-44d3-912e-6b696361645f,rev?*%
%TF.SameCoordinates,Original*%
%TF.FileFunction,Copper,L2,Inr*%
%TF.FilePolarity,Positive*%
%FSLAX46Y46*%
G04 Gerber Fmt 4.6, Leading zero omitted, Abs format (unit mm)*
G04 Created by KiCad (PCBNEW 7.0.8) date 2024-01-04 13:35:50*
%MOMM*%
%LPD*%
G01*
G04 APERTURE LIST*
%TA.AperFunction,ComponentPad*%
%ADD10R,1.700000X1.700000*%
%TD*%
%TA.AperFunction,ComponentPad*%
%ADD11O,1.700000X1.700000*%
%TD*%
%TA.AperFunction,ViaPad*%
%ADD12C,0.700000*%
%TD*%
G04 APERTURE END LIST*
D10*
%TO.N,+3V3*%
%TO.C,X101*%
X131850000Y-126454000D03*
D11*
%TO.N,/JTAG_TMS{slash}SWD_DIO{slash}PTA3*%
X131850000Y-123914000D03*
%TO.N,GND*%
X134390000Y-126454000D03*
%TO.N,/JTAG_CLK{slash}SWD_CLK{slash}PTA0*%
X134390000Y-123914000D03*
%TO.N,GND*%
X136930000Y-126454000D03*
%TO.N,/JTAG_TDO{slash}TRACE_SWO{slash}PTA2*%
X136930000Y-123914000D03*
%TO.N,unconnected-(X101-Pad7)*%
X139470000Y-126454000D03*
%TO.N,Net-(U102B-JTAG_TDI{slash}PTA1)*%
X139470000Y-123914000D03*
%TO.N,GND*%
X142010000Y-126454000D03*
%TO.N,/~{RESET}*%
X142010000Y-123914000D03*
%TD*%
D10*
%TO.N,+3V3_ANA*%
%TO.C,X201*%
X119380000Y-77470000D03*
D11*
%TO.N,1V25_REF*%
X119380000Y-80010000D03*
%TO.N,2V50_REF*%
X119380000Y-82550000D03*
%TO.N,AGND*%
X119380000Y-85090000D03*
%TO.N,AC_Grid_Voltage*%
X119380000Y-87630000D03*
%TO.N,Relay_Ctrl_Voltage*%
X119380000Y-90170000D03*
%TO.N,AGND*%
X119380000Y-92710000D03*
%TO.N,DC_Link_Voltage*%
X119380000Y-95250000D03*
%TO.N,AC_Current*%
X119380000Y-97790000D03*
%TO.N,AGND*%
X119380000Y-100330000D03*
%TO.N,AC_Relay_Voltage*%
X119380000Y-102870000D03*
%TO.N,DC_Input_Voltage*%
X119380000Y-105410000D03*
%TO.N,AGND*%
X119380000Y-107950000D03*
%TO.N,DC_Current*%
X119380000Y-110490000D03*
%TO.N,AC_Inverter_Voltage*%
X119380000Y-113030000D03*
%TO.N,AGND*%
X119380000Y-115570000D03*
%TO.N,LED_Red_Ctrl*%
X119380000Y-118110000D03*
%TO.N,LED_Green_Ctrl*%
X119380000Y-120650000D03*
%TO.N,GND*%
X119380000Y-123190000D03*
%TO.N,+3V3*%
X119380000Y-125730000D03*
%TD*%
D10*
%TO.N,GND*%
%TO.C,X202*%
X165100000Y-125730000D03*
D11*
%TO.N,UART_RX*%
X165100000Y-123190000D03*
%TO.N,UART_TX*%
X165100000Y-120650000D03*
%TO.N,GND*%
X165100000Y-118110000D03*
%TO.N,I2C_Dat*%
X165100000Y-115570000D03*
%TO.N,I2C_Clk*%
X165100000Y-113030000D03*
%TO.N,GND*%
X165100000Y-110490000D03*
%TO.N,HISIDE_PWM_\u00B5C*%
X165100000Y-107950000D03*
%TO.N,Boost_T1*%
X165100000Y-105410000D03*
%TO.N,GND*%
X165100000Y-102870000D03*
%TO.N,Relay_Voltage_Ctrl*%
X165100000Y-100330000D03*
%TO.N,Bridge_T1*%
X165100000Y-97790000D03*
%TO.N,GND*%
X165100000Y-95250000D03*
%TO.N,Bridge_T2*%
X165100000Y-92710000D03*
%TO.N,Bridge_T3*%
X165100000Y-90170000D03*
%TO.N,GND*%
X165100000Y-87630000D03*
%TO.N,Bridge_T4*%
X165100000Y-85090000D03*
%TO.N,Inv_Relay_Ctrl*%
X165100000Y-82550000D03*
%TO.N,GND*%
X165100000Y-80010000D03*
%TO.N,Grid_Relay_Ctrl*%
X165100000Y-77470000D03*
%TO.N,GND*%
X165100000Y-74930000D03*
%TD*%
D12*
%TO.N,GND*%
X147801944Y-127027056D03*
X144398000Y-103852000D03*
X145150000Y-106504000D03*
X133100000Y-117797400D03*
X149350000Y-104204000D03*
X154800000Y-108204000D03*
X154850000Y-74204000D03*
X139450000Y-98504000D03*
X133500000Y-115297400D03*
X153350000Y-121529000D03*
X145375000Y-118475000D03*
X123400000Y-122304000D03*
X157900000Y-125754000D03*
X150900000Y-74254000D03*
X147750000Y-93204000D03*
X139750000Y-94604000D03*
X149912107Y-90291893D03*
%TO.N,AGND*%
X136000000Y-83704000D03*
X133900000Y-86004000D03*
X124850000Y-81404000D03*
X136000000Y-85054000D03*
X135050000Y-74104000D03*
X130000000Y-106904000D03*
X135000000Y-103904000D03*
X133550000Y-88404000D03*
X126550000Y-98254000D03*
X130450000Y-98204000D03*
X124900000Y-76054000D03*
X137750000Y-98504000D03*
X129500000Y-91354000D03*
X133849500Y-101954000D03*
X132936800Y-108804000D03*
X130050000Y-103554000D03*
X140050000Y-79154000D03*
X127850000Y-81804000D03*
X128600000Y-104954000D03*
X129800000Y-75054000D03*
%TO.N,+3V3*%
X136600000Y-119510600D03*
X125249000Y-125730000D03*
X141100000Y-120900000D03*
X125249000Y-124938710D03*
X125241251Y-126582128D03*
X156300000Y-120179000D03*
X141450000Y-108363361D03*
X158700000Y-117154000D03*
X149862107Y-91991893D03*
X143450000Y-106504000D03*
X139400000Y-93504000D03*
X158700000Y-111804000D03*
%TO.N,2V50_REF*%
X127900000Y-86004000D03*
X127750000Y-106104000D03*
%TO.N,/JTAG_TMS{slash}SWD_DIO{slash}PTA3*%
X139700000Y-117754000D03*
%TO.N,I2C_Clk*%
X154425000Y-115579000D03*
X147350000Y-85754000D03*
%TO.N,I2C_Dat*%
X152168629Y-116704000D03*
X146100000Y-84704000D03*
%TO.N,Net-(U102A-PTC8)*%
X141600000Y-94504000D03*
X126447000Y-118157000D03*
%TO.N,Net-(U102A-PTC9)*%
X126477000Y-120727000D03*
X141150000Y-93354000D03*
%TO.N,Net-(U102C-VREF_OUT)*%
X136200000Y-103704000D03*
X138900000Y-85104000D03*
%TO.N,+3V3_ANA*%
X138350000Y-79154000D03*
X137836800Y-108804000D03*
X130050000Y-101854000D03*
%TD*%
%TA.AperFunction,Conductor*%
%TO.N,AGND*%
G36*
X141426456Y-73365546D02*
G01*
X141493422Y-73385476D01*
X141538983Y-73438448D01*
X141550000Y-73489545D01*
X141550000Y-83105661D01*
X141530315Y-83172700D01*
X141517285Y-83189584D01*
X139928238Y-84918020D01*
X139868374Y-84954050D01*
X139798535Y-84951995D01*
X139740893Y-84912509D01*
X139719022Y-84872415D01*
X139681252Y-84756170D01*
X139681249Y-84756164D01*
X139591859Y-84601335D01*
X139545003Y-84549296D01*
X139472235Y-84468478D01*
X139472232Y-84468476D01*
X139472231Y-84468475D01*
X139472230Y-84468474D01*
X139327593Y-84363388D01*
X139164267Y-84290671D01*
X139164265Y-84290670D01*
X139036594Y-84263533D01*
X138989391Y-84253500D01*
X138810609Y-84253500D01*
X138779954Y-84260015D01*
X138635733Y-84290670D01*
X138635728Y-84290672D01*
X138472408Y-84363387D01*
X138327768Y-84468475D01*
X138208140Y-84601336D01*
X138118750Y-84756164D01*
X138118747Y-84756170D01*
X138063504Y-84926192D01*
X138063503Y-84926194D01*
X138044815Y-85104000D01*
X138063503Y-85281805D01*
X138063504Y-85281807D01*
X138118747Y-85451829D01*
X138118750Y-85451835D01*
X138208141Y-85606665D01*
X138249812Y-85652946D01*
X138327764Y-85739521D01*
X138327767Y-85739523D01*
X138327770Y-85739526D01*
X138472407Y-85844612D01*
X138635733Y-85917329D01*
X138635735Y-85917329D01*
X138635736Y-85917330D01*
X138696312Y-85930205D01*
X138735797Y-85938598D01*
X138797279Y-85971790D01*
X138831056Y-86032953D01*
X138826404Y-86102667D01*
X138801302Y-86143811D01*
X138700000Y-86253999D01*
X138700000Y-92982209D01*
X138683387Y-93044209D01*
X138618750Y-93156163D01*
X138563504Y-93326192D01*
X138563503Y-93326194D01*
X138544815Y-93504000D01*
X138563503Y-93681805D01*
X138563504Y-93681807D01*
X138618747Y-93851829D01*
X138618750Y-93851835D01*
X138679578Y-93957193D01*
X138683387Y-93963789D01*
X138700000Y-94025789D01*
X138700000Y-100254000D01*
X138732717Y-108204425D01*
X138713308Y-108271545D01*
X138660693Y-108317516D01*
X138591576Y-108327744D01*
X138527902Y-108298981D01*
X138516568Y-108287907D01*
X138409035Y-108168478D01*
X138409032Y-108168476D01*
X138409031Y-108168475D01*
X138409030Y-108168474D01*
X138264393Y-108063388D01*
X138101067Y-107990671D01*
X138101065Y-107990670D01*
X137973394Y-107963533D01*
X137926191Y-107953500D01*
X137747409Y-107953500D01*
X137716754Y-107960015D01*
X137572533Y-107990670D01*
X137572528Y-107990672D01*
X137409208Y-108063387D01*
X137264568Y-108168475D01*
X137144940Y-108301336D01*
X137055550Y-108456164D01*
X137055547Y-108456170D01*
X137000304Y-108626192D01*
X137000303Y-108626194D01*
X136981615Y-108804000D01*
X137000303Y-108981805D01*
X137000304Y-108981807D01*
X137055547Y-109151829D01*
X137055550Y-109151835D01*
X137144941Y-109306665D01*
X137158091Y-109321269D01*
X137264564Y-109439521D01*
X137264567Y-109439523D01*
X137264570Y-109439526D01*
X137409207Y-109544612D01*
X137572533Y-109617329D01*
X137747409Y-109654500D01*
X137747410Y-109654500D01*
X137926189Y-109654500D01*
X137926191Y-109654500D01*
X138101067Y-109617329D01*
X138264393Y-109544612D01*
X138409030Y-109439526D01*
X138521478Y-109314639D01*
X138580962Y-109277993D01*
X138650819Y-109279322D01*
X138708867Y-109318208D01*
X138736677Y-109382305D01*
X138737625Y-109397103D01*
X138744913Y-111167830D01*
X138748302Y-111991506D01*
X138749488Y-112279490D01*
X138730079Y-112346610D01*
X138677464Y-112392581D01*
X138625489Y-112404000D01*
X135424000Y-112404000D01*
X135356961Y-112384315D01*
X135311206Y-112331511D01*
X135300000Y-112280000D01*
X135300000Y-111903999D01*
X129148424Y-111805574D01*
X129050000Y-111804000D01*
X129049999Y-111804000D01*
X124285873Y-116518500D01*
X124224375Y-116551664D01*
X124199533Y-116554358D01*
X120559765Y-116580215D01*
X120492587Y-116561007D01*
X120446458Y-116508529D01*
X120436024Y-116439443D01*
X120457310Y-116385094D01*
X120553595Y-116247585D01*
X120553599Y-116247579D01*
X120653429Y-116033492D01*
X120653432Y-116033486D01*
X120710636Y-115820000D01*
X119813686Y-115820000D01*
X119839493Y-115779844D01*
X119880000Y-115641889D01*
X119880000Y-115498111D01*
X119839493Y-115360156D01*
X119813686Y-115320000D01*
X120710636Y-115320000D01*
X120710635Y-115319999D01*
X120653432Y-115106513D01*
X120653429Y-115106507D01*
X120553600Y-114892422D01*
X120553599Y-114892420D01*
X120418113Y-114698926D01*
X120418108Y-114698920D01*
X120251078Y-114531890D01*
X120065405Y-114401879D01*
X120021780Y-114347302D01*
X120014588Y-114277804D01*
X120046110Y-114215449D01*
X120065406Y-114198730D01*
X120251401Y-114068495D01*
X120418495Y-113901401D01*
X120554035Y-113707830D01*
X120653903Y-113493663D01*
X120715063Y-113265408D01*
X120735659Y-113030000D01*
X120715063Y-112794592D01*
X120653903Y-112566337D01*
X120554035Y-112352171D01*
X120550142Y-112346610D01*
X120418494Y-112158597D01*
X120251402Y-111991506D01*
X120251396Y-111991501D01*
X120065842Y-111861575D01*
X120022217Y-111806998D01*
X120015023Y-111737500D01*
X120046546Y-111675145D01*
X120065842Y-111658425D01*
X120088026Y-111642891D01*
X120251401Y-111528495D01*
X120418495Y-111361401D01*
X120554035Y-111167830D01*
X120653903Y-110953663D01*
X120715063Y-110725408D01*
X120735659Y-110490000D01*
X120715063Y-110254592D01*
X120653903Y-110026337D01*
X120554035Y-109812171D01*
X120418495Y-109618599D01*
X120418494Y-109618597D01*
X120251402Y-109451506D01*
X120251401Y-109451505D01*
X120065405Y-109321269D01*
X120021781Y-109266692D01*
X120014588Y-109197193D01*
X120046110Y-109134839D01*
X120065405Y-109118119D01*
X120251082Y-108988105D01*
X120418105Y-108821082D01*
X120553600Y-108627578D01*
X120653429Y-108413492D01*
X120653432Y-108413486D01*
X120710636Y-108200000D01*
X119813686Y-108200000D01*
X119839493Y-108159844D01*
X119880000Y-108021889D01*
X119880000Y-107878111D01*
X119839493Y-107740156D01*
X119813686Y-107700000D01*
X120710636Y-107700000D01*
X120710635Y-107699999D01*
X120653432Y-107486513D01*
X120653429Y-107486507D01*
X120553600Y-107272422D01*
X120553599Y-107272420D01*
X120418113Y-107078926D01*
X120418108Y-107078920D01*
X120251078Y-106911890D01*
X120065405Y-106781879D01*
X120021780Y-106727302D01*
X120014588Y-106657804D01*
X120046110Y-106595449D01*
X120065406Y-106578730D01*
X120251401Y-106448495D01*
X120418495Y-106281401D01*
X120542713Y-106104000D01*
X126894815Y-106104000D01*
X126913503Y-106281805D01*
X126913504Y-106281807D01*
X126968747Y-106451829D01*
X126968750Y-106451835D01*
X127058141Y-106606665D01*
X127082130Y-106633307D01*
X127177764Y-106739521D01*
X127177767Y-106739523D01*
X127177770Y-106739526D01*
X127322407Y-106844612D01*
X127485733Y-106917329D01*
X127660609Y-106954500D01*
X127660610Y-106954500D01*
X127839389Y-106954500D01*
X127839391Y-106954500D01*
X128014267Y-106917329D01*
X128177593Y-106844612D01*
X128322230Y-106739526D01*
X128441859Y-106606665D01*
X128531250Y-106451835D01*
X128586497Y-106281803D01*
X128605185Y-106104000D01*
X128586497Y-105926197D01*
X128531250Y-105756165D01*
X128441859Y-105601335D01*
X128395003Y-105549296D01*
X128322235Y-105468478D01*
X128322232Y-105468476D01*
X128322231Y-105468475D01*
X128322230Y-105468474D01*
X128177593Y-105363388D01*
X128014267Y-105290671D01*
X128014265Y-105290670D01*
X127886594Y-105263533D01*
X127839391Y-105253500D01*
X127660609Y-105253500D01*
X127629954Y-105260015D01*
X127485733Y-105290670D01*
X127485728Y-105290672D01*
X127322408Y-105363387D01*
X127177768Y-105468475D01*
X127058140Y-105601336D01*
X126968750Y-105756164D01*
X126968747Y-105756170D01*
X126913504Y-105926192D01*
X126913503Y-105926194D01*
X126894815Y-106104000D01*
X120542713Y-106104000D01*
X120554035Y-106087830D01*
X120653903Y-105873663D01*
X120715063Y-105645408D01*
X120735659Y-105410000D01*
X120715063Y-105174592D01*
X120653903Y-104946337D01*
X120554035Y-104732171D01*
X120418495Y-104538599D01*
X120418494Y-104538597D01*
X120251402Y-104371506D01*
X120251396Y-104371501D01*
X120065842Y-104241575D01*
X120022217Y-104186998D01*
X120015023Y-104117500D01*
X120046546Y-104055145D01*
X120065842Y-104038425D01*
X120088026Y-104022891D01*
X120251401Y-103908495D01*
X120418495Y-103741401D01*
X120444683Y-103704000D01*
X135344815Y-103704000D01*
X135363503Y-103881805D01*
X135363504Y-103881807D01*
X135418747Y-104051829D01*
X135418750Y-104051835D01*
X135508141Y-104206665D01*
X135534523Y-104235965D01*
X135627764Y-104339521D01*
X135627767Y-104339523D01*
X135627770Y-104339526D01*
X135772407Y-104444612D01*
X135935733Y-104517329D01*
X136110609Y-104554500D01*
X136110610Y-104554500D01*
X136289389Y-104554500D01*
X136289391Y-104554500D01*
X136464267Y-104517329D01*
X136627593Y-104444612D01*
X136772230Y-104339526D01*
X136891859Y-104206665D01*
X136981250Y-104051835D01*
X137036497Y-103881803D01*
X137055185Y-103704000D01*
X137036497Y-103526197D01*
X136981250Y-103356165D01*
X136891859Y-103201335D01*
X136845003Y-103149296D01*
X136772235Y-103068478D01*
X136772232Y-103068476D01*
X136772231Y-103068475D01*
X136772230Y-103068474D01*
X136627593Y-102963388D01*
X136464267Y-102890671D01*
X136464265Y-102890670D01*
X136336594Y-102863533D01*
X136289391Y-102853500D01*
X136110609Y-102853500D01*
X136079954Y-102860015D01*
X135935733Y-102890670D01*
X135935728Y-102890672D01*
X135772408Y-102963387D01*
X135627768Y-103068475D01*
X135508140Y-103201336D01*
X135418750Y-103356164D01*
X135418747Y-103356170D01*
X135363504Y-103526192D01*
X135363503Y-103526194D01*
X135344815Y-103704000D01*
X120444683Y-103704000D01*
X120554035Y-103547830D01*
X120653903Y-103333663D01*
X120715063Y-103105408D01*
X120735659Y-102870000D01*
X120715063Y-102634592D01*
X120653903Y-102406337D01*
X120554035Y-102192171D01*
X120441748Y-102031807D01*
X120418494Y-101998597D01*
X120273896Y-101854000D01*
X129194815Y-101854000D01*
X129213503Y-102031805D01*
X129213504Y-102031807D01*
X129268747Y-102201829D01*
X129268750Y-102201835D01*
X129358141Y-102356665D01*
X129399812Y-102402946D01*
X129477764Y-102489521D01*
X129477767Y-102489523D01*
X129477770Y-102489526D01*
X129622407Y-102594612D01*
X129785733Y-102667329D01*
X129960609Y-102704500D01*
X129960610Y-102704500D01*
X130139389Y-102704500D01*
X130139391Y-102704500D01*
X130314267Y-102667329D01*
X130477593Y-102594612D01*
X130622230Y-102489526D01*
X130741859Y-102356665D01*
X130831250Y-102201835D01*
X130886497Y-102031803D01*
X130905185Y-101854000D01*
X130886497Y-101676197D01*
X130840599Y-101534937D01*
X130831252Y-101506170D01*
X130831249Y-101506164D01*
X130741859Y-101351335D01*
X130695003Y-101299296D01*
X130622235Y-101218478D01*
X130622232Y-101218476D01*
X130622231Y-101218475D01*
X130622230Y-101218474D01*
X130477593Y-101113388D01*
X130314267Y-101040671D01*
X130314265Y-101040670D01*
X130186594Y-101013533D01*
X130139391Y-101003500D01*
X129960609Y-101003500D01*
X129929954Y-101010015D01*
X129785733Y-101040670D01*
X129785728Y-101040672D01*
X129622408Y-101113387D01*
X129477768Y-101218475D01*
X129358140Y-101351336D01*
X129268750Y-101506164D01*
X129268747Y-101506170D01*
X129213504Y-101676192D01*
X129213503Y-101676194D01*
X129194815Y-101854000D01*
X120273896Y-101854000D01*
X120251402Y-101831506D01*
X120251401Y-101831505D01*
X120065405Y-101701269D01*
X120021781Y-101646692D01*
X120014588Y-101577193D01*
X120046110Y-101514839D01*
X120065405Y-101498119D01*
X120251082Y-101368105D01*
X120418105Y-101201082D01*
X120553600Y-101007578D01*
X120653429Y-100793492D01*
X120653432Y-100793486D01*
X120710636Y-100580000D01*
X119813686Y-100580000D01*
X119839493Y-100539844D01*
X119880000Y-100401889D01*
X119880000Y-100258111D01*
X119839493Y-100120156D01*
X119813686Y-100080000D01*
X120710636Y-100080000D01*
X120710635Y-100079999D01*
X120653432Y-99866513D01*
X120653429Y-99866507D01*
X120553600Y-99652422D01*
X120553599Y-99652420D01*
X120418113Y-99458926D01*
X120418108Y-99458920D01*
X120251078Y-99291890D01*
X120065405Y-99161879D01*
X120021780Y-99107302D01*
X120014588Y-99037804D01*
X120046110Y-98975449D01*
X120065406Y-98958730D01*
X120164068Y-98889646D01*
X120251401Y-98828495D01*
X120418495Y-98661401D01*
X120554035Y-98467830D01*
X120653903Y-98253663D01*
X120715063Y-98025408D01*
X120735659Y-97790000D01*
X120715063Y-97554592D01*
X120653903Y-97326337D01*
X120554035Y-97112171D01*
X120418495Y-96918599D01*
X120418494Y-96918597D01*
X120251402Y-96751506D01*
X120251396Y-96751501D01*
X120065842Y-96621575D01*
X120022217Y-96566998D01*
X120015023Y-96497500D01*
X120046546Y-96435145D01*
X120065842Y-96418425D01*
X120088026Y-96402891D01*
X120251401Y-96288495D01*
X120418495Y-96121401D01*
X120554035Y-95927830D01*
X120653903Y-95713663D01*
X120715063Y-95485408D01*
X120735659Y-95250000D01*
X120715063Y-95014592D01*
X120653903Y-94786337D01*
X120554035Y-94572171D01*
X120506302Y-94504000D01*
X120418494Y-94378597D01*
X120251402Y-94211506D01*
X120251401Y-94211505D01*
X120065405Y-94081269D01*
X120021781Y-94026692D01*
X120014588Y-93957193D01*
X120046110Y-93894839D01*
X120065405Y-93878119D01*
X120251082Y-93748105D01*
X120418105Y-93581082D01*
X120553600Y-93387578D01*
X120653429Y-93173492D01*
X120653432Y-93173486D01*
X120710636Y-92960000D01*
X119813686Y-92960000D01*
X119839493Y-92919844D01*
X119880000Y-92781889D01*
X119880000Y-92638111D01*
X119839493Y-92500156D01*
X119813686Y-92460000D01*
X120710636Y-92460000D01*
X120710635Y-92459999D01*
X120653432Y-92246513D01*
X120653429Y-92246507D01*
X120553600Y-92032422D01*
X120553599Y-92032420D01*
X120418113Y-91838926D01*
X120418108Y-91838920D01*
X120251078Y-91671890D01*
X120065405Y-91541879D01*
X120021780Y-91487302D01*
X120014588Y-91417804D01*
X120046110Y-91355449D01*
X120065406Y-91338730D01*
X120251401Y-91208495D01*
X120418495Y-91041401D01*
X120554035Y-90847830D01*
X120653903Y-90633663D01*
X120715063Y-90405408D01*
X120735659Y-90170000D01*
X120715063Y-89934592D01*
X120653903Y-89706337D01*
X120554035Y-89492171D01*
X120418495Y-89298599D01*
X120418494Y-89298597D01*
X120251402Y-89131506D01*
X120251396Y-89131501D01*
X120065842Y-89001575D01*
X120022217Y-88946998D01*
X120015023Y-88877500D01*
X120046546Y-88815145D01*
X120065842Y-88798425D01*
X120088026Y-88782891D01*
X120251401Y-88668495D01*
X120418495Y-88501401D01*
X120554035Y-88307830D01*
X120653903Y-88093663D01*
X120715063Y-87865408D01*
X120735659Y-87630000D01*
X120715063Y-87394592D01*
X120653903Y-87166337D01*
X120554035Y-86952171D01*
X120485646Y-86854500D01*
X120418494Y-86758597D01*
X120251402Y-86591506D01*
X120251401Y-86591505D01*
X120065405Y-86461269D01*
X120021781Y-86406692D01*
X120014588Y-86337193D01*
X120046110Y-86274839D01*
X120065405Y-86258119D01*
X120251082Y-86128105D01*
X120375187Y-86004000D01*
X127044815Y-86004000D01*
X127063503Y-86181805D01*
X127063504Y-86181807D01*
X127118747Y-86351829D01*
X127118750Y-86351835D01*
X127208141Y-86506665D01*
X127249812Y-86552946D01*
X127327764Y-86639521D01*
X127327767Y-86639523D01*
X127327770Y-86639526D01*
X127472407Y-86744612D01*
X127635733Y-86817329D01*
X127810609Y-86854500D01*
X127810610Y-86854500D01*
X127989389Y-86854500D01*
X127989391Y-86854500D01*
X128164267Y-86817329D01*
X128327593Y-86744612D01*
X128472230Y-86639526D01*
X128591859Y-86506665D01*
X128681250Y-86351835D01*
X128736497Y-86181803D01*
X128755185Y-86004000D01*
X128736497Y-85826197D01*
X128681250Y-85656165D01*
X128591859Y-85501335D01*
X128519343Y-85420798D01*
X128472235Y-85368478D01*
X128472232Y-85368476D01*
X128472231Y-85368475D01*
X128472230Y-85368474D01*
X128327593Y-85263388D01*
X128164267Y-85190671D01*
X128164265Y-85190670D01*
X128028858Y-85161889D01*
X127989391Y-85153500D01*
X127810609Y-85153500D01*
X127779954Y-85160015D01*
X127635733Y-85190670D01*
X127635728Y-85190672D01*
X127472408Y-85263387D01*
X127327768Y-85368475D01*
X127208140Y-85501336D01*
X127118750Y-85656164D01*
X127118747Y-85656170D01*
X127063504Y-85826192D01*
X127063503Y-85826194D01*
X127044815Y-86004000D01*
X120375187Y-86004000D01*
X120418105Y-85961082D01*
X120553600Y-85767578D01*
X120653429Y-85553492D01*
X120653432Y-85553486D01*
X120710636Y-85340000D01*
X119813686Y-85340000D01*
X119839493Y-85299844D01*
X119880000Y-85161889D01*
X119880000Y-85018111D01*
X119839493Y-84880156D01*
X119813686Y-84840000D01*
X120710636Y-84840000D01*
X120710635Y-84839999D01*
X120653432Y-84626513D01*
X120653429Y-84626507D01*
X120553600Y-84412422D01*
X120553599Y-84412420D01*
X120418113Y-84218926D01*
X120418108Y-84218920D01*
X120251078Y-84051890D01*
X120065405Y-83921879D01*
X120021780Y-83867302D01*
X120014588Y-83797804D01*
X120046110Y-83735449D01*
X120065406Y-83718730D01*
X120251401Y-83588495D01*
X120418495Y-83421401D01*
X120554035Y-83227830D01*
X120653903Y-83013663D01*
X120715063Y-82785408D01*
X120735659Y-82550000D01*
X120715063Y-82314592D01*
X120653903Y-82086337D01*
X120554035Y-81872171D01*
X120418495Y-81678599D01*
X120418494Y-81678597D01*
X120251402Y-81511506D01*
X120251396Y-81511501D01*
X120065842Y-81381575D01*
X120022217Y-81326998D01*
X120015023Y-81257500D01*
X120046546Y-81195145D01*
X120065842Y-81178425D01*
X120088026Y-81162891D01*
X120251401Y-81048495D01*
X120418495Y-80881401D01*
X120554035Y-80687830D01*
X120653903Y-80473663D01*
X120715063Y-80245408D01*
X120735659Y-80010000D01*
X120715063Y-79774592D01*
X120653903Y-79546337D01*
X120554035Y-79332171D01*
X120553780Y-79331807D01*
X120429279Y-79154000D01*
X137494815Y-79154000D01*
X137513503Y-79331805D01*
X137513504Y-79331807D01*
X137568747Y-79501829D01*
X137568750Y-79501835D01*
X137658141Y-79656665D01*
X137699812Y-79702946D01*
X137777764Y-79789521D01*
X137777767Y-79789523D01*
X137777770Y-79789526D01*
X137922407Y-79894612D01*
X138085733Y-79967329D01*
X138260609Y-80004500D01*
X138260610Y-80004500D01*
X138439389Y-80004500D01*
X138439391Y-80004500D01*
X138614267Y-79967329D01*
X138777593Y-79894612D01*
X138922230Y-79789526D01*
X139041859Y-79656665D01*
X139131250Y-79501835D01*
X139186497Y-79331803D01*
X139205185Y-79154000D01*
X139186497Y-78976197D01*
X139135908Y-78820500D01*
X139131252Y-78806170D01*
X139131249Y-78806164D01*
X139041859Y-78651335D01*
X138961723Y-78562335D01*
X138922235Y-78518478D01*
X138922232Y-78518476D01*
X138922231Y-78518475D01*
X138922230Y-78518474D01*
X138777593Y-78413388D01*
X138614267Y-78340671D01*
X138614265Y-78340670D01*
X138486594Y-78313533D01*
X138439391Y-78303500D01*
X138260609Y-78303500D01*
X138229954Y-78310015D01*
X138085733Y-78340670D01*
X138085728Y-78340672D01*
X137922408Y-78413387D01*
X137777768Y-78518475D01*
X137658140Y-78651336D01*
X137568750Y-78806164D01*
X137568747Y-78806170D01*
X137513504Y-78976192D01*
X137513503Y-78976194D01*
X137494815Y-79154000D01*
X120429279Y-79154000D01*
X120418496Y-79138600D01*
X120418495Y-79138599D01*
X120296567Y-79016671D01*
X120263084Y-78955351D01*
X120268068Y-78885659D01*
X120309939Y-78829725D01*
X120340915Y-78812810D01*
X120472331Y-78763796D01*
X120587546Y-78677546D01*
X120673796Y-78562331D01*
X120724091Y-78427483D01*
X120730500Y-78367873D01*
X120730499Y-76572128D01*
X120724091Y-76512517D01*
X120673796Y-76377669D01*
X120673795Y-76377668D01*
X120673793Y-76377664D01*
X120587547Y-76262455D01*
X120587544Y-76262452D01*
X120472335Y-76176206D01*
X120472328Y-76176202D01*
X120337482Y-76125908D01*
X120337483Y-76125908D01*
X120277883Y-76119501D01*
X120277881Y-76119500D01*
X120277873Y-76119500D01*
X120277864Y-76119500D01*
X118482129Y-76119500D01*
X118482123Y-76119501D01*
X118422516Y-76125908D01*
X118287671Y-76176202D01*
X118287664Y-76176206D01*
X118172455Y-76262452D01*
X118172452Y-76262455D01*
X118086206Y-76377664D01*
X118086202Y-76377671D01*
X118035908Y-76512517D01*
X118029501Y-76572116D01*
X118029501Y-76572123D01*
X118029500Y-76572135D01*
X118029500Y-78367870D01*
X118029501Y-78367876D01*
X118035908Y-78427483D01*
X118086202Y-78562328D01*
X118086206Y-78562335D01*
X118172452Y-78677544D01*
X118172455Y-78677547D01*
X118287664Y-78763793D01*
X118287671Y-78763797D01*
X118419081Y-78812810D01*
X118475015Y-78854681D01*
X118499432Y-78920145D01*
X118484580Y-78988418D01*
X118463430Y-79016673D01*
X118341503Y-79138600D01*
X118205965Y-79332169D01*
X118205964Y-79332171D01*
X118106098Y-79546335D01*
X118106094Y-79546344D01*
X118044938Y-79774586D01*
X118044936Y-79774596D01*
X118024341Y-80009999D01*
X118024341Y-80010000D01*
X118044936Y-80245403D01*
X118044938Y-80245413D01*
X118106094Y-80473655D01*
X118106096Y-80473659D01*
X118106097Y-80473663D01*
X118205965Y-80687830D01*
X118205967Y-80687834D01*
X118341501Y-80881395D01*
X118341506Y-80881402D01*
X118508597Y-81048493D01*
X118508603Y-81048498D01*
X118694158Y-81178425D01*
X118737783Y-81233002D01*
X118744977Y-81302500D01*
X118713454Y-81364855D01*
X118694158Y-81381575D01*
X118508597Y-81511505D01*
X118341505Y-81678597D01*
X118205965Y-81872169D01*
X118205964Y-81872171D01*
X118106098Y-82086335D01*
X118106094Y-82086344D01*
X118044938Y-82314586D01*
X118044936Y-82314596D01*
X118024341Y-82549999D01*
X118024341Y-82550000D01*
X118044936Y-82785403D01*
X118044938Y-82785413D01*
X118106094Y-83013655D01*
X118106096Y-83013659D01*
X118106097Y-83013663D01*
X118188131Y-83189584D01*
X118205965Y-83227830D01*
X118205967Y-83227834D01*
X118341501Y-83421395D01*
X118341506Y-83421402D01*
X118508597Y-83588493D01*
X118508603Y-83588498D01*
X118694594Y-83718730D01*
X118738219Y-83773307D01*
X118745413Y-83842805D01*
X118713890Y-83905160D01*
X118694595Y-83921880D01*
X118508922Y-84051890D01*
X118508920Y-84051891D01*
X118341891Y-84218920D01*
X118341886Y-84218926D01*
X118206400Y-84412420D01*
X118206399Y-84412422D01*
X118106570Y-84626507D01*
X118106567Y-84626513D01*
X118049364Y-84839999D01*
X118049364Y-84840000D01*
X118946314Y-84840000D01*
X118920507Y-84880156D01*
X118880000Y-85018111D01*
X118880000Y-85161889D01*
X118920507Y-85299844D01*
X118946314Y-85340000D01*
X118049364Y-85340000D01*
X118106567Y-85553486D01*
X118106570Y-85553492D01*
X118206399Y-85767578D01*
X118341894Y-85961082D01*
X118508917Y-86128105D01*
X118694595Y-86258119D01*
X118738219Y-86312696D01*
X118745412Y-86382195D01*
X118713890Y-86444549D01*
X118694595Y-86461269D01*
X118508594Y-86591508D01*
X118341505Y-86758597D01*
X118205965Y-86952169D01*
X118205964Y-86952171D01*
X118106098Y-87166335D01*
X118106094Y-87166344D01*
X118044938Y-87394586D01*
X118044936Y-87394596D01*
X118024341Y-87629999D01*
X118024341Y-87630000D01*
X118044936Y-87865403D01*
X118044938Y-87865413D01*
X118106094Y-88093655D01*
X118106096Y-88093659D01*
X118106097Y-88093663D01*
X118205965Y-88307830D01*
X118205967Y-88307834D01*
X118341501Y-88501395D01*
X118341506Y-88501402D01*
X118508597Y-88668493D01*
X118508603Y-88668498D01*
X118694158Y-88798425D01*
X118737783Y-88853002D01*
X118744977Y-88922500D01*
X118713454Y-88984855D01*
X118694158Y-89001575D01*
X118508597Y-89131505D01*
X118341505Y-89298597D01*
X118205965Y-89492169D01*
X118205964Y-89492171D01*
X118106098Y-89706335D01*
X118106094Y-89706344D01*
X118044938Y-89934586D01*
X118044936Y-89934596D01*
X118024341Y-90169999D01*
X118024341Y-90170000D01*
X118044936Y-90405403D01*
X118044938Y-90405413D01*
X118106094Y-90633655D01*
X118106096Y-90633659D01*
X118106097Y-90633663D01*
X118205965Y-90847830D01*
X118205967Y-90847834D01*
X118341501Y-91041395D01*
X118341506Y-91041402D01*
X118508597Y-91208493D01*
X118508603Y-91208498D01*
X118694594Y-91338730D01*
X118738219Y-91393307D01*
X118745413Y-91462805D01*
X118713890Y-91525160D01*
X118694595Y-91541880D01*
X118508922Y-91671890D01*
X118508920Y-91671891D01*
X118341891Y-91838920D01*
X118341886Y-91838926D01*
X118206400Y-92032420D01*
X118206399Y-92032422D01*
X118106570Y-92246507D01*
X118106567Y-92246513D01*
X118049364Y-92459999D01*
X118049364Y-92460000D01*
X118946314Y-92460000D01*
X118920507Y-92500156D01*
X118880000Y-92638111D01*
X118880000Y-92781889D01*
X118920507Y-92919844D01*
X118946314Y-92960000D01*
X118049364Y-92960000D01*
X118106567Y-93173486D01*
X118106570Y-93173492D01*
X118206399Y-93387578D01*
X118341894Y-93581082D01*
X118508917Y-93748105D01*
X118694595Y-93878119D01*
X118738219Y-93932696D01*
X118745412Y-94002195D01*
X118713890Y-94064549D01*
X118694595Y-94081269D01*
X118508594Y-94211508D01*
X118341505Y-94378597D01*
X118205965Y-94572169D01*
X118205964Y-94572171D01*
X118106098Y-94786335D01*
X118106094Y-94786344D01*
X118044938Y-95014586D01*
X118044936Y-95014596D01*
X118024341Y-95249999D01*
X118024341Y-95250000D01*
X118044936Y-95485403D01*
X118044938Y-95485413D01*
X118106094Y-95713655D01*
X118106096Y-95713659D01*
X118106097Y-95713663D01*
X118205965Y-95927830D01*
X118205967Y-95927834D01*
X118341501Y-96121395D01*
X118341506Y-96121402D01*
X118508597Y-96288493D01*
X118508603Y-96288498D01*
X118694158Y-96418425D01*
X118737783Y-96473002D01*
X118744977Y-96542500D01*
X118713454Y-96604855D01*
X118694158Y-96621575D01*
X118508597Y-96751505D01*
X118341505Y-96918597D01*
X118205965Y-97112169D01*
X118205964Y-97112171D01*
X118106098Y-97326335D01*
X118106094Y-97326344D01*
X118044938Y-97554586D01*
X118044936Y-97554596D01*
X118024341Y-97789999D01*
X118024341Y-97790000D01*
X118044936Y-98025403D01*
X118044938Y-98025413D01*
X118106094Y-98253655D01*
X118106096Y-98253659D01*
X118106097Y-98253663D01*
X118164401Y-98378696D01*
X118205965Y-98467830D01*
X118205967Y-98467834D01*
X118341501Y-98661395D01*
X118341506Y-98661402D01*
X118508597Y-98828493D01*
X118508603Y-98828498D01*
X118694594Y-98958730D01*
X118738219Y-99013307D01*
X118745413Y-99082805D01*
X118713890Y-99145160D01*
X118694595Y-99161880D01*
X118508922Y-99291890D01*
X118508920Y-99291891D01*
X118341891Y-99458920D01*
X118341886Y-99458926D01*
X118206400Y-99652420D01*
X118206399Y-99652422D01*
X118106570Y-99866507D01*
X118106567Y-99866513D01*
X118049364Y-100079999D01*
X118049364Y-100080000D01*
X118946314Y-100080000D01*
X118920507Y-100120156D01*
X118880000Y-100258111D01*
X118880000Y-100401889D01*
X118920507Y-100539844D01*
X118946314Y-100580000D01*
X118049364Y-100580000D01*
X118106567Y-100793486D01*
X118106570Y-100793492D01*
X118206399Y-101007578D01*
X118341894Y-101201082D01*
X118508917Y-101368105D01*
X118694595Y-101498119D01*
X118738219Y-101552696D01*
X118745412Y-101622195D01*
X118713890Y-101684549D01*
X118694595Y-101701269D01*
X118508594Y-101831508D01*
X118341505Y-101998597D01*
X118205965Y-102192169D01*
X118205964Y-102192171D01*
X118106098Y-102406335D01*
X118106094Y-102406344D01*
X118044938Y-102634586D01*
X118044936Y-102634596D01*
X118024341Y-102869999D01*
X118024341Y-102870000D01*
X118044936Y-103105403D01*
X118044938Y-103105413D01*
X118106094Y-103333655D01*
X118106096Y-103333659D01*
X118106097Y-103333663D01*
X118195875Y-103526192D01*
X118205965Y-103547830D01*
X118205967Y-103547834D01*
X118341501Y-103741395D01*
X118341506Y-103741402D01*
X118508597Y-103908493D01*
X118508603Y-103908498D01*
X118694158Y-104038425D01*
X118737783Y-104093002D01*
X118744977Y-104162500D01*
X118713454Y-104224855D01*
X118694158Y-104241575D01*
X118508597Y-104371505D01*
X118341505Y-104538597D01*
X118205965Y-104732169D01*
X118205964Y-104732171D01*
X118106098Y-104946335D01*
X118106094Y-104946344D01*
X118044938Y-105174586D01*
X118044936Y-105174596D01*
X118024341Y-105409999D01*
X118024341Y-105410000D01*
X118044936Y-105645403D01*
X118044938Y-105645413D01*
X118106094Y-105873655D01*
X118106096Y-105873659D01*
X118106097Y-105873663D01*
X118130592Y-105926192D01*
X118205965Y-106087830D01*
X118205967Y-106087834D01*
X118341501Y-106281395D01*
X118341506Y-106281402D01*
X118508597Y-106448493D01*
X118508603Y-106448498D01*
X118694594Y-106578730D01*
X118738219Y-106633307D01*
X118745413Y-106702805D01*
X118713890Y-106765160D01*
X118694595Y-106781880D01*
X118508922Y-106911890D01*
X118508920Y-106911891D01*
X118341891Y-107078920D01*
X118341886Y-107078926D01*
X118206400Y-107272420D01*
X118206399Y-107272422D01*
X118106570Y-107486507D01*
X118106567Y-107486513D01*
X118049364Y-107699999D01*
X118049364Y-107700000D01*
X118946314Y-107700000D01*
X118920507Y-107740156D01*
X118880000Y-107878111D01*
X118880000Y-108021889D01*
X118920507Y-108159844D01*
X118946314Y-108200000D01*
X118049364Y-108200000D01*
X118106567Y-108413486D01*
X118106570Y-108413492D01*
X118206399Y-108627578D01*
X118341894Y-108821082D01*
X118508917Y-108988105D01*
X118694595Y-109118119D01*
X118738219Y-109172696D01*
X118745412Y-109242195D01*
X118713890Y-109304549D01*
X118694595Y-109321269D01*
X118508594Y-109451508D01*
X118341505Y-109618597D01*
X118205965Y-109812169D01*
X118205964Y-109812171D01*
X118106098Y-110026335D01*
X118106094Y-110026344D01*
X118044938Y-110254586D01*
X118044936Y-110254596D01*
X118024341Y-110489999D01*
X118024341Y-110490000D01*
X118044936Y-110725403D01*
X118044938Y-110725413D01*
X118106094Y-110953655D01*
X118106096Y-110953659D01*
X118106097Y-110953663D01*
X118205965Y-111167830D01*
X118205967Y-111167834D01*
X118341501Y-111361395D01*
X118341506Y-111361402D01*
X118508597Y-111528493D01*
X118508603Y-111528498D01*
X118694158Y-111658425D01*
X118737783Y-111713002D01*
X118744977Y-111782500D01*
X118713454Y-111844855D01*
X118694158Y-111861575D01*
X118508597Y-111991505D01*
X118341505Y-112158597D01*
X118205965Y-112352169D01*
X118205964Y-112352171D01*
X118106098Y-112566335D01*
X118106094Y-112566344D01*
X118044938Y-112794586D01*
X118044936Y-112794596D01*
X118024341Y-113029999D01*
X118024341Y-113030000D01*
X118044936Y-113265403D01*
X118044938Y-113265413D01*
X118106094Y-113493655D01*
X118106096Y-113493659D01*
X118106097Y-113493663D01*
X118205965Y-113707830D01*
X118205967Y-113707834D01*
X118341501Y-113901395D01*
X118341506Y-113901402D01*
X118508597Y-114068493D01*
X118508603Y-114068498D01*
X118694594Y-114198730D01*
X118738219Y-114253307D01*
X118745413Y-114322805D01*
X118713890Y-114385160D01*
X118694595Y-114401880D01*
X118508922Y-114531890D01*
X118508920Y-114531891D01*
X118341891Y-114698920D01*
X118341886Y-114698926D01*
X118206400Y-114892420D01*
X118206399Y-114892422D01*
X118106570Y-115106507D01*
X118106567Y-115106513D01*
X118049364Y-115319999D01*
X118049364Y-115320000D01*
X118946314Y-115320000D01*
X118920507Y-115360156D01*
X118880000Y-115498111D01*
X118880000Y-115641889D01*
X118920507Y-115779844D01*
X118946314Y-115820000D01*
X118049364Y-115820000D01*
X118106567Y-116033486D01*
X118106570Y-116033492D01*
X118206400Y-116247579D01*
X118206404Y-116247585D01*
X118314360Y-116401761D01*
X118336688Y-116467967D01*
X118319678Y-116535734D01*
X118268730Y-116583548D01*
X118213667Y-116596882D01*
X117625381Y-116601061D01*
X117558203Y-116581853D01*
X117512074Y-116529375D01*
X117500500Y-116477064D01*
X117500500Y-75651348D01*
X117520185Y-75584309D01*
X117536550Y-75563935D01*
X119763844Y-73323084D01*
X119825065Y-73289414D01*
X119851791Y-73286500D01*
X119888378Y-73286500D01*
X141426456Y-73365546D01*
G37*
%TD.AperFunction*%
%TD*%
%TA.AperFunction,Conductor*%
%TO.N,GND*%
G36*
X136470507Y-126244156D02*
G01*
X136430000Y-126382111D01*
X136430000Y-126525889D01*
X136470507Y-126663844D01*
X136496314Y-126704000D01*
X134823686Y-126704000D01*
X134849493Y-126663844D01*
X134890000Y-126525889D01*
X134890000Y-126382111D01*
X134849493Y-126244156D01*
X134823686Y-126204000D01*
X136496314Y-126204000D01*
X136470507Y-126244156D01*
G37*
%TD.AperFunction*%
%TA.AperFunction,Conductor*%
G36*
X166942539Y-73306185D02*
G01*
X166988294Y-73358989D01*
X166999500Y-73410500D01*
X166999500Y-128025500D01*
X166979815Y-128092539D01*
X166927011Y-128138294D01*
X166875500Y-128149500D01*
X117624500Y-128149500D01*
X117557461Y-128129815D01*
X117511706Y-128077011D01*
X117500500Y-128025500D01*
X117500500Y-117228000D01*
X117520185Y-117160961D01*
X117572989Y-117115206D01*
X117624500Y-117104000D01*
X118197550Y-117104000D01*
X118264589Y-117123685D01*
X118310344Y-117176489D01*
X118320288Y-117245647D01*
X118299125Y-117299123D01*
X118205965Y-117432169D01*
X118205964Y-117432171D01*
X118106098Y-117646335D01*
X118106094Y-117646344D01*
X118044938Y-117874586D01*
X118044936Y-117874596D01*
X118024341Y-118109999D01*
X118024341Y-118110000D01*
X118044936Y-118345403D01*
X118044938Y-118345413D01*
X118106094Y-118573655D01*
X118106096Y-118573659D01*
X118106097Y-118573663D01*
X118163736Y-118697270D01*
X118205965Y-118787830D01*
X118205967Y-118787834D01*
X118341501Y-118981395D01*
X118341506Y-118981402D01*
X118508597Y-119148493D01*
X118508603Y-119148498D01*
X118694158Y-119278425D01*
X118737783Y-119333002D01*
X118744977Y-119402500D01*
X118713454Y-119464855D01*
X118694158Y-119481575D01*
X118508597Y-119611505D01*
X118341505Y-119778597D01*
X118205965Y-119972169D01*
X118205964Y-119972171D01*
X118106098Y-120186335D01*
X118106094Y-120186344D01*
X118044938Y-120414586D01*
X118044936Y-120414596D01*
X118024341Y-120649999D01*
X118024341Y-120650000D01*
X118044936Y-120885403D01*
X118044938Y-120885413D01*
X118106094Y-121113655D01*
X118106096Y-121113659D01*
X118106097Y-121113663D01*
X118160189Y-121229663D01*
X118205965Y-121327830D01*
X118205967Y-121327834D01*
X118341501Y-121521395D01*
X118341506Y-121521402D01*
X118508597Y-121688493D01*
X118508603Y-121688498D01*
X118694594Y-121818730D01*
X118738219Y-121873307D01*
X118745413Y-121942805D01*
X118713890Y-122005160D01*
X118694595Y-122021880D01*
X118508922Y-122151890D01*
X118508920Y-122151891D01*
X118341891Y-122318920D01*
X118341886Y-122318926D01*
X118206400Y-122512420D01*
X118206399Y-122512422D01*
X118106570Y-122726507D01*
X118106567Y-122726513D01*
X118049364Y-122939999D01*
X118049364Y-122940000D01*
X118946314Y-122940000D01*
X118920507Y-122980156D01*
X118880000Y-123118111D01*
X118880000Y-123261889D01*
X118920507Y-123399844D01*
X118946314Y-123440000D01*
X118049364Y-123440000D01*
X118106567Y-123653486D01*
X118106570Y-123653492D01*
X118206399Y-123867578D01*
X118341894Y-124061082D01*
X118508917Y-124228105D01*
X118694595Y-124358119D01*
X118738219Y-124412696D01*
X118745412Y-124482195D01*
X118713890Y-124544549D01*
X118694595Y-124561269D01*
X118508594Y-124691508D01*
X118341505Y-124858597D01*
X118205965Y-125052169D01*
X118205964Y-125052171D01*
X118106098Y-125266335D01*
X118106094Y-125266344D01*
X118044938Y-125494586D01*
X118044936Y-125494596D01*
X118024341Y-125729999D01*
X118024341Y-125730000D01*
X118044936Y-125965403D01*
X118044938Y-125965413D01*
X118106094Y-126193655D01*
X118106096Y-126193659D01*
X118106097Y-126193663D01*
X118137479Y-126260961D01*
X118205965Y-126407830D01*
X118205967Y-126407834D01*
X118288631Y-126525889D01*
X118341505Y-126601401D01*
X118508599Y-126768495D01*
X118585135Y-126822086D01*
X118702165Y-126904032D01*
X118702167Y-126904033D01*
X118702170Y-126904035D01*
X118916337Y-127003903D01*
X119144592Y-127065063D01*
X119315319Y-127080000D01*
X119379999Y-127085659D01*
X119380000Y-127085659D01*
X119380001Y-127085659D01*
X119444681Y-127080000D01*
X119615408Y-127065063D01*
X119843663Y-127003903D01*
X120057830Y-126904035D01*
X120251401Y-126768495D01*
X120418495Y-126601401D01*
X120431990Y-126582128D01*
X124386066Y-126582128D01*
X124404754Y-126759933D01*
X124404755Y-126759935D01*
X124459998Y-126929957D01*
X124460001Y-126929963D01*
X124549392Y-127084793D01*
X124559286Y-127095781D01*
X124669015Y-127217649D01*
X124669018Y-127217651D01*
X124669021Y-127217654D01*
X124813658Y-127322740D01*
X124976984Y-127395457D01*
X125151860Y-127432628D01*
X125151861Y-127432628D01*
X125330640Y-127432628D01*
X125330642Y-127432628D01*
X125505518Y-127395457D01*
X125668844Y-127322740D01*
X125813481Y-127217654D01*
X125933110Y-127084793D01*
X126022501Y-126929963D01*
X126077748Y-126759931D01*
X126096436Y-126582128D01*
X126077748Y-126404325D01*
X126048132Y-126313178D01*
X126022501Y-126234292D01*
X126017008Y-126224779D01*
X126000532Y-126156879D01*
X126017004Y-126100776D01*
X126030250Y-126077835D01*
X126085497Y-125907803D01*
X126104185Y-125730000D01*
X126085497Y-125552197D01*
X126030250Y-125382165D01*
X126028242Y-125375984D01*
X126030159Y-125375360D01*
X126022130Y-125315567D01*
X126028784Y-125292902D01*
X126028242Y-125292726D01*
X126070781Y-125161804D01*
X126085497Y-125116513D01*
X126104185Y-124938710D01*
X126085497Y-124760907D01*
X126045534Y-124637913D01*
X126030252Y-124590880D01*
X126030249Y-124590874D01*
X125940859Y-124436045D01*
X125888292Y-124377664D01*
X125821235Y-124303188D01*
X125821232Y-124303186D01*
X125821231Y-124303185D01*
X125821230Y-124303184D01*
X125676593Y-124198098D01*
X125513267Y-124125381D01*
X125513265Y-124125380D01*
X125385594Y-124098243D01*
X125338391Y-124088210D01*
X125159609Y-124088210D01*
X125128954Y-124094725D01*
X124984733Y-124125380D01*
X124984728Y-124125382D01*
X124821408Y-124198097D01*
X124676768Y-124303185D01*
X124557140Y-124436046D01*
X124467750Y-124590874D01*
X124467747Y-124590880D01*
X124412504Y-124760902D01*
X124412503Y-124760904D01*
X124393815Y-124938710D01*
X124412503Y-125116515D01*
X124412504Y-125116517D01*
X124469758Y-125292726D01*
X124467846Y-125293347D01*
X124475865Y-125353174D01*
X124469218Y-125375808D01*
X124469758Y-125375984D01*
X124412504Y-125552192D01*
X124412503Y-125552194D01*
X124393815Y-125730000D01*
X124412503Y-125907805D01*
X124412504Y-125907807D01*
X124467750Y-126077835D01*
X124473246Y-126087355D01*
X124489716Y-126155256D01*
X124473247Y-126211347D01*
X124460001Y-126234291D01*
X124404755Y-126404320D01*
X124404754Y-126404322D01*
X124386066Y-126582128D01*
X120431990Y-126582128D01*
X120554035Y-126407830D01*
X120653903Y-126193663D01*
X120715063Y-125965408D01*
X120735659Y-125730000D01*
X120715063Y-125494592D01*
X120659318Y-125286545D01*
X120653905Y-125266344D01*
X120653904Y-125266343D01*
X120653903Y-125266337D01*
X120554035Y-125052171D01*
X120544352Y-125038341D01*
X120418494Y-124858597D01*
X120251402Y-124691506D01*
X120251401Y-124691505D01*
X120065405Y-124561269D01*
X120021781Y-124506692D01*
X120014588Y-124437193D01*
X120046110Y-124374839D01*
X120065405Y-124358119D01*
X120251082Y-124228105D01*
X120418105Y-124061082D01*
X120521094Y-123914000D01*
X130494341Y-123914000D01*
X130514936Y-124149403D01*
X130514938Y-124149413D01*
X130576094Y-124377655D01*
X130576096Y-124377659D01*
X130576097Y-124377663D01*
X130654435Y-124545659D01*
X130675965Y-124591830D01*
X130675967Y-124591834D01*
X130745758Y-124691505D01*
X130811501Y-124785396D01*
X130811506Y-124785402D01*
X130933430Y-124907326D01*
X130966915Y-124968649D01*
X130961931Y-125038341D01*
X130920059Y-125094274D01*
X130889083Y-125111189D01*
X130757669Y-125160203D01*
X130757664Y-125160206D01*
X130642455Y-125246452D01*
X130642452Y-125246455D01*
X130556206Y-125361664D01*
X130556202Y-125361671D01*
X130505908Y-125496517D01*
X130499501Y-125556116D01*
X130499500Y-125556135D01*
X130499500Y-127351870D01*
X130499501Y-127351876D01*
X130505908Y-127411483D01*
X130556202Y-127546328D01*
X130556206Y-127546335D01*
X130642452Y-127661544D01*
X130642455Y-127661547D01*
X130757664Y-127747793D01*
X130757671Y-127747797D01*
X130892517Y-127798091D01*
X130892516Y-127798091D01*
X130899444Y-127798835D01*
X130952127Y-127804500D01*
X132747872Y-127804499D01*
X132807483Y-127798091D01*
X132942331Y-127747796D01*
X133057546Y-127661546D01*
X133143796Y-127546331D01*
X133193002Y-127414401D01*
X133234872Y-127358468D01*
X133300337Y-127334050D01*
X133368610Y-127348901D01*
X133396865Y-127370053D01*
X133518917Y-127492105D01*
X133712421Y-127627600D01*
X133926507Y-127727429D01*
X133926516Y-127727433D01*
X134140000Y-127784634D01*
X134140000Y-126889501D01*
X134247685Y-126938680D01*
X134354237Y-126954000D01*
X134425763Y-126954000D01*
X134532315Y-126938680D01*
X134640000Y-126889501D01*
X134640000Y-127784633D01*
X134853483Y-127727433D01*
X134853492Y-127727429D01*
X135067578Y-127627600D01*
X135261082Y-127492105D01*
X135428105Y-127325082D01*
X135558425Y-127138968D01*
X135613002Y-127095344D01*
X135682501Y-127088151D01*
X135744855Y-127119673D01*
X135761575Y-127138968D01*
X135891894Y-127325082D01*
X136058917Y-127492105D01*
X136252421Y-127627600D01*
X136466507Y-127727429D01*
X136466516Y-127727433D01*
X136680000Y-127784634D01*
X136680000Y-126889501D01*
X136787685Y-126938680D01*
X136894237Y-126954000D01*
X136965763Y-126954000D01*
X137072315Y-126938680D01*
X137180000Y-126889501D01*
X137180000Y-127784633D01*
X137393483Y-127727433D01*
X137393492Y-127727429D01*
X137607578Y-127627600D01*
X137801082Y-127492105D01*
X137968105Y-127325082D01*
X138098119Y-127139405D01*
X138152696Y-127095781D01*
X138222195Y-127088588D01*
X138284549Y-127120110D01*
X138301269Y-127139405D01*
X138431505Y-127325401D01*
X138598599Y-127492495D01*
X138695384Y-127560265D01*
X138792165Y-127628032D01*
X138792167Y-127628033D01*
X138792170Y-127628035D01*
X139006337Y-127727903D01*
X139234592Y-127789063D01*
X139411034Y-127804500D01*
X139469999Y-127809659D01*
X139470000Y-127809659D01*
X139470001Y-127809659D01*
X139528966Y-127804500D01*
X139705408Y-127789063D01*
X139933663Y-127727903D01*
X140147830Y-127628035D01*
X140341401Y-127492495D01*
X140508495Y-127325401D01*
X140638730Y-127139405D01*
X140693307Y-127095781D01*
X140762805Y-127088587D01*
X140825160Y-127120110D01*
X140841879Y-127139405D01*
X140971890Y-127325078D01*
X141138917Y-127492105D01*
X141332421Y-127627600D01*
X141546507Y-127727429D01*
X141546516Y-127727433D01*
X141760000Y-127784634D01*
X141760000Y-126889501D01*
X141867685Y-126938680D01*
X141974237Y-126954000D01*
X142045763Y-126954000D01*
X142152315Y-126938680D01*
X142260000Y-126889501D01*
X142260000Y-127784633D01*
X142473483Y-127727433D01*
X142473492Y-127727429D01*
X142687578Y-127627600D01*
X142881082Y-127492105D01*
X143048105Y-127325082D01*
X143183600Y-127131578D01*
X143283429Y-126917492D01*
X143283432Y-126917486D01*
X143340636Y-126704000D01*
X142443686Y-126704000D01*
X142469493Y-126663844D01*
X142510000Y-126525889D01*
X142510000Y-126382111D01*
X142469493Y-126244156D01*
X142443686Y-126204000D01*
X143340636Y-126204000D01*
X143340635Y-126203999D01*
X143283432Y-125990513D01*
X143283429Y-125990507D01*
X143183600Y-125776422D01*
X143183599Y-125776420D01*
X143048113Y-125582926D01*
X143048108Y-125582920D01*
X142881078Y-125415890D01*
X142695405Y-125285879D01*
X142651780Y-125231302D01*
X142644588Y-125161804D01*
X142676110Y-125099449D01*
X142695406Y-125082730D01*
X142695842Y-125082425D01*
X142881401Y-124952495D01*
X143048495Y-124785401D01*
X143184035Y-124591830D01*
X143283903Y-124377663D01*
X143345063Y-124149408D01*
X143365659Y-123914000D01*
X143345063Y-123678592D01*
X143283903Y-123450337D01*
X143184035Y-123236171D01*
X143178425Y-123228158D01*
X143151707Y-123190000D01*
X163744341Y-123190000D01*
X163764936Y-123425403D01*
X163764938Y-123425413D01*
X163826094Y-123653655D01*
X163826096Y-123653659D01*
X163826097Y-123653663D01*
X163925847Y-123867578D01*
X163925965Y-123867830D01*
X163925967Y-123867834D01*
X164034281Y-124022521D01*
X164061501Y-124061396D01*
X164061506Y-124061402D01*
X164183818Y-124183714D01*
X164217303Y-124245037D01*
X164212319Y-124314729D01*
X164170447Y-124370662D01*
X164139471Y-124387577D01*
X164007912Y-124436646D01*
X164007906Y-124436649D01*
X163892812Y-124522809D01*
X163892809Y-124522812D01*
X163806649Y-124637906D01*
X163806645Y-124637913D01*
X163756403Y-124772620D01*
X163756401Y-124772627D01*
X163750000Y-124832155D01*
X163750000Y-125480000D01*
X164666314Y-125480000D01*
X164640507Y-125520156D01*
X164600000Y-125658111D01*
X164600000Y-125801889D01*
X164640507Y-125939844D01*
X164666314Y-125980000D01*
X163750000Y-125980000D01*
X163750000Y-126627844D01*
X163756401Y-126687372D01*
X163756403Y-126687379D01*
X163806645Y-126822086D01*
X163806649Y-126822093D01*
X163892809Y-126937187D01*
X163892812Y-126937190D01*
X164007906Y-127023350D01*
X164007913Y-127023354D01*
X164142620Y-127073596D01*
X164142627Y-127073598D01*
X164202155Y-127079999D01*
X164202172Y-127080000D01*
X164850000Y-127080000D01*
X164850000Y-126165501D01*
X164957685Y-126214680D01*
X165064237Y-126230000D01*
X165135763Y-126230000D01*
X165242315Y-126214680D01*
X165350000Y-126165501D01*
X165350000Y-127080000D01*
X165997828Y-127080000D01*
X165997844Y-127079999D01*
X166057372Y-127073598D01*
X166057379Y-127073596D01*
X166192086Y-127023354D01*
X166192093Y-127023350D01*
X166307187Y-126937190D01*
X166307190Y-126937187D01*
X166393350Y-126822093D01*
X166393354Y-126822086D01*
X166443596Y-126687379D01*
X166443598Y-126687372D01*
X166449999Y-126627844D01*
X166450000Y-126627827D01*
X166450000Y-125980000D01*
X165533686Y-125980000D01*
X165559493Y-125939844D01*
X165600000Y-125801889D01*
X165600000Y-125658111D01*
X165559493Y-125520156D01*
X165533686Y-125480000D01*
X166450000Y-125480000D01*
X166450000Y-124832172D01*
X166449999Y-124832155D01*
X166443598Y-124772627D01*
X166443596Y-124772620D01*
X166393354Y-124637913D01*
X166393350Y-124637906D01*
X166307190Y-124522812D01*
X166307187Y-124522809D01*
X166192093Y-124436649D01*
X166192088Y-124436646D01*
X166060528Y-124387577D01*
X166004595Y-124345705D01*
X165980178Y-124280241D01*
X165995030Y-124211968D01*
X166016175Y-124183720D01*
X166138495Y-124061401D01*
X166274035Y-123867830D01*
X166373903Y-123653663D01*
X166435063Y-123425408D01*
X166455659Y-123190000D01*
X166435063Y-122954592D01*
X166373903Y-122726337D01*
X166274035Y-122512171D01*
X166138495Y-122318599D01*
X166138494Y-122318597D01*
X165971402Y-122151506D01*
X165971396Y-122151501D01*
X165785842Y-122021575D01*
X165742217Y-121966998D01*
X165735023Y-121897500D01*
X165766546Y-121835145D01*
X165785842Y-121818425D01*
X165808026Y-121802891D01*
X165971401Y-121688495D01*
X166138495Y-121521401D01*
X166274035Y-121327830D01*
X166373903Y-121113663D01*
X166435063Y-120885408D01*
X166455659Y-120650000D01*
X166435063Y-120414592D01*
X166373903Y-120186337D01*
X166274035Y-119972171D01*
X166233073Y-119913670D01*
X166138494Y-119778597D01*
X165971402Y-119611506D01*
X165971401Y-119611505D01*
X165785405Y-119481269D01*
X165741781Y-119426692D01*
X165734588Y-119357193D01*
X165766110Y-119294839D01*
X165785405Y-119278119D01*
X165971082Y-119148105D01*
X166138105Y-118981082D01*
X166273600Y-118787578D01*
X166373429Y-118573492D01*
X166373432Y-118573486D01*
X166430636Y-118360000D01*
X165533686Y-118360000D01*
X165559493Y-118319844D01*
X165600000Y-118181889D01*
X165600000Y-118038111D01*
X165559493Y-117900156D01*
X165533686Y-117860000D01*
X166430636Y-117860000D01*
X166430635Y-117859999D01*
X166373432Y-117646513D01*
X166373429Y-117646507D01*
X166273600Y-117432422D01*
X166273599Y-117432420D01*
X166138113Y-117238926D01*
X166138108Y-117238920D01*
X165971078Y-117071890D01*
X165785405Y-116941879D01*
X165741780Y-116887302D01*
X165734588Y-116817804D01*
X165766110Y-116755449D01*
X165785406Y-116738730D01*
X165971401Y-116608495D01*
X166138495Y-116441401D01*
X166274035Y-116247830D01*
X166373903Y-116033663D01*
X166435063Y-115805408D01*
X166455659Y-115570000D01*
X166435063Y-115334592D01*
X166373903Y-115106337D01*
X166274035Y-114892171D01*
X166236376Y-114838387D01*
X166138494Y-114698597D01*
X165971402Y-114531506D01*
X165971396Y-114531501D01*
X165785842Y-114401575D01*
X165742217Y-114346998D01*
X165735023Y-114277500D01*
X165766546Y-114215145D01*
X165785842Y-114198425D01*
X165808026Y-114182891D01*
X165971401Y-114068495D01*
X166138495Y-113901401D01*
X166274035Y-113707830D01*
X166373903Y-113493663D01*
X166435063Y-113265408D01*
X166455659Y-113030000D01*
X166435063Y-112794592D01*
X166373903Y-112566337D01*
X166274035Y-112352171D01*
X166242172Y-112306665D01*
X166138494Y-112158597D01*
X165971402Y-111991506D01*
X165971401Y-111991505D01*
X165785405Y-111861269D01*
X165741781Y-111806692D01*
X165734588Y-111737193D01*
X165766110Y-111674839D01*
X165785405Y-111658119D01*
X165971082Y-111528105D01*
X166138105Y-111361082D01*
X166273600Y-111167578D01*
X166373429Y-110953492D01*
X166373432Y-110953486D01*
X166430636Y-110740000D01*
X165533686Y-110740000D01*
X165559493Y-110699844D01*
X165600000Y-110561889D01*
X165600000Y-110418111D01*
X165559493Y-110280156D01*
X165533686Y-110240000D01*
X166430636Y-110240000D01*
X166430635Y-110239999D01*
X166373432Y-110026513D01*
X166373429Y-110026507D01*
X166273600Y-109812422D01*
X166273599Y-109812420D01*
X166138113Y-109618926D01*
X166138108Y-109618920D01*
X165971078Y-109451890D01*
X165785405Y-109321879D01*
X165741780Y-109267302D01*
X165734588Y-109197804D01*
X165766110Y-109135449D01*
X165785406Y-109118730D01*
X165806484Y-109103971D01*
X165971401Y-108988495D01*
X166138495Y-108821401D01*
X166274035Y-108627830D01*
X166373903Y-108413663D01*
X166435063Y-108185408D01*
X166455659Y-107950000D01*
X166435063Y-107714592D01*
X166373903Y-107486337D01*
X166274035Y-107272171D01*
X166223151Y-107199500D01*
X166138494Y-107078597D01*
X165971402Y-106911506D01*
X165971396Y-106911501D01*
X165785842Y-106781575D01*
X165742217Y-106726998D01*
X165735023Y-106657500D01*
X165766546Y-106595145D01*
X165785842Y-106578425D01*
X165871632Y-106518354D01*
X165971401Y-106448495D01*
X166138495Y-106281401D01*
X166274035Y-106087830D01*
X166373903Y-105873663D01*
X166435063Y-105645408D01*
X166455659Y-105410000D01*
X166435063Y-105174592D01*
X166373903Y-104946337D01*
X166274035Y-104732171D01*
X166145434Y-104548508D01*
X166138494Y-104538597D01*
X165971402Y-104371506D01*
X165971401Y-104371505D01*
X165785405Y-104241269D01*
X165741781Y-104186692D01*
X165734588Y-104117193D01*
X165766110Y-104054839D01*
X165785405Y-104038119D01*
X165971082Y-103908105D01*
X166138105Y-103741082D01*
X166273600Y-103547578D01*
X166373429Y-103333492D01*
X166373432Y-103333486D01*
X166430636Y-103120000D01*
X165533686Y-103120000D01*
X165559493Y-103079844D01*
X165600000Y-102941889D01*
X165600000Y-102798111D01*
X165559493Y-102660156D01*
X165533686Y-102620000D01*
X166430636Y-102620000D01*
X166430635Y-102619999D01*
X166373432Y-102406513D01*
X166373429Y-102406507D01*
X166273600Y-102192422D01*
X166273599Y-102192420D01*
X166138113Y-101998926D01*
X166138108Y-101998920D01*
X165971078Y-101831890D01*
X165785405Y-101701879D01*
X165741780Y-101647302D01*
X165734588Y-101577804D01*
X165766110Y-101515449D01*
X165785406Y-101498730D01*
X165971401Y-101368495D01*
X166138495Y-101201401D01*
X166274035Y-101007830D01*
X166373903Y-100793663D01*
X166435063Y-100565408D01*
X166455659Y-100330000D01*
X166435063Y-100094592D01*
X166373903Y-99866337D01*
X166274035Y-99652171D01*
X166223151Y-99579500D01*
X166138494Y-99458597D01*
X165971402Y-99291506D01*
X165971396Y-99291501D01*
X165785842Y-99161575D01*
X165742217Y-99106998D01*
X165735023Y-99037500D01*
X165766546Y-98975145D01*
X165785842Y-98958425D01*
X165884068Y-98889646D01*
X165971401Y-98828495D01*
X166138495Y-98661401D01*
X166274035Y-98467830D01*
X166373903Y-98253663D01*
X166435063Y-98025408D01*
X166455659Y-97790000D01*
X166435063Y-97554592D01*
X166373903Y-97326337D01*
X166274035Y-97112171D01*
X166138495Y-96918599D01*
X166138494Y-96918597D01*
X165971402Y-96751506D01*
X165971401Y-96751505D01*
X165785405Y-96621269D01*
X165741781Y-96566692D01*
X165734588Y-96497193D01*
X165766110Y-96434839D01*
X165785405Y-96418119D01*
X165971082Y-96288105D01*
X166138105Y-96121082D01*
X166273600Y-95927578D01*
X166373429Y-95713492D01*
X166373432Y-95713486D01*
X166430636Y-95500000D01*
X165533686Y-95500000D01*
X165559493Y-95459844D01*
X165600000Y-95321889D01*
X165600000Y-95178111D01*
X165559493Y-95040156D01*
X165533686Y-95000000D01*
X166430636Y-95000000D01*
X166430635Y-94999999D01*
X166373432Y-94786513D01*
X166373429Y-94786507D01*
X166273600Y-94572422D01*
X166273599Y-94572420D01*
X166138113Y-94378926D01*
X166138108Y-94378920D01*
X165971078Y-94211890D01*
X165785405Y-94081879D01*
X165741780Y-94027302D01*
X165734588Y-93957804D01*
X165766110Y-93895449D01*
X165785406Y-93878730D01*
X165971401Y-93748495D01*
X166138495Y-93581401D01*
X166274035Y-93387830D01*
X166373903Y-93173663D01*
X166435063Y-92945408D01*
X166455659Y-92710000D01*
X166435063Y-92474592D01*
X166373903Y-92246337D01*
X166274035Y-92032171D01*
X166245833Y-91991893D01*
X166138494Y-91838597D01*
X165971402Y-91671506D01*
X165971396Y-91671501D01*
X165785842Y-91541575D01*
X165742217Y-91486998D01*
X165735023Y-91417500D01*
X165766546Y-91355145D01*
X165785842Y-91338425D01*
X165808026Y-91322891D01*
X165971401Y-91208495D01*
X166138495Y-91041401D01*
X166274035Y-90847830D01*
X166373903Y-90633663D01*
X166435063Y-90405408D01*
X166455659Y-90170000D01*
X166435063Y-89934592D01*
X166373903Y-89706337D01*
X166274035Y-89492171D01*
X166138495Y-89298599D01*
X166138494Y-89298597D01*
X165971402Y-89131506D01*
X165971401Y-89131505D01*
X165785405Y-89001269D01*
X165741781Y-88946692D01*
X165734588Y-88877193D01*
X165766110Y-88814839D01*
X165785405Y-88798119D01*
X165971082Y-88668105D01*
X166138105Y-88501082D01*
X166273600Y-88307578D01*
X166373429Y-88093492D01*
X166373432Y-88093486D01*
X166430636Y-87880000D01*
X165533686Y-87880000D01*
X165559493Y-87839844D01*
X165600000Y-87701889D01*
X165600000Y-87558111D01*
X165559493Y-87420156D01*
X165533686Y-87380000D01*
X166430636Y-87380000D01*
X166430635Y-87379999D01*
X166373432Y-87166513D01*
X166373429Y-87166507D01*
X166273600Y-86952422D01*
X166273599Y-86952420D01*
X166138113Y-86758926D01*
X166138108Y-86758920D01*
X165971078Y-86591890D01*
X165785405Y-86461879D01*
X165741780Y-86407302D01*
X165734588Y-86337804D01*
X165766110Y-86275449D01*
X165785406Y-86258730D01*
X165788358Y-86256663D01*
X165971401Y-86128495D01*
X166138495Y-85961401D01*
X166274035Y-85767830D01*
X166373903Y-85553663D01*
X166435063Y-85325408D01*
X166455659Y-85090000D01*
X166435063Y-84854592D01*
X166373903Y-84626337D01*
X166274035Y-84412171D01*
X166234820Y-84356165D01*
X166138494Y-84218597D01*
X165971402Y-84051506D01*
X165971396Y-84051501D01*
X165785842Y-83921575D01*
X165742217Y-83866998D01*
X165735023Y-83797500D01*
X165766546Y-83735145D01*
X165785842Y-83718425D01*
X165808026Y-83702891D01*
X165971401Y-83588495D01*
X166138495Y-83421401D01*
X166274035Y-83227830D01*
X166373903Y-83013663D01*
X166435063Y-82785408D01*
X166455659Y-82550000D01*
X166435063Y-82314592D01*
X166373903Y-82086337D01*
X166274035Y-81872171D01*
X166226302Y-81804000D01*
X166138494Y-81678597D01*
X165971402Y-81511506D01*
X165971401Y-81511505D01*
X165785405Y-81381269D01*
X165741781Y-81326692D01*
X165734588Y-81257193D01*
X165766110Y-81194839D01*
X165785405Y-81178119D01*
X165971082Y-81048105D01*
X166138105Y-80881082D01*
X166273600Y-80687578D01*
X166373429Y-80473492D01*
X166373432Y-80473486D01*
X166430636Y-80260000D01*
X165533686Y-80260000D01*
X165559493Y-80219844D01*
X165600000Y-80081889D01*
X165600000Y-79938111D01*
X165559493Y-79800156D01*
X165533686Y-79760000D01*
X166430636Y-79760000D01*
X166430635Y-79759999D01*
X166373432Y-79546513D01*
X166373429Y-79546507D01*
X166273600Y-79332422D01*
X166273599Y-79332420D01*
X166138113Y-79138926D01*
X166138108Y-79138920D01*
X165971078Y-78971890D01*
X165785405Y-78841879D01*
X165741780Y-78787302D01*
X165734588Y-78717804D01*
X165766110Y-78655449D01*
X165785406Y-78638730D01*
X165894515Y-78562331D01*
X165971401Y-78508495D01*
X166138495Y-78341401D01*
X166274035Y-78147830D01*
X166373903Y-77933663D01*
X166435063Y-77705408D01*
X166455659Y-77470000D01*
X166435063Y-77234592D01*
X166373903Y-77006337D01*
X166274035Y-76792171D01*
X166138495Y-76598599D01*
X166138494Y-76598597D01*
X165971402Y-76431506D01*
X165971401Y-76431505D01*
X165785405Y-76301269D01*
X165741781Y-76246692D01*
X165734588Y-76177193D01*
X165766110Y-76114839D01*
X165785405Y-76098119D01*
X165971082Y-75968105D01*
X166138105Y-75801082D01*
X166273600Y-75607578D01*
X166373429Y-75393492D01*
X166373432Y-75393486D01*
X166430636Y-75180000D01*
X165533686Y-75180000D01*
X165559493Y-75139844D01*
X165600000Y-75001889D01*
X165600000Y-74858111D01*
X165559493Y-74720156D01*
X165533686Y-74680000D01*
X166430636Y-74680000D01*
X166430635Y-74679999D01*
X166373432Y-74466513D01*
X166373429Y-74466507D01*
X166273600Y-74252422D01*
X166273599Y-74252420D01*
X166138113Y-74058926D01*
X166138108Y-74058920D01*
X165971082Y-73891894D01*
X165777578Y-73756399D01*
X165563492Y-73656570D01*
X165563486Y-73656567D01*
X165350000Y-73599364D01*
X165350000Y-74494498D01*
X165242315Y-74445320D01*
X165135763Y-74430000D01*
X165064237Y-74430000D01*
X164957685Y-74445320D01*
X164850000Y-74494498D01*
X164850000Y-73599364D01*
X164849999Y-73599364D01*
X164636513Y-73656567D01*
X164636507Y-73656570D01*
X164422422Y-73756399D01*
X164422420Y-73756400D01*
X164228926Y-73891886D01*
X164228920Y-73891891D01*
X164061891Y-74058920D01*
X164061886Y-74058926D01*
X163926400Y-74252420D01*
X163926399Y-74252422D01*
X163826570Y-74466507D01*
X163826567Y-74466513D01*
X163769364Y-74679999D01*
X163769364Y-74680000D01*
X164666314Y-74680000D01*
X164640507Y-74720156D01*
X164600000Y-74858111D01*
X164600000Y-75001889D01*
X164640507Y-75139844D01*
X164666314Y-75180000D01*
X163769364Y-75180000D01*
X163826567Y-75393486D01*
X163826570Y-75393492D01*
X163926399Y-75607578D01*
X164061894Y-75801082D01*
X164228917Y-75968105D01*
X164414595Y-76098119D01*
X164458219Y-76152696D01*
X164465412Y-76222195D01*
X164433890Y-76284549D01*
X164414595Y-76301269D01*
X164228594Y-76431508D01*
X164061505Y-76598597D01*
X163925965Y-76792169D01*
X163925964Y-76792171D01*
X163826098Y-77006335D01*
X163826094Y-77006344D01*
X163764938Y-77234586D01*
X163764936Y-77234596D01*
X163744341Y-77469999D01*
X163744341Y-77470000D01*
X163764936Y-77705403D01*
X163764938Y-77705413D01*
X163826094Y-77933655D01*
X163826096Y-77933659D01*
X163826097Y-77933663D01*
X163925965Y-78147830D01*
X163925967Y-78147834D01*
X164061501Y-78341395D01*
X164061506Y-78341402D01*
X164228597Y-78508493D01*
X164228603Y-78508498D01*
X164414594Y-78638730D01*
X164458219Y-78693307D01*
X164465413Y-78762805D01*
X164433890Y-78825160D01*
X164414595Y-78841880D01*
X164228922Y-78971890D01*
X164228920Y-78971891D01*
X164061891Y-79138920D01*
X164061886Y-79138926D01*
X163926400Y-79332420D01*
X163926399Y-79332422D01*
X163826570Y-79546507D01*
X163826567Y-79546513D01*
X163769364Y-79759999D01*
X163769364Y-79760000D01*
X164666314Y-79760000D01*
X164640507Y-79800156D01*
X164600000Y-79938111D01*
X164600000Y-80081889D01*
X164640507Y-80219844D01*
X164666314Y-80260000D01*
X163769364Y-80260000D01*
X163826567Y-80473486D01*
X163826570Y-80473492D01*
X163926399Y-80687578D01*
X164061894Y-80881082D01*
X164228917Y-81048105D01*
X164414595Y-81178119D01*
X164458219Y-81232696D01*
X164465412Y-81302195D01*
X164433890Y-81364549D01*
X164414595Y-81381269D01*
X164228594Y-81511508D01*
X164061505Y-81678597D01*
X163925965Y-81872169D01*
X163925964Y-81872171D01*
X163826098Y-82086335D01*
X163826094Y-82086344D01*
X163764938Y-82314586D01*
X163764936Y-82314596D01*
X163744341Y-82549999D01*
X163744341Y-82550000D01*
X163764936Y-82785403D01*
X163764938Y-82785413D01*
X163826094Y-83013655D01*
X163826096Y-83013659D01*
X163826097Y-83013663D01*
X163925965Y-83227830D01*
X163925967Y-83227834D01*
X164061501Y-83421395D01*
X164061506Y-83421402D01*
X164228597Y-83588493D01*
X164228603Y-83588498D01*
X164414158Y-83718425D01*
X164457783Y-83773002D01*
X164464977Y-83842500D01*
X164433454Y-83904855D01*
X164414158Y-83921575D01*
X164228597Y-84051505D01*
X164061505Y-84218597D01*
X163925965Y-84412169D01*
X163925964Y-84412171D01*
X163826098Y-84626335D01*
X163826094Y-84626344D01*
X163764938Y-84854586D01*
X163764936Y-84854596D01*
X163744341Y-85089999D01*
X163744341Y-85090000D01*
X163764936Y-85325403D01*
X163764938Y-85325413D01*
X163826094Y-85553655D01*
X163826096Y-85553659D01*
X163826097Y-85553663D01*
X163919516Y-85754000D01*
X163925965Y-85767830D01*
X163925967Y-85767834D01*
X164061501Y-85961395D01*
X164061506Y-85961402D01*
X164228597Y-86128493D01*
X164228603Y-86128498D01*
X164414594Y-86258730D01*
X164458219Y-86313307D01*
X164465413Y-86382805D01*
X164433890Y-86445160D01*
X164414595Y-86461880D01*
X164228922Y-86591890D01*
X164228920Y-86591891D01*
X164061891Y-86758920D01*
X164061886Y-86758926D01*
X163926400Y-86952420D01*
X163926399Y-86952422D01*
X163826570Y-87166507D01*
X163826567Y-87166513D01*
X163769364Y-87379999D01*
X163769364Y-87380000D01*
X164666314Y-87380000D01*
X164640507Y-87420156D01*
X164600000Y-87558111D01*
X164600000Y-87701889D01*
X164640507Y-87839844D01*
X164666314Y-87880000D01*
X163769364Y-87880000D01*
X163826567Y-88093486D01*
X163826570Y-88093492D01*
X163926399Y-88307578D01*
X164061894Y-88501082D01*
X164228917Y-88668105D01*
X164414595Y-88798119D01*
X164458219Y-88852696D01*
X164465412Y-88922195D01*
X164433890Y-88984549D01*
X164414595Y-89001269D01*
X164228594Y-89131508D01*
X164061505Y-89298597D01*
X163925965Y-89492169D01*
X163925964Y-89492171D01*
X163826098Y-89706335D01*
X163826094Y-89706344D01*
X163764938Y-89934586D01*
X163764936Y-89934596D01*
X163744341Y-90169999D01*
X163744341Y-90170000D01*
X163764936Y-90405403D01*
X163764938Y-90405413D01*
X163826094Y-90633655D01*
X163826096Y-90633659D01*
X163826097Y-90633663D01*
X163925965Y-90847830D01*
X163925967Y-90847834D01*
X164061501Y-91041395D01*
X164061506Y-91041402D01*
X164228597Y-91208493D01*
X164228603Y-91208498D01*
X164414158Y-91338425D01*
X164457783Y-91393002D01*
X164464977Y-91462500D01*
X164433454Y-91524855D01*
X164414158Y-91541575D01*
X164228597Y-91671505D01*
X164061505Y-91838597D01*
X163925965Y-92032169D01*
X163925964Y-92032171D01*
X163826098Y-92246335D01*
X163826094Y-92246344D01*
X163764938Y-92474586D01*
X163764936Y-92474596D01*
X163744341Y-92709999D01*
X163744341Y-92710000D01*
X163764936Y-92945403D01*
X163764938Y-92945413D01*
X163826094Y-93173655D01*
X163826096Y-93173659D01*
X163826097Y-93173663D01*
X163897225Y-93326197D01*
X163925965Y-93387830D01*
X163925967Y-93387834D01*
X164061501Y-93581395D01*
X164061506Y-93581402D01*
X164228597Y-93748493D01*
X164228603Y-93748498D01*
X164249867Y-93763387D01*
X164399952Y-93868478D01*
X164414594Y-93878730D01*
X164458219Y-93933307D01*
X164465413Y-94002805D01*
X164433890Y-94065160D01*
X164414595Y-94081880D01*
X164228922Y-94211890D01*
X164228920Y-94211891D01*
X164061891Y-94378920D01*
X164061886Y-94378926D01*
X163926400Y-94572420D01*
X163926399Y-94572422D01*
X163826570Y-94786507D01*
X163826567Y-94786513D01*
X163769364Y-94999999D01*
X163769364Y-95000000D01*
X164666314Y-95000000D01*
X164640507Y-95040156D01*
X164600000Y-95178111D01*
X164600000Y-95321889D01*
X164640507Y-95459844D01*
X164666314Y-95500000D01*
X163769364Y-95500000D01*
X163826567Y-95713486D01*
X163826570Y-95713492D01*
X163926399Y-95927578D01*
X164061894Y-96121082D01*
X164228917Y-96288105D01*
X164414595Y-96418119D01*
X164458219Y-96472696D01*
X164465412Y-96542195D01*
X164433890Y-96604549D01*
X164414595Y-96621269D01*
X164228594Y-96751508D01*
X164061505Y-96918597D01*
X163925965Y-97112169D01*
X163925964Y-97112171D01*
X163826098Y-97326335D01*
X163826094Y-97326344D01*
X163764938Y-97554586D01*
X163764936Y-97554596D01*
X163744341Y-97789999D01*
X163744341Y-97790000D01*
X163764936Y-98025403D01*
X163764938Y-98025413D01*
X163826094Y-98253655D01*
X163826096Y-98253659D01*
X163826097Y-98253663D01*
X163861369Y-98329304D01*
X163925965Y-98467830D01*
X163925967Y-98467834D01*
X164061501Y-98661395D01*
X164061506Y-98661402D01*
X164228597Y-98828493D01*
X164228603Y-98828498D01*
X164414158Y-98958425D01*
X164457783Y-99013002D01*
X164464977Y-99082500D01*
X164433454Y-99144855D01*
X164414158Y-99161575D01*
X164228597Y-99291505D01*
X164061505Y-99458597D01*
X163925965Y-99652169D01*
X163925964Y-99652171D01*
X163826098Y-99866335D01*
X163826094Y-99866344D01*
X163764938Y-100094586D01*
X163764936Y-100094596D01*
X163744341Y-100329999D01*
X163744341Y-100330000D01*
X163764936Y-100565403D01*
X163764938Y-100565413D01*
X163826094Y-100793655D01*
X163826096Y-100793659D01*
X163826097Y-100793663D01*
X163904269Y-100961302D01*
X163925965Y-101007830D01*
X163925967Y-101007834D01*
X164061501Y-101201395D01*
X164061506Y-101201402D01*
X164228597Y-101368493D01*
X164228603Y-101368498D01*
X164414594Y-101498730D01*
X164458219Y-101553307D01*
X164465413Y-101622805D01*
X164433890Y-101685160D01*
X164414595Y-101701880D01*
X164228922Y-101831890D01*
X164228920Y-101831891D01*
X164061891Y-101998920D01*
X164061886Y-101998926D01*
X163926400Y-102192420D01*
X163926399Y-102192422D01*
X163826570Y-102406507D01*
X163826567Y-102406513D01*
X163769364Y-102619999D01*
X163769364Y-102620000D01*
X164666314Y-102620000D01*
X164640507Y-102660156D01*
X164600000Y-102798111D01*
X164600000Y-102941889D01*
X164640507Y-103079844D01*
X164666314Y-103120000D01*
X163769364Y-103120000D01*
X163826567Y-103333486D01*
X163826570Y-103333492D01*
X163926399Y-103547578D01*
X164061894Y-103741082D01*
X164228917Y-103908105D01*
X164414595Y-104038119D01*
X164458219Y-104092696D01*
X164465412Y-104162195D01*
X164433890Y-104224549D01*
X164414595Y-104241269D01*
X164228594Y-104371508D01*
X164061505Y-104538597D01*
X163925965Y-104732169D01*
X163925964Y-104732171D01*
X163826098Y-104946335D01*
X163826094Y-104946344D01*
X163764938Y-105174586D01*
X163764936Y-105174596D01*
X163744341Y-105409999D01*
X163744341Y-105410000D01*
X163764936Y-105645403D01*
X163764938Y-105645413D01*
X163826094Y-105873655D01*
X163826096Y-105873659D01*
X163826097Y-105873663D01*
X163850594Y-105926197D01*
X163925965Y-106087830D01*
X163925967Y-106087834D01*
X164061501Y-106281395D01*
X164061506Y-106281402D01*
X164228597Y-106448493D01*
X164228603Y-106448498D01*
X164414158Y-106578425D01*
X164457783Y-106633002D01*
X164464977Y-106702500D01*
X164433454Y-106764855D01*
X164414158Y-106781575D01*
X164228597Y-106911505D01*
X164061505Y-107078597D01*
X163925965Y-107272169D01*
X163925964Y-107272171D01*
X163826098Y-107486335D01*
X163826094Y-107486344D01*
X163764938Y-107714586D01*
X163764936Y-107714596D01*
X163744341Y-107949999D01*
X163744341Y-107950000D01*
X163764936Y-108185403D01*
X163764938Y-108185413D01*
X163826094Y-108413655D01*
X163826096Y-108413659D01*
X163826097Y-108413663D01*
X163904269Y-108581302D01*
X163925965Y-108627830D01*
X163925967Y-108627834D01*
X164061501Y-108821395D01*
X164061506Y-108821402D01*
X164228597Y-108988493D01*
X164228603Y-108988498D01*
X164414594Y-109118730D01*
X164458219Y-109173307D01*
X164465413Y-109242805D01*
X164433890Y-109305160D01*
X164414595Y-109321880D01*
X164228922Y-109451890D01*
X164228920Y-109451891D01*
X164061891Y-109618920D01*
X164061886Y-109618926D01*
X163926400Y-109812420D01*
X163926399Y-109812422D01*
X163826570Y-110026507D01*
X163826567Y-110026513D01*
X163769364Y-110239999D01*
X163769364Y-110240000D01*
X164666314Y-110240000D01*
X164640507Y-110280156D01*
X164600000Y-110418111D01*
X164600000Y-110561889D01*
X164640507Y-110699844D01*
X164666314Y-110740000D01*
X163769364Y-110740000D01*
X163826567Y-110953486D01*
X163826570Y-110953492D01*
X163926399Y-111167578D01*
X164061894Y-111361082D01*
X164228917Y-111528105D01*
X164414595Y-111658119D01*
X164458219Y-111712696D01*
X164465412Y-111782195D01*
X164433890Y-111844549D01*
X164414595Y-111861269D01*
X164228594Y-111991508D01*
X164061505Y-112158597D01*
X163925965Y-112352169D01*
X163925964Y-112352171D01*
X163826098Y-112566335D01*
X163826094Y-112566344D01*
X163764938Y-112794586D01*
X163764936Y-112794596D01*
X163744341Y-113029999D01*
X163744341Y-113030000D01*
X163764936Y-113265403D01*
X163764938Y-113265413D01*
X163826094Y-113493655D01*
X163826096Y-113493659D01*
X163826097Y-113493663D01*
X163925965Y-113707830D01*
X163925967Y-113707834D01*
X164061501Y-113901395D01*
X164061506Y-113901402D01*
X164228597Y-114068493D01*
X164228603Y-114068498D01*
X164414158Y-114198425D01*
X164457783Y-114253002D01*
X164464977Y-114322500D01*
X164433454Y-114384855D01*
X164414158Y-114401575D01*
X164228597Y-114531505D01*
X164061505Y-114698597D01*
X163925965Y-114892169D01*
X163925964Y-114892171D01*
X163826098Y-115106335D01*
X163826094Y-115106344D01*
X163764938Y-115334586D01*
X163764936Y-115334596D01*
X163744341Y-115569999D01*
X163744341Y-115570000D01*
X163764936Y-115805403D01*
X163764938Y-115805413D01*
X163826094Y-116033655D01*
X163826096Y-116033659D01*
X163826097Y-116033663D01*
X163910433Y-116214521D01*
X163925965Y-116247830D01*
X163925967Y-116247834D01*
X164061501Y-116441395D01*
X164061506Y-116441402D01*
X164228597Y-116608493D01*
X164228603Y-116608498D01*
X164414594Y-116738730D01*
X164458219Y-116793307D01*
X164465413Y-116862805D01*
X164433890Y-116925160D01*
X164414595Y-116941880D01*
X164228922Y-117071890D01*
X164228920Y-117071891D01*
X164061891Y-117238920D01*
X164061886Y-117238926D01*
X163926400Y-117432420D01*
X163926399Y-117432422D01*
X163826570Y-117646507D01*
X163826567Y-117646513D01*
X163769364Y-117859999D01*
X163769364Y-117860000D01*
X164666314Y-117860000D01*
X164640507Y-117900156D01*
X164600000Y-118038111D01*
X164600000Y-118181889D01*
X164640507Y-118319844D01*
X164666314Y-118360000D01*
X163769364Y-118360000D01*
X163826567Y-118573486D01*
X163826570Y-118573492D01*
X163926399Y-118787578D01*
X164061894Y-118981082D01*
X164228917Y-119148105D01*
X164414595Y-119278119D01*
X164458219Y-119332696D01*
X164465412Y-119402195D01*
X164433890Y-119464549D01*
X164414595Y-119481269D01*
X164228594Y-119611508D01*
X164061505Y-119778597D01*
X163925965Y-119972169D01*
X163925964Y-119972171D01*
X163826098Y-120186335D01*
X163826094Y-120186344D01*
X163764938Y-120414586D01*
X163764936Y-120414596D01*
X163744341Y-120649999D01*
X163744341Y-120650000D01*
X163764936Y-120885403D01*
X163764938Y-120885413D01*
X163826094Y-121113655D01*
X163826096Y-121113659D01*
X163826097Y-121113663D01*
X163880189Y-121229663D01*
X163925965Y-121327830D01*
X163925967Y-121327834D01*
X164061501Y-121521395D01*
X164061506Y-121521402D01*
X164228597Y-121688493D01*
X164228603Y-121688498D01*
X164414158Y-121818425D01*
X164457783Y-121873002D01*
X164464977Y-121942500D01*
X164433454Y-122004855D01*
X164414158Y-122021575D01*
X164228597Y-122151505D01*
X164061505Y-122318597D01*
X163925965Y-122512169D01*
X163925964Y-122512171D01*
X163826098Y-122726335D01*
X163826094Y-122726344D01*
X163764938Y-122954586D01*
X163764936Y-122954596D01*
X163744341Y-123189999D01*
X163744341Y-123190000D01*
X143151707Y-123190000D01*
X143048494Y-123042597D01*
X142881402Y-122875506D01*
X142881395Y-122875501D01*
X142687834Y-122739967D01*
X142687830Y-122739965D01*
X142658600Y-122726335D01*
X142473663Y-122640097D01*
X142473659Y-122640096D01*
X142473655Y-122640094D01*
X142245413Y-122578938D01*
X142245403Y-122578936D01*
X142010001Y-122558341D01*
X142009999Y-122558341D01*
X141774596Y-122578936D01*
X141774586Y-122578938D01*
X141546344Y-122640094D01*
X141546335Y-122640098D01*
X141332171Y-122739964D01*
X141332169Y-122739965D01*
X141138597Y-122875505D01*
X140971505Y-123042597D01*
X140841575Y-123228158D01*
X140786998Y-123271783D01*
X140717500Y-123278977D01*
X140655145Y-123247454D01*
X140638425Y-123228158D01*
X140508494Y-123042597D01*
X140341402Y-122875506D01*
X140341395Y-122875501D01*
X140147834Y-122739967D01*
X140147830Y-122739965D01*
X140118600Y-122726335D01*
X139933663Y-122640097D01*
X139933659Y-122640096D01*
X139933655Y-122640094D01*
X139705413Y-122578938D01*
X139705403Y-122578936D01*
X139470001Y-122558341D01*
X139469999Y-122558341D01*
X139234596Y-122578936D01*
X139234586Y-122578938D01*
X139006344Y-122640094D01*
X139006335Y-122640098D01*
X138792171Y-122739964D01*
X138792169Y-122739965D01*
X138598597Y-122875505D01*
X138431505Y-123042597D01*
X138301575Y-123228158D01*
X138246998Y-123271783D01*
X138177500Y-123278977D01*
X138115145Y-123247454D01*
X138098425Y-123228158D01*
X137968494Y-123042597D01*
X137801402Y-122875506D01*
X137801395Y-122875501D01*
X137607834Y-122739967D01*
X137607830Y-122739965D01*
X137578600Y-122726335D01*
X137393663Y-122640097D01*
X137393659Y-122640096D01*
X137393655Y-122640094D01*
X137165413Y-122578938D01*
X137165403Y-122578936D01*
X136930001Y-122558341D01*
X136929999Y-122558341D01*
X136694596Y-122578936D01*
X136694586Y-122578938D01*
X136466344Y-122640094D01*
X136466335Y-122640098D01*
X136252171Y-122739964D01*
X136252169Y-122739965D01*
X136058597Y-122875505D01*
X135891505Y-123042597D01*
X135761575Y-123228158D01*
X135706998Y-123271783D01*
X135637500Y-123278977D01*
X135575145Y-123247454D01*
X135558425Y-123228158D01*
X135428494Y-123042597D01*
X135261402Y-122875506D01*
X135261395Y-122875501D01*
X135067834Y-122739967D01*
X135067830Y-122739965D01*
X135038600Y-122726335D01*
X134853663Y-122640097D01*
X134853659Y-122640096D01*
X134853655Y-122640094D01*
X134625413Y-122578938D01*
X134625403Y-122578936D01*
X134390001Y-122558341D01*
X134389999Y-122558341D01*
X134154596Y-122578936D01*
X134154586Y-122578938D01*
X133926344Y-122640094D01*
X133926335Y-122640098D01*
X133712171Y-122739964D01*
X133712169Y-122739965D01*
X133518597Y-122875505D01*
X133351505Y-123042597D01*
X133221575Y-123228158D01*
X133166998Y-123271783D01*
X133097500Y-123278977D01*
X133035145Y-123247454D01*
X133018425Y-123228158D01*
X132888494Y-123042597D01*
X132721402Y-122875506D01*
X132721395Y-122875501D01*
X132527834Y-122739967D01*
X132527830Y-122739965D01*
X132498600Y-122726335D01*
X132313663Y-122640097D01*
X132313659Y-122640096D01*
X132313655Y-122640094D01*
X132085413Y-122578938D01*
X132085403Y-122578936D01*
X131850001Y-122558341D01*
X131849999Y-122558341D01*
X131614596Y-122578936D01*
X131614586Y-122578938D01*
X131386344Y-122640094D01*
X131386335Y-122640098D01*
X131172171Y-122739964D01*
X131172169Y-122739965D01*
X130978597Y-122875505D01*
X130811505Y-123042597D01*
X130675965Y-123236169D01*
X130675964Y-123236171D01*
X130576098Y-123450335D01*
X130576094Y-123450344D01*
X130514938Y-123678586D01*
X130514936Y-123678596D01*
X130494341Y-123913999D01*
X130494341Y-123914000D01*
X120521094Y-123914000D01*
X120553600Y-123867578D01*
X120653429Y-123653492D01*
X120653432Y-123653486D01*
X120710636Y-123440000D01*
X119813686Y-123440000D01*
X119839493Y-123399844D01*
X119880000Y-123261889D01*
X119880000Y-123118111D01*
X119839493Y-122980156D01*
X119813686Y-122940000D01*
X120710636Y-122940000D01*
X120710635Y-122939999D01*
X120653432Y-122726513D01*
X120653429Y-122726507D01*
X120553600Y-122512422D01*
X120553599Y-122512420D01*
X120418113Y-122318926D01*
X120418108Y-122318920D01*
X120251078Y-122151890D01*
X120065405Y-122021879D01*
X120021780Y-121967302D01*
X120014588Y-121897804D01*
X120046110Y-121835449D01*
X120065406Y-121818730D01*
X120065842Y-121818425D01*
X120251401Y-121688495D01*
X120418495Y-121521401D01*
X120554035Y-121327830D01*
X120653903Y-121113663D01*
X120715063Y-120885408D01*
X120728922Y-120727000D01*
X125621815Y-120727000D01*
X125640503Y-120904805D01*
X125640504Y-120904807D01*
X125695747Y-121074829D01*
X125695750Y-121074835D01*
X125785141Y-121229665D01*
X125826812Y-121275946D01*
X125904764Y-121362521D01*
X125904767Y-121362523D01*
X125904770Y-121362526D01*
X126049407Y-121467612D01*
X126212733Y-121540329D01*
X126387609Y-121577500D01*
X126387610Y-121577500D01*
X126566389Y-121577500D01*
X126566391Y-121577500D01*
X126741267Y-121540329D01*
X126904593Y-121467612D01*
X127049230Y-121362526D01*
X127168859Y-121229665D01*
X127258250Y-121074835D01*
X127313497Y-120904803D01*
X127314002Y-120900000D01*
X140244815Y-120900000D01*
X140263503Y-121077805D01*
X140263504Y-121077807D01*
X140318747Y-121247829D01*
X140318750Y-121247835D01*
X140408141Y-121402665D01*
X140449812Y-121448946D01*
X140527764Y-121535521D01*
X140527767Y-121535523D01*
X140527770Y-121535526D01*
X140672407Y-121640612D01*
X140835733Y-121713329D01*
X141010609Y-121750500D01*
X141010610Y-121750500D01*
X141189389Y-121750500D01*
X141189391Y-121750500D01*
X141364267Y-121713329D01*
X141527593Y-121640612D01*
X141672230Y-121535526D01*
X141684948Y-121521402D01*
X141733380Y-121467612D01*
X141791859Y-121402665D01*
X141881250Y-121247835D01*
X141936497Y-121077803D01*
X141955185Y-120900000D01*
X141936497Y-120722197D01*
X141881250Y-120552165D01*
X141791859Y-120397335D01*
X141725764Y-120323929D01*
X141672235Y-120264478D01*
X141672232Y-120264476D01*
X141672231Y-120264475D01*
X141672230Y-120264474D01*
X141554586Y-120179000D01*
X155444815Y-120179000D01*
X155463503Y-120356805D01*
X155463504Y-120356807D01*
X155518747Y-120526829D01*
X155518750Y-120526835D01*
X155608141Y-120681665D01*
X155644632Y-120722192D01*
X155727764Y-120814521D01*
X155727767Y-120814523D01*
X155727770Y-120814526D01*
X155872407Y-120919612D01*
X156035733Y-120992329D01*
X156210609Y-121029500D01*
X156210610Y-121029500D01*
X156389389Y-121029500D01*
X156389391Y-121029500D01*
X156564267Y-120992329D01*
X156727593Y-120919612D01*
X156872230Y-120814526D01*
X156991859Y-120681665D01*
X157081250Y-120526835D01*
X157136497Y-120356803D01*
X157155185Y-120179000D01*
X157136497Y-120001197D01*
X157081250Y-119831165D01*
X156991859Y-119676335D01*
X156945003Y-119624296D01*
X156872235Y-119543478D01*
X156872232Y-119543476D01*
X156872231Y-119543475D01*
X156872230Y-119543474D01*
X156727593Y-119438388D01*
X156564267Y-119365671D01*
X156564265Y-119365670D01*
X156410571Y-119333002D01*
X156389391Y-119328500D01*
X156210609Y-119328500D01*
X156189429Y-119333002D01*
X156035733Y-119365670D01*
X156035728Y-119365672D01*
X155872408Y-119438387D01*
X155727768Y-119543475D01*
X155608140Y-119676336D01*
X155518750Y-119831164D01*
X155518747Y-119831170D01*
X155463504Y-120001192D01*
X155463503Y-120001194D01*
X155444815Y-120179000D01*
X141554586Y-120179000D01*
X141527593Y-120159388D01*
X141364267Y-120086671D01*
X141364265Y-120086670D01*
X141236594Y-120059533D01*
X141189391Y-120049500D01*
X141010609Y-120049500D01*
X140979954Y-120056015D01*
X140835733Y-120086670D01*
X140835728Y-120086672D01*
X140672408Y-120159387D01*
X140527768Y-120264475D01*
X140408140Y-120397336D01*
X140318750Y-120552164D01*
X140318747Y-120552170D01*
X140263504Y-120722192D01*
X140263503Y-120722194D01*
X140244815Y-120900000D01*
X127314002Y-120900000D01*
X127332185Y-120727000D01*
X127313497Y-120549197D01*
X127285873Y-120464181D01*
X127258252Y-120379170D01*
X127258249Y-120379164D01*
X127247820Y-120361100D01*
X127168859Y-120224335D01*
X127110380Y-120159388D01*
X127049235Y-120091478D01*
X127049232Y-120091476D01*
X127049231Y-120091475D01*
X127049230Y-120091474D01*
X126904593Y-119986388D01*
X126741267Y-119913671D01*
X126741265Y-119913670D01*
X126613594Y-119886533D01*
X126566391Y-119876500D01*
X126387609Y-119876500D01*
X126356954Y-119883015D01*
X126212733Y-119913670D01*
X126212728Y-119913672D01*
X126049408Y-119986387D01*
X125904768Y-120091475D01*
X125785140Y-120224336D01*
X125695750Y-120379164D01*
X125695747Y-120379170D01*
X125640504Y-120549192D01*
X125640503Y-120549194D01*
X125621815Y-120727000D01*
X120728922Y-120727000D01*
X120735659Y-120650000D01*
X120715063Y-120414592D01*
X120653903Y-120186337D01*
X120554035Y-119972171D01*
X120513073Y-119913670D01*
X120418494Y-119778597D01*
X120251402Y-119611506D01*
X120251396Y-119611501D01*
X120107294Y-119510600D01*
X135744815Y-119510600D01*
X135763503Y-119688405D01*
X135763504Y-119688407D01*
X135818747Y-119858429D01*
X135818750Y-119858435D01*
X135908141Y-120013265D01*
X135940767Y-120049500D01*
X136027764Y-120146121D01*
X136027767Y-120146123D01*
X136027770Y-120146126D01*
X136172407Y-120251212D01*
X136335733Y-120323929D01*
X136510609Y-120361100D01*
X136510610Y-120361100D01*
X136689389Y-120361100D01*
X136689391Y-120361100D01*
X136864267Y-120323929D01*
X137027593Y-120251212D01*
X137172230Y-120146126D01*
X137291859Y-120013265D01*
X137381250Y-119858435D01*
X137436497Y-119688403D01*
X137455185Y-119510600D01*
X137436497Y-119332797D01*
X137381250Y-119162765D01*
X137291859Y-119007935D01*
X137245003Y-118955896D01*
X137172235Y-118875078D01*
X137172232Y-118875076D01*
X137172231Y-118875075D01*
X137172230Y-118875074D01*
X137027593Y-118769988D01*
X136864267Y-118697271D01*
X136864265Y-118697270D01*
X136736594Y-118670133D01*
X136689391Y-118660100D01*
X136510609Y-118660100D01*
X136479954Y-118666615D01*
X136335733Y-118697270D01*
X136335728Y-118697272D01*
X136172408Y-118769987D01*
X136027768Y-118875075D01*
X135908140Y-119007936D01*
X135818750Y-119162764D01*
X135818747Y-119162770D01*
X135763504Y-119332792D01*
X135763503Y-119332794D01*
X135744815Y-119510600D01*
X120107294Y-119510600D01*
X120065842Y-119481575D01*
X120022217Y-119426998D01*
X120015023Y-119357500D01*
X120046546Y-119295145D01*
X120065842Y-119278425D01*
X120231021Y-119162765D01*
X120251401Y-119148495D01*
X120418495Y-118981401D01*
X120554035Y-118787830D01*
X120653903Y-118573663D01*
X120715063Y-118345408D01*
X120731547Y-118157000D01*
X125591815Y-118157000D01*
X125610503Y-118334805D01*
X125610504Y-118334807D01*
X125665747Y-118504829D01*
X125665750Y-118504835D01*
X125755141Y-118659665D01*
X125755533Y-118660100D01*
X125874764Y-118792521D01*
X125874767Y-118792523D01*
X125874770Y-118792526D01*
X126019407Y-118897612D01*
X126182733Y-118970329D01*
X126357609Y-119007500D01*
X126357610Y-119007500D01*
X126536389Y-119007500D01*
X126536391Y-119007500D01*
X126711267Y-118970329D01*
X126874593Y-118897612D01*
X127019230Y-118792526D01*
X127023459Y-118787830D01*
X127045148Y-118763741D01*
X127138859Y-118659665D01*
X127228250Y-118504835D01*
X127283497Y-118334803D01*
X127302185Y-118157000D01*
X127283497Y-117979197D01*
X127249507Y-117874586D01*
X127228252Y-117809170D01*
X127228249Y-117809164D01*
X127216911Y-117789526D01*
X127196400Y-117754000D01*
X138844815Y-117754000D01*
X138863503Y-117931805D01*
X138863504Y-117931807D01*
X138918747Y-118101829D01*
X138918750Y-118101835D01*
X139008141Y-118256665D01*
X139049812Y-118302946D01*
X139127764Y-118389521D01*
X139127767Y-118389523D01*
X139127770Y-118389526D01*
X139272407Y-118494612D01*
X139435733Y-118567329D01*
X139610609Y-118604500D01*
X139610610Y-118604500D01*
X139789389Y-118604500D01*
X139789391Y-118604500D01*
X139964267Y-118567329D01*
X140127593Y-118494612D01*
X140272230Y-118389526D01*
X140391859Y-118256665D01*
X140481250Y-118101835D01*
X140536497Y-117931803D01*
X140555185Y-117754000D01*
X140536497Y-117576197D01*
X140493742Y-117444610D01*
X140481252Y-117406170D01*
X140481249Y-117406164D01*
X140391859Y-117251335D01*
X140345003Y-117199296D01*
X140272235Y-117118478D01*
X140272232Y-117118476D01*
X140272231Y-117118475D01*
X140272230Y-117118474D01*
X140127593Y-117013388D01*
X139964267Y-116940671D01*
X139964265Y-116940670D01*
X139796744Y-116905063D01*
X139789391Y-116903500D01*
X139610609Y-116903500D01*
X139603256Y-116905063D01*
X139435733Y-116940670D01*
X139435728Y-116940672D01*
X139272408Y-117013387D01*
X139127768Y-117118475D01*
X139008140Y-117251336D01*
X138918750Y-117406164D01*
X138918747Y-117406170D01*
X138863504Y-117576192D01*
X138863503Y-117576194D01*
X138844815Y-117754000D01*
X127196400Y-117754000D01*
X127138859Y-117654335D01*
X127068503Y-117576197D01*
X127019235Y-117521478D01*
X127019232Y-117521476D01*
X127019231Y-117521475D01*
X127019230Y-117521474D01*
X126874593Y-117416388D01*
X126711267Y-117343671D01*
X126711265Y-117343670D01*
X126583594Y-117316533D01*
X126536391Y-117306500D01*
X126357609Y-117306500D01*
X126326954Y-117313015D01*
X126182733Y-117343670D01*
X126182728Y-117343672D01*
X126019408Y-117416387D01*
X125874768Y-117521475D01*
X125755140Y-117654336D01*
X125665750Y-117809164D01*
X125665747Y-117809170D01*
X125610504Y-117979192D01*
X125610503Y-117979194D01*
X125591815Y-118157000D01*
X120731547Y-118157000D01*
X120735659Y-118110000D01*
X120715063Y-117874592D01*
X120653903Y-117646337D01*
X120554035Y-117432171D01*
X120554034Y-117432169D01*
X120460875Y-117299123D01*
X120438548Y-117232917D01*
X120455558Y-117165150D01*
X120506507Y-117117337D01*
X120562450Y-117104000D01*
X124650000Y-117104000D01*
X125050000Y-116704000D01*
X151313444Y-116704000D01*
X151332132Y-116881805D01*
X151332133Y-116881807D01*
X151387376Y-117051829D01*
X151387379Y-117051835D01*
X151476770Y-117206665D01*
X151505524Y-117238599D01*
X151596393Y-117339521D01*
X151596396Y-117339523D01*
X151596399Y-117339526D01*
X151741036Y-117444612D01*
X151904362Y-117517329D01*
X152079238Y-117554500D01*
X152079239Y-117554500D01*
X152258018Y-117554500D01*
X152258020Y-117554500D01*
X152432896Y-117517329D01*
X152596222Y-117444612D01*
X152740859Y-117339526D01*
X152747810Y-117331807D01*
X152777238Y-117299123D01*
X152860488Y-117206665D01*
X152890894Y-117154000D01*
X157844815Y-117154000D01*
X157863503Y-117331805D01*
X157863504Y-117331807D01*
X157918747Y-117501829D01*
X157918750Y-117501835D01*
X158008141Y-117656665D01*
X158049812Y-117702946D01*
X158127764Y-117789521D01*
X158127767Y-117789523D01*
X158127770Y-117789526D01*
X158272407Y-117894612D01*
X158435733Y-117967329D01*
X158610609Y-118004500D01*
X158610610Y-118004500D01*
X158789389Y-118004500D01*
X158789391Y-118004500D01*
X158964267Y-117967329D01*
X159127593Y-117894612D01*
X159272230Y-117789526D01*
X159391859Y-117656665D01*
X159481250Y-117501835D01*
X159536497Y-117331803D01*
X159555185Y-117154000D01*
X159536497Y-116976197D01*
X159481250Y-116806165D01*
X159391859Y-116651335D01*
X159345003Y-116599296D01*
X159272235Y-116518478D01*
X159272232Y-116518476D01*
X159272231Y-116518475D01*
X159272230Y-116518474D01*
X159127593Y-116413388D01*
X158964267Y-116340671D01*
X158964265Y-116340670D01*
X158836594Y-116313533D01*
X158789391Y-116303500D01*
X158610609Y-116303500D01*
X158579954Y-116310015D01*
X158435733Y-116340670D01*
X158435728Y-116340672D01*
X158272408Y-116413387D01*
X158127768Y-116518475D01*
X158008140Y-116651336D01*
X157918750Y-116806164D01*
X157918747Y-116806170D01*
X157863504Y-116976192D01*
X157863503Y-116976194D01*
X157844815Y-117154000D01*
X152890894Y-117154000D01*
X152949879Y-117051835D01*
X153005126Y-116881803D01*
X153023814Y-116704000D01*
X153005126Y-116526197D01*
X152968472Y-116413387D01*
X152949881Y-116356170D01*
X152949878Y-116356164D01*
X152940934Y-116340672D01*
X152860488Y-116201335D01*
X152813212Y-116148830D01*
X152740864Y-116068478D01*
X152740861Y-116068476D01*
X152740860Y-116068475D01*
X152740859Y-116068474D01*
X152596222Y-115963388D01*
X152432896Y-115890671D01*
X152432894Y-115890670D01*
X152305223Y-115863533D01*
X152258020Y-115853500D01*
X152079238Y-115853500D01*
X152048583Y-115860015D01*
X151904362Y-115890670D01*
X151904357Y-115890672D01*
X151741037Y-115963387D01*
X151596397Y-116068475D01*
X151476769Y-116201336D01*
X151387379Y-116356164D01*
X151387376Y-116356170D01*
X151332133Y-116526192D01*
X151332132Y-116526194D01*
X151313444Y-116704000D01*
X125050000Y-116704000D01*
X126175000Y-115579000D01*
X153569815Y-115579000D01*
X153588503Y-115756805D01*
X153588504Y-115756807D01*
X153643747Y-115926829D01*
X153643750Y-115926835D01*
X153733141Y-116081665D01*
X153774812Y-116127946D01*
X153852764Y-116214521D01*
X153852767Y-116214523D01*
X153852770Y-116214526D01*
X153997407Y-116319612D01*
X154160733Y-116392329D01*
X154335609Y-116429500D01*
X154335610Y-116429500D01*
X154514389Y-116429500D01*
X154514391Y-116429500D01*
X154689267Y-116392329D01*
X154852593Y-116319612D01*
X154997230Y-116214526D01*
X155009107Y-116201336D01*
X155056383Y-116148830D01*
X155116859Y-116081665D01*
X155206250Y-115926835D01*
X155261497Y-115756803D01*
X155280185Y-115579000D01*
X155261497Y-115401197D01*
X155206250Y-115231165D01*
X155116859Y-115076335D01*
X155040176Y-114991170D01*
X154997235Y-114943478D01*
X154997232Y-114943476D01*
X154997231Y-114943475D01*
X154997230Y-114943474D01*
X154852593Y-114838388D01*
X154689267Y-114765671D01*
X154689265Y-114765670D01*
X154561594Y-114738533D01*
X154514391Y-114728500D01*
X154335609Y-114728500D01*
X154304954Y-114735015D01*
X154160733Y-114765670D01*
X154160728Y-114765672D01*
X153997408Y-114838387D01*
X153852768Y-114943475D01*
X153733140Y-115076336D01*
X153643750Y-115231164D01*
X153643747Y-115231170D01*
X153588504Y-115401192D01*
X153588503Y-115401194D01*
X153569815Y-115579000D01*
X126175000Y-115579000D01*
X129313681Y-112440319D01*
X129375004Y-112406834D01*
X129401362Y-112404000D01*
X138650000Y-112404000D01*
X138650000Y-111804000D01*
X157844815Y-111804000D01*
X157863503Y-111981805D01*
X157863504Y-111981807D01*
X157918747Y-112151829D01*
X157918750Y-112151835D01*
X158008141Y-112306665D01*
X158049113Y-112352169D01*
X158127764Y-112439521D01*
X158127767Y-112439523D01*
X158127770Y-112439526D01*
X158272407Y-112544612D01*
X158435733Y-112617329D01*
X158610609Y-112654500D01*
X158610610Y-112654500D01*
X158789389Y-112654500D01*
X158789391Y-112654500D01*
X158964267Y-112617329D01*
X159127593Y-112544612D01*
X159272230Y-112439526D01*
X159391859Y-112306665D01*
X159481250Y-112151835D01*
X159536497Y-111981803D01*
X159555185Y-111804000D01*
X159536497Y-111626197D01*
X159481250Y-111456165D01*
X159391859Y-111301335D01*
X159345003Y-111249296D01*
X159272235Y-111168478D01*
X159272232Y-111168476D01*
X159272231Y-111168475D01*
X159272230Y-111168474D01*
X159127593Y-111063388D01*
X158964267Y-110990671D01*
X158964265Y-110990670D01*
X158836594Y-110963533D01*
X158789391Y-110953500D01*
X158610609Y-110953500D01*
X158579954Y-110960015D01*
X158435733Y-110990670D01*
X158435728Y-110990672D01*
X158272408Y-111063387D01*
X158127768Y-111168475D01*
X158008140Y-111301336D01*
X157918750Y-111456164D01*
X157918747Y-111456170D01*
X157863504Y-111626192D01*
X157863503Y-111626194D01*
X157844815Y-111804000D01*
X138650000Y-111804000D01*
X138650000Y-109073142D01*
X138656068Y-109034827D01*
X138673297Y-108981803D01*
X138691985Y-108804000D01*
X138673297Y-108626197D01*
X138656069Y-108573174D01*
X138650000Y-108534856D01*
X138650000Y-108363361D01*
X140594815Y-108363361D01*
X140613503Y-108541166D01*
X140613504Y-108541168D01*
X140668747Y-108711190D01*
X140668750Y-108711196D01*
X140758141Y-108866026D01*
X140799812Y-108912307D01*
X140877764Y-108998882D01*
X140877767Y-108998884D01*
X140877770Y-108998887D01*
X141022407Y-109103973D01*
X141185733Y-109176690D01*
X141360609Y-109213861D01*
X141360610Y-109213861D01*
X141539389Y-109213861D01*
X141539391Y-109213861D01*
X141714267Y-109176690D01*
X141877593Y-109103973D01*
X142022230Y-108998887D01*
X142031585Y-108988498D01*
X142048148Y-108970102D01*
X142141859Y-108866026D01*
X142231250Y-108711196D01*
X142286497Y-108541164D01*
X142305185Y-108363361D01*
X142286497Y-108185558D01*
X142252592Y-108081210D01*
X142231252Y-108015531D01*
X142231249Y-108015525D01*
X142195439Y-107953500D01*
X142141859Y-107860696D01*
X142095003Y-107808657D01*
X142022235Y-107727839D01*
X142022232Y-107727837D01*
X142022231Y-107727836D01*
X142022230Y-107727835D01*
X141877593Y-107622749D01*
X141714267Y-107550032D01*
X141714265Y-107550031D01*
X141586594Y-107522894D01*
X141539391Y-107512861D01*
X141360609Y-107512861D01*
X141329954Y-107519376D01*
X141185733Y-107550031D01*
X141185728Y-107550033D01*
X141022408Y-107622748D01*
X140877768Y-107727836D01*
X140758140Y-107860697D01*
X140668750Y-108015525D01*
X140668747Y-108015531D01*
X140613504Y-108185553D01*
X140613503Y-108185555D01*
X140594815Y-108363361D01*
X138650000Y-108363361D01*
X138650000Y-106504000D01*
X142594815Y-106504000D01*
X142613503Y-106681805D01*
X142613504Y-106681807D01*
X142668747Y-106851829D01*
X142668750Y-106851835D01*
X142758141Y-107006665D01*
X142799812Y-107052946D01*
X142877764Y-107139521D01*
X142877767Y-107139523D01*
X142877770Y-107139526D01*
X143022407Y-107244612D01*
X143185733Y-107317329D01*
X143360609Y-107354500D01*
X143360610Y-107354500D01*
X143539389Y-107354500D01*
X143539391Y-107354500D01*
X143714267Y-107317329D01*
X143877593Y-107244612D01*
X144022230Y-107139526D01*
X144141859Y-107006665D01*
X144231250Y-106851835D01*
X144286497Y-106681803D01*
X144305185Y-106504000D01*
X144286497Y-106326197D01*
X144231250Y-106156165D01*
X144141859Y-106001335D01*
X144095003Y-105949296D01*
X144022235Y-105868478D01*
X144022232Y-105868476D01*
X144022231Y-105868475D01*
X144022230Y-105868474D01*
X143877593Y-105763388D01*
X143714267Y-105690671D01*
X143714265Y-105690670D01*
X143586594Y-105663533D01*
X143539391Y-105653500D01*
X143360609Y-105653500D01*
X143329954Y-105660015D01*
X143185733Y-105690670D01*
X143185728Y-105690672D01*
X143022408Y-105763387D01*
X142877768Y-105868475D01*
X142758140Y-106001336D01*
X142668750Y-106156164D01*
X142668747Y-106156170D01*
X142613504Y-106326192D01*
X142613503Y-106326194D01*
X142594815Y-106504000D01*
X138650000Y-106504000D01*
X138650000Y-94253732D01*
X138669685Y-94186693D01*
X138722489Y-94140938D01*
X138791647Y-94130994D01*
X138846883Y-94153413D01*
X138972407Y-94244612D01*
X139135733Y-94317329D01*
X139310609Y-94354500D01*
X139310610Y-94354500D01*
X139489389Y-94354500D01*
X139489391Y-94354500D01*
X139664267Y-94317329D01*
X139827593Y-94244612D01*
X139972230Y-94139526D01*
X139979913Y-94130994D01*
X140008728Y-94098991D01*
X140091859Y-94006665D01*
X140181250Y-93851835D01*
X140193894Y-93812921D01*
X140233330Y-93755245D01*
X140297689Y-93728046D01*
X140366535Y-93739960D01*
X140418012Y-93787203D01*
X140419212Y-93789238D01*
X140458141Y-93856665D01*
X140499812Y-93902946D01*
X140577764Y-93989521D01*
X140577767Y-93989523D01*
X140577770Y-93989526D01*
X140696742Y-94075965D01*
X140722410Y-94094614D01*
X140728037Y-94097863D01*
X140727385Y-94098991D01*
X140775281Y-94139695D01*
X140795607Y-94206543D01*
X140789544Y-94246050D01*
X140763504Y-94326192D01*
X140763503Y-94326194D01*
X140744815Y-94504000D01*
X140763503Y-94681805D01*
X140763504Y-94681807D01*
X140818747Y-94851829D01*
X140818750Y-94851835D01*
X140908141Y-95006665D01*
X140915279Y-95014592D01*
X141027764Y-95139521D01*
X141027767Y-95139523D01*
X141027770Y-95139526D01*
X141172407Y-95244612D01*
X141335733Y-95317329D01*
X141510609Y-95354500D01*
X141510610Y-95354500D01*
X141689389Y-95354500D01*
X141689391Y-95354500D01*
X141864267Y-95317329D01*
X142027593Y-95244612D01*
X142172230Y-95139526D01*
X142291859Y-95006665D01*
X142381250Y-94851835D01*
X142436497Y-94681803D01*
X142455185Y-94504000D01*
X142436497Y-94326197D01*
X142381250Y-94156165D01*
X142291859Y-94001335D01*
X142214066Y-93914937D01*
X142172235Y-93868478D01*
X142172232Y-93868476D01*
X142172231Y-93868475D01*
X142172230Y-93868474D01*
X142027593Y-93763388D01*
X142027592Y-93763387D01*
X142021970Y-93760142D01*
X142022619Y-93759016D01*
X141974713Y-93718296D01*
X141954392Y-93651447D01*
X141960454Y-93611954D01*
X141986497Y-93531803D01*
X142005185Y-93354000D01*
X141986497Y-93176197D01*
X141952249Y-93070793D01*
X141931252Y-93006170D01*
X141931249Y-93006164D01*
X141928461Y-93001335D01*
X141841859Y-92851335D01*
X141762672Y-92763389D01*
X141722235Y-92718478D01*
X141722232Y-92718476D01*
X141722231Y-92718475D01*
X141722230Y-92718474D01*
X141577593Y-92613388D01*
X141414267Y-92540671D01*
X141414265Y-92540670D01*
X141286594Y-92513533D01*
X141239391Y-92503500D01*
X141060609Y-92503500D01*
X141029954Y-92510015D01*
X140885733Y-92540670D01*
X140885728Y-92540672D01*
X140722408Y-92613387D01*
X140577768Y-92718475D01*
X140458140Y-92851336D01*
X140368750Y-93006164D01*
X140368746Y-93006174D01*
X140356104Y-93045081D01*
X140316666Y-93102756D01*
X140252307Y-93129953D01*
X140183461Y-93118038D01*
X140131986Y-93070793D01*
X140130821Y-93068820D01*
X140091859Y-93001335D01*
X140083904Y-92992501D01*
X139972235Y-92868478D01*
X139972232Y-92868476D01*
X139972231Y-92868475D01*
X139972230Y-92868474D01*
X139827593Y-92763388D01*
X139664267Y-92690671D01*
X139664265Y-92690670D01*
X139536594Y-92663533D01*
X139489391Y-92653500D01*
X139310609Y-92653500D01*
X139279954Y-92660015D01*
X139135733Y-92690670D01*
X139135728Y-92690672D01*
X138972408Y-92763388D01*
X138972403Y-92763390D01*
X138846885Y-92854585D01*
X138781079Y-92878065D01*
X138713025Y-92862239D01*
X138664330Y-92812134D01*
X138650000Y-92754267D01*
X138650000Y-91991893D01*
X149006922Y-91991893D01*
X149025610Y-92169698D01*
X149025611Y-92169700D01*
X149080854Y-92339722D01*
X149080857Y-92339728D01*
X149170248Y-92494558D01*
X149211768Y-92540670D01*
X149289871Y-92627414D01*
X149289874Y-92627416D01*
X149289877Y-92627419D01*
X149434514Y-92732505D01*
X149597840Y-92805222D01*
X149772716Y-92842393D01*
X149772717Y-92842393D01*
X149951496Y-92842393D01*
X149951498Y-92842393D01*
X150126374Y-92805222D01*
X150289700Y-92732505D01*
X150434337Y-92627419D01*
X150553966Y-92494558D01*
X150643357Y-92339728D01*
X150698604Y-92169696D01*
X150717292Y-91991893D01*
X150698604Y-91814090D01*
X150670980Y-91729074D01*
X150643359Y-91644063D01*
X150643356Y-91644057D01*
X150553966Y-91489228D01*
X150489382Y-91417500D01*
X150434342Y-91356371D01*
X150434339Y-91356369D01*
X150434338Y-91356368D01*
X150434337Y-91356367D01*
X150289700Y-91251281D01*
X150126374Y-91178564D01*
X150126372Y-91178563D01*
X149998701Y-91151426D01*
X149951498Y-91141393D01*
X149772716Y-91141393D01*
X149742061Y-91147908D01*
X149597840Y-91178563D01*
X149597835Y-91178565D01*
X149434515Y-91251280D01*
X149289875Y-91356368D01*
X149170247Y-91489229D01*
X149080857Y-91644057D01*
X149080854Y-91644063D01*
X149025611Y-91814085D01*
X149025610Y-91814087D01*
X149006922Y-91991893D01*
X138650000Y-91991893D01*
X138650000Y-87152404D01*
X138669685Y-87085365D01*
X138682792Y-87068397D01*
X138967837Y-86758920D01*
X140860526Y-84704000D01*
X145244815Y-84704000D01*
X145263503Y-84881805D01*
X145263504Y-84881807D01*
X145318747Y-85051829D01*
X145318750Y-85051835D01*
X145408141Y-85206665D01*
X145448362Y-85251335D01*
X145527764Y-85339521D01*
X145527767Y-85339523D01*
X145527770Y-85339526D01*
X145672407Y-85444612D01*
X145835733Y-85517329D01*
X146010609Y-85554500D01*
X146010610Y-85554500D01*
X146189389Y-85554500D01*
X146189391Y-85554500D01*
X146356301Y-85519022D01*
X146425967Y-85524338D01*
X146481701Y-85566475D01*
X146505806Y-85632055D01*
X146505402Y-85653271D01*
X146498652Y-85717491D01*
X146494815Y-85753999D01*
X146513503Y-85931805D01*
X146513504Y-85931807D01*
X146568747Y-86101829D01*
X146568750Y-86101835D01*
X146658141Y-86256665D01*
X146699812Y-86302946D01*
X146777764Y-86389521D01*
X146777767Y-86389523D01*
X146777770Y-86389526D01*
X146922407Y-86494612D01*
X147085733Y-86567329D01*
X147260609Y-86604500D01*
X147260610Y-86604500D01*
X147439389Y-86604500D01*
X147439391Y-86604500D01*
X147614267Y-86567329D01*
X147777593Y-86494612D01*
X147922230Y-86389526D01*
X148041859Y-86256665D01*
X148131250Y-86101835D01*
X148186497Y-85931803D01*
X148205185Y-85754000D01*
X148186497Y-85576197D01*
X148131250Y-85406165D01*
X148041859Y-85251335D01*
X147953768Y-85153500D01*
X147922235Y-85118478D01*
X147922232Y-85118476D01*
X147922231Y-85118475D01*
X147922230Y-85118474D01*
X147777593Y-85013388D01*
X147614267Y-84940671D01*
X147614265Y-84940670D01*
X147486594Y-84913533D01*
X147439391Y-84903500D01*
X147260609Y-84903500D01*
X147260608Y-84903500D01*
X147093698Y-84938977D01*
X147024031Y-84933661D01*
X146968298Y-84891524D01*
X146944193Y-84825944D01*
X146944596Y-84804740D01*
X146955185Y-84704000D01*
X146936497Y-84526197D01*
X146899447Y-84412169D01*
X146881252Y-84356170D01*
X146881249Y-84356164D01*
X146801825Y-84218597D01*
X146791859Y-84201335D01*
X146745003Y-84149296D01*
X146672235Y-84068478D01*
X146672232Y-84068476D01*
X146672231Y-84068475D01*
X146672230Y-84068474D01*
X146527593Y-83963388D01*
X146364267Y-83890671D01*
X146364265Y-83890670D01*
X146236594Y-83863533D01*
X146189391Y-83853500D01*
X146010609Y-83853500D01*
X145979954Y-83860015D01*
X145835733Y-83890670D01*
X145835728Y-83890672D01*
X145672408Y-83963387D01*
X145527768Y-84068475D01*
X145408140Y-84201336D01*
X145318750Y-84356164D01*
X145318747Y-84356170D01*
X145263504Y-84526192D01*
X145263503Y-84526194D01*
X145244815Y-84704000D01*
X140860526Y-84704000D01*
X142150000Y-83304000D01*
X142150000Y-73410500D01*
X142169685Y-73343461D01*
X142222489Y-73297706D01*
X142274000Y-73286500D01*
X166875500Y-73286500D01*
X166942539Y-73306185D01*
G37*
%TD.AperFunction*%
%TD*%
M02*
