%TF.GenerationSoftware,KiCad,Pcbnew,7.0.8*%
%TF.CreationDate,2024-01-04T13:39:42+01:00*%
%TF.ProjectId,OSSI_CM2,4f535349-5f43-44d3-922e-6b696361645f,rev?*%
%TF.SameCoordinates,Original*%
%TF.FileFunction,Copper,L3,Inr*%
%TF.FilePolarity,Positive*%
%FSLAX46Y46*%
G04 Gerber Fmt 4.6, Leading zero omitted, Abs format (unit mm)*
G04 Created by KiCad (PCBNEW 7.0.8) date 2024-01-04 13:39:42*
%MOMM*%
%LPD*%
G01*
G04 APERTURE LIST*
%TA.AperFunction,ComponentPad*%
%ADD10R,1.700000X1.700000*%
%TD*%
%TA.AperFunction,ComponentPad*%
%ADD11O,1.700000X1.700000*%
%TD*%
%TA.AperFunction,ViaPad*%
%ADD12C,0.700000*%
%TD*%
G04 APERTURE END LIST*
D10*
%TO.N,+3V3*%
%TO.C,X101*%
X131850000Y-126454000D03*
D11*
%TO.N,/SWD_DIO{slash}PA13*%
X131850000Y-123914000D03*
%TO.N,GND*%
X134390000Y-126454000D03*
%TO.N,/SWD_CLK{slash}PA14*%
X134390000Y-123914000D03*
%TO.N,GND*%
X136930000Y-126454000D03*
%TO.N,/TRACE_SWO{slash}PB3*%
X136930000Y-123914000D03*
%TO.N,unconnected-(X101-Pad7)*%
X139470000Y-126454000D03*
%TO.N,Net-(U101B-PH3{slash}BOOT0)*%
X139470000Y-123914000D03*
%TO.N,GND*%
X142010000Y-126454000D03*
%TO.N,Net-(U101B-~{RST})*%
X142010000Y-123914000D03*
%TD*%
D10*
%TO.N,+3V3_ANA*%
%TO.C,X201*%
X119380000Y-77470000D03*
D11*
%TO.N,1V25_REF*%
X119380000Y-80010000D03*
%TO.N,2V50_REF*%
X119380000Y-82550000D03*
%TO.N,AGND*%
X119380000Y-85090000D03*
%TO.N,AC_Grid_Voltage*%
X119380000Y-87630000D03*
%TO.N,Relay_Ctrl_Voltage*%
X119380000Y-90170000D03*
%TO.N,AGND*%
X119380000Y-92710000D03*
%TO.N,DC_Link_Voltage*%
X119380000Y-95250000D03*
%TO.N,AC_Current*%
X119380000Y-97790000D03*
%TO.N,AGND*%
X119380000Y-100330000D03*
%TO.N,AC_Relay_Voltage*%
X119380000Y-102870000D03*
%TO.N,DC_Input_Voltage*%
X119380000Y-105410000D03*
%TO.N,AGND*%
X119380000Y-107950000D03*
%TO.N,DC_Current*%
X119380000Y-110490000D03*
%TO.N,AC_Inverter_Voltage*%
X119380000Y-113030000D03*
%TO.N,AGND*%
X119380000Y-115570000D03*
%TO.N,LED_Red_Ctrl*%
X119380000Y-118110000D03*
%TO.N,LED_Green_Ctrl*%
X119380000Y-120650000D03*
%TO.N,GND*%
X119380000Y-123190000D03*
%TO.N,+3V3*%
X119380000Y-125730000D03*
%TD*%
D10*
%TO.N,GND*%
%TO.C,X202*%
X165100000Y-125730000D03*
D11*
%TO.N,UART_RX*%
X165100000Y-123190000D03*
%TO.N,UART_TX*%
X165100000Y-120650000D03*
%TO.N,GND*%
X165100000Y-118110000D03*
%TO.N,I2C_Dat*%
X165100000Y-115570000D03*
%TO.N,I2C_Clk*%
X165100000Y-113030000D03*
%TO.N,GND*%
X165100000Y-110490000D03*
%TO.N,HISIDE_PWM_\u00B5C*%
X165100000Y-107950000D03*
%TO.N,Boost_T1*%
X165100000Y-105410000D03*
%TO.N,GND*%
X165100000Y-102870000D03*
%TO.N,Relay_Voltage_Ctrl*%
X165100000Y-100330000D03*
%TO.N,Bridge_T1*%
X165100000Y-97790000D03*
%TO.N,GND*%
X165100000Y-95250000D03*
%TO.N,Bridge_T2*%
X165100000Y-92710000D03*
%TO.N,Bridge_T3*%
X165100000Y-90170000D03*
%TO.N,GND*%
X165100000Y-87630000D03*
%TO.N,Bridge_T4*%
X165100000Y-85090000D03*
%TO.N,Inv_Relay_Ctrl*%
X165100000Y-82550000D03*
%TO.N,GND*%
X165100000Y-80010000D03*
%TO.N,Grid_Relay_Ctrl*%
X165100000Y-77470000D03*
%TO.N,GND*%
X165100000Y-74930000D03*
%TD*%
D12*
%TO.N,GND*%
X151925000Y-127025000D03*
X152800000Y-83850000D03*
X145050000Y-95624500D03*
X133100000Y-117797400D03*
X136700000Y-100600000D03*
X141750000Y-91625000D03*
X149425000Y-88450000D03*
X145875000Y-118725000D03*
X134250000Y-105775000D03*
X154850000Y-74204000D03*
X139450000Y-97125000D03*
X139875000Y-88400000D03*
X143300000Y-84025000D03*
X133500000Y-115297400D03*
X153350000Y-121529000D03*
X123400000Y-122304000D03*
X157900000Y-125754000D03*
X143325000Y-104400000D03*
X150900000Y-74254000D03*
X145625000Y-91775000D03*
%TO.N,AGND*%
X136000000Y-83704000D03*
X137225000Y-86075000D03*
X133900000Y-86004000D03*
X124850000Y-81404000D03*
X133700000Y-88900000D03*
X138650000Y-92325000D03*
X135050000Y-74104000D03*
X130343523Y-104875000D03*
X132387023Y-89987024D03*
X128800000Y-95200000D03*
X127650000Y-97100000D03*
X124900000Y-76054000D03*
X137750000Y-97125000D03*
X131028445Y-91528445D03*
X132936800Y-108804000D03*
X140050000Y-79154000D03*
X127850000Y-81804000D03*
X127225000Y-99125000D03*
X128600000Y-104954000D03*
X129800000Y-75054000D03*
%TO.N,+3V3*%
X137750000Y-117797400D03*
X135400000Y-102775000D03*
X125350000Y-125629000D03*
X125350000Y-124804000D03*
X125350000Y-126454000D03*
X156300000Y-120179000D03*
X158700000Y-117154000D03*
X146196978Y-116646978D03*
X143050000Y-103275000D03*
X145269477Y-122894477D03*
X144475000Y-92925000D03*
X158700000Y-111804000D03*
%TO.N,Net-(U101A-PB10{slash}T2Ch3)*%
X145450000Y-103575000D03*
X154725000Y-100400000D03*
%TO.N,Net-(U101A-PB11{slash}T2Ch4)*%
X139475000Y-100500000D03*
X159712500Y-102212500D03*
%TO.N,Net-(U101A-PA8{slash}T1Ch1)*%
X158875000Y-99125000D03*
X143275000Y-107950000D03*
%TO.N,Net-(U101A-PA9{slash}T1Ch2)*%
X157725000Y-101325000D03*
X142475000Y-107200000D03*
%TO.N,Net-(U101A-PA10{slash}T1Ch3)*%
X156825000Y-100425000D03*
X140839444Y-105985556D03*
%TO.N,Net-(U101A-PA11{slash}T1Ch4)*%
X155725000Y-97900000D03*
X140224500Y-104412500D03*
%TO.N,I2C_Clk*%
X144725500Y-111225000D03*
X151725000Y-115875000D03*
%TO.N,I2C_Dat*%
X150325000Y-116704000D03*
X143584668Y-111409668D03*
%TO.N,Net-(U101A-PB2)*%
X126400000Y-118204000D03*
X137725000Y-98675500D03*
%TO.N,Net-(U101A-PB4)*%
X139400000Y-98125000D03*
X126400000Y-120804000D03*
%TO.N,Net-(U101A-PB5)*%
X146625000Y-99024500D03*
X146650000Y-96250000D03*
%TO.N,Net-(U101A-PA12)*%
X147225000Y-80525000D03*
X140450000Y-99850000D03*
%TO.N,Net-(U101A-PA15)*%
X145200000Y-100650000D03*
X148250000Y-79875000D03*
%TO.N,/TRACE_SWO{slash}PB3*%
X153750000Y-100677000D03*
X146900000Y-100375000D03*
%TO.N,UART_RX*%
X162350000Y-121750000D03*
X162350000Y-120034500D03*
%TO.N,Net-(U101B-PH3{slash}BOOT0)*%
X147475000Y-97075000D03*
X147700000Y-99225000D03*
%TO.N,Net-(U101B-~{RST})*%
X149150000Y-101975000D03*
X141550000Y-97225000D03*
%TO.N,+3V3_ANA*%
X138350000Y-79154000D03*
X137836800Y-108804000D03*
%TD*%
%TA.AperFunction,Conductor*%
%TO.N,+3V3_ANA*%
G36*
X134315895Y-73339450D02*
G01*
X134382858Y-73359379D01*
X134428419Y-73412351D01*
X134438108Y-73481545D01*
X134408850Y-73544994D01*
X134407587Y-73546420D01*
X134358138Y-73601338D01*
X134268750Y-73756164D01*
X134268747Y-73756170D01*
X134213504Y-73926192D01*
X134213503Y-73926194D01*
X134194815Y-74104000D01*
X134213503Y-74281805D01*
X134213504Y-74281807D01*
X134268747Y-74451829D01*
X134268750Y-74451835D01*
X134358141Y-74606665D01*
X134388059Y-74639892D01*
X134477764Y-74739521D01*
X134477767Y-74739523D01*
X134477770Y-74739526D01*
X134622407Y-74844612D01*
X134785733Y-74917329D01*
X134960609Y-74954500D01*
X134960610Y-74954500D01*
X135139389Y-74954500D01*
X135139391Y-74954500D01*
X135314267Y-74917329D01*
X135477593Y-74844612D01*
X135622230Y-74739526D01*
X135741859Y-74606665D01*
X135831250Y-74451835D01*
X135886497Y-74281803D01*
X135905185Y-74104000D01*
X135886497Y-73926197D01*
X135851828Y-73819496D01*
X135831252Y-73756170D01*
X135831249Y-73756164D01*
X135784625Y-73675409D01*
X135741859Y-73601335D01*
X135697285Y-73551830D01*
X135667055Y-73488838D01*
X135675681Y-73419503D01*
X135720422Y-73365837D01*
X135787075Y-73344880D01*
X135789808Y-73344859D01*
X141426097Y-73365545D01*
X141493064Y-73385475D01*
X141538625Y-73438447D01*
X141549641Y-73489903D01*
X141525145Y-81949812D01*
X141505267Y-82016794D01*
X141489988Y-82035957D01*
X139523733Y-84055354D01*
X138322342Y-85238209D01*
X138311669Y-85249954D01*
X138303467Y-85258980D01*
X138277305Y-85291191D01*
X138277304Y-85291193D01*
X138277304Y-85291192D01*
X138244435Y-85336587D01*
X138184663Y-85467464D01*
X138164978Y-85534502D01*
X138164975Y-85534513D01*
X138162139Y-85554236D01*
X138133113Y-85617791D01*
X138074334Y-85655564D01*
X138004465Y-85655562D01*
X137945687Y-85617787D01*
X137932014Y-85598585D01*
X137916859Y-85572335D01*
X137900563Y-85554236D01*
X137797235Y-85439478D01*
X137797232Y-85439476D01*
X137797231Y-85439475D01*
X137797230Y-85439474D01*
X137652593Y-85334388D01*
X137489267Y-85261671D01*
X137489265Y-85261670D01*
X137361594Y-85234533D01*
X137314391Y-85224500D01*
X137135609Y-85224500D01*
X137104954Y-85231015D01*
X136960733Y-85261670D01*
X136960728Y-85261672D01*
X136797408Y-85334387D01*
X136652768Y-85439475D01*
X136533140Y-85572336D01*
X136443750Y-85727164D01*
X136443747Y-85727170D01*
X136388504Y-85897192D01*
X136388503Y-85897194D01*
X136369815Y-86075000D01*
X136388503Y-86252805D01*
X136388504Y-86252807D01*
X136443747Y-86422829D01*
X136443750Y-86422835D01*
X136533141Y-86577665D01*
X136574812Y-86623946D01*
X136652764Y-86710521D01*
X136652767Y-86710523D01*
X136652770Y-86710526D01*
X136797407Y-86815612D01*
X136960733Y-86888329D01*
X137135609Y-86925500D01*
X137135610Y-86925500D01*
X137314389Y-86925500D01*
X137314391Y-86925500D01*
X137489267Y-86888329D01*
X137652593Y-86815612D01*
X137797230Y-86710526D01*
X137916859Y-86577665D01*
X137916860Y-86577661D01*
X137920184Y-86573089D01*
X137975515Y-86530425D01*
X138045128Y-86524447D01*
X138106922Y-86557055D01*
X138141278Y-86617894D01*
X138144500Y-86645977D01*
X138144500Y-88399997D01*
X138144500Y-91368927D01*
X138146015Y-91396567D01*
X138146016Y-91396572D01*
X138146016Y-91396573D01*
X138150488Y-91437263D01*
X138159530Y-91491821D01*
X138167056Y-91511712D01*
X138172369Y-91581379D01*
X138139173Y-91642859D01*
X138123967Y-91655909D01*
X138077769Y-91689474D01*
X138077764Y-91689478D01*
X137958140Y-91822336D01*
X137868750Y-91977164D01*
X137868747Y-91977170D01*
X137813504Y-92147192D01*
X137813503Y-92147194D01*
X137794815Y-92325000D01*
X137813503Y-92502805D01*
X137813504Y-92502807D01*
X137868747Y-92672829D01*
X137868750Y-92672835D01*
X137958141Y-92827665D01*
X137984816Y-92857290D01*
X138077764Y-92960521D01*
X138077767Y-92960523D01*
X138077770Y-92960526D01*
X138125382Y-92995118D01*
X138168046Y-93050447D01*
X138174025Y-93120060D01*
X138171473Y-93130368D01*
X138164978Y-93152486D01*
X138164977Y-93152493D01*
X138164976Y-93152497D01*
X138150205Y-93255232D01*
X138144500Y-93294914D01*
X138144500Y-96186225D01*
X138124815Y-96253264D01*
X138072011Y-96299019D01*
X138002853Y-96308963D01*
X137994720Y-96307515D01*
X137839392Y-96274500D01*
X137839391Y-96274500D01*
X137660609Y-96274500D01*
X137629954Y-96281015D01*
X137485733Y-96311670D01*
X137485728Y-96311672D01*
X137322408Y-96384387D01*
X137177768Y-96489475D01*
X137058140Y-96622336D01*
X136968750Y-96777164D01*
X136968747Y-96777170D01*
X136913504Y-96947192D01*
X136913503Y-96947194D01*
X136894815Y-97125000D01*
X136913503Y-97302805D01*
X136913504Y-97302807D01*
X136955541Y-97432182D01*
X136957536Y-97502023D01*
X136921456Y-97561856D01*
X136858755Y-97592684D01*
X136837610Y-97594500D01*
X133512665Y-97594500D01*
X133487838Y-97595721D01*
X133487833Y-97595721D01*
X133487822Y-97595722D01*
X133463978Y-97598075D01*
X133451241Y-97599332D01*
X133451234Y-97599333D01*
X133451232Y-97599333D01*
X133402096Y-97606632D01*
X133266438Y-97654535D01*
X133266434Y-97654537D01*
X133206661Y-97685825D01*
X133205655Y-97686302D01*
X133204521Y-97686944D01*
X133087846Y-97771134D01*
X131789722Y-99024497D01*
X131701017Y-99110143D01*
X131701016Y-99110143D01*
X131683509Y-99128851D01*
X131659049Y-99157797D01*
X131628039Y-99198506D01*
X131564486Y-99327585D01*
X131564485Y-99327588D01*
X131542953Y-99393733D01*
X131542858Y-99394021D01*
X131518243Y-99535782D01*
X131487675Y-100585283D01*
X131487246Y-100599997D01*
X131447626Y-101960283D01*
X131447197Y-101974997D01*
X131400596Y-103574997D01*
X131376631Y-104397783D01*
X131376202Y-104412498D01*
X131373278Y-104512855D01*
X131351650Y-104579293D01*
X131297536Y-104623491D01*
X131228117Y-104631416D01*
X131165434Y-104600552D01*
X131131399Y-104547559D01*
X131129299Y-104541097D01*
X131124773Y-104527165D01*
X131035382Y-104372335D01*
X130986885Y-104318474D01*
X130915758Y-104239478D01*
X130915755Y-104239476D01*
X130915754Y-104239475D01*
X130915753Y-104239474D01*
X130771116Y-104134388D01*
X130607790Y-104061671D01*
X130607788Y-104061670D01*
X130480117Y-104034533D01*
X130432914Y-104024500D01*
X130254132Y-104024500D01*
X130223477Y-104031015D01*
X130079256Y-104061670D01*
X130079251Y-104061672D01*
X129915931Y-104134387D01*
X129771291Y-104239475D01*
X129651663Y-104372336D01*
X129559024Y-104532793D01*
X129557809Y-104532091D01*
X129517313Y-104579720D01*
X129450461Y-104600030D01*
X129383240Y-104580972D01*
X129341915Y-104538034D01*
X129291862Y-104451339D01*
X129291860Y-104451336D01*
X129172235Y-104318478D01*
X129172232Y-104318476D01*
X129172231Y-104318475D01*
X129172230Y-104318474D01*
X129027593Y-104213388D01*
X128864267Y-104140671D01*
X128864265Y-104140670D01*
X128736594Y-104113533D01*
X128689391Y-104103500D01*
X128510609Y-104103500D01*
X128479954Y-104110015D01*
X128335733Y-104140670D01*
X128335728Y-104140672D01*
X128172408Y-104213387D01*
X128027768Y-104318475D01*
X127908140Y-104451336D01*
X127818750Y-104606164D01*
X127818747Y-104606170D01*
X127763504Y-104776192D01*
X127763503Y-104776194D01*
X127744815Y-104954000D01*
X127763503Y-105131805D01*
X127763504Y-105131807D01*
X127818747Y-105301829D01*
X127818750Y-105301835D01*
X127908141Y-105456665D01*
X127949812Y-105502946D01*
X128027764Y-105589521D01*
X128027767Y-105589523D01*
X128027770Y-105589526D01*
X128172407Y-105694612D01*
X128335733Y-105767329D01*
X128510609Y-105804500D01*
X128510610Y-105804500D01*
X128689389Y-105804500D01*
X128689391Y-105804500D01*
X128864267Y-105767329D01*
X129027593Y-105694612D01*
X129172230Y-105589526D01*
X129291859Y-105456665D01*
X129381250Y-105301835D01*
X129381250Y-105301833D01*
X129384499Y-105296207D01*
X129385717Y-105296910D01*
X129426185Y-105249295D01*
X129493033Y-105228970D01*
X129560258Y-105248012D01*
X129601607Y-105290964D01*
X129631737Y-105343151D01*
X129651664Y-105377665D01*
X129680776Y-105409997D01*
X129771287Y-105510521D01*
X129771290Y-105510523D01*
X129771293Y-105510526D01*
X129915930Y-105615612D01*
X130079256Y-105688329D01*
X130254132Y-105725500D01*
X130254133Y-105725500D01*
X130432912Y-105725500D01*
X130432914Y-105725500D01*
X130607790Y-105688329D01*
X130771116Y-105615612D01*
X130915753Y-105510526D01*
X131035382Y-105377665D01*
X131119069Y-105232713D01*
X131169633Y-105184501D01*
X131238240Y-105171277D01*
X131303105Y-105197245D01*
X131343634Y-105254159D01*
X131350401Y-105298326D01*
X131336947Y-105760283D01*
X131336518Y-105774997D01*
X131298430Y-107082669D01*
X131298430Y-107082679D01*
X131308256Y-107197636D01*
X131308258Y-107197649D01*
X131308734Y-107200000D01*
X131319408Y-107252758D01*
X131355052Y-107362506D01*
X131432836Y-107483540D01*
X131432839Y-107483544D01*
X131469525Y-107525882D01*
X131473981Y-107531024D01*
X131478577Y-107536328D01*
X131478591Y-107536344D01*
X131587328Y-107630567D01*
X131587331Y-107630568D01*
X131587332Y-107630569D01*
X131628948Y-107649575D01*
X131718205Y-107690338D01*
X131763021Y-107703497D01*
X131785239Y-107710022D01*
X131785244Y-107710023D01*
X131785248Y-107710024D01*
X131927664Y-107730500D01*
X132716761Y-107730500D01*
X132783800Y-107750185D01*
X132829555Y-107802989D01*
X132839499Y-107872147D01*
X132810474Y-107935703D01*
X132751696Y-107973477D01*
X132742542Y-107975790D01*
X132672533Y-107990670D01*
X132672528Y-107990672D01*
X132509208Y-108063387D01*
X132364568Y-108168475D01*
X132244940Y-108301336D01*
X132155550Y-108456164D01*
X132155547Y-108456170D01*
X132100304Y-108626192D01*
X132100303Y-108626194D01*
X132081615Y-108804000D01*
X132100303Y-108981805D01*
X132100304Y-108981807D01*
X132155547Y-109151829D01*
X132155550Y-109151835D01*
X132244941Y-109306665D01*
X132269751Y-109334219D01*
X132364564Y-109439521D01*
X132364567Y-109439523D01*
X132364570Y-109439526D01*
X132509207Y-109544612D01*
X132672533Y-109617329D01*
X132847409Y-109654500D01*
X132847410Y-109654500D01*
X133026189Y-109654500D01*
X133026191Y-109654500D01*
X133201067Y-109617329D01*
X133364393Y-109544612D01*
X133509030Y-109439526D01*
X133628659Y-109306665D01*
X133718050Y-109151835D01*
X133773297Y-108981803D01*
X133791985Y-108804000D01*
X133773297Y-108626197D01*
X133718050Y-108456165D01*
X133628659Y-108301335D01*
X133544437Y-108207797D01*
X133509035Y-108168478D01*
X133509032Y-108168476D01*
X133509031Y-108168475D01*
X133509030Y-108168474D01*
X133364393Y-108063388D01*
X133201067Y-107990671D01*
X133201065Y-107990670D01*
X133131058Y-107975790D01*
X133069576Y-107942598D01*
X133035800Y-107881435D01*
X133040452Y-107811720D01*
X133082057Y-107755588D01*
X133147404Y-107730859D01*
X133156839Y-107730500D01*
X138108227Y-107730500D01*
X138175266Y-107750185D01*
X138221021Y-107802989D01*
X138232204Y-107856894D01*
X138163793Y-111399909D01*
X138163605Y-111409666D01*
X138156514Y-111776894D01*
X138135539Y-111843541D01*
X138081861Y-111888268D01*
X138032537Y-111898500D01*
X134956250Y-111898500D01*
X129050000Y-111804000D01*
X129049999Y-111804000D01*
X124285873Y-116518500D01*
X124224375Y-116551664D01*
X124199533Y-116554358D01*
X120560379Y-116580210D01*
X120493201Y-116561002D01*
X120447072Y-116508524D01*
X120436638Y-116439438D01*
X120457922Y-116385092D01*
X120554035Y-116247830D01*
X120653903Y-116033663D01*
X120715063Y-115805408D01*
X120735659Y-115570000D01*
X120733478Y-115545077D01*
X120731539Y-115522918D01*
X120715063Y-115334592D01*
X120653903Y-115106337D01*
X120554035Y-114892171D01*
X120495225Y-114808180D01*
X120418494Y-114698597D01*
X120251402Y-114531506D01*
X120251396Y-114531501D01*
X120065842Y-114401575D01*
X120022217Y-114346998D01*
X120015023Y-114277500D01*
X120046546Y-114215145D01*
X120065842Y-114198425D01*
X120088026Y-114182891D01*
X120251401Y-114068495D01*
X120418495Y-113901401D01*
X120554035Y-113707830D01*
X120653903Y-113493663D01*
X120715063Y-113265408D01*
X120735659Y-113030000D01*
X120715063Y-112794592D01*
X120653903Y-112566337D01*
X120554035Y-112352171D01*
X120495225Y-112268180D01*
X120418494Y-112158597D01*
X120251402Y-111991506D01*
X120251396Y-111991501D01*
X120065842Y-111861575D01*
X120022217Y-111806998D01*
X120015023Y-111737500D01*
X120046546Y-111675145D01*
X120065842Y-111658425D01*
X120088026Y-111642891D01*
X120251401Y-111528495D01*
X120418495Y-111361401D01*
X120554035Y-111167830D01*
X120653903Y-110953663D01*
X120715063Y-110725408D01*
X120735659Y-110490000D01*
X120715063Y-110254592D01*
X120653903Y-110026337D01*
X120554035Y-109812171D01*
X120495225Y-109728180D01*
X120418494Y-109618597D01*
X120251402Y-109451506D01*
X120251396Y-109451501D01*
X120065842Y-109321575D01*
X120022217Y-109266998D01*
X120015023Y-109197500D01*
X120046546Y-109135145D01*
X120065842Y-109118425D01*
X120088026Y-109102891D01*
X120251401Y-108988495D01*
X120418495Y-108821401D01*
X120554035Y-108627830D01*
X120653903Y-108413663D01*
X120715063Y-108185408D01*
X120735659Y-107950000D01*
X120715063Y-107714592D01*
X120653903Y-107486337D01*
X120554035Y-107272171D01*
X120554004Y-107272126D01*
X120418494Y-107078597D01*
X120251402Y-106911506D01*
X120251396Y-106911501D01*
X120065842Y-106781575D01*
X120022217Y-106726998D01*
X120015023Y-106657500D01*
X120046546Y-106595145D01*
X120065842Y-106578425D01*
X120088026Y-106562891D01*
X120251401Y-106448495D01*
X120418495Y-106281401D01*
X120554035Y-106087830D01*
X120653903Y-105873663D01*
X120715063Y-105645408D01*
X120735659Y-105410000D01*
X120715063Y-105174592D01*
X120653903Y-104946337D01*
X120554035Y-104732171D01*
X120495225Y-104648180D01*
X120418494Y-104538597D01*
X120251402Y-104371506D01*
X120251396Y-104371501D01*
X120065842Y-104241575D01*
X120022217Y-104186998D01*
X120015023Y-104117500D01*
X120046546Y-104055145D01*
X120065842Y-104038425D01*
X120234970Y-103920000D01*
X120251401Y-103908495D01*
X120418495Y-103741401D01*
X120554035Y-103547830D01*
X120653903Y-103333663D01*
X120715063Y-103105408D01*
X120735659Y-102870000D01*
X120715063Y-102634592D01*
X120664499Y-102445881D01*
X120653905Y-102406344D01*
X120653904Y-102406343D01*
X120653903Y-102406337D01*
X120554035Y-102192171D01*
X120544746Y-102178904D01*
X120418494Y-101998597D01*
X120251402Y-101831506D01*
X120251396Y-101831501D01*
X120065842Y-101701575D01*
X120022217Y-101646998D01*
X120015023Y-101577500D01*
X120046546Y-101515145D01*
X120065842Y-101498425D01*
X120088026Y-101482891D01*
X120251401Y-101368495D01*
X120418495Y-101201401D01*
X120554035Y-101007830D01*
X120653903Y-100793663D01*
X120715063Y-100565408D01*
X120735659Y-100330000D01*
X120715063Y-100094592D01*
X120653903Y-99866337D01*
X120554035Y-99652171D01*
X120549079Y-99645092D01*
X120418494Y-99458597D01*
X120251402Y-99291506D01*
X120251396Y-99291501D01*
X120065842Y-99161575D01*
X120036607Y-99125000D01*
X126369815Y-99125000D01*
X126388503Y-99302805D01*
X126388504Y-99302807D01*
X126443747Y-99472829D01*
X126443750Y-99472835D01*
X126533141Y-99627665D01*
X126574812Y-99673946D01*
X126652764Y-99760521D01*
X126652767Y-99760523D01*
X126652770Y-99760526D01*
X126797407Y-99865612D01*
X126960733Y-99938329D01*
X127135609Y-99975500D01*
X127135610Y-99975500D01*
X127314389Y-99975500D01*
X127314391Y-99975500D01*
X127489267Y-99938329D01*
X127652593Y-99865612D01*
X127797230Y-99760526D01*
X127916859Y-99627665D01*
X128006250Y-99472835D01*
X128061497Y-99302803D01*
X128080185Y-99125000D01*
X128061497Y-98947197D01*
X128008186Y-98783123D01*
X128006252Y-98777170D01*
X128006249Y-98777164D01*
X127916859Y-98622335D01*
X127853368Y-98551821D01*
X127797235Y-98489478D01*
X127797232Y-98489476D01*
X127797231Y-98489475D01*
X127797230Y-98489474D01*
X127652593Y-98384388D01*
X127489267Y-98311671D01*
X127489265Y-98311670D01*
X127361594Y-98284533D01*
X127314391Y-98274500D01*
X127135609Y-98274500D01*
X127104954Y-98281015D01*
X126960733Y-98311670D01*
X126960728Y-98311672D01*
X126797408Y-98384387D01*
X126652768Y-98489475D01*
X126533140Y-98622336D01*
X126443750Y-98777164D01*
X126443747Y-98777170D01*
X126388504Y-98947192D01*
X126388503Y-98947194D01*
X126369815Y-99125000D01*
X120036607Y-99125000D01*
X120022217Y-99106998D01*
X120015023Y-99037500D01*
X120046546Y-98975145D01*
X120065842Y-98958425D01*
X120119156Y-98921094D01*
X120251401Y-98828495D01*
X120418495Y-98661401D01*
X120554035Y-98467830D01*
X120653903Y-98253663D01*
X120715063Y-98025408D01*
X120735659Y-97790000D01*
X120732938Y-97758905D01*
X120726643Y-97686945D01*
X120715063Y-97554592D01*
X120653903Y-97326337D01*
X120554035Y-97112171D01*
X120545513Y-97100000D01*
X126794815Y-97100000D01*
X126813503Y-97277805D01*
X126813504Y-97277807D01*
X126868747Y-97447829D01*
X126868750Y-97447835D01*
X126958141Y-97602665D01*
X126994197Y-97642709D01*
X127077764Y-97735521D01*
X127077767Y-97735523D01*
X127077770Y-97735526D01*
X127222407Y-97840612D01*
X127385733Y-97913329D01*
X127560609Y-97950500D01*
X127560610Y-97950500D01*
X127739389Y-97950500D01*
X127739391Y-97950500D01*
X127914267Y-97913329D01*
X128077593Y-97840612D01*
X128222230Y-97735526D01*
X128341859Y-97602665D01*
X128431250Y-97447835D01*
X128486497Y-97277803D01*
X128505185Y-97100000D01*
X128486497Y-96922197D01*
X128438532Y-96774576D01*
X128431252Y-96752170D01*
X128431249Y-96752164D01*
X128341859Y-96597335D01*
X128272226Y-96520000D01*
X128222235Y-96464478D01*
X128222232Y-96464476D01*
X128222231Y-96464475D01*
X128222230Y-96464474D01*
X128077593Y-96359388D01*
X127914267Y-96286671D01*
X127914265Y-96286670D01*
X127757099Y-96253264D01*
X127739391Y-96249500D01*
X127560609Y-96249500D01*
X127542901Y-96253264D01*
X127385733Y-96286670D01*
X127385728Y-96286672D01*
X127222408Y-96359387D01*
X127077768Y-96464475D01*
X126958140Y-96597336D01*
X126868750Y-96752164D01*
X126868747Y-96752170D01*
X126813504Y-96922192D01*
X126813503Y-96922194D01*
X126794815Y-97100000D01*
X120545513Y-97100000D01*
X120528476Y-97075668D01*
X120418494Y-96918597D01*
X120251402Y-96751506D01*
X120251396Y-96751501D01*
X120065842Y-96621575D01*
X120022217Y-96566998D01*
X120015023Y-96497500D01*
X120046546Y-96435145D01*
X120065842Y-96418425D01*
X120203378Y-96322121D01*
X120251401Y-96288495D01*
X120418495Y-96121401D01*
X120554035Y-95927830D01*
X120653903Y-95713663D01*
X120715063Y-95485408D01*
X120735659Y-95250000D01*
X120731284Y-95200000D01*
X127944815Y-95200000D01*
X127963503Y-95377805D01*
X127963504Y-95377807D01*
X128018747Y-95547829D01*
X128018750Y-95547835D01*
X128108141Y-95702665D01*
X128118044Y-95713663D01*
X128227764Y-95835521D01*
X128227767Y-95835523D01*
X128227770Y-95835526D01*
X128372407Y-95940612D01*
X128535733Y-96013329D01*
X128710609Y-96050500D01*
X128710610Y-96050500D01*
X128889389Y-96050500D01*
X128889391Y-96050500D01*
X129064267Y-96013329D01*
X129227593Y-95940612D01*
X129372230Y-95835526D01*
X129491859Y-95702665D01*
X129581250Y-95547835D01*
X129636497Y-95377803D01*
X129655185Y-95200000D01*
X129636497Y-95022197D01*
X129581250Y-94852165D01*
X129491859Y-94697335D01*
X129404419Y-94600223D01*
X129372235Y-94564478D01*
X129372232Y-94564476D01*
X129372231Y-94564475D01*
X129372230Y-94564474D01*
X129227593Y-94459388D01*
X129064267Y-94386671D01*
X129064265Y-94386670D01*
X128936594Y-94359533D01*
X128889391Y-94349500D01*
X128710609Y-94349500D01*
X128679954Y-94356015D01*
X128535733Y-94386670D01*
X128535728Y-94386672D01*
X128372408Y-94459387D01*
X128227768Y-94564475D01*
X128108140Y-94697336D01*
X128018750Y-94852164D01*
X128018747Y-94852170D01*
X127963504Y-95022192D01*
X127963503Y-95022194D01*
X127944815Y-95200000D01*
X120731284Y-95200000D01*
X120715063Y-95014592D01*
X120653903Y-94786337D01*
X120554035Y-94572171D01*
X120548649Y-94564478D01*
X120418494Y-94378597D01*
X120251402Y-94211506D01*
X120251396Y-94211501D01*
X120065842Y-94081575D01*
X120022217Y-94026998D01*
X120015023Y-93957500D01*
X120046546Y-93895145D01*
X120065842Y-93878425D01*
X120088026Y-93862891D01*
X120251401Y-93748495D01*
X120418495Y-93581401D01*
X120554035Y-93387830D01*
X120653903Y-93173663D01*
X120715063Y-92945408D01*
X120735659Y-92710000D01*
X120715063Y-92474592D01*
X120653903Y-92246337D01*
X120554035Y-92032171D01*
X120516738Y-91978904D01*
X120418494Y-91838597D01*
X120251402Y-91671506D01*
X120251396Y-91671501D01*
X120065842Y-91541575D01*
X120055347Y-91528445D01*
X130173260Y-91528445D01*
X130191948Y-91706250D01*
X130191949Y-91706252D01*
X130247192Y-91876274D01*
X130247195Y-91876280D01*
X130336586Y-92031110D01*
X130362800Y-92060223D01*
X130456209Y-92163966D01*
X130456212Y-92163968D01*
X130456215Y-92163971D01*
X130600852Y-92269057D01*
X130764178Y-92341774D01*
X130939054Y-92378945D01*
X130939055Y-92378945D01*
X131117834Y-92378945D01*
X131117836Y-92378945D01*
X131292712Y-92341774D01*
X131456038Y-92269057D01*
X131600675Y-92163971D01*
X131615779Y-92147197D01*
X131653844Y-92104921D01*
X131720304Y-92031110D01*
X131809695Y-91876280D01*
X131864942Y-91706248D01*
X131883630Y-91528445D01*
X131864942Y-91350642D01*
X131837318Y-91265626D01*
X131809697Y-91180615D01*
X131809694Y-91180609D01*
X131729323Y-91041402D01*
X131720304Y-91025780D01*
X131635703Y-90931821D01*
X131600680Y-90892923D01*
X131600677Y-90892921D01*
X131600676Y-90892920D01*
X131600675Y-90892919D01*
X131456038Y-90787833D01*
X131292712Y-90715116D01*
X131292710Y-90715115D01*
X131165039Y-90687978D01*
X131117836Y-90677945D01*
X130939054Y-90677945D01*
X130908399Y-90684460D01*
X130764178Y-90715115D01*
X130764173Y-90715117D01*
X130600853Y-90787832D01*
X130456213Y-90892920D01*
X130336585Y-91025781D01*
X130247195Y-91180609D01*
X130247192Y-91180615D01*
X130191949Y-91350637D01*
X130191948Y-91350639D01*
X130173260Y-91528445D01*
X120055347Y-91528445D01*
X120022217Y-91486998D01*
X120015023Y-91417500D01*
X120046546Y-91355145D01*
X120065842Y-91338425D01*
X120088026Y-91322891D01*
X120251401Y-91208495D01*
X120418495Y-91041401D01*
X120554035Y-90847830D01*
X120653903Y-90633663D01*
X120715063Y-90405408D01*
X120735659Y-90170000D01*
X120719650Y-89987024D01*
X131531838Y-89987024D01*
X131550526Y-90164829D01*
X131550527Y-90164831D01*
X131605770Y-90334853D01*
X131605773Y-90334859D01*
X131695164Y-90489689D01*
X131736835Y-90535970D01*
X131814787Y-90622545D01*
X131814790Y-90622547D01*
X131814793Y-90622550D01*
X131959430Y-90727636D01*
X132122756Y-90800353D01*
X132297632Y-90837524D01*
X132297633Y-90837524D01*
X132476412Y-90837524D01*
X132476414Y-90837524D01*
X132651290Y-90800353D01*
X132814616Y-90727636D01*
X132959253Y-90622550D01*
X133078882Y-90489689D01*
X133168273Y-90334859D01*
X133223520Y-90164827D01*
X133242208Y-89987024D01*
X133224977Y-89823092D01*
X133237546Y-89754368D01*
X133285278Y-89703343D01*
X133353018Y-89686225D01*
X133398733Y-89696855D01*
X133435733Y-89713329D01*
X133610609Y-89750500D01*
X133610610Y-89750500D01*
X133789389Y-89750500D01*
X133789391Y-89750500D01*
X133964267Y-89713329D01*
X134127593Y-89640612D01*
X134272230Y-89535526D01*
X134391859Y-89402665D01*
X134481250Y-89247835D01*
X134536497Y-89077803D01*
X134555185Y-88900000D01*
X134536497Y-88722197D01*
X134481250Y-88552165D01*
X134391859Y-88397335D01*
X134345003Y-88345296D01*
X134272235Y-88264478D01*
X134272232Y-88264476D01*
X134272231Y-88264475D01*
X134272230Y-88264474D01*
X134127593Y-88159388D01*
X133964267Y-88086671D01*
X133964265Y-88086670D01*
X133836594Y-88059533D01*
X133789391Y-88049500D01*
X133610609Y-88049500D01*
X133588907Y-88054113D01*
X133435733Y-88086670D01*
X133435728Y-88086672D01*
X133272408Y-88159387D01*
X133127768Y-88264475D01*
X133008140Y-88397336D01*
X132918750Y-88552164D01*
X132918747Y-88552170D01*
X132863504Y-88722192D01*
X132863503Y-88722194D01*
X132863503Y-88722197D01*
X132844815Y-88900000D01*
X132862044Y-89063927D01*
X132849476Y-89132656D01*
X132801744Y-89183680D01*
X132734004Y-89200798D01*
X132688289Y-89190168D01*
X132651290Y-89173695D01*
X132651288Y-89173694D01*
X132486138Y-89138591D01*
X132476414Y-89136524D01*
X132297632Y-89136524D01*
X132287908Y-89138591D01*
X132122756Y-89173694D01*
X132122751Y-89173696D01*
X131959431Y-89246411D01*
X131814791Y-89351499D01*
X131695163Y-89484360D01*
X131605773Y-89639188D01*
X131605770Y-89639194D01*
X131550527Y-89809216D01*
X131550526Y-89809218D01*
X131531838Y-89987024D01*
X120719650Y-89987024D01*
X120715063Y-89934592D01*
X120664499Y-89745881D01*
X120653905Y-89706344D01*
X120653904Y-89706343D01*
X120653903Y-89706337D01*
X120554035Y-89492171D01*
X120495225Y-89408180D01*
X120418494Y-89298597D01*
X120251402Y-89131506D01*
X120251396Y-89131501D01*
X120065842Y-89001575D01*
X120022217Y-88946998D01*
X120015023Y-88877500D01*
X120046546Y-88815145D01*
X120065842Y-88798425D01*
X120134394Y-88750424D01*
X120251401Y-88668495D01*
X120418495Y-88501401D01*
X120554035Y-88307830D01*
X120653903Y-88093663D01*
X120715063Y-87865408D01*
X120735659Y-87630000D01*
X120715063Y-87394592D01*
X120653903Y-87166337D01*
X120554035Y-86952171D01*
X120495225Y-86868180D01*
X120418494Y-86758597D01*
X120251402Y-86591506D01*
X120251396Y-86591501D01*
X120065842Y-86461575D01*
X120022217Y-86406998D01*
X120015023Y-86337500D01*
X120046546Y-86275145D01*
X120065842Y-86258425D01*
X120088026Y-86242891D01*
X120251401Y-86128495D01*
X120375896Y-86004000D01*
X133044815Y-86004000D01*
X133063503Y-86181805D01*
X133063504Y-86181807D01*
X133118747Y-86351829D01*
X133118750Y-86351835D01*
X133208141Y-86506665D01*
X133229535Y-86530425D01*
X133327764Y-86639521D01*
X133327767Y-86639523D01*
X133327770Y-86639526D01*
X133472407Y-86744612D01*
X133635733Y-86817329D01*
X133810609Y-86854500D01*
X133810610Y-86854500D01*
X133989389Y-86854500D01*
X133989391Y-86854500D01*
X134164267Y-86817329D01*
X134327593Y-86744612D01*
X134472230Y-86639526D01*
X134591859Y-86506665D01*
X134681250Y-86351835D01*
X134736497Y-86181803D01*
X134755185Y-86004000D01*
X134736497Y-85826197D01*
X134681250Y-85656165D01*
X134591859Y-85501335D01*
X134536159Y-85439474D01*
X134472235Y-85368478D01*
X134472232Y-85368476D01*
X134472231Y-85368475D01*
X134472230Y-85368474D01*
X134327593Y-85263388D01*
X134164267Y-85190671D01*
X134164265Y-85190670D01*
X134036594Y-85163533D01*
X133989391Y-85153500D01*
X133810609Y-85153500D01*
X133779954Y-85160015D01*
X133635733Y-85190670D01*
X133635728Y-85190672D01*
X133472408Y-85263387D01*
X133327768Y-85368475D01*
X133208140Y-85501336D01*
X133118750Y-85656164D01*
X133118747Y-85656170D01*
X133063504Y-85826192D01*
X133063503Y-85826194D01*
X133044815Y-86004000D01*
X120375896Y-86004000D01*
X120418495Y-85961401D01*
X120554035Y-85767830D01*
X120653903Y-85553663D01*
X120715063Y-85325408D01*
X120735659Y-85090000D01*
X120715063Y-84854592D01*
X120653903Y-84626337D01*
X120554035Y-84412171D01*
X120513949Y-84354921D01*
X120418494Y-84218597D01*
X120251402Y-84051506D01*
X120251396Y-84051501D01*
X120065842Y-83921575D01*
X120022217Y-83866998D01*
X120015023Y-83797500D01*
X120046546Y-83735145D01*
X120065842Y-83718425D01*
X120086443Y-83704000D01*
X135144815Y-83704000D01*
X135163503Y-83881805D01*
X135163504Y-83881807D01*
X135218747Y-84051829D01*
X135218750Y-84051835D01*
X135308141Y-84206665D01*
X135347861Y-84250778D01*
X135427764Y-84339521D01*
X135427767Y-84339523D01*
X135427770Y-84339526D01*
X135572407Y-84444612D01*
X135735733Y-84517329D01*
X135910609Y-84554500D01*
X135910610Y-84554500D01*
X136089389Y-84554500D01*
X136089391Y-84554500D01*
X136264267Y-84517329D01*
X136427593Y-84444612D01*
X136572230Y-84339526D01*
X136691859Y-84206665D01*
X136781250Y-84051835D01*
X136836497Y-83881803D01*
X136855185Y-83704000D01*
X136836497Y-83526197D01*
X136781250Y-83356165D01*
X136691859Y-83201335D01*
X136645003Y-83149296D01*
X136572235Y-83068478D01*
X136572232Y-83068476D01*
X136572231Y-83068475D01*
X136572230Y-83068474D01*
X136427593Y-82963388D01*
X136264267Y-82890671D01*
X136264265Y-82890670D01*
X136136594Y-82863533D01*
X136089391Y-82853500D01*
X135910609Y-82853500D01*
X135879954Y-82860015D01*
X135735733Y-82890670D01*
X135735728Y-82890672D01*
X135572408Y-82963387D01*
X135427768Y-83068475D01*
X135308140Y-83201336D01*
X135218750Y-83356164D01*
X135218747Y-83356170D01*
X135163504Y-83526192D01*
X135163503Y-83526194D01*
X135144815Y-83704000D01*
X120086443Y-83704000D01*
X120120718Y-83680000D01*
X120251401Y-83588495D01*
X120418495Y-83421401D01*
X120554035Y-83227830D01*
X120653903Y-83013663D01*
X120715063Y-82785408D01*
X120735659Y-82550000D01*
X120735187Y-82544610D01*
X120731539Y-82502918D01*
X120715063Y-82314592D01*
X120653903Y-82086337D01*
X120554035Y-81872171D01*
X120506302Y-81804000D01*
X120418494Y-81678597D01*
X120251402Y-81511506D01*
X120251396Y-81511501D01*
X120097868Y-81404000D01*
X123994815Y-81404000D01*
X124013503Y-81581805D01*
X124013504Y-81581807D01*
X124068747Y-81751829D01*
X124068750Y-81751835D01*
X124158141Y-81906665D01*
X124196991Y-81949812D01*
X124277764Y-82039521D01*
X124277767Y-82039523D01*
X124277770Y-82039526D01*
X124422407Y-82144612D01*
X124585733Y-82217329D01*
X124760609Y-82254500D01*
X124760610Y-82254500D01*
X124939389Y-82254500D01*
X124939391Y-82254500D01*
X125114267Y-82217329D01*
X125277593Y-82144612D01*
X125422230Y-82039526D01*
X125541859Y-81906665D01*
X125601133Y-81804000D01*
X126994815Y-81804000D01*
X127013503Y-81981805D01*
X127013504Y-81981807D01*
X127068747Y-82151829D01*
X127068750Y-82151835D01*
X127158141Y-82306665D01*
X127199812Y-82352946D01*
X127277764Y-82439521D01*
X127277767Y-82439523D01*
X127277770Y-82439526D01*
X127422407Y-82544612D01*
X127585733Y-82617329D01*
X127760609Y-82654500D01*
X127760610Y-82654500D01*
X127939389Y-82654500D01*
X127939391Y-82654500D01*
X128114267Y-82617329D01*
X128277593Y-82544612D01*
X128422230Y-82439526D01*
X128541859Y-82306665D01*
X128631250Y-82151835D01*
X128686497Y-81981803D01*
X128705185Y-81804000D01*
X128686497Y-81626197D01*
X128651534Y-81518591D01*
X128631252Y-81456170D01*
X128631249Y-81456164D01*
X128541859Y-81301335D01*
X128495003Y-81249296D01*
X128422235Y-81168478D01*
X128422232Y-81168476D01*
X128422231Y-81168475D01*
X128422230Y-81168474D01*
X128277593Y-81063388D01*
X128114267Y-80990671D01*
X128114265Y-80990670D01*
X127986594Y-80963533D01*
X127939391Y-80953500D01*
X127760609Y-80953500D01*
X127729954Y-80960015D01*
X127585733Y-80990670D01*
X127585728Y-80990672D01*
X127422408Y-81063387D01*
X127277768Y-81168475D01*
X127158140Y-81301336D01*
X127068750Y-81456164D01*
X127068747Y-81456170D01*
X127013504Y-81626192D01*
X127013503Y-81626194D01*
X126994815Y-81804000D01*
X125601133Y-81804000D01*
X125631250Y-81751835D01*
X125686497Y-81581803D01*
X125705185Y-81404000D01*
X125686497Y-81226197D01*
X125658873Y-81141181D01*
X125631252Y-81056170D01*
X125631249Y-81056164D01*
X125626823Y-81048498D01*
X125541859Y-80901335D01*
X125494936Y-80849222D01*
X125422235Y-80768478D01*
X125422232Y-80768476D01*
X125422231Y-80768475D01*
X125422230Y-80768474D01*
X125277593Y-80663388D01*
X125114267Y-80590671D01*
X125114265Y-80590670D01*
X124947539Y-80555232D01*
X124939391Y-80553500D01*
X124760609Y-80553500D01*
X124752461Y-80555232D01*
X124585733Y-80590670D01*
X124585728Y-80590672D01*
X124422408Y-80663387D01*
X124277768Y-80768475D01*
X124158140Y-80901336D01*
X124068750Y-81056164D01*
X124068747Y-81056170D01*
X124013504Y-81226192D01*
X124013503Y-81226194D01*
X123994815Y-81404000D01*
X120097868Y-81404000D01*
X120065842Y-81381575D01*
X120022217Y-81326998D01*
X120015023Y-81257500D01*
X120046546Y-81195145D01*
X120065842Y-81178425D01*
X120230130Y-81063389D01*
X120251401Y-81048495D01*
X120418495Y-80881401D01*
X120554035Y-80687830D01*
X120653903Y-80473663D01*
X120715063Y-80245408D01*
X120735659Y-80010000D01*
X120715063Y-79774592D01*
X120653903Y-79546337D01*
X120554035Y-79332171D01*
X120553780Y-79331807D01*
X120429279Y-79154000D01*
X139194815Y-79154000D01*
X139213503Y-79331805D01*
X139213504Y-79331807D01*
X139268747Y-79501829D01*
X139268750Y-79501835D01*
X139358141Y-79656665D01*
X139399812Y-79702946D01*
X139477764Y-79789521D01*
X139477767Y-79789523D01*
X139477770Y-79789526D01*
X139622407Y-79894612D01*
X139785733Y-79967329D01*
X139960609Y-80004500D01*
X139960610Y-80004500D01*
X140139389Y-80004500D01*
X140139391Y-80004500D01*
X140314267Y-79967329D01*
X140477593Y-79894612D01*
X140622230Y-79789526D01*
X140741859Y-79656665D01*
X140831250Y-79501835D01*
X140886497Y-79331803D01*
X140905185Y-79154000D01*
X140886497Y-78976197D01*
X140856953Y-78885271D01*
X140831252Y-78806170D01*
X140831249Y-78806164D01*
X140806533Y-78763354D01*
X140741859Y-78651335D01*
X140695003Y-78599296D01*
X140622235Y-78518478D01*
X140622232Y-78518476D01*
X140622231Y-78518475D01*
X140622230Y-78518474D01*
X140477593Y-78413388D01*
X140314267Y-78340671D01*
X140314265Y-78340670D01*
X140186594Y-78313533D01*
X140139391Y-78303500D01*
X139960609Y-78303500D01*
X139933689Y-78309222D01*
X139785733Y-78340670D01*
X139785728Y-78340672D01*
X139622408Y-78413387D01*
X139477768Y-78518475D01*
X139358140Y-78651336D01*
X139268750Y-78806164D01*
X139268747Y-78806170D01*
X139213504Y-78976192D01*
X139213503Y-78976194D01*
X139194815Y-79154000D01*
X120429279Y-79154000D01*
X120418496Y-79138600D01*
X120382516Y-79102620D01*
X120296179Y-79016283D01*
X120262696Y-78954963D01*
X120267680Y-78885271D01*
X120309551Y-78829337D01*
X120340529Y-78812422D01*
X120472086Y-78763354D01*
X120472093Y-78763350D01*
X120587187Y-78677190D01*
X120587190Y-78677187D01*
X120673350Y-78562093D01*
X120673354Y-78562086D01*
X120723596Y-78427379D01*
X120723598Y-78427372D01*
X120729999Y-78367844D01*
X120730000Y-78367827D01*
X120730000Y-77720000D01*
X119813686Y-77720000D01*
X119839493Y-77679844D01*
X119880000Y-77541889D01*
X119880000Y-77398111D01*
X119839493Y-77260156D01*
X119813686Y-77220000D01*
X120730000Y-77220000D01*
X120730000Y-76572172D01*
X120729999Y-76572155D01*
X120723598Y-76512627D01*
X120723596Y-76512620D01*
X120673354Y-76377913D01*
X120673350Y-76377906D01*
X120587190Y-76262812D01*
X120587187Y-76262809D01*
X120472093Y-76176649D01*
X120472086Y-76176645D01*
X120337379Y-76126403D01*
X120337372Y-76126401D01*
X120277844Y-76120000D01*
X119630000Y-76120000D01*
X119630000Y-77034498D01*
X119522315Y-76985320D01*
X119415763Y-76970000D01*
X119344237Y-76970000D01*
X119237685Y-76985320D01*
X119130000Y-77034498D01*
X119130000Y-76120000D01*
X118482155Y-76120000D01*
X118422627Y-76126401D01*
X118422620Y-76126403D01*
X118287913Y-76176645D01*
X118287906Y-76176649D01*
X118172812Y-76262809D01*
X118172809Y-76262812D01*
X118086649Y-76377906D01*
X118086645Y-76377913D01*
X118036403Y-76512620D01*
X118036401Y-76512627D01*
X118030000Y-76572155D01*
X118030000Y-77220000D01*
X118946314Y-77220000D01*
X118920507Y-77260156D01*
X118880000Y-77398111D01*
X118880000Y-77541889D01*
X118920507Y-77679844D01*
X118946314Y-77720000D01*
X118030000Y-77720000D01*
X118030000Y-78367844D01*
X118036401Y-78427372D01*
X118036403Y-78427379D01*
X118086645Y-78562086D01*
X118086649Y-78562093D01*
X118172809Y-78677187D01*
X118172812Y-78677190D01*
X118287906Y-78763350D01*
X118287913Y-78763354D01*
X118419470Y-78812421D01*
X118475403Y-78854292D01*
X118499821Y-78919756D01*
X118484970Y-78988029D01*
X118463819Y-79016284D01*
X118341503Y-79138600D01*
X118205965Y-79332169D01*
X118205964Y-79332171D01*
X118106098Y-79546335D01*
X118106094Y-79546344D01*
X118044938Y-79774586D01*
X118044936Y-79774596D01*
X118024341Y-80009999D01*
X118024341Y-80010000D01*
X118044936Y-80245403D01*
X118044938Y-80245413D01*
X118106094Y-80473655D01*
X118106096Y-80473659D01*
X118106097Y-80473663D01*
X118194568Y-80663389D01*
X118205965Y-80687830D01*
X118205967Y-80687834D01*
X118276004Y-80787856D01*
X118322963Y-80854921D01*
X118341501Y-80881395D01*
X118341506Y-80881402D01*
X118508597Y-81048493D01*
X118508603Y-81048498D01*
X118694158Y-81178425D01*
X118737783Y-81233002D01*
X118744977Y-81302500D01*
X118713454Y-81364855D01*
X118694158Y-81381575D01*
X118508597Y-81511505D01*
X118341505Y-81678597D01*
X118205965Y-81872169D01*
X118205964Y-81872171D01*
X118106098Y-82086335D01*
X118106094Y-82086344D01*
X118044938Y-82314586D01*
X118044936Y-82314596D01*
X118024341Y-82549999D01*
X118024341Y-82550000D01*
X118044936Y-82785403D01*
X118044938Y-82785413D01*
X118106094Y-83013655D01*
X118106096Y-83013659D01*
X118106097Y-83013663D01*
X118193610Y-83201335D01*
X118205965Y-83227830D01*
X118205967Y-83227834D01*
X118341501Y-83421395D01*
X118341506Y-83421402D01*
X118508597Y-83588493D01*
X118508603Y-83588498D01*
X118694158Y-83718425D01*
X118737783Y-83773002D01*
X118744977Y-83842500D01*
X118713454Y-83904855D01*
X118694158Y-83921575D01*
X118508597Y-84051505D01*
X118341505Y-84218597D01*
X118205965Y-84412169D01*
X118205964Y-84412171D01*
X118106098Y-84626335D01*
X118106094Y-84626344D01*
X118044938Y-84854586D01*
X118044936Y-84854596D01*
X118024341Y-85089999D01*
X118024341Y-85090000D01*
X118044936Y-85325403D01*
X118044938Y-85325413D01*
X118106094Y-85553655D01*
X118106096Y-85553659D01*
X118106097Y-85553663D01*
X118205965Y-85767830D01*
X118205967Y-85767834D01*
X118341501Y-85961395D01*
X118341506Y-85961402D01*
X118508597Y-86128493D01*
X118508603Y-86128498D01*
X118694158Y-86258425D01*
X118737783Y-86313002D01*
X118744977Y-86382500D01*
X118713454Y-86444855D01*
X118694158Y-86461575D01*
X118508597Y-86591505D01*
X118341505Y-86758597D01*
X118205965Y-86952169D01*
X118205964Y-86952171D01*
X118106098Y-87166335D01*
X118106094Y-87166344D01*
X118044938Y-87394586D01*
X118044936Y-87394596D01*
X118024341Y-87629999D01*
X118024341Y-87630000D01*
X118044936Y-87865403D01*
X118044938Y-87865413D01*
X118106094Y-88093655D01*
X118106096Y-88093659D01*
X118106097Y-88093663D01*
X118205965Y-88307830D01*
X118205967Y-88307834D01*
X118341501Y-88501395D01*
X118341506Y-88501402D01*
X118508597Y-88668493D01*
X118508603Y-88668498D01*
X118694158Y-88798425D01*
X118737783Y-88853002D01*
X118744977Y-88922500D01*
X118713454Y-88984855D01*
X118694158Y-89001575D01*
X118508597Y-89131505D01*
X118341505Y-89298597D01*
X118205965Y-89492169D01*
X118205964Y-89492171D01*
X118106098Y-89706335D01*
X118106094Y-89706344D01*
X118044938Y-89934586D01*
X118044936Y-89934596D01*
X118024341Y-90169999D01*
X118024341Y-90170000D01*
X118044936Y-90405403D01*
X118044938Y-90405413D01*
X118106094Y-90633655D01*
X118106096Y-90633659D01*
X118106097Y-90633663D01*
X118201159Y-90837524D01*
X118205965Y-90847830D01*
X118205967Y-90847834D01*
X118341501Y-91041395D01*
X118341506Y-91041402D01*
X118508597Y-91208493D01*
X118508603Y-91208498D01*
X118694158Y-91338425D01*
X118737783Y-91393002D01*
X118744977Y-91462500D01*
X118713454Y-91524855D01*
X118694158Y-91541575D01*
X118508597Y-91671505D01*
X118341505Y-91838597D01*
X118205965Y-92032169D01*
X118205964Y-92032171D01*
X118106098Y-92246335D01*
X118106094Y-92246344D01*
X118044938Y-92474586D01*
X118044936Y-92474596D01*
X118024341Y-92709999D01*
X118024341Y-92710000D01*
X118044936Y-92945403D01*
X118044938Y-92945413D01*
X118106094Y-93173655D01*
X118106096Y-93173659D01*
X118106097Y-93173663D01*
X118205965Y-93387830D01*
X118205967Y-93387834D01*
X118341501Y-93581395D01*
X118341506Y-93581402D01*
X118508597Y-93748493D01*
X118508603Y-93748498D01*
X118694158Y-93878425D01*
X118737783Y-93933002D01*
X118744977Y-94002500D01*
X118713454Y-94064855D01*
X118694158Y-94081575D01*
X118508597Y-94211505D01*
X118341505Y-94378597D01*
X118205965Y-94572169D01*
X118205964Y-94572171D01*
X118106098Y-94786335D01*
X118106094Y-94786344D01*
X118044938Y-95014586D01*
X118044936Y-95014596D01*
X118024341Y-95249999D01*
X118024341Y-95250000D01*
X118044936Y-95485403D01*
X118044938Y-95485413D01*
X118106094Y-95713655D01*
X118106096Y-95713659D01*
X118106097Y-95713663D01*
X118195319Y-95905000D01*
X118205965Y-95927830D01*
X118205967Y-95927834D01*
X118341501Y-96121395D01*
X118341506Y-96121402D01*
X118508597Y-96288493D01*
X118508603Y-96288498D01*
X118694158Y-96418425D01*
X118737783Y-96473002D01*
X118744977Y-96542500D01*
X118713454Y-96604855D01*
X118694158Y-96621575D01*
X118508597Y-96751505D01*
X118341505Y-96918597D01*
X118205965Y-97112169D01*
X118205964Y-97112171D01*
X118106098Y-97326335D01*
X118106094Y-97326344D01*
X118044938Y-97554586D01*
X118044936Y-97554596D01*
X118024341Y-97789999D01*
X118024341Y-97790000D01*
X118044936Y-98025403D01*
X118044938Y-98025413D01*
X118106094Y-98253655D01*
X118106096Y-98253659D01*
X118106097Y-98253663D01*
X118205965Y-98467830D01*
X118205967Y-98467834D01*
X118341501Y-98661395D01*
X118341506Y-98661402D01*
X118508597Y-98828493D01*
X118508603Y-98828498D01*
X118694158Y-98958425D01*
X118737783Y-99013002D01*
X118744977Y-99082500D01*
X118713454Y-99144855D01*
X118694158Y-99161575D01*
X118508597Y-99291505D01*
X118341505Y-99458597D01*
X118205965Y-99652169D01*
X118205964Y-99652171D01*
X118106098Y-99866335D01*
X118106094Y-99866344D01*
X118044938Y-100094586D01*
X118044936Y-100094596D01*
X118024341Y-100329999D01*
X118024341Y-100330000D01*
X118044936Y-100565403D01*
X118044938Y-100565413D01*
X118106094Y-100793655D01*
X118106096Y-100793659D01*
X118106097Y-100793663D01*
X118192951Y-100979921D01*
X118205965Y-101007830D01*
X118205967Y-101007834D01*
X118341501Y-101201395D01*
X118341506Y-101201402D01*
X118508597Y-101368493D01*
X118508603Y-101368498D01*
X118694158Y-101498425D01*
X118737783Y-101553002D01*
X118744977Y-101622500D01*
X118713454Y-101684855D01*
X118694158Y-101701575D01*
X118508597Y-101831505D01*
X118341505Y-101998597D01*
X118205965Y-102192169D01*
X118205964Y-102192171D01*
X118106098Y-102406335D01*
X118106094Y-102406344D01*
X118044938Y-102634586D01*
X118044936Y-102634596D01*
X118024341Y-102869999D01*
X118024341Y-102870000D01*
X118044936Y-103105403D01*
X118044938Y-103105413D01*
X118106094Y-103333655D01*
X118106096Y-103333659D01*
X118106097Y-103333663D01*
X118205965Y-103547830D01*
X118205967Y-103547834D01*
X118341501Y-103741395D01*
X118341506Y-103741402D01*
X118508597Y-103908493D01*
X118508603Y-103908498D01*
X118694158Y-104038425D01*
X118737783Y-104093002D01*
X118744977Y-104162500D01*
X118713454Y-104224855D01*
X118694158Y-104241575D01*
X118508597Y-104371505D01*
X118341505Y-104538597D01*
X118205965Y-104732169D01*
X118205964Y-104732171D01*
X118106098Y-104946335D01*
X118106094Y-104946344D01*
X118044938Y-105174586D01*
X118044936Y-105174596D01*
X118024341Y-105409999D01*
X118024341Y-105410000D01*
X118044936Y-105645403D01*
X118044938Y-105645413D01*
X118106094Y-105873655D01*
X118106096Y-105873659D01*
X118106097Y-105873663D01*
X118205965Y-106087830D01*
X118205967Y-106087834D01*
X118341501Y-106281395D01*
X118341506Y-106281402D01*
X118508597Y-106448493D01*
X118508603Y-106448498D01*
X118694158Y-106578425D01*
X118737783Y-106633002D01*
X118744977Y-106702500D01*
X118713454Y-106764855D01*
X118694158Y-106781575D01*
X118508597Y-106911505D01*
X118341505Y-107078597D01*
X118205965Y-107272169D01*
X118205964Y-107272171D01*
X118112401Y-107472816D01*
X118107399Y-107483546D01*
X118106098Y-107486335D01*
X118106094Y-107486344D01*
X118044938Y-107714586D01*
X118044936Y-107714596D01*
X118024341Y-107949999D01*
X118024341Y-107950000D01*
X118044936Y-108185403D01*
X118044938Y-108185413D01*
X118106094Y-108413655D01*
X118106096Y-108413659D01*
X118106097Y-108413663D01*
X118205201Y-108626192D01*
X118205965Y-108627830D01*
X118205967Y-108627834D01*
X118341501Y-108821395D01*
X118341506Y-108821402D01*
X118508597Y-108988493D01*
X118508603Y-108988498D01*
X118694158Y-109118425D01*
X118737783Y-109173002D01*
X118744977Y-109242500D01*
X118713454Y-109304855D01*
X118694158Y-109321575D01*
X118508597Y-109451505D01*
X118341505Y-109618597D01*
X118205965Y-109812169D01*
X118205964Y-109812171D01*
X118106098Y-110026335D01*
X118106094Y-110026344D01*
X118044938Y-110254586D01*
X118044936Y-110254596D01*
X118024341Y-110489999D01*
X118024341Y-110490000D01*
X118044936Y-110725403D01*
X118044938Y-110725413D01*
X118106094Y-110953655D01*
X118106096Y-110953659D01*
X118106097Y-110953663D01*
X118193774Y-111141687D01*
X118205965Y-111167830D01*
X118205967Y-111167834D01*
X118341501Y-111361395D01*
X118341506Y-111361402D01*
X118508597Y-111528493D01*
X118508603Y-111528498D01*
X118694158Y-111658425D01*
X118737783Y-111713002D01*
X118744977Y-111782500D01*
X118713454Y-111844855D01*
X118694158Y-111861575D01*
X118508597Y-111991505D01*
X118341505Y-112158597D01*
X118205965Y-112352169D01*
X118205964Y-112352171D01*
X118106098Y-112566335D01*
X118106094Y-112566344D01*
X118044938Y-112794586D01*
X118044936Y-112794596D01*
X118024341Y-113029999D01*
X118024341Y-113030000D01*
X118044936Y-113265403D01*
X118044938Y-113265413D01*
X118106094Y-113493655D01*
X118106096Y-113493659D01*
X118106097Y-113493663D01*
X118205965Y-113707830D01*
X118205967Y-113707834D01*
X118341501Y-113901395D01*
X118341506Y-113901402D01*
X118508597Y-114068493D01*
X118508603Y-114068498D01*
X118694158Y-114198425D01*
X118737783Y-114253002D01*
X118744977Y-114322500D01*
X118713454Y-114384855D01*
X118694158Y-114401575D01*
X118508597Y-114531505D01*
X118341505Y-114698597D01*
X118205965Y-114892169D01*
X118205964Y-114892171D01*
X118106098Y-115106335D01*
X118106094Y-115106344D01*
X118044938Y-115334586D01*
X118044936Y-115334596D01*
X118024341Y-115569999D01*
X118024341Y-115570000D01*
X118044936Y-115805403D01*
X118044938Y-115805413D01*
X118106094Y-116033655D01*
X118106096Y-116033659D01*
X118106097Y-116033663D01*
X118205965Y-116247830D01*
X118294366Y-116374079D01*
X118313752Y-116401765D01*
X118336079Y-116467972D01*
X118319069Y-116535739D01*
X118268121Y-116583552D01*
X118213058Y-116596886D01*
X117625381Y-116601061D01*
X117558203Y-116581853D01*
X117512074Y-116529375D01*
X117500500Y-116477064D01*
X117500500Y-76054000D01*
X124044815Y-76054000D01*
X124063503Y-76231805D01*
X124063504Y-76231807D01*
X124118747Y-76401829D01*
X124118750Y-76401835D01*
X124208141Y-76556665D01*
X124222104Y-76572172D01*
X124327764Y-76689521D01*
X124327767Y-76689523D01*
X124327770Y-76689526D01*
X124472407Y-76794612D01*
X124635733Y-76867329D01*
X124810609Y-76904500D01*
X124810610Y-76904500D01*
X124989389Y-76904500D01*
X124989391Y-76904500D01*
X125164267Y-76867329D01*
X125327593Y-76794612D01*
X125472230Y-76689526D01*
X125591859Y-76556665D01*
X125681250Y-76401835D01*
X125736497Y-76231803D01*
X125755185Y-76054000D01*
X125736497Y-75876197D01*
X125690006Y-75733113D01*
X125681252Y-75706170D01*
X125681249Y-75706164D01*
X125591859Y-75551335D01*
X125545003Y-75499296D01*
X125472235Y-75418478D01*
X125472232Y-75418476D01*
X125472231Y-75418475D01*
X125472230Y-75418474D01*
X125327593Y-75313388D01*
X125164267Y-75240671D01*
X125164265Y-75240670D01*
X125036594Y-75213533D01*
X124989391Y-75203500D01*
X124810609Y-75203500D01*
X124779954Y-75210015D01*
X124635733Y-75240670D01*
X124635728Y-75240672D01*
X124472408Y-75313387D01*
X124327768Y-75418475D01*
X124208140Y-75551336D01*
X124118750Y-75706164D01*
X124118747Y-75706170D01*
X124063504Y-75876192D01*
X124063503Y-75876194D01*
X124044815Y-76054000D01*
X117500500Y-76054000D01*
X117500500Y-75651348D01*
X117520185Y-75584309D01*
X117536550Y-75563935D01*
X118043400Y-75054000D01*
X128944815Y-75054000D01*
X128963503Y-75231805D01*
X128963504Y-75231807D01*
X129018747Y-75401829D01*
X129018750Y-75401835D01*
X129108141Y-75556665D01*
X129146815Y-75599617D01*
X129227764Y-75689521D01*
X129227767Y-75689523D01*
X129227770Y-75689526D01*
X129372407Y-75794612D01*
X129535733Y-75867329D01*
X129710609Y-75904500D01*
X129710610Y-75904500D01*
X129889389Y-75904500D01*
X129889391Y-75904500D01*
X130064267Y-75867329D01*
X130227593Y-75794612D01*
X130372230Y-75689526D01*
X130491859Y-75556665D01*
X130581250Y-75401835D01*
X130636497Y-75231803D01*
X130655185Y-75054000D01*
X130636497Y-74876197D01*
X130581250Y-74706165D01*
X130491859Y-74551335D01*
X130445003Y-74499296D01*
X130372235Y-74418478D01*
X130372232Y-74418476D01*
X130372231Y-74418475D01*
X130372230Y-74418474D01*
X130227593Y-74313388D01*
X130064267Y-74240671D01*
X130064265Y-74240670D01*
X129936594Y-74213533D01*
X129889391Y-74203500D01*
X129710609Y-74203500D01*
X129679954Y-74210015D01*
X129535733Y-74240670D01*
X129535728Y-74240672D01*
X129372408Y-74313387D01*
X129227768Y-74418475D01*
X129108140Y-74551336D01*
X129018750Y-74706164D01*
X129018747Y-74706170D01*
X128963504Y-74876192D01*
X128963503Y-74876194D01*
X128944815Y-75054000D01*
X118043400Y-75054000D01*
X119763844Y-73323084D01*
X119825065Y-73289414D01*
X119851791Y-73286500D01*
X119888378Y-73286500D01*
X134315895Y-73339450D01*
G37*
%TD.AperFunction*%
%TD*%
%TA.AperFunction,Conductor*%
%TO.N,+3V3*%
G36*
X150470099Y-73306185D02*
G01*
X150515854Y-73358989D01*
X150525798Y-73428147D01*
X150496773Y-73491703D01*
X150475946Y-73510818D01*
X150472409Y-73513387D01*
X150472408Y-73513388D01*
X150397059Y-73568131D01*
X150327768Y-73618475D01*
X150208140Y-73751336D01*
X150118750Y-73906164D01*
X150118747Y-73906170D01*
X150063504Y-74076192D01*
X150063503Y-74076194D01*
X150044815Y-74254000D01*
X150063503Y-74431805D01*
X150063504Y-74431807D01*
X150118747Y-74601829D01*
X150118750Y-74601835D01*
X150208141Y-74756665D01*
X150249812Y-74802946D01*
X150327764Y-74889521D01*
X150327767Y-74889523D01*
X150327770Y-74889526D01*
X150472407Y-74994612D01*
X150635733Y-75067329D01*
X150810609Y-75104500D01*
X150810610Y-75104500D01*
X150989389Y-75104500D01*
X150989391Y-75104500D01*
X151164267Y-75067329D01*
X151327593Y-74994612D01*
X151472230Y-74889526D01*
X151591859Y-74756665D01*
X151681250Y-74601835D01*
X151736497Y-74431803D01*
X151755185Y-74254000D01*
X151736497Y-74076197D01*
X151681250Y-73906165D01*
X151591859Y-73751335D01*
X151545003Y-73699296D01*
X151472235Y-73618478D01*
X151472232Y-73618476D01*
X151472231Y-73618475D01*
X151472230Y-73618474D01*
X151327593Y-73513388D01*
X151327591Y-73513387D01*
X151324055Y-73510818D01*
X151281390Y-73455488D01*
X151275411Y-73385874D01*
X151308017Y-73324079D01*
X151368856Y-73289722D01*
X151396941Y-73286500D01*
X154284241Y-73286500D01*
X154351280Y-73306185D01*
X154397035Y-73358989D01*
X154406979Y-73428147D01*
X154377954Y-73491703D01*
X154357129Y-73510815D01*
X154318812Y-73538654D01*
X154277768Y-73568475D01*
X154158140Y-73701336D01*
X154068750Y-73856164D01*
X154068747Y-73856170D01*
X154013504Y-74026192D01*
X154013503Y-74026194D01*
X153994815Y-74204000D01*
X154013503Y-74381805D01*
X154013504Y-74381807D01*
X154068747Y-74551829D01*
X154068750Y-74551835D01*
X154158141Y-74706665D01*
X154199812Y-74752946D01*
X154277764Y-74839521D01*
X154277767Y-74839523D01*
X154277770Y-74839526D01*
X154422407Y-74944612D01*
X154585733Y-75017329D01*
X154760609Y-75054500D01*
X154760610Y-75054500D01*
X154939389Y-75054500D01*
X154939391Y-75054500D01*
X155114267Y-75017329D01*
X155277593Y-74944612D01*
X155422230Y-74839526D01*
X155541859Y-74706665D01*
X155631250Y-74551835D01*
X155631413Y-74551335D01*
X155659030Y-74466337D01*
X155686497Y-74381803D01*
X155705185Y-74204000D01*
X155686497Y-74026197D01*
X155642733Y-73891505D01*
X155631252Y-73856170D01*
X155631249Y-73856164D01*
X155573515Y-73756165D01*
X155541859Y-73701335D01*
X155467254Y-73618478D01*
X155422235Y-73568478D01*
X155422232Y-73568476D01*
X155422231Y-73568475D01*
X155422230Y-73568474D01*
X155342873Y-73510817D01*
X155300208Y-73455487D01*
X155294230Y-73385874D01*
X155326836Y-73324079D01*
X155387675Y-73289722D01*
X155415760Y-73286500D01*
X157133088Y-73286500D01*
X166875673Y-73299829D01*
X166942682Y-73319605D01*
X166988365Y-73372472D01*
X166999500Y-73423829D01*
X166999500Y-128025500D01*
X166979815Y-128092539D01*
X166927011Y-128138294D01*
X166875500Y-128149500D01*
X118606000Y-128149500D01*
X118538961Y-128129815D01*
X118493206Y-128077011D01*
X118482000Y-128025500D01*
X118482000Y-126987461D01*
X118501685Y-126920422D01*
X118554489Y-126874667D01*
X118623647Y-126864723D01*
X118677124Y-126885887D01*
X118702414Y-126903596D01*
X118702420Y-126903599D01*
X118916507Y-127003429D01*
X118916516Y-127003433D01*
X119130000Y-127060634D01*
X119130000Y-126165501D01*
X119237685Y-126214680D01*
X119344237Y-126230000D01*
X119415763Y-126230000D01*
X119522315Y-126214680D01*
X119630000Y-126165501D01*
X119630000Y-127060633D01*
X119843483Y-127003433D01*
X119843492Y-127003429D01*
X120057578Y-126903600D01*
X120251082Y-126768105D01*
X120418105Y-126601082D01*
X120553600Y-126407578D01*
X120653429Y-126193492D01*
X120653432Y-126193486D01*
X120710636Y-125980000D01*
X119813686Y-125980000D01*
X119839493Y-125939844D01*
X119880000Y-125801889D01*
X119880000Y-125658111D01*
X119839493Y-125520156D01*
X119813686Y-125480000D01*
X120710636Y-125480000D01*
X120710635Y-125479999D01*
X120653432Y-125266513D01*
X120653429Y-125266507D01*
X120553600Y-125052422D01*
X120553599Y-125052420D01*
X120418113Y-124858926D01*
X120418108Y-124858920D01*
X120251078Y-124691890D01*
X120065405Y-124561879D01*
X120021780Y-124507302D01*
X120014588Y-124437804D01*
X120046110Y-124375449D01*
X120065406Y-124358730D01*
X120251401Y-124228495D01*
X120418495Y-124061401D01*
X120521706Y-123914000D01*
X130494341Y-123914000D01*
X130514936Y-124149403D01*
X130514938Y-124149413D01*
X130576094Y-124377655D01*
X130576096Y-124377659D01*
X130576097Y-124377663D01*
X130643615Y-124522455D01*
X130675965Y-124591830D01*
X130675967Y-124591834D01*
X130708063Y-124637671D01*
X130811501Y-124785396D01*
X130811506Y-124785402D01*
X130933818Y-124907714D01*
X130967303Y-124969037D01*
X130962319Y-125038729D01*
X130920447Y-125094662D01*
X130889471Y-125111577D01*
X130757912Y-125160646D01*
X130757906Y-125160649D01*
X130642812Y-125246809D01*
X130642809Y-125246812D01*
X130556649Y-125361906D01*
X130556645Y-125361913D01*
X130506403Y-125496620D01*
X130506401Y-125496627D01*
X130500000Y-125556155D01*
X130500000Y-126204000D01*
X131416314Y-126204000D01*
X131390507Y-126244156D01*
X131350000Y-126382111D01*
X131350000Y-126525889D01*
X131390507Y-126663844D01*
X131416314Y-126704000D01*
X130500000Y-126704000D01*
X130500000Y-127351844D01*
X130506401Y-127411372D01*
X130506403Y-127411379D01*
X130556645Y-127546086D01*
X130556649Y-127546093D01*
X130642809Y-127661187D01*
X130642812Y-127661190D01*
X130757906Y-127747350D01*
X130757913Y-127747354D01*
X130892620Y-127797596D01*
X130892627Y-127797598D01*
X130952155Y-127803999D01*
X130952172Y-127804000D01*
X131600000Y-127804000D01*
X131600000Y-126889501D01*
X131707685Y-126938680D01*
X131814237Y-126954000D01*
X131885763Y-126954000D01*
X131992315Y-126938680D01*
X132100000Y-126889501D01*
X132100000Y-127804000D01*
X132747828Y-127804000D01*
X132747844Y-127803999D01*
X132807372Y-127797598D01*
X132807379Y-127797596D01*
X132942086Y-127747354D01*
X132942093Y-127747350D01*
X133057187Y-127661190D01*
X133057190Y-127661187D01*
X133143350Y-127546093D01*
X133143354Y-127546086D01*
X133192422Y-127414529D01*
X133234293Y-127358595D01*
X133299757Y-127334178D01*
X133368030Y-127349030D01*
X133396285Y-127370181D01*
X133518599Y-127492495D01*
X133568824Y-127527663D01*
X133712165Y-127628032D01*
X133712167Y-127628033D01*
X133712170Y-127628035D01*
X133926337Y-127727903D01*
X134154592Y-127789063D01*
X134325319Y-127804000D01*
X134389999Y-127809659D01*
X134390000Y-127809659D01*
X134390001Y-127809659D01*
X134454681Y-127804000D01*
X134625408Y-127789063D01*
X134853663Y-127727903D01*
X135067830Y-127628035D01*
X135261401Y-127492495D01*
X135428495Y-127325401D01*
X135558425Y-127139842D01*
X135613002Y-127096217D01*
X135682500Y-127089023D01*
X135744855Y-127120546D01*
X135761575Y-127139842D01*
X135891500Y-127325395D01*
X135891505Y-127325401D01*
X136058599Y-127492495D01*
X136108824Y-127527663D01*
X136252165Y-127628032D01*
X136252167Y-127628033D01*
X136252170Y-127628035D01*
X136466337Y-127727903D01*
X136694592Y-127789063D01*
X136865319Y-127804000D01*
X136929999Y-127809659D01*
X136930000Y-127809659D01*
X136930001Y-127809659D01*
X136994681Y-127804000D01*
X137165408Y-127789063D01*
X137393663Y-127727903D01*
X137607830Y-127628035D01*
X137801401Y-127492495D01*
X137968495Y-127325401D01*
X138098425Y-127139842D01*
X138153002Y-127096217D01*
X138222500Y-127089023D01*
X138284855Y-127120546D01*
X138301575Y-127139842D01*
X138431500Y-127325395D01*
X138431505Y-127325401D01*
X138598599Y-127492495D01*
X138648824Y-127527663D01*
X138792165Y-127628032D01*
X138792167Y-127628033D01*
X138792170Y-127628035D01*
X139006337Y-127727903D01*
X139234592Y-127789063D01*
X139405319Y-127804000D01*
X139469999Y-127809659D01*
X139470000Y-127809659D01*
X139470001Y-127809659D01*
X139534681Y-127804000D01*
X139705408Y-127789063D01*
X139933663Y-127727903D01*
X140147830Y-127628035D01*
X140341401Y-127492495D01*
X140508495Y-127325401D01*
X140638425Y-127139842D01*
X140693002Y-127096217D01*
X140762500Y-127089023D01*
X140824855Y-127120546D01*
X140841575Y-127139842D01*
X140971500Y-127325395D01*
X140971505Y-127325401D01*
X141138599Y-127492495D01*
X141188824Y-127527663D01*
X141332165Y-127628032D01*
X141332167Y-127628033D01*
X141332170Y-127628035D01*
X141546337Y-127727903D01*
X141774592Y-127789063D01*
X141945319Y-127804000D01*
X142009999Y-127809659D01*
X142010000Y-127809659D01*
X142010001Y-127809659D01*
X142074681Y-127804000D01*
X142245408Y-127789063D01*
X142473663Y-127727903D01*
X142687830Y-127628035D01*
X142881401Y-127492495D01*
X143048495Y-127325401D01*
X143184035Y-127131830D01*
X143233851Y-127025000D01*
X151069815Y-127025000D01*
X151088503Y-127202805D01*
X151088504Y-127202807D01*
X151143747Y-127372829D01*
X151143750Y-127372835D01*
X151233141Y-127527665D01*
X151249734Y-127546093D01*
X151352764Y-127660521D01*
X151352767Y-127660523D01*
X151352770Y-127660526D01*
X151497407Y-127765612D01*
X151660733Y-127838329D01*
X151835609Y-127875500D01*
X151835610Y-127875500D01*
X152014389Y-127875500D01*
X152014391Y-127875500D01*
X152189267Y-127838329D01*
X152352593Y-127765612D01*
X152497230Y-127660526D01*
X152616859Y-127527665D01*
X152706250Y-127372835D01*
X152761497Y-127202803D01*
X152780185Y-127025000D01*
X152761497Y-126847197D01*
X152733873Y-126762181D01*
X152706252Y-126677170D01*
X152706249Y-126677164D01*
X152677791Y-126627873D01*
X152616859Y-126522335D01*
X152555329Y-126453999D01*
X152497235Y-126389478D01*
X152497232Y-126389476D01*
X152497231Y-126389475D01*
X152497230Y-126389474D01*
X152352593Y-126284388D01*
X152189267Y-126211671D01*
X152189265Y-126211670D01*
X152061594Y-126184533D01*
X152014391Y-126174500D01*
X151835609Y-126174500D01*
X151804954Y-126181015D01*
X151660733Y-126211670D01*
X151660728Y-126211672D01*
X151497408Y-126284387D01*
X151352768Y-126389475D01*
X151233140Y-126522336D01*
X151143750Y-126677164D01*
X151143747Y-126677170D01*
X151088504Y-126847192D01*
X151088503Y-126847194D01*
X151069815Y-127025000D01*
X143233851Y-127025000D01*
X143283903Y-126917663D01*
X143345063Y-126689408D01*
X143365659Y-126454000D01*
X143345063Y-126218592D01*
X143283903Y-125990337D01*
X143184035Y-125776171D01*
X143178425Y-125768158D01*
X143168511Y-125754000D01*
X157044815Y-125754000D01*
X157063503Y-125931805D01*
X157063504Y-125931807D01*
X157118747Y-126101829D01*
X157118750Y-126101835D01*
X157208141Y-126256665D01*
X157225991Y-126276489D01*
X157327764Y-126389521D01*
X157327767Y-126389523D01*
X157327770Y-126389526D01*
X157472407Y-126494612D01*
X157635733Y-126567329D01*
X157810609Y-126604500D01*
X157810610Y-126604500D01*
X157989389Y-126604500D01*
X157989391Y-126604500D01*
X158164267Y-126567329D01*
X158327593Y-126494612D01*
X158472230Y-126389526D01*
X158472274Y-126389478D01*
X158527628Y-126328000D01*
X158591859Y-126256665D01*
X158681250Y-126101835D01*
X158736497Y-125931803D01*
X158755185Y-125754000D01*
X158736497Y-125576197D01*
X158684284Y-125415503D01*
X158681252Y-125406170D01*
X158681249Y-125406164D01*
X158591859Y-125251335D01*
X158545003Y-125199296D01*
X158472235Y-125118478D01*
X158472232Y-125118476D01*
X158472231Y-125118475D01*
X158472230Y-125118474D01*
X158327593Y-125013388D01*
X158164267Y-124940671D01*
X158164265Y-124940670D01*
X158009216Y-124907714D01*
X157989391Y-124903500D01*
X157810609Y-124903500D01*
X157790784Y-124907714D01*
X157635733Y-124940670D01*
X157635728Y-124940672D01*
X157472408Y-125013387D01*
X157327768Y-125118475D01*
X157208140Y-125251336D01*
X157118750Y-125406164D01*
X157118747Y-125406170D01*
X157063504Y-125576192D01*
X157063503Y-125576194D01*
X157044815Y-125754000D01*
X143168511Y-125754000D01*
X143048494Y-125582597D01*
X142881402Y-125415506D01*
X142881396Y-125415501D01*
X142695842Y-125285575D01*
X142652217Y-125230998D01*
X142645023Y-125161500D01*
X142676546Y-125099145D01*
X142695842Y-125082425D01*
X142718026Y-125066891D01*
X142881401Y-124952495D01*
X143048495Y-124785401D01*
X143184035Y-124591830D01*
X143283903Y-124377663D01*
X143345063Y-124149408D01*
X143365659Y-123914000D01*
X143345063Y-123678592D01*
X143283903Y-123450337D01*
X143184035Y-123236171D01*
X143178425Y-123228158D01*
X143151707Y-123190000D01*
X163744341Y-123190000D01*
X163764936Y-123425403D01*
X163764938Y-123425413D01*
X163826094Y-123653655D01*
X163826096Y-123653659D01*
X163826097Y-123653663D01*
X163925965Y-123867830D01*
X163925967Y-123867834D01*
X164034281Y-124022521D01*
X164061501Y-124061396D01*
X164061506Y-124061402D01*
X164183430Y-124183326D01*
X164216915Y-124244649D01*
X164211931Y-124314341D01*
X164170059Y-124370274D01*
X164139083Y-124387189D01*
X164007669Y-124436203D01*
X164007664Y-124436206D01*
X163892455Y-124522452D01*
X163892452Y-124522455D01*
X163806206Y-124637664D01*
X163806202Y-124637671D01*
X163755908Y-124772517D01*
X163749501Y-124832116D01*
X163749501Y-124832123D01*
X163749500Y-124832135D01*
X163749500Y-126627870D01*
X163749501Y-126627876D01*
X163755908Y-126687483D01*
X163806202Y-126822328D01*
X163806206Y-126822335D01*
X163892452Y-126937544D01*
X163892455Y-126937547D01*
X164007664Y-127023793D01*
X164007671Y-127023797D01*
X164142517Y-127074091D01*
X164142516Y-127074091D01*
X164149444Y-127074835D01*
X164202127Y-127080500D01*
X165997872Y-127080499D01*
X166057483Y-127074091D01*
X166192331Y-127023796D01*
X166307546Y-126937546D01*
X166393796Y-126822331D01*
X166444091Y-126687483D01*
X166450500Y-126627873D01*
X166450499Y-124832128D01*
X166444091Y-124772517D01*
X166393796Y-124637669D01*
X166393795Y-124637668D01*
X166393793Y-124637664D01*
X166307547Y-124522455D01*
X166307544Y-124522452D01*
X166192335Y-124436206D01*
X166192328Y-124436202D01*
X166060917Y-124387189D01*
X166004983Y-124345318D01*
X165980566Y-124279853D01*
X165995418Y-124211580D01*
X166016563Y-124183332D01*
X166138495Y-124061401D01*
X166274035Y-123867830D01*
X166373903Y-123653663D01*
X166435063Y-123425408D01*
X166455659Y-123190000D01*
X166435063Y-122954592D01*
X166373903Y-122726337D01*
X166274035Y-122512171D01*
X166258940Y-122490612D01*
X166138494Y-122318597D01*
X165971402Y-122151506D01*
X165971396Y-122151501D01*
X165785842Y-122021575D01*
X165742217Y-121966998D01*
X165735023Y-121897500D01*
X165766546Y-121835145D01*
X165785842Y-121818425D01*
X165808026Y-121802891D01*
X165971401Y-121688495D01*
X166138495Y-121521401D01*
X166274035Y-121327830D01*
X166373903Y-121113663D01*
X166435063Y-120885408D01*
X166455659Y-120650000D01*
X166453576Y-120626197D01*
X166445787Y-120537163D01*
X166435063Y-120414592D01*
X166380861Y-120212305D01*
X166373905Y-120186344D01*
X166373904Y-120186343D01*
X166373903Y-120186337D01*
X166274035Y-119972171D01*
X166260962Y-119953500D01*
X166138494Y-119778597D01*
X165971402Y-119611506D01*
X165971396Y-119611501D01*
X165785842Y-119481575D01*
X165742217Y-119426998D01*
X165735023Y-119357500D01*
X165766546Y-119295145D01*
X165785842Y-119278425D01*
X165808026Y-119262891D01*
X165971401Y-119148495D01*
X166138495Y-118981401D01*
X166274035Y-118787830D01*
X166373903Y-118573663D01*
X166435063Y-118345408D01*
X166455659Y-118110000D01*
X166435063Y-117874592D01*
X166373903Y-117646337D01*
X166274035Y-117432171D01*
X166244978Y-117390672D01*
X166138494Y-117238597D01*
X165971402Y-117071506D01*
X165971396Y-117071501D01*
X165785842Y-116941575D01*
X165742217Y-116886998D01*
X165735023Y-116817500D01*
X165766546Y-116755145D01*
X165785842Y-116738425D01*
X165876669Y-116674827D01*
X165971401Y-116608495D01*
X166138495Y-116441401D01*
X166274035Y-116247830D01*
X166373903Y-116033663D01*
X166435063Y-115805408D01*
X166455659Y-115570000D01*
X166435063Y-115334592D01*
X166373903Y-115106337D01*
X166274035Y-114892171D01*
X166138495Y-114698599D01*
X166138494Y-114698597D01*
X165971402Y-114531506D01*
X165971396Y-114531501D01*
X165785842Y-114401575D01*
X165742217Y-114346998D01*
X165735023Y-114277500D01*
X165766546Y-114215145D01*
X165785842Y-114198425D01*
X165808026Y-114182891D01*
X165971401Y-114068495D01*
X166138495Y-113901401D01*
X166274035Y-113707830D01*
X166373903Y-113493663D01*
X166435063Y-113265408D01*
X166455659Y-113030000D01*
X166435063Y-112794592D01*
X166373903Y-112566337D01*
X166274035Y-112352171D01*
X166138495Y-112158599D01*
X166138494Y-112158597D01*
X165971402Y-111991506D01*
X165971396Y-111991501D01*
X165785842Y-111861575D01*
X165742217Y-111806998D01*
X165735023Y-111737500D01*
X165766546Y-111675145D01*
X165785842Y-111658425D01*
X165887169Y-111587475D01*
X165971401Y-111528495D01*
X166138495Y-111361401D01*
X166274035Y-111167830D01*
X166373903Y-110953663D01*
X166435063Y-110725408D01*
X166455659Y-110490000D01*
X166435063Y-110254592D01*
X166373903Y-110026337D01*
X166274035Y-109812171D01*
X166138495Y-109618599D01*
X166138494Y-109618597D01*
X165971402Y-109451506D01*
X165971396Y-109451501D01*
X165785842Y-109321575D01*
X165742217Y-109266998D01*
X165735023Y-109197500D01*
X165766546Y-109135145D01*
X165785842Y-109118425D01*
X165808026Y-109102891D01*
X165971401Y-108988495D01*
X166138495Y-108821401D01*
X166274035Y-108627830D01*
X166373903Y-108413663D01*
X166435063Y-108185408D01*
X166455659Y-107950000D01*
X166454837Y-107940610D01*
X166451539Y-107902918D01*
X166435063Y-107714592D01*
X166373903Y-107486337D01*
X166274035Y-107272171D01*
X166227223Y-107205315D01*
X166138494Y-107078597D01*
X165971402Y-106911506D01*
X165971396Y-106911501D01*
X165785842Y-106781575D01*
X165742217Y-106726998D01*
X165735023Y-106657500D01*
X165766546Y-106595145D01*
X165785842Y-106578425D01*
X165914669Y-106488219D01*
X165971401Y-106448495D01*
X166138495Y-106281401D01*
X166274035Y-106087830D01*
X166373903Y-105873663D01*
X166435063Y-105645408D01*
X166455659Y-105410000D01*
X166435063Y-105174592D01*
X166378012Y-104961671D01*
X166373905Y-104946344D01*
X166373904Y-104946343D01*
X166373903Y-104946337D01*
X166274035Y-104732171D01*
X166174702Y-104590307D01*
X166138494Y-104538597D01*
X165971402Y-104371506D01*
X165971396Y-104371501D01*
X165785842Y-104241575D01*
X165742217Y-104186998D01*
X165735023Y-104117500D01*
X165766546Y-104055145D01*
X165785842Y-104038425D01*
X165950921Y-103922835D01*
X165971401Y-103908495D01*
X166138495Y-103741401D01*
X166274035Y-103547830D01*
X166373903Y-103333663D01*
X166435063Y-103105408D01*
X166455659Y-102870000D01*
X166453736Y-102848026D01*
X166451539Y-102822918D01*
X166435063Y-102634592D01*
X166373903Y-102406337D01*
X166274035Y-102192171D01*
X166246473Y-102152807D01*
X166138494Y-101998597D01*
X165971402Y-101831506D01*
X165971396Y-101831501D01*
X165785842Y-101701575D01*
X165742217Y-101646998D01*
X165735023Y-101577500D01*
X165766546Y-101515145D01*
X165785842Y-101498425D01*
X165854286Y-101450500D01*
X165971401Y-101368495D01*
X166138495Y-101201401D01*
X166274035Y-101007830D01*
X166373903Y-100793663D01*
X166435063Y-100565408D01*
X166455659Y-100330000D01*
X166435063Y-100094592D01*
X166373903Y-99866337D01*
X166274035Y-99652171D01*
X166256875Y-99627663D01*
X166138494Y-99458597D01*
X165971402Y-99291506D01*
X165971396Y-99291501D01*
X165785842Y-99161575D01*
X165742217Y-99106998D01*
X165735023Y-99037500D01*
X165766546Y-98975145D01*
X165785842Y-98958425D01*
X165901893Y-98877165D01*
X165971401Y-98828495D01*
X166138495Y-98661401D01*
X166274035Y-98467830D01*
X166373903Y-98253663D01*
X166435063Y-98025408D01*
X166455659Y-97790000D01*
X166454536Y-97777170D01*
X166448706Y-97710526D01*
X166435063Y-97554592D01*
X166373903Y-97326337D01*
X166274035Y-97112171D01*
X166256181Y-97086672D01*
X166138494Y-96918597D01*
X165971402Y-96751506D01*
X165971396Y-96751501D01*
X165785842Y-96621575D01*
X165742217Y-96566998D01*
X165735023Y-96497500D01*
X165766546Y-96435145D01*
X165785842Y-96418425D01*
X165848573Y-96374500D01*
X165971401Y-96288495D01*
X166138495Y-96121401D01*
X166274035Y-95927830D01*
X166373903Y-95713663D01*
X166435063Y-95485408D01*
X166455659Y-95250000D01*
X166435063Y-95014592D01*
X166388626Y-94841285D01*
X166373905Y-94786344D01*
X166373904Y-94786343D01*
X166373903Y-94786337D01*
X166274035Y-94572171D01*
X166138495Y-94378599D01*
X166138494Y-94378597D01*
X165971402Y-94211506D01*
X165971396Y-94211501D01*
X165785842Y-94081575D01*
X165742217Y-94026998D01*
X165735023Y-93957500D01*
X165766546Y-93895145D01*
X165785842Y-93878425D01*
X165808026Y-93862891D01*
X165971401Y-93748495D01*
X166138495Y-93581401D01*
X166274035Y-93387830D01*
X166373903Y-93173663D01*
X166435063Y-92945408D01*
X166455659Y-92710000D01*
X166435063Y-92474592D01*
X166373903Y-92246337D01*
X166274035Y-92032171D01*
X166232484Y-91972829D01*
X166138494Y-91838597D01*
X165971402Y-91671506D01*
X165971396Y-91671501D01*
X165785842Y-91541575D01*
X165742217Y-91486998D01*
X165735023Y-91417500D01*
X165766546Y-91355145D01*
X165785842Y-91338425D01*
X165873330Y-91277165D01*
X165971401Y-91208495D01*
X166138495Y-91041401D01*
X166274035Y-90847830D01*
X166373903Y-90633663D01*
X166435063Y-90405408D01*
X166455659Y-90170000D01*
X166435063Y-89934592D01*
X166385736Y-89750500D01*
X166373905Y-89706344D01*
X166373904Y-89706343D01*
X166373903Y-89706337D01*
X166274035Y-89492171D01*
X166211363Y-89402665D01*
X166138494Y-89298597D01*
X165971402Y-89131506D01*
X165971396Y-89131501D01*
X165785842Y-89001575D01*
X165742217Y-88946998D01*
X165735023Y-88877500D01*
X165766546Y-88815145D01*
X165785842Y-88798425D01*
X165858100Y-88747829D01*
X165971401Y-88668495D01*
X166138495Y-88501401D01*
X166274035Y-88307830D01*
X166373903Y-88093663D01*
X166435063Y-87865408D01*
X166455659Y-87630000D01*
X166435063Y-87394592D01*
X166373903Y-87166337D01*
X166274035Y-86952171D01*
X166205646Y-86854500D01*
X166138494Y-86758597D01*
X165971402Y-86591506D01*
X165971396Y-86591501D01*
X165785842Y-86461575D01*
X165742217Y-86406998D01*
X165735023Y-86337500D01*
X165766546Y-86275145D01*
X165785842Y-86258425D01*
X165895269Y-86181803D01*
X165971401Y-86128495D01*
X166138495Y-85961401D01*
X166274035Y-85767830D01*
X166373903Y-85553663D01*
X166435063Y-85325408D01*
X166455659Y-85090000D01*
X166435063Y-84854592D01*
X166383063Y-84660523D01*
X166373905Y-84626344D01*
X166373904Y-84626343D01*
X166373903Y-84626337D01*
X166274035Y-84412171D01*
X166232368Y-84352663D01*
X166138494Y-84218597D01*
X165971402Y-84051506D01*
X165971396Y-84051501D01*
X165785842Y-83921575D01*
X165742217Y-83866998D01*
X165735023Y-83797500D01*
X165766546Y-83735145D01*
X165785842Y-83718425D01*
X165851862Y-83672197D01*
X165971401Y-83588495D01*
X166138495Y-83421401D01*
X166274035Y-83227830D01*
X166373903Y-83013663D01*
X166435063Y-82785408D01*
X166455659Y-82550000D01*
X166435063Y-82314592D01*
X166373903Y-82086337D01*
X166274035Y-81872171D01*
X166226302Y-81804000D01*
X166138494Y-81678597D01*
X165971402Y-81511506D01*
X165971396Y-81511501D01*
X165785842Y-81381575D01*
X165742217Y-81326998D01*
X165735023Y-81257500D01*
X165766546Y-81195145D01*
X165785842Y-81178425D01*
X165811411Y-81160521D01*
X165971401Y-81048495D01*
X166138495Y-80881401D01*
X166274035Y-80687830D01*
X166373903Y-80473663D01*
X166435063Y-80245408D01*
X166455659Y-80010000D01*
X166435063Y-79774592D01*
X166373903Y-79546337D01*
X166274035Y-79332171D01*
X166273778Y-79331803D01*
X166138494Y-79138597D01*
X165971402Y-78971506D01*
X165971396Y-78971501D01*
X165785842Y-78841575D01*
X165742217Y-78786998D01*
X165735023Y-78717500D01*
X165766546Y-78655145D01*
X165785842Y-78638425D01*
X165894515Y-78562331D01*
X165971401Y-78508495D01*
X166138495Y-78341401D01*
X166274035Y-78147830D01*
X166373903Y-77933663D01*
X166435063Y-77705408D01*
X166455659Y-77470000D01*
X166435063Y-77234592D01*
X166373903Y-77006337D01*
X166274035Y-76792171D01*
X166138495Y-76598599D01*
X166138494Y-76598597D01*
X165971402Y-76431506D01*
X165971396Y-76431501D01*
X165785842Y-76301575D01*
X165742217Y-76246998D01*
X165735023Y-76177500D01*
X165766546Y-76115145D01*
X165785842Y-76098425D01*
X165849287Y-76054000D01*
X165971401Y-75968495D01*
X166138495Y-75801401D01*
X166274035Y-75607830D01*
X166373903Y-75393663D01*
X166435063Y-75165408D01*
X166455659Y-74930000D01*
X166435063Y-74694592D01*
X166373903Y-74466337D01*
X166274035Y-74252171D01*
X166240306Y-74204000D01*
X166138494Y-74058597D01*
X165971402Y-73891506D01*
X165971395Y-73891501D01*
X165777834Y-73755967D01*
X165777830Y-73755965D01*
X165767901Y-73751335D01*
X165563663Y-73656097D01*
X165563659Y-73656096D01*
X165563655Y-73656094D01*
X165335413Y-73594938D01*
X165335403Y-73594936D01*
X165100001Y-73574341D01*
X165099999Y-73574341D01*
X164864596Y-73594936D01*
X164864586Y-73594938D01*
X164636344Y-73656094D01*
X164636335Y-73656098D01*
X164422171Y-73755964D01*
X164422169Y-73755965D01*
X164228597Y-73891505D01*
X164061505Y-74058597D01*
X163925965Y-74252169D01*
X163925964Y-74252171D01*
X163826098Y-74466335D01*
X163826094Y-74466344D01*
X163764938Y-74694586D01*
X163764936Y-74694596D01*
X163744341Y-74929999D01*
X163744341Y-74930000D01*
X163764936Y-75165403D01*
X163764938Y-75165413D01*
X163826094Y-75393655D01*
X163826096Y-75393659D01*
X163826097Y-75393663D01*
X163829908Y-75401835D01*
X163925965Y-75607830D01*
X163925967Y-75607834D01*
X164061501Y-75801395D01*
X164061506Y-75801402D01*
X164228597Y-75968493D01*
X164228603Y-75968498D01*
X164414158Y-76098425D01*
X164457783Y-76153002D01*
X164464977Y-76222500D01*
X164433454Y-76284855D01*
X164414158Y-76301575D01*
X164228597Y-76431505D01*
X164061505Y-76598597D01*
X163925965Y-76792169D01*
X163925964Y-76792171D01*
X163826098Y-77006335D01*
X163826094Y-77006344D01*
X163764938Y-77234586D01*
X163764936Y-77234596D01*
X163744341Y-77469999D01*
X163744341Y-77470000D01*
X163764936Y-77705403D01*
X163764938Y-77705413D01*
X163826094Y-77933655D01*
X163826096Y-77933659D01*
X163826097Y-77933663D01*
X163925965Y-78147830D01*
X163925967Y-78147834D01*
X164061501Y-78341395D01*
X164061506Y-78341402D01*
X164228597Y-78508493D01*
X164228603Y-78508498D01*
X164414158Y-78638425D01*
X164457783Y-78693002D01*
X164464977Y-78762500D01*
X164433454Y-78824855D01*
X164414158Y-78841575D01*
X164228597Y-78971505D01*
X164061505Y-79138597D01*
X163925965Y-79332169D01*
X163925964Y-79332171D01*
X163826098Y-79546335D01*
X163826094Y-79546344D01*
X163764938Y-79774586D01*
X163764936Y-79774596D01*
X163744341Y-80009999D01*
X163744341Y-80010000D01*
X163764936Y-80245403D01*
X163764938Y-80245413D01*
X163826094Y-80473655D01*
X163826096Y-80473659D01*
X163826097Y-80473663D01*
X163925965Y-80687830D01*
X163925967Y-80687834D01*
X164061501Y-80881395D01*
X164061506Y-80881402D01*
X164228597Y-81048493D01*
X164228603Y-81048498D01*
X164414158Y-81178425D01*
X164457783Y-81233002D01*
X164464977Y-81302500D01*
X164433454Y-81364855D01*
X164414158Y-81381575D01*
X164228597Y-81511505D01*
X164061505Y-81678597D01*
X163925965Y-81872169D01*
X163925964Y-81872171D01*
X163826098Y-82086335D01*
X163826094Y-82086344D01*
X163764938Y-82314586D01*
X163764936Y-82314596D01*
X163744341Y-82549999D01*
X163744341Y-82550000D01*
X163764936Y-82785403D01*
X163764938Y-82785413D01*
X163826094Y-83013655D01*
X163826096Y-83013659D01*
X163826097Y-83013663D01*
X163870735Y-83109389D01*
X163925965Y-83227830D01*
X163925967Y-83227834D01*
X164061501Y-83421395D01*
X164061506Y-83421402D01*
X164228597Y-83588493D01*
X164228603Y-83588498D01*
X164414158Y-83718425D01*
X164457783Y-83773002D01*
X164464977Y-83842500D01*
X164433454Y-83904855D01*
X164414158Y-83921575D01*
X164228597Y-84051505D01*
X164061505Y-84218597D01*
X163925965Y-84412169D01*
X163925964Y-84412171D01*
X163826098Y-84626335D01*
X163826094Y-84626344D01*
X163764938Y-84854586D01*
X163764936Y-84854596D01*
X163744341Y-85089999D01*
X163744341Y-85090000D01*
X163764936Y-85325403D01*
X163764938Y-85325413D01*
X163826094Y-85553655D01*
X163826096Y-85553659D01*
X163826097Y-85553663D01*
X163873895Y-85656165D01*
X163925965Y-85767830D01*
X163925967Y-85767834D01*
X164061501Y-85961395D01*
X164061506Y-85961402D01*
X164228597Y-86128493D01*
X164228603Y-86128498D01*
X164414158Y-86258425D01*
X164457783Y-86313002D01*
X164464977Y-86382500D01*
X164433454Y-86444855D01*
X164414158Y-86461575D01*
X164228597Y-86591505D01*
X164061505Y-86758597D01*
X163925965Y-86952169D01*
X163925964Y-86952171D01*
X163826098Y-87166335D01*
X163826094Y-87166344D01*
X163764938Y-87394586D01*
X163764936Y-87394596D01*
X163744341Y-87629999D01*
X163744341Y-87630000D01*
X163764936Y-87865403D01*
X163764938Y-87865413D01*
X163826094Y-88093655D01*
X163826096Y-88093659D01*
X163826097Y-88093663D01*
X163886031Y-88222192D01*
X163925965Y-88307830D01*
X163925967Y-88307834D01*
X164061501Y-88501395D01*
X164061506Y-88501402D01*
X164228597Y-88668493D01*
X164228603Y-88668498D01*
X164414158Y-88798425D01*
X164457783Y-88853002D01*
X164464977Y-88922500D01*
X164433454Y-88984855D01*
X164414158Y-89001575D01*
X164228597Y-89131505D01*
X164061505Y-89298597D01*
X163925965Y-89492169D01*
X163925964Y-89492171D01*
X163826098Y-89706335D01*
X163826094Y-89706344D01*
X163764938Y-89934586D01*
X163764936Y-89934596D01*
X163744341Y-90169999D01*
X163744341Y-90170000D01*
X163764936Y-90405403D01*
X163764938Y-90405413D01*
X163826094Y-90633655D01*
X163826096Y-90633659D01*
X163826097Y-90633663D01*
X163891771Y-90774500D01*
X163925965Y-90847830D01*
X163925967Y-90847834D01*
X164005677Y-90961671D01*
X164056594Y-91034388D01*
X164061501Y-91041395D01*
X164061506Y-91041402D01*
X164228597Y-91208493D01*
X164228603Y-91208498D01*
X164414158Y-91338425D01*
X164457783Y-91393002D01*
X164464977Y-91462500D01*
X164433454Y-91524855D01*
X164414158Y-91541575D01*
X164228597Y-91671505D01*
X164061505Y-91838597D01*
X163925965Y-92032169D01*
X163925964Y-92032171D01*
X163826098Y-92246335D01*
X163826094Y-92246344D01*
X163764938Y-92474586D01*
X163764936Y-92474596D01*
X163744341Y-92709999D01*
X163744341Y-92710000D01*
X163764936Y-92945403D01*
X163764938Y-92945413D01*
X163826094Y-93173655D01*
X163826096Y-93173659D01*
X163826097Y-93173663D01*
X163851376Y-93227874D01*
X163925965Y-93387830D01*
X163925967Y-93387834D01*
X164061501Y-93581395D01*
X164061506Y-93581402D01*
X164228597Y-93748493D01*
X164228603Y-93748498D01*
X164414158Y-93878425D01*
X164457783Y-93933002D01*
X164464977Y-94002500D01*
X164433454Y-94064855D01*
X164414158Y-94081575D01*
X164228597Y-94211505D01*
X164061505Y-94378597D01*
X163925965Y-94572169D01*
X163925964Y-94572171D01*
X163826098Y-94786335D01*
X163826094Y-94786344D01*
X163764938Y-95014586D01*
X163764936Y-95014596D01*
X163744341Y-95249999D01*
X163744341Y-95250000D01*
X163764936Y-95485403D01*
X163764938Y-95485413D01*
X163826094Y-95713655D01*
X163826096Y-95713659D01*
X163826097Y-95713663D01*
X163882923Y-95835526D01*
X163925965Y-95927830D01*
X163925967Y-95927834D01*
X164061501Y-96121395D01*
X164061506Y-96121402D01*
X164228597Y-96288493D01*
X164228603Y-96288498D01*
X164414158Y-96418425D01*
X164457783Y-96473002D01*
X164464977Y-96542500D01*
X164433454Y-96604855D01*
X164414158Y-96621575D01*
X164228597Y-96751505D01*
X164061505Y-96918597D01*
X163925965Y-97112169D01*
X163925964Y-97112171D01*
X163826098Y-97326335D01*
X163826094Y-97326344D01*
X163764938Y-97554586D01*
X163764936Y-97554596D01*
X163744341Y-97789999D01*
X163744341Y-97790000D01*
X163764936Y-98025403D01*
X163764938Y-98025413D01*
X163826094Y-98253655D01*
X163826096Y-98253659D01*
X163826097Y-98253663D01*
X163887055Y-98384387D01*
X163925965Y-98467830D01*
X163925967Y-98467834D01*
X164061501Y-98661395D01*
X164061506Y-98661402D01*
X164228597Y-98828493D01*
X164228603Y-98828498D01*
X164414158Y-98958425D01*
X164457783Y-99013002D01*
X164464977Y-99082500D01*
X164433454Y-99144855D01*
X164414158Y-99161575D01*
X164228597Y-99291505D01*
X164061505Y-99458597D01*
X163925965Y-99652169D01*
X163925964Y-99652171D01*
X163826098Y-99866335D01*
X163826094Y-99866344D01*
X163764938Y-100094586D01*
X163764936Y-100094596D01*
X163744341Y-100329999D01*
X163744341Y-100330000D01*
X163764936Y-100565403D01*
X163764938Y-100565413D01*
X163826094Y-100793655D01*
X163826096Y-100793659D01*
X163826097Y-100793663D01*
X163897986Y-100947829D01*
X163925965Y-101007830D01*
X163925967Y-101007834D01*
X163962861Y-101060523D01*
X164058911Y-101197697D01*
X164061501Y-101201395D01*
X164061506Y-101201402D01*
X164228597Y-101368493D01*
X164228603Y-101368498D01*
X164414158Y-101498425D01*
X164457783Y-101553002D01*
X164464977Y-101622500D01*
X164433454Y-101684855D01*
X164414158Y-101701575D01*
X164228597Y-101831505D01*
X164061505Y-101998597D01*
X163925965Y-102192169D01*
X163925964Y-102192171D01*
X163826098Y-102406335D01*
X163826094Y-102406344D01*
X163764938Y-102634586D01*
X163764936Y-102634596D01*
X163744341Y-102869999D01*
X163744341Y-102870000D01*
X163764936Y-103105403D01*
X163764938Y-103105413D01*
X163826094Y-103333655D01*
X163826096Y-103333659D01*
X163826097Y-103333663D01*
X163925965Y-103547830D01*
X163925967Y-103547834D01*
X164061501Y-103741395D01*
X164061506Y-103741402D01*
X164228597Y-103908493D01*
X164228603Y-103908498D01*
X164414158Y-104038425D01*
X164457783Y-104093002D01*
X164464977Y-104162500D01*
X164433454Y-104224855D01*
X164414158Y-104241575D01*
X164228597Y-104371505D01*
X164061505Y-104538597D01*
X163925965Y-104732169D01*
X163925964Y-104732171D01*
X163826098Y-104946335D01*
X163826094Y-104946344D01*
X163764938Y-105174586D01*
X163764936Y-105174596D01*
X163744341Y-105409999D01*
X163744341Y-105410000D01*
X163764936Y-105645403D01*
X163764938Y-105645413D01*
X163826094Y-105873655D01*
X163826096Y-105873659D01*
X163826097Y-105873663D01*
X163863001Y-105952803D01*
X163925965Y-106087830D01*
X163925967Y-106087834D01*
X164061501Y-106281395D01*
X164061506Y-106281402D01*
X164228597Y-106448493D01*
X164228603Y-106448498D01*
X164414158Y-106578425D01*
X164457783Y-106633002D01*
X164464977Y-106702500D01*
X164433454Y-106764855D01*
X164414158Y-106781575D01*
X164228597Y-106911505D01*
X164061505Y-107078597D01*
X163925965Y-107272169D01*
X163925964Y-107272171D01*
X163826098Y-107486335D01*
X163826094Y-107486344D01*
X163764938Y-107714586D01*
X163764936Y-107714596D01*
X163744341Y-107949999D01*
X163744341Y-107950000D01*
X163764936Y-108185403D01*
X163764938Y-108185413D01*
X163826094Y-108413655D01*
X163826096Y-108413659D01*
X163826097Y-108413663D01*
X163844283Y-108452663D01*
X163925965Y-108627830D01*
X163925967Y-108627834D01*
X164061501Y-108821395D01*
X164061506Y-108821402D01*
X164228597Y-108988493D01*
X164228603Y-108988498D01*
X164414158Y-109118425D01*
X164457783Y-109173002D01*
X164464977Y-109242500D01*
X164433454Y-109304855D01*
X164414158Y-109321575D01*
X164228597Y-109451505D01*
X164061505Y-109618597D01*
X163925965Y-109812169D01*
X163925964Y-109812171D01*
X163826098Y-110026335D01*
X163826094Y-110026344D01*
X163764938Y-110254586D01*
X163764936Y-110254596D01*
X163744341Y-110489999D01*
X163744341Y-110490000D01*
X163764936Y-110725403D01*
X163764938Y-110725413D01*
X163826094Y-110953655D01*
X163826096Y-110953659D01*
X163826097Y-110953663D01*
X163869713Y-111047197D01*
X163925965Y-111167830D01*
X163925967Y-111167834D01*
X164061501Y-111361395D01*
X164061506Y-111361402D01*
X164228597Y-111528493D01*
X164228603Y-111528498D01*
X164414158Y-111658425D01*
X164457783Y-111713002D01*
X164464977Y-111782500D01*
X164433454Y-111844855D01*
X164414158Y-111861575D01*
X164228597Y-111991505D01*
X164061505Y-112158597D01*
X163925965Y-112352169D01*
X163925964Y-112352171D01*
X163826098Y-112566335D01*
X163826094Y-112566344D01*
X163764938Y-112794586D01*
X163764936Y-112794596D01*
X163744341Y-113029999D01*
X163744341Y-113030000D01*
X163764936Y-113265403D01*
X163764938Y-113265413D01*
X163826094Y-113493655D01*
X163826096Y-113493659D01*
X163826097Y-113493663D01*
X163925965Y-113707830D01*
X163925967Y-113707834D01*
X164061501Y-113901395D01*
X164061506Y-113901402D01*
X164228597Y-114068493D01*
X164228603Y-114068498D01*
X164414158Y-114198425D01*
X164457783Y-114253002D01*
X164464977Y-114322500D01*
X164433454Y-114384855D01*
X164414158Y-114401575D01*
X164228597Y-114531505D01*
X164061505Y-114698597D01*
X163925965Y-114892169D01*
X163925964Y-114892171D01*
X163826098Y-115106335D01*
X163826094Y-115106344D01*
X163764938Y-115334586D01*
X163764936Y-115334596D01*
X163744341Y-115569999D01*
X163744341Y-115570000D01*
X163764936Y-115805403D01*
X163764938Y-115805413D01*
X163826094Y-116033655D01*
X163826096Y-116033659D01*
X163826097Y-116033663D01*
X163914307Y-116222829D01*
X163925965Y-116247830D01*
X163925967Y-116247834D01*
X164061501Y-116441395D01*
X164061506Y-116441402D01*
X164228597Y-116608493D01*
X164228603Y-116608498D01*
X164414158Y-116738425D01*
X164457783Y-116793002D01*
X164464977Y-116862500D01*
X164433454Y-116924855D01*
X164414158Y-116941575D01*
X164228597Y-117071505D01*
X164061505Y-117238597D01*
X163925965Y-117432169D01*
X163925964Y-117432171D01*
X163826098Y-117646335D01*
X163826094Y-117646344D01*
X163764938Y-117874586D01*
X163764936Y-117874596D01*
X163744341Y-118109999D01*
X163744341Y-118110000D01*
X163764936Y-118345403D01*
X163764938Y-118345413D01*
X163826094Y-118573655D01*
X163826096Y-118573659D01*
X163826097Y-118573663D01*
X163888116Y-118706663D01*
X163925965Y-118787830D01*
X163925967Y-118787834D01*
X164061501Y-118981395D01*
X164061506Y-118981402D01*
X164228597Y-119148493D01*
X164228603Y-119148498D01*
X164414158Y-119278425D01*
X164457783Y-119333002D01*
X164464977Y-119402500D01*
X164433454Y-119464855D01*
X164414158Y-119481575D01*
X164228597Y-119611505D01*
X164061505Y-119778597D01*
X163925965Y-119972169D01*
X163925964Y-119972171D01*
X163826098Y-120186335D01*
X163826094Y-120186344D01*
X163764938Y-120414586D01*
X163764936Y-120414596D01*
X163744341Y-120649999D01*
X163744341Y-120650000D01*
X163764936Y-120885403D01*
X163764938Y-120885413D01*
X163826094Y-121113655D01*
X163826096Y-121113659D01*
X163826097Y-121113663D01*
X163888430Y-121247336D01*
X163925965Y-121327830D01*
X163925967Y-121327834D01*
X164061501Y-121521395D01*
X164061506Y-121521402D01*
X164228597Y-121688493D01*
X164228603Y-121688498D01*
X164414158Y-121818425D01*
X164457783Y-121873002D01*
X164464977Y-121942500D01*
X164433454Y-122004855D01*
X164414158Y-122021575D01*
X164228597Y-122151505D01*
X164061505Y-122318597D01*
X163925965Y-122512169D01*
X163925964Y-122512171D01*
X163826098Y-122726335D01*
X163826094Y-122726344D01*
X163764938Y-122954586D01*
X163764936Y-122954596D01*
X163744341Y-123189999D01*
X163744341Y-123190000D01*
X143151707Y-123190000D01*
X143048494Y-123042597D01*
X142881402Y-122875506D01*
X142881395Y-122875501D01*
X142687834Y-122739967D01*
X142687830Y-122739965D01*
X142658600Y-122726335D01*
X142473663Y-122640097D01*
X142473659Y-122640096D01*
X142473655Y-122640094D01*
X142245413Y-122578938D01*
X142245403Y-122578936D01*
X142010001Y-122558341D01*
X142009999Y-122558341D01*
X141774596Y-122578936D01*
X141774586Y-122578938D01*
X141546344Y-122640094D01*
X141546335Y-122640098D01*
X141332171Y-122739964D01*
X141332169Y-122739965D01*
X141138597Y-122875505D01*
X140971505Y-123042597D01*
X140841575Y-123228158D01*
X140786998Y-123271783D01*
X140717500Y-123278977D01*
X140655145Y-123247454D01*
X140638425Y-123228158D01*
X140508494Y-123042597D01*
X140341402Y-122875506D01*
X140341395Y-122875501D01*
X140147834Y-122739967D01*
X140147830Y-122739965D01*
X140118600Y-122726335D01*
X139933663Y-122640097D01*
X139933659Y-122640096D01*
X139933655Y-122640094D01*
X139705413Y-122578938D01*
X139705403Y-122578936D01*
X139470001Y-122558341D01*
X139469999Y-122558341D01*
X139234596Y-122578936D01*
X139234586Y-122578938D01*
X139006344Y-122640094D01*
X139006335Y-122640098D01*
X138792171Y-122739964D01*
X138792169Y-122739965D01*
X138598597Y-122875505D01*
X138431505Y-123042597D01*
X138301575Y-123228158D01*
X138246998Y-123271783D01*
X138177500Y-123278977D01*
X138115145Y-123247454D01*
X138098425Y-123228158D01*
X137968494Y-123042597D01*
X137801402Y-122875506D01*
X137801395Y-122875501D01*
X137607834Y-122739967D01*
X137607830Y-122739965D01*
X137578600Y-122726335D01*
X137393663Y-122640097D01*
X137393659Y-122640096D01*
X137393655Y-122640094D01*
X137165413Y-122578938D01*
X137165403Y-122578936D01*
X136930001Y-122558341D01*
X136929999Y-122558341D01*
X136694596Y-122578936D01*
X136694586Y-122578938D01*
X136466344Y-122640094D01*
X136466335Y-122640098D01*
X136252171Y-122739964D01*
X136252169Y-122739965D01*
X136058597Y-122875505D01*
X135891505Y-123042597D01*
X135761575Y-123228158D01*
X135706998Y-123271783D01*
X135637500Y-123278977D01*
X135575145Y-123247454D01*
X135558425Y-123228158D01*
X135428494Y-123042597D01*
X135261402Y-122875506D01*
X135261395Y-122875501D01*
X135067834Y-122739967D01*
X135067830Y-122739965D01*
X135038600Y-122726335D01*
X134853663Y-122640097D01*
X134853659Y-122640096D01*
X134853655Y-122640094D01*
X134625413Y-122578938D01*
X134625403Y-122578936D01*
X134390001Y-122558341D01*
X134389999Y-122558341D01*
X134154596Y-122578936D01*
X134154586Y-122578938D01*
X133926344Y-122640094D01*
X133926335Y-122640098D01*
X133712171Y-122739964D01*
X133712169Y-122739965D01*
X133518597Y-122875505D01*
X133351505Y-123042597D01*
X133221575Y-123228158D01*
X133166998Y-123271783D01*
X133097500Y-123278977D01*
X133035145Y-123247454D01*
X133018425Y-123228158D01*
X132888494Y-123042597D01*
X132721402Y-122875506D01*
X132721395Y-122875501D01*
X132527834Y-122739967D01*
X132527830Y-122739965D01*
X132498600Y-122726335D01*
X132313663Y-122640097D01*
X132313659Y-122640096D01*
X132313655Y-122640094D01*
X132085413Y-122578938D01*
X132085403Y-122578936D01*
X131850001Y-122558341D01*
X131849999Y-122558341D01*
X131614596Y-122578936D01*
X131614586Y-122578938D01*
X131386344Y-122640094D01*
X131386335Y-122640098D01*
X131172171Y-122739964D01*
X131172169Y-122739965D01*
X130978597Y-122875505D01*
X130811505Y-123042597D01*
X130675965Y-123236169D01*
X130675964Y-123236171D01*
X130576098Y-123450335D01*
X130576094Y-123450344D01*
X130514938Y-123678586D01*
X130514936Y-123678596D01*
X130494341Y-123913999D01*
X130494341Y-123914000D01*
X120521706Y-123914000D01*
X120554035Y-123867830D01*
X120653903Y-123653663D01*
X120715063Y-123425408D01*
X120735659Y-123190000D01*
X120715063Y-122954592D01*
X120653903Y-122726337D01*
X120554035Y-122512171D01*
X120538940Y-122490612D01*
X120418494Y-122318597D01*
X120403897Y-122304000D01*
X122544815Y-122304000D01*
X122563503Y-122481805D01*
X122563504Y-122481807D01*
X122618747Y-122651829D01*
X122618750Y-122651835D01*
X122708141Y-122806665D01*
X122749812Y-122852946D01*
X122827764Y-122939521D01*
X122827767Y-122939523D01*
X122827770Y-122939526D01*
X122972407Y-123044612D01*
X123135733Y-123117329D01*
X123310609Y-123154500D01*
X123310610Y-123154500D01*
X123489389Y-123154500D01*
X123489391Y-123154500D01*
X123664267Y-123117329D01*
X123827593Y-123044612D01*
X123972230Y-122939526D01*
X124091859Y-122806665D01*
X124181250Y-122651835D01*
X124236497Y-122481803D01*
X124255185Y-122304000D01*
X124236497Y-122126197D01*
X124200680Y-122015965D01*
X124181252Y-121956170D01*
X124181249Y-121956164D01*
X124091859Y-121801335D01*
X124045003Y-121749296D01*
X123972235Y-121668478D01*
X123972232Y-121668476D01*
X123972231Y-121668475D01*
X123972230Y-121668474D01*
X123827593Y-121563388D01*
X123664267Y-121490671D01*
X123664265Y-121490670D01*
X123536594Y-121463533D01*
X123489391Y-121453500D01*
X123310609Y-121453500D01*
X123279954Y-121460015D01*
X123135733Y-121490670D01*
X123135728Y-121490672D01*
X122972408Y-121563387D01*
X122827768Y-121668475D01*
X122708140Y-121801336D01*
X122618750Y-121956164D01*
X122618747Y-121956170D01*
X122563504Y-122126192D01*
X122563503Y-122126194D01*
X122544815Y-122304000D01*
X120403897Y-122304000D01*
X120251402Y-122151506D01*
X120251396Y-122151501D01*
X120065842Y-122021575D01*
X120022217Y-121966998D01*
X120015023Y-121897500D01*
X120046546Y-121835145D01*
X120065842Y-121818425D01*
X120088026Y-121802891D01*
X120251401Y-121688495D01*
X120418495Y-121521401D01*
X120554035Y-121327830D01*
X120653903Y-121113663D01*
X120715063Y-120885408D01*
X120722185Y-120804000D01*
X125544815Y-120804000D01*
X125563503Y-120981805D01*
X125563504Y-120981807D01*
X125618747Y-121151829D01*
X125618750Y-121151835D01*
X125708141Y-121306665D01*
X125727202Y-121327834D01*
X125827764Y-121439521D01*
X125827767Y-121439523D01*
X125827770Y-121439526D01*
X125972407Y-121544612D01*
X126135733Y-121617329D01*
X126310609Y-121654500D01*
X126310610Y-121654500D01*
X126489389Y-121654500D01*
X126489391Y-121654500D01*
X126664267Y-121617329D01*
X126827593Y-121544612D01*
X126849081Y-121529000D01*
X152494815Y-121529000D01*
X152513503Y-121706805D01*
X152513504Y-121706807D01*
X152568747Y-121876829D01*
X152568750Y-121876835D01*
X152658141Y-122031665D01*
X152699812Y-122077946D01*
X152777764Y-122164521D01*
X152777767Y-122164523D01*
X152777770Y-122164526D01*
X152922407Y-122269612D01*
X153085733Y-122342329D01*
X153260609Y-122379500D01*
X153260610Y-122379500D01*
X153439389Y-122379500D01*
X153439391Y-122379500D01*
X153614267Y-122342329D01*
X153777593Y-122269612D01*
X153922230Y-122164526D01*
X153933954Y-122151506D01*
X153956746Y-122126192D01*
X154041859Y-122031665D01*
X154131250Y-121876835D01*
X154172461Y-121750000D01*
X161494815Y-121750000D01*
X161513503Y-121927805D01*
X161513504Y-121927807D01*
X161568747Y-122097829D01*
X161568750Y-122097835D01*
X161658141Y-122252665D01*
X161699812Y-122298946D01*
X161777764Y-122385521D01*
X161777767Y-122385523D01*
X161777770Y-122385526D01*
X161922407Y-122490612D01*
X162085733Y-122563329D01*
X162260609Y-122600500D01*
X162260610Y-122600500D01*
X162439389Y-122600500D01*
X162439391Y-122600500D01*
X162614267Y-122563329D01*
X162777593Y-122490612D01*
X162922230Y-122385526D01*
X163041859Y-122252665D01*
X163131250Y-122097835D01*
X163186497Y-121927803D01*
X163205185Y-121750000D01*
X163186497Y-121572197D01*
X163147930Y-121453500D01*
X163131252Y-121402170D01*
X163131249Y-121402164D01*
X163041859Y-121247335D01*
X162982278Y-121181164D01*
X162922235Y-121114478D01*
X162922232Y-121114476D01*
X162922231Y-121114475D01*
X162922230Y-121114474D01*
X162777593Y-121009388D01*
X162768924Y-121005528D01*
X162715689Y-120960280D01*
X162695367Y-120893431D01*
X162714412Y-120826207D01*
X162766777Y-120779951D01*
X162768857Y-120779001D01*
X162777593Y-120775112D01*
X162922230Y-120670026D01*
X162940263Y-120649999D01*
X162961694Y-120626197D01*
X163041859Y-120537165D01*
X163131250Y-120382335D01*
X163186497Y-120212303D01*
X163205185Y-120034500D01*
X163186497Y-119856697D01*
X163131250Y-119686665D01*
X163041859Y-119531835D01*
X162991553Y-119475965D01*
X162922235Y-119398978D01*
X162922232Y-119398976D01*
X162922231Y-119398975D01*
X162922230Y-119398974D01*
X162777593Y-119293888D01*
X162614267Y-119221171D01*
X162614265Y-119221170D01*
X162486594Y-119194033D01*
X162439391Y-119184000D01*
X162260609Y-119184000D01*
X162229954Y-119190515D01*
X162085733Y-119221170D01*
X162085728Y-119221172D01*
X161922408Y-119293887D01*
X161777768Y-119398975D01*
X161658140Y-119531836D01*
X161568750Y-119686664D01*
X161568747Y-119686670D01*
X161513504Y-119856692D01*
X161513503Y-119856694D01*
X161494815Y-120034500D01*
X161513503Y-120212305D01*
X161513504Y-120212307D01*
X161568747Y-120382329D01*
X161568750Y-120382335D01*
X161658141Y-120537165D01*
X161699812Y-120583446D01*
X161777764Y-120670021D01*
X161777767Y-120670023D01*
X161777770Y-120670026D01*
X161922407Y-120775112D01*
X161931075Y-120778971D01*
X161984311Y-120824220D01*
X162004633Y-120891069D01*
X161985588Y-120958293D01*
X161933223Y-121004549D01*
X161931097Y-121005519D01*
X161928010Y-121006893D01*
X161922407Y-121009388D01*
X161777768Y-121114475D01*
X161658140Y-121247336D01*
X161568750Y-121402164D01*
X161568747Y-121402170D01*
X161513504Y-121572192D01*
X161513503Y-121572194D01*
X161494815Y-121750000D01*
X154172461Y-121750000D01*
X154186497Y-121706803D01*
X154205185Y-121529000D01*
X154186497Y-121351197D01*
X154131250Y-121181165D01*
X154041859Y-121026335D01*
X153982383Y-120960280D01*
X153922235Y-120893478D01*
X153922232Y-120893476D01*
X153922231Y-120893475D01*
X153922230Y-120893474D01*
X153777593Y-120788388D01*
X153614267Y-120715671D01*
X153614265Y-120715670D01*
X153486594Y-120688533D01*
X153439391Y-120678500D01*
X153260609Y-120678500D01*
X153229954Y-120685015D01*
X153085733Y-120715670D01*
X153085728Y-120715672D01*
X152922408Y-120788387D01*
X152777768Y-120893475D01*
X152658140Y-121026336D01*
X152568750Y-121181164D01*
X152568747Y-121181170D01*
X152513504Y-121351192D01*
X152513503Y-121351194D01*
X152494815Y-121529000D01*
X126849081Y-121529000D01*
X126972230Y-121439526D01*
X127091859Y-121306665D01*
X127181250Y-121151835D01*
X127236497Y-120981803D01*
X127255185Y-120804000D01*
X127236497Y-120626197D01*
X127181250Y-120456165D01*
X127091859Y-120301335D01*
X127011696Y-120212305D01*
X126972235Y-120168478D01*
X126972232Y-120168476D01*
X126972231Y-120168475D01*
X126972230Y-120168474D01*
X126827593Y-120063388D01*
X126664267Y-119990671D01*
X126664265Y-119990670D01*
X126536594Y-119963533D01*
X126489391Y-119953500D01*
X126310609Y-119953500D01*
X126279954Y-119960015D01*
X126135733Y-119990670D01*
X126135728Y-119990672D01*
X125972408Y-120063387D01*
X125827768Y-120168475D01*
X125708140Y-120301336D01*
X125618750Y-120456164D01*
X125618747Y-120456170D01*
X125563504Y-120626192D01*
X125563503Y-120626194D01*
X125544815Y-120804000D01*
X120722185Y-120804000D01*
X120735659Y-120650000D01*
X120733576Y-120626197D01*
X120725787Y-120537163D01*
X120715063Y-120414592D01*
X120660861Y-120212305D01*
X120653905Y-120186344D01*
X120653904Y-120186343D01*
X120653903Y-120186337D01*
X120554035Y-119972171D01*
X120540962Y-119953500D01*
X120418494Y-119778597D01*
X120251402Y-119611506D01*
X120251396Y-119611501D01*
X120065842Y-119481575D01*
X120022217Y-119426998D01*
X120015023Y-119357500D01*
X120046546Y-119295145D01*
X120065842Y-119278425D01*
X120088026Y-119262891D01*
X120251401Y-119148495D01*
X120418495Y-118981401D01*
X120554035Y-118787830D01*
X120653903Y-118573663D01*
X120715063Y-118345408D01*
X120727435Y-118204000D01*
X125544815Y-118204000D01*
X125563503Y-118381805D01*
X125563504Y-118381807D01*
X125618747Y-118551829D01*
X125618750Y-118551835D01*
X125708141Y-118706665D01*
X125724650Y-118725000D01*
X125827764Y-118839521D01*
X125827767Y-118839523D01*
X125827770Y-118839526D01*
X125972407Y-118944612D01*
X126135733Y-119017329D01*
X126310609Y-119054500D01*
X126310610Y-119054500D01*
X126489389Y-119054500D01*
X126489391Y-119054500D01*
X126664267Y-119017329D01*
X126827593Y-118944612D01*
X126972230Y-118839526D01*
X127075350Y-118725000D01*
X145019815Y-118725000D01*
X145038503Y-118902805D01*
X145038504Y-118902807D01*
X145093747Y-119072829D01*
X145093750Y-119072835D01*
X145183141Y-119227665D01*
X145224812Y-119273946D01*
X145302764Y-119360521D01*
X145302767Y-119360523D01*
X145302770Y-119360526D01*
X145447407Y-119465612D01*
X145610733Y-119538329D01*
X145785609Y-119575500D01*
X145785610Y-119575500D01*
X145964389Y-119575500D01*
X145964391Y-119575500D01*
X146139267Y-119538329D01*
X146302593Y-119465612D01*
X146447230Y-119360526D01*
X146566859Y-119227665D01*
X146656250Y-119072835D01*
X146711497Y-118902803D01*
X146730185Y-118725000D01*
X146711497Y-118547197D01*
X146674366Y-118432921D01*
X146656252Y-118377170D01*
X146656249Y-118377164D01*
X146611735Y-118300063D01*
X146566859Y-118222335D01*
X146497438Y-118145235D01*
X146447235Y-118089478D01*
X146447232Y-118089476D01*
X146447231Y-118089475D01*
X146447230Y-118089474D01*
X146302593Y-117984388D01*
X146139267Y-117911671D01*
X146139265Y-117911670D01*
X146011594Y-117884533D01*
X145964391Y-117874500D01*
X145785609Y-117874500D01*
X145754954Y-117881015D01*
X145610733Y-117911670D01*
X145610728Y-117911672D01*
X145447408Y-117984387D01*
X145302768Y-118089475D01*
X145183140Y-118222336D01*
X145093750Y-118377164D01*
X145093747Y-118377170D01*
X145038504Y-118547192D01*
X145038503Y-118547194D01*
X145019815Y-118725000D01*
X127075350Y-118725000D01*
X127091859Y-118706665D01*
X127181250Y-118551835D01*
X127236497Y-118381803D01*
X127255185Y-118204000D01*
X127236497Y-118026197D01*
X127208873Y-117941181D01*
X127181252Y-117856170D01*
X127181249Y-117856164D01*
X127147322Y-117797400D01*
X132244815Y-117797400D01*
X132263503Y-117975205D01*
X132263504Y-117975207D01*
X132318747Y-118145229D01*
X132318750Y-118145235D01*
X132408141Y-118300065D01*
X132448964Y-118345403D01*
X132527764Y-118432921D01*
X132527767Y-118432923D01*
X132527770Y-118432926D01*
X132672407Y-118538012D01*
X132835733Y-118610729D01*
X133010609Y-118647900D01*
X133010610Y-118647900D01*
X133189389Y-118647900D01*
X133189391Y-118647900D01*
X133364267Y-118610729D01*
X133527593Y-118538012D01*
X133672230Y-118432926D01*
X133791859Y-118300065D01*
X133881250Y-118145235D01*
X133936497Y-117975203D01*
X133955185Y-117797400D01*
X133936497Y-117619597D01*
X133885742Y-117463389D01*
X133881252Y-117449570D01*
X133881249Y-117449564D01*
X133878389Y-117444610D01*
X133791859Y-117294735D01*
X133741312Y-117238597D01*
X133672235Y-117161878D01*
X133672232Y-117161876D01*
X133672231Y-117161875D01*
X133672230Y-117161874D01*
X133527593Y-117056788D01*
X133364267Y-116984071D01*
X133364265Y-116984070D01*
X133236594Y-116956933D01*
X133189391Y-116946900D01*
X133010609Y-116946900D01*
X132979954Y-116953415D01*
X132835733Y-116984070D01*
X132835728Y-116984072D01*
X132672408Y-117056787D01*
X132527768Y-117161875D01*
X132408140Y-117294736D01*
X132318750Y-117449564D01*
X132318747Y-117449570D01*
X132263504Y-117619592D01*
X132263503Y-117619594D01*
X132244815Y-117797400D01*
X127147322Y-117797400D01*
X127091859Y-117701335D01*
X127018259Y-117619594D01*
X126972235Y-117568478D01*
X126972232Y-117568476D01*
X126972231Y-117568475D01*
X126972230Y-117568474D01*
X126827593Y-117463388D01*
X126664267Y-117390671D01*
X126664265Y-117390670D01*
X126536594Y-117363533D01*
X126489391Y-117353500D01*
X126310609Y-117353500D01*
X126294538Y-117356916D01*
X126135733Y-117390670D01*
X126135728Y-117390672D01*
X125972408Y-117463387D01*
X125827768Y-117568475D01*
X125708140Y-117701336D01*
X125618750Y-117856164D01*
X125618747Y-117856170D01*
X125563504Y-118026192D01*
X125563503Y-118026194D01*
X125544815Y-118204000D01*
X120727435Y-118204000D01*
X120735659Y-118110000D01*
X120715063Y-117874592D01*
X120653903Y-117646337D01*
X120554035Y-117432171D01*
X120547699Y-117423122D01*
X120525372Y-117356916D01*
X120542384Y-117289149D01*
X120593332Y-117241337D01*
X120649275Y-117228000D01*
X124323999Y-117228000D01*
X124324000Y-117228000D01*
X124869942Y-116704000D01*
X149469815Y-116704000D01*
X149488503Y-116881805D01*
X149488504Y-116881807D01*
X149543747Y-117051829D01*
X149543750Y-117051835D01*
X149633141Y-117206665D01*
X149661893Y-117238597D01*
X149752764Y-117339521D01*
X149752767Y-117339523D01*
X149752770Y-117339526D01*
X149897407Y-117444612D01*
X150060733Y-117517329D01*
X150235609Y-117554500D01*
X150235610Y-117554500D01*
X150414389Y-117554500D01*
X150414391Y-117554500D01*
X150589267Y-117517329D01*
X150752593Y-117444612D01*
X150897230Y-117339526D01*
X151016859Y-117206665D01*
X151106250Y-117051835D01*
X151161497Y-116881803D01*
X151176460Y-116739439D01*
X151203043Y-116674827D01*
X151260341Y-116634842D01*
X151330160Y-116632182D01*
X151350209Y-116639121D01*
X151460733Y-116688329D01*
X151635609Y-116725500D01*
X151635610Y-116725500D01*
X151814389Y-116725500D01*
X151814391Y-116725500D01*
X151989267Y-116688329D01*
X152152593Y-116615612D01*
X152297230Y-116510526D01*
X152416859Y-116377665D01*
X152506250Y-116222835D01*
X152561497Y-116052803D01*
X152580185Y-115875000D01*
X152561497Y-115697197D01*
X152506250Y-115527165D01*
X152416859Y-115372335D01*
X152349387Y-115297400D01*
X152297235Y-115239478D01*
X152297232Y-115239476D01*
X152297231Y-115239475D01*
X152297230Y-115239474D01*
X152152593Y-115134388D01*
X151989267Y-115061671D01*
X151989265Y-115061670D01*
X151861594Y-115034533D01*
X151814391Y-115024500D01*
X151635609Y-115024500D01*
X151604954Y-115031015D01*
X151460733Y-115061670D01*
X151460728Y-115061672D01*
X151297408Y-115134387D01*
X151152768Y-115239475D01*
X151033140Y-115372336D01*
X150943750Y-115527164D01*
X150943747Y-115527170D01*
X150888504Y-115697192D01*
X150888503Y-115697195D01*
X150873540Y-115839558D01*
X150846955Y-115904173D01*
X150789657Y-115944157D01*
X150719838Y-115946817D01*
X150699784Y-115939876D01*
X150619593Y-115904173D01*
X150589267Y-115890671D01*
X150589265Y-115890670D01*
X150461594Y-115863533D01*
X150414391Y-115853500D01*
X150235609Y-115853500D01*
X150204954Y-115860015D01*
X150060733Y-115890670D01*
X150060728Y-115890672D01*
X149897408Y-115963387D01*
X149752768Y-116068475D01*
X149633140Y-116201336D01*
X149543750Y-116356164D01*
X149543747Y-116356170D01*
X149488504Y-116526192D01*
X149488503Y-116526194D01*
X149469815Y-116704000D01*
X124869942Y-116704000D01*
X126335442Y-115297400D01*
X132644815Y-115297400D01*
X132663503Y-115475205D01*
X132663504Y-115475207D01*
X132718747Y-115645229D01*
X132718750Y-115645235D01*
X132808141Y-115800065D01*
X132843701Y-115839558D01*
X132927764Y-115932921D01*
X132927767Y-115932923D01*
X132927770Y-115932926D01*
X133072407Y-116038012D01*
X133235733Y-116110729D01*
X133410609Y-116147900D01*
X133410610Y-116147900D01*
X133589389Y-116147900D01*
X133589391Y-116147900D01*
X133764267Y-116110729D01*
X133927593Y-116038012D01*
X134072230Y-115932926D01*
X134191859Y-115800065D01*
X134281250Y-115645235D01*
X134336497Y-115475203D01*
X134355185Y-115297400D01*
X134336497Y-115119597D01*
X134281250Y-114949565D01*
X134191859Y-114794735D01*
X134145003Y-114742696D01*
X134072235Y-114661878D01*
X134072232Y-114661876D01*
X134072231Y-114661875D01*
X134072230Y-114661874D01*
X133927593Y-114556788D01*
X133764267Y-114484071D01*
X133764265Y-114484070D01*
X133636594Y-114456933D01*
X133589391Y-114446900D01*
X133410609Y-114446900D01*
X133379954Y-114453415D01*
X133235733Y-114484070D01*
X133235728Y-114484072D01*
X133072408Y-114556787D01*
X132927768Y-114661875D01*
X132808140Y-114794736D01*
X132718750Y-114949564D01*
X132718747Y-114949570D01*
X132663504Y-115119592D01*
X132663503Y-115119594D01*
X132644815Y-115297400D01*
X126335442Y-115297400D01*
X129180858Y-112566344D01*
X129314015Y-112438539D01*
X129376012Y-112406319D01*
X129399880Y-112404000D01*
X138650000Y-112404000D01*
X138669199Y-111409668D01*
X142729483Y-111409668D01*
X142748171Y-111587473D01*
X142748172Y-111587475D01*
X142803415Y-111757497D01*
X142803418Y-111757503D01*
X142892809Y-111912333D01*
X142934480Y-111958614D01*
X143012432Y-112045189D01*
X143012435Y-112045191D01*
X143012438Y-112045194D01*
X143157075Y-112150280D01*
X143320401Y-112222997D01*
X143495277Y-112260168D01*
X143495278Y-112260168D01*
X143674057Y-112260168D01*
X143674059Y-112260168D01*
X143848935Y-112222997D01*
X144012261Y-112150280D01*
X144156898Y-112045194D01*
X144188117Y-112010520D01*
X144247602Y-111973873D01*
X144317459Y-111975202D01*
X144330699Y-111980211D01*
X144461233Y-112038329D01*
X144636109Y-112075500D01*
X144636110Y-112075500D01*
X144814889Y-112075500D01*
X144814891Y-112075500D01*
X144989767Y-112038329D01*
X145153093Y-111965612D01*
X145297730Y-111860526D01*
X145311841Y-111844855D01*
X145345927Y-111806998D01*
X145417359Y-111727665D01*
X145506750Y-111572835D01*
X145561997Y-111402803D01*
X145580685Y-111225000D01*
X145561997Y-111047197D01*
X145531603Y-110953655D01*
X145506752Y-110877170D01*
X145506749Y-110877164D01*
X145447270Y-110774143D01*
X145417359Y-110722335D01*
X145361948Y-110660795D01*
X145297735Y-110589478D01*
X145297732Y-110589476D01*
X145297731Y-110589475D01*
X145297730Y-110589474D01*
X145153093Y-110484388D01*
X144989767Y-110411671D01*
X144989765Y-110411670D01*
X144862094Y-110384533D01*
X144814891Y-110374500D01*
X144636109Y-110374500D01*
X144605454Y-110381015D01*
X144461233Y-110411670D01*
X144461228Y-110411672D01*
X144297908Y-110484387D01*
X144153270Y-110589474D01*
X144122049Y-110624148D01*
X144062561Y-110660795D01*
X143992704Y-110659464D01*
X143979465Y-110654454D01*
X143911395Y-110624148D01*
X143848935Y-110596339D01*
X143848933Y-110596338D01*
X143721262Y-110569201D01*
X143674059Y-110559168D01*
X143495277Y-110559168D01*
X143464622Y-110565683D01*
X143320401Y-110596338D01*
X143320396Y-110596340D01*
X143157076Y-110669055D01*
X143012436Y-110774143D01*
X142892808Y-110907004D01*
X142803418Y-111061832D01*
X142803415Y-111061838D01*
X142748172Y-111231860D01*
X142748171Y-111231862D01*
X142729483Y-111409668D01*
X138669199Y-111409668D01*
X138750000Y-107225000D01*
X131927664Y-107225000D01*
X131860625Y-107205315D01*
X131856020Y-107200000D01*
X141619815Y-107200000D01*
X141638503Y-107377805D01*
X141638504Y-107377807D01*
X141693747Y-107547829D01*
X141693750Y-107547835D01*
X141783141Y-107702665D01*
X141793884Y-107714596D01*
X141902764Y-107835521D01*
X141902767Y-107835523D01*
X141902770Y-107835526D01*
X142047407Y-107940612D01*
X142210733Y-108013329D01*
X142345420Y-108041957D01*
X142406901Y-108075149D01*
X142437569Y-108124929D01*
X142493747Y-108297828D01*
X142493750Y-108297835D01*
X142583141Y-108452665D01*
X142624812Y-108498946D01*
X142702764Y-108585521D01*
X142702767Y-108585523D01*
X142702770Y-108585526D01*
X142847407Y-108690612D01*
X143010733Y-108763329D01*
X143185609Y-108800500D01*
X143185610Y-108800500D01*
X143364389Y-108800500D01*
X143364391Y-108800500D01*
X143539267Y-108763329D01*
X143702593Y-108690612D01*
X143847230Y-108585526D01*
X143966859Y-108452665D01*
X144056250Y-108297835D01*
X144111497Y-108127803D01*
X144130185Y-107950000D01*
X144111497Y-107772197D01*
X144056250Y-107602165D01*
X143966859Y-107447335D01*
X143920003Y-107395296D01*
X143847235Y-107314478D01*
X143847232Y-107314476D01*
X143847231Y-107314475D01*
X143847230Y-107314474D01*
X143702593Y-107209388D01*
X143539267Y-107136671D01*
X143539265Y-107136670D01*
X143539264Y-107136670D01*
X143404580Y-107108042D01*
X143343098Y-107074850D01*
X143312430Y-107025070D01*
X143256252Y-106852170D01*
X143256249Y-106852164D01*
X143246949Y-106836056D01*
X143166859Y-106697335D01*
X143108933Y-106633002D01*
X143047235Y-106564478D01*
X143047232Y-106564476D01*
X143047231Y-106564475D01*
X143047230Y-106564474D01*
X142902593Y-106459388D01*
X142739267Y-106386671D01*
X142739265Y-106386670D01*
X142611594Y-106359533D01*
X142564391Y-106349500D01*
X142385609Y-106349500D01*
X142354954Y-106356015D01*
X142210733Y-106386670D01*
X142210728Y-106386672D01*
X142047408Y-106459387D01*
X141902768Y-106564475D01*
X141783140Y-106697336D01*
X141693750Y-106852164D01*
X141693747Y-106852170D01*
X141638504Y-107022192D01*
X141638503Y-107022194D01*
X141619815Y-107200000D01*
X131856020Y-107200000D01*
X131814870Y-107152511D01*
X131803717Y-107097390D01*
X131842233Y-105775000D01*
X133394815Y-105775000D01*
X133413503Y-105952805D01*
X133413504Y-105952807D01*
X133468747Y-106122829D01*
X133468750Y-106122835D01*
X133558141Y-106277665D01*
X133599812Y-106323946D01*
X133677764Y-106410521D01*
X133677767Y-106410523D01*
X133677770Y-106410526D01*
X133822407Y-106515612D01*
X133985733Y-106588329D01*
X134160609Y-106625500D01*
X134160610Y-106625500D01*
X134339389Y-106625500D01*
X134339391Y-106625500D01*
X134514267Y-106588329D01*
X134677593Y-106515612D01*
X134822230Y-106410526D01*
X134941859Y-106277665D01*
X135031250Y-106122835D01*
X135086497Y-105952803D01*
X135105185Y-105775000D01*
X135086497Y-105597197D01*
X135049357Y-105482891D01*
X135031252Y-105427170D01*
X135031249Y-105427164D01*
X134941859Y-105272335D01*
X134888730Y-105213329D01*
X134822235Y-105139478D01*
X134822232Y-105139476D01*
X134822231Y-105139475D01*
X134822230Y-105139474D01*
X134677593Y-105034388D01*
X134514267Y-104961671D01*
X134514265Y-104961670D01*
X134386594Y-104934533D01*
X134339391Y-104924500D01*
X134160609Y-104924500D01*
X134129954Y-104931015D01*
X133985733Y-104961670D01*
X133985728Y-104961672D01*
X133822408Y-105034387D01*
X133677768Y-105139475D01*
X133558140Y-105272336D01*
X133468750Y-105427164D01*
X133468747Y-105427170D01*
X133413504Y-105597192D01*
X133413503Y-105597194D01*
X133394815Y-105775000D01*
X131842233Y-105775000D01*
X131881917Y-104412500D01*
X139369315Y-104412500D01*
X139388003Y-104590305D01*
X139388004Y-104590307D01*
X139443247Y-104760329D01*
X139443250Y-104760335D01*
X139532641Y-104915165D01*
X139560715Y-104946344D01*
X139652264Y-105048021D01*
X139652267Y-105048023D01*
X139652270Y-105048026D01*
X139796907Y-105153112D01*
X139960233Y-105225829D01*
X139960235Y-105225829D01*
X139960236Y-105225830D01*
X140025256Y-105239650D01*
X140101684Y-105255895D01*
X140163166Y-105289087D01*
X140196943Y-105350250D01*
X140192291Y-105419964D01*
X140168055Y-105460156D01*
X140147584Y-105482891D01*
X140058194Y-105637720D01*
X140058191Y-105637726D01*
X140002948Y-105807748D01*
X140002947Y-105807750D01*
X139984259Y-105985556D01*
X140002947Y-106163361D01*
X140002948Y-106163363D01*
X140058191Y-106333385D01*
X140058194Y-106333391D01*
X140147585Y-106488221D01*
X140172248Y-106515612D01*
X140267208Y-106621077D01*
X140267211Y-106621079D01*
X140267214Y-106621082D01*
X140411851Y-106726168D01*
X140575177Y-106798885D01*
X140750053Y-106836056D01*
X140750054Y-106836056D01*
X140928833Y-106836056D01*
X140928835Y-106836056D01*
X141103711Y-106798885D01*
X141267037Y-106726168D01*
X141411674Y-106621082D01*
X141531303Y-106488221D01*
X141620694Y-106333391D01*
X141675941Y-106163359D01*
X141694629Y-105985556D01*
X141675941Y-105807753D01*
X141637138Y-105688329D01*
X141620696Y-105637726D01*
X141620693Y-105637720D01*
X141597297Y-105597197D01*
X141531303Y-105482891D01*
X141474643Y-105419964D01*
X141411679Y-105350034D01*
X141411676Y-105350032D01*
X141411675Y-105350031D01*
X141411674Y-105350030D01*
X141267037Y-105244944D01*
X141103711Y-105172227D01*
X141103709Y-105172226D01*
X140962258Y-105142160D01*
X140900776Y-105108968D01*
X140867000Y-105047805D01*
X140871652Y-104978090D01*
X140895889Y-104937898D01*
X140916359Y-104915165D01*
X141005750Y-104760335D01*
X141060997Y-104590303D01*
X141079685Y-104412500D01*
X141078371Y-104400000D01*
X142469815Y-104400000D01*
X142488503Y-104577805D01*
X142488504Y-104577807D01*
X142543747Y-104747829D01*
X142543750Y-104747835D01*
X142633141Y-104902665D01*
X142664863Y-104937896D01*
X142752764Y-105035521D01*
X142752767Y-105035523D01*
X142752770Y-105035526D01*
X142897407Y-105140612D01*
X143060733Y-105213329D01*
X143235609Y-105250500D01*
X143235610Y-105250500D01*
X143414389Y-105250500D01*
X143414391Y-105250500D01*
X143589267Y-105213329D01*
X143752593Y-105140612D01*
X143897230Y-105035526D01*
X144016859Y-104902665D01*
X144106250Y-104747835D01*
X144161497Y-104577803D01*
X144180185Y-104400000D01*
X144161497Y-104222197D01*
X144119519Y-104093002D01*
X144106252Y-104052170D01*
X144106249Y-104052164D01*
X144098317Y-104038425D01*
X144016859Y-103897335D01*
X143970003Y-103845296D01*
X143897235Y-103764478D01*
X143897232Y-103764476D01*
X143897231Y-103764475D01*
X143897230Y-103764474D01*
X143752593Y-103659388D01*
X143589267Y-103586671D01*
X143589265Y-103586670D01*
X143534361Y-103575000D01*
X144594815Y-103575000D01*
X144613503Y-103752805D01*
X144613504Y-103752807D01*
X144668747Y-103922829D01*
X144668750Y-103922835D01*
X144758141Y-104077665D01*
X144771951Y-104093002D01*
X144877764Y-104210521D01*
X144877767Y-104210523D01*
X144877770Y-104210526D01*
X145022407Y-104315612D01*
X145185733Y-104388329D01*
X145360609Y-104425500D01*
X145360610Y-104425500D01*
X145539389Y-104425500D01*
X145539391Y-104425500D01*
X145714267Y-104388329D01*
X145877593Y-104315612D01*
X146022230Y-104210526D01*
X146141859Y-104077665D01*
X146231250Y-103922835D01*
X146286497Y-103752803D01*
X146305185Y-103575000D01*
X146286497Y-103397197D01*
X146231250Y-103227165D01*
X146141859Y-103072335D01*
X146095003Y-103020296D01*
X146022235Y-102939478D01*
X146022232Y-102939476D01*
X146022231Y-102939475D01*
X146022230Y-102939474D01*
X145877593Y-102834388D01*
X145714267Y-102761671D01*
X145714265Y-102761670D01*
X145586594Y-102734533D01*
X145539391Y-102724500D01*
X145360609Y-102724500D01*
X145329954Y-102731015D01*
X145185733Y-102761670D01*
X145185728Y-102761672D01*
X145022408Y-102834387D01*
X144877768Y-102939475D01*
X144758140Y-103072336D01*
X144668750Y-103227164D01*
X144668747Y-103227170D01*
X144613504Y-103397192D01*
X144613503Y-103397194D01*
X144594815Y-103575000D01*
X143534361Y-103575000D01*
X143461594Y-103559533D01*
X143414391Y-103549500D01*
X143235609Y-103549500D01*
X143204954Y-103556015D01*
X143060733Y-103586670D01*
X143060728Y-103586672D01*
X142897408Y-103659387D01*
X142752768Y-103764475D01*
X142633140Y-103897336D01*
X142543750Y-104052164D01*
X142543747Y-104052170D01*
X142488504Y-104222192D01*
X142488503Y-104222194D01*
X142469815Y-104400000D01*
X141078371Y-104400000D01*
X141060997Y-104234697D01*
X141030228Y-104140000D01*
X141005752Y-104064670D01*
X141005749Y-104064664D01*
X141004021Y-104061671D01*
X140916359Y-103909835D01*
X140869503Y-103857796D01*
X140796735Y-103776978D01*
X140796732Y-103776976D01*
X140796731Y-103776975D01*
X140796730Y-103776974D01*
X140652093Y-103671888D01*
X140488767Y-103599171D01*
X140488765Y-103599170D01*
X140361094Y-103572033D01*
X140313891Y-103562000D01*
X140135109Y-103562000D01*
X140104454Y-103568515D01*
X139960233Y-103599170D01*
X139960228Y-103599172D01*
X139796908Y-103671887D01*
X139652268Y-103776975D01*
X139532640Y-103909836D01*
X139443250Y-104064664D01*
X139443247Y-104064670D01*
X139388004Y-104234692D01*
X139388003Y-104234694D01*
X139369315Y-104412500D01*
X131881917Y-104412500D01*
X131952912Y-101975000D01*
X148294815Y-101975000D01*
X148313503Y-102152805D01*
X148313504Y-102152807D01*
X148368747Y-102322829D01*
X148368750Y-102322835D01*
X148458141Y-102477665D01*
X148499812Y-102523946D01*
X148577764Y-102610521D01*
X148577767Y-102610523D01*
X148577770Y-102610526D01*
X148722407Y-102715612D01*
X148885733Y-102788329D01*
X149060609Y-102825500D01*
X149060610Y-102825500D01*
X149239389Y-102825500D01*
X149239391Y-102825500D01*
X149414267Y-102788329D01*
X149577593Y-102715612D01*
X149722230Y-102610526D01*
X149841859Y-102477665D01*
X149931250Y-102322835D01*
X149967100Y-102212500D01*
X158857315Y-102212500D01*
X158876003Y-102390305D01*
X158876004Y-102390307D01*
X158931247Y-102560329D01*
X158931250Y-102560335D01*
X159020641Y-102715165D01*
X159062312Y-102761446D01*
X159140264Y-102848021D01*
X159140267Y-102848023D01*
X159140270Y-102848026D01*
X159284907Y-102953112D01*
X159448233Y-103025829D01*
X159623109Y-103063000D01*
X159623110Y-103063000D01*
X159801889Y-103063000D01*
X159801891Y-103063000D01*
X159976767Y-103025829D01*
X160140093Y-102953112D01*
X160284730Y-102848026D01*
X160404359Y-102715165D01*
X160493750Y-102560335D01*
X160548997Y-102390303D01*
X160567685Y-102212500D01*
X160548997Y-102034697D01*
X160493750Y-101864665D01*
X160404359Y-101709835D01*
X160329927Y-101627170D01*
X160284735Y-101576978D01*
X160284732Y-101576976D01*
X160284731Y-101576975D01*
X160284730Y-101576974D01*
X160140093Y-101471888D01*
X159976767Y-101399171D01*
X159976765Y-101399170D01*
X159849094Y-101372033D01*
X159801891Y-101362000D01*
X159623109Y-101362000D01*
X159592562Y-101368493D01*
X159448233Y-101399170D01*
X159448228Y-101399172D01*
X159284908Y-101471887D01*
X159140268Y-101576975D01*
X159020640Y-101709836D01*
X158931250Y-101864664D01*
X158931247Y-101864670D01*
X158876004Y-102034692D01*
X158876003Y-102034694D01*
X158857315Y-102212500D01*
X149967100Y-102212500D01*
X149986497Y-102152803D01*
X150005185Y-101975000D01*
X149986497Y-101797197D01*
X149931250Y-101627165D01*
X149841859Y-101472335D01*
X149775981Y-101399170D01*
X149722235Y-101339478D01*
X149722232Y-101339476D01*
X149722231Y-101339475D01*
X149722230Y-101339474D01*
X149577593Y-101234388D01*
X149414267Y-101161671D01*
X149414265Y-101161670D01*
X149286594Y-101134533D01*
X149239391Y-101124500D01*
X149060609Y-101124500D01*
X149029954Y-101131015D01*
X148885733Y-101161670D01*
X148885728Y-101161672D01*
X148722408Y-101234387D01*
X148577768Y-101339475D01*
X148458140Y-101472336D01*
X148368750Y-101627164D01*
X148368747Y-101627170D01*
X148313504Y-101797192D01*
X148313503Y-101797194D01*
X148294815Y-101975000D01*
X131952912Y-101975000D01*
X131992961Y-100600000D01*
X135844815Y-100600000D01*
X135863503Y-100777805D01*
X135863504Y-100777807D01*
X135918747Y-100947829D01*
X135918750Y-100947835D01*
X136008141Y-101102665D01*
X136042307Y-101140610D01*
X136127764Y-101235521D01*
X136127767Y-101235523D01*
X136127770Y-101235526D01*
X136272407Y-101340612D01*
X136435733Y-101413329D01*
X136610609Y-101450500D01*
X136610610Y-101450500D01*
X136789389Y-101450500D01*
X136789391Y-101450500D01*
X136964267Y-101413329D01*
X137127593Y-101340612D01*
X137272230Y-101235526D01*
X137281258Y-101225500D01*
X137302962Y-101201395D01*
X137391859Y-101102665D01*
X137481250Y-100947835D01*
X137536497Y-100777803D01*
X137555185Y-100600000D01*
X137544674Y-100500000D01*
X138619815Y-100500000D01*
X138638503Y-100677805D01*
X138638504Y-100677807D01*
X138693747Y-100847829D01*
X138693749Y-100847833D01*
X138693750Y-100847835D01*
X138783141Y-101002665D01*
X138824812Y-101048946D01*
X138902764Y-101135521D01*
X138902767Y-101135523D01*
X138902770Y-101135526D01*
X139047407Y-101240612D01*
X139210733Y-101313329D01*
X139385609Y-101350500D01*
X139385610Y-101350500D01*
X139564389Y-101350500D01*
X139564391Y-101350500D01*
X139739267Y-101313329D01*
X139902593Y-101240612D01*
X140047230Y-101135526D01*
X140166859Y-101002665D01*
X140256250Y-100847835D01*
X140276282Y-100786181D01*
X140315719Y-100728507D01*
X140380078Y-100701308D01*
X140394213Y-100700500D01*
X140539389Y-100700500D01*
X140539391Y-100700500D01*
X140714267Y-100663329D01*
X140744205Y-100650000D01*
X144344815Y-100650000D01*
X144363503Y-100827805D01*
X144363504Y-100827807D01*
X144418747Y-100997829D01*
X144418750Y-100997835D01*
X144508141Y-101152665D01*
X144532452Y-101179665D01*
X144627764Y-101285521D01*
X144627767Y-101285523D01*
X144627770Y-101285526D01*
X144772407Y-101390612D01*
X144935733Y-101463329D01*
X145110609Y-101500500D01*
X145110610Y-101500500D01*
X145289389Y-101500500D01*
X145289391Y-101500500D01*
X145464267Y-101463329D01*
X145627593Y-101390612D01*
X145772230Y-101285526D01*
X145781258Y-101275500D01*
X145812671Y-101240612D01*
X145891859Y-101152665D01*
X145981250Y-100997835D01*
X146003737Y-100928624D01*
X146043173Y-100870950D01*
X146107532Y-100843751D01*
X146176378Y-100855665D01*
X146213818Y-100883971D01*
X146327764Y-101010521D01*
X146327767Y-101010523D01*
X146327770Y-101010526D01*
X146472407Y-101115612D01*
X146635733Y-101188329D01*
X146810609Y-101225500D01*
X146810610Y-101225500D01*
X146989389Y-101225500D01*
X146989391Y-101225500D01*
X147164267Y-101188329D01*
X147327593Y-101115612D01*
X147472230Y-101010526D01*
X147474658Y-101007830D01*
X147528677Y-100947835D01*
X147591859Y-100877665D01*
X147681250Y-100722835D01*
X147696143Y-100677000D01*
X152894815Y-100677000D01*
X152913503Y-100854805D01*
X152913504Y-100854807D01*
X152968747Y-101024829D01*
X152968750Y-101024835D01*
X153058141Y-101179665D01*
X153093953Y-101219438D01*
X153177764Y-101312521D01*
X153177767Y-101312523D01*
X153177770Y-101312526D01*
X153322407Y-101417612D01*
X153485733Y-101490329D01*
X153660609Y-101527500D01*
X153660610Y-101527500D01*
X153839389Y-101527500D01*
X153839391Y-101527500D01*
X154014267Y-101490329D01*
X154177593Y-101417612D01*
X154322230Y-101312526D01*
X154371545Y-101257755D01*
X154431029Y-101221108D01*
X154489473Y-101219438D01*
X154635609Y-101250500D01*
X154635610Y-101250500D01*
X154814389Y-101250500D01*
X154814391Y-101250500D01*
X154989267Y-101213329D01*
X155152593Y-101140612D01*
X155297230Y-101035526D01*
X155306857Y-101024835D01*
X155331167Y-100997835D01*
X155416859Y-100902665D01*
X155506250Y-100747835D01*
X155561497Y-100577803D01*
X155577557Y-100425000D01*
X155969815Y-100425000D01*
X155988503Y-100602805D01*
X155988504Y-100602807D01*
X156043747Y-100772829D01*
X156043750Y-100772835D01*
X156133141Y-100927665D01*
X156174812Y-100973946D01*
X156252764Y-101060521D01*
X156252767Y-101060523D01*
X156252770Y-101060526D01*
X156397407Y-101165612D01*
X156560733Y-101238329D01*
X156735609Y-101275500D01*
X156752962Y-101275500D01*
X156820001Y-101295185D01*
X156865756Y-101347989D01*
X156876283Y-101386538D01*
X156888503Y-101502804D01*
X156888504Y-101502807D01*
X156943747Y-101672829D01*
X156943750Y-101672835D01*
X157033141Y-101827665D01*
X157066455Y-101864664D01*
X157152764Y-101960521D01*
X157152767Y-101960523D01*
X157152770Y-101960526D01*
X157297407Y-102065612D01*
X157460733Y-102138329D01*
X157635609Y-102175500D01*
X157635610Y-102175500D01*
X157814389Y-102175500D01*
X157814391Y-102175500D01*
X157989267Y-102138329D01*
X158152593Y-102065612D01*
X158297230Y-101960526D01*
X158416859Y-101827665D01*
X158506250Y-101672835D01*
X158561497Y-101502803D01*
X158580185Y-101325000D01*
X158561497Y-101147197D01*
X158516214Y-101007830D01*
X158506252Y-100977170D01*
X158506249Y-100977164D01*
X158489316Y-100947835D01*
X158416859Y-100822335D01*
X158349779Y-100747835D01*
X158297235Y-100689478D01*
X158297232Y-100689476D01*
X158297231Y-100689475D01*
X158297230Y-100689474D01*
X158152593Y-100584388D01*
X157989267Y-100511671D01*
X157989265Y-100511670D01*
X157861594Y-100484533D01*
X157814391Y-100474500D01*
X157814390Y-100474500D01*
X157797038Y-100474500D01*
X157729999Y-100454815D01*
X157684244Y-100402011D01*
X157673717Y-100363462D01*
X157669380Y-100322197D01*
X157661497Y-100247197D01*
X157629050Y-100147335D01*
X157606252Y-100077170D01*
X157606249Y-100077164D01*
X157516859Y-99922335D01*
X157465783Y-99865610D01*
X157397235Y-99789478D01*
X157397232Y-99789476D01*
X157397231Y-99789475D01*
X157397230Y-99789474D01*
X157252593Y-99684388D01*
X157089267Y-99611671D01*
X157089265Y-99611670D01*
X156961594Y-99584533D01*
X156914391Y-99574500D01*
X156735609Y-99574500D01*
X156704954Y-99581015D01*
X156560733Y-99611670D01*
X156560728Y-99611672D01*
X156397408Y-99684387D01*
X156252768Y-99789475D01*
X156133140Y-99922336D01*
X156043750Y-100077164D01*
X156043747Y-100077170D01*
X155988504Y-100247192D01*
X155988503Y-100247194D01*
X155969815Y-100425000D01*
X155577557Y-100425000D01*
X155580185Y-100400000D01*
X155561497Y-100222197D01*
X155520037Y-100094596D01*
X155506252Y-100052170D01*
X155506249Y-100052164D01*
X155500078Y-100041475D01*
X155416859Y-99897335D01*
X155353079Y-99826500D01*
X155297235Y-99764478D01*
X155297232Y-99764476D01*
X155297231Y-99764475D01*
X155297230Y-99764474D01*
X155152593Y-99659388D01*
X154989267Y-99586671D01*
X154989265Y-99586670D01*
X154861594Y-99559533D01*
X154814391Y-99549500D01*
X154635609Y-99549500D01*
X154604954Y-99556015D01*
X154460733Y-99586670D01*
X154460728Y-99586672D01*
X154297408Y-99659387D01*
X154152770Y-99764474D01*
X154103453Y-99819245D01*
X154043965Y-99855892D01*
X153985523Y-99857561D01*
X153902327Y-99839877D01*
X153839391Y-99826500D01*
X153660609Y-99826500D01*
X153629954Y-99833015D01*
X153485733Y-99863670D01*
X153485728Y-99863672D01*
X153322408Y-99936387D01*
X153177768Y-100041475D01*
X153058140Y-100174336D01*
X152968750Y-100329164D01*
X152968747Y-100329170D01*
X152913504Y-100499192D01*
X152913503Y-100499194D01*
X152894815Y-100677000D01*
X147696143Y-100677000D01*
X147736497Y-100552803D01*
X147755185Y-100375000D01*
X147736811Y-100200191D01*
X147749380Y-100131465D01*
X147797112Y-100080441D01*
X147834350Y-100065943D01*
X147916198Y-100048546D01*
X147964263Y-100038330D01*
X147964263Y-100038329D01*
X147964267Y-100038329D01*
X148127593Y-99965612D01*
X148272230Y-99860526D01*
X148276403Y-99855892D01*
X148302867Y-99826500D01*
X148391859Y-99727665D01*
X148481250Y-99572835D01*
X148484180Y-99563819D01*
X148496468Y-99526000D01*
X148536497Y-99402803D01*
X148555185Y-99225000D01*
X148544674Y-99125000D01*
X158019815Y-99125000D01*
X158038503Y-99302805D01*
X158038504Y-99302807D01*
X158093747Y-99472829D01*
X158093750Y-99472835D01*
X158183141Y-99627665D01*
X158212279Y-99660026D01*
X158302764Y-99760521D01*
X158302767Y-99760523D01*
X158302770Y-99760526D01*
X158447407Y-99865612D01*
X158610733Y-99938329D01*
X158785609Y-99975500D01*
X158785610Y-99975500D01*
X158964389Y-99975500D01*
X158964391Y-99975500D01*
X159139267Y-99938329D01*
X159302593Y-99865612D01*
X159447230Y-99760526D01*
X159566859Y-99627665D01*
X159656250Y-99472835D01*
X159711497Y-99302803D01*
X159730185Y-99125000D01*
X159711497Y-98947197D01*
X159680990Y-98853307D01*
X159656252Y-98777170D01*
X159656249Y-98777164D01*
X159646643Y-98760526D01*
X159566859Y-98622335D01*
X159488693Y-98535523D01*
X159447235Y-98489478D01*
X159447232Y-98489476D01*
X159447231Y-98489475D01*
X159447230Y-98489474D01*
X159302593Y-98384388D01*
X159139267Y-98311671D01*
X159139265Y-98311670D01*
X159008553Y-98283887D01*
X158964391Y-98274500D01*
X158785609Y-98274500D01*
X158754954Y-98281015D01*
X158610733Y-98311670D01*
X158610728Y-98311672D01*
X158447408Y-98384387D01*
X158302768Y-98489475D01*
X158183140Y-98622336D01*
X158093750Y-98777164D01*
X158093747Y-98777170D01*
X158038504Y-98947192D01*
X158038503Y-98947194D01*
X158019815Y-99125000D01*
X148544674Y-99125000D01*
X148536497Y-99047197D01*
X148504003Y-98947192D01*
X148481252Y-98877170D01*
X148481249Y-98877164D01*
X148391859Y-98722335D01*
X148345003Y-98670296D01*
X148272235Y-98589478D01*
X148272232Y-98589476D01*
X148272231Y-98589475D01*
X148272230Y-98589474D01*
X148127593Y-98484388D01*
X147964267Y-98411671D01*
X147964265Y-98411670D01*
X147835906Y-98384387D01*
X147789391Y-98374500D01*
X147610609Y-98374500D01*
X147573439Y-98382400D01*
X147435734Y-98411670D01*
X147435729Y-98411672D01*
X147362370Y-98444333D01*
X147293120Y-98453617D01*
X147229844Y-98423988D01*
X147219786Y-98414025D01*
X147197231Y-98388975D01*
X147190917Y-98384387D01*
X147052593Y-98283888D01*
X146889267Y-98211171D01*
X146889265Y-98211170D01*
X146761594Y-98184033D01*
X146714391Y-98174000D01*
X146535609Y-98174000D01*
X146504954Y-98180515D01*
X146360733Y-98211170D01*
X146360728Y-98211172D01*
X146197408Y-98283887D01*
X146052768Y-98388975D01*
X145933140Y-98521836D01*
X145843750Y-98676664D01*
X145843747Y-98676670D01*
X145788504Y-98846692D01*
X145788503Y-98846694D01*
X145769815Y-99024500D01*
X145788503Y-99202305D01*
X145788504Y-99202307D01*
X145843747Y-99372329D01*
X145843750Y-99372335D01*
X145933141Y-99527165D01*
X145953252Y-99549500D01*
X146052764Y-99660021D01*
X146052767Y-99660023D01*
X146052770Y-99660026D01*
X146158254Y-99736665D01*
X146200919Y-99791995D01*
X146206898Y-99861609D01*
X146192756Y-99898982D01*
X146118749Y-100027167D01*
X146118748Y-100027168D01*
X146096262Y-100096375D01*
X146056824Y-100154050D01*
X145992465Y-100181248D01*
X145923619Y-100169333D01*
X145886181Y-100141028D01*
X145772235Y-100014478D01*
X145772232Y-100014476D01*
X145772231Y-100014475D01*
X145772230Y-100014474D01*
X145627593Y-99909388D01*
X145464267Y-99836671D01*
X145464265Y-99836670D01*
X145336594Y-99809533D01*
X145289391Y-99799500D01*
X145110609Y-99799500D01*
X145079954Y-99806015D01*
X144935733Y-99836670D01*
X144935728Y-99836672D01*
X144772408Y-99909387D01*
X144627768Y-100014475D01*
X144508140Y-100147336D01*
X144418750Y-100302164D01*
X144418747Y-100302170D01*
X144363504Y-100472192D01*
X144363503Y-100472194D01*
X144344815Y-100650000D01*
X140744205Y-100650000D01*
X140877593Y-100590612D01*
X141022230Y-100485526D01*
X141141859Y-100352665D01*
X141231250Y-100197835D01*
X141286497Y-100027803D01*
X141305185Y-99850000D01*
X141286497Y-99672197D01*
X141239373Y-99527165D01*
X141231252Y-99502170D01*
X141231249Y-99502164D01*
X141214316Y-99472835D01*
X141141859Y-99347335D01*
X141091586Y-99291501D01*
X141022235Y-99214478D01*
X141022232Y-99214476D01*
X141022231Y-99214475D01*
X141022230Y-99214474D01*
X140877593Y-99109388D01*
X140714267Y-99036671D01*
X140714265Y-99036670D01*
X140586594Y-99009533D01*
X140539391Y-98999500D01*
X140360609Y-98999500D01*
X140329954Y-99006015D01*
X140185733Y-99036670D01*
X140185728Y-99036672D01*
X140022408Y-99109387D01*
X139877768Y-99214475D01*
X139758140Y-99347336D01*
X139668750Y-99502164D01*
X139668748Y-99502168D01*
X139648717Y-99563819D01*
X139609279Y-99621494D01*
X139544920Y-99648692D01*
X139530786Y-99649500D01*
X139385609Y-99649500D01*
X139354954Y-99656015D01*
X139210733Y-99686670D01*
X139210728Y-99686672D01*
X139047408Y-99759387D01*
X138902768Y-99864475D01*
X138783140Y-99997336D01*
X138693750Y-100152164D01*
X138693747Y-100152170D01*
X138638504Y-100322192D01*
X138638503Y-100322194D01*
X138619815Y-100500000D01*
X137544674Y-100500000D01*
X137536497Y-100422197D01*
X137481250Y-100252165D01*
X137391859Y-100097335D01*
X137341561Y-100041474D01*
X137272235Y-99964478D01*
X137272232Y-99964476D01*
X137272231Y-99964475D01*
X137272230Y-99964474D01*
X137127593Y-99859388D01*
X136964267Y-99786671D01*
X136964265Y-99786670D01*
X136835906Y-99759387D01*
X136789391Y-99749500D01*
X136610609Y-99749500D01*
X136579954Y-99756015D01*
X136435733Y-99786670D01*
X136435728Y-99786672D01*
X136272408Y-99859387D01*
X136127768Y-99964475D01*
X136008140Y-100097336D01*
X135918750Y-100252164D01*
X135918747Y-100252170D01*
X135863504Y-100422192D01*
X135863503Y-100422194D01*
X135844815Y-100600000D01*
X131992961Y-100600000D01*
X131996295Y-100485523D01*
X132023529Y-99550502D01*
X132045157Y-99484065D01*
X132061346Y-99464907D01*
X133438963Y-98134793D01*
X133500864Y-98102390D01*
X133525093Y-98100000D01*
X136860418Y-98100000D01*
X136927457Y-98119685D01*
X136973212Y-98172489D01*
X136983156Y-98241647D01*
X136967806Y-98285999D01*
X136943749Y-98327667D01*
X136943747Y-98327670D01*
X136888504Y-98497692D01*
X136888503Y-98497694D01*
X136869815Y-98675500D01*
X136888503Y-98853305D01*
X136888504Y-98853307D01*
X136943747Y-99023329D01*
X136943750Y-99023335D01*
X137033141Y-99178165D01*
X137074812Y-99224446D01*
X137152764Y-99311021D01*
X137152767Y-99311023D01*
X137152770Y-99311026D01*
X137297407Y-99416112D01*
X137460733Y-99488829D01*
X137635609Y-99526000D01*
X137635610Y-99526000D01*
X137814389Y-99526000D01*
X137814391Y-99526000D01*
X137989267Y-99488829D01*
X138152593Y-99416112D01*
X138297230Y-99311026D01*
X138304631Y-99302807D01*
X138323148Y-99282241D01*
X138416859Y-99178165D01*
X138506250Y-99023335D01*
X138561497Y-98853303D01*
X138568950Y-98782389D01*
X138595533Y-98717778D01*
X138652830Y-98677793D01*
X138722649Y-98675133D01*
X138782823Y-98710642D01*
X138784420Y-98712382D01*
X138827764Y-98760521D01*
X138827767Y-98760523D01*
X138827770Y-98760526D01*
X138972407Y-98865612D01*
X139135733Y-98938329D01*
X139310609Y-98975500D01*
X139310610Y-98975500D01*
X139489389Y-98975500D01*
X139489391Y-98975500D01*
X139664267Y-98938329D01*
X139827593Y-98865612D01*
X139972230Y-98760526D01*
X139981258Y-98750500D01*
X139998148Y-98731741D01*
X140091859Y-98627665D01*
X140181250Y-98472835D01*
X140236497Y-98302803D01*
X140255185Y-98125000D01*
X140236497Y-97947197D01*
X140193742Y-97815610D01*
X140181252Y-97777170D01*
X140181249Y-97777164D01*
X140171643Y-97760526D01*
X140154192Y-97730300D01*
X140137720Y-97662402D01*
X140154193Y-97606302D01*
X140170726Y-97577665D01*
X140231250Y-97472835D01*
X140286497Y-97302803D01*
X140294674Y-97225000D01*
X140694815Y-97225000D01*
X140713503Y-97402805D01*
X140713504Y-97402807D01*
X140768747Y-97572829D01*
X140768750Y-97572835D01*
X140858141Y-97727665D01*
X140899812Y-97773946D01*
X140977764Y-97860521D01*
X140977767Y-97860523D01*
X140977770Y-97860526D01*
X141122407Y-97965612D01*
X141285733Y-98038329D01*
X141460609Y-98075500D01*
X141460610Y-98075500D01*
X141639389Y-98075500D01*
X141639391Y-98075500D01*
X141814267Y-98038329D01*
X141977593Y-97965612D01*
X142122230Y-97860526D01*
X142241859Y-97727665D01*
X142331250Y-97572835D01*
X142386497Y-97402803D01*
X142405185Y-97225000D01*
X142386497Y-97047197D01*
X142331250Y-96877165D01*
X142241859Y-96722335D01*
X142195003Y-96670296D01*
X142122235Y-96589478D01*
X142122232Y-96589476D01*
X142122231Y-96589475D01*
X142122230Y-96589474D01*
X141977593Y-96484388D01*
X141814267Y-96411671D01*
X141814265Y-96411670D01*
X141685906Y-96384387D01*
X141639391Y-96374500D01*
X141460609Y-96374500D01*
X141429954Y-96381015D01*
X141285733Y-96411670D01*
X141285728Y-96411672D01*
X141122408Y-96484387D01*
X140977768Y-96589475D01*
X140858140Y-96722336D01*
X140768750Y-96877164D01*
X140768747Y-96877170D01*
X140713504Y-97047192D01*
X140713503Y-97047194D01*
X140694815Y-97225000D01*
X140294674Y-97225000D01*
X140305185Y-97125000D01*
X140286497Y-96947197D01*
X140231250Y-96777165D01*
X140141859Y-96622335D01*
X140066849Y-96539028D01*
X140022235Y-96489478D01*
X140022232Y-96489476D01*
X140022231Y-96489475D01*
X140022230Y-96489474D01*
X139877593Y-96384388D01*
X139714267Y-96311671D01*
X139714265Y-96311670D01*
X139586594Y-96284533D01*
X139539391Y-96274500D01*
X139360609Y-96274500D01*
X139329954Y-96281015D01*
X139185733Y-96311670D01*
X139185728Y-96311672D01*
X139022408Y-96384387D01*
X138877768Y-96489475D01*
X138866149Y-96502380D01*
X138806662Y-96539028D01*
X138736805Y-96537697D01*
X138678757Y-96498810D01*
X138650948Y-96434713D01*
X138650000Y-96419407D01*
X138650000Y-95624500D01*
X144194815Y-95624500D01*
X144213503Y-95802305D01*
X144213504Y-95802307D01*
X144268747Y-95972329D01*
X144268750Y-95972335D01*
X144358141Y-96127165D01*
X144365575Y-96135421D01*
X144477764Y-96260021D01*
X144477767Y-96260023D01*
X144477770Y-96260026D01*
X144622407Y-96365112D01*
X144785733Y-96437829D01*
X144960609Y-96475000D01*
X144960610Y-96475000D01*
X145139389Y-96475000D01*
X145139391Y-96475000D01*
X145314267Y-96437829D01*
X145477593Y-96365112D01*
X145609793Y-96269061D01*
X145675599Y-96245581D01*
X145743653Y-96261406D01*
X145792348Y-96311511D01*
X145805999Y-96356415D01*
X145813503Y-96427803D01*
X145813504Y-96427805D01*
X145813504Y-96427807D01*
X145868747Y-96597829D01*
X145868750Y-96597835D01*
X145958141Y-96752665D01*
X145999812Y-96798946D01*
X146077764Y-96885521D01*
X146077767Y-96885523D01*
X146077770Y-96885526D01*
X146222407Y-96990612D01*
X146385733Y-97063329D01*
X146385735Y-97063329D01*
X146385736Y-97063330D01*
X146440641Y-97075000D01*
X146535786Y-97095223D01*
X146597267Y-97128415D01*
X146631044Y-97189578D01*
X146633325Y-97203549D01*
X146638502Y-97252796D01*
X146638504Y-97252807D01*
X146693747Y-97422829D01*
X146693750Y-97422835D01*
X146783141Y-97577665D01*
X146808926Y-97606302D01*
X146902764Y-97710521D01*
X146902767Y-97710523D01*
X146902770Y-97710526D01*
X147047407Y-97815612D01*
X147210733Y-97888329D01*
X147385609Y-97925500D01*
X147385610Y-97925500D01*
X147564389Y-97925500D01*
X147564391Y-97925500D01*
X147684359Y-97900000D01*
X154869815Y-97900000D01*
X154888503Y-98077805D01*
X154888504Y-98077807D01*
X154943747Y-98247829D01*
X154943750Y-98247835D01*
X155033141Y-98402665D01*
X155070659Y-98444333D01*
X155152764Y-98535521D01*
X155152767Y-98535523D01*
X155152770Y-98535526D01*
X155297407Y-98640612D01*
X155460733Y-98713329D01*
X155635609Y-98750500D01*
X155635610Y-98750500D01*
X155814389Y-98750500D01*
X155814391Y-98750500D01*
X155989267Y-98713329D01*
X156152593Y-98640612D01*
X156297230Y-98535526D01*
X156309558Y-98521835D01*
X156323148Y-98506741D01*
X156416859Y-98402665D01*
X156506250Y-98247835D01*
X156561497Y-98077803D01*
X156580185Y-97900000D01*
X156561497Y-97722197D01*
X156522659Y-97602665D01*
X156506252Y-97552170D01*
X156506249Y-97552164D01*
X156416859Y-97397335D01*
X156370003Y-97345296D01*
X156297235Y-97264478D01*
X156297232Y-97264476D01*
X156297231Y-97264475D01*
X156297230Y-97264474D01*
X156152593Y-97159388D01*
X155989267Y-97086671D01*
X155989265Y-97086670D01*
X155861594Y-97059533D01*
X155814391Y-97049500D01*
X155635609Y-97049500D01*
X155604954Y-97056015D01*
X155460733Y-97086670D01*
X155460728Y-97086672D01*
X155297408Y-97159387D01*
X155152768Y-97264475D01*
X155033140Y-97397336D01*
X154943750Y-97552164D01*
X154943747Y-97552170D01*
X154888504Y-97722192D01*
X154888503Y-97722194D01*
X154869815Y-97900000D01*
X147684359Y-97900000D01*
X147739267Y-97888329D01*
X147902593Y-97815612D01*
X148047230Y-97710526D01*
X148166859Y-97577665D01*
X148256250Y-97422835D01*
X148311497Y-97252803D01*
X148330185Y-97075000D01*
X148311497Y-96897197D01*
X148272496Y-96777164D01*
X148256252Y-96727170D01*
X148256249Y-96727164D01*
X148195726Y-96622335D01*
X148166859Y-96572335D01*
X148092254Y-96489478D01*
X148047235Y-96439478D01*
X148047232Y-96439476D01*
X148047231Y-96439475D01*
X148047230Y-96439474D01*
X147902593Y-96334388D01*
X147739267Y-96261671D01*
X147739265Y-96261670D01*
X147589213Y-96229776D01*
X147527731Y-96196584D01*
X147493955Y-96135421D01*
X147491674Y-96121458D01*
X147486497Y-96072197D01*
X147443742Y-95940612D01*
X147431252Y-95902170D01*
X147431249Y-95902164D01*
X147373597Y-95802307D01*
X147341859Y-95747335D01*
X147295003Y-95695296D01*
X147222235Y-95614478D01*
X147222232Y-95614476D01*
X147222231Y-95614475D01*
X147222230Y-95614474D01*
X147077593Y-95509388D01*
X146914267Y-95436671D01*
X146914265Y-95436670D01*
X146786594Y-95409533D01*
X146739391Y-95399500D01*
X146560609Y-95399500D01*
X146529954Y-95406015D01*
X146385733Y-95436670D01*
X146385728Y-95436672D01*
X146222408Y-95509388D01*
X146222403Y-95509390D01*
X146090205Y-95605438D01*
X146024399Y-95628918D01*
X145956345Y-95613092D01*
X145907650Y-95562986D01*
X145894000Y-95518085D01*
X145886497Y-95446697D01*
X145831250Y-95276665D01*
X145741859Y-95121835D01*
X145695003Y-95069796D01*
X145622235Y-94988978D01*
X145622232Y-94988976D01*
X145622231Y-94988975D01*
X145622230Y-94988974D01*
X145477593Y-94883888D01*
X145314267Y-94811171D01*
X145314265Y-94811170D01*
X145186594Y-94784033D01*
X145139391Y-94774000D01*
X144960609Y-94774000D01*
X144929954Y-94780515D01*
X144785733Y-94811170D01*
X144785728Y-94811172D01*
X144622408Y-94883887D01*
X144477768Y-94988975D01*
X144358140Y-95121836D01*
X144268750Y-95276664D01*
X144268747Y-95276670D01*
X144213504Y-95446692D01*
X144213503Y-95446694D01*
X144194815Y-95624500D01*
X138650000Y-95624500D01*
X138650000Y-93294913D01*
X138669685Y-93227874D01*
X138722489Y-93182119D01*
X138748214Y-93173624D01*
X138914267Y-93138329D01*
X139077593Y-93065612D01*
X139222230Y-92960526D01*
X139235843Y-92945408D01*
X139248148Y-92931741D01*
X139341859Y-92827665D01*
X139431250Y-92672835D01*
X139486497Y-92502803D01*
X139505185Y-92325000D01*
X139486497Y-92147197D01*
X139431250Y-91977165D01*
X139341859Y-91822335D01*
X139295003Y-91770296D01*
X139222235Y-91689478D01*
X139222232Y-91689476D01*
X139222231Y-91689475D01*
X139222230Y-91689474D01*
X139133490Y-91625000D01*
X140894815Y-91625000D01*
X140913503Y-91802805D01*
X140913504Y-91802807D01*
X140968747Y-91972829D01*
X140968750Y-91972835D01*
X141058141Y-92127665D01*
X141075728Y-92147197D01*
X141177764Y-92260521D01*
X141177767Y-92260523D01*
X141177770Y-92260526D01*
X141322407Y-92365612D01*
X141485733Y-92438329D01*
X141660609Y-92475500D01*
X141660610Y-92475500D01*
X141839389Y-92475500D01*
X141839391Y-92475500D01*
X142014267Y-92438329D01*
X142177593Y-92365612D01*
X142322230Y-92260526D01*
X142441859Y-92127665D01*
X142531250Y-91972835D01*
X142586497Y-91802803D01*
X142589419Y-91775000D01*
X144769815Y-91775000D01*
X144788503Y-91952805D01*
X144788504Y-91952807D01*
X144843747Y-92122829D01*
X144843750Y-92122835D01*
X144933141Y-92277665D01*
X144974812Y-92323946D01*
X145052764Y-92410521D01*
X145052767Y-92410523D01*
X145052770Y-92410526D01*
X145197407Y-92515612D01*
X145360733Y-92588329D01*
X145535609Y-92625500D01*
X145535610Y-92625500D01*
X145714389Y-92625500D01*
X145714391Y-92625500D01*
X145889267Y-92588329D01*
X146052593Y-92515612D01*
X146197230Y-92410526D01*
X146316859Y-92277665D01*
X146406250Y-92122835D01*
X146461497Y-91952803D01*
X146480185Y-91775000D01*
X146461497Y-91597197D01*
X146411455Y-91443184D01*
X146406252Y-91427170D01*
X146406249Y-91427164D01*
X146316859Y-91272335D01*
X146259375Y-91208493D01*
X146197235Y-91139478D01*
X146197232Y-91139476D01*
X146197231Y-91139475D01*
X146197230Y-91139474D01*
X146052593Y-91034388D01*
X145889267Y-90961671D01*
X145889265Y-90961670D01*
X145761594Y-90934533D01*
X145714391Y-90924500D01*
X145535609Y-90924500D01*
X145504954Y-90931015D01*
X145360733Y-90961670D01*
X145360728Y-90961672D01*
X145197408Y-91034387D01*
X145052768Y-91139475D01*
X144933140Y-91272336D01*
X144843750Y-91427164D01*
X144843747Y-91427170D01*
X144788504Y-91597192D01*
X144788503Y-91597194D01*
X144769815Y-91775000D01*
X142589419Y-91775000D01*
X142605185Y-91625000D01*
X142586497Y-91447197D01*
X142555124Y-91350642D01*
X142531252Y-91277170D01*
X142531249Y-91277164D01*
X142451755Y-91139476D01*
X142441859Y-91122335D01*
X142395003Y-91070296D01*
X142322235Y-90989478D01*
X142322232Y-90989476D01*
X142322231Y-90989475D01*
X142322230Y-90989474D01*
X142177593Y-90884388D01*
X142014267Y-90811671D01*
X142014265Y-90811670D01*
X141886594Y-90784533D01*
X141839391Y-90774500D01*
X141660609Y-90774500D01*
X141629954Y-90781015D01*
X141485733Y-90811670D01*
X141485728Y-90811672D01*
X141322408Y-90884387D01*
X141177768Y-90989475D01*
X141058140Y-91122336D01*
X140968750Y-91277164D01*
X140968747Y-91277170D01*
X140913504Y-91447192D01*
X140913503Y-91447194D01*
X140894815Y-91625000D01*
X139133490Y-91625000D01*
X139077593Y-91584388D01*
X138914267Y-91511671D01*
X138914265Y-91511670D01*
X138914264Y-91511670D01*
X138748219Y-91476376D01*
X138686737Y-91443184D01*
X138652961Y-91382020D01*
X138650000Y-91355086D01*
X138650000Y-88400000D01*
X139019815Y-88400000D01*
X139038503Y-88577805D01*
X139038504Y-88577807D01*
X139093747Y-88747829D01*
X139093750Y-88747835D01*
X139183141Y-88902665D01*
X139201001Y-88922500D01*
X139302764Y-89035521D01*
X139302767Y-89035523D01*
X139302770Y-89035526D01*
X139447407Y-89140612D01*
X139610733Y-89213329D01*
X139785609Y-89250500D01*
X139785610Y-89250500D01*
X139964389Y-89250500D01*
X139964391Y-89250500D01*
X140139267Y-89213329D01*
X140302593Y-89140612D01*
X140447230Y-89035526D01*
X140566859Y-88902665D01*
X140656250Y-88747835D01*
X140711497Y-88577803D01*
X140724930Y-88450000D01*
X148569815Y-88450000D01*
X148588503Y-88627805D01*
X148588504Y-88627807D01*
X148643747Y-88797829D01*
X148643750Y-88797835D01*
X148733141Y-88952665D01*
X148762125Y-88984855D01*
X148852764Y-89085521D01*
X148852767Y-89085523D01*
X148852770Y-89085526D01*
X148997407Y-89190612D01*
X149160733Y-89263329D01*
X149335609Y-89300500D01*
X149335610Y-89300500D01*
X149514389Y-89300500D01*
X149514391Y-89300500D01*
X149689267Y-89263329D01*
X149852593Y-89190612D01*
X149997230Y-89085526D01*
X150116859Y-88952665D01*
X150206250Y-88797835D01*
X150261497Y-88627803D01*
X150280185Y-88450000D01*
X150261497Y-88272197D01*
X150206250Y-88102165D01*
X150116859Y-87947335D01*
X150043096Y-87865413D01*
X149997235Y-87814478D01*
X149997232Y-87814476D01*
X149997231Y-87814475D01*
X149997230Y-87814474D01*
X149852593Y-87709388D01*
X149689267Y-87636671D01*
X149689265Y-87636670D01*
X149561594Y-87609533D01*
X149514391Y-87599500D01*
X149335609Y-87599500D01*
X149304954Y-87606015D01*
X149160733Y-87636670D01*
X149160728Y-87636672D01*
X148997408Y-87709387D01*
X148852768Y-87814475D01*
X148733140Y-87947336D01*
X148643750Y-88102164D01*
X148643747Y-88102170D01*
X148588504Y-88272192D01*
X148588503Y-88272194D01*
X148569815Y-88450000D01*
X140724930Y-88450000D01*
X140730185Y-88400000D01*
X140711497Y-88222197D01*
X140656250Y-88052165D01*
X140566859Y-87897335D01*
X140492254Y-87814478D01*
X140447235Y-87764478D01*
X140447232Y-87764476D01*
X140447231Y-87764475D01*
X140447230Y-87764474D01*
X140302593Y-87659388D01*
X140139267Y-87586671D01*
X140139265Y-87586670D01*
X140011594Y-87559533D01*
X139964391Y-87549500D01*
X139785609Y-87549500D01*
X139754954Y-87556015D01*
X139610733Y-87586670D01*
X139610728Y-87586672D01*
X139447408Y-87659387D01*
X139302768Y-87764475D01*
X139183140Y-87897336D01*
X139093750Y-88052164D01*
X139093747Y-88052170D01*
X139038504Y-88222192D01*
X139038503Y-88222194D01*
X139019815Y-88400000D01*
X138650000Y-88400000D01*
X138650000Y-85676927D01*
X138669685Y-85609888D01*
X138686999Y-85588571D01*
X140275072Y-84025000D01*
X142444815Y-84025000D01*
X142463503Y-84202805D01*
X142463504Y-84202807D01*
X142518747Y-84372829D01*
X142518750Y-84372835D01*
X142608141Y-84527665D01*
X142649812Y-84573946D01*
X142727764Y-84660521D01*
X142727767Y-84660523D01*
X142727770Y-84660526D01*
X142872407Y-84765612D01*
X143035733Y-84838329D01*
X143210609Y-84875500D01*
X143210610Y-84875500D01*
X143389389Y-84875500D01*
X143389391Y-84875500D01*
X143564267Y-84838329D01*
X143727593Y-84765612D01*
X143872230Y-84660526D01*
X143991859Y-84527665D01*
X144081250Y-84372835D01*
X144136497Y-84202803D01*
X144155185Y-84025000D01*
X144136792Y-83850000D01*
X151944815Y-83850000D01*
X151963503Y-84027805D01*
X151963504Y-84027807D01*
X152018747Y-84197829D01*
X152018750Y-84197835D01*
X152108141Y-84352665D01*
X152149812Y-84398946D01*
X152227764Y-84485521D01*
X152227767Y-84485523D01*
X152227770Y-84485526D01*
X152372407Y-84590612D01*
X152535733Y-84663329D01*
X152710609Y-84700500D01*
X152710610Y-84700500D01*
X152889389Y-84700500D01*
X152889391Y-84700500D01*
X153064267Y-84663329D01*
X153227593Y-84590612D01*
X153372230Y-84485526D01*
X153491859Y-84352665D01*
X153581250Y-84197835D01*
X153636497Y-84027803D01*
X153655185Y-83850000D01*
X153636497Y-83672197D01*
X153581250Y-83502165D01*
X153491859Y-83347335D01*
X153435180Y-83284387D01*
X153372235Y-83214478D01*
X153372232Y-83214476D01*
X153372231Y-83214475D01*
X153372230Y-83214474D01*
X153227593Y-83109388D01*
X153064267Y-83036671D01*
X153064265Y-83036670D01*
X152936594Y-83009533D01*
X152889391Y-82999500D01*
X152710609Y-82999500D01*
X152679954Y-83006015D01*
X152535733Y-83036670D01*
X152535728Y-83036672D01*
X152372408Y-83109387D01*
X152227768Y-83214475D01*
X152108140Y-83347336D01*
X152018750Y-83502164D01*
X152018747Y-83502170D01*
X151963504Y-83672192D01*
X151963503Y-83672194D01*
X151944815Y-83850000D01*
X144136792Y-83850000D01*
X144136497Y-83847197D01*
X144094656Y-83718425D01*
X144081252Y-83677170D01*
X144081249Y-83677164D01*
X143991859Y-83522335D01*
X143945003Y-83470296D01*
X143872235Y-83389478D01*
X143872232Y-83389476D01*
X143872231Y-83389475D01*
X143872230Y-83389474D01*
X143727593Y-83284388D01*
X143564267Y-83211671D01*
X143564265Y-83211670D01*
X143436594Y-83184533D01*
X143389391Y-83174500D01*
X143210609Y-83174500D01*
X143179954Y-83181015D01*
X143035733Y-83211670D01*
X143035728Y-83211672D01*
X142872408Y-83284387D01*
X142727768Y-83389475D01*
X142608140Y-83522336D01*
X142518750Y-83677164D01*
X142518747Y-83677170D01*
X142463504Y-83847192D01*
X142463503Y-83847194D01*
X142444815Y-84025000D01*
X140275072Y-84025000D01*
X142150000Y-82179000D01*
X142150000Y-80525000D01*
X146369815Y-80525000D01*
X146388503Y-80702805D01*
X146388504Y-80702807D01*
X146443747Y-80872829D01*
X146443750Y-80872835D01*
X146533141Y-81027665D01*
X146558803Y-81056165D01*
X146652764Y-81160521D01*
X146652767Y-81160523D01*
X146652770Y-81160526D01*
X146797407Y-81265612D01*
X146960733Y-81338329D01*
X147135609Y-81375500D01*
X147135610Y-81375500D01*
X147314389Y-81375500D01*
X147314391Y-81375500D01*
X147489267Y-81338329D01*
X147652593Y-81265612D01*
X147797230Y-81160526D01*
X147916859Y-81027665D01*
X148001304Y-80881402D01*
X148006248Y-80872839D01*
X148006248Y-80872837D01*
X148006250Y-80872835D01*
X148026610Y-80810172D01*
X148066044Y-80752501D01*
X148130402Y-80725302D01*
X148157514Y-80725174D01*
X148160606Y-80725499D01*
X148160609Y-80725500D01*
X148160612Y-80725500D01*
X148339389Y-80725500D01*
X148339391Y-80725500D01*
X148514267Y-80688329D01*
X148677593Y-80615612D01*
X148822230Y-80510526D01*
X148941859Y-80377665D01*
X149031250Y-80222835D01*
X149086497Y-80052803D01*
X149105185Y-79875000D01*
X149086497Y-79697197D01*
X149037482Y-79546344D01*
X149031252Y-79527170D01*
X149031249Y-79527164D01*
X148941859Y-79372335D01*
X148895003Y-79320296D01*
X148822235Y-79239478D01*
X148822232Y-79239476D01*
X148822231Y-79239475D01*
X148822230Y-79239474D01*
X148677593Y-79134388D01*
X148514267Y-79061671D01*
X148514265Y-79061670D01*
X148386594Y-79034533D01*
X148339391Y-79024500D01*
X148160609Y-79024500D01*
X148129954Y-79031015D01*
X147985733Y-79061670D01*
X147985728Y-79061672D01*
X147822408Y-79134387D01*
X147677768Y-79239475D01*
X147558140Y-79372336D01*
X147468750Y-79527164D01*
X147468748Y-79527168D01*
X147448390Y-79589825D01*
X147408952Y-79647500D01*
X147344593Y-79674698D01*
X147317494Y-79674826D01*
X147314393Y-79674500D01*
X147314391Y-79674500D01*
X147135609Y-79674500D01*
X147104954Y-79681015D01*
X146960733Y-79711670D01*
X146960728Y-79711672D01*
X146797408Y-79784387D01*
X146652768Y-79889475D01*
X146533140Y-80022336D01*
X146443750Y-80177164D01*
X146443747Y-80177170D01*
X146388504Y-80347192D01*
X146388503Y-80347194D01*
X146369815Y-80525000D01*
X142150000Y-80525000D01*
X142150000Y-73410500D01*
X142169685Y-73343461D01*
X142222489Y-73297706D01*
X142274000Y-73286500D01*
X150403060Y-73286500D01*
X150470099Y-73306185D01*
G37*
%TD.AperFunction*%
%TD*%
M02*
