  0
SECTION
  2
HEADER
  9
$ANGBASE
  50
0.0
  9
$ANGDIR
  70
1
  9
$MEASUREMENT
  70
1
  0
ENDSEC
  0
SECTION
  2
TABLES
  0
TABLE
  2
LTYPE
  70
4
  0
LTYPE
  5
40F
  2
CONTINUOUS
  70
0
  3
Solid line
  72
65
  73
0
  40
0.0
  0
LTYPE
  5
410
  2
DASHDOT
 70
0
  3
Dash Dot ____ _ ____ _
 72
65
 73
4
 40
2.0
 49
1.25
 49
-0.25
 49
0.25
 49
-0.25
  0
LTYPE
  5
411
  2
DASHED
 70
0
  3
Dashed __ __ __ __ __
 72
65
 73
2
 40
0.75
 49
0.5
 49
-0.25
  0
LTYPE
  5
43B
  2
DOTTED
 70
0
  3
Dotted .  .  .  .
 72
65
 73
2
 40
0.2
 49
0.0
 49
-0.2
  0
ENDTAB
  0
TABLE
  2
STYLE
  70
4
  0
STYLE
  2
KICAD
  70
0
  40
0
  41
1
  42
1
  50
0
  71
0
  3
isocp.shx
  0
STYLE
  2
KICADB
  70
0
  40
0
  41
1
  42
1
  50
0
  71
0
  3
isocp.shx
  0
STYLE
  2
KICADI
  70
0
  40
0
  41
1
  42
1
  50
15
  71
0
  3
isocp.shx
  0
STYLE
  2
KICADBI
  70
0
  40
0
  41
1
  42
1
  50
15
  71
0
  3
isocp.shx
  0
ENDTAB
  0
TABLE
  2
LAYER
  70
1
  0
LAYER
  2
BLACK
  70
0
  62
7
  6
CONTINUOUS
  0
ENDTAB
  0
ENDSEC
  0
SECTION
  2
ENTITIES
0
LINE
8
BLACK
6
CONTINUOUS
10
119.8
20
-73.286
11
167
21
-73.286
0
LINE
8
BLACK
6
CONTINUOUS
10
117.5
20
-128.15
11
117.5
21
-75.6
0
LINE
8
BLACK
6
CONTINUOUS
10
167
20
-128.15
11
117.5
21
-128.15
0
LINE
8
BLACK
6
CONTINUOUS
10
117.5
20
-75.6
11
119.8
21
-73.286
0
LINE
8
BLACK
6
CONTINUOUS
10
167
20
-73.286
11
167
21
-128.15
0
LINE
8
BLACK
6
CONTINUOUS
10
123.25
20
-122.154
11
123.55
21
-122.454
0
LINE
8
BLACK
6
CONTINUOUS
10
123.55
20
-122.154
11
123.25
21
-122.454
0
LINE
8
BLACK
6
CONTINUOUS
10
124.7
20
-81.254
11
125
21
-81.554
0
LINE
8
BLACK
6
CONTINUOUS
10
125
20
-81.254
11
124.7
21
-81.554
0
LINE
8
BLACK
6
CONTINUOUS
10
124.75
20
-75.904
11
125.05
21
-76.204
0
LINE
8
BLACK
6
CONTINUOUS
10
125.05
20
-75.904
11
124.75
21
-76.204
0
LINE
8
BLACK
6
CONTINUOUS
10
125.2
20
-124.654
11
125.5
21
-124.954
0
LINE
8
BLACK
6
CONTINUOUS
10
125.5
20
-124.654
11
125.2
21
-124.954
0
LINE
8
BLACK
6
CONTINUOUS
10
125.2
20
-125.479
11
125.5
21
-125.779
0
LINE
8
BLACK
6
CONTINUOUS
10
125.5
20
-125.479
11
125.2
21
-125.779
0
LINE
8
BLACK
6
CONTINUOUS
10
125.2
20
-126.304
11
125.5
21
-126.604
0
LINE
8
BLACK
6
CONTINUOUS
10
125.5
20
-126.304
11
125.2
21
-126.604
0
LINE
8
BLACK
6
CONTINUOUS
10
126.25
20
-118.054
11
126.55
21
-118.354
0
LINE
8
BLACK
6
CONTINUOUS
10
126.55
20
-118.054
11
126.25
21
-118.354
0
LINE
8
BLACK
6
CONTINUOUS
10
126.25
20
-120.654
11
126.55
21
-120.954
0
LINE
8
BLACK
6
CONTINUOUS
10
126.55
20
-120.654
11
126.25
21
-120.954
0
LINE
8
BLACK
6
CONTINUOUS
10
127.075
20
-98.975
11
127.375
21
-99.275
0
LINE
8
BLACK
6
CONTINUOUS
10
127.375
20
-98.975
11
127.075
21
-99.275
0
LINE
8
BLACK
6
CONTINUOUS
10
127.5
20
-96.95
11
127.8
21
-97.25
0
LINE
8
BLACK
6
CONTINUOUS
10
127.8
20
-96.95
11
127.5
21
-97.25
0
LINE
8
BLACK
6
CONTINUOUS
10
127.7
20
-81.654
11
128
21
-81.954
0
LINE
8
BLACK
6
CONTINUOUS
10
128
20
-81.654
11
127.7
21
-81.954
0
LINE
8
BLACK
6
CONTINUOUS
10
128.45
20
-104.804
11
128.75
21
-105.104
0
LINE
8
BLACK
6
CONTINUOUS
10
128.75
20
-104.804
11
128.45
21
-105.104
0
LINE
8
BLACK
6
CONTINUOUS
10
128.65
20
-95.05
11
128.95
21
-95.35
0
LINE
8
BLACK
6
CONTINUOUS
10
128.95
20
-95.05
11
128.65
21
-95.35
0
LINE
8
BLACK
6
CONTINUOUS
10
129.65
20
-74.904
11
129.95
21
-75.204
0
LINE
8
BLACK
6
CONTINUOUS
10
129.95
20
-74.904
11
129.65
21
-75.204
0
LINE
8
BLACK
6
CONTINUOUS
10
130.194
20
-104.725
11
130.494
21
-105.025
0
LINE
8
BLACK
6
CONTINUOUS
10
130.494
20
-104.725
11
130.194
21
-105.025
0
LINE
8
BLACK
6
CONTINUOUS
10
130.878
20
-91.3784
11
131.178
21
-91.6784
0
LINE
8
BLACK
6
CONTINUOUS
10
131.178
20
-91.3784
11
130.878
21
-91.6784
0
LINE
8
BLACK
6
CONTINUOUS
10
132.237
20
-89.837
11
132.537
21
-90.137
0
LINE
8
BLACK
6
CONTINUOUS
10
132.537
20
-89.837
11
132.237
21
-90.137
0
LINE
8
BLACK
6
CONTINUOUS
10
132.787
20
-108.654
11
133.087
21
-108.954
0
LINE
8
BLACK
6
CONTINUOUS
10
133.087
20
-108.654
11
132.787
21
-108.954
0
LINE
8
BLACK
6
CONTINUOUS
10
132.95
20
-117.647
11
133.25
21
-117.947
0
LINE
8
BLACK
6
CONTINUOUS
10
133.25
20
-117.647
11
132.95
21
-117.947
0
LINE
8
BLACK
6
CONTINUOUS
10
133.35
20
-115.147
11
133.65
21
-115.447
0
LINE
8
BLACK
6
CONTINUOUS
10
133.65
20
-115.147
11
133.35
21
-115.447
0
LINE
8
BLACK
6
CONTINUOUS
10
133.55
20
-88.75
11
133.85
21
-89.05
0
LINE
8
BLACK
6
CONTINUOUS
10
133.85
20
-88.75
11
133.55
21
-89.05
0
LINE
8
BLACK
6
CONTINUOUS
10
133.75
20
-85.854
11
134.05
21
-86.154
0
LINE
8
BLACK
6
CONTINUOUS
10
134.05
20
-85.854
11
133.75
21
-86.154
0
LINE
8
BLACK
6
CONTINUOUS
10
134.1
20
-105.625
11
134.4
21
-105.925
0
LINE
8
BLACK
6
CONTINUOUS
10
134.4
20
-105.625
11
134.1
21
-105.925
0
LINE
8
BLACK
6
CONTINUOUS
10
134.9
20
-73.954
11
135.2
21
-74.254
0
LINE
8
BLACK
6
CONTINUOUS
10
135.2
20
-73.954
11
134.9
21
-74.254
0
LINE
8
BLACK
6
CONTINUOUS
10
135.25
20
-102.625
11
135.55
21
-102.925
0
LINE
8
BLACK
6
CONTINUOUS
10
135.55
20
-102.625
11
135.25
21
-102.925
0
LINE
8
BLACK
6
CONTINUOUS
10
135.85
20
-83.554
11
136.15
21
-83.854
0
LINE
8
BLACK
6
CONTINUOUS
10
136.15
20
-83.554
11
135.85
21
-83.854
0
LINE
8
BLACK
6
CONTINUOUS
10
136.55
20
-100.45
11
136.85
21
-100.75
0
LINE
8
BLACK
6
CONTINUOUS
10
136.85
20
-100.45
11
136.55
21
-100.75
0
LINE
8
BLACK
6
CONTINUOUS
10
137.075
20
-85.925
11
137.375
21
-86.225
0
LINE
8
BLACK
6
CONTINUOUS
10
137.375
20
-85.925
11
137.075
21
-86.225
0
LINE
8
BLACK
6
CONTINUOUS
10
137.575
20
-98.5255
11
137.875
21
-98.8255
0
LINE
8
BLACK
6
CONTINUOUS
10
137.875
20
-98.5255
11
137.575
21
-98.8255
0
LINE
8
BLACK
6
CONTINUOUS
10
137.6
20
-96.975
11
137.9
21
-97.275
0
LINE
8
BLACK
6
CONTINUOUS
10
137.9
20
-96.975
11
137.6
21
-97.275
0
LINE
8
BLACK
6
CONTINUOUS
10
137.6
20
-117.647
11
137.9
21
-117.947
0
LINE
8
BLACK
6
CONTINUOUS
10
137.9
20
-117.647
11
137.6
21
-117.947
0
LINE
8
BLACK
6
CONTINUOUS
10
137.687
20
-108.654
11
137.987
21
-108.954
0
LINE
8
BLACK
6
CONTINUOUS
10
137.987
20
-108.654
11
137.687
21
-108.954
0
LINE
8
BLACK
6
CONTINUOUS
10
138.2
20
-79.004
11
138.5
21
-79.304
0
LINE
8
BLACK
6
CONTINUOUS
10
138.5
20
-79.004
11
138.2
21
-79.304
0
LINE
8
BLACK
6
CONTINUOUS
10
138.5
20
-92.175
11
138.8
21
-92.475
0
LINE
8
BLACK
6
CONTINUOUS
10
138.8
20
-92.175
11
138.5
21
-92.475
0
LINE
8
BLACK
6
CONTINUOUS
10
139.25
20
-97.975
11
139.55
21
-98.275
0
LINE
8
BLACK
6
CONTINUOUS
10
139.55
20
-97.975
11
139.25
21
-98.275
0
LINE
8
BLACK
6
CONTINUOUS
10
139.3
20
-96.975
11
139.6
21
-97.275
0
LINE
8
BLACK
6
CONTINUOUS
10
139.6
20
-96.975
11
139.3
21
-97.275
0
LINE
8
BLACK
6
CONTINUOUS
10
139.325
20
-100.35
11
139.625
21
-100.65
0
LINE
8
BLACK
6
CONTINUOUS
10
139.625
20
-100.35
11
139.325
21
-100.65
0
LINE
8
BLACK
6
CONTINUOUS
10
139.725
20
-88.25
11
140.025
21
-88.55
0
LINE
8
BLACK
6
CONTINUOUS
10
140.025
20
-88.25
11
139.725
21
-88.55
0
LINE
8
BLACK
6
CONTINUOUS
10
139.9
20
-79.004
11
140.2
21
-79.304
0
LINE
8
BLACK
6
CONTINUOUS
10
140.2
20
-79.004
11
139.9
21
-79.304
0
LINE
8
BLACK
6
CONTINUOUS
10
140.075
20
-104.262
11
140.374
21
-104.562
0
LINE
8
BLACK
6
CONTINUOUS
10
140.374
20
-104.262
11
140.075
21
-104.562
0
LINE
8
BLACK
6
CONTINUOUS
10
140.3
20
-99.7
11
140.6
21
-100
0
LINE
8
BLACK
6
CONTINUOUS
10
140.6
20
-99.7
11
140.3
21
-100
0
LINE
8
BLACK
6
CONTINUOUS
10
140.689
20
-105.836
11
140.989
21
-106.136
0
LINE
8
BLACK
6
CONTINUOUS
10
140.989
20
-105.836
11
140.689
21
-106.136
0
LINE
8
BLACK
6
CONTINUOUS
10
141.4
20
-97.075
11
141.7
21
-97.375
0
LINE
8
BLACK
6
CONTINUOUS
10
141.7
20
-97.075
11
141.4
21
-97.375
0
LINE
8
BLACK
6
CONTINUOUS
10
141.6
20
-91.475
11
141.9
21
-91.775
0
LINE
8
BLACK
6
CONTINUOUS
10
141.9
20
-91.475
11
141.6
21
-91.775
0
LINE
8
BLACK
6
CONTINUOUS
10
142.325
20
-107.05
11
142.625
21
-107.35
0
LINE
8
BLACK
6
CONTINUOUS
10
142.625
20
-107.05
11
142.325
21
-107.35
0
LINE
8
BLACK
6
CONTINUOUS
10
142.9
20
-103.125
11
143.2
21
-103.425
0
LINE
8
BLACK
6
CONTINUOUS
10
143.2
20
-103.125
11
142.9
21
-103.425
0
LINE
8
BLACK
6
CONTINUOUS
10
143.125
20
-107.8
11
143.425
21
-108.1
0
LINE
8
BLACK
6
CONTINUOUS
10
143.425
20
-107.8
11
143.125
21
-108.1
0
LINE
8
BLACK
6
CONTINUOUS
10
143.15
20
-83.875
11
143.45
21
-84.175
0
LINE
8
BLACK
6
CONTINUOUS
10
143.45
20
-83.875
11
143.15
21
-84.175
0
LINE
8
BLACK
6
CONTINUOUS
10
143.175
20
-104.25
11
143.475
21
-104.55
0
LINE
8
BLACK
6
CONTINUOUS
10
143.475
20
-104.25
11
143.175
21
-104.55
0
LINE
8
BLACK
6
CONTINUOUS
10
143.435
20
-111.26
11
143.735
21
-111.56
0
LINE
8
BLACK
6
CONTINUOUS
10
143.735
20
-111.26
11
143.435
21
-111.56
0
LINE
8
BLACK
6
CONTINUOUS
10
144.325
20
-92.775
11
144.625
21
-93.075
0
LINE
8
BLACK
6
CONTINUOUS
10
144.625
20
-92.775
11
144.325
21
-93.075
0
LINE
8
BLACK
6
CONTINUOUS
10
144.576
20
-111.075
11
144.875
21
-111.375
0
LINE
8
BLACK
6
CONTINUOUS
10
144.875
20
-111.075
11
144.576
21
-111.375
0
LINE
8
BLACK
6
CONTINUOUS
10
144.9
20
-95.4745
11
145.2
21
-95.7745
0
LINE
8
BLACK
6
CONTINUOUS
10
145.2
20
-95.4745
11
144.9
21
-95.7745
0
LINE
8
BLACK
6
CONTINUOUS
10
145.05
20
-100.5
11
145.35
21
-100.8
0
LINE
8
BLACK
6
CONTINUOUS
10
145.35
20
-100.5
11
145.05
21
-100.8
0
LINE
8
BLACK
6
CONTINUOUS
10
145.119
20
-122.744
11
145.419
21
-123.044
0
LINE
8
BLACK
6
CONTINUOUS
10
145.419
20
-122.744
11
145.119
21
-123.044
0
LINE
8
BLACK
6
CONTINUOUS
10
145.3
20
-103.425
11
145.6
21
-103.725
0
LINE
8
BLACK
6
CONTINUOUS
10
145.6
20
-103.425
11
145.3
21
-103.725
0
LINE
8
BLACK
6
CONTINUOUS
10
145.475
20
-91.625
11
145.775
21
-91.925
0
LINE
8
BLACK
6
CONTINUOUS
10
145.775
20
-91.625
11
145.475
21
-91.925
0
LINE
8
BLACK
6
CONTINUOUS
10
145.725
20
-118.575
11
146.025
21
-118.875
0
LINE
8
BLACK
6
CONTINUOUS
10
146.025
20
-118.575
11
145.725
21
-118.875
0
LINE
8
BLACK
6
CONTINUOUS
10
146.047
20
-116.497
11
146.347
21
-116.797
0
LINE
8
BLACK
6
CONTINUOUS
10
146.347
20
-116.497
11
146.047
21
-116.797
0
LINE
8
BLACK
6
CONTINUOUS
10
146.475
20
-98.8745
11
146.775
21
-99.1745
0
LINE
8
BLACK
6
CONTINUOUS
10
146.775
20
-98.8745
11
146.475
21
-99.1745
0
LINE
8
BLACK
6
CONTINUOUS
10
146.5
20
-96.1
11
146.8
21
-96.4
0
LINE
8
BLACK
6
CONTINUOUS
10
146.8
20
-96.1
11
146.5
21
-96.4
0
LINE
8
BLACK
6
CONTINUOUS
10
146.75
20
-100.225
11
147.05
21
-100.525
0
LINE
8
BLACK
6
CONTINUOUS
10
147.05
20
-100.225
11
146.75
21
-100.525
0
LINE
8
BLACK
6
CONTINUOUS
10
147.075
20
-80.375
11
147.375
21
-80.675
0
LINE
8
BLACK
6
CONTINUOUS
10
147.375
20
-80.375
11
147.075
21
-80.675
0
LINE
8
BLACK
6
CONTINUOUS
10
147.325
20
-96.925
11
147.625
21
-97.225
0
LINE
8
BLACK
6
CONTINUOUS
10
147.625
20
-96.925
11
147.325
21
-97.225
0
LINE
8
BLACK
6
CONTINUOUS
10
147.55
20
-99.075
11
147.85
21
-99.375
0
LINE
8
BLACK
6
CONTINUOUS
10
147.85
20
-99.075
11
147.55
21
-99.375
0
LINE
8
BLACK
6
CONTINUOUS
10
148.1
20
-79.725
11
148.4
21
-80.025
0
LINE
8
BLACK
6
CONTINUOUS
10
148.4
20
-79.725
11
148.1
21
-80.025
0
LINE
8
BLACK
6
CONTINUOUS
10
149
20
-101.825
11
149.3
21
-102.125
0
LINE
8
BLACK
6
CONTINUOUS
10
149.3
20
-101.825
11
149
21
-102.125
0
LINE
8
BLACK
6
CONTINUOUS
10
149.275
20
-88.3
11
149.575
21
-88.6
0
LINE
8
BLACK
6
CONTINUOUS
10
149.575
20
-88.3
11
149.275
21
-88.6
0
LINE
8
BLACK
6
CONTINUOUS
10
150.175
20
-116.554
11
150.475
21
-116.854
0
LINE
8
BLACK
6
CONTINUOUS
10
150.475
20
-116.554
11
150.175
21
-116.854
0
LINE
8
BLACK
6
CONTINUOUS
10
150.75
20
-74.104
11
151.05
21
-74.404
0
LINE
8
BLACK
6
CONTINUOUS
10
151.05
20
-74.104
11
150.75
21
-74.404
0
LINE
8
BLACK
6
CONTINUOUS
10
151.575
20
-115.725
11
151.875
21
-116.025
0
LINE
8
BLACK
6
CONTINUOUS
10
151.875
20
-115.725
11
151.575
21
-116.025
0
LINE
8
BLACK
6
CONTINUOUS
10
151.775
20
-126.875
11
152.075
21
-127.175
0
LINE
8
BLACK
6
CONTINUOUS
10
152.075
20
-126.875
11
151.775
21
-127.175
0
LINE
8
BLACK
6
CONTINUOUS
10
152.65
20
-83.7
11
152.95
21
-84
0
LINE
8
BLACK
6
CONTINUOUS
10
152.95
20
-83.7
11
152.65
21
-84
0
LINE
8
BLACK
6
CONTINUOUS
10
153.2
20
-121.379
11
153.5
21
-121.679
0
LINE
8
BLACK
6
CONTINUOUS
10
153.5
20
-121.379
11
153.2
21
-121.679
0
LINE
8
BLACK
6
CONTINUOUS
10
153.6
20
-100.527
11
153.9
21
-100.827
0
LINE
8
BLACK
6
CONTINUOUS
10
153.9
20
-100.527
11
153.6
21
-100.827
0
LINE
8
BLACK
6
CONTINUOUS
10
154.575
20
-100.25
11
154.875
21
-100.55
0
LINE
8
BLACK
6
CONTINUOUS
10
154.875
20
-100.25
11
154.575
21
-100.55
0
LINE
8
BLACK
6
CONTINUOUS
10
154.7
20
-74.054
11
155
21
-74.354
0
LINE
8
BLACK
6
CONTINUOUS
10
155
20
-74.054
11
154.7
21
-74.354
0
LINE
8
BLACK
6
CONTINUOUS
10
155.575
20
-97.75
11
155.875
21
-98.05
0
LINE
8
BLACK
6
CONTINUOUS
10
155.875
20
-97.75
11
155.575
21
-98.05
0
LINE
8
BLACK
6
CONTINUOUS
10
156.15
20
-120.029
11
156.45
21
-120.329
0
LINE
8
BLACK
6
CONTINUOUS
10
156.45
20
-120.029
11
156.15
21
-120.329
0
LINE
8
BLACK
6
CONTINUOUS
10
156.675
20
-100.275
11
156.975
21
-100.575
0
LINE
8
BLACK
6
CONTINUOUS
10
156.975
20
-100.275
11
156.675
21
-100.575
0
LINE
8
BLACK
6
CONTINUOUS
10
157.575
20
-101.175
11
157.875
21
-101.475
0
LINE
8
BLACK
6
CONTINUOUS
10
157.875
20
-101.175
11
157.575
21
-101.475
0
LINE
8
BLACK
6
CONTINUOUS
10
157.75
20
-125.604
11
158.05
21
-125.904
0
LINE
8
BLACK
6
CONTINUOUS
10
158.05
20
-125.604
11
157.75
21
-125.904
0
LINE
8
BLACK
6
CONTINUOUS
10
158.55
20
-111.654
11
158.85
21
-111.954
0
LINE
8
BLACK
6
CONTINUOUS
10
158.85
20
-111.654
11
158.55
21
-111.954
0
LINE
8
BLACK
6
CONTINUOUS
10
158.55
20
-117.004
11
158.85
21
-117.304
0
LINE
8
BLACK
6
CONTINUOUS
10
158.85
20
-117.004
11
158.55
21
-117.304
0
LINE
8
BLACK
6
CONTINUOUS
10
158.725
20
-98.975
11
159.025
21
-99.275
0
LINE
8
BLACK
6
CONTINUOUS
10
159.025
20
-98.975
11
158.725
21
-99.275
0
LINE
8
BLACK
6
CONTINUOUS
10
159.562
20
-102.062
11
159.862
21
-102.362
0
LINE
8
BLACK
6
CONTINUOUS
10
159.862
20
-102.062
11
159.562
21
-102.362
0
LINE
8
BLACK
6
CONTINUOUS
10
162.2
20
-119.884
11
162.5
21
-120.184
0
LINE
8
BLACK
6
CONTINUOUS
10
162.5
20
-119.884
11
162.2
21
-120.184
0
LINE
8
BLACK
6
CONTINUOUS
10
162.2
20
-121.6
11
162.5
21
-121.9
0
LINE
8
BLACK
6
CONTINUOUS
10
162.5
20
-121.6
11
162.2
21
-121.9
0
CIRCLE
8
BLACK
10
119.38
20
-77.47
40
0.5
0
CIRCLE
8
BLACK
10
119.38
20
-80.01
40
0.5
0
CIRCLE
8
BLACK
10
119.38
20
-82.55
40
0.5
0
CIRCLE
8
BLACK
10
119.38
20
-85.09
40
0.5
0
CIRCLE
8
BLACK
10
119.38
20
-87.63
40
0.5
0
CIRCLE
8
BLACK
10
119.38
20
-90.17
40
0.5
0
CIRCLE
8
BLACK
10
119.38
20
-92.71
40
0.5
0
CIRCLE
8
BLACK
10
119.38
20
-95.25
40
0.5
0
CIRCLE
8
BLACK
10
119.38
20
-97.79
40
0.5
0
CIRCLE
8
BLACK
10
119.38
20
-100.33
40
0.5
0
CIRCLE
8
BLACK
10
119.38
20
-102.87
40
0.5
0
CIRCLE
8
BLACK
10
119.38
20
-105.41
40
0.5
0
CIRCLE
8
BLACK
10
119.38
20
-107.95
40
0.5
0
CIRCLE
8
BLACK
10
119.38
20
-110.49
40
0.5
0
CIRCLE
8
BLACK
10
119.38
20
-113.03
40
0.5
0
CIRCLE
8
BLACK
10
119.38
20
-115.57
40
0.5
0
CIRCLE
8
BLACK
10
119.38
20
-118.11
40
0.5
0
CIRCLE
8
BLACK
10
119.38
20
-120.65
40
0.5
0
CIRCLE
8
BLACK
10
119.38
20
-123.19
40
0.5
0
CIRCLE
8
BLACK
10
119.38
20
-125.73
40
0.5
0
CIRCLE
8
BLACK
10
131.85
20
-123.914
40
0.5
0
CIRCLE
8
BLACK
10
131.85
20
-126.454
40
0.5
0
CIRCLE
8
BLACK
10
134.39
20
-123.914
40
0.5
0
CIRCLE
8
BLACK
10
134.39
20
-126.454
40
0.5
0
CIRCLE
8
BLACK
10
136.93
20
-123.914
40
0.5
0
CIRCLE
8
BLACK
10
136.93
20
-126.454
40
0.5
0
CIRCLE
8
BLACK
10
139.47
20
-123.914
40
0.5
0
CIRCLE
8
BLACK
10
139.47
20
-126.454
40
0.5
0
CIRCLE
8
BLACK
10
142.01
20
-123.914
40
0.5
0
CIRCLE
8
BLACK
10
142.01
20
-126.454
40
0.5
0
CIRCLE
8
BLACK
10
165.1
20
-74.93
40
0.5
0
CIRCLE
8
BLACK
10
165.1
20
-77.47
40
0.5
0
CIRCLE
8
BLACK
10
165.1
20
-80.01
40
0.5
0
CIRCLE
8
BLACK
10
165.1
20
-82.55
40
0.5
0
CIRCLE
8
BLACK
10
165.1
20
-85.09
40
0.5
0
CIRCLE
8
BLACK
10
165.1
20
-87.63
40
0.5
0
CIRCLE
8
BLACK
10
165.1
20
-90.17
40
0.5
0
CIRCLE
8
BLACK
10
165.1
20
-92.71
40
0.5
0
CIRCLE
8
BLACK
10
165.1
20
-95.25
40
0.5
0
CIRCLE
8
BLACK
10
165.1
20
-97.79
40
0.5
0
CIRCLE
8
BLACK
10
165.1
20
-100.33
40
0.5
0
CIRCLE
8
BLACK
10
165.1
20
-102.87
40
0.5
0
CIRCLE
8
BLACK
10
165.1
20
-105.41
40
0.5
0
CIRCLE
8
BLACK
10
165.1
20
-107.95
40
0.5
0
CIRCLE
8
BLACK
10
165.1
20
-110.49
40
0.5
0
CIRCLE
8
BLACK
10
165.1
20
-113.03
40
0.5
0
CIRCLE
8
BLACK
10
165.1
20
-115.57
40
0.5
0
CIRCLE
8
BLACK
10
165.1
20
-118.11
40
0.5
0
CIRCLE
8
BLACK
10
165.1
20
-120.65
40
0.5
0
CIRCLE
8
BLACK
10
165.1
20
-123.19
40
0.5
0
CIRCLE
8
BLACK
10
165.1
20
-125.73
40
0.5
0
LINE
8
BLACK
6
CONTINUOUS
10
120.058
20
-131.315
11
120.058
21
-129.315
0
LINE
8
BLACK
6
CONTINUOUS
10
120.058
20
-129.315
11
120.534
21
-129.315
0
LINE
8
BLACK
6
CONTINUOUS
10
120.534
20
-129.315
11
120.82
21
-129.41
0
LINE
8
BLACK
6
CONTINUOUS
10
120.82
20
-129.41
11
121.01
21
-129.601
0
LINE
8
BLACK
6
CONTINUOUS
10
121.01
20
-129.601
11
121.105
21
-129.791
0
LINE
8
BLACK
6
CONTINUOUS
10
121.105
20
-129.791
11
121.201
21
-130.172
0
LINE
8
BLACK
6
CONTINUOUS
10
121.201
20
-130.172
11
121.201
21
-130.458
0
LINE
8
BLACK
6
CONTINUOUS
10
121.201
20
-130.458
11
121.105
21
-130.839
0
LINE
8
BLACK
6
CONTINUOUS
10
121.105
20
-130.839
11
121.01
21
-131.029
0
LINE
8
BLACK
6
CONTINUOUS
10
121.01
20
-131.029
11
120.82
21
-131.22
0
LINE
8
BLACK
6
CONTINUOUS
10
120.82
20
-131.22
11
120.534
21
-131.315
0
LINE
8
BLACK
6
CONTINUOUS
10
120.534
20
-131.315
11
120.058
21
-131.315
0
LINE
8
BLACK
6
CONTINUOUS
10
122.058
20
-131.315
11
122.058
21
-129.982
0
LINE
8
BLACK
6
CONTINUOUS
10
122.058
20
-130.362
11
122.153
21
-130.172
0
LINE
8
BLACK
6
CONTINUOUS
10
122.153
20
-130.172
11
122.248
21
-130.077
0
LINE
8
BLACK
6
CONTINUOUS
10
122.248
20
-130.077
11
122.439
21
-129.982
0
LINE
8
BLACK
6
CONTINUOUS
10
122.439
20
-129.982
11
122.629
21
-129.982
0
LINE
8
BLACK
6
CONTINUOUS
10
123.296
20
-131.315
11
123.296
21
-129.982
0
LINE
8
BLACK
6
CONTINUOUS
10
123.296
20
-129.315
11
123.201
21
-129.41
0
LINE
8
BLACK
6
CONTINUOUS
10
123.201
20
-129.41
11
123.296
21
-129.505
0
LINE
8
BLACK
6
CONTINUOUS
10
123.296
20
-129.505
11
123.391
21
-129.41
0
LINE
8
BLACK
6
CONTINUOUS
10
123.391
20
-129.41
11
123.296
21
-129.315
0
LINE
8
BLACK
6
CONTINUOUS
10
123.296
20
-129.315
11
123.296
21
-129.505
0
LINE
8
BLACK
6
CONTINUOUS
10
124.534
20
-131.315
11
124.343
21
-131.22
0
LINE
8
BLACK
6
CONTINUOUS
10
124.343
20
-131.22
11
124.248
21
-131.029
0
LINE
8
BLACK
6
CONTINUOUS
10
124.248
20
-131.029
11
124.248
21
-129.315
0
LINE
8
BLACK
6
CONTINUOUS
10
125.582
20
-131.315
11
125.391
21
-131.22
0
LINE
8
BLACK
6
CONTINUOUS
10
125.391
20
-131.22
11
125.296
21
-131.029
0
LINE
8
BLACK
6
CONTINUOUS
10
125.296
20
-131.029
11
125.296
21
-129.315
0
LINE
8
BLACK
6
CONTINUOUS
10
127.867
20
-131.315
11
127.867
21
-129.315
0
LINE
8
BLACK
6
CONTINUOUS
10
127.867
20
-129.315
11
128.534
21
-130.743
0
LINE
8
BLACK
6
CONTINUOUS
10
128.534
20
-130.743
11
129.201
21
-129.315
0
LINE
8
BLACK
6
CONTINUOUS
10
129.201
20
-129.315
11
129.201
21
-131.315
0
LINE
8
BLACK
6
CONTINUOUS
10
131.01
20
-131.315
11
131.01
21
-130.267
0
LINE
8
BLACK
6
CONTINUOUS
10
131.01
20
-130.267
11
130.915
21
-130.077
0
LINE
8
BLACK
6
CONTINUOUS
10
130.915
20
-130.077
11
130.724
21
-129.982
0
LINE
8
BLACK
6
CONTINUOUS
10
130.724
20
-129.982
11
130.343
21
-129.982
0
LINE
8
BLACK
6
CONTINUOUS
10
130.343
20
-129.982
11
130.153
21
-130.077
0
LINE
8
BLACK
6
CONTINUOUS
10
131.01
20
-131.22
11
130.82
21
-131.315
0
LINE
8
BLACK
6
CONTINUOUS
10
130.82
20
-131.315
11
130.343
21
-131.315
0
LINE
8
BLACK
6
CONTINUOUS
10
130.343
20
-131.315
11
130.153
21
-131.22
0
LINE
8
BLACK
6
CONTINUOUS
10
130.153
20
-131.22
11
130.058
21
-131.029
0
LINE
8
BLACK
6
CONTINUOUS
10
130.058
20
-131.029
11
130.058
21
-130.839
0
LINE
8
BLACK
6
CONTINUOUS
10
130.058
20
-130.839
11
130.153
21
-130.648
0
LINE
8
BLACK
6
CONTINUOUS
10
130.153
20
-130.648
11
130.343
21
-130.553
0
LINE
8
BLACK
6
CONTINUOUS
10
130.343
20
-130.553
11
130.82
21
-130.553
0
LINE
8
BLACK
6
CONTINUOUS
10
130.82
20
-130.553
11
131.01
21
-130.458
0
LINE
8
BLACK
6
CONTINUOUS
10
131.963
20
-129.982
11
131.963
21
-131.982
0
LINE
8
BLACK
6
CONTINUOUS
10
131.963
20
-130.077
11
132.153
21
-129.982
0
LINE
8
BLACK
6
CONTINUOUS
10
132.153
20
-129.982
11
132.534
21
-129.982
0
LINE
8
BLACK
6
CONTINUOUS
10
132.534
20
-129.982
11
132.724
21
-130.077
0
LINE
8
BLACK
6
CONTINUOUS
10
132.724
20
-130.077
11
132.82
21
-130.172
0
LINE
8
BLACK
6
CONTINUOUS
10
132.82
20
-130.172
11
132.915
21
-130.362
0
LINE
8
BLACK
6
CONTINUOUS
10
132.915
20
-130.362
11
132.915
21
-130.934
0
LINE
8
BLACK
6
CONTINUOUS
10
132.915
20
-130.934
11
132.82
21
-131.124
0
LINE
8
BLACK
6
CONTINUOUS
10
132.82
20
-131.124
11
132.724
21
-131.22
0
LINE
8
BLACK
6
CONTINUOUS
10
132.724
20
-131.22
11
132.534
21
-131.315
0
LINE
8
BLACK
6
CONTINUOUS
10
132.534
20
-131.315
11
132.153
21
-131.315
0
LINE
8
BLACK
6
CONTINUOUS
10
132.153
20
-131.315
11
131.963
21
-131.22
0
LINE
8
BLACK
6
CONTINUOUS
10
133.772
20
-131.124
11
133.867
21
-131.22
0
LINE
8
BLACK
6
CONTINUOUS
10
133.867
20
-131.22
11
133.772
21
-131.315
0
LINE
8
BLACK
6
CONTINUOUS
10
133.772
20
-131.315
11
133.677
21
-131.22
0
LINE
8
BLACK
6
CONTINUOUS
10
133.677
20
-131.22
11
133.772
21
-131.124
0
LINE
8
BLACK
6
CONTINUOUS
10
133.772
20
-131.124
11
133.772
21
-131.315
0
LINE
8
BLACK
6
CONTINUOUS
10
133.772
20
-130.077
11
133.867
21
-130.172
0
LINE
8
BLACK
6
CONTINUOUS
10
133.867
20
-130.172
11
133.772
21
-130.267
0
LINE
8
BLACK
6
CONTINUOUS
10
133.772
20
-130.267
11
133.677
21
-130.172
0
LINE
8
BLACK
6
CONTINUOUS
10
133.677
20
-130.172
11
133.772
21
-130.077
0
LINE
8
BLACK
6
CONTINUOUS
10
133.772
20
-130.077
11
133.772
21
-130.267
0
LINE
8
BLACK
6
CONTINUOUS
10
117.15
20
-134.45
11
117.45
21
-134.75
0
LINE
8
BLACK
6
CONTINUOUS
10
117.45
20
-134.45
11
117.15
21
-134.75
0
LINE
8
BLACK
6
CONTINUOUS
10
120.439
20
-133.515
11
120.629
21
-133.515
0
LINE
8
BLACK
6
CONTINUOUS
10
120.629
20
-133.515
11
120.82
21
-133.61
0
LINE
8
BLACK
6
CONTINUOUS
10
120.82
20
-133.61
11
120.915
21
-133.705
0
LINE
8
BLACK
6
CONTINUOUS
10
120.915
20
-133.705
11
121.01
21
-133.896
0
LINE
8
BLACK
6
CONTINUOUS
10
121.01
20
-133.896
11
121.105
21
-134.277
0
LINE
8
BLACK
6
CONTINUOUS
10
121.105
20
-134.277
11
121.105
21
-134.753
0
LINE
8
BLACK
6
CONTINUOUS
10
121.105
20
-134.753
11
121.01
21
-135.134
0
LINE
8
BLACK
6
CONTINUOUS
10
121.01
20
-135.134
11
120.915
21
-135.324
0
LINE
8
BLACK
6
CONTINUOUS
10
120.915
20
-135.324
11
120.82
21
-135.42
0
LINE
8
BLACK
6
CONTINUOUS
10
120.82
20
-135.42
11
120.629
21
-135.515
0
LINE
8
BLACK
6
CONTINUOUS
10
120.629
20
-135.515
11
120.439
21
-135.515
0
LINE
8
BLACK
6
CONTINUOUS
10
120.439
20
-135.515
11
120.248
21
-135.42
0
LINE
8
BLACK
6
CONTINUOUS
10
120.248
20
-135.42
11
120.153
21
-135.324
0
LINE
8
BLACK
6
CONTINUOUS
10
120.153
20
-135.324
11
120.058
21
-135.134
0
LINE
8
BLACK
6
CONTINUOUS
10
120.058
20
-135.134
11
119.963
21
-134.753
0
LINE
8
BLACK
6
CONTINUOUS
10
119.963
20
-134.753
11
119.963
21
-134.277
0
LINE
8
BLACK
6
CONTINUOUS
10
119.963
20
-134.277
11
120.058
21
-133.896
0
LINE
8
BLACK
6
CONTINUOUS
10
120.058
20
-133.896
11
120.153
21
-133.705
0
LINE
8
BLACK
6
CONTINUOUS
10
120.153
20
-133.705
11
120.248
21
-133.61
0
LINE
8
BLACK
6
CONTINUOUS
10
120.248
20
-133.61
11
120.439
21
-133.515
0
LINE
8
BLACK
6
CONTINUOUS
10
121.963
20
-135.324
11
122.058
21
-135.42
0
LINE
8
BLACK
6
CONTINUOUS
10
122.058
20
-135.42
11
121.963
21
-135.515
0
LINE
8
BLACK
6
CONTINUOUS
10
121.963
20
-135.515
11
121.867
21
-135.42
0
LINE
8
BLACK
6
CONTINUOUS
10
121.867
20
-135.42
11
121.963
21
-135.324
0
LINE
8
BLACK
6
CONTINUOUS
10
121.963
20
-135.324
11
121.963
21
-135.515
0
LINE
8
BLACK
6
CONTINUOUS
10
122.724
20
-133.515
11
123.963
21
-133.515
0
LINE
8
BLACK
6
CONTINUOUS
10
123.963
20
-133.515
11
123.296
21
-134.277
0
LINE
8
BLACK
6
CONTINUOUS
10
123.296
20
-134.277
11
123.582
21
-134.277
0
LINE
8
BLACK
6
CONTINUOUS
10
123.582
20
-134.277
11
123.772
21
-134.372
0
LINE
8
BLACK
6
CONTINUOUS
10
123.772
20
-134.372
11
123.867
21
-134.467
0
LINE
8
BLACK
6
CONTINUOUS
10
123.867
20
-134.467
11
123.963
21
-134.658
0
LINE
8
BLACK
6
CONTINUOUS
10
123.963
20
-134.658
11
123.963
21
-135.134
0
LINE
8
BLACK
6
CONTINUOUS
10
123.963
20
-135.134
11
123.867
21
-135.324
0
LINE
8
BLACK
6
CONTINUOUS
10
123.867
20
-135.324
11
123.772
21
-135.42
0
LINE
8
BLACK
6
CONTINUOUS
10
123.772
20
-135.42
11
123.582
21
-135.515
0
LINE
8
BLACK
6
CONTINUOUS
10
123.582
20
-135.515
11
123.01
21
-135.515
0
LINE
8
BLACK
6
CONTINUOUS
10
123.01
20
-135.515
11
122.82
21
-135.42
0
LINE
8
BLACK
6
CONTINUOUS
10
122.82
20
-135.42
11
122.724
21
-135.324
0
LINE
8
BLACK
6
CONTINUOUS
10
125.201
20
-133.515
11
125.391
21
-133.515
0
LINE
8
BLACK
6
CONTINUOUS
10
125.391
20
-133.515
11
125.582
21
-133.61
0
LINE
8
BLACK
6
CONTINUOUS
10
125.582
20
-133.61
11
125.677
21
-133.705
0
LINE
8
BLACK
6
CONTINUOUS
10
125.677
20
-133.705
11
125.772
21
-133.896
0
LINE
8
BLACK
6
CONTINUOUS
10
125.772
20
-133.896
11
125.867
21
-134.277
0
LINE
8
BLACK
6
CONTINUOUS
10
125.867
20
-134.277
11
125.867
21
-134.753
0
LINE
8
BLACK
6
CONTINUOUS
10
125.867
20
-134.753
11
125.772
21
-135.134
0
LINE
8
BLACK
6
CONTINUOUS
10
125.772
20
-135.134
11
125.677
21
-135.324
0
LINE
8
BLACK
6
CONTINUOUS
10
125.677
20
-135.324
11
125.582
21
-135.42
0
LINE
8
BLACK
6
CONTINUOUS
10
125.582
20
-135.42
11
125.391
21
-135.515
0
LINE
8
BLACK
6
CONTINUOUS
10
125.391
20
-135.515
11
125.201
21
-135.515
0
LINE
8
BLACK
6
CONTINUOUS
10
125.201
20
-135.515
11
125.01
21
-135.42
0
LINE
8
BLACK
6
CONTINUOUS
10
125.01
20
-135.42
11
124.915
21
-135.324
0
LINE
8
BLACK
6
CONTINUOUS
10
124.915
20
-135.324
11
124.82
21
-135.134
0
LINE
8
BLACK
6
CONTINUOUS
10
124.82
20
-135.134
11
124.724
21
-134.753
0
LINE
8
BLACK
6
CONTINUOUS
10
124.724
20
-134.753
11
124.724
21
-134.277
0
LINE
8
BLACK
6
CONTINUOUS
10
124.724
20
-134.277
11
124.82
21
-133.896
0
LINE
8
BLACK
6
CONTINUOUS
10
124.82
20
-133.896
11
124.915
21
-133.705
0
LINE
8
BLACK
6
CONTINUOUS
10
124.915
20
-133.705
11
125.01
21
-133.61
0
LINE
8
BLACK
6
CONTINUOUS
10
125.01
20
-133.61
11
125.201
21
-133.515
0
LINE
8
BLACK
6
CONTINUOUS
10
127.105
20
-133.515
11
127.296
21
-133.515
0
LINE
8
BLACK
6
CONTINUOUS
10
127.296
20
-133.515
11
127.486
21
-133.61
0
LINE
8
BLACK
6
CONTINUOUS
10
127.486
20
-133.61
11
127.582
21
-133.705
0
LINE
8
BLACK
6
CONTINUOUS
10
127.582
20
-133.705
11
127.677
21
-133.896
0
LINE
8
BLACK
6
CONTINUOUS
10
127.677
20
-133.896
11
127.772
21
-134.277
0
LINE
8
BLACK
6
CONTINUOUS
10
127.772
20
-134.277
11
127.772
21
-134.753
0
LINE
8
BLACK
6
CONTINUOUS
10
127.772
20
-134.753
11
127.677
21
-135.134
0
LINE
8
BLACK
6
CONTINUOUS
10
127.677
20
-135.134
11
127.582
21
-135.324
0
LINE
8
BLACK
6
CONTINUOUS
10
127.582
20
-135.324
11
127.486
21
-135.42
0
LINE
8
BLACK
6
CONTINUOUS
10
127.486
20
-135.42
11
127.296
21
-135.515
0
LINE
8
BLACK
6
CONTINUOUS
10
127.296
20
-135.515
11
127.105
21
-135.515
0
LINE
8
BLACK
6
CONTINUOUS
10
127.105
20
-135.515
11
126.915
21
-135.42
0
LINE
8
BLACK
6
CONTINUOUS
10
126.915
20
-135.42
11
126.82
21
-135.324
0
LINE
8
BLACK
6
CONTINUOUS
10
126.82
20
-135.324
11
126.724
21
-135.134
0
LINE
8
BLACK
6
CONTINUOUS
10
126.724
20
-135.134
11
126.629
21
-134.753
0
LINE
8
BLACK
6
CONTINUOUS
10
126.629
20
-134.753
11
126.629
21
-134.277
0
LINE
8
BLACK
6
CONTINUOUS
10
126.629
20
-134.277
11
126.724
21
-133.896
0
LINE
8
BLACK
6
CONTINUOUS
10
126.724
20
-133.896
11
126.82
21
-133.705
0
LINE
8
BLACK
6
CONTINUOUS
10
126.82
20
-133.705
11
126.915
21
-133.61
0
LINE
8
BLACK
6
CONTINUOUS
10
126.915
20
-133.61
11
127.105
21
-133.515
0
LINE
8
BLACK
6
CONTINUOUS
10
128.629
20
-135.515
11
128.629
21
-134.182
0
LINE
8
BLACK
6
CONTINUOUS
10
128.629
20
-134.372
11
128.724
21
-134.277
0
LINE
8
BLACK
6
CONTINUOUS
10
128.724
20
-134.277
11
128.915
21
-134.182
0
LINE
8
BLACK
6
CONTINUOUS
10
128.915
20
-134.182
11
129.201
21
-134.182
0
LINE
8
BLACK
6
CONTINUOUS
10
129.201
20
-134.182
11
129.391
21
-134.277
0
LINE
8
BLACK
6
CONTINUOUS
10
129.391
20
-134.277
11
129.486
21
-134.467
0
LINE
8
BLACK
6
CONTINUOUS
10
129.486
20
-134.467
11
129.486
21
-135.515
0
LINE
8
BLACK
6
CONTINUOUS
10
129.486
20
-134.467
11
129.582
21
-134.277
0
LINE
8
BLACK
6
CONTINUOUS
10
129.582
20
-134.277
11
129.772
21
-134.182
0
LINE
8
BLACK
6
CONTINUOUS
10
129.772
20
-134.182
11
130.058
21
-134.182
0
LINE
8
BLACK
6
CONTINUOUS
10
130.058
20
-134.182
11
130.248
21
-134.277
0
LINE
8
BLACK
6
CONTINUOUS
10
130.248
20
-134.277
11
130.343
21
-134.467
0
LINE
8
BLACK
6
CONTINUOUS
10
130.343
20
-134.467
11
130.343
21
-135.515
0
LINE
8
BLACK
6
CONTINUOUS
10
131.296
20
-135.515
11
131.296
21
-134.182
0
LINE
8
BLACK
6
CONTINUOUS
10
131.296
20
-134.372
11
131.391
21
-134.277
0
LINE
8
BLACK
6
CONTINUOUS
10
131.391
20
-134.277
11
131.582
21
-134.182
0
LINE
8
BLACK
6
CONTINUOUS
10
131.582
20
-134.182
11
131.867
21
-134.182
0
LINE
8
BLACK
6
CONTINUOUS
10
131.867
20
-134.182
11
132.058
21
-134.277
0
LINE
8
BLACK
6
CONTINUOUS
10
132.058
20
-134.277
11
132.153
21
-134.467
0
LINE
8
BLACK
6
CONTINUOUS
10
132.153
20
-134.467
11
132.153
21
-135.515
0
LINE
8
BLACK
6
CONTINUOUS
10
132.153
20
-134.467
11
132.248
21
-134.277
0
LINE
8
BLACK
6
CONTINUOUS
10
132.248
20
-134.277
11
132.439
21
-134.182
0
LINE
8
BLACK
6
CONTINUOUS
10
132.439
20
-134.182
11
132.724
21
-134.182
0
LINE
8
BLACK
6
CONTINUOUS
10
132.724
20
-134.182
11
132.915
21
-134.277
0
LINE
8
BLACK
6
CONTINUOUS
10
132.915
20
-134.277
11
133.01
21
-134.467
0
LINE
8
BLACK
6
CONTINUOUS
10
133.01
20
-134.467
11
133.01
21
-135.515
0
LINE
8
BLACK
6
CONTINUOUS
10
136.915
20
-133.42
11
135.201
21
-135.991
0
LINE
8
BLACK
6
CONTINUOUS
10
139.486
20
-133.515
11
139.677
21
-133.515
0
LINE
8
BLACK
6
CONTINUOUS
10
139.677
20
-133.515
11
139.867
21
-133.61
0
LINE
8
BLACK
6
CONTINUOUS
10
139.867
20
-133.61
11
139.963
21
-133.705
0
LINE
8
BLACK
6
CONTINUOUS
10
139.963
20
-133.705
11
140.058
21
-133.896
0
LINE
8
BLACK
6
CONTINUOUS
10
140.058
20
-133.896
11
140.153
21
-134.277
0
LINE
8
BLACK
6
CONTINUOUS
10
140.153
20
-134.277
11
140.153
21
-134.753
0
LINE
8
BLACK
6
CONTINUOUS
10
140.153
20
-134.753
11
140.058
21
-135.134
0
LINE
8
BLACK
6
CONTINUOUS
10
140.058
20
-135.134
11
139.963
21
-135.324
0
LINE
8
BLACK
6
CONTINUOUS
10
139.963
20
-135.324
11
139.867
21
-135.42
0
LINE
8
BLACK
6
CONTINUOUS
10
139.867
20
-135.42
11
139.677
21
-135.515
0
LINE
8
BLACK
6
CONTINUOUS
10
139.677
20
-135.515
11
139.486
21
-135.515
0
LINE
8
BLACK
6
CONTINUOUS
10
139.486
20
-135.515
11
139.296
21
-135.42
0
LINE
8
BLACK
6
CONTINUOUS
10
139.296
20
-135.42
11
139.201
21
-135.324
0
LINE
8
BLACK
6
CONTINUOUS
10
139.201
20
-135.324
11
139.105
21
-135.134
0
LINE
8
BLACK
6
CONTINUOUS
10
139.105
20
-135.134
11
139.01
21
-134.753
0
LINE
8
BLACK
6
CONTINUOUS
10
139.01
20
-134.753
11
139.01
21
-134.277
0
LINE
8
BLACK
6
CONTINUOUS
10
139.01
20
-134.277
11
139.105
21
-133.896
0
LINE
8
BLACK
6
CONTINUOUS
10
139.105
20
-133.896
11
139.201
21
-133.705
0
LINE
8
BLACK
6
CONTINUOUS
10
139.201
20
-133.705
11
139.296
21
-133.61
0
LINE
8
BLACK
6
CONTINUOUS
10
139.296
20
-133.61
11
139.486
21
-133.515
0
LINE
8
BLACK
6
CONTINUOUS
10
141.01
20
-135.324
11
141.105
21
-135.42
0
LINE
8
BLACK
6
CONTINUOUS
10
141.105
20
-135.42
11
141.01
21
-135.515
0
LINE
8
BLACK
6
CONTINUOUS
10
141.01
20
-135.515
11
140.915
21
-135.42
0
LINE
8
BLACK
6
CONTINUOUS
10
140.915
20
-135.42
11
141.01
21
-135.324
0
LINE
8
BLACK
6
CONTINUOUS
10
141.01
20
-135.324
11
141.01
21
-135.515
0
LINE
8
BLACK
6
CONTINUOUS
10
142.343
20
-133.515
11
142.534
21
-133.515
0
LINE
8
BLACK
6
CONTINUOUS
10
142.534
20
-133.515
11
142.724
21
-133.61
0
LINE
8
BLACK
6
CONTINUOUS
10
142.724
20
-133.61
11
142.82
21
-133.705
0
LINE
8
BLACK
6
CONTINUOUS
10
142.82
20
-133.705
11
142.915
21
-133.896
0
LINE
8
BLACK
6
CONTINUOUS
10
142.915
20
-133.896
11
143.01
21
-134.277
0
LINE
8
BLACK
6
CONTINUOUS
10
143.01
20
-134.277
11
143.01
21
-134.753
0
LINE
8
BLACK
6
CONTINUOUS
10
143.01
20
-134.753
11
142.915
21
-135.134
0
LINE
8
BLACK
6
CONTINUOUS
10
142.915
20
-135.134
11
142.82
21
-135.324
0
LINE
8
BLACK
6
CONTINUOUS
10
142.82
20
-135.324
11
142.724
21
-135.42
0
LINE
8
BLACK
6
CONTINUOUS
10
142.724
20
-135.42
11
142.534
21
-135.515
0
LINE
8
BLACK
6
CONTINUOUS
10
142.534
20
-135.515
11
142.343
21
-135.515
0
LINE
8
BLACK
6
CONTINUOUS
10
142.343
20
-135.515
11
142.153
21
-135.42
0
LINE
8
BLACK
6
CONTINUOUS
10
142.153
20
-135.42
11
142.058
21
-135.324
0
LINE
8
BLACK
6
CONTINUOUS
10
142.058
20
-135.324
11
141.963
21
-135.134
0
LINE
8
BLACK
6
CONTINUOUS
10
141.963
20
-135.134
11
141.867
21
-134.753
0
LINE
8
BLACK
6
CONTINUOUS
10
141.867
20
-134.753
11
141.867
21
-134.277
0
LINE
8
BLACK
6
CONTINUOUS
10
141.867
20
-134.277
11
141.963
21
-133.896
0
LINE
8
BLACK
6
CONTINUOUS
10
141.963
20
-133.896
11
142.058
21
-133.705
0
LINE
8
BLACK
6
CONTINUOUS
10
142.058
20
-133.705
11
142.153
21
-133.61
0
LINE
8
BLACK
6
CONTINUOUS
10
142.153
20
-133.61
11
142.343
21
-133.515
0
LINE
8
BLACK
6
CONTINUOUS
10
144.915
20
-135.515
11
143.772
21
-135.515
0
LINE
8
BLACK
6
CONTINUOUS
10
144.343
20
-135.515
11
144.343
21
-133.515
0
LINE
8
BLACK
6
CONTINUOUS
10
144.343
20
-133.515
11
144.153
21
-133.801
0
LINE
8
BLACK
6
CONTINUOUS
10
144.153
20
-133.801
11
143.963
21
-133.991
0
LINE
8
BLACK
6
CONTINUOUS
10
143.963
20
-133.991
11
143.772
21
-134.086
0
LINE
8
BLACK
6
CONTINUOUS
10
146.82
20
-135.515
11
145.677
21
-135.515
0
LINE
8
BLACK
6
CONTINUOUS
10
146.248
20
-135.515
11
146.248
21
-133.515
0
LINE
8
BLACK
6
CONTINUOUS
10
146.248
20
-133.515
11
146.058
21
-133.801
0
LINE
8
BLACK
6
CONTINUOUS
10
146.058
20
-133.801
11
145.867
21
-133.991
0
LINE
8
BLACK
6
CONTINUOUS
10
145.867
20
-133.991
11
145.677
21
-134.086
0
LINE
8
BLACK
6
CONTINUOUS
10
147.963
20
-134.372
11
147.772
21
-134.277
0
LINE
8
BLACK
6
CONTINUOUS
10
147.772
20
-134.277
11
147.677
21
-134.182
0
LINE
8
BLACK
6
CONTINUOUS
10
147.677
20
-134.182
11
147.582
21
-133.991
0
LINE
8
BLACK
6
CONTINUOUS
10
147.582
20
-133.991
11
147.582
21
-133.896
0
LINE
8
BLACK
6
CONTINUOUS
10
147.582
20
-133.896
11
147.677
21
-133.705
0
LINE
8
BLACK
6
CONTINUOUS
10
147.677
20
-133.705
11
147.772
21
-133.61
0
LINE
8
BLACK
6
CONTINUOUS
10
147.772
20
-133.61
11
147.963
21
-133.515
0
LINE
8
BLACK
6
CONTINUOUS
10
147.963
20
-133.515
11
148.343
21
-133.515
0
LINE
8
BLACK
6
CONTINUOUS
10
148.343
20
-133.515
11
148.534
21
-133.61
0
LINE
8
BLACK
6
CONTINUOUS
10
148.534
20
-133.61
11
148.629
21
-133.705
0
LINE
8
BLACK
6
CONTINUOUS
10
148.629
20
-133.705
11
148.724
21
-133.896
0
LINE
8
BLACK
6
CONTINUOUS
10
148.724
20
-133.896
11
148.724
21
-133.991
0
LINE
8
BLACK
6
CONTINUOUS
10
148.724
20
-133.991
11
148.629
21
-134.182
0
LINE
8
BLACK
6
CONTINUOUS
10
148.629
20
-134.182
11
148.534
21
-134.277
0
LINE
8
BLACK
6
CONTINUOUS
10
148.534
20
-134.277
11
148.343
21
-134.372
0
LINE
8
BLACK
6
CONTINUOUS
10
148.343
20
-134.372
11
147.963
21
-134.372
0
LINE
8
BLACK
6
CONTINUOUS
10
147.963
20
-134.372
11
147.772
21
-134.467
0
LINE
8
BLACK
6
CONTINUOUS
10
147.772
20
-134.467
11
147.677
21
-134.562
0
LINE
8
BLACK
6
CONTINUOUS
10
147.677
20
-134.562
11
147.582
21
-134.753
0
LINE
8
BLACK
6
CONTINUOUS
10
147.582
20
-134.753
11
147.582
21
-135.134
0
LINE
8
BLACK
6
CONTINUOUS
10
147.582
20
-135.134
11
147.677
21
-135.324
0
LINE
8
BLACK
6
CONTINUOUS
10
147.677
20
-135.324
11
147.772
21
-135.42
0
LINE
8
BLACK
6
CONTINUOUS
10
147.772
20
-135.42
11
147.963
21
-135.515
0
LINE
8
BLACK
6
CONTINUOUS
10
147.963
20
-135.515
11
148.343
21
-135.515
0
LINE
8
BLACK
6
CONTINUOUS
10
148.343
20
-135.515
11
148.534
21
-135.42
0
LINE
8
BLACK
6
CONTINUOUS
10
148.534
20
-135.42
11
148.629
21
-135.324
0
LINE
8
BLACK
6
CONTINUOUS
10
148.629
20
-135.324
11
148.724
21
-135.134
0
LINE
8
BLACK
6
CONTINUOUS
10
148.724
20
-135.134
11
148.724
21
-134.753
0
LINE
8
BLACK
6
CONTINUOUS
10
148.724
20
-134.753
11
148.629
21
-134.562
0
LINE
8
BLACK
6
CONTINUOUS
10
148.629
20
-134.562
11
148.534
21
-134.467
0
LINE
8
BLACK
6
CONTINUOUS
10
148.534
20
-134.467
11
148.343
21
-134.372
0
LINE
8
BLACK
6
CONTINUOUS
10
149.486
20
-133.515
11
149.486
21
-133.896
0
LINE
8
BLACK
6
CONTINUOUS
10
150.248
20
-133.515
11
150.248
21
-133.896
0
LINE
8
BLACK
6
CONTINUOUS
10
153.201
20
-136.277
11
153.105
21
-136.182
0
LINE
8
BLACK
6
CONTINUOUS
10
153.105
20
-136.182
11
152.915
21
-135.896
0
LINE
8
BLACK
6
CONTINUOUS
10
152.915
20
-135.896
11
152.82
21
-135.705
0
LINE
8
BLACK
6
CONTINUOUS
10
152.82
20
-135.705
11
152.724
21
-135.42
0
LINE
8
BLACK
6
CONTINUOUS
10
152.724
20
-135.42
11
152.629
21
-134.943
0
LINE
8
BLACK
6
CONTINUOUS
10
152.629
20
-134.943
11
152.629
21
-134.562
0
LINE
8
BLACK
6
CONTINUOUS
10
152.629
20
-134.562
11
152.724
21
-134.086
0
LINE
8
BLACK
6
CONTINUOUS
10
152.724
20
-134.086
11
152.82
21
-133.801
0
LINE
8
BLACK
6
CONTINUOUS
10
152.82
20
-133.801
11
152.915
21
-133.61
0
LINE
8
BLACK
6
CONTINUOUS
10
152.915
20
-133.61
11
153.105
21
-133.324
0
LINE
8
BLACK
6
CONTINUOUS
10
153.105
20
-133.324
11
153.201
21
-133.229
0
LINE
8
BLACK
6
CONTINUOUS
10
154.248
20
-134.372
11
154.058
21
-134.277
0
LINE
8
BLACK
6
CONTINUOUS
10
154.058
20
-134.277
11
153.963
21
-134.182
0
LINE
8
BLACK
6
CONTINUOUS
10
153.963
20
-134.182
11
153.867
21
-133.991
0
LINE
8
BLACK
6
CONTINUOUS
10
153.867
20
-133.991
11
153.867
21
-133.896
0
LINE
8
BLACK
6
CONTINUOUS
10
153.867
20
-133.896
11
153.963
21
-133.705
0
LINE
8
BLACK
6
CONTINUOUS
10
153.963
20
-133.705
11
154.058
21
-133.61
0
LINE
8
BLACK
6
CONTINUOUS
10
154.058
20
-133.61
11
154.248
21
-133.515
0
LINE
8
BLACK
6
CONTINUOUS
10
154.248
20
-133.515
11
154.629
21
-133.515
0
LINE
8
BLACK
6
CONTINUOUS
10
154.629
20
-133.515
11
154.82
21
-133.61
0
LINE
8
BLACK
6
CONTINUOUS
10
154.82
20
-133.61
11
154.915
21
-133.705
0
LINE
8
BLACK
6
CONTINUOUS
10
154.915
20
-133.705
11
155.01
21
-133.896
0
LINE
8
BLACK
6
CONTINUOUS
10
155.01
20
-133.896
11
155.01
21
-133.991
0
LINE
8
BLACK
6
CONTINUOUS
10
155.01
20
-133.991
11
154.915
21
-134.182
0
LINE
8
BLACK
6
CONTINUOUS
10
154.915
20
-134.182
11
154.82
21
-134.277
0
LINE
8
BLACK
6
CONTINUOUS
10
154.82
20
-134.277
11
154.629
21
-134.372
0
LINE
8
BLACK
6
CONTINUOUS
10
154.629
20
-134.372
11
154.248
21
-134.372
0
LINE
8
BLACK
6
CONTINUOUS
10
154.248
20
-134.372
11
154.058
21
-134.467
0
LINE
8
BLACK
6
CONTINUOUS
10
154.058
20
-134.467
11
153.963
21
-134.562
0
LINE
8
BLACK
6
CONTINUOUS
10
153.963
20
-134.562
11
153.867
21
-134.753
0
LINE
8
BLACK
6
CONTINUOUS
10
153.867
20
-134.753
11
153.867
21
-135.134
0
LINE
8
BLACK
6
CONTINUOUS
10
153.867
20
-135.134
11
153.963
21
-135.324
0
LINE
8
BLACK
6
CONTINUOUS
10
153.963
20
-135.324
11
154.058
21
-135.42
0
LINE
8
BLACK
6
CONTINUOUS
10
154.058
20
-135.42
11
154.248
21
-135.515
0
LINE
8
BLACK
6
CONTINUOUS
10
154.248
20
-135.515
11
154.629
21
-135.515
0
LINE
8
BLACK
6
CONTINUOUS
10
154.629
20
-135.515
11
154.82
21
-135.42
0
LINE
8
BLACK
6
CONTINUOUS
10
154.82
20
-135.42
11
154.915
21
-135.324
0
LINE
8
BLACK
6
CONTINUOUS
10
154.915
20
-135.324
11
155.01
21
-135.134
0
LINE
8
BLACK
6
CONTINUOUS
10
155.01
20
-135.134
11
155.01
21
-134.753
0
LINE
8
BLACK
6
CONTINUOUS
10
155.01
20
-134.753
11
154.915
21
-134.562
0
LINE
8
BLACK
6
CONTINUOUS
10
154.915
20
-134.562
11
154.82
21
-134.467
0
LINE
8
BLACK
6
CONTINUOUS
10
154.82
20
-134.467
11
154.629
21
-134.372
0
LINE
8
BLACK
6
CONTINUOUS
10
156.153
20
-134.372
11
155.963
21
-134.277
0
LINE
8
BLACK
6
CONTINUOUS
10
155.963
20
-134.277
11
155.867
21
-134.182
0
LINE
8
BLACK
6
CONTINUOUS
10
155.867
20
-134.182
11
155.772
21
-133.991
0
LINE
8
BLACK
6
CONTINUOUS
10
155.772
20
-133.991
11
155.772
21
-133.896
0
LINE
8
BLACK
6
CONTINUOUS
10
155.772
20
-133.896
11
155.867
21
-133.705
0
LINE
8
BLACK
6
CONTINUOUS
10
155.867
20
-133.705
11
155.963
21
-133.61
0
LINE
8
BLACK
6
CONTINUOUS
10
155.963
20
-133.61
11
156.153
21
-133.515
0
LINE
8
BLACK
6
CONTINUOUS
10
156.153
20
-133.515
11
156.534
21
-133.515
0
LINE
8
BLACK
6
CONTINUOUS
10
156.534
20
-133.515
11
156.724
21
-133.61
0
LINE
8
BLACK
6
CONTINUOUS
10
156.724
20
-133.61
11
156.82
21
-133.705
0
LINE
8
BLACK
6
CONTINUOUS
10
156.82
20
-133.705
11
156.915
21
-133.896
0
LINE
8
BLACK
6
CONTINUOUS
10
156.915
20
-133.896
11
156.915
21
-133.991
0
LINE
8
BLACK
6
CONTINUOUS
10
156.915
20
-133.991
11
156.82
21
-134.182
0
LINE
8
BLACK
6
CONTINUOUS
10
156.82
20
-134.182
11
156.724
21
-134.277
0
LINE
8
BLACK
6
CONTINUOUS
10
156.724
20
-134.277
11
156.534
21
-134.372
0
LINE
8
BLACK
6
CONTINUOUS
10
156.534
20
-134.372
11
156.153
21
-134.372
0
LINE
8
BLACK
6
CONTINUOUS
10
156.153
20
-134.372
11
155.963
21
-134.467
0
LINE
8
BLACK
6
CONTINUOUS
10
155.963
20
-134.467
11
155.867
21
-134.562
0
LINE
8
BLACK
6
CONTINUOUS
10
155.867
20
-134.562
11
155.772
21
-134.753
0
LINE
8
BLACK
6
CONTINUOUS
10
155.772
20
-134.753
11
155.772
21
-135.134
0
LINE
8
BLACK
6
CONTINUOUS
10
155.772
20
-135.134
11
155.867
21
-135.324
0
LINE
8
BLACK
6
CONTINUOUS
10
155.867
20
-135.324
11
155.963
21
-135.42
0
LINE
8
BLACK
6
CONTINUOUS
10
155.963
20
-135.42
11
156.153
21
-135.515
0
LINE
8
BLACK
6
CONTINUOUS
10
156.153
20
-135.515
11
156.534
21
-135.515
0
LINE
8
BLACK
6
CONTINUOUS
10
156.534
20
-135.515
11
156.724
21
-135.42
0
LINE
8
BLACK
6
CONTINUOUS
10
156.724
20
-135.42
11
156.82
21
-135.324
0
LINE
8
BLACK
6
CONTINUOUS
10
156.82
20
-135.324
11
156.915
21
-135.134
0
LINE
8
BLACK
6
CONTINUOUS
10
156.915
20
-135.134
11
156.915
21
-134.753
0
LINE
8
BLACK
6
CONTINUOUS
10
156.915
20
-134.753
11
156.82
21
-134.562
0
LINE
8
BLACK
6
CONTINUOUS
10
156.82
20
-134.562
11
156.724
21
-134.467
0
LINE
8
BLACK
6
CONTINUOUS
10
156.724
20
-134.467
11
156.534
21
-134.372
0
LINE
8
BLACK
6
CONTINUOUS
10
159.296
20
-135.515
11
159.296
21
-133.515
0
LINE
8
BLACK
6
CONTINUOUS
10
160.153
20
-135.515
11
160.153
21
-134.467
0
LINE
8
BLACK
6
CONTINUOUS
10
160.153
20
-134.467
11
160.058
21
-134.277
0
LINE
8
BLACK
6
CONTINUOUS
10
160.058
20
-134.277
11
159.867
21
-134.182
0
LINE
8
BLACK
6
CONTINUOUS
10
159.867
20
-134.182
11
159.582
21
-134.182
0
LINE
8
BLACK
6
CONTINUOUS
10
159.582
20
-134.182
11
159.391
21
-134.277
0
LINE
8
BLACK
6
CONTINUOUS
10
159.391
20
-134.277
11
159.296
21
-134.372
0
LINE
8
BLACK
6
CONTINUOUS
10
161.391
20
-135.515
11
161.201
21
-135.42
0
LINE
8
BLACK
6
CONTINUOUS
10
161.201
20
-135.42
11
161.105
21
-135.324
0
LINE
8
BLACK
6
CONTINUOUS
10
161.105
20
-135.324
11
161.01
21
-135.134
0
LINE
8
BLACK
6
CONTINUOUS
10
161.01
20
-135.134
11
161.01
21
-134.562
0
LINE
8
BLACK
6
CONTINUOUS
10
161.01
20
-134.562
11
161.105
21
-134.372
0
LINE
8
BLACK
6
CONTINUOUS
10
161.105
20
-134.372
11
161.201
21
-134.277
0
LINE
8
BLACK
6
CONTINUOUS
10
161.201
20
-134.277
11
161.391
21
-134.182
0
LINE
8
BLACK
6
CONTINUOUS
10
161.391
20
-134.182
11
161.677
21
-134.182
0
LINE
8
BLACK
6
CONTINUOUS
10
161.677
20
-134.182
11
161.867
21
-134.277
0
LINE
8
BLACK
6
CONTINUOUS
10
161.867
20
-134.277
11
161.963
21
-134.372
0
LINE
8
BLACK
6
CONTINUOUS
10
161.963
20
-134.372
11
162.058
21
-134.562
0
LINE
8
BLACK
6
CONTINUOUS
10
162.058
20
-134.562
11
162.058
21
-135.134
0
LINE
8
BLACK
6
CONTINUOUS
10
162.058
20
-135.134
11
161.963
21
-135.324
0
LINE
8
BLACK
6
CONTINUOUS
10
161.963
20
-135.324
11
161.867
21
-135.42
0
LINE
8
BLACK
6
CONTINUOUS
10
161.867
20
-135.42
11
161.677
21
-135.515
0
LINE
8
BLACK
6
CONTINUOUS
10
161.677
20
-135.515
11
161.391
21
-135.515
0
LINE
8
BLACK
6
CONTINUOUS
10
163.201
20
-135.515
11
163.01
21
-135.42
0
LINE
8
BLACK
6
CONTINUOUS
10
163.01
20
-135.42
11
162.915
21
-135.229
0
LINE
8
BLACK
6
CONTINUOUS
10
162.915
20
-135.229
11
162.915
21
-133.515
0
LINE
8
BLACK
6
CONTINUOUS
10
164.724
20
-135.42
11
164.534
21
-135.515
0
LINE
8
BLACK
6
CONTINUOUS
10
164.534
20
-135.515
11
164.153
21
-135.515
0
LINE
8
BLACK
6
CONTINUOUS
10
164.153
20
-135.515
11
163.963
21
-135.42
0
LINE
8
BLACK
6
CONTINUOUS
10
163.963
20
-135.42
11
163.867
21
-135.229
0
LINE
8
BLACK
6
CONTINUOUS
10
163.867
20
-135.229
11
163.867
21
-134.467
0
LINE
8
BLACK
6
CONTINUOUS
10
163.867
20
-134.467
11
163.963
21
-134.277
0
LINE
8
BLACK
6
CONTINUOUS
10
163.963
20
-134.277
11
164.153
21
-134.182
0
LINE
8
BLACK
6
CONTINUOUS
10
164.153
20
-134.182
11
164.534
21
-134.182
0
LINE
8
BLACK
6
CONTINUOUS
10
164.534
20
-134.182
11
164.724
21
-134.277
0
LINE
8
BLACK
6
CONTINUOUS
10
164.724
20
-134.277
11
164.82
21
-134.467
0
LINE
8
BLACK
6
CONTINUOUS
10
164.82
20
-134.467
11
164.82
21
-134.658
0
LINE
8
BLACK
6
CONTINUOUS
10
164.82
20
-134.658
11
163.867
21
-134.848
0
LINE
8
BLACK
6
CONTINUOUS
10
165.582
20
-135.42
11
165.772
21
-135.515
0
LINE
8
BLACK
6
CONTINUOUS
10
165.772
20
-135.515
11
166.153
21
-135.515
0
LINE
8
BLACK
6
CONTINUOUS
10
166.153
20
-135.515
11
166.343
21
-135.42
0
LINE
8
BLACK
6
CONTINUOUS
10
166.343
20
-135.42
11
166.439
21
-135.229
0
LINE
8
BLACK
6
CONTINUOUS
10
166.439
20
-135.229
11
166.439
21
-135.134
0
LINE
8
BLACK
6
CONTINUOUS
10
166.439
20
-135.134
11
166.343
21
-134.943
0
LINE
8
BLACK
6
CONTINUOUS
10
166.343
20
-134.943
11
166.153
21
-134.848
0
LINE
8
BLACK
6
CONTINUOUS
10
166.153
20
-134.848
11
165.867
21
-134.848
0
LINE
8
BLACK
6
CONTINUOUS
10
165.867
20
-134.848
11
165.677
21
-134.753
0
LINE
8
BLACK
6
CONTINUOUS
10
165.677
20
-134.753
11
165.582
21
-134.562
0
LINE
8
BLACK
6
CONTINUOUS
10
165.582
20
-134.562
11
165.582
21
-134.467
0
LINE
8
BLACK
6
CONTINUOUS
10
165.582
20
-134.467
11
165.677
21
-134.277
0
LINE
8
BLACK
6
CONTINUOUS
10
165.677
20
-134.277
11
165.867
21
-134.182
0
LINE
8
BLACK
6
CONTINUOUS
10
165.867
20
-134.182
11
166.153
21
-134.182
0
LINE
8
BLACK
6
CONTINUOUS
10
166.153
20
-134.182
11
166.343
21
-134.277
0
LINE
8
BLACK
6
CONTINUOUS
10
167.105
20
-136.277
11
167.201
21
-136.182
0
LINE
8
BLACK
6
CONTINUOUS
10
167.201
20
-136.182
11
167.391
21
-135.896
0
LINE
8
BLACK
6
CONTINUOUS
10
167.391
20
-135.896
11
167.486
21
-135.705
0
LINE
8
BLACK
6
CONTINUOUS
10
167.486
20
-135.705
11
167.582
21
-135.42
0
LINE
8
BLACK
6
CONTINUOUS
10
167.582
20
-135.42
11
167.677
21
-134.943
0
LINE
8
BLACK
6
CONTINUOUS
10
167.677
20
-134.943
11
167.677
21
-134.562
0
LINE
8
BLACK
6
CONTINUOUS
10
167.677
20
-134.562
11
167.582
21
-134.086
0
LINE
8
BLACK
6
CONTINUOUS
10
167.582
20
-134.086
11
167.486
21
-133.801
0
LINE
8
BLACK
6
CONTINUOUS
10
167.486
20
-133.801
11
167.391
21
-133.61
0
LINE
8
BLACK
6
CONTINUOUS
10
167.391
20
-133.61
11
167.201
21
-133.324
0
LINE
8
BLACK
6
CONTINUOUS
10
167.201
20
-133.324
11
167.105
21
-133.229
0
CIRCLE
8
BLACK
10
116.95
20
-137.24
40
0.5
0
LINE
8
BLACK
6
CONTINUOUS
10
121.105
20
-138.155
11
119.963
21
-138.155
0
LINE
8
BLACK
6
CONTINUOUS
10
120.534
20
-138.155
11
120.534
21
-136.155
0
LINE
8
BLACK
6
CONTINUOUS
10
120.534
20
-136.155
11
120.343
21
-136.441
0
LINE
8
BLACK
6
CONTINUOUS
10
120.343
20
-136.441
11
120.153
21
-136.631
0
LINE
8
BLACK
6
CONTINUOUS
10
120.153
20
-136.631
11
119.963
21
-136.726
0
LINE
8
BLACK
6
CONTINUOUS
10
121.963
20
-137.964
11
122.058
21
-138.06
0
LINE
8
BLACK
6
CONTINUOUS
10
122.058
20
-138.06
11
121.963
21
-138.155
0
LINE
8
BLACK
6
CONTINUOUS
10
121.963
20
-138.155
11
121.867
21
-138.06
0
LINE
8
BLACK
6
CONTINUOUS
10
121.867
20
-138.06
11
121.963
21
-137.964
0
LINE
8
BLACK
6
CONTINUOUS
10
121.963
20
-137.964
11
121.963
21
-138.155
0
LINE
8
BLACK
6
CONTINUOUS
10
123.296
20
-136.155
11
123.486
21
-136.155
0
LINE
8
BLACK
6
CONTINUOUS
10
123.486
20
-136.155
11
123.677
21
-136.25
0
LINE
8
BLACK
6
CONTINUOUS
10
123.677
20
-136.25
11
123.772
21
-136.345
0
LINE
8
BLACK
6
CONTINUOUS
10
123.772
20
-136.345
11
123.867
21
-136.536
0
LINE
8
BLACK
6
CONTINUOUS
10
123.867
20
-136.536
11
123.963
21
-136.917
0
LINE
8
BLACK
6
CONTINUOUS
10
123.963
20
-136.917
11
123.963
21
-137.393
0
LINE
8
BLACK
6
CONTINUOUS
10
123.963
20
-137.393
11
123.867
21
-137.774
0
LINE
8
BLACK
6
CONTINUOUS
10
123.867
20
-137.774
11
123.772
21
-137.964
0
LINE
8
BLACK
6
CONTINUOUS
10
123.772
20
-137.964
11
123.677
21
-138.06
0
LINE
8
BLACK
6
CONTINUOUS
10
123.677
20
-138.06
11
123.486
21
-138.155
0
LINE
8
BLACK
6
CONTINUOUS
10
123.486
20
-138.155
11
123.296
21
-138.155
0
LINE
8
BLACK
6
CONTINUOUS
10
123.296
20
-138.155
11
123.105
21
-138.06
0
LINE
8
BLACK
6
CONTINUOUS
10
123.105
20
-138.06
11
123.01
21
-137.964
0
LINE
8
BLACK
6
CONTINUOUS
10
123.01
20
-137.964
11
122.915
21
-137.774
0
LINE
8
BLACK
6
CONTINUOUS
10
122.915
20
-137.774
11
122.82
21
-137.393
0
LINE
8
BLACK
6
CONTINUOUS
10
122.82
20
-137.393
11
122.82
21
-136.917
0
LINE
8
BLACK
6
CONTINUOUS
10
122.82
20
-136.917
11
122.915
21
-136.536
0
LINE
8
BLACK
6
CONTINUOUS
10
122.915
20
-136.536
11
123.01
21
-136.345
0
LINE
8
BLACK
6
CONTINUOUS
10
123.01
20
-136.345
11
123.105
21
-136.25
0
LINE
8
BLACK
6
CONTINUOUS
10
123.105
20
-136.25
11
123.296
21
-136.155
0
LINE
8
BLACK
6
CONTINUOUS
10
125.201
20
-136.155
11
125.391
21
-136.155
0
LINE
8
BLACK
6
CONTINUOUS
10
125.391
20
-136.155
11
125.582
21
-136.25
0
LINE
8
BLACK
6
CONTINUOUS
10
125.582
20
-136.25
11
125.677
21
-136.345
0
LINE
8
BLACK
6
CONTINUOUS
10
125.677
20
-136.345
11
125.772
21
-136.536
0
LINE
8
BLACK
6
CONTINUOUS
10
125.772
20
-136.536
11
125.867
21
-136.917
0
LINE
8
BLACK
6
CONTINUOUS
10
125.867
20
-136.917
11
125.867
21
-137.393
0
LINE
8
BLACK
6
CONTINUOUS
10
125.867
20
-137.393
11
125.772
21
-137.774
0
LINE
8
BLACK
6
CONTINUOUS
10
125.772
20
-137.774
11
125.677
21
-137.964
0
LINE
8
BLACK
6
CONTINUOUS
10
125.677
20
-137.964
11
125.582
21
-138.06
0
LINE
8
BLACK
6
CONTINUOUS
10
125.582
20
-138.06
11
125.391
21
-138.155
0
LINE
8
BLACK
6
CONTINUOUS
10
125.391
20
-138.155
11
125.201
21
-138.155
0
LINE
8
BLACK
6
CONTINUOUS
10
125.201
20
-138.155
11
125.01
21
-138.06
0
LINE
8
BLACK
6
CONTINUOUS
10
125.01
20
-138.06
11
124.915
21
-137.964
0
LINE
8
BLACK
6
CONTINUOUS
10
124.915
20
-137.964
11
124.82
21
-137.774
0
LINE
8
BLACK
6
CONTINUOUS
10
124.82
20
-137.774
11
124.724
21
-137.393
0
LINE
8
BLACK
6
CONTINUOUS
10
124.724
20
-137.393
11
124.724
21
-136.917
0
LINE
8
BLACK
6
CONTINUOUS
10
124.724
20
-136.917
11
124.82
21
-136.536
0
LINE
8
BLACK
6
CONTINUOUS
10
124.82
20
-136.536
11
124.915
21
-136.345
0
LINE
8
BLACK
6
CONTINUOUS
10
124.915
20
-136.345
11
125.01
21
-136.25
0
LINE
8
BLACK
6
CONTINUOUS
10
125.01
20
-136.25
11
125.201
21
-136.155
0
LINE
8
BLACK
6
CONTINUOUS
10
127.105
20
-136.155
11
127.296
21
-136.155
0
LINE
8
BLACK
6
CONTINUOUS
10
127.296
20
-136.155
11
127.486
21
-136.25
0
LINE
8
BLACK
6
CONTINUOUS
10
127.486
20
-136.25
11
127.582
21
-136.345
0
LINE
8
BLACK
6
CONTINUOUS
10
127.582
20
-136.345
11
127.677
21
-136.536
0
LINE
8
BLACK
6
CONTINUOUS
10
127.677
20
-136.536
11
127.772
21
-136.917
0
LINE
8
BLACK
6
CONTINUOUS
10
127.772
20
-136.917
11
127.772
21
-137.393
0
LINE
8
BLACK
6
CONTINUOUS
10
127.772
20
-137.393
11
127.677
21
-137.774
0
LINE
8
BLACK
6
CONTINUOUS
10
127.677
20
-137.774
11
127.582
21
-137.964
0
LINE
8
BLACK
6
CONTINUOUS
10
127.582
20
-137.964
11
127.486
21
-138.06
0
LINE
8
BLACK
6
CONTINUOUS
10
127.486
20
-138.06
11
127.296
21
-138.155
0
LINE
8
BLACK
6
CONTINUOUS
10
127.296
20
-138.155
11
127.105
21
-138.155
0
LINE
8
BLACK
6
CONTINUOUS
10
127.105
20
-138.155
11
126.915
21
-138.06
0
LINE
8
BLACK
6
CONTINUOUS
10
126.915
20
-138.06
11
126.82
21
-137.964
0
LINE
8
BLACK
6
CONTINUOUS
10
126.82
20
-137.964
11
126.724
21
-137.774
0
LINE
8
BLACK
6
CONTINUOUS
10
126.724
20
-137.774
11
126.629
21
-137.393
0
LINE
8
BLACK
6
CONTINUOUS
10
126.629
20
-137.393
11
126.629
21
-136.917
0
LINE
8
BLACK
6
CONTINUOUS
10
126.629
20
-136.917
11
126.724
21
-136.536
0
LINE
8
BLACK
6
CONTINUOUS
10
126.724
20
-136.536
11
126.82
21
-136.345
0
LINE
8
BLACK
6
CONTINUOUS
10
126.82
20
-136.345
11
126.915
21
-136.25
0
LINE
8
BLACK
6
CONTINUOUS
10
126.915
20
-136.25
11
127.105
21
-136.155
0
LINE
8
BLACK
6
CONTINUOUS
10
128.629
20
-138.155
11
128.629
21
-136.822
0
LINE
8
BLACK
6
CONTINUOUS
10
128.629
20
-137.012
11
128.724
21
-136.917
0
LINE
8
BLACK
6
CONTINUOUS
10
128.724
20
-136.917
11
128.915
21
-136.822
0
LINE
8
BLACK
6
CONTINUOUS
10
128.915
20
-136.822
11
129.201
21
-136.822
0
LINE
8
BLACK
6
CONTINUOUS
10
129.201
20
-136.822
11
129.391
21
-136.917
0
LINE
8
BLACK
6
CONTINUOUS
10
129.391
20
-136.917
11
129.486
21
-137.107
0
LINE
8
BLACK
6
CONTINUOUS
10
129.486
20
-137.107
11
129.486
21
-138.155
0
LINE
8
BLACK
6
CONTINUOUS
10
129.486
20
-137.107
11
129.582
21
-136.917
0
LINE
8
BLACK
6
CONTINUOUS
10
129.582
20
-136.917
11
129.772
21
-136.822
0
LINE
8
BLACK
6
CONTINUOUS
10
129.772
20
-136.822
11
130.058
21
-136.822
0
LINE
8
BLACK
6
CONTINUOUS
10
130.058
20
-136.822
11
130.248
21
-136.917
0
LINE
8
BLACK
6
CONTINUOUS
10
130.248
20
-136.917
11
130.343
21
-137.107
0
LINE
8
BLACK
6
CONTINUOUS
10
130.343
20
-137.107
11
130.343
21
-138.155
0
LINE
8
BLACK
6
CONTINUOUS
10
131.296
20
-138.155
11
131.296
21
-136.822
0
LINE
8
BLACK
6
CONTINUOUS
10
131.296
20
-137.012
11
131.391
21
-136.917
0
LINE
8
BLACK
6
CONTINUOUS
10
131.391
20
-136.917
11
131.582
21
-136.822
0
LINE
8
BLACK
6
CONTINUOUS
10
131.582
20
-136.822
11
131.867
21
-136.822
0
LINE
8
BLACK
6
CONTINUOUS
10
131.867
20
-136.822
11
132.058
21
-136.917
0
LINE
8
BLACK
6
CONTINUOUS
10
132.058
20
-136.917
11
132.153
21
-137.107
0
LINE
8
BLACK
6
CONTINUOUS
10
132.153
20
-137.107
11
132.153
21
-138.155
0
LINE
8
BLACK
6
CONTINUOUS
10
132.153
20
-137.107
11
132.248
21
-136.917
0
LINE
8
BLACK
6
CONTINUOUS
10
132.248
20
-136.917
11
132.439
21
-136.822
0
LINE
8
BLACK
6
CONTINUOUS
10
132.439
20
-136.822
11
132.724
21
-136.822
0
LINE
8
BLACK
6
CONTINUOUS
10
132.724
20
-136.822
11
132.915
21
-136.917
0
LINE
8
BLACK
6
CONTINUOUS
10
132.915
20
-136.917
11
133.01
21
-137.107
0
LINE
8
BLACK
6
CONTINUOUS
10
133.01
20
-137.107
11
133.01
21
-138.155
0
LINE
8
BLACK
6
CONTINUOUS
10
136.915
20
-136.06
11
135.201
21
-138.631
0
LINE
8
BLACK
6
CONTINUOUS
10
139.486
20
-136.155
11
139.677
21
-136.155
0
LINE
8
BLACK
6
CONTINUOUS
10
139.677
20
-136.155
11
139.867
21
-136.25
0
LINE
8
BLACK
6
CONTINUOUS
10
139.867
20
-136.25
11
139.963
21
-136.345
0
LINE
8
BLACK
6
CONTINUOUS
10
139.963
20
-136.345
11
140.058
21
-136.536
0
LINE
8
BLACK
6
CONTINUOUS
10
140.058
20
-136.536
11
140.153
21
-136.917
0
LINE
8
BLACK
6
CONTINUOUS
10
140.153
20
-136.917
11
140.153
21
-137.393
0
LINE
8
BLACK
6
CONTINUOUS
10
140.153
20
-137.393
11
140.058
21
-137.774
0
LINE
8
BLACK
6
CONTINUOUS
10
140.058
20
-137.774
11
139.963
21
-137.964
0
LINE
8
BLACK
6
CONTINUOUS
10
139.963
20
-137.964
11
139.867
21
-138.06
0
LINE
8
BLACK
6
CONTINUOUS
10
139.867
20
-138.06
11
139.677
21
-138.155
0
LINE
8
BLACK
6
CONTINUOUS
10
139.677
20
-138.155
11
139.486
21
-138.155
0
LINE
8
BLACK
6
CONTINUOUS
10
139.486
20
-138.155
11
139.296
21
-138.06
0
LINE
8
BLACK
6
CONTINUOUS
10
139.296
20
-138.06
11
139.201
21
-137.964
0
LINE
8
BLACK
6
CONTINUOUS
10
139.201
20
-137.964
11
139.105
21
-137.774
0
LINE
8
BLACK
6
CONTINUOUS
10
139.105
20
-137.774
11
139.01
21
-137.393
0
LINE
8
BLACK
6
CONTINUOUS
10
139.01
20
-137.393
11
139.01
21
-136.917
0
LINE
8
BLACK
6
CONTINUOUS
10
139.01
20
-136.917
11
139.105
21
-136.536
0
LINE
8
BLACK
6
CONTINUOUS
10
139.105
20
-136.536
11
139.201
21
-136.345
0
LINE
8
BLACK
6
CONTINUOUS
10
139.201
20
-136.345
11
139.296
21
-136.25
0
LINE
8
BLACK
6
CONTINUOUS
10
139.296
20
-136.25
11
139.486
21
-136.155
0
LINE
8
BLACK
6
CONTINUOUS
10
141.01
20
-137.964
11
141.105
21
-138.06
0
LINE
8
BLACK
6
CONTINUOUS
10
141.105
20
-138.06
11
141.01
21
-138.155
0
LINE
8
BLACK
6
CONTINUOUS
10
141.01
20
-138.155
11
140.915
21
-138.06
0
LINE
8
BLACK
6
CONTINUOUS
10
140.915
20
-138.06
11
141.01
21
-137.964
0
LINE
8
BLACK
6
CONTINUOUS
10
141.01
20
-137.964
11
141.01
21
-138.155
0
LINE
8
BLACK
6
CONTINUOUS
10
142.343
20
-136.155
11
142.534
21
-136.155
0
LINE
8
BLACK
6
CONTINUOUS
10
142.534
20
-136.155
11
142.724
21
-136.25
0
LINE
8
BLACK
6
CONTINUOUS
10
142.724
20
-136.25
11
142.82
21
-136.345
0
LINE
8
BLACK
6
CONTINUOUS
10
142.82
20
-136.345
11
142.915
21
-136.536
0
LINE
8
BLACK
6
CONTINUOUS
10
142.915
20
-136.536
11
143.01
21
-136.917
0
LINE
8
BLACK
6
CONTINUOUS
10
143.01
20
-136.917
11
143.01
21
-137.393
0
LINE
8
BLACK
6
CONTINUOUS
10
143.01
20
-137.393
11
142.915
21
-137.774
0
LINE
8
BLACK
6
CONTINUOUS
10
142.915
20
-137.774
11
142.82
21
-137.964
0
LINE
8
BLACK
6
CONTINUOUS
10
142.82
20
-137.964
11
142.724
21
-138.06
0
LINE
8
BLACK
6
CONTINUOUS
10
142.724
20
-138.06
11
142.534
21
-138.155
0
LINE
8
BLACK
6
CONTINUOUS
10
142.534
20
-138.155
11
142.343
21
-138.155
0
LINE
8
BLACK
6
CONTINUOUS
10
142.343
20
-138.155
11
142.153
21
-138.06
0
LINE
8
BLACK
6
CONTINUOUS
10
142.153
20
-138.06
11
142.058
21
-137.964
0
LINE
8
BLACK
6
CONTINUOUS
10
142.058
20
-137.964
11
141.963
21
-137.774
0
LINE
8
BLACK
6
CONTINUOUS
10
141.963
20
-137.774
11
141.867
21
-137.393
0
LINE
8
BLACK
6
CONTINUOUS
10
141.867
20
-137.393
11
141.867
21
-136.917
0
LINE
8
BLACK
6
CONTINUOUS
10
141.867
20
-136.917
11
141.963
21
-136.536
0
LINE
8
BLACK
6
CONTINUOUS
10
141.963
20
-136.536
11
142.058
21
-136.345
0
LINE
8
BLACK
6
CONTINUOUS
10
142.058
20
-136.345
11
142.153
21
-136.25
0
LINE
8
BLACK
6
CONTINUOUS
10
142.153
20
-136.25
11
142.343
21
-136.155
0
LINE
8
BLACK
6
CONTINUOUS
10
143.677
20
-136.155
11
144.915
21
-136.155
0
LINE
8
BLACK
6
CONTINUOUS
10
144.915
20
-136.155
11
144.248
21
-136.917
0
LINE
8
BLACK
6
CONTINUOUS
10
144.248
20
-136.917
11
144.534
21
-136.917
0
LINE
8
BLACK
6
CONTINUOUS
10
144.534
20
-136.917
11
144.724
21
-137.012
0
LINE
8
BLACK
6
CONTINUOUS
10
144.724
20
-137.012
11
144.82
21
-137.107
0
LINE
8
BLACK
6
CONTINUOUS
10
144.82
20
-137.107
11
144.915
21
-137.298
0
LINE
8
BLACK
6
CONTINUOUS
10
144.915
20
-137.298
11
144.915
21
-137.774
0
LINE
8
BLACK
6
CONTINUOUS
10
144.915
20
-137.774
11
144.82
21
-137.964
0
LINE
8
BLACK
6
CONTINUOUS
10
144.82
20
-137.964
11
144.724
21
-138.06
0
LINE
8
BLACK
6
CONTINUOUS
10
144.724
20
-138.06
11
144.534
21
-138.155
0
LINE
8
BLACK
6
CONTINUOUS
10
144.534
20
-138.155
11
143.963
21
-138.155
0
LINE
8
BLACK
6
CONTINUOUS
10
143.963
20
-138.155
11
143.772
21
-138.06
0
LINE
8
BLACK
6
CONTINUOUS
10
143.772
20
-138.06
11
143.677
21
-137.964
0
LINE
8
BLACK
6
CONTINUOUS
10
145.867
20
-138.155
11
146.248
21
-138.155
0
LINE
8
BLACK
6
CONTINUOUS
10
146.248
20
-138.155
11
146.439
21
-138.06
0
LINE
8
BLACK
6
CONTINUOUS
10
146.439
20
-138.06
11
146.534
21
-137.964
0
LINE
8
BLACK
6
CONTINUOUS
10
146.534
20
-137.964
11
146.724
21
-137.679
0
LINE
8
BLACK
6
CONTINUOUS
10
146.724
20
-137.679
11
146.82
21
-137.298
0
LINE
8
BLACK
6
CONTINUOUS
10
146.82
20
-137.298
11
146.82
21
-136.536
0
LINE
8
BLACK
6
CONTINUOUS
10
146.82
20
-136.536
11
146.724
21
-136.345
0
LINE
8
BLACK
6
CONTINUOUS
10
146.724
20
-136.345
11
146.629
21
-136.25
0
LINE
8
BLACK
6
CONTINUOUS
10
146.629
20
-136.25
11
146.439
21
-136.155
0
LINE
8
BLACK
6
CONTINUOUS
10
146.439
20
-136.155
11
146.058
21
-136.155
0
LINE
8
BLACK
6
CONTINUOUS
10
146.058
20
-136.155
11
145.867
21
-136.25
0
LINE
8
BLACK
6
CONTINUOUS
10
145.867
20
-136.25
11
145.772
21
-136.345
0
LINE
8
BLACK
6
CONTINUOUS
10
145.772
20
-136.345
11
145.677
21
-136.536
0
LINE
8
BLACK
6
CONTINUOUS
10
145.677
20
-136.536
11
145.677
21
-137.012
0
LINE
8
BLACK
6
CONTINUOUS
10
145.677
20
-137.012
11
145.772
21
-137.202
0
LINE
8
BLACK
6
CONTINUOUS
10
145.772
20
-137.202
11
145.867
21
-137.298
0
LINE
8
BLACK
6
CONTINUOUS
10
145.867
20
-137.298
11
146.058
21
-137.393
0
LINE
8
BLACK
6
CONTINUOUS
10
146.058
20
-137.393
11
146.439
21
-137.393
0
LINE
8
BLACK
6
CONTINUOUS
10
146.439
20
-137.393
11
146.629
21
-137.298
0
LINE
8
BLACK
6
CONTINUOUS
10
146.629
20
-137.298
11
146.724
21
-137.202
0
LINE
8
BLACK
6
CONTINUOUS
10
146.724
20
-137.202
11
146.82
21
-137.012
0
LINE
8
BLACK
6
CONTINUOUS
10
148.534
20
-136.822
11
148.534
21
-138.155
0
LINE
8
BLACK
6
CONTINUOUS
10
148.058
20
-136.06
11
147.582
21
-137.488
0
LINE
8
BLACK
6
CONTINUOUS
10
147.582
20
-137.488
11
148.82
21
-137.488
0
LINE
8
BLACK
6
CONTINUOUS
10
149.486
20
-136.155
11
149.486
21
-136.536
0
LINE
8
BLACK
6
CONTINUOUS
10
150.248
20
-136.155
11
150.248
21
-136.536
0
LINE
8
BLACK
6
CONTINUOUS
10
153.201
20
-138.917
11
153.105
21
-138.822
0
LINE
8
BLACK
6
CONTINUOUS
10
153.105
20
-138.822
11
152.915
21
-138.536
0
LINE
8
BLACK
6
CONTINUOUS
10
152.915
20
-138.536
11
152.82
21
-138.345
0
LINE
8
BLACK
6
CONTINUOUS
10
152.82
20
-138.345
11
152.724
21
-138.06
0
LINE
8
BLACK
6
CONTINUOUS
10
152.724
20
-138.06
11
152.629
21
-137.583
0
LINE
8
BLACK
6
CONTINUOUS
10
152.629
20
-137.583
11
152.629
21
-137.202
0
LINE
8
BLACK
6
CONTINUOUS
10
152.629
20
-137.202
11
152.724
21
-136.726
0
LINE
8
BLACK
6
CONTINUOUS
10
152.724
20
-136.726
11
152.82
21
-136.441
0
LINE
8
BLACK
6
CONTINUOUS
10
152.82
20
-136.441
11
152.915
21
-136.25
0
LINE
8
BLACK
6
CONTINUOUS
10
152.915
20
-136.25
11
153.105
21
-135.964
0
LINE
8
BLACK
6
CONTINUOUS
10
153.105
20
-135.964
11
153.201
21
-135.869
0
LINE
8
BLACK
6
CONTINUOUS
10
154.915
20
-136.155
11
153.963
21
-136.155
0
LINE
8
BLACK
6
CONTINUOUS
10
153.963
20
-136.155
11
153.867
21
-137.107
0
LINE
8
BLACK
6
CONTINUOUS
10
153.867
20
-137.107
11
153.963
21
-137.012
0
LINE
8
BLACK
6
CONTINUOUS
10
153.963
20
-137.012
11
154.153
21
-136.917
0
LINE
8
BLACK
6
CONTINUOUS
10
154.153
20
-136.917
11
154.629
21
-136.917
0
LINE
8
BLACK
6
CONTINUOUS
10
154.629
20
-136.917
11
154.82
21
-137.012
0
LINE
8
BLACK
6
CONTINUOUS
10
154.82
20
-137.012
11
154.915
21
-137.107
0
LINE
8
BLACK
6
CONTINUOUS
10
154.915
20
-137.107
11
155.01
21
-137.298
0
LINE
8
BLACK
6
CONTINUOUS
10
155.01
20
-137.298
11
155.01
21
-137.774
0
LINE
8
BLACK
6
CONTINUOUS
10
155.01
20
-137.774
11
154.915
21
-137.964
0
LINE
8
BLACK
6
CONTINUOUS
10
154.915
20
-137.964
11
154.82
21
-138.06
0
LINE
8
BLACK
6
CONTINUOUS
10
154.82
20
-138.06
11
154.629
21
-138.155
0
LINE
8
BLACK
6
CONTINUOUS
10
154.629
20
-138.155
11
154.153
21
-138.155
0
LINE
8
BLACK
6
CONTINUOUS
10
154.153
20
-138.155
11
153.963
21
-138.06
0
LINE
8
BLACK
6
CONTINUOUS
10
153.963
20
-138.06
11
153.867
21
-137.964
0
LINE
8
BLACK
6
CONTINUOUS
10
156.915
20
-138.155
11
155.772
21
-138.155
0
LINE
8
BLACK
6
CONTINUOUS
10
156.343
20
-138.155
11
156.343
21
-136.155
0
LINE
8
BLACK
6
CONTINUOUS
10
156.343
20
-136.155
11
156.153
21
-136.441
0
LINE
8
BLACK
6
CONTINUOUS
10
156.153
20
-136.441
11
155.963
21
-136.631
0
LINE
8
BLACK
6
CONTINUOUS
10
155.963
20
-136.631
11
155.772
21
-136.726
0
LINE
8
BLACK
6
CONTINUOUS
10
159.296
20
-138.155
11
159.296
21
-136.155
0
LINE
8
BLACK
6
CONTINUOUS
10
160.153
20
-138.155
11
160.153
21
-137.107
0
LINE
8
BLACK
6
CONTINUOUS
10
160.153
20
-137.107
11
160.058
21
-136.917
0
LINE
8
BLACK
6
CONTINUOUS
10
160.058
20
-136.917
11
159.867
21
-136.822
0
LINE
8
BLACK
6
CONTINUOUS
10
159.867
20
-136.822
11
159.582
21
-136.822
0
LINE
8
BLACK
6
CONTINUOUS
10
159.582
20
-136.822
11
159.391
21
-136.917
0
LINE
8
BLACK
6
CONTINUOUS
10
159.391
20
-136.917
11
159.296
21
-137.012
0
LINE
8
BLACK
6
CONTINUOUS
10
161.391
20
-138.155
11
161.201
21
-138.06
0
LINE
8
BLACK
6
CONTINUOUS
10
161.201
20
-138.06
11
161.105
21
-137.964
0
LINE
8
BLACK
6
CONTINUOUS
10
161.105
20
-137.964
11
161.01
21
-137.774
0
LINE
8
BLACK
6
CONTINUOUS
10
161.01
20
-137.774
11
161.01
21
-137.202
0
LINE
8
BLACK
6
CONTINUOUS
10
161.01
20
-137.202
11
161.105
21
-137.012
0
LINE
8
BLACK
6
CONTINUOUS
10
161.105
20
-137.012
11
161.201
21
-136.917
0
LINE
8
BLACK
6
CONTINUOUS
10
161.201
20
-136.917
11
161.391
21
-136.822
0
LINE
8
BLACK
6
CONTINUOUS
10
161.391
20
-136.822
11
161.677
21
-136.822
0
LINE
8
BLACK
6
CONTINUOUS
10
161.677
20
-136.822
11
161.867
21
-136.917
0
LINE
8
BLACK
6
CONTINUOUS
10
161.867
20
-136.917
11
161.963
21
-137.012
0
LINE
8
BLACK
6
CONTINUOUS
10
161.963
20
-137.012
11
162.058
21
-137.202
0
LINE
8
BLACK
6
CONTINUOUS
10
162.058
20
-137.202
11
162.058
21
-137.774
0
LINE
8
BLACK
6
CONTINUOUS
10
162.058
20
-137.774
11
161.963
21
-137.964
0
LINE
8
BLACK
6
CONTINUOUS
10
161.963
20
-137.964
11
161.867
21
-138.06
0
LINE
8
BLACK
6
CONTINUOUS
10
161.867
20
-138.06
11
161.677
21
-138.155
0
LINE
8
BLACK
6
CONTINUOUS
10
161.677
20
-138.155
11
161.391
21
-138.155
0
LINE
8
BLACK
6
CONTINUOUS
10
163.201
20
-138.155
11
163.01
21
-138.06
0
LINE
8
BLACK
6
CONTINUOUS
10
163.01
20
-138.06
11
162.915
21
-137.869
0
LINE
8
BLACK
6
CONTINUOUS
10
162.915
20
-137.869
11
162.915
21
-136.155
0
LINE
8
BLACK
6
CONTINUOUS
10
164.724
20
-138.06
11
164.534
21
-138.155
0
LINE
8
BLACK
6
CONTINUOUS
10
164.534
20
-138.155
11
164.153
21
-138.155
0
LINE
8
BLACK
6
CONTINUOUS
10
164.153
20
-138.155
11
163.963
21
-138.06
0
LINE
8
BLACK
6
CONTINUOUS
10
163.963
20
-138.06
11
163.867
21
-137.869
0
LINE
8
BLACK
6
CONTINUOUS
10
163.867
20
-137.869
11
163.867
21
-137.107
0
LINE
8
BLACK
6
CONTINUOUS
10
163.867
20
-137.107
11
163.963
21
-136.917
0
LINE
8
BLACK
6
CONTINUOUS
10
163.963
20
-136.917
11
164.153
21
-136.822
0
LINE
8
BLACK
6
CONTINUOUS
10
164.153
20
-136.822
11
164.534
21
-136.822
0
LINE
8
BLACK
6
CONTINUOUS
10
164.534
20
-136.822
11
164.724
21
-136.917
0
LINE
8
BLACK
6
CONTINUOUS
10
164.724
20
-136.917
11
164.82
21
-137.107
0
LINE
8
BLACK
6
CONTINUOUS
10
164.82
20
-137.107
11
164.82
21
-137.298
0
LINE
8
BLACK
6
CONTINUOUS
10
164.82
20
-137.298
11
163.867
21
-137.488
0
LINE
8
BLACK
6
CONTINUOUS
10
165.582
20
-138.06
11
165.772
21
-138.155
0
LINE
8
BLACK
6
CONTINUOUS
10
165.772
20
-138.155
11
166.153
21
-138.155
0
LINE
8
BLACK
6
CONTINUOUS
10
166.153
20
-138.155
11
166.343
21
-138.06
0
LINE
8
BLACK
6
CONTINUOUS
10
166.343
20
-138.06
11
166.439
21
-137.869
0
LINE
8
BLACK
6
CONTINUOUS
10
166.439
20
-137.869
11
166.439
21
-137.774
0
LINE
8
BLACK
6
CONTINUOUS
10
166.439
20
-137.774
11
166.343
21
-137.583
0
LINE
8
BLACK
6
CONTINUOUS
10
166.343
20
-137.583
11
166.153
21
-137.488
0
LINE
8
BLACK
6
CONTINUOUS
10
166.153
20
-137.488
11
165.867
21
-137.488
0
LINE
8
BLACK
6
CONTINUOUS
10
165.867
20
-137.488
11
165.677
21
-137.393
0
LINE
8
BLACK
6
CONTINUOUS
10
165.677
20
-137.393
11
165.582
21
-137.202
0
LINE
8
BLACK
6
CONTINUOUS
10
165.582
20
-137.202
11
165.582
21
-137.107
0
LINE
8
BLACK
6
CONTINUOUS
10
165.582
20
-137.107
11
165.677
21
-136.917
0
LINE
8
BLACK
6
CONTINUOUS
10
165.677
20
-136.917
11
165.867
21
-136.822
0
LINE
8
BLACK
6
CONTINUOUS
10
165.867
20
-136.822
11
166.153
21
-136.822
0
LINE
8
BLACK
6
CONTINUOUS
10
166.153
20
-136.822
11
166.343
21
-136.917
0
LINE
8
BLACK
6
CONTINUOUS
10
167.105
20
-138.917
11
167.201
21
-138.822
0
LINE
8
BLACK
6
CONTINUOUS
10
167.201
20
-138.822
11
167.391
21
-138.536
0
LINE
8
BLACK
6
CONTINUOUS
10
167.391
20
-138.536
11
167.486
21
-138.345
0
LINE
8
BLACK
6
CONTINUOUS
10
167.486
20
-138.345
11
167.582
21
-138.06
0
LINE
8
BLACK
6
CONTINUOUS
10
167.582
20
-138.06
11
167.677
21
-137.583
0
LINE
8
BLACK
6
CONTINUOUS
10
167.677
20
-137.583
11
167.677
21
-137.202
0
LINE
8
BLACK
6
CONTINUOUS
10
167.677
20
-137.202
11
167.582
21
-136.726
0
LINE
8
BLACK
6
CONTINUOUS
10
167.582
20
-136.726
11
167.486
21
-136.441
0
LINE
8
BLACK
6
CONTINUOUS
10
167.486
20
-136.441
11
167.391
21
-136.25
0
LINE
8
BLACK
6
CONTINUOUS
10
167.391
20
-136.25
11
167.201
21
-135.964
0
LINE
8
BLACK
6
CONTINUOUS
10
167.201
20
-135.964
11
167.105
21
-135.869
  0
ENDSEC
  0
EOF
