%TF.GenerationSoftware,KiCad,Pcbnew,7.0.8*%
%TF.CreationDate,2024-01-04T13:39:42+01:00*%
%TF.ProjectId,OSSI_CM2,4f535349-5f43-44d3-922e-6b696361645f,rev?*%
%TF.SameCoordinates,Original*%
%TF.FileFunction,Copper,L2,Inr*%
%TF.FilePolarity,Positive*%
%FSLAX46Y46*%
G04 Gerber Fmt 4.6, Leading zero omitted, Abs format (unit mm)*
G04 Created by KiCad (PCBNEW 7.0.8) date 2024-01-04 13:39:42*
%MOMM*%
%LPD*%
G01*
G04 APERTURE LIST*
%TA.AperFunction,ComponentPad*%
%ADD10R,1.700000X1.700000*%
%TD*%
%TA.AperFunction,ComponentPad*%
%ADD11O,1.700000X1.700000*%
%TD*%
%TA.AperFunction,ViaPad*%
%ADD12C,0.700000*%
%TD*%
G04 APERTURE END LIST*
D10*
%TO.N,+3V3*%
%TO.C,X101*%
X131850000Y-126454000D03*
D11*
%TO.N,/SWD_DIO{slash}PA13*%
X131850000Y-123914000D03*
%TO.N,GND*%
X134390000Y-126454000D03*
%TO.N,/SWD_CLK{slash}PA14*%
X134390000Y-123914000D03*
%TO.N,GND*%
X136930000Y-126454000D03*
%TO.N,/TRACE_SWO{slash}PB3*%
X136930000Y-123914000D03*
%TO.N,unconnected-(X101-Pad7)*%
X139470000Y-126454000D03*
%TO.N,Net-(U101B-PH3{slash}BOOT0)*%
X139470000Y-123914000D03*
%TO.N,GND*%
X142010000Y-126454000D03*
%TO.N,Net-(U101B-~{RST})*%
X142010000Y-123914000D03*
%TD*%
D10*
%TO.N,+3V3_ANA*%
%TO.C,X201*%
X119380000Y-77470000D03*
D11*
%TO.N,1V25_REF*%
X119380000Y-80010000D03*
%TO.N,2V50_REF*%
X119380000Y-82550000D03*
%TO.N,AGND*%
X119380000Y-85090000D03*
%TO.N,AC_Grid_Voltage*%
X119380000Y-87630000D03*
%TO.N,Relay_Ctrl_Voltage*%
X119380000Y-90170000D03*
%TO.N,AGND*%
X119380000Y-92710000D03*
%TO.N,DC_Link_Voltage*%
X119380000Y-95250000D03*
%TO.N,AC_Current*%
X119380000Y-97790000D03*
%TO.N,AGND*%
X119380000Y-100330000D03*
%TO.N,AC_Relay_Voltage*%
X119380000Y-102870000D03*
%TO.N,DC_Input_Voltage*%
X119380000Y-105410000D03*
%TO.N,AGND*%
X119380000Y-107950000D03*
%TO.N,DC_Current*%
X119380000Y-110490000D03*
%TO.N,AC_Inverter_Voltage*%
X119380000Y-113030000D03*
%TO.N,AGND*%
X119380000Y-115570000D03*
%TO.N,LED_Red_Ctrl*%
X119380000Y-118110000D03*
%TO.N,LED_Green_Ctrl*%
X119380000Y-120650000D03*
%TO.N,GND*%
X119380000Y-123190000D03*
%TO.N,+3V3*%
X119380000Y-125730000D03*
%TD*%
D10*
%TO.N,GND*%
%TO.C,X202*%
X165100000Y-125730000D03*
D11*
%TO.N,UART_RX*%
X165100000Y-123190000D03*
%TO.N,UART_TX*%
X165100000Y-120650000D03*
%TO.N,GND*%
X165100000Y-118110000D03*
%TO.N,I2C_Dat*%
X165100000Y-115570000D03*
%TO.N,I2C_Clk*%
X165100000Y-113030000D03*
%TO.N,GND*%
X165100000Y-110490000D03*
%TO.N,HISIDE_PWM_\u00B5C*%
X165100000Y-107950000D03*
%TO.N,Boost_T1*%
X165100000Y-105410000D03*
%TO.N,GND*%
X165100000Y-102870000D03*
%TO.N,Relay_Voltage_Ctrl*%
X165100000Y-100330000D03*
%TO.N,Bridge_T1*%
X165100000Y-97790000D03*
%TO.N,GND*%
X165100000Y-95250000D03*
%TO.N,Bridge_T2*%
X165100000Y-92710000D03*
%TO.N,Bridge_T3*%
X165100000Y-90170000D03*
%TO.N,GND*%
X165100000Y-87630000D03*
%TO.N,Bridge_T4*%
X165100000Y-85090000D03*
%TO.N,Inv_Relay_Ctrl*%
X165100000Y-82550000D03*
%TO.N,GND*%
X165100000Y-80010000D03*
%TO.N,Grid_Relay_Ctrl*%
X165100000Y-77470000D03*
%TO.N,GND*%
X165100000Y-74930000D03*
%TD*%
D12*
%TO.N,GND*%
X151925000Y-127025000D03*
X152800000Y-83850000D03*
X145050000Y-95624500D03*
X133100000Y-117797400D03*
X136700000Y-100600000D03*
X141750000Y-91625000D03*
X149425000Y-88450000D03*
X145875000Y-118725000D03*
X134250000Y-105775000D03*
X154850000Y-74204000D03*
X139450000Y-97125000D03*
X139875000Y-88400000D03*
X143300000Y-84025000D03*
X133500000Y-115297400D03*
X153350000Y-121529000D03*
X123400000Y-122304000D03*
X157900000Y-125754000D03*
X143325000Y-104400000D03*
X150900000Y-74254000D03*
X145625000Y-91775000D03*
%TO.N,AGND*%
X136000000Y-83704000D03*
X137225000Y-86075000D03*
X133900000Y-86004000D03*
X124850000Y-81404000D03*
X133700000Y-88900000D03*
X138650000Y-92325000D03*
X135050000Y-74104000D03*
X130343523Y-104875000D03*
X132387023Y-89987024D03*
X128800000Y-95200000D03*
X127650000Y-97100000D03*
X124900000Y-76054000D03*
X137750000Y-97125000D03*
X131028445Y-91528445D03*
X132936800Y-108804000D03*
X140050000Y-79154000D03*
X127850000Y-81804000D03*
X127225000Y-99125000D03*
X128600000Y-104954000D03*
X129800000Y-75054000D03*
%TO.N,+3V3*%
X137750000Y-117797400D03*
X135400000Y-102775000D03*
X125350000Y-125629000D03*
X125350000Y-124804000D03*
X125350000Y-126454000D03*
X156300000Y-120179000D03*
X158700000Y-117154000D03*
X146196978Y-116646978D03*
X143050000Y-103275000D03*
X145269477Y-122894477D03*
X144475000Y-92925000D03*
X158700000Y-111804000D03*
%TO.N,Net-(U101A-PB10{slash}T2Ch3)*%
X145450000Y-103575000D03*
X154725000Y-100400000D03*
%TO.N,Net-(U101A-PB11{slash}T2Ch4)*%
X139475000Y-100500000D03*
X159712500Y-102212500D03*
%TO.N,Net-(U101A-PA8{slash}T1Ch1)*%
X158875000Y-99125000D03*
X143275000Y-107950000D03*
%TO.N,Net-(U101A-PA9{slash}T1Ch2)*%
X157725000Y-101325000D03*
X142475000Y-107200000D03*
%TO.N,Net-(U101A-PA10{slash}T1Ch3)*%
X156825000Y-100425000D03*
X140839444Y-105985556D03*
%TO.N,Net-(U101A-PA11{slash}T1Ch4)*%
X155725000Y-97900000D03*
X140224500Y-104412500D03*
%TO.N,I2C_Clk*%
X144725500Y-111225000D03*
X151725000Y-115875000D03*
%TO.N,I2C_Dat*%
X150325000Y-116704000D03*
X143584668Y-111409668D03*
%TO.N,Net-(U101A-PB2)*%
X126400000Y-118204000D03*
X137725000Y-98675500D03*
%TO.N,Net-(U101A-PB4)*%
X139400000Y-98125000D03*
X126400000Y-120804000D03*
%TO.N,Net-(U101A-PB5)*%
X146625000Y-99024500D03*
X146650000Y-96250000D03*
%TO.N,Net-(U101A-PA12)*%
X147225000Y-80525000D03*
X140450000Y-99850000D03*
%TO.N,Net-(U101A-PA15)*%
X145200000Y-100650000D03*
X148250000Y-79875000D03*
%TO.N,/TRACE_SWO{slash}PB3*%
X153750000Y-100677000D03*
X146900000Y-100375000D03*
%TO.N,UART_RX*%
X162350000Y-121750000D03*
X162350000Y-120034500D03*
%TO.N,Net-(U101B-PH3{slash}BOOT0)*%
X147475000Y-97075000D03*
X147700000Y-99225000D03*
%TO.N,Net-(U101B-~{RST})*%
X149150000Y-101975000D03*
X141550000Y-97225000D03*
%TO.N,+3V3_ANA*%
X138350000Y-79154000D03*
X137836800Y-108804000D03*
%TD*%
%TA.AperFunction,Conductor*%
%TO.N,AGND*%
G36*
X141426456Y-73365546D02*
G01*
X141493422Y-73385476D01*
X141538983Y-73438448D01*
X141550000Y-73489545D01*
X141550000Y-81948311D01*
X141530315Y-82015350D01*
X141513287Y-82036385D01*
X138750000Y-84774999D01*
X138725000Y-91350000D01*
X138725000Y-91350001D01*
X139213681Y-91838681D01*
X139247166Y-91900004D01*
X139250000Y-91926362D01*
X139250000Y-92585636D01*
X139230315Y-92652675D01*
X139227297Y-92657155D01*
X138699999Y-93404000D01*
X138677432Y-97642953D01*
X138660822Y-97704292D01*
X138618749Y-97777165D01*
X138567502Y-97934888D01*
X138563503Y-97947197D01*
X138559113Y-97988964D01*
X138532529Y-98053576D01*
X138475232Y-98093561D01*
X138435793Y-98100000D01*
X138406486Y-98100000D01*
X138339447Y-98080315D01*
X138314339Y-98058976D01*
X138297230Y-98039974D01*
X138152593Y-97934888D01*
X137989267Y-97862171D01*
X137989265Y-97862170D01*
X137861594Y-97835033D01*
X137814391Y-97825000D01*
X137635609Y-97825000D01*
X137604954Y-97831515D01*
X137460733Y-97862170D01*
X137460728Y-97862172D01*
X137297408Y-97934887D01*
X137172825Y-98025403D01*
X137152770Y-98039974D01*
X137135662Y-98058974D01*
X137076177Y-98095621D01*
X137043514Y-98100000D01*
X133475000Y-98100000D01*
X132025000Y-99499999D01*
X132025000Y-99500000D01*
X131800000Y-101400000D01*
X131800000Y-107225000D01*
X138626000Y-107225000D01*
X138693039Y-107244685D01*
X138738794Y-107297489D01*
X138750000Y-107349000D01*
X138750000Y-108224352D01*
X138730315Y-108291391D01*
X138677511Y-108337146D01*
X138608353Y-108347090D01*
X138544797Y-108318065D01*
X138533481Y-108305736D01*
X138533007Y-108306164D01*
X138409035Y-108168478D01*
X138409032Y-108168476D01*
X138409031Y-108168475D01*
X138409030Y-108168474D01*
X138264393Y-108063388D01*
X138101067Y-107990671D01*
X138101065Y-107990670D01*
X137973394Y-107963533D01*
X137926191Y-107953500D01*
X137747409Y-107953500D01*
X137716754Y-107960015D01*
X137572533Y-107990670D01*
X137572528Y-107990672D01*
X137409208Y-108063387D01*
X137264568Y-108168475D01*
X137144940Y-108301336D01*
X137055550Y-108456164D01*
X137055547Y-108456170D01*
X137000304Y-108626192D01*
X137000303Y-108626194D01*
X136981615Y-108804000D01*
X137000303Y-108981805D01*
X137000304Y-108981807D01*
X137055547Y-109151829D01*
X137055550Y-109151835D01*
X137144941Y-109306665D01*
X137153315Y-109315965D01*
X137264564Y-109439521D01*
X137264567Y-109439523D01*
X137264570Y-109439526D01*
X137409207Y-109544612D01*
X137572533Y-109617329D01*
X137747409Y-109654500D01*
X137747410Y-109654500D01*
X137926189Y-109654500D01*
X137926191Y-109654500D01*
X138101067Y-109617329D01*
X138264393Y-109544612D01*
X138409030Y-109439526D01*
X138528659Y-109306665D01*
X138528659Y-109306664D01*
X138533007Y-109301836D01*
X138534972Y-109303606D01*
X138580978Y-109268109D01*
X138650590Y-109262110D01*
X138712394Y-109294698D01*
X138746769Y-109355526D01*
X138750000Y-109383647D01*
X138750000Y-112280000D01*
X138730315Y-112347039D01*
X138677511Y-112392794D01*
X138626000Y-112404000D01*
X135424000Y-112404000D01*
X135356961Y-112384315D01*
X135311206Y-112331511D01*
X135300000Y-112280000D01*
X135300000Y-111903999D01*
X129148424Y-111805574D01*
X129050000Y-111804000D01*
X129049999Y-111804000D01*
X124285873Y-116518500D01*
X124224375Y-116551664D01*
X124199533Y-116554358D01*
X120559765Y-116580215D01*
X120492587Y-116561007D01*
X120446458Y-116508529D01*
X120436024Y-116439443D01*
X120457310Y-116385094D01*
X120553595Y-116247585D01*
X120553599Y-116247579D01*
X120653429Y-116033492D01*
X120653432Y-116033486D01*
X120710636Y-115820000D01*
X119813686Y-115820000D01*
X119839493Y-115779844D01*
X119880000Y-115641889D01*
X119880000Y-115498111D01*
X119839493Y-115360156D01*
X119813686Y-115320000D01*
X120710636Y-115320000D01*
X120710635Y-115319999D01*
X120653432Y-115106513D01*
X120653429Y-115106507D01*
X120553600Y-114892422D01*
X120553599Y-114892420D01*
X120418113Y-114698926D01*
X120418108Y-114698920D01*
X120251078Y-114531890D01*
X120065405Y-114401879D01*
X120021780Y-114347302D01*
X120014588Y-114277804D01*
X120046110Y-114215449D01*
X120065406Y-114198730D01*
X120251401Y-114068495D01*
X120418495Y-113901401D01*
X120554035Y-113707830D01*
X120653903Y-113493663D01*
X120715063Y-113265408D01*
X120735659Y-113030000D01*
X120715063Y-112794592D01*
X120653903Y-112566337D01*
X120554035Y-112352171D01*
X120418495Y-112158599D01*
X120418494Y-112158597D01*
X120251402Y-111991506D01*
X120251396Y-111991501D01*
X120065842Y-111861575D01*
X120022217Y-111806998D01*
X120015023Y-111737500D01*
X120046546Y-111675145D01*
X120065842Y-111658425D01*
X120088026Y-111642891D01*
X120251401Y-111528495D01*
X120418495Y-111361401D01*
X120554035Y-111167830D01*
X120653903Y-110953663D01*
X120715063Y-110725408D01*
X120735659Y-110490000D01*
X120715063Y-110254592D01*
X120653903Y-110026337D01*
X120554035Y-109812171D01*
X120418495Y-109618599D01*
X120418494Y-109618597D01*
X120251402Y-109451506D01*
X120251401Y-109451505D01*
X120065405Y-109321269D01*
X120021781Y-109266692D01*
X120014588Y-109197193D01*
X120046110Y-109134839D01*
X120065405Y-109118119D01*
X120251082Y-108988105D01*
X120418105Y-108821082D01*
X120553600Y-108627578D01*
X120653429Y-108413492D01*
X120653432Y-108413486D01*
X120710636Y-108200000D01*
X119813686Y-108200000D01*
X119839493Y-108159844D01*
X119880000Y-108021889D01*
X119880000Y-107878111D01*
X119839493Y-107740156D01*
X119813686Y-107700000D01*
X120710636Y-107700000D01*
X120710635Y-107699999D01*
X120653432Y-107486513D01*
X120653429Y-107486507D01*
X120553600Y-107272422D01*
X120553599Y-107272420D01*
X120418113Y-107078926D01*
X120418108Y-107078920D01*
X120251078Y-106911890D01*
X120065405Y-106781879D01*
X120021780Y-106727302D01*
X120014588Y-106657804D01*
X120046110Y-106595449D01*
X120065406Y-106578730D01*
X120194666Y-106488221D01*
X120251401Y-106448495D01*
X120418495Y-106281401D01*
X120554035Y-106087830D01*
X120653903Y-105873663D01*
X120715063Y-105645408D01*
X120735659Y-105410000D01*
X120715063Y-105174592D01*
X120653903Y-104946337D01*
X120554035Y-104732171D01*
X120454699Y-104590303D01*
X120418494Y-104538597D01*
X120251402Y-104371506D01*
X120251396Y-104371501D01*
X120065842Y-104241575D01*
X120022217Y-104186998D01*
X120015023Y-104117500D01*
X120046546Y-104055145D01*
X120065842Y-104038425D01*
X120249487Y-103909835D01*
X120251401Y-103908495D01*
X120418495Y-103741401D01*
X120554035Y-103547830D01*
X120653903Y-103333663D01*
X120715063Y-103105408D01*
X120735659Y-102870000D01*
X120715063Y-102634592D01*
X120653903Y-102406337D01*
X120554035Y-102192171D01*
X120517137Y-102139474D01*
X120418494Y-101998597D01*
X120251402Y-101831506D01*
X120251401Y-101831505D01*
X120065405Y-101701269D01*
X120021781Y-101646692D01*
X120014588Y-101577193D01*
X120046110Y-101514839D01*
X120065405Y-101498119D01*
X120251082Y-101368105D01*
X120418105Y-101201082D01*
X120553600Y-101007578D01*
X120653429Y-100793492D01*
X120653432Y-100793486D01*
X120710636Y-100580000D01*
X119813686Y-100580000D01*
X119839493Y-100539844D01*
X119880000Y-100401889D01*
X119880000Y-100258111D01*
X119839493Y-100120156D01*
X119813686Y-100080000D01*
X120710636Y-100080000D01*
X120710635Y-100079999D01*
X120653432Y-99866513D01*
X120653429Y-99866507D01*
X120553600Y-99652422D01*
X120553599Y-99652420D01*
X120418113Y-99458926D01*
X120418108Y-99458920D01*
X120251078Y-99291890D01*
X120065405Y-99161879D01*
X120021780Y-99107302D01*
X120014588Y-99037804D01*
X120046110Y-98975449D01*
X120065406Y-98958730D01*
X120198392Y-98865612D01*
X120251401Y-98828495D01*
X120418495Y-98661401D01*
X120554035Y-98467830D01*
X120653903Y-98253663D01*
X120715063Y-98025408D01*
X120735659Y-97790000D01*
X120715063Y-97554592D01*
X120653903Y-97326337D01*
X120554035Y-97112171D01*
X120475280Y-96999696D01*
X120418494Y-96918597D01*
X120251402Y-96751506D01*
X120251396Y-96751501D01*
X120065842Y-96621575D01*
X120022217Y-96566998D01*
X120015023Y-96497500D01*
X120046546Y-96435145D01*
X120065842Y-96418425D01*
X120128573Y-96374500D01*
X120251401Y-96288495D01*
X120418495Y-96121401D01*
X120554035Y-95927830D01*
X120653903Y-95713663D01*
X120715063Y-95485408D01*
X120735659Y-95250000D01*
X120715063Y-95014592D01*
X120653903Y-94786337D01*
X120554035Y-94572171D01*
X120418495Y-94378599D01*
X120418494Y-94378597D01*
X120251402Y-94211506D01*
X120251401Y-94211505D01*
X120065405Y-94081269D01*
X120021781Y-94026692D01*
X120014588Y-93957193D01*
X120046110Y-93894839D01*
X120065405Y-93878119D01*
X120251082Y-93748105D01*
X120418105Y-93581082D01*
X120553600Y-93387578D01*
X120653429Y-93173492D01*
X120653432Y-93173486D01*
X120710636Y-92960000D01*
X119813686Y-92960000D01*
X119839493Y-92919844D01*
X119880000Y-92781889D01*
X119880000Y-92638111D01*
X119839493Y-92500156D01*
X119813686Y-92460000D01*
X120710636Y-92460000D01*
X120710635Y-92459999D01*
X120653432Y-92246513D01*
X120653429Y-92246507D01*
X120553600Y-92032422D01*
X120553599Y-92032420D01*
X120418113Y-91838926D01*
X120418108Y-91838920D01*
X120251078Y-91671890D01*
X120065405Y-91541879D01*
X120021780Y-91487302D01*
X120014588Y-91417804D01*
X120046110Y-91355449D01*
X120065406Y-91338730D01*
X120125074Y-91296950D01*
X120251401Y-91208495D01*
X120418495Y-91041401D01*
X120554035Y-90847830D01*
X120653903Y-90633663D01*
X120715063Y-90405408D01*
X120735659Y-90170000D01*
X120715063Y-89934592D01*
X120653903Y-89706337D01*
X120554035Y-89492171D01*
X120418495Y-89298599D01*
X120418494Y-89298597D01*
X120251402Y-89131506D01*
X120251396Y-89131501D01*
X120065842Y-89001575D01*
X120022217Y-88946998D01*
X120015023Y-88877500D01*
X120046546Y-88815145D01*
X120065842Y-88798425D01*
X120088026Y-88782891D01*
X120251401Y-88668495D01*
X120418495Y-88501401D01*
X120554035Y-88307830D01*
X120653903Y-88093663D01*
X120715063Y-87865408D01*
X120735659Y-87630000D01*
X120715063Y-87394592D01*
X120653903Y-87166337D01*
X120554035Y-86952171D01*
X120418495Y-86758599D01*
X120418494Y-86758597D01*
X120251402Y-86591506D01*
X120251401Y-86591505D01*
X120065405Y-86461269D01*
X120021781Y-86406692D01*
X120014588Y-86337193D01*
X120046110Y-86274839D01*
X120065405Y-86258119D01*
X120251082Y-86128105D01*
X120418105Y-85961082D01*
X120553600Y-85767578D01*
X120653429Y-85553492D01*
X120653432Y-85553486D01*
X120710636Y-85340000D01*
X119813686Y-85340000D01*
X119839493Y-85299844D01*
X119880000Y-85161889D01*
X119880000Y-85018111D01*
X119839493Y-84880156D01*
X119813686Y-84840000D01*
X120710636Y-84840000D01*
X120710635Y-84839999D01*
X120653432Y-84626513D01*
X120653429Y-84626507D01*
X120553600Y-84412422D01*
X120553599Y-84412420D01*
X120418113Y-84218926D01*
X120418108Y-84218920D01*
X120251078Y-84051890D01*
X120065405Y-83921879D01*
X120021780Y-83867302D01*
X120014588Y-83797804D01*
X120046110Y-83735449D01*
X120065406Y-83718730D01*
X120251401Y-83588495D01*
X120418495Y-83421401D01*
X120554035Y-83227830D01*
X120653903Y-83013663D01*
X120715063Y-82785408D01*
X120735659Y-82550000D01*
X120715063Y-82314592D01*
X120653903Y-82086337D01*
X120554035Y-81872171D01*
X120418495Y-81678599D01*
X120418494Y-81678597D01*
X120251402Y-81511506D01*
X120251396Y-81511501D01*
X120065842Y-81381575D01*
X120022217Y-81326998D01*
X120015023Y-81257500D01*
X120046546Y-81195145D01*
X120065842Y-81178425D01*
X120088026Y-81162891D01*
X120251401Y-81048495D01*
X120418495Y-80881401D01*
X120554035Y-80687830D01*
X120653903Y-80473663D01*
X120715063Y-80245408D01*
X120735659Y-80010000D01*
X120715063Y-79774592D01*
X120653903Y-79546337D01*
X120554035Y-79332171D01*
X120553780Y-79331807D01*
X120429279Y-79154000D01*
X137494815Y-79154000D01*
X137513503Y-79331805D01*
X137513504Y-79331807D01*
X137568747Y-79501829D01*
X137568750Y-79501835D01*
X137658141Y-79656665D01*
X137699812Y-79702946D01*
X137777764Y-79789521D01*
X137777767Y-79789523D01*
X137777770Y-79789526D01*
X137922407Y-79894612D01*
X138085733Y-79967329D01*
X138260609Y-80004500D01*
X138260610Y-80004500D01*
X138439389Y-80004500D01*
X138439391Y-80004500D01*
X138614267Y-79967329D01*
X138777593Y-79894612D01*
X138922230Y-79789526D01*
X139041859Y-79656665D01*
X139131250Y-79501835D01*
X139186497Y-79331803D01*
X139205185Y-79154000D01*
X139186497Y-78976197D01*
X139135908Y-78820500D01*
X139131252Y-78806170D01*
X139131249Y-78806164D01*
X139041859Y-78651335D01*
X138961723Y-78562335D01*
X138922235Y-78518478D01*
X138922232Y-78518476D01*
X138922231Y-78518475D01*
X138922230Y-78518474D01*
X138777593Y-78413388D01*
X138614267Y-78340671D01*
X138614265Y-78340670D01*
X138486594Y-78313533D01*
X138439391Y-78303500D01*
X138260609Y-78303500D01*
X138229954Y-78310015D01*
X138085733Y-78340670D01*
X138085728Y-78340672D01*
X137922408Y-78413387D01*
X137777768Y-78518475D01*
X137658140Y-78651336D01*
X137568750Y-78806164D01*
X137568747Y-78806170D01*
X137513504Y-78976192D01*
X137513503Y-78976194D01*
X137494815Y-79154000D01*
X120429279Y-79154000D01*
X120418496Y-79138600D01*
X120418495Y-79138599D01*
X120296567Y-79016671D01*
X120263084Y-78955351D01*
X120268068Y-78885659D01*
X120309939Y-78829725D01*
X120340915Y-78812810D01*
X120472331Y-78763796D01*
X120587546Y-78677546D01*
X120673796Y-78562331D01*
X120724091Y-78427483D01*
X120730500Y-78367873D01*
X120730499Y-76572128D01*
X120724091Y-76512517D01*
X120673796Y-76377669D01*
X120673795Y-76377668D01*
X120673793Y-76377664D01*
X120587547Y-76262455D01*
X120587544Y-76262452D01*
X120472335Y-76176206D01*
X120472328Y-76176202D01*
X120337482Y-76125908D01*
X120337483Y-76125908D01*
X120277883Y-76119501D01*
X120277881Y-76119500D01*
X120277873Y-76119500D01*
X120277864Y-76119500D01*
X118482129Y-76119500D01*
X118482123Y-76119501D01*
X118422516Y-76125908D01*
X118287671Y-76176202D01*
X118287664Y-76176206D01*
X118172455Y-76262452D01*
X118172452Y-76262455D01*
X118086206Y-76377664D01*
X118086202Y-76377671D01*
X118035908Y-76512517D01*
X118029501Y-76572116D01*
X118029501Y-76572123D01*
X118029500Y-76572135D01*
X118029500Y-78367870D01*
X118029501Y-78367876D01*
X118035908Y-78427483D01*
X118086202Y-78562328D01*
X118086206Y-78562335D01*
X118172452Y-78677544D01*
X118172455Y-78677547D01*
X118287664Y-78763793D01*
X118287671Y-78763797D01*
X118419081Y-78812810D01*
X118475015Y-78854681D01*
X118499432Y-78920145D01*
X118484580Y-78988418D01*
X118463430Y-79016673D01*
X118341503Y-79138600D01*
X118205965Y-79332169D01*
X118205964Y-79332171D01*
X118106098Y-79546335D01*
X118106094Y-79546344D01*
X118044938Y-79774586D01*
X118044936Y-79774596D01*
X118024341Y-80009999D01*
X118024341Y-80010000D01*
X118044936Y-80245403D01*
X118044938Y-80245413D01*
X118106094Y-80473655D01*
X118106096Y-80473659D01*
X118106097Y-80473663D01*
X118205965Y-80687830D01*
X118205967Y-80687834D01*
X118341501Y-80881395D01*
X118341506Y-80881402D01*
X118508597Y-81048493D01*
X118508603Y-81048498D01*
X118694158Y-81178425D01*
X118737783Y-81233002D01*
X118744977Y-81302500D01*
X118713454Y-81364855D01*
X118694158Y-81381575D01*
X118508597Y-81511505D01*
X118341505Y-81678597D01*
X118205965Y-81872169D01*
X118205964Y-81872171D01*
X118106098Y-82086335D01*
X118106094Y-82086344D01*
X118044938Y-82314586D01*
X118044936Y-82314596D01*
X118024341Y-82549999D01*
X118024341Y-82550000D01*
X118044936Y-82785403D01*
X118044938Y-82785413D01*
X118106094Y-83013655D01*
X118106096Y-83013659D01*
X118106097Y-83013663D01*
X118205965Y-83227830D01*
X118205967Y-83227834D01*
X118341501Y-83421395D01*
X118341506Y-83421402D01*
X118508597Y-83588493D01*
X118508603Y-83588498D01*
X118694594Y-83718730D01*
X118738219Y-83773307D01*
X118745413Y-83842805D01*
X118713890Y-83905160D01*
X118694595Y-83921880D01*
X118508922Y-84051890D01*
X118508920Y-84051891D01*
X118341891Y-84218920D01*
X118341886Y-84218926D01*
X118206400Y-84412420D01*
X118206399Y-84412422D01*
X118106570Y-84626507D01*
X118106567Y-84626513D01*
X118049364Y-84839999D01*
X118049364Y-84840000D01*
X118946314Y-84840000D01*
X118920507Y-84880156D01*
X118880000Y-85018111D01*
X118880000Y-85161889D01*
X118920507Y-85299844D01*
X118946314Y-85340000D01*
X118049364Y-85340000D01*
X118106567Y-85553486D01*
X118106570Y-85553492D01*
X118206399Y-85767578D01*
X118341894Y-85961082D01*
X118508917Y-86128105D01*
X118694595Y-86258119D01*
X118738219Y-86312696D01*
X118745412Y-86382195D01*
X118713890Y-86444549D01*
X118694595Y-86461269D01*
X118508594Y-86591508D01*
X118341505Y-86758597D01*
X118205965Y-86952169D01*
X118205964Y-86952171D01*
X118106098Y-87166335D01*
X118106094Y-87166344D01*
X118044938Y-87394586D01*
X118044936Y-87394596D01*
X118024341Y-87629999D01*
X118024341Y-87630000D01*
X118044936Y-87865403D01*
X118044938Y-87865413D01*
X118106094Y-88093655D01*
X118106096Y-88093659D01*
X118106097Y-88093663D01*
X118137804Y-88161658D01*
X118205965Y-88307830D01*
X118205967Y-88307834D01*
X118341501Y-88501395D01*
X118341506Y-88501402D01*
X118508597Y-88668493D01*
X118508603Y-88668498D01*
X118694158Y-88798425D01*
X118737783Y-88853002D01*
X118744977Y-88922500D01*
X118713454Y-88984855D01*
X118694158Y-89001575D01*
X118508597Y-89131505D01*
X118341505Y-89298597D01*
X118205965Y-89492169D01*
X118205964Y-89492171D01*
X118106098Y-89706335D01*
X118106094Y-89706344D01*
X118044938Y-89934586D01*
X118044936Y-89934596D01*
X118024341Y-90169999D01*
X118024341Y-90170000D01*
X118044936Y-90405403D01*
X118044938Y-90405413D01*
X118106094Y-90633655D01*
X118106096Y-90633659D01*
X118106097Y-90633663D01*
X118205965Y-90847830D01*
X118205967Y-90847834D01*
X118341501Y-91041395D01*
X118341506Y-91041402D01*
X118508597Y-91208493D01*
X118508603Y-91208498D01*
X118694594Y-91338730D01*
X118738219Y-91393307D01*
X118745413Y-91462805D01*
X118713890Y-91525160D01*
X118694595Y-91541880D01*
X118508922Y-91671890D01*
X118508920Y-91671891D01*
X118341891Y-91838920D01*
X118341886Y-91838926D01*
X118206400Y-92032420D01*
X118206399Y-92032422D01*
X118106570Y-92246507D01*
X118106567Y-92246513D01*
X118049364Y-92459999D01*
X118049364Y-92460000D01*
X118946314Y-92460000D01*
X118920507Y-92500156D01*
X118880000Y-92638111D01*
X118880000Y-92781889D01*
X118920507Y-92919844D01*
X118946314Y-92960000D01*
X118049364Y-92960000D01*
X118106567Y-93173486D01*
X118106570Y-93173492D01*
X118206399Y-93387578D01*
X118341894Y-93581082D01*
X118508917Y-93748105D01*
X118694595Y-93878119D01*
X118738219Y-93932696D01*
X118745412Y-94002195D01*
X118713890Y-94064549D01*
X118694595Y-94081269D01*
X118508594Y-94211508D01*
X118341505Y-94378597D01*
X118205965Y-94572169D01*
X118205964Y-94572171D01*
X118106098Y-94786335D01*
X118106094Y-94786344D01*
X118044938Y-95014586D01*
X118044936Y-95014596D01*
X118024341Y-95249999D01*
X118024341Y-95250000D01*
X118044936Y-95485403D01*
X118044938Y-95485413D01*
X118106094Y-95713655D01*
X118106096Y-95713659D01*
X118106097Y-95713663D01*
X118205965Y-95927830D01*
X118205967Y-95927834D01*
X118341501Y-96121395D01*
X118341506Y-96121402D01*
X118508597Y-96288493D01*
X118508603Y-96288498D01*
X118694158Y-96418425D01*
X118737783Y-96473002D01*
X118744977Y-96542500D01*
X118713454Y-96604855D01*
X118694158Y-96621575D01*
X118508597Y-96751505D01*
X118341505Y-96918597D01*
X118205965Y-97112169D01*
X118205964Y-97112171D01*
X118106098Y-97326335D01*
X118106094Y-97326344D01*
X118044938Y-97554586D01*
X118044936Y-97554596D01*
X118024341Y-97789999D01*
X118024341Y-97790000D01*
X118044936Y-98025403D01*
X118044938Y-98025413D01*
X118106094Y-98253655D01*
X118106096Y-98253659D01*
X118106097Y-98253663D01*
X118140605Y-98327665D01*
X118205965Y-98467830D01*
X118205967Y-98467834D01*
X118341501Y-98661395D01*
X118341506Y-98661402D01*
X118508597Y-98828493D01*
X118508603Y-98828498D01*
X118694594Y-98958730D01*
X118738219Y-99013307D01*
X118745413Y-99082805D01*
X118713890Y-99145160D01*
X118694595Y-99161880D01*
X118508922Y-99291890D01*
X118508920Y-99291891D01*
X118341891Y-99458920D01*
X118341886Y-99458926D01*
X118206400Y-99652420D01*
X118206399Y-99652422D01*
X118106570Y-99866507D01*
X118106567Y-99866513D01*
X118049364Y-100079999D01*
X118049364Y-100080000D01*
X118946314Y-100080000D01*
X118920507Y-100120156D01*
X118880000Y-100258111D01*
X118880000Y-100401889D01*
X118920507Y-100539844D01*
X118946314Y-100580000D01*
X118049364Y-100580000D01*
X118106567Y-100793486D01*
X118106570Y-100793492D01*
X118206399Y-101007578D01*
X118341894Y-101201082D01*
X118508917Y-101368105D01*
X118694595Y-101498119D01*
X118738219Y-101552696D01*
X118745412Y-101622195D01*
X118713890Y-101684549D01*
X118694595Y-101701269D01*
X118508594Y-101831508D01*
X118341505Y-101998597D01*
X118205965Y-102192169D01*
X118205964Y-102192171D01*
X118106098Y-102406335D01*
X118106094Y-102406344D01*
X118044938Y-102634586D01*
X118044936Y-102634596D01*
X118024341Y-102869999D01*
X118024341Y-102870000D01*
X118044936Y-103105403D01*
X118044938Y-103105413D01*
X118106094Y-103333655D01*
X118106096Y-103333659D01*
X118106097Y-103333663D01*
X118205965Y-103547830D01*
X118205967Y-103547834D01*
X118341501Y-103741395D01*
X118341506Y-103741402D01*
X118508597Y-103908493D01*
X118508603Y-103908498D01*
X118694158Y-104038425D01*
X118737783Y-104093002D01*
X118744977Y-104162500D01*
X118713454Y-104224855D01*
X118694158Y-104241575D01*
X118508597Y-104371505D01*
X118341505Y-104538597D01*
X118205965Y-104732169D01*
X118205964Y-104732171D01*
X118106098Y-104946335D01*
X118106094Y-104946344D01*
X118044938Y-105174586D01*
X118044936Y-105174596D01*
X118024341Y-105409999D01*
X118024341Y-105410000D01*
X118044936Y-105645403D01*
X118044938Y-105645413D01*
X118106094Y-105873655D01*
X118106096Y-105873659D01*
X118106097Y-105873663D01*
X118118520Y-105900304D01*
X118205965Y-106087830D01*
X118205967Y-106087834D01*
X118341501Y-106281395D01*
X118341506Y-106281402D01*
X118508597Y-106448493D01*
X118508603Y-106448498D01*
X118694594Y-106578730D01*
X118738219Y-106633307D01*
X118745413Y-106702805D01*
X118713890Y-106765160D01*
X118694595Y-106781880D01*
X118508922Y-106911890D01*
X118508920Y-106911891D01*
X118341891Y-107078920D01*
X118341886Y-107078926D01*
X118206400Y-107272420D01*
X118206399Y-107272422D01*
X118106570Y-107486507D01*
X118106567Y-107486513D01*
X118049364Y-107699999D01*
X118049364Y-107700000D01*
X118946314Y-107700000D01*
X118920507Y-107740156D01*
X118880000Y-107878111D01*
X118880000Y-108021889D01*
X118920507Y-108159844D01*
X118946314Y-108200000D01*
X118049364Y-108200000D01*
X118106567Y-108413486D01*
X118106570Y-108413492D01*
X118206399Y-108627578D01*
X118341894Y-108821082D01*
X118508917Y-108988105D01*
X118694595Y-109118119D01*
X118738219Y-109172696D01*
X118745412Y-109242195D01*
X118713890Y-109304549D01*
X118694595Y-109321269D01*
X118508594Y-109451508D01*
X118341505Y-109618597D01*
X118205965Y-109812169D01*
X118205964Y-109812171D01*
X118106098Y-110026335D01*
X118106094Y-110026344D01*
X118044938Y-110254586D01*
X118044936Y-110254596D01*
X118024341Y-110489999D01*
X118024341Y-110490000D01*
X118044936Y-110725403D01*
X118044938Y-110725413D01*
X118106094Y-110953655D01*
X118106096Y-110953659D01*
X118106097Y-110953663D01*
X118205965Y-111167830D01*
X118205967Y-111167834D01*
X118341501Y-111361395D01*
X118341506Y-111361402D01*
X118508597Y-111528493D01*
X118508603Y-111528498D01*
X118694158Y-111658425D01*
X118737783Y-111713002D01*
X118744977Y-111782500D01*
X118713454Y-111844855D01*
X118694158Y-111861575D01*
X118508597Y-111991505D01*
X118341505Y-112158597D01*
X118205965Y-112352169D01*
X118205964Y-112352171D01*
X118106098Y-112566335D01*
X118106094Y-112566344D01*
X118044938Y-112794586D01*
X118044936Y-112794596D01*
X118024341Y-113029999D01*
X118024341Y-113030000D01*
X118044936Y-113265403D01*
X118044938Y-113265413D01*
X118106094Y-113493655D01*
X118106096Y-113493659D01*
X118106097Y-113493663D01*
X118205965Y-113707830D01*
X118205967Y-113707834D01*
X118341501Y-113901395D01*
X118341506Y-113901402D01*
X118508597Y-114068493D01*
X118508603Y-114068498D01*
X118694594Y-114198730D01*
X118738219Y-114253307D01*
X118745413Y-114322805D01*
X118713890Y-114385160D01*
X118694595Y-114401880D01*
X118508922Y-114531890D01*
X118508920Y-114531891D01*
X118341891Y-114698920D01*
X118341886Y-114698926D01*
X118206400Y-114892420D01*
X118206399Y-114892422D01*
X118106570Y-115106507D01*
X118106567Y-115106513D01*
X118049364Y-115319999D01*
X118049364Y-115320000D01*
X118946314Y-115320000D01*
X118920507Y-115360156D01*
X118880000Y-115498111D01*
X118880000Y-115641889D01*
X118920507Y-115779844D01*
X118946314Y-115820000D01*
X118049364Y-115820000D01*
X118106567Y-116033486D01*
X118106570Y-116033492D01*
X118206400Y-116247579D01*
X118206404Y-116247585D01*
X118314360Y-116401761D01*
X118336688Y-116467967D01*
X118319678Y-116535734D01*
X118268730Y-116583548D01*
X118213667Y-116596882D01*
X117625381Y-116601061D01*
X117558203Y-116581853D01*
X117512074Y-116529375D01*
X117500500Y-116477064D01*
X117500500Y-75651348D01*
X117520185Y-75584309D01*
X117536550Y-75563935D01*
X119763844Y-73323084D01*
X119825065Y-73289414D01*
X119851791Y-73286500D01*
X119888378Y-73286500D01*
X141426456Y-73365546D01*
G37*
%TD.AperFunction*%
%TD*%
%TA.AperFunction,Conductor*%
%TO.N,GND*%
G36*
X136470507Y-126244156D02*
G01*
X136430000Y-126382111D01*
X136430000Y-126525889D01*
X136470507Y-126663844D01*
X136496314Y-126704000D01*
X134823686Y-126704000D01*
X134849493Y-126663844D01*
X134890000Y-126525889D01*
X134890000Y-126382111D01*
X134849493Y-126244156D01*
X134823686Y-126204000D01*
X136496314Y-126204000D01*
X136470507Y-126244156D01*
G37*
%TD.AperFunction*%
%TA.AperFunction,Conductor*%
G36*
X166942539Y-73306185D02*
G01*
X166988294Y-73358989D01*
X166999500Y-73410500D01*
X166999500Y-128025500D01*
X166979815Y-128092539D01*
X166927011Y-128138294D01*
X166875500Y-128149500D01*
X117624500Y-128149500D01*
X117557461Y-128129815D01*
X117511706Y-128077011D01*
X117500500Y-128025500D01*
X117500500Y-117228000D01*
X117520185Y-117160961D01*
X117572989Y-117115206D01*
X117624500Y-117104000D01*
X118197550Y-117104000D01*
X118264589Y-117123685D01*
X118310344Y-117176489D01*
X118320288Y-117245647D01*
X118299125Y-117299123D01*
X118205965Y-117432169D01*
X118205964Y-117432171D01*
X118106098Y-117646335D01*
X118106094Y-117646344D01*
X118044938Y-117874586D01*
X118044936Y-117874596D01*
X118024341Y-118109999D01*
X118024341Y-118110000D01*
X118044936Y-118345403D01*
X118044938Y-118345413D01*
X118106094Y-118573655D01*
X118106096Y-118573659D01*
X118106097Y-118573663D01*
X118168116Y-118706663D01*
X118205965Y-118787830D01*
X118205967Y-118787834D01*
X118341501Y-118981395D01*
X118341506Y-118981402D01*
X118508597Y-119148493D01*
X118508603Y-119148498D01*
X118694158Y-119278425D01*
X118737783Y-119333002D01*
X118744977Y-119402500D01*
X118713454Y-119464855D01*
X118694158Y-119481575D01*
X118508597Y-119611505D01*
X118341505Y-119778597D01*
X118205965Y-119972169D01*
X118205964Y-119972171D01*
X118106098Y-120186335D01*
X118106094Y-120186344D01*
X118044938Y-120414586D01*
X118044936Y-120414596D01*
X118024341Y-120649999D01*
X118024341Y-120650000D01*
X118044936Y-120885403D01*
X118044938Y-120885413D01*
X118106094Y-121113655D01*
X118106096Y-121113659D01*
X118106097Y-121113663D01*
X118168430Y-121247336D01*
X118205965Y-121327830D01*
X118205967Y-121327834D01*
X118341501Y-121521395D01*
X118341506Y-121521402D01*
X118508597Y-121688493D01*
X118508603Y-121688498D01*
X118694594Y-121818730D01*
X118738219Y-121873307D01*
X118745413Y-121942805D01*
X118713890Y-122005160D01*
X118694595Y-122021880D01*
X118508922Y-122151890D01*
X118508920Y-122151891D01*
X118341891Y-122318920D01*
X118341886Y-122318926D01*
X118206400Y-122512420D01*
X118206399Y-122512422D01*
X118106570Y-122726507D01*
X118106567Y-122726513D01*
X118049364Y-122939999D01*
X118049364Y-122940000D01*
X118946314Y-122940000D01*
X118920507Y-122980156D01*
X118880000Y-123118111D01*
X118880000Y-123261889D01*
X118920507Y-123399844D01*
X118946314Y-123440000D01*
X118049364Y-123440000D01*
X118106567Y-123653486D01*
X118106570Y-123653492D01*
X118206399Y-123867578D01*
X118341894Y-124061082D01*
X118508917Y-124228105D01*
X118694595Y-124358119D01*
X118738219Y-124412696D01*
X118745412Y-124482195D01*
X118713890Y-124544549D01*
X118694595Y-124561269D01*
X118508594Y-124691508D01*
X118341505Y-124858597D01*
X118205965Y-125052169D01*
X118205964Y-125052171D01*
X118106098Y-125266335D01*
X118106094Y-125266344D01*
X118044938Y-125494586D01*
X118044936Y-125494596D01*
X118024341Y-125729999D01*
X118024341Y-125730000D01*
X118044936Y-125965403D01*
X118044938Y-125965413D01*
X118106094Y-126193655D01*
X118106096Y-126193659D01*
X118106097Y-126193663D01*
X118144720Y-126276489D01*
X118205965Y-126407830D01*
X118205967Y-126407834D01*
X118288631Y-126525889D01*
X118341505Y-126601401D01*
X118508599Y-126768495D01*
X118585135Y-126822086D01*
X118702165Y-126904032D01*
X118702167Y-126904033D01*
X118702170Y-126904035D01*
X118916337Y-127003903D01*
X119144592Y-127065063D01*
X119315319Y-127080000D01*
X119379999Y-127085659D01*
X119380000Y-127085659D01*
X119380001Y-127085659D01*
X119444681Y-127080000D01*
X119615408Y-127065063D01*
X119843663Y-127003903D01*
X120057830Y-126904035D01*
X120251401Y-126768495D01*
X120418495Y-126601401D01*
X120521706Y-126454000D01*
X124494815Y-126454000D01*
X124513503Y-126631805D01*
X124513504Y-126631807D01*
X124568747Y-126801829D01*
X124568750Y-126801835D01*
X124658141Y-126956665D01*
X124699812Y-127002946D01*
X124777764Y-127089521D01*
X124777767Y-127089523D01*
X124777770Y-127089526D01*
X124922407Y-127194612D01*
X125085733Y-127267329D01*
X125260609Y-127304500D01*
X125260610Y-127304500D01*
X125439389Y-127304500D01*
X125439391Y-127304500D01*
X125614267Y-127267329D01*
X125777593Y-127194612D01*
X125922230Y-127089526D01*
X125923076Y-127088587D01*
X125948148Y-127060741D01*
X126041859Y-126956665D01*
X126131250Y-126801835D01*
X126186497Y-126631803D01*
X126205185Y-126454000D01*
X126186497Y-126276197D01*
X126131250Y-126106165D01*
X126129713Y-126103503D01*
X126129291Y-126101765D01*
X126128608Y-126100230D01*
X126128888Y-126100105D01*
X126113238Y-126035607D01*
X126128735Y-125982826D01*
X126128608Y-125982770D01*
X126129031Y-125981819D01*
X126129713Y-125979496D01*
X126131250Y-125976835D01*
X126186497Y-125806803D01*
X126205185Y-125629000D01*
X126186497Y-125451197D01*
X126131250Y-125281165D01*
X126129713Y-125278503D01*
X126129291Y-125276765D01*
X126128608Y-125275230D01*
X126128888Y-125275105D01*
X126113238Y-125210607D01*
X126128735Y-125157826D01*
X126128608Y-125157770D01*
X126129031Y-125156819D01*
X126129713Y-125154496D01*
X126131250Y-125151835D01*
X126186497Y-124981803D01*
X126205185Y-124804000D01*
X126186497Y-124626197D01*
X126139708Y-124482195D01*
X126131252Y-124456170D01*
X126131249Y-124456164D01*
X126041859Y-124301335D01*
X125991168Y-124245037D01*
X125922235Y-124168478D01*
X125922232Y-124168476D01*
X125922231Y-124168475D01*
X125922230Y-124168474D01*
X125777593Y-124063388D01*
X125614267Y-123990671D01*
X125614265Y-123990670D01*
X125486594Y-123963533D01*
X125439391Y-123953500D01*
X125260609Y-123953500D01*
X125229954Y-123960015D01*
X125085733Y-123990670D01*
X125085728Y-123990672D01*
X124922408Y-124063387D01*
X124777768Y-124168475D01*
X124658140Y-124301336D01*
X124568750Y-124456164D01*
X124568747Y-124456170D01*
X124513504Y-124626192D01*
X124513503Y-124626194D01*
X124494815Y-124804000D01*
X124513503Y-124981805D01*
X124513504Y-124981807D01*
X124568750Y-125151836D01*
X124570288Y-125154500D01*
X124570709Y-125156238D01*
X124571393Y-125157773D01*
X124571112Y-125157897D01*
X124586761Y-125222400D01*
X124571265Y-125275170D01*
X124571393Y-125275227D01*
X124570970Y-125276176D01*
X124570288Y-125278500D01*
X124568750Y-125281163D01*
X124513504Y-125451192D01*
X124513503Y-125451194D01*
X124494815Y-125629000D01*
X124513503Y-125806805D01*
X124513504Y-125806807D01*
X124568750Y-125976836D01*
X124570288Y-125979500D01*
X124570709Y-125981238D01*
X124571393Y-125982773D01*
X124571112Y-125982897D01*
X124586761Y-126047400D01*
X124571265Y-126100170D01*
X124571393Y-126100227D01*
X124570970Y-126101176D01*
X124570288Y-126103500D01*
X124568750Y-126106163D01*
X124513504Y-126276192D01*
X124513503Y-126276194D01*
X124494815Y-126454000D01*
X120521706Y-126454000D01*
X120554035Y-126407830D01*
X120653903Y-126193663D01*
X120715063Y-125965408D01*
X120735659Y-125730000D01*
X120715063Y-125494592D01*
X120664275Y-125305048D01*
X120653905Y-125266344D01*
X120653904Y-125266343D01*
X120653903Y-125266337D01*
X120554035Y-125052171D01*
X120544352Y-125038341D01*
X120418494Y-124858597D01*
X120251402Y-124691506D01*
X120251401Y-124691505D01*
X120065405Y-124561269D01*
X120021781Y-124506692D01*
X120014588Y-124437193D01*
X120046110Y-124374839D01*
X120065405Y-124358119D01*
X120251082Y-124228105D01*
X120418105Y-124061082D01*
X120521094Y-123914000D01*
X130494341Y-123914000D01*
X130514936Y-124149403D01*
X130514938Y-124149413D01*
X130576094Y-124377655D01*
X130576096Y-124377659D01*
X130576097Y-124377663D01*
X130654435Y-124545659D01*
X130675965Y-124591830D01*
X130675967Y-124591834D01*
X130745758Y-124691505D01*
X130811501Y-124785396D01*
X130811506Y-124785402D01*
X130933430Y-124907326D01*
X130966915Y-124968649D01*
X130961931Y-125038341D01*
X130920059Y-125094274D01*
X130889083Y-125111189D01*
X130757669Y-125160203D01*
X130757664Y-125160206D01*
X130642455Y-125246452D01*
X130642452Y-125246455D01*
X130556206Y-125361664D01*
X130556202Y-125361671D01*
X130505908Y-125496517D01*
X130499501Y-125556116D01*
X130499500Y-125556135D01*
X130499500Y-127351870D01*
X130499501Y-127351876D01*
X130505908Y-127411483D01*
X130556202Y-127546328D01*
X130556206Y-127546335D01*
X130642452Y-127661544D01*
X130642455Y-127661547D01*
X130757664Y-127747793D01*
X130757671Y-127747797D01*
X130892517Y-127798091D01*
X130892516Y-127798091D01*
X130899444Y-127798835D01*
X130952127Y-127804500D01*
X132747872Y-127804499D01*
X132807483Y-127798091D01*
X132942331Y-127747796D01*
X133057546Y-127661546D01*
X133143796Y-127546331D01*
X133193002Y-127414401D01*
X133234872Y-127358468D01*
X133300337Y-127334050D01*
X133368610Y-127348901D01*
X133396865Y-127370053D01*
X133518917Y-127492105D01*
X133712421Y-127627600D01*
X133926507Y-127727429D01*
X133926516Y-127727433D01*
X134140000Y-127784634D01*
X134140000Y-126889501D01*
X134247685Y-126938680D01*
X134354237Y-126954000D01*
X134425763Y-126954000D01*
X134532315Y-126938680D01*
X134640000Y-126889501D01*
X134640000Y-127784633D01*
X134853483Y-127727433D01*
X134853492Y-127727429D01*
X135067578Y-127627600D01*
X135261082Y-127492105D01*
X135428105Y-127325082D01*
X135558425Y-127138968D01*
X135613002Y-127095344D01*
X135682501Y-127088151D01*
X135744855Y-127119673D01*
X135761575Y-127138968D01*
X135891894Y-127325082D01*
X136058917Y-127492105D01*
X136252421Y-127627600D01*
X136466507Y-127727429D01*
X136466516Y-127727433D01*
X136680000Y-127784634D01*
X136680000Y-126889501D01*
X136787685Y-126938680D01*
X136894237Y-126954000D01*
X136965763Y-126954000D01*
X137072315Y-126938680D01*
X137180000Y-126889501D01*
X137180000Y-127784633D01*
X137393483Y-127727433D01*
X137393492Y-127727429D01*
X137607578Y-127627600D01*
X137801082Y-127492105D01*
X137968105Y-127325082D01*
X138098119Y-127139405D01*
X138152696Y-127095781D01*
X138222195Y-127088588D01*
X138284549Y-127120110D01*
X138301269Y-127139405D01*
X138431505Y-127325401D01*
X138598599Y-127492495D01*
X138695384Y-127560265D01*
X138792165Y-127628032D01*
X138792167Y-127628033D01*
X138792170Y-127628035D01*
X139006337Y-127727903D01*
X139234592Y-127789063D01*
X139411034Y-127804500D01*
X139469999Y-127809659D01*
X139470000Y-127809659D01*
X139470001Y-127809659D01*
X139528966Y-127804500D01*
X139705408Y-127789063D01*
X139933663Y-127727903D01*
X140147830Y-127628035D01*
X140341401Y-127492495D01*
X140508495Y-127325401D01*
X140638730Y-127139405D01*
X140693307Y-127095781D01*
X140762805Y-127088587D01*
X140825160Y-127120110D01*
X140841879Y-127139405D01*
X140971890Y-127325078D01*
X141138917Y-127492105D01*
X141332421Y-127627600D01*
X141546507Y-127727429D01*
X141546516Y-127727433D01*
X141760000Y-127784634D01*
X141760000Y-126889501D01*
X141867685Y-126938680D01*
X141974237Y-126954000D01*
X142045763Y-126954000D01*
X142152315Y-126938680D01*
X142260000Y-126889501D01*
X142260000Y-127784633D01*
X142473483Y-127727433D01*
X142473492Y-127727429D01*
X142687578Y-127627600D01*
X142881082Y-127492105D01*
X143048105Y-127325082D01*
X143183600Y-127131578D01*
X143283429Y-126917492D01*
X143283432Y-126917486D01*
X143340636Y-126704000D01*
X142443686Y-126704000D01*
X142469493Y-126663844D01*
X142510000Y-126525889D01*
X142510000Y-126382111D01*
X142469493Y-126244156D01*
X142443686Y-126204000D01*
X143340636Y-126204000D01*
X143340635Y-126203999D01*
X143283432Y-125990513D01*
X143283429Y-125990507D01*
X143183600Y-125776422D01*
X143183599Y-125776420D01*
X143048113Y-125582926D01*
X143048108Y-125582920D01*
X142881078Y-125415890D01*
X142695405Y-125285879D01*
X142651780Y-125231302D01*
X142644588Y-125161804D01*
X142676110Y-125099449D01*
X142695406Y-125082730D01*
X142695842Y-125082425D01*
X142881401Y-124952495D01*
X143048495Y-124785401D01*
X143184035Y-124591830D01*
X143283903Y-124377663D01*
X143345063Y-124149408D01*
X143365659Y-123914000D01*
X143345063Y-123678592D01*
X143283903Y-123450337D01*
X143184035Y-123236171D01*
X143178425Y-123228158D01*
X143048494Y-123042597D01*
X142900373Y-122894477D01*
X144414292Y-122894477D01*
X144432980Y-123072282D01*
X144432981Y-123072284D01*
X144488224Y-123242306D01*
X144488227Y-123242312D01*
X144577618Y-123397142D01*
X144616208Y-123440000D01*
X144697241Y-123529998D01*
X144697244Y-123530000D01*
X144697247Y-123530003D01*
X144841884Y-123635089D01*
X145005210Y-123707806D01*
X145180086Y-123744977D01*
X145180087Y-123744977D01*
X145358866Y-123744977D01*
X145358868Y-123744977D01*
X145533744Y-123707806D01*
X145697070Y-123635089D01*
X145841707Y-123530003D01*
X145849996Y-123520798D01*
X145867625Y-123501218D01*
X145961336Y-123397142D01*
X146050727Y-123242312D01*
X146067724Y-123190000D01*
X163744341Y-123190000D01*
X163764936Y-123425403D01*
X163764938Y-123425413D01*
X163826094Y-123653655D01*
X163826096Y-123653659D01*
X163826097Y-123653663D01*
X163868678Y-123744977D01*
X163925965Y-123867830D01*
X163925967Y-123867834D01*
X164011979Y-123990671D01*
X164061501Y-124061396D01*
X164061506Y-124061402D01*
X164183818Y-124183714D01*
X164217303Y-124245037D01*
X164212319Y-124314729D01*
X164170447Y-124370662D01*
X164139471Y-124387577D01*
X164007912Y-124436646D01*
X164007906Y-124436649D01*
X163892812Y-124522809D01*
X163892809Y-124522812D01*
X163806649Y-124637906D01*
X163806645Y-124637913D01*
X163756403Y-124772620D01*
X163756401Y-124772627D01*
X163750000Y-124832155D01*
X163750000Y-125480000D01*
X164666314Y-125480000D01*
X164640507Y-125520156D01*
X164600000Y-125658111D01*
X164600000Y-125801889D01*
X164640507Y-125939844D01*
X164666314Y-125980000D01*
X163750000Y-125980000D01*
X163750000Y-126627844D01*
X163756401Y-126687372D01*
X163756403Y-126687379D01*
X163806645Y-126822086D01*
X163806649Y-126822093D01*
X163892809Y-126937187D01*
X163892812Y-126937190D01*
X164007906Y-127023350D01*
X164007913Y-127023354D01*
X164142620Y-127073596D01*
X164142627Y-127073598D01*
X164202155Y-127079999D01*
X164202172Y-127080000D01*
X164850000Y-127080000D01*
X164850000Y-126165501D01*
X164957685Y-126214680D01*
X165064237Y-126230000D01*
X165135763Y-126230000D01*
X165242315Y-126214680D01*
X165350000Y-126165501D01*
X165350000Y-127080000D01*
X165997828Y-127080000D01*
X165997844Y-127079999D01*
X166057372Y-127073598D01*
X166057379Y-127073596D01*
X166192086Y-127023354D01*
X166192093Y-127023350D01*
X166307187Y-126937190D01*
X166307190Y-126937187D01*
X166393350Y-126822093D01*
X166393354Y-126822086D01*
X166443596Y-126687379D01*
X166443598Y-126687372D01*
X166449999Y-126627844D01*
X166450000Y-126627827D01*
X166450000Y-125980000D01*
X165533686Y-125980000D01*
X165559493Y-125939844D01*
X165600000Y-125801889D01*
X165600000Y-125658111D01*
X165559493Y-125520156D01*
X165533686Y-125480000D01*
X166450000Y-125480000D01*
X166450000Y-124832172D01*
X166449999Y-124832155D01*
X166443598Y-124772627D01*
X166443596Y-124772620D01*
X166393354Y-124637913D01*
X166393350Y-124637906D01*
X166307190Y-124522812D01*
X166307187Y-124522809D01*
X166192093Y-124436649D01*
X166192088Y-124436646D01*
X166060528Y-124387577D01*
X166004595Y-124345705D01*
X165980178Y-124280241D01*
X165995030Y-124211968D01*
X166016175Y-124183720D01*
X166138495Y-124061401D01*
X166274035Y-123867830D01*
X166373903Y-123653663D01*
X166435063Y-123425408D01*
X166455659Y-123190000D01*
X166435063Y-122954592D01*
X166373903Y-122726337D01*
X166274035Y-122512171D01*
X166258940Y-122490612D01*
X166138494Y-122318597D01*
X165971402Y-122151506D01*
X165971396Y-122151501D01*
X165785842Y-122021575D01*
X165742217Y-121966998D01*
X165735023Y-121897500D01*
X165766546Y-121835145D01*
X165785842Y-121818425D01*
X165883563Y-121750000D01*
X165971401Y-121688495D01*
X166138495Y-121521401D01*
X166274035Y-121327830D01*
X166373903Y-121113663D01*
X166435063Y-120885408D01*
X166455659Y-120650000D01*
X166453576Y-120626197D01*
X166444883Y-120526829D01*
X166435063Y-120414592D01*
X166380861Y-120212305D01*
X166373905Y-120186344D01*
X166373904Y-120186343D01*
X166373903Y-120186337D01*
X166274035Y-119972171D01*
X166260962Y-119953500D01*
X166138494Y-119778597D01*
X165971402Y-119611506D01*
X165971401Y-119611505D01*
X165785405Y-119481269D01*
X165741781Y-119426692D01*
X165734588Y-119357193D01*
X165766110Y-119294839D01*
X165785405Y-119278119D01*
X165971082Y-119148105D01*
X166138105Y-118981082D01*
X166273600Y-118787578D01*
X166373429Y-118573492D01*
X166373432Y-118573486D01*
X166430636Y-118360000D01*
X165533686Y-118360000D01*
X165559493Y-118319844D01*
X165600000Y-118181889D01*
X165600000Y-118038111D01*
X165559493Y-117900156D01*
X165533686Y-117860000D01*
X166430636Y-117860000D01*
X166430635Y-117859999D01*
X166373432Y-117646513D01*
X166373429Y-117646507D01*
X166273600Y-117432422D01*
X166273599Y-117432420D01*
X166138113Y-117238926D01*
X166138108Y-117238920D01*
X165971078Y-117071890D01*
X165785405Y-116941879D01*
X165741780Y-116887302D01*
X165734588Y-116817804D01*
X165766110Y-116755449D01*
X165785406Y-116738730D01*
X165971401Y-116608495D01*
X166138495Y-116441401D01*
X166274035Y-116247830D01*
X166373903Y-116033663D01*
X166435063Y-115805408D01*
X166455659Y-115570000D01*
X166435063Y-115334592D01*
X166373903Y-115106337D01*
X166274035Y-114892171D01*
X166223151Y-114819500D01*
X166138494Y-114698597D01*
X165971402Y-114531506D01*
X165971396Y-114531501D01*
X165785842Y-114401575D01*
X165742217Y-114346998D01*
X165735023Y-114277500D01*
X165766546Y-114215145D01*
X165785842Y-114198425D01*
X165808026Y-114182891D01*
X165971401Y-114068495D01*
X166138495Y-113901401D01*
X166274035Y-113707830D01*
X166373903Y-113493663D01*
X166435063Y-113265408D01*
X166455659Y-113030000D01*
X166435063Y-112794592D01*
X166373903Y-112566337D01*
X166274035Y-112352171D01*
X166242172Y-112306665D01*
X166138494Y-112158597D01*
X165971402Y-111991506D01*
X165971401Y-111991505D01*
X165785405Y-111861269D01*
X165741781Y-111806692D01*
X165734588Y-111737193D01*
X165766110Y-111674839D01*
X165785405Y-111658119D01*
X165971082Y-111528105D01*
X166138105Y-111361082D01*
X166273600Y-111167578D01*
X166373429Y-110953492D01*
X166373432Y-110953486D01*
X166430636Y-110740000D01*
X165533686Y-110740000D01*
X165559493Y-110699844D01*
X165600000Y-110561889D01*
X165600000Y-110418111D01*
X165559493Y-110280156D01*
X165533686Y-110240000D01*
X166430636Y-110240000D01*
X166430635Y-110239999D01*
X166373432Y-110026513D01*
X166373429Y-110026507D01*
X166273600Y-109812422D01*
X166273599Y-109812420D01*
X166138113Y-109618926D01*
X166138108Y-109618920D01*
X165971078Y-109451890D01*
X165785405Y-109321879D01*
X165741780Y-109267302D01*
X165734588Y-109197804D01*
X165766110Y-109135449D01*
X165785406Y-109118730D01*
X165971401Y-108988495D01*
X166138495Y-108821401D01*
X166274035Y-108627830D01*
X166373903Y-108413663D01*
X166435063Y-108185408D01*
X166455659Y-107950000D01*
X166454837Y-107940610D01*
X166451539Y-107902918D01*
X166435063Y-107714592D01*
X166373903Y-107486337D01*
X166274035Y-107272171D01*
X166223151Y-107199500D01*
X166138494Y-107078597D01*
X165971402Y-106911506D01*
X165971396Y-106911501D01*
X165785842Y-106781575D01*
X165742217Y-106726998D01*
X165735023Y-106657500D01*
X165766546Y-106595145D01*
X165785842Y-106578425D01*
X165914669Y-106488219D01*
X165971401Y-106448495D01*
X166138495Y-106281401D01*
X166274035Y-106087830D01*
X166373903Y-105873663D01*
X166435063Y-105645408D01*
X166455659Y-105410000D01*
X166435063Y-105174592D01*
X166373903Y-104946337D01*
X166274035Y-104732171D01*
X166207157Y-104636658D01*
X166138494Y-104538597D01*
X165971402Y-104371506D01*
X165971401Y-104371505D01*
X165785405Y-104241269D01*
X165741781Y-104186692D01*
X165734588Y-104117193D01*
X165766110Y-104054839D01*
X165785405Y-104038119D01*
X165971082Y-103908105D01*
X166138105Y-103741082D01*
X166273600Y-103547578D01*
X166373429Y-103333492D01*
X166373432Y-103333486D01*
X166430636Y-103120000D01*
X165533686Y-103120000D01*
X165559493Y-103079844D01*
X165600000Y-102941889D01*
X165600000Y-102798111D01*
X165559493Y-102660156D01*
X165533686Y-102620000D01*
X166430636Y-102620000D01*
X166430635Y-102619999D01*
X166373432Y-102406513D01*
X166373429Y-102406507D01*
X166273600Y-102192422D01*
X166273599Y-102192420D01*
X166138113Y-101998926D01*
X166138108Y-101998920D01*
X165971078Y-101831890D01*
X165785405Y-101701879D01*
X165741780Y-101647302D01*
X165734588Y-101577804D01*
X165766110Y-101515449D01*
X165785406Y-101498730D01*
X165797404Y-101490329D01*
X165971401Y-101368495D01*
X166138495Y-101201401D01*
X166274035Y-101007830D01*
X166373903Y-100793663D01*
X166435063Y-100565408D01*
X166455659Y-100330000D01*
X166435063Y-100094592D01*
X166373903Y-99866337D01*
X166274035Y-99652171D01*
X166256875Y-99627663D01*
X166138494Y-99458597D01*
X165971402Y-99291506D01*
X165971396Y-99291501D01*
X165785842Y-99161575D01*
X165742217Y-99106998D01*
X165735023Y-99037500D01*
X165766546Y-98975145D01*
X165785842Y-98958425D01*
X165814542Y-98938329D01*
X165971401Y-98828495D01*
X166138495Y-98661401D01*
X166274035Y-98467830D01*
X166373903Y-98253663D01*
X166435063Y-98025408D01*
X166455659Y-97790000D01*
X166454536Y-97777170D01*
X166448706Y-97710526D01*
X166435063Y-97554592D01*
X166373903Y-97326337D01*
X166274035Y-97112171D01*
X166256181Y-97086672D01*
X166138494Y-96918597D01*
X165971402Y-96751506D01*
X165971401Y-96751505D01*
X165785405Y-96621269D01*
X165741781Y-96566692D01*
X165734588Y-96497193D01*
X165766110Y-96434839D01*
X165785405Y-96418119D01*
X165971082Y-96288105D01*
X166138105Y-96121082D01*
X166273600Y-95927578D01*
X166373429Y-95713492D01*
X166373432Y-95713486D01*
X166430636Y-95500000D01*
X165533686Y-95500000D01*
X165559493Y-95459844D01*
X165600000Y-95321889D01*
X165600000Y-95178111D01*
X165559493Y-95040156D01*
X165533686Y-95000000D01*
X166430636Y-95000000D01*
X166430635Y-94999999D01*
X166373432Y-94786513D01*
X166373429Y-94786507D01*
X166273600Y-94572422D01*
X166273599Y-94572420D01*
X166138113Y-94378926D01*
X166138108Y-94378920D01*
X165971078Y-94211890D01*
X165785405Y-94081879D01*
X165741780Y-94027302D01*
X165734588Y-93957804D01*
X165766110Y-93895449D01*
X165785406Y-93878730D01*
X165971401Y-93748495D01*
X166138495Y-93581401D01*
X166274035Y-93387830D01*
X166373903Y-93173663D01*
X166435063Y-92945408D01*
X166455659Y-92710000D01*
X166435063Y-92474592D01*
X166373903Y-92246337D01*
X166274035Y-92032171D01*
X166223151Y-91959500D01*
X166138494Y-91838597D01*
X165971402Y-91671506D01*
X165971396Y-91671501D01*
X165785842Y-91541575D01*
X165742217Y-91486998D01*
X165735023Y-91417500D01*
X165766546Y-91355145D01*
X165785842Y-91338425D01*
X165854853Y-91290103D01*
X165971401Y-91208495D01*
X166138495Y-91041401D01*
X166274035Y-90847830D01*
X166373903Y-90633663D01*
X166435063Y-90405408D01*
X166455659Y-90170000D01*
X166435063Y-89934592D01*
X166373903Y-89706337D01*
X166274035Y-89492171D01*
X166138495Y-89298599D01*
X166138494Y-89298597D01*
X165971402Y-89131506D01*
X165971401Y-89131505D01*
X165785405Y-89001269D01*
X165741781Y-88946692D01*
X165734588Y-88877193D01*
X165766110Y-88814839D01*
X165785405Y-88798119D01*
X165971082Y-88668105D01*
X166138105Y-88501082D01*
X166273600Y-88307578D01*
X166373429Y-88093492D01*
X166373432Y-88093486D01*
X166430636Y-87880000D01*
X165533686Y-87880000D01*
X165559493Y-87839844D01*
X165600000Y-87701889D01*
X165600000Y-87558111D01*
X165559493Y-87420156D01*
X165533686Y-87380000D01*
X166430636Y-87380000D01*
X166430635Y-87379999D01*
X166373432Y-87166513D01*
X166373429Y-87166507D01*
X166273600Y-86952422D01*
X166273599Y-86952420D01*
X166138113Y-86758926D01*
X166138108Y-86758920D01*
X165971078Y-86591890D01*
X165785405Y-86461879D01*
X165741780Y-86407302D01*
X165734588Y-86337804D01*
X165766110Y-86275449D01*
X165785406Y-86258730D01*
X165971401Y-86128495D01*
X166138495Y-85961401D01*
X166274035Y-85767830D01*
X166373903Y-85553663D01*
X166435063Y-85325408D01*
X166455659Y-85090000D01*
X166435063Y-84854592D01*
X166373903Y-84626337D01*
X166274035Y-84412171D01*
X166223151Y-84339500D01*
X166138494Y-84218597D01*
X165971402Y-84051506D01*
X165971396Y-84051501D01*
X165785842Y-83921575D01*
X165742217Y-83866998D01*
X165735023Y-83797500D01*
X165766546Y-83735145D01*
X165785842Y-83718425D01*
X165808026Y-83702891D01*
X165971401Y-83588495D01*
X166138495Y-83421401D01*
X166274035Y-83227830D01*
X166373903Y-83013663D01*
X166435063Y-82785408D01*
X166455659Y-82550000D01*
X166435063Y-82314592D01*
X166373903Y-82086337D01*
X166274035Y-81872171D01*
X166226302Y-81804000D01*
X166138494Y-81678597D01*
X165971402Y-81511506D01*
X165971401Y-81511505D01*
X165785405Y-81381269D01*
X165741781Y-81326692D01*
X165734588Y-81257193D01*
X165766110Y-81194839D01*
X165785405Y-81178119D01*
X165971082Y-81048105D01*
X166138105Y-80881082D01*
X166273600Y-80687578D01*
X166373429Y-80473492D01*
X166373432Y-80473486D01*
X166430636Y-80260000D01*
X165533686Y-80260000D01*
X165559493Y-80219844D01*
X165600000Y-80081889D01*
X165600000Y-79938111D01*
X165559493Y-79800156D01*
X165533686Y-79760000D01*
X166430636Y-79760000D01*
X166430635Y-79759999D01*
X166373432Y-79546513D01*
X166373429Y-79546507D01*
X166273600Y-79332422D01*
X166273599Y-79332420D01*
X166138113Y-79138926D01*
X166138108Y-79138920D01*
X165971078Y-78971890D01*
X165785405Y-78841879D01*
X165741780Y-78787302D01*
X165734588Y-78717804D01*
X165766110Y-78655449D01*
X165785406Y-78638730D01*
X165894515Y-78562331D01*
X165971401Y-78508495D01*
X166138495Y-78341401D01*
X166274035Y-78147830D01*
X166373903Y-77933663D01*
X166435063Y-77705408D01*
X166455659Y-77470000D01*
X166435063Y-77234592D01*
X166373903Y-77006337D01*
X166274035Y-76792171D01*
X166138495Y-76598599D01*
X166138494Y-76598597D01*
X165971402Y-76431506D01*
X165971401Y-76431505D01*
X165785405Y-76301269D01*
X165741781Y-76246692D01*
X165734588Y-76177193D01*
X165766110Y-76114839D01*
X165785405Y-76098119D01*
X165971082Y-75968105D01*
X166138105Y-75801082D01*
X166273600Y-75607578D01*
X166373429Y-75393492D01*
X166373432Y-75393486D01*
X166430636Y-75180000D01*
X165533686Y-75180000D01*
X165559493Y-75139844D01*
X165600000Y-75001889D01*
X165600000Y-74858111D01*
X165559493Y-74720156D01*
X165533686Y-74680000D01*
X166430636Y-74680000D01*
X166430635Y-74679999D01*
X166373432Y-74466513D01*
X166373429Y-74466507D01*
X166273600Y-74252422D01*
X166273599Y-74252420D01*
X166138113Y-74058926D01*
X166138108Y-74058920D01*
X165971082Y-73891894D01*
X165777578Y-73756399D01*
X165563492Y-73656570D01*
X165563486Y-73656567D01*
X165350000Y-73599364D01*
X165350000Y-74494498D01*
X165242315Y-74445320D01*
X165135763Y-74430000D01*
X165064237Y-74430000D01*
X164957685Y-74445320D01*
X164850000Y-74494498D01*
X164850000Y-73599364D01*
X164849999Y-73599364D01*
X164636513Y-73656567D01*
X164636507Y-73656570D01*
X164422422Y-73756399D01*
X164422420Y-73756400D01*
X164228926Y-73891886D01*
X164228920Y-73891891D01*
X164061891Y-74058920D01*
X164061886Y-74058926D01*
X163926400Y-74252420D01*
X163926399Y-74252422D01*
X163826570Y-74466507D01*
X163826567Y-74466513D01*
X163769364Y-74679999D01*
X163769364Y-74680000D01*
X164666314Y-74680000D01*
X164640507Y-74720156D01*
X164600000Y-74858111D01*
X164600000Y-75001889D01*
X164640507Y-75139844D01*
X164666314Y-75180000D01*
X163769364Y-75180000D01*
X163826567Y-75393486D01*
X163826570Y-75393492D01*
X163926399Y-75607578D01*
X164061894Y-75801082D01*
X164228917Y-75968105D01*
X164414595Y-76098119D01*
X164458219Y-76152696D01*
X164465412Y-76222195D01*
X164433890Y-76284549D01*
X164414595Y-76301269D01*
X164228594Y-76431508D01*
X164061505Y-76598597D01*
X163925965Y-76792169D01*
X163925964Y-76792171D01*
X163826098Y-77006335D01*
X163826094Y-77006344D01*
X163764938Y-77234586D01*
X163764936Y-77234596D01*
X163744341Y-77469999D01*
X163744341Y-77470000D01*
X163764936Y-77705403D01*
X163764938Y-77705413D01*
X163826094Y-77933655D01*
X163826096Y-77933659D01*
X163826097Y-77933663D01*
X163925965Y-78147830D01*
X163925967Y-78147834D01*
X164061501Y-78341395D01*
X164061506Y-78341402D01*
X164228597Y-78508493D01*
X164228603Y-78508498D01*
X164414594Y-78638730D01*
X164458219Y-78693307D01*
X164465413Y-78762805D01*
X164433890Y-78825160D01*
X164414595Y-78841880D01*
X164228922Y-78971890D01*
X164228920Y-78971891D01*
X164061891Y-79138920D01*
X164061886Y-79138926D01*
X163926400Y-79332420D01*
X163926399Y-79332422D01*
X163826570Y-79546507D01*
X163826567Y-79546513D01*
X163769364Y-79759999D01*
X163769364Y-79760000D01*
X164666314Y-79760000D01*
X164640507Y-79800156D01*
X164600000Y-79938111D01*
X164600000Y-80081889D01*
X164640507Y-80219844D01*
X164666314Y-80260000D01*
X163769364Y-80260000D01*
X163826567Y-80473486D01*
X163826570Y-80473492D01*
X163926399Y-80687578D01*
X164061894Y-80881082D01*
X164228917Y-81048105D01*
X164414595Y-81178119D01*
X164458219Y-81232696D01*
X164465412Y-81302195D01*
X164433890Y-81364549D01*
X164414595Y-81381269D01*
X164228594Y-81511508D01*
X164061505Y-81678597D01*
X163925965Y-81872169D01*
X163925964Y-81872171D01*
X163826098Y-82086335D01*
X163826094Y-82086344D01*
X163764938Y-82314586D01*
X163764936Y-82314596D01*
X163744341Y-82549999D01*
X163744341Y-82550000D01*
X163764936Y-82785403D01*
X163764938Y-82785413D01*
X163826094Y-83013655D01*
X163826096Y-83013659D01*
X163826097Y-83013663D01*
X163925965Y-83227830D01*
X163925967Y-83227834D01*
X164061501Y-83421395D01*
X164061506Y-83421402D01*
X164228597Y-83588493D01*
X164228603Y-83588498D01*
X164414158Y-83718425D01*
X164457783Y-83773002D01*
X164464977Y-83842500D01*
X164433454Y-83904855D01*
X164414158Y-83921575D01*
X164228597Y-84051505D01*
X164061505Y-84218597D01*
X163925965Y-84412169D01*
X163925964Y-84412171D01*
X163826098Y-84626335D01*
X163826094Y-84626344D01*
X163764938Y-84854586D01*
X163764936Y-84854596D01*
X163744341Y-85089999D01*
X163744341Y-85090000D01*
X163764936Y-85325403D01*
X163764938Y-85325413D01*
X163826094Y-85553655D01*
X163826096Y-85553659D01*
X163826097Y-85553663D01*
X163924756Y-85765237D01*
X163925965Y-85767830D01*
X163925967Y-85767834D01*
X164061501Y-85961395D01*
X164061506Y-85961402D01*
X164228597Y-86128493D01*
X164228603Y-86128498D01*
X164414594Y-86258730D01*
X164458219Y-86313307D01*
X164465413Y-86382805D01*
X164433890Y-86445160D01*
X164414595Y-86461880D01*
X164228922Y-86591890D01*
X164228920Y-86591891D01*
X164061891Y-86758920D01*
X164061886Y-86758926D01*
X163926400Y-86952420D01*
X163926399Y-86952422D01*
X163826570Y-87166507D01*
X163826567Y-87166513D01*
X163769364Y-87379999D01*
X163769364Y-87380000D01*
X164666314Y-87380000D01*
X164640507Y-87420156D01*
X164600000Y-87558111D01*
X164600000Y-87701889D01*
X164640507Y-87839844D01*
X164666314Y-87880000D01*
X163769364Y-87880000D01*
X163826567Y-88093486D01*
X163826570Y-88093492D01*
X163926399Y-88307578D01*
X164061894Y-88501082D01*
X164228917Y-88668105D01*
X164414595Y-88798119D01*
X164458219Y-88852696D01*
X164465412Y-88922195D01*
X164433890Y-88984549D01*
X164414595Y-89001269D01*
X164228594Y-89131508D01*
X164061505Y-89298597D01*
X163925965Y-89492169D01*
X163925964Y-89492171D01*
X163826098Y-89706335D01*
X163826094Y-89706344D01*
X163764938Y-89934586D01*
X163764936Y-89934596D01*
X163744341Y-90169999D01*
X163744341Y-90170000D01*
X163764936Y-90405403D01*
X163764938Y-90405413D01*
X163826094Y-90633655D01*
X163826096Y-90633659D01*
X163826097Y-90633663D01*
X163925965Y-90847830D01*
X163925967Y-90847834D01*
X164061501Y-91041395D01*
X164061506Y-91041402D01*
X164228597Y-91208493D01*
X164228603Y-91208498D01*
X164414158Y-91338425D01*
X164457783Y-91393002D01*
X164464977Y-91462500D01*
X164433454Y-91524855D01*
X164414158Y-91541575D01*
X164228597Y-91671505D01*
X164061505Y-91838597D01*
X163925965Y-92032169D01*
X163925964Y-92032171D01*
X163826098Y-92246335D01*
X163826094Y-92246344D01*
X163764938Y-92474586D01*
X163764936Y-92474596D01*
X163744341Y-92709999D01*
X163744341Y-92710000D01*
X163764936Y-92945403D01*
X163764938Y-92945413D01*
X163826094Y-93173655D01*
X163826096Y-93173659D01*
X163826097Y-93173663D01*
X163904269Y-93341302D01*
X163925965Y-93387830D01*
X163925967Y-93387834D01*
X164061501Y-93581395D01*
X164061506Y-93581402D01*
X164228597Y-93748493D01*
X164228603Y-93748498D01*
X164414594Y-93878730D01*
X164458219Y-93933307D01*
X164465413Y-94002805D01*
X164433890Y-94065160D01*
X164414595Y-94081880D01*
X164228922Y-94211890D01*
X164228920Y-94211891D01*
X164061891Y-94378920D01*
X164061886Y-94378926D01*
X163926400Y-94572420D01*
X163926399Y-94572422D01*
X163826570Y-94786507D01*
X163826567Y-94786513D01*
X163769364Y-94999999D01*
X163769364Y-95000000D01*
X164666314Y-95000000D01*
X164640507Y-95040156D01*
X164600000Y-95178111D01*
X164600000Y-95321889D01*
X164640507Y-95459844D01*
X164666314Y-95500000D01*
X163769364Y-95500000D01*
X163826567Y-95713486D01*
X163826570Y-95713492D01*
X163926399Y-95927578D01*
X164061894Y-96121082D01*
X164228917Y-96288105D01*
X164414595Y-96418119D01*
X164458219Y-96472696D01*
X164465412Y-96542195D01*
X164433890Y-96604549D01*
X164414595Y-96621269D01*
X164228594Y-96751508D01*
X164061505Y-96918597D01*
X163925965Y-97112169D01*
X163925964Y-97112171D01*
X163826098Y-97326335D01*
X163826094Y-97326344D01*
X163764938Y-97554586D01*
X163764936Y-97554596D01*
X163744341Y-97789999D01*
X163744341Y-97790000D01*
X163764936Y-98025403D01*
X163764938Y-98025413D01*
X163826094Y-98253655D01*
X163826096Y-98253659D01*
X163826097Y-98253663D01*
X163887055Y-98384387D01*
X163925965Y-98467830D01*
X163925967Y-98467834D01*
X164061501Y-98661395D01*
X164061506Y-98661402D01*
X164228597Y-98828493D01*
X164228603Y-98828498D01*
X164414158Y-98958425D01*
X164457783Y-99013002D01*
X164464977Y-99082500D01*
X164433454Y-99144855D01*
X164414158Y-99161575D01*
X164228597Y-99291505D01*
X164061505Y-99458597D01*
X163925965Y-99652169D01*
X163925964Y-99652171D01*
X163826098Y-99866335D01*
X163826094Y-99866344D01*
X163764938Y-100094586D01*
X163764936Y-100094596D01*
X163744341Y-100329999D01*
X163744341Y-100330000D01*
X163764936Y-100565403D01*
X163764938Y-100565413D01*
X163826094Y-100793655D01*
X163826096Y-100793659D01*
X163826097Y-100793663D01*
X163904269Y-100961302D01*
X163925965Y-101007830D01*
X163925967Y-101007834D01*
X163976849Y-101080500D01*
X164058911Y-101197697D01*
X164061501Y-101201395D01*
X164061506Y-101201402D01*
X164228597Y-101368493D01*
X164228603Y-101368498D01*
X164254367Y-101386538D01*
X164376259Y-101471888D01*
X164414594Y-101498730D01*
X164458219Y-101553307D01*
X164465413Y-101622805D01*
X164433890Y-101685160D01*
X164414595Y-101701880D01*
X164228922Y-101831890D01*
X164228920Y-101831891D01*
X164061891Y-101998920D01*
X164061886Y-101998926D01*
X163926400Y-102192420D01*
X163926399Y-102192422D01*
X163826570Y-102406507D01*
X163826567Y-102406513D01*
X163769364Y-102619999D01*
X163769364Y-102620000D01*
X164666314Y-102620000D01*
X164640507Y-102660156D01*
X164600000Y-102798111D01*
X164600000Y-102941889D01*
X164640507Y-103079844D01*
X164666314Y-103120000D01*
X163769364Y-103120000D01*
X163826567Y-103333486D01*
X163826570Y-103333492D01*
X163926399Y-103547578D01*
X164061894Y-103741082D01*
X164228917Y-103908105D01*
X164414595Y-104038119D01*
X164458219Y-104092696D01*
X164465412Y-104162195D01*
X164433890Y-104224549D01*
X164414595Y-104241269D01*
X164228594Y-104371508D01*
X164061505Y-104538597D01*
X163925965Y-104732169D01*
X163925964Y-104732171D01*
X163826098Y-104946335D01*
X163826094Y-104946344D01*
X163764938Y-105174586D01*
X163764936Y-105174596D01*
X163744341Y-105409999D01*
X163744341Y-105410000D01*
X163764936Y-105645403D01*
X163764938Y-105645413D01*
X163826094Y-105873655D01*
X163826096Y-105873659D01*
X163826097Y-105873663D01*
X163878274Y-105985556D01*
X163925965Y-106087830D01*
X163925967Y-106087834D01*
X164061501Y-106281395D01*
X164061506Y-106281402D01*
X164228597Y-106448493D01*
X164228603Y-106448498D01*
X164414158Y-106578425D01*
X164457783Y-106633002D01*
X164464977Y-106702500D01*
X164433454Y-106764855D01*
X164414158Y-106781575D01*
X164228597Y-106911505D01*
X164061505Y-107078597D01*
X163925965Y-107272169D01*
X163925964Y-107272171D01*
X163826098Y-107486335D01*
X163826094Y-107486344D01*
X163764938Y-107714586D01*
X163764936Y-107714596D01*
X163744341Y-107949999D01*
X163744341Y-107950000D01*
X163764936Y-108185403D01*
X163764938Y-108185413D01*
X163826094Y-108413655D01*
X163826096Y-108413659D01*
X163826097Y-108413663D01*
X163904269Y-108581302D01*
X163925965Y-108627830D01*
X163925967Y-108627834D01*
X164061501Y-108821395D01*
X164061506Y-108821402D01*
X164228597Y-108988493D01*
X164228603Y-108988498D01*
X164414594Y-109118730D01*
X164458219Y-109173307D01*
X164465413Y-109242805D01*
X164433890Y-109305160D01*
X164414595Y-109321880D01*
X164228922Y-109451890D01*
X164228920Y-109451891D01*
X164061891Y-109618920D01*
X164061886Y-109618926D01*
X163926400Y-109812420D01*
X163926399Y-109812422D01*
X163826570Y-110026507D01*
X163826567Y-110026513D01*
X163769364Y-110239999D01*
X163769364Y-110240000D01*
X164666314Y-110240000D01*
X164640507Y-110280156D01*
X164600000Y-110418111D01*
X164600000Y-110561889D01*
X164640507Y-110699844D01*
X164666314Y-110740000D01*
X163769364Y-110740000D01*
X163826567Y-110953486D01*
X163826570Y-110953492D01*
X163926399Y-111167578D01*
X164061894Y-111361082D01*
X164228917Y-111528105D01*
X164414595Y-111658119D01*
X164458219Y-111712696D01*
X164465412Y-111782195D01*
X164433890Y-111844549D01*
X164414595Y-111861269D01*
X164228594Y-111991508D01*
X164061505Y-112158597D01*
X163925965Y-112352169D01*
X163925964Y-112352171D01*
X163826098Y-112566335D01*
X163826094Y-112566344D01*
X163764938Y-112794586D01*
X163764936Y-112794596D01*
X163744341Y-113029999D01*
X163744341Y-113030000D01*
X163764936Y-113265403D01*
X163764938Y-113265413D01*
X163826094Y-113493655D01*
X163826096Y-113493659D01*
X163826097Y-113493663D01*
X163925965Y-113707830D01*
X163925967Y-113707834D01*
X164061501Y-113901395D01*
X164061506Y-113901402D01*
X164228597Y-114068493D01*
X164228603Y-114068498D01*
X164414158Y-114198425D01*
X164457783Y-114253002D01*
X164464977Y-114322500D01*
X164433454Y-114384855D01*
X164414158Y-114401575D01*
X164228597Y-114531505D01*
X164061505Y-114698597D01*
X163925965Y-114892169D01*
X163925964Y-114892171D01*
X163826098Y-115106335D01*
X163826094Y-115106344D01*
X163764938Y-115334586D01*
X163764936Y-115334596D01*
X163744341Y-115569999D01*
X163744341Y-115570000D01*
X163764936Y-115805403D01*
X163764938Y-115805413D01*
X163826094Y-116033655D01*
X163826096Y-116033659D01*
X163826097Y-116033663D01*
X163914307Y-116222829D01*
X163925965Y-116247830D01*
X163925967Y-116247834D01*
X164061501Y-116441395D01*
X164061506Y-116441402D01*
X164228597Y-116608493D01*
X164228603Y-116608498D01*
X164266226Y-116634842D01*
X164395699Y-116725500D01*
X164414594Y-116738730D01*
X164458219Y-116793307D01*
X164465413Y-116862805D01*
X164433890Y-116925160D01*
X164414595Y-116941880D01*
X164228922Y-117071890D01*
X164228920Y-117071891D01*
X164061891Y-117238920D01*
X164061886Y-117238926D01*
X163926400Y-117432420D01*
X163926399Y-117432422D01*
X163826570Y-117646507D01*
X163826567Y-117646513D01*
X163769364Y-117859999D01*
X163769364Y-117860000D01*
X164666314Y-117860000D01*
X164640507Y-117900156D01*
X164600000Y-118038111D01*
X164600000Y-118181889D01*
X164640507Y-118319844D01*
X164666314Y-118360000D01*
X163769364Y-118360000D01*
X163826567Y-118573486D01*
X163826570Y-118573492D01*
X163926399Y-118787578D01*
X164061894Y-118981082D01*
X164228917Y-119148105D01*
X164414595Y-119278119D01*
X164458219Y-119332696D01*
X164465412Y-119402195D01*
X164433890Y-119464549D01*
X164414595Y-119481269D01*
X164228594Y-119611508D01*
X164061505Y-119778597D01*
X163925965Y-119972169D01*
X163925964Y-119972171D01*
X163826098Y-120186335D01*
X163826094Y-120186344D01*
X163764938Y-120414586D01*
X163764936Y-120414596D01*
X163744341Y-120649999D01*
X163744341Y-120650000D01*
X163764936Y-120885403D01*
X163764938Y-120885413D01*
X163826094Y-121113655D01*
X163826096Y-121113659D01*
X163826097Y-121113663D01*
X163888430Y-121247336D01*
X163925965Y-121327830D01*
X163925967Y-121327834D01*
X164061501Y-121521395D01*
X164061506Y-121521402D01*
X164228597Y-121688493D01*
X164228603Y-121688498D01*
X164414158Y-121818425D01*
X164457783Y-121873002D01*
X164464977Y-121942500D01*
X164433454Y-122004855D01*
X164414158Y-122021575D01*
X164228597Y-122151505D01*
X164061505Y-122318597D01*
X163925965Y-122512169D01*
X163925964Y-122512171D01*
X163826098Y-122726335D01*
X163826094Y-122726344D01*
X163764938Y-122954586D01*
X163764936Y-122954596D01*
X163744341Y-123189999D01*
X163744341Y-123190000D01*
X146067724Y-123190000D01*
X146105974Y-123072280D01*
X146124662Y-122894477D01*
X146105974Y-122716674D01*
X146061221Y-122578938D01*
X146050729Y-122546647D01*
X146050726Y-122546641D01*
X146030970Y-122512422D01*
X145961336Y-122391812D01*
X145895704Y-122318920D01*
X145841712Y-122258955D01*
X145841709Y-122258953D01*
X145841708Y-122258952D01*
X145841707Y-122258951D01*
X145697070Y-122153865D01*
X145533744Y-122081148D01*
X145533742Y-122081147D01*
X145406071Y-122054010D01*
X145358868Y-122043977D01*
X145180086Y-122043977D01*
X145149431Y-122050492D01*
X145005210Y-122081147D01*
X145005205Y-122081149D01*
X144841885Y-122153864D01*
X144697245Y-122258952D01*
X144577617Y-122391813D01*
X144488227Y-122546641D01*
X144488224Y-122546647D01*
X144432981Y-122716669D01*
X144432980Y-122716671D01*
X144414292Y-122894477D01*
X142900373Y-122894477D01*
X142881402Y-122875506D01*
X142881395Y-122875501D01*
X142687834Y-122739967D01*
X142687830Y-122739965D01*
X142637876Y-122716671D01*
X142473663Y-122640097D01*
X142473659Y-122640096D01*
X142473655Y-122640094D01*
X142245413Y-122578938D01*
X142245403Y-122578936D01*
X142010001Y-122558341D01*
X142009999Y-122558341D01*
X141774596Y-122578936D01*
X141774586Y-122578938D01*
X141546344Y-122640094D01*
X141546335Y-122640098D01*
X141332171Y-122739964D01*
X141332169Y-122739965D01*
X141138597Y-122875505D01*
X140971505Y-123042597D01*
X140841575Y-123228158D01*
X140786998Y-123271783D01*
X140717500Y-123278977D01*
X140655145Y-123247454D01*
X140638425Y-123228158D01*
X140508494Y-123042597D01*
X140341402Y-122875506D01*
X140341395Y-122875501D01*
X140147834Y-122739967D01*
X140147830Y-122739965D01*
X140097876Y-122716671D01*
X139933663Y-122640097D01*
X139933659Y-122640096D01*
X139933655Y-122640094D01*
X139705413Y-122578938D01*
X139705403Y-122578936D01*
X139470001Y-122558341D01*
X139469999Y-122558341D01*
X139234596Y-122578936D01*
X139234586Y-122578938D01*
X139006344Y-122640094D01*
X139006335Y-122640098D01*
X138792171Y-122739964D01*
X138792169Y-122739965D01*
X138598597Y-122875505D01*
X138431505Y-123042597D01*
X138301575Y-123228158D01*
X138246998Y-123271783D01*
X138177500Y-123278977D01*
X138115145Y-123247454D01*
X138098425Y-123228158D01*
X137968494Y-123042597D01*
X137801402Y-122875506D01*
X137801395Y-122875501D01*
X137607834Y-122739967D01*
X137607830Y-122739965D01*
X137557876Y-122716671D01*
X137393663Y-122640097D01*
X137393659Y-122640096D01*
X137393655Y-122640094D01*
X137165413Y-122578938D01*
X137165403Y-122578936D01*
X136930001Y-122558341D01*
X136929999Y-122558341D01*
X136694596Y-122578936D01*
X136694586Y-122578938D01*
X136466344Y-122640094D01*
X136466335Y-122640098D01*
X136252171Y-122739964D01*
X136252169Y-122739965D01*
X136058597Y-122875505D01*
X135891505Y-123042597D01*
X135761575Y-123228158D01*
X135706998Y-123271783D01*
X135637500Y-123278977D01*
X135575145Y-123247454D01*
X135558425Y-123228158D01*
X135428494Y-123042597D01*
X135261402Y-122875506D01*
X135261395Y-122875501D01*
X135067834Y-122739967D01*
X135067830Y-122739965D01*
X135017876Y-122716671D01*
X134853663Y-122640097D01*
X134853659Y-122640096D01*
X134853655Y-122640094D01*
X134625413Y-122578938D01*
X134625403Y-122578936D01*
X134390001Y-122558341D01*
X134389999Y-122558341D01*
X134154596Y-122578936D01*
X134154586Y-122578938D01*
X133926344Y-122640094D01*
X133926335Y-122640098D01*
X133712171Y-122739964D01*
X133712169Y-122739965D01*
X133518597Y-122875505D01*
X133351505Y-123042597D01*
X133221575Y-123228158D01*
X133166998Y-123271783D01*
X133097500Y-123278977D01*
X133035145Y-123247454D01*
X133018425Y-123228158D01*
X132888494Y-123042597D01*
X132721402Y-122875506D01*
X132721395Y-122875501D01*
X132527834Y-122739967D01*
X132527830Y-122739965D01*
X132477876Y-122716671D01*
X132313663Y-122640097D01*
X132313659Y-122640096D01*
X132313655Y-122640094D01*
X132085413Y-122578938D01*
X132085403Y-122578936D01*
X131850001Y-122558341D01*
X131849999Y-122558341D01*
X131614596Y-122578936D01*
X131614586Y-122578938D01*
X131386344Y-122640094D01*
X131386335Y-122640098D01*
X131172171Y-122739964D01*
X131172169Y-122739965D01*
X130978597Y-122875505D01*
X130811505Y-123042597D01*
X130675965Y-123236169D01*
X130675964Y-123236171D01*
X130576098Y-123450335D01*
X130576094Y-123450344D01*
X130514938Y-123678586D01*
X130514936Y-123678596D01*
X130494341Y-123913999D01*
X130494341Y-123914000D01*
X120521094Y-123914000D01*
X120553600Y-123867578D01*
X120653429Y-123653492D01*
X120653432Y-123653486D01*
X120710636Y-123440000D01*
X119813686Y-123440000D01*
X119839493Y-123399844D01*
X119880000Y-123261889D01*
X119880000Y-123118111D01*
X119839493Y-122980156D01*
X119813686Y-122940000D01*
X120710636Y-122940000D01*
X120710635Y-122939999D01*
X120653432Y-122726513D01*
X120653429Y-122726507D01*
X120553600Y-122512422D01*
X120553599Y-122512420D01*
X120418113Y-122318926D01*
X120418108Y-122318920D01*
X120251078Y-122151890D01*
X120065405Y-122021879D01*
X120021780Y-121967302D01*
X120014588Y-121897804D01*
X120046110Y-121835449D01*
X120065406Y-121818730D01*
X120065842Y-121818425D01*
X120163563Y-121750000D01*
X161494815Y-121750000D01*
X161513503Y-121927805D01*
X161513504Y-121927807D01*
X161568747Y-122097829D01*
X161568750Y-122097835D01*
X161658141Y-122252665D01*
X161663803Y-122258953D01*
X161777764Y-122385521D01*
X161777767Y-122385523D01*
X161777770Y-122385526D01*
X161922407Y-122490612D01*
X162085733Y-122563329D01*
X162260609Y-122600500D01*
X162260610Y-122600500D01*
X162439389Y-122600500D01*
X162439391Y-122600500D01*
X162614267Y-122563329D01*
X162777593Y-122490612D01*
X162922230Y-122385526D01*
X163041859Y-122252665D01*
X163131250Y-122097835D01*
X163186497Y-121927803D01*
X163205185Y-121750000D01*
X163186497Y-121572197D01*
X163158873Y-121487181D01*
X163131252Y-121402170D01*
X163131249Y-121402164D01*
X163088335Y-121327834D01*
X163041859Y-121247335D01*
X162995003Y-121195296D01*
X162922235Y-121114478D01*
X162922232Y-121114476D01*
X162922231Y-121114475D01*
X162922230Y-121114474D01*
X162777593Y-121009388D01*
X162768924Y-121005528D01*
X162715689Y-120960280D01*
X162695367Y-120893431D01*
X162714412Y-120826207D01*
X162766777Y-120779951D01*
X162768857Y-120779001D01*
X162777593Y-120775112D01*
X162922230Y-120670026D01*
X162940263Y-120649999D01*
X162961694Y-120626197D01*
X163041859Y-120537165D01*
X163131250Y-120382335D01*
X163186497Y-120212303D01*
X163205185Y-120034500D01*
X163186497Y-119856697D01*
X163131250Y-119686665D01*
X163041859Y-119531835D01*
X162957718Y-119438387D01*
X162922235Y-119398978D01*
X162922232Y-119398976D01*
X162922231Y-119398975D01*
X162922230Y-119398974D01*
X162777593Y-119293888D01*
X162614267Y-119221171D01*
X162614265Y-119221170D01*
X162486594Y-119194033D01*
X162439391Y-119184000D01*
X162260609Y-119184000D01*
X162229954Y-119190515D01*
X162085733Y-119221170D01*
X162085728Y-119221172D01*
X161922408Y-119293887D01*
X161777768Y-119398975D01*
X161658140Y-119531836D01*
X161568750Y-119686664D01*
X161568747Y-119686670D01*
X161513504Y-119856692D01*
X161513503Y-119856694D01*
X161494815Y-120034500D01*
X161513503Y-120212305D01*
X161513504Y-120212307D01*
X161568747Y-120382329D01*
X161568750Y-120382335D01*
X161658141Y-120537165D01*
X161699812Y-120583446D01*
X161777764Y-120670021D01*
X161777767Y-120670023D01*
X161777770Y-120670026D01*
X161922407Y-120775112D01*
X161931075Y-120778971D01*
X161984311Y-120824220D01*
X162004633Y-120891069D01*
X161985588Y-120958293D01*
X161933223Y-121004549D01*
X161931097Y-121005519D01*
X161928010Y-121006893D01*
X161922407Y-121009388D01*
X161777768Y-121114475D01*
X161658140Y-121247336D01*
X161568750Y-121402164D01*
X161568747Y-121402170D01*
X161513504Y-121572192D01*
X161513503Y-121572194D01*
X161494815Y-121750000D01*
X120163563Y-121750000D01*
X120251401Y-121688495D01*
X120418495Y-121521401D01*
X120554035Y-121327830D01*
X120653903Y-121113663D01*
X120715063Y-120885408D01*
X120722185Y-120804000D01*
X125544815Y-120804000D01*
X125563503Y-120981805D01*
X125563504Y-120981807D01*
X125618747Y-121151829D01*
X125618750Y-121151835D01*
X125708141Y-121306665D01*
X125727202Y-121327834D01*
X125827764Y-121439521D01*
X125827767Y-121439523D01*
X125827770Y-121439526D01*
X125972407Y-121544612D01*
X126135733Y-121617329D01*
X126310609Y-121654500D01*
X126310610Y-121654500D01*
X126489389Y-121654500D01*
X126489391Y-121654500D01*
X126664267Y-121617329D01*
X126827593Y-121544612D01*
X126972230Y-121439526D01*
X127091859Y-121306665D01*
X127181250Y-121151835D01*
X127236497Y-120981803D01*
X127255185Y-120804000D01*
X127236497Y-120626197D01*
X127181250Y-120456165D01*
X127091859Y-120301335D01*
X127011696Y-120212305D01*
X126981709Y-120179000D01*
X155444815Y-120179000D01*
X155463503Y-120356805D01*
X155463504Y-120356807D01*
X155518747Y-120526829D01*
X155518750Y-120526835D01*
X155608141Y-120681665D01*
X155649812Y-120727946D01*
X155727764Y-120814521D01*
X155727767Y-120814523D01*
X155727770Y-120814526D01*
X155872407Y-120919612D01*
X156035733Y-120992329D01*
X156210609Y-121029500D01*
X156210610Y-121029500D01*
X156389389Y-121029500D01*
X156389391Y-121029500D01*
X156564267Y-120992329D01*
X156727593Y-120919612D01*
X156872230Y-120814526D01*
X156991859Y-120681665D01*
X157081250Y-120526835D01*
X157136497Y-120356803D01*
X157155185Y-120179000D01*
X157136497Y-120001197D01*
X157089545Y-119856694D01*
X157081252Y-119831170D01*
X157081249Y-119831164D01*
X157050901Y-119778599D01*
X156991859Y-119676335D01*
X156945003Y-119624296D01*
X156872235Y-119543478D01*
X156872232Y-119543476D01*
X156872231Y-119543475D01*
X156872230Y-119543474D01*
X156727593Y-119438388D01*
X156564267Y-119365671D01*
X156564265Y-119365670D01*
X156410571Y-119333002D01*
X156389391Y-119328500D01*
X156210609Y-119328500D01*
X156189429Y-119333002D01*
X156035733Y-119365670D01*
X156035728Y-119365672D01*
X155872408Y-119438387D01*
X155727768Y-119543475D01*
X155608140Y-119676336D01*
X155518750Y-119831164D01*
X155518747Y-119831170D01*
X155463504Y-120001192D01*
X155463503Y-120001194D01*
X155444815Y-120179000D01*
X126981709Y-120179000D01*
X126972235Y-120168478D01*
X126972232Y-120168476D01*
X126972231Y-120168475D01*
X126972230Y-120168474D01*
X126827593Y-120063388D01*
X126664267Y-119990671D01*
X126664265Y-119990670D01*
X126536594Y-119963533D01*
X126489391Y-119953500D01*
X126310609Y-119953500D01*
X126279954Y-119960015D01*
X126135733Y-119990670D01*
X126135728Y-119990672D01*
X125972408Y-120063387D01*
X125827768Y-120168475D01*
X125708140Y-120301336D01*
X125618750Y-120456164D01*
X125618747Y-120456170D01*
X125563504Y-120626192D01*
X125563503Y-120626194D01*
X125544815Y-120804000D01*
X120722185Y-120804000D01*
X120735659Y-120650000D01*
X120733576Y-120626197D01*
X120724883Y-120526829D01*
X120715063Y-120414592D01*
X120660861Y-120212305D01*
X120653905Y-120186344D01*
X120653904Y-120186343D01*
X120653903Y-120186337D01*
X120554035Y-119972171D01*
X120540962Y-119953500D01*
X120418494Y-119778597D01*
X120251402Y-119611506D01*
X120251396Y-119611501D01*
X120065842Y-119481575D01*
X120022217Y-119426998D01*
X120015023Y-119357500D01*
X120046546Y-119295145D01*
X120065842Y-119278425D01*
X120088026Y-119262891D01*
X120251401Y-119148495D01*
X120418495Y-118981401D01*
X120554035Y-118787830D01*
X120653903Y-118573663D01*
X120715063Y-118345408D01*
X120727435Y-118204000D01*
X125544815Y-118204000D01*
X125563503Y-118381805D01*
X125563504Y-118381807D01*
X125618747Y-118551829D01*
X125618750Y-118551835D01*
X125708141Y-118706665D01*
X125749812Y-118752946D01*
X125827764Y-118839521D01*
X125827767Y-118839523D01*
X125827770Y-118839526D01*
X125972407Y-118944612D01*
X126135733Y-119017329D01*
X126310609Y-119054500D01*
X126310610Y-119054500D01*
X126489389Y-119054500D01*
X126489391Y-119054500D01*
X126664267Y-119017329D01*
X126827593Y-118944612D01*
X126972230Y-118839526D01*
X127091859Y-118706665D01*
X127181250Y-118551835D01*
X127236497Y-118381803D01*
X127255185Y-118204000D01*
X127236497Y-118026197D01*
X127187239Y-117874596D01*
X127181252Y-117856170D01*
X127181249Y-117856164D01*
X127147322Y-117797400D01*
X136894815Y-117797400D01*
X136913503Y-117975205D01*
X136913504Y-117975207D01*
X136968747Y-118145229D01*
X136968750Y-118145235D01*
X137058141Y-118300065D01*
X137098964Y-118345403D01*
X137177764Y-118432921D01*
X137177767Y-118432923D01*
X137177770Y-118432926D01*
X137322407Y-118538012D01*
X137485733Y-118610729D01*
X137660609Y-118647900D01*
X137660610Y-118647900D01*
X137839389Y-118647900D01*
X137839391Y-118647900D01*
X138014267Y-118610729D01*
X138177593Y-118538012D01*
X138322230Y-118432926D01*
X138441859Y-118300065D01*
X138531250Y-118145235D01*
X138586497Y-117975203D01*
X138605185Y-117797400D01*
X138586497Y-117619597D01*
X138535742Y-117463389D01*
X138531252Y-117449570D01*
X138531249Y-117449564D01*
X138528389Y-117444610D01*
X138441859Y-117294735D01*
X138386198Y-117232917D01*
X138322235Y-117161878D01*
X138322232Y-117161876D01*
X138322231Y-117161875D01*
X138322230Y-117161874D01*
X138177593Y-117056788D01*
X138014267Y-116984071D01*
X138014265Y-116984070D01*
X137886594Y-116956933D01*
X137839391Y-116946900D01*
X137660609Y-116946900D01*
X137629954Y-116953415D01*
X137485733Y-116984070D01*
X137485728Y-116984072D01*
X137322408Y-117056787D01*
X137177768Y-117161875D01*
X137058140Y-117294736D01*
X136968750Y-117449564D01*
X136968747Y-117449570D01*
X136913504Y-117619592D01*
X136913503Y-117619594D01*
X136894815Y-117797400D01*
X127147322Y-117797400D01*
X127136815Y-117779202D01*
X127091859Y-117701335D01*
X127042497Y-117646513D01*
X126972235Y-117568478D01*
X126972232Y-117568476D01*
X126972231Y-117568475D01*
X126972230Y-117568474D01*
X126827593Y-117463388D01*
X126664267Y-117390671D01*
X126664265Y-117390670D01*
X126536594Y-117363533D01*
X126489391Y-117353500D01*
X126310609Y-117353500D01*
X126279954Y-117360015D01*
X126135733Y-117390670D01*
X126135728Y-117390672D01*
X125972408Y-117463387D01*
X125827768Y-117568475D01*
X125708140Y-117701336D01*
X125618750Y-117856164D01*
X125618747Y-117856170D01*
X125563504Y-118026192D01*
X125563503Y-118026194D01*
X125544815Y-118204000D01*
X120727435Y-118204000D01*
X120735659Y-118110000D01*
X120715063Y-117874592D01*
X120653903Y-117646337D01*
X120554035Y-117432171D01*
X120554034Y-117432169D01*
X120460875Y-117299123D01*
X120438548Y-117232917D01*
X120455558Y-117165150D01*
X120506507Y-117117337D01*
X120562450Y-117104000D01*
X124650000Y-117104000D01*
X125107022Y-116646978D01*
X145341793Y-116646978D01*
X145360481Y-116824783D01*
X145360482Y-116824785D01*
X145415725Y-116994807D01*
X145415728Y-116994813D01*
X145505119Y-117149643D01*
X145546790Y-117195924D01*
X145624742Y-117282499D01*
X145624745Y-117282501D01*
X145624748Y-117282504D01*
X145769385Y-117387590D01*
X145932711Y-117460307D01*
X146107587Y-117497478D01*
X146107588Y-117497478D01*
X146286367Y-117497478D01*
X146286369Y-117497478D01*
X146461245Y-117460307D01*
X146624571Y-117387590D01*
X146769208Y-117282504D01*
X146888837Y-117149643D01*
X146978228Y-116994813D01*
X147033475Y-116824781D01*
X147046170Y-116704000D01*
X149469815Y-116704000D01*
X149488503Y-116881805D01*
X149488504Y-116881807D01*
X149543747Y-117051829D01*
X149543750Y-117051835D01*
X149633141Y-117206665D01*
X149661895Y-117238599D01*
X149752764Y-117339521D01*
X149752767Y-117339523D01*
X149752770Y-117339526D01*
X149897407Y-117444612D01*
X150060733Y-117517329D01*
X150235609Y-117554500D01*
X150235610Y-117554500D01*
X150414389Y-117554500D01*
X150414391Y-117554500D01*
X150589267Y-117517329D01*
X150752593Y-117444612D01*
X150897230Y-117339526D01*
X150904181Y-117331807D01*
X150948573Y-117282504D01*
X151016859Y-117206665D01*
X151047265Y-117154000D01*
X157844815Y-117154000D01*
X157863503Y-117331805D01*
X157863504Y-117331807D01*
X157918747Y-117501829D01*
X157918750Y-117501835D01*
X158008141Y-117656665D01*
X158048362Y-117701335D01*
X158127764Y-117789521D01*
X158127767Y-117789523D01*
X158127770Y-117789526D01*
X158272407Y-117894612D01*
X158435733Y-117967329D01*
X158610609Y-118004500D01*
X158610610Y-118004500D01*
X158789389Y-118004500D01*
X158789391Y-118004500D01*
X158964267Y-117967329D01*
X159127593Y-117894612D01*
X159272230Y-117789526D01*
X159391859Y-117656665D01*
X159481250Y-117501835D01*
X159536497Y-117331803D01*
X159555185Y-117154000D01*
X159536497Y-116976197D01*
X159487300Y-116824785D01*
X159481252Y-116806170D01*
X159481249Y-116806164D01*
X159473826Y-116793307D01*
X159391859Y-116651335D01*
X159345003Y-116599296D01*
X159272235Y-116518478D01*
X159272232Y-116518476D01*
X159272231Y-116518475D01*
X159272230Y-116518474D01*
X159127593Y-116413388D01*
X158964267Y-116340671D01*
X158964265Y-116340670D01*
X158836594Y-116313533D01*
X158789391Y-116303500D01*
X158610609Y-116303500D01*
X158579954Y-116310015D01*
X158435733Y-116340670D01*
X158435728Y-116340672D01*
X158272408Y-116413387D01*
X158127768Y-116518475D01*
X158008140Y-116651336D01*
X157918750Y-116806164D01*
X157918747Y-116806170D01*
X157863504Y-116976192D01*
X157863503Y-116976194D01*
X157844815Y-117154000D01*
X151047265Y-117154000D01*
X151106250Y-117051835D01*
X151161497Y-116881803D01*
X151176460Y-116739439D01*
X151203043Y-116674827D01*
X151260341Y-116634842D01*
X151330160Y-116632182D01*
X151350209Y-116639121D01*
X151460733Y-116688329D01*
X151635609Y-116725500D01*
X151635610Y-116725500D01*
X151814389Y-116725500D01*
X151814391Y-116725500D01*
X151989267Y-116688329D01*
X152152593Y-116615612D01*
X152297230Y-116510526D01*
X152416859Y-116377665D01*
X152506250Y-116222835D01*
X152561497Y-116052803D01*
X152580185Y-115875000D01*
X152561497Y-115697197D01*
X152506250Y-115527165D01*
X152416859Y-115372335D01*
X152370003Y-115320296D01*
X152297235Y-115239478D01*
X152297232Y-115239476D01*
X152297231Y-115239475D01*
X152297230Y-115239474D01*
X152152593Y-115134388D01*
X151989267Y-115061671D01*
X151989265Y-115061670D01*
X151861594Y-115034533D01*
X151814391Y-115024500D01*
X151635609Y-115024500D01*
X151604954Y-115031015D01*
X151460733Y-115061670D01*
X151460728Y-115061672D01*
X151297408Y-115134387D01*
X151152768Y-115239475D01*
X151033140Y-115372336D01*
X150943750Y-115527164D01*
X150943747Y-115527170D01*
X150888504Y-115697192D01*
X150888503Y-115697195D01*
X150873540Y-115839558D01*
X150846955Y-115904173D01*
X150789657Y-115944157D01*
X150719838Y-115946817D01*
X150699784Y-115939876D01*
X150624521Y-115906367D01*
X150589267Y-115890671D01*
X150589265Y-115890670D01*
X150461594Y-115863533D01*
X150414391Y-115853500D01*
X150235609Y-115853500D01*
X150204954Y-115860015D01*
X150060733Y-115890670D01*
X150060728Y-115890672D01*
X149897408Y-115963387D01*
X149752768Y-116068475D01*
X149633140Y-116201336D01*
X149543750Y-116356164D01*
X149543747Y-116356170D01*
X149488504Y-116526192D01*
X149488503Y-116526194D01*
X149469815Y-116704000D01*
X147046170Y-116704000D01*
X147052163Y-116646978D01*
X147033475Y-116469175D01*
X146991722Y-116340672D01*
X146978230Y-116299148D01*
X146978227Y-116299142D01*
X146888837Y-116144313D01*
X146820551Y-116068474D01*
X146769213Y-116011456D01*
X146769210Y-116011454D01*
X146769209Y-116011453D01*
X146769208Y-116011452D01*
X146624571Y-115906366D01*
X146461245Y-115833649D01*
X146461243Y-115833648D01*
X146328358Y-115805403D01*
X146286369Y-115796478D01*
X146107587Y-115796478D01*
X146076932Y-115802993D01*
X145932711Y-115833648D01*
X145932706Y-115833650D01*
X145769386Y-115906365D01*
X145624746Y-116011453D01*
X145505118Y-116144314D01*
X145415728Y-116299142D01*
X145415725Y-116299148D01*
X145360482Y-116469170D01*
X145360481Y-116469172D01*
X145341793Y-116646978D01*
X125107022Y-116646978D01*
X129313681Y-112440319D01*
X129375004Y-112406834D01*
X129401362Y-112404000D01*
X138650000Y-112404000D01*
X138650000Y-111409668D01*
X142729483Y-111409668D01*
X142748171Y-111587473D01*
X142748172Y-111587475D01*
X142803415Y-111757497D01*
X142803418Y-111757503D01*
X142892809Y-111912333D01*
X142934480Y-111958614D01*
X143012432Y-112045189D01*
X143012435Y-112045191D01*
X143012438Y-112045194D01*
X143157075Y-112150280D01*
X143320401Y-112222997D01*
X143495277Y-112260168D01*
X143495278Y-112260168D01*
X143674057Y-112260168D01*
X143674059Y-112260168D01*
X143848935Y-112222997D01*
X144012261Y-112150280D01*
X144156898Y-112045194D01*
X144188117Y-112010520D01*
X144247602Y-111973873D01*
X144317459Y-111975202D01*
X144330699Y-111980211D01*
X144461233Y-112038329D01*
X144636109Y-112075500D01*
X144636110Y-112075500D01*
X144814889Y-112075500D01*
X144814891Y-112075500D01*
X144989767Y-112038329D01*
X145153093Y-111965612D01*
X145297730Y-111860526D01*
X145348626Y-111804000D01*
X157844815Y-111804000D01*
X157863503Y-111981805D01*
X157863504Y-111981807D01*
X157918747Y-112151829D01*
X157918750Y-112151835D01*
X158008141Y-112306665D01*
X158049113Y-112352169D01*
X158127764Y-112439521D01*
X158127767Y-112439523D01*
X158127770Y-112439526D01*
X158272407Y-112544612D01*
X158435733Y-112617329D01*
X158610609Y-112654500D01*
X158610610Y-112654500D01*
X158789389Y-112654500D01*
X158789391Y-112654500D01*
X158964267Y-112617329D01*
X159127593Y-112544612D01*
X159272230Y-112439526D01*
X159391859Y-112306665D01*
X159481250Y-112151835D01*
X159536497Y-111981803D01*
X159555185Y-111804000D01*
X159536497Y-111626197D01*
X159481250Y-111456165D01*
X159391859Y-111301335D01*
X159329305Y-111231862D01*
X159272235Y-111168478D01*
X159272232Y-111168476D01*
X159272231Y-111168475D01*
X159272230Y-111168474D01*
X159127593Y-111063388D01*
X158964267Y-110990671D01*
X158964265Y-110990670D01*
X158836594Y-110963533D01*
X158789391Y-110953500D01*
X158610609Y-110953500D01*
X158579954Y-110960015D01*
X158435733Y-110990670D01*
X158435728Y-110990672D01*
X158272408Y-111063387D01*
X158127768Y-111168475D01*
X158008140Y-111301336D01*
X157918750Y-111456164D01*
X157918747Y-111456170D01*
X157863504Y-111626192D01*
X157863503Y-111626194D01*
X157844815Y-111804000D01*
X145348626Y-111804000D01*
X145417359Y-111727665D01*
X145506750Y-111572835D01*
X145561997Y-111402803D01*
X145580685Y-111225000D01*
X145561997Y-111047197D01*
X145519028Y-110914952D01*
X145506752Y-110877170D01*
X145506749Y-110877164D01*
X145417359Y-110722335D01*
X145361948Y-110660795D01*
X145297735Y-110589478D01*
X145297732Y-110589476D01*
X145297731Y-110589475D01*
X145297730Y-110589474D01*
X145153093Y-110484388D01*
X144989767Y-110411671D01*
X144989765Y-110411670D01*
X144862094Y-110384533D01*
X144814891Y-110374500D01*
X144636109Y-110374500D01*
X144605454Y-110381015D01*
X144461233Y-110411670D01*
X144461228Y-110411672D01*
X144297908Y-110484387D01*
X144153270Y-110589474D01*
X144122049Y-110624148D01*
X144062561Y-110660795D01*
X143992704Y-110659464D01*
X143979465Y-110654454D01*
X143911395Y-110624148D01*
X143848935Y-110596339D01*
X143848933Y-110596338D01*
X143686860Y-110561889D01*
X143674059Y-110559168D01*
X143495277Y-110559168D01*
X143482476Y-110561889D01*
X143320401Y-110596338D01*
X143320396Y-110596340D01*
X143157076Y-110669055D01*
X143012436Y-110774143D01*
X142892808Y-110907004D01*
X142803418Y-111061832D01*
X142803415Y-111061838D01*
X142748172Y-111231860D01*
X142748171Y-111231862D01*
X142729483Y-111409668D01*
X138650000Y-111409668D01*
X138650000Y-109073142D01*
X138656068Y-109034827D01*
X138673297Y-108981803D01*
X138691985Y-108804000D01*
X138673297Y-108626197D01*
X138656069Y-108573174D01*
X138650000Y-108534856D01*
X138650000Y-107325000D01*
X131874000Y-107325000D01*
X131806961Y-107305315D01*
X131761206Y-107252511D01*
X131750000Y-107201000D01*
X131750000Y-107200000D01*
X141619815Y-107200000D01*
X141638503Y-107377805D01*
X141638504Y-107377807D01*
X141693747Y-107547829D01*
X141693750Y-107547835D01*
X141783141Y-107702665D01*
X141793884Y-107714596D01*
X141902764Y-107835521D01*
X141902767Y-107835523D01*
X141902770Y-107835526D01*
X142047407Y-107940612D01*
X142210733Y-108013329D01*
X142345420Y-108041957D01*
X142406901Y-108075149D01*
X142437569Y-108124929D01*
X142493747Y-108297828D01*
X142493750Y-108297835D01*
X142583141Y-108452665D01*
X142597426Y-108468530D01*
X142702764Y-108585521D01*
X142702767Y-108585523D01*
X142702770Y-108585526D01*
X142847407Y-108690612D01*
X143010733Y-108763329D01*
X143185609Y-108800500D01*
X143185610Y-108800500D01*
X143364389Y-108800500D01*
X143364391Y-108800500D01*
X143539267Y-108763329D01*
X143702593Y-108690612D01*
X143847230Y-108585526D01*
X143851034Y-108581302D01*
X143873148Y-108556741D01*
X143966859Y-108452665D01*
X144056250Y-108297835D01*
X144111497Y-108127803D01*
X144130185Y-107950000D01*
X144111497Y-107772197D01*
X144056250Y-107602165D01*
X143966859Y-107447335D01*
X143920003Y-107395296D01*
X143847235Y-107314478D01*
X143847232Y-107314476D01*
X143847231Y-107314475D01*
X143847230Y-107314474D01*
X143702593Y-107209388D01*
X143539267Y-107136671D01*
X143539265Y-107136670D01*
X143539264Y-107136670D01*
X143404580Y-107108042D01*
X143343098Y-107074850D01*
X143312430Y-107025070D01*
X143256252Y-106852170D01*
X143256249Y-106852164D01*
X143246949Y-106836056D01*
X143166859Y-106697335D01*
X143108933Y-106633002D01*
X143047235Y-106564478D01*
X143047232Y-106564476D01*
X143047231Y-106564475D01*
X143047230Y-106564474D01*
X142902593Y-106459388D01*
X142739267Y-106386671D01*
X142739265Y-106386670D01*
X142611594Y-106359533D01*
X142564391Y-106349500D01*
X142385609Y-106349500D01*
X142354954Y-106356015D01*
X142210733Y-106386670D01*
X142210728Y-106386672D01*
X142047408Y-106459387D01*
X141902768Y-106564475D01*
X141783140Y-106697336D01*
X141693750Y-106852164D01*
X141693747Y-106852170D01*
X141638504Y-107022192D01*
X141638503Y-107022194D01*
X141619815Y-107200000D01*
X131750000Y-107200000D01*
X131750000Y-104412500D01*
X139369315Y-104412500D01*
X139388003Y-104590305D01*
X139388004Y-104590307D01*
X139443247Y-104760329D01*
X139443250Y-104760335D01*
X139532641Y-104915165D01*
X139560715Y-104946344D01*
X139652264Y-105048021D01*
X139652267Y-105048023D01*
X139652270Y-105048026D01*
X139796907Y-105153112D01*
X139960233Y-105225829D01*
X139960235Y-105225829D01*
X139960236Y-105225830D01*
X140025256Y-105239650D01*
X140101684Y-105255895D01*
X140163166Y-105289087D01*
X140196943Y-105350250D01*
X140192291Y-105419964D01*
X140168055Y-105460156D01*
X140147584Y-105482891D01*
X140058194Y-105637720D01*
X140058191Y-105637726D01*
X140002948Y-105807748D01*
X140002947Y-105807750D01*
X139984259Y-105985556D01*
X140002947Y-106163361D01*
X140002948Y-106163363D01*
X140058191Y-106333385D01*
X140058194Y-106333391D01*
X140147585Y-106488221D01*
X140189256Y-106534502D01*
X140267208Y-106621077D01*
X140267211Y-106621079D01*
X140267214Y-106621082D01*
X140411851Y-106726168D01*
X140575177Y-106798885D01*
X140750053Y-106836056D01*
X140750054Y-106836056D01*
X140928833Y-106836056D01*
X140928835Y-106836056D01*
X141103711Y-106798885D01*
X141267037Y-106726168D01*
X141411674Y-106621082D01*
X141531303Y-106488221D01*
X141620694Y-106333391D01*
X141675941Y-106163359D01*
X141694629Y-105985556D01*
X141675941Y-105807753D01*
X141648317Y-105722737D01*
X141620696Y-105637726D01*
X141620693Y-105637720D01*
X141531303Y-105482891D01*
X141474643Y-105419964D01*
X141411679Y-105350034D01*
X141411676Y-105350032D01*
X141411675Y-105350031D01*
X141411674Y-105350030D01*
X141267037Y-105244944D01*
X141103711Y-105172227D01*
X141103709Y-105172226D01*
X140962258Y-105142160D01*
X140900776Y-105108968D01*
X140867000Y-105047805D01*
X140871652Y-104978090D01*
X140895889Y-104937898D01*
X140916359Y-104915165D01*
X141005750Y-104760335D01*
X141060997Y-104590303D01*
X141079685Y-104412500D01*
X141060997Y-104234697D01*
X141025517Y-104125500D01*
X141005752Y-104064670D01*
X141005749Y-104064664D01*
X140993839Y-104044035D01*
X140916359Y-103909835D01*
X140869503Y-103857796D01*
X140796735Y-103776978D01*
X140796732Y-103776976D01*
X140796731Y-103776975D01*
X140796730Y-103776974D01*
X140652093Y-103671888D01*
X140488767Y-103599171D01*
X140488765Y-103599170D01*
X140361094Y-103572033D01*
X140313891Y-103562000D01*
X140135109Y-103562000D01*
X140104454Y-103568515D01*
X139960233Y-103599170D01*
X139960228Y-103599172D01*
X139796908Y-103671887D01*
X139652268Y-103776975D01*
X139532640Y-103909836D01*
X139443250Y-104064664D01*
X139443247Y-104064670D01*
X139388004Y-104234692D01*
X139388003Y-104234694D01*
X139369315Y-104412500D01*
X131750000Y-104412500D01*
X131750000Y-102775000D01*
X134544815Y-102775000D01*
X134563503Y-102952805D01*
X134563504Y-102952807D01*
X134618747Y-103122829D01*
X134618750Y-103122835D01*
X134708141Y-103277665D01*
X134749812Y-103323946D01*
X134827764Y-103410521D01*
X134827767Y-103410523D01*
X134827770Y-103410526D01*
X134972407Y-103515612D01*
X135135733Y-103588329D01*
X135310609Y-103625500D01*
X135310610Y-103625500D01*
X135489389Y-103625500D01*
X135489391Y-103625500D01*
X135664267Y-103588329D01*
X135827593Y-103515612D01*
X135972230Y-103410526D01*
X136091859Y-103277665D01*
X136093398Y-103275000D01*
X142194815Y-103275000D01*
X142213503Y-103452805D01*
X142213504Y-103452807D01*
X142268747Y-103622829D01*
X142268750Y-103622835D01*
X142358141Y-103777665D01*
X142399812Y-103823946D01*
X142477764Y-103910521D01*
X142477767Y-103910523D01*
X142477770Y-103910526D01*
X142622407Y-104015612D01*
X142785733Y-104088329D01*
X142960609Y-104125500D01*
X142960610Y-104125500D01*
X143139389Y-104125500D01*
X143139391Y-104125500D01*
X143314267Y-104088329D01*
X143477593Y-104015612D01*
X143622230Y-103910526D01*
X143622852Y-103909836D01*
X143648148Y-103881741D01*
X143741859Y-103777665D01*
X143831250Y-103622835D01*
X143846793Y-103575000D01*
X144594815Y-103575000D01*
X144613503Y-103752805D01*
X144613504Y-103752807D01*
X144668747Y-103922829D01*
X144668750Y-103922835D01*
X144758141Y-104077665D01*
X144793732Y-104117193D01*
X144877764Y-104210521D01*
X144877767Y-104210523D01*
X144877770Y-104210526D01*
X145022407Y-104315612D01*
X145185733Y-104388329D01*
X145360609Y-104425500D01*
X145360610Y-104425500D01*
X145539389Y-104425500D01*
X145539391Y-104425500D01*
X145714267Y-104388329D01*
X145877593Y-104315612D01*
X146022230Y-104210526D01*
X146141859Y-104077665D01*
X146231250Y-103922835D01*
X146286497Y-103752803D01*
X146305185Y-103575000D01*
X146286497Y-103397197D01*
X146258873Y-103312181D01*
X146231252Y-103227170D01*
X146231249Y-103227164D01*
X146171015Y-103122835D01*
X146141859Y-103072335D01*
X146095003Y-103020296D01*
X146022235Y-102939478D01*
X146022232Y-102939476D01*
X146022231Y-102939475D01*
X146022230Y-102939474D01*
X145877593Y-102834388D01*
X145714267Y-102761671D01*
X145714265Y-102761670D01*
X145586594Y-102734533D01*
X145539391Y-102724500D01*
X145360609Y-102724500D01*
X145329954Y-102731015D01*
X145185733Y-102761670D01*
X145185728Y-102761672D01*
X145022408Y-102834387D01*
X144877768Y-102939475D01*
X144758140Y-103072336D01*
X144668750Y-103227164D01*
X144668747Y-103227170D01*
X144613504Y-103397192D01*
X144613503Y-103397194D01*
X144594815Y-103575000D01*
X143846793Y-103575000D01*
X143886497Y-103452803D01*
X143905185Y-103275000D01*
X143886497Y-103097197D01*
X143839581Y-102952805D01*
X143831252Y-102927170D01*
X143831249Y-102927164D01*
X143741859Y-102772335D01*
X143690381Y-102715163D01*
X143622235Y-102639478D01*
X143622232Y-102639476D01*
X143622231Y-102639475D01*
X143622230Y-102639474D01*
X143477593Y-102534388D01*
X143314267Y-102461671D01*
X143314265Y-102461670D01*
X143151952Y-102427170D01*
X143139391Y-102424500D01*
X142960609Y-102424500D01*
X142948048Y-102427170D01*
X142785733Y-102461670D01*
X142785728Y-102461672D01*
X142622408Y-102534387D01*
X142477768Y-102639475D01*
X142358140Y-102772336D01*
X142268750Y-102927164D01*
X142268747Y-102927170D01*
X142213504Y-103097192D01*
X142213503Y-103097194D01*
X142194815Y-103275000D01*
X136093398Y-103275000D01*
X136181250Y-103122835D01*
X136236497Y-102952803D01*
X136255185Y-102775000D01*
X136236497Y-102597197D01*
X136192462Y-102461671D01*
X136181252Y-102427170D01*
X136181249Y-102427164D01*
X136179711Y-102424500D01*
X136091859Y-102272335D01*
X136019679Y-102192171D01*
X135972235Y-102139478D01*
X135972232Y-102139476D01*
X135972231Y-102139475D01*
X135972230Y-102139474D01*
X135827593Y-102034388D01*
X135694205Y-101975000D01*
X148294815Y-101975000D01*
X148313503Y-102152805D01*
X148313504Y-102152807D01*
X148368747Y-102322829D01*
X148368750Y-102322835D01*
X148458141Y-102477665D01*
X148499812Y-102523946D01*
X148577764Y-102610521D01*
X148577767Y-102610523D01*
X148577770Y-102610526D01*
X148722407Y-102715612D01*
X148885733Y-102788329D01*
X149060609Y-102825500D01*
X149060610Y-102825500D01*
X149239389Y-102825500D01*
X149239391Y-102825500D01*
X149414267Y-102788329D01*
X149577593Y-102715612D01*
X149722230Y-102610526D01*
X149841859Y-102477665D01*
X149931250Y-102322835D01*
X149967100Y-102212500D01*
X158857315Y-102212500D01*
X158876003Y-102390305D01*
X158876004Y-102390307D01*
X158931247Y-102560329D01*
X158931250Y-102560335D01*
X159020641Y-102715165D01*
X159062312Y-102761446D01*
X159140264Y-102848021D01*
X159140267Y-102848023D01*
X159140270Y-102848026D01*
X159284907Y-102953112D01*
X159448233Y-103025829D01*
X159623109Y-103063000D01*
X159623110Y-103063000D01*
X159801889Y-103063000D01*
X159801891Y-103063000D01*
X159976767Y-103025829D01*
X160140093Y-102953112D01*
X160284730Y-102848026D01*
X160404359Y-102715165D01*
X160493750Y-102560335D01*
X160548997Y-102390303D01*
X160567685Y-102212500D01*
X160548997Y-102034697D01*
X160493750Y-101864665D01*
X160404359Y-101709835D01*
X160329927Y-101627170D01*
X160284735Y-101576978D01*
X160284732Y-101576976D01*
X160284731Y-101576975D01*
X160284730Y-101576974D01*
X160140093Y-101471888D01*
X159976767Y-101399171D01*
X159976765Y-101399170D01*
X159848006Y-101371802D01*
X159801891Y-101362000D01*
X159623109Y-101362000D01*
X159592562Y-101368493D01*
X159448233Y-101399170D01*
X159448228Y-101399172D01*
X159284908Y-101471887D01*
X159140268Y-101576975D01*
X159020640Y-101709836D01*
X158931250Y-101864664D01*
X158931247Y-101864670D01*
X158876004Y-102034692D01*
X158876003Y-102034694D01*
X158857315Y-102212500D01*
X149967100Y-102212500D01*
X149986497Y-102152803D01*
X150005185Y-101975000D01*
X149986497Y-101797197D01*
X149958111Y-101709835D01*
X149931252Y-101627170D01*
X149931249Y-101627164D01*
X149841859Y-101472335D01*
X149775981Y-101399170D01*
X149722235Y-101339478D01*
X149722232Y-101339476D01*
X149722231Y-101339475D01*
X149722230Y-101339474D01*
X149577593Y-101234388D01*
X149414267Y-101161671D01*
X149414265Y-101161670D01*
X149286594Y-101134533D01*
X149239391Y-101124500D01*
X149060609Y-101124500D01*
X149029954Y-101131015D01*
X148885733Y-101161670D01*
X148885728Y-101161672D01*
X148722408Y-101234387D01*
X148577768Y-101339475D01*
X148458140Y-101472336D01*
X148368750Y-101627164D01*
X148368747Y-101627170D01*
X148313504Y-101797192D01*
X148313503Y-101797194D01*
X148294815Y-101975000D01*
X135694205Y-101975000D01*
X135664267Y-101961671D01*
X135664265Y-101961670D01*
X135536594Y-101934533D01*
X135489391Y-101924500D01*
X135310609Y-101924500D01*
X135279954Y-101931015D01*
X135135733Y-101961670D01*
X135135728Y-101961672D01*
X134972408Y-102034387D01*
X134827768Y-102139475D01*
X134708140Y-102272336D01*
X134618750Y-102427164D01*
X134618747Y-102427170D01*
X134563504Y-102597192D01*
X134563503Y-102597194D01*
X134544815Y-102775000D01*
X131750000Y-102775000D01*
X131750000Y-101378213D01*
X131750332Y-101371802D01*
X131840909Y-100500000D01*
X138619815Y-100500000D01*
X138638503Y-100677805D01*
X138638504Y-100677807D01*
X138693747Y-100847829D01*
X138693749Y-100847833D01*
X138693750Y-100847835D01*
X138783141Y-101002665D01*
X138816794Y-101040040D01*
X138902764Y-101135521D01*
X138902767Y-101135523D01*
X138902770Y-101135526D01*
X139047407Y-101240612D01*
X139210733Y-101313329D01*
X139385609Y-101350500D01*
X139385610Y-101350500D01*
X139564389Y-101350500D01*
X139564391Y-101350500D01*
X139739267Y-101313329D01*
X139902593Y-101240612D01*
X140047230Y-101135526D01*
X140166859Y-101002665D01*
X140256250Y-100847835D01*
X140276282Y-100786181D01*
X140315719Y-100728507D01*
X140380078Y-100701308D01*
X140394213Y-100700500D01*
X140539389Y-100700500D01*
X140539391Y-100700500D01*
X140714267Y-100663329D01*
X140744205Y-100650000D01*
X144344815Y-100650000D01*
X144363503Y-100827805D01*
X144363504Y-100827807D01*
X144418747Y-100997829D01*
X144418750Y-100997835D01*
X144508141Y-101152665D01*
X144532452Y-101179665D01*
X144627764Y-101285521D01*
X144627767Y-101285523D01*
X144627770Y-101285526D01*
X144772407Y-101390612D01*
X144935733Y-101463329D01*
X145110609Y-101500500D01*
X145110610Y-101500500D01*
X145289389Y-101500500D01*
X145289391Y-101500500D01*
X145464267Y-101463329D01*
X145627593Y-101390612D01*
X145772230Y-101285526D01*
X145781258Y-101275500D01*
X145812671Y-101240612D01*
X145891859Y-101152665D01*
X145981250Y-100997835D01*
X146003737Y-100928624D01*
X146043173Y-100870950D01*
X146107532Y-100843751D01*
X146176378Y-100855665D01*
X146213818Y-100883971D01*
X146327764Y-101010521D01*
X146327767Y-101010523D01*
X146327770Y-101010526D01*
X146472407Y-101115612D01*
X146635733Y-101188329D01*
X146810609Y-101225500D01*
X146810610Y-101225500D01*
X146989389Y-101225500D01*
X146989391Y-101225500D01*
X147164267Y-101188329D01*
X147327593Y-101115612D01*
X147472230Y-101010526D01*
X147474658Y-101007830D01*
X147502269Y-100977164D01*
X147591859Y-100877665D01*
X147681250Y-100722835D01*
X147696143Y-100677000D01*
X152894815Y-100677000D01*
X152913503Y-100854805D01*
X152913504Y-100854807D01*
X152968747Y-101024829D01*
X152968750Y-101024835D01*
X153058141Y-101179665D01*
X153093953Y-101219438D01*
X153177764Y-101312521D01*
X153177767Y-101312523D01*
X153177770Y-101312526D01*
X153322407Y-101417612D01*
X153485733Y-101490329D01*
X153660609Y-101527500D01*
X153660610Y-101527500D01*
X153839389Y-101527500D01*
X153839391Y-101527500D01*
X154014267Y-101490329D01*
X154177593Y-101417612D01*
X154322230Y-101312526D01*
X154371545Y-101257755D01*
X154431029Y-101221108D01*
X154489473Y-101219438D01*
X154635609Y-101250500D01*
X154635610Y-101250500D01*
X154814389Y-101250500D01*
X154814391Y-101250500D01*
X154989267Y-101213329D01*
X155152593Y-101140612D01*
X155297230Y-101035526D01*
X155306857Y-101024835D01*
X155331167Y-100997835D01*
X155416859Y-100902665D01*
X155506250Y-100747835D01*
X155561497Y-100577803D01*
X155577557Y-100425000D01*
X155969815Y-100425000D01*
X155988503Y-100602805D01*
X155988504Y-100602807D01*
X156043747Y-100772829D01*
X156043750Y-100772835D01*
X156133141Y-100927665D01*
X156163428Y-100961302D01*
X156252764Y-101060521D01*
X156252767Y-101060523D01*
X156252770Y-101060526D01*
X156397407Y-101165612D01*
X156560733Y-101238329D01*
X156735609Y-101275500D01*
X156752962Y-101275500D01*
X156820001Y-101295185D01*
X156865756Y-101347989D01*
X156876283Y-101386538D01*
X156888503Y-101502804D01*
X156888504Y-101502807D01*
X156943747Y-101672829D01*
X156943750Y-101672835D01*
X157033141Y-101827665D01*
X157066455Y-101864664D01*
X157152764Y-101960521D01*
X157152767Y-101960523D01*
X157152770Y-101960526D01*
X157297407Y-102065612D01*
X157460733Y-102138329D01*
X157635609Y-102175500D01*
X157635610Y-102175500D01*
X157814389Y-102175500D01*
X157814391Y-102175500D01*
X157989267Y-102138329D01*
X158152593Y-102065612D01*
X158297230Y-101960526D01*
X158416859Y-101827665D01*
X158506250Y-101672835D01*
X158561497Y-101502803D01*
X158580185Y-101325000D01*
X158561497Y-101147197D01*
X158533334Y-101060521D01*
X158506252Y-100977170D01*
X158506249Y-100977164D01*
X158416859Y-100822335D01*
X158349779Y-100747835D01*
X158297235Y-100689478D01*
X158297232Y-100689476D01*
X158297231Y-100689475D01*
X158297230Y-100689474D01*
X158152593Y-100584388D01*
X157989267Y-100511671D01*
X157989265Y-100511670D01*
X157861594Y-100484533D01*
X157814391Y-100474500D01*
X157814390Y-100474500D01*
X157797038Y-100474500D01*
X157729999Y-100454815D01*
X157684244Y-100402011D01*
X157673717Y-100363462D01*
X157669380Y-100322197D01*
X157661497Y-100247197D01*
X157629050Y-100147335D01*
X157606252Y-100077170D01*
X157606249Y-100077164D01*
X157516859Y-99922335D01*
X157465783Y-99865610D01*
X157397235Y-99789478D01*
X157397232Y-99789476D01*
X157397231Y-99789475D01*
X157397230Y-99789474D01*
X157252593Y-99684388D01*
X157089267Y-99611671D01*
X157089265Y-99611670D01*
X156937914Y-99579500D01*
X156914391Y-99574500D01*
X156735609Y-99574500D01*
X156712086Y-99579500D01*
X156560733Y-99611670D01*
X156560728Y-99611672D01*
X156397408Y-99684387D01*
X156252768Y-99789475D01*
X156133140Y-99922336D01*
X156043750Y-100077164D01*
X156043747Y-100077170D01*
X155988504Y-100247192D01*
X155988503Y-100247194D01*
X155969815Y-100425000D01*
X155577557Y-100425000D01*
X155580185Y-100400000D01*
X155561497Y-100222197D01*
X155532016Y-100131465D01*
X155506252Y-100052170D01*
X155506249Y-100052164D01*
X155500078Y-100041475D01*
X155416859Y-99897335D01*
X155353079Y-99826500D01*
X155297235Y-99764478D01*
X155297232Y-99764476D01*
X155297231Y-99764475D01*
X155297230Y-99764474D01*
X155152593Y-99659388D01*
X154989267Y-99586671D01*
X154989265Y-99586670D01*
X154861594Y-99559533D01*
X154814391Y-99549500D01*
X154635609Y-99549500D01*
X154604954Y-99556015D01*
X154460733Y-99586670D01*
X154460728Y-99586672D01*
X154297408Y-99659387D01*
X154152770Y-99764474D01*
X154103453Y-99819245D01*
X154043965Y-99855892D01*
X153985523Y-99857561D01*
X153902327Y-99839877D01*
X153839391Y-99826500D01*
X153660609Y-99826500D01*
X153629954Y-99833015D01*
X153485733Y-99863670D01*
X153485728Y-99863672D01*
X153322408Y-99936387D01*
X153177768Y-100041475D01*
X153058140Y-100174336D01*
X152968750Y-100329164D01*
X152968747Y-100329170D01*
X152913504Y-100499192D01*
X152913503Y-100499194D01*
X152894815Y-100677000D01*
X147696143Y-100677000D01*
X147736497Y-100552803D01*
X147755185Y-100375000D01*
X147736811Y-100200191D01*
X147749380Y-100131465D01*
X147797112Y-100080441D01*
X147834350Y-100065943D01*
X147916198Y-100048546D01*
X147964263Y-100038330D01*
X147964263Y-100038329D01*
X147964267Y-100038329D01*
X148127593Y-99965612D01*
X148272230Y-99860526D01*
X148276403Y-99855892D01*
X148302867Y-99826500D01*
X148391859Y-99727665D01*
X148481250Y-99572835D01*
X148484180Y-99563819D01*
X148496468Y-99526000D01*
X148536497Y-99402803D01*
X148555185Y-99225000D01*
X148544674Y-99125000D01*
X158019815Y-99125000D01*
X158038503Y-99302805D01*
X158038504Y-99302807D01*
X158093747Y-99472829D01*
X158093750Y-99472835D01*
X158183141Y-99627665D01*
X158212279Y-99660026D01*
X158302764Y-99760521D01*
X158302767Y-99760523D01*
X158302770Y-99760526D01*
X158447407Y-99865612D01*
X158610733Y-99938329D01*
X158785609Y-99975500D01*
X158785610Y-99975500D01*
X158964389Y-99975500D01*
X158964391Y-99975500D01*
X159139267Y-99938329D01*
X159302593Y-99865612D01*
X159447230Y-99760526D01*
X159455655Y-99751170D01*
X159502900Y-99698698D01*
X159566859Y-99627665D01*
X159656250Y-99472835D01*
X159711497Y-99302803D01*
X159730185Y-99125000D01*
X159711497Y-98947197D01*
X159680990Y-98853307D01*
X159656252Y-98777170D01*
X159656249Y-98777164D01*
X159646643Y-98760526D01*
X159566859Y-98622335D01*
X159488693Y-98535523D01*
X159447235Y-98489478D01*
X159447232Y-98489476D01*
X159447231Y-98489475D01*
X159447230Y-98489474D01*
X159302593Y-98384388D01*
X159139267Y-98311671D01*
X159139265Y-98311670D01*
X159008553Y-98283887D01*
X158964391Y-98274500D01*
X158785609Y-98274500D01*
X158754954Y-98281015D01*
X158610733Y-98311670D01*
X158610728Y-98311672D01*
X158447408Y-98384387D01*
X158302768Y-98489475D01*
X158183140Y-98622336D01*
X158093750Y-98777164D01*
X158093747Y-98777170D01*
X158038504Y-98947192D01*
X158038503Y-98947194D01*
X158019815Y-99125000D01*
X148544674Y-99125000D01*
X148536497Y-99047197D01*
X148504003Y-98947192D01*
X148481252Y-98877170D01*
X148481249Y-98877164D01*
X148391859Y-98722335D01*
X148345003Y-98670296D01*
X148272235Y-98589478D01*
X148272232Y-98589476D01*
X148272231Y-98589475D01*
X148272230Y-98589474D01*
X148127593Y-98484388D01*
X147964267Y-98411671D01*
X147964265Y-98411670D01*
X147835906Y-98384387D01*
X147789391Y-98374500D01*
X147610609Y-98374500D01*
X147573439Y-98382400D01*
X147435734Y-98411670D01*
X147435729Y-98411672D01*
X147362370Y-98444333D01*
X147293120Y-98453617D01*
X147229844Y-98423988D01*
X147219786Y-98414025D01*
X147197231Y-98388975D01*
X147190917Y-98384387D01*
X147052593Y-98283888D01*
X146889267Y-98211171D01*
X146889265Y-98211170D01*
X146761594Y-98184033D01*
X146714391Y-98174000D01*
X146535609Y-98174000D01*
X146504954Y-98180515D01*
X146360733Y-98211170D01*
X146360728Y-98211172D01*
X146197408Y-98283887D01*
X146052768Y-98388975D01*
X145933140Y-98521836D01*
X145843750Y-98676664D01*
X145843747Y-98676670D01*
X145788504Y-98846692D01*
X145788503Y-98846694D01*
X145769815Y-99024500D01*
X145788503Y-99202305D01*
X145788504Y-99202307D01*
X145843747Y-99372329D01*
X145843750Y-99372335D01*
X145933141Y-99527165D01*
X145936137Y-99530492D01*
X146052764Y-99660021D01*
X146052767Y-99660023D01*
X146052770Y-99660026D01*
X146158254Y-99736665D01*
X146200919Y-99791995D01*
X146206898Y-99861609D01*
X146192756Y-99898982D01*
X146118749Y-100027167D01*
X146118748Y-100027168D01*
X146096262Y-100096375D01*
X146056824Y-100154050D01*
X145992465Y-100181248D01*
X145923619Y-100169333D01*
X145886181Y-100141028D01*
X145772235Y-100014478D01*
X145772232Y-100014476D01*
X145772231Y-100014475D01*
X145772230Y-100014474D01*
X145627593Y-99909388D01*
X145464267Y-99836671D01*
X145464265Y-99836670D01*
X145336594Y-99809533D01*
X145289391Y-99799500D01*
X145110609Y-99799500D01*
X145079954Y-99806015D01*
X144935733Y-99836670D01*
X144935728Y-99836672D01*
X144772408Y-99909387D01*
X144627768Y-100014475D01*
X144508140Y-100147336D01*
X144418750Y-100302164D01*
X144418747Y-100302170D01*
X144363504Y-100472192D01*
X144363503Y-100472194D01*
X144344815Y-100650000D01*
X140744205Y-100650000D01*
X140877593Y-100590612D01*
X141022230Y-100485526D01*
X141141859Y-100352665D01*
X141231250Y-100197835D01*
X141286497Y-100027803D01*
X141305185Y-99850000D01*
X141286497Y-99672197D01*
X141239373Y-99527165D01*
X141231252Y-99502170D01*
X141231249Y-99502164D01*
X141214316Y-99472835D01*
X141141859Y-99347335D01*
X141054492Y-99250304D01*
X141022235Y-99214478D01*
X141022232Y-99214476D01*
X141022231Y-99214475D01*
X141022230Y-99214474D01*
X140877593Y-99109388D01*
X140714267Y-99036671D01*
X140714265Y-99036670D01*
X140586594Y-99009533D01*
X140539391Y-98999500D01*
X140360609Y-98999500D01*
X140329954Y-99006015D01*
X140185733Y-99036670D01*
X140185728Y-99036672D01*
X140022408Y-99109387D01*
X139877768Y-99214475D01*
X139758140Y-99347336D01*
X139668750Y-99502164D01*
X139668748Y-99502168D01*
X139648717Y-99563819D01*
X139609279Y-99621494D01*
X139544920Y-99648692D01*
X139530786Y-99649500D01*
X139385609Y-99649500D01*
X139360849Y-99654763D01*
X139210733Y-99686670D01*
X139210728Y-99686672D01*
X139047408Y-99759387D01*
X138902768Y-99864475D01*
X138783140Y-99997336D01*
X138693750Y-100152164D01*
X138693747Y-100152170D01*
X138638504Y-100322192D01*
X138638503Y-100322194D01*
X138619815Y-100500000D01*
X131840909Y-100500000D01*
X131945203Y-99496164D01*
X131971710Y-99431520D01*
X131983924Y-99418337D01*
X133414269Y-98083349D01*
X133476709Y-98051997D01*
X133498876Y-98050000D01*
X136889286Y-98050000D01*
X136956325Y-98069685D01*
X137002080Y-98122489D01*
X137012024Y-98191647D01*
X136996673Y-98235998D01*
X136979735Y-98265336D01*
X136943750Y-98327664D01*
X136943747Y-98327670D01*
X136888504Y-98497692D01*
X136888503Y-98497694D01*
X136869815Y-98675500D01*
X136888503Y-98853305D01*
X136888504Y-98853307D01*
X136943747Y-99023329D01*
X136943750Y-99023335D01*
X137033141Y-99178165D01*
X137074812Y-99224446D01*
X137152764Y-99311021D01*
X137152767Y-99311023D01*
X137152770Y-99311026D01*
X137297407Y-99416112D01*
X137460733Y-99488829D01*
X137635609Y-99526000D01*
X137635610Y-99526000D01*
X137814389Y-99526000D01*
X137814391Y-99526000D01*
X137989267Y-99488829D01*
X138152593Y-99416112D01*
X138297230Y-99311026D01*
X138304631Y-99302807D01*
X138323148Y-99282241D01*
X138416859Y-99178165D01*
X138506250Y-99023335D01*
X138561497Y-98853303D01*
X138568950Y-98782389D01*
X138595533Y-98717778D01*
X138652830Y-98677793D01*
X138722649Y-98675133D01*
X138782823Y-98710642D01*
X138784420Y-98712382D01*
X138827764Y-98760521D01*
X138827767Y-98760523D01*
X138827770Y-98760526D01*
X138972407Y-98865612D01*
X139135733Y-98938329D01*
X139310609Y-98975500D01*
X139310610Y-98975500D01*
X139489389Y-98975500D01*
X139489391Y-98975500D01*
X139664267Y-98938329D01*
X139827593Y-98865612D01*
X139972230Y-98760526D01*
X139981258Y-98750500D01*
X139998148Y-98731741D01*
X140091859Y-98627665D01*
X140181250Y-98472835D01*
X140236497Y-98302803D01*
X140255185Y-98125000D01*
X140236497Y-97947197D01*
X140193742Y-97815610D01*
X140181252Y-97777170D01*
X140181249Y-97777164D01*
X140149514Y-97722197D01*
X140091859Y-97622335D01*
X140045003Y-97570296D01*
X139972235Y-97489478D01*
X139972232Y-97489476D01*
X139972231Y-97489475D01*
X139972230Y-97489474D01*
X139827593Y-97384388D01*
X139664267Y-97311671D01*
X139664265Y-97311670D01*
X139536594Y-97284533D01*
X139489391Y-97274500D01*
X139310609Y-97274500D01*
X139279954Y-97281015D01*
X139135733Y-97311670D01*
X139135728Y-97311672D01*
X138972408Y-97384387D01*
X138827770Y-97489474D01*
X138818703Y-97499544D01*
X138759215Y-97536191D01*
X138689358Y-97534859D01*
X138631311Y-97495970D01*
X138603503Y-97431873D01*
X138602556Y-97416084D01*
X138603327Y-97225000D01*
X140694815Y-97225000D01*
X140713503Y-97402805D01*
X140713504Y-97402807D01*
X140768747Y-97572829D01*
X140768750Y-97572835D01*
X140858141Y-97727665D01*
X140899812Y-97773946D01*
X140977764Y-97860521D01*
X140977767Y-97860523D01*
X140977770Y-97860526D01*
X141122407Y-97965612D01*
X141285733Y-98038329D01*
X141460609Y-98075500D01*
X141460610Y-98075500D01*
X141639389Y-98075500D01*
X141639391Y-98075500D01*
X141814267Y-98038329D01*
X141977593Y-97965612D01*
X142122230Y-97860526D01*
X142241859Y-97727665D01*
X142331250Y-97572835D01*
X142386497Y-97402803D01*
X142405185Y-97225000D01*
X142386497Y-97047197D01*
X142337757Y-96897192D01*
X142331252Y-96877170D01*
X142331249Y-96877164D01*
X142322297Y-96861658D01*
X142241859Y-96722335D01*
X142195003Y-96670296D01*
X142122235Y-96589478D01*
X142122232Y-96589476D01*
X142122231Y-96589475D01*
X142122230Y-96589474D01*
X141977593Y-96484388D01*
X141814267Y-96411671D01*
X141814265Y-96411670D01*
X141686594Y-96384533D01*
X141639391Y-96374500D01*
X141460609Y-96374500D01*
X141429954Y-96381015D01*
X141285733Y-96411670D01*
X141285728Y-96411672D01*
X141122408Y-96484387D01*
X140977768Y-96589475D01*
X140858140Y-96722336D01*
X140768750Y-96877164D01*
X140768747Y-96877170D01*
X140713504Y-97047192D01*
X140713503Y-97047194D01*
X140694815Y-97225000D01*
X138603327Y-97225000D01*
X138607260Y-96250000D01*
X145794815Y-96250000D01*
X145813503Y-96427805D01*
X145813504Y-96427807D01*
X145868747Y-96597829D01*
X145868750Y-96597835D01*
X145958141Y-96752665D01*
X145998016Y-96796950D01*
X146077764Y-96885521D01*
X146077767Y-96885523D01*
X146077770Y-96885526D01*
X146222407Y-96990612D01*
X146385733Y-97063329D01*
X146385735Y-97063329D01*
X146385736Y-97063330D01*
X146440641Y-97075000D01*
X146535786Y-97095223D01*
X146597267Y-97128415D01*
X146631044Y-97189578D01*
X146633325Y-97203549D01*
X146638502Y-97252796D01*
X146638504Y-97252807D01*
X146693747Y-97422829D01*
X146693750Y-97422835D01*
X146783141Y-97577665D01*
X146823362Y-97622335D01*
X146902764Y-97710521D01*
X146902767Y-97710523D01*
X146902770Y-97710526D01*
X147047407Y-97815612D01*
X147210733Y-97888329D01*
X147385609Y-97925500D01*
X147385610Y-97925500D01*
X147564389Y-97925500D01*
X147564391Y-97925500D01*
X147684359Y-97900000D01*
X154869815Y-97900000D01*
X154888503Y-98077805D01*
X154888504Y-98077807D01*
X154943747Y-98247829D01*
X154943750Y-98247835D01*
X155033141Y-98402665D01*
X155070659Y-98444333D01*
X155152764Y-98535521D01*
X155152767Y-98535523D01*
X155152770Y-98535526D01*
X155297407Y-98640612D01*
X155460733Y-98713329D01*
X155635609Y-98750500D01*
X155635610Y-98750500D01*
X155814389Y-98750500D01*
X155814391Y-98750500D01*
X155989267Y-98713329D01*
X156152593Y-98640612D01*
X156297230Y-98535526D01*
X156309558Y-98521835D01*
X156323148Y-98506741D01*
X156416859Y-98402665D01*
X156506250Y-98247835D01*
X156561497Y-98077803D01*
X156580185Y-97900000D01*
X156561497Y-97722197D01*
X156529050Y-97622335D01*
X156506252Y-97552170D01*
X156506249Y-97552164D01*
X156475869Y-97499544D01*
X156416859Y-97397335D01*
X156363741Y-97338342D01*
X156297235Y-97264478D01*
X156297232Y-97264476D01*
X156297231Y-97264475D01*
X156297230Y-97264474D01*
X156152593Y-97159388D01*
X155989267Y-97086671D01*
X155989265Y-97086670D01*
X155861594Y-97059533D01*
X155814391Y-97049500D01*
X155635609Y-97049500D01*
X155604954Y-97056015D01*
X155460733Y-97086670D01*
X155460728Y-97086672D01*
X155297408Y-97159387D01*
X155152768Y-97264475D01*
X155033140Y-97397336D01*
X154943750Y-97552164D01*
X154943747Y-97552170D01*
X154888504Y-97722192D01*
X154888503Y-97722194D01*
X154869815Y-97900000D01*
X147684359Y-97900000D01*
X147739267Y-97888329D01*
X147902593Y-97815612D01*
X148047230Y-97710526D01*
X148166859Y-97577665D01*
X148256250Y-97422835D01*
X148311497Y-97252803D01*
X148330185Y-97075000D01*
X148311497Y-96897197D01*
X148270802Y-96771950D01*
X148256252Y-96727170D01*
X148256249Y-96727164D01*
X148251829Y-96719508D01*
X148166859Y-96572335D01*
X148087672Y-96484389D01*
X148047235Y-96439478D01*
X148047232Y-96439476D01*
X148047231Y-96439475D01*
X148047230Y-96439474D01*
X147902593Y-96334388D01*
X147739267Y-96261671D01*
X147739265Y-96261670D01*
X147589213Y-96229776D01*
X147527731Y-96196584D01*
X147493955Y-96135421D01*
X147491674Y-96121458D01*
X147486497Y-96072197D01*
X147431250Y-95902165D01*
X147341859Y-95747335D01*
X147276685Y-95674952D01*
X147222235Y-95614478D01*
X147222232Y-95614476D01*
X147222231Y-95614475D01*
X147222230Y-95614474D01*
X147077593Y-95509388D01*
X146914267Y-95436671D01*
X146914265Y-95436670D01*
X146786594Y-95409533D01*
X146739391Y-95399500D01*
X146560609Y-95399500D01*
X146529954Y-95406015D01*
X146385733Y-95436670D01*
X146385728Y-95436672D01*
X146222408Y-95509387D01*
X146077768Y-95614475D01*
X145958140Y-95747336D01*
X145868750Y-95902164D01*
X145868747Y-95902170D01*
X145813504Y-96072192D01*
X145813503Y-96072194D01*
X145794815Y-96250000D01*
X138607260Y-96250000D01*
X138620671Y-92925000D01*
X143619815Y-92925000D01*
X143638503Y-93102805D01*
X143638504Y-93102807D01*
X143693747Y-93272829D01*
X143693750Y-93272835D01*
X143783141Y-93427665D01*
X143798967Y-93445241D01*
X143902764Y-93560521D01*
X143902767Y-93560523D01*
X143902770Y-93560526D01*
X144047407Y-93665612D01*
X144210733Y-93738329D01*
X144385609Y-93775500D01*
X144385610Y-93775500D01*
X144564389Y-93775500D01*
X144564391Y-93775500D01*
X144739267Y-93738329D01*
X144902593Y-93665612D01*
X145047230Y-93560526D01*
X145166859Y-93427665D01*
X145256250Y-93272835D01*
X145311497Y-93102803D01*
X145330185Y-92925000D01*
X145311497Y-92747197D01*
X145256250Y-92577165D01*
X145166859Y-92422335D01*
X145120003Y-92370296D01*
X145047235Y-92289478D01*
X145047232Y-92289476D01*
X145047231Y-92289475D01*
X145047230Y-92289474D01*
X144902593Y-92184388D01*
X144739267Y-92111671D01*
X144739265Y-92111670D01*
X144611594Y-92084533D01*
X144564391Y-92074500D01*
X144385609Y-92074500D01*
X144365859Y-92078698D01*
X144210733Y-92111670D01*
X144210728Y-92111672D01*
X144047408Y-92184387D01*
X143902768Y-92289475D01*
X143783140Y-92422336D01*
X143693750Y-92577164D01*
X143693747Y-92577170D01*
X143638504Y-92747192D01*
X143638503Y-92747194D01*
X143619815Y-92925000D01*
X138620671Y-92925000D01*
X138621012Y-92840486D01*
X138640967Y-92773529D01*
X138693955Y-92727988D01*
X138725608Y-92718516D01*
X138775304Y-92710646D01*
X138888342Y-92653050D01*
X138978050Y-92563342D01*
X139035646Y-92450304D01*
X139035646Y-92450302D01*
X139035647Y-92450301D01*
X139035647Y-92450300D01*
X139055492Y-92325003D01*
X139055492Y-92324996D01*
X139035647Y-92199699D01*
X139035647Y-92199698D01*
X139035646Y-92199696D01*
X138978050Y-92086658D01*
X138978046Y-92086654D01*
X138978045Y-92086652D01*
X138888347Y-91996954D01*
X138888344Y-91996952D01*
X138888342Y-91996950D01*
X138811517Y-91957805D01*
X138775301Y-91939352D01*
X138729773Y-91932142D01*
X138666638Y-91902213D01*
X138629707Y-91842901D01*
X138625172Y-91809174D01*
X138649793Y-85705287D01*
X138669748Y-85638328D01*
X138686375Y-85617843D01*
X142150000Y-82175000D01*
X142150000Y-80525000D01*
X146369815Y-80525000D01*
X146388503Y-80702805D01*
X146388504Y-80702807D01*
X146443747Y-80872829D01*
X146443750Y-80872835D01*
X146533141Y-81027665D01*
X146574812Y-81073946D01*
X146652764Y-81160521D01*
X146652767Y-81160523D01*
X146652770Y-81160526D01*
X146797407Y-81265612D01*
X146960733Y-81338329D01*
X147135609Y-81375500D01*
X147135610Y-81375500D01*
X147314389Y-81375500D01*
X147314391Y-81375500D01*
X147489267Y-81338329D01*
X147652593Y-81265612D01*
X147797230Y-81160526D01*
X147916859Y-81027665D01*
X147987358Y-80905556D01*
X148006248Y-80872839D01*
X148006248Y-80872837D01*
X148006250Y-80872835D01*
X148026610Y-80810172D01*
X148066044Y-80752501D01*
X148130402Y-80725302D01*
X148157514Y-80725174D01*
X148160606Y-80725499D01*
X148160609Y-80725500D01*
X148160612Y-80725500D01*
X148339389Y-80725500D01*
X148339391Y-80725500D01*
X148514267Y-80688329D01*
X148677593Y-80615612D01*
X148822230Y-80510526D01*
X148941859Y-80377665D01*
X149031250Y-80222835D01*
X149086497Y-80052803D01*
X149105185Y-79875000D01*
X149086497Y-79697197D01*
X149051610Y-79589825D01*
X149031252Y-79527170D01*
X149031249Y-79527164D01*
X148941859Y-79372335D01*
X148895003Y-79320296D01*
X148822235Y-79239478D01*
X148822232Y-79239476D01*
X148822231Y-79239475D01*
X148822230Y-79239474D01*
X148677593Y-79134388D01*
X148514267Y-79061671D01*
X148514265Y-79061670D01*
X148386594Y-79034533D01*
X148339391Y-79024500D01*
X148160609Y-79024500D01*
X148129954Y-79031015D01*
X147985733Y-79061670D01*
X147985728Y-79061672D01*
X147822408Y-79134387D01*
X147677768Y-79239475D01*
X147558140Y-79372336D01*
X147468750Y-79527164D01*
X147468748Y-79527168D01*
X147448390Y-79589825D01*
X147408952Y-79647500D01*
X147344593Y-79674698D01*
X147317494Y-79674826D01*
X147314393Y-79674500D01*
X147314391Y-79674500D01*
X147135609Y-79674500D01*
X147113488Y-79679202D01*
X146960733Y-79711670D01*
X146960728Y-79711672D01*
X146797408Y-79784387D01*
X146652768Y-79889475D01*
X146533140Y-80022336D01*
X146443750Y-80177164D01*
X146443747Y-80177170D01*
X146388504Y-80347192D01*
X146388503Y-80347194D01*
X146369815Y-80525000D01*
X142150000Y-80525000D01*
X142150000Y-73410500D01*
X142169685Y-73343461D01*
X142222489Y-73297706D01*
X142274000Y-73286500D01*
X166875500Y-73286500D01*
X166942539Y-73306185D01*
G37*
%TD.AperFunction*%
%TD*%
M02*
