M48
; DRILL file {KiCad 7.0.8} date Thu Jan  4 13:40:02 2024
; FORMAT={-:-/ absolute / metric / decimal}
; #@! TF.CreationDate,2024-01-04T13:40:02+01:00
; #@! TF.GenerationSoftware,Kicad,Pcbnew,7.0.8
; #@! TF.FileFunction,Plated,1,4,PTH
FMAT,2
METRIC
; #@! TA.AperFunction,Plated,PTH,ViaDrill
T1C0.300
; #@! TA.AperFunction,Plated,PTH,ComponentDrill
T2C1.000
%
G90
G05
T1
X123.4Y-122.304
X124.85Y-81.404
X124.9Y-76.054
X125.35Y-124.804
X125.35Y-125.629
X125.35Y-126.454
X126.4Y-118.204
X126.4Y-120.804
X127.225Y-99.125
X127.65Y-97.1
X127.85Y-81.804
X128.6Y-104.954
X128.8Y-95.2
X129.8Y-75.054
X130.344Y-104.875
X131.028Y-91.528
X132.387Y-89.987
X132.937Y-108.804
X133.1Y-117.797
X133.5Y-115.297
X133.7Y-88.9
X133.9Y-86.004
X134.25Y-105.775
X135.05Y-74.104
X135.4Y-102.775
X136.0Y-83.704
X136.7Y-100.6
X137.225Y-86.075
X137.725Y-98.675
X137.75Y-97.125
X137.75Y-117.797
X137.837Y-108.804
X138.35Y-79.154
X138.65Y-92.325
X139.4Y-98.125
X139.45Y-97.125
X139.475Y-100.5
X139.875Y-88.4
X140.05Y-79.154
X140.225Y-104.412
X140.45Y-99.85
X140.839Y-105.986
X141.55Y-97.225
X141.75Y-91.625
X142.475Y-107.2
X143.05Y-103.275
X143.275Y-107.95
X143.3Y-84.025
X143.325Y-104.4
X143.585Y-111.41
X144.475Y-92.925
X144.725Y-111.225
X145.05Y-95.624
X145.2Y-100.65
X145.269Y-122.894
X145.45Y-103.575
X145.625Y-91.775
X145.875Y-118.725
X146.197Y-116.647
X146.625Y-99.024
X146.65Y-96.25
X146.9Y-100.375
X147.225Y-80.525
X147.475Y-97.075
X147.7Y-99.225
X148.25Y-79.875
X149.15Y-101.975
X149.425Y-88.45
X150.325Y-116.704
X150.9Y-74.254
X151.725Y-115.875
X151.925Y-127.025
X152.8Y-83.85
X153.35Y-121.529
X153.75Y-100.677
X154.725Y-100.4
X154.85Y-74.204
X155.725Y-97.9
X156.3Y-120.179
X156.825Y-100.425
X157.725Y-101.325
X157.9Y-125.754
X158.7Y-111.804
X158.7Y-117.154
X158.875Y-99.125
X159.713Y-102.212
X162.35Y-120.034
X162.35Y-121.75
T2
X119.38Y-77.47
X119.38Y-80.01
X119.38Y-82.55
X119.38Y-85.09
X119.38Y-87.63
X119.38Y-90.17
X119.38Y-92.71
X119.38Y-95.25
X119.38Y-97.79
X119.38Y-100.33
X119.38Y-102.87
X119.38Y-105.41
X119.38Y-107.95
X119.38Y-110.49
X119.38Y-113.03
X119.38Y-115.57
X119.38Y-118.11
X119.38Y-120.65
X119.38Y-123.19
X119.38Y-125.73
X131.85Y-123.914
X131.85Y-126.454
X134.39Y-123.914
X134.39Y-126.454
X136.93Y-123.914
X136.93Y-126.454
X139.47Y-123.914
X139.47Y-126.454
X142.01Y-123.914
X142.01Y-126.454
X165.1Y-74.93
X165.1Y-77.47
X165.1Y-80.01
X165.1Y-82.55
X165.1Y-85.09
X165.1Y-87.63
X165.1Y-90.17
X165.1Y-92.71
X165.1Y-95.25
X165.1Y-97.79
X165.1Y-100.33
X165.1Y-102.87
X165.1Y-105.41
X165.1Y-107.95
X165.1Y-110.49
X165.1Y-113.03
X165.1Y-115.57
X165.1Y-118.11
X165.1Y-120.65
X165.1Y-123.19
X165.1Y-125.73
T0
M30
