%TF.GenerationSoftware,KiCad,Pcbnew,7.0.8*%
%TF.CreationDate,2024-01-04T13:39:42+01:00*%
%TF.ProjectId,OSSI_CM2,4f535349-5f43-44d3-922e-6b696361645f,rev?*%
%TF.SameCoordinates,Original*%
%TF.FileFunction,Copper,L4,Bot*%
%TF.FilePolarity,Positive*%
%FSLAX46Y46*%
G04 Gerber Fmt 4.6, Leading zero omitted, Abs format (unit mm)*
G04 Created by KiCad (PCBNEW 7.0.8) date 2024-01-04 13:39:42*
%MOMM*%
%LPD*%
G01*
G04 APERTURE LIST*
%TA.AperFunction,ComponentPad*%
%ADD10R,1.700000X1.700000*%
%TD*%
%TA.AperFunction,ComponentPad*%
%ADD11O,1.700000X1.700000*%
%TD*%
%TA.AperFunction,SMDPad,CuDef*%
%ADD12R,0.150000X0.300000*%
%TD*%
%TA.AperFunction,ViaPad*%
%ADD13C,0.700000*%
%TD*%
%TA.AperFunction,Conductor*%
%ADD14C,0.300000*%
%TD*%
%TA.AperFunction,Conductor*%
%ADD15C,0.700000*%
%TD*%
%TA.AperFunction,Conductor*%
%ADD16C,0.400000*%
%TD*%
%TA.AperFunction,Conductor*%
%ADD17C,0.500000*%
%TD*%
%TA.AperFunction,Conductor*%
%ADD18C,0.250000*%
%TD*%
G04 APERTURE END LIST*
D10*
%TO.P,X101,1,1*%
%TO.N,+3V3*%
X131850000Y-126454000D03*
D11*
%TO.P,X101,2,2*%
%TO.N,/SWD_DIO{slash}PA13*%
X131850000Y-123914000D03*
%TO.P,X101,3,3*%
%TO.N,GND*%
X134390000Y-126454000D03*
%TO.P,X101,4,4*%
%TO.N,/SWD_CLK{slash}PA14*%
X134390000Y-123914000D03*
%TO.P,X101,5,5*%
%TO.N,GND*%
X136930000Y-126454000D03*
%TO.P,X101,6,6*%
%TO.N,/TRACE_SWO{slash}PB3*%
X136930000Y-123914000D03*
%TO.P,X101,7,7*%
%TO.N,unconnected-(X101-Pad7)*%
X139470000Y-126454000D03*
%TO.P,X101,8,8*%
%TO.N,Net-(U101B-PH3{slash}BOOT0)*%
X139470000Y-123914000D03*
%TO.P,X101,9,9*%
%TO.N,GND*%
X142010000Y-126454000D03*
%TO.P,X101,10,10*%
%TO.N,Net-(U101B-~{RST})*%
X142010000Y-123914000D03*
%TD*%
D10*
%TO.P,X201,1,Pin_1*%
%TO.N,+3V3_ANA*%
X119380000Y-77470000D03*
D11*
%TO.P,X201,2,Pin_2*%
%TO.N,1V25_REF*%
X119380000Y-80010000D03*
%TO.P,X201,3,Pin_3*%
%TO.N,2V50_REF*%
X119380000Y-82550000D03*
%TO.P,X201,4,Pin_4*%
%TO.N,AGND*%
X119380000Y-85090000D03*
%TO.P,X201,5,Pin_5*%
%TO.N,AC_Grid_Voltage*%
X119380000Y-87630000D03*
%TO.P,X201,6,Pin_6*%
%TO.N,Relay_Ctrl_Voltage*%
X119380000Y-90170000D03*
%TO.P,X201,7,Pin_7*%
%TO.N,AGND*%
X119380000Y-92710000D03*
%TO.P,X201,8,Pin_8*%
%TO.N,DC_Link_Voltage*%
X119380000Y-95250000D03*
%TO.P,X201,9,Pin_9*%
%TO.N,AC_Current*%
X119380000Y-97790000D03*
%TO.P,X201,10,Pin_10*%
%TO.N,AGND*%
X119380000Y-100330000D03*
%TO.P,X201,11,Pin_11*%
%TO.N,AC_Relay_Voltage*%
X119380000Y-102870000D03*
%TO.P,X201,12,Pin_12*%
%TO.N,DC_Input_Voltage*%
X119380000Y-105410000D03*
%TO.P,X201,13,Pin_13*%
%TO.N,AGND*%
X119380000Y-107950000D03*
%TO.P,X201,14,Pin_14*%
%TO.N,DC_Current*%
X119380000Y-110490000D03*
%TO.P,X201,15,Pin_15*%
%TO.N,AC_Inverter_Voltage*%
X119380000Y-113030000D03*
%TO.P,X201,16,Pin_16*%
%TO.N,AGND*%
X119380000Y-115570000D03*
%TO.P,X201,17,Pin_17*%
%TO.N,LED_Red_Ctrl*%
X119380000Y-118110000D03*
%TO.P,X201,18,Pin_18*%
%TO.N,LED_Green_Ctrl*%
X119380000Y-120650000D03*
%TO.P,X201,19,Pin_19*%
%TO.N,GND*%
X119380000Y-123190000D03*
%TO.P,X201,20,Pin_20*%
%TO.N,+3V3*%
X119380000Y-125730000D03*
%TD*%
D12*
%TO.P,STAR101,1,1*%
%TO.N,AGND*%
X138187500Y-97125000D03*
%TO.P,STAR101,2,2*%
%TO.N,GND*%
X138610000Y-97125000D03*
%TD*%
D10*
%TO.P,X202,21,Pin_21*%
%TO.N,GND*%
X165100000Y-125730000D03*
D11*
%TO.P,X202,22,Pin_22*%
%TO.N,UART_RX*%
X165100000Y-123190000D03*
%TO.P,X202,23,Pin_23*%
%TO.N,UART_TX*%
X165100000Y-120650000D03*
%TO.P,X202,24,Pin_24*%
%TO.N,GND*%
X165100000Y-118110000D03*
%TO.P,X202,25,Pin_25*%
%TO.N,I2C_Dat*%
X165100000Y-115570000D03*
%TO.P,X202,26,Pin_26*%
%TO.N,I2C_Clk*%
X165100000Y-113030000D03*
%TO.P,X202,27,Pin_27*%
%TO.N,GND*%
X165100000Y-110490000D03*
%TO.P,X202,28,Pin_28*%
%TO.N,HISIDE_PWM_\u00B5C*%
X165100000Y-107950000D03*
%TO.P,X202,29,Pin_29*%
%TO.N,Boost_T1*%
X165100000Y-105410000D03*
%TO.P,X202,30,Pin_30*%
%TO.N,GND*%
X165100000Y-102870000D03*
%TO.P,X202,31,Pin_31*%
%TO.N,Relay_Voltage_Ctrl*%
X165100000Y-100330000D03*
%TO.P,X202,32,Pin_32*%
%TO.N,Bridge_T1*%
X165100000Y-97790000D03*
%TO.P,X202,33,Pin_33*%
%TO.N,GND*%
X165100000Y-95250000D03*
%TO.P,X202,34,Pin_34*%
%TO.N,Bridge_T2*%
X165100000Y-92710000D03*
%TO.P,X202,35,Pin_35*%
%TO.N,Bridge_T3*%
X165100000Y-90170000D03*
%TO.P,X202,36,Pin_36*%
%TO.N,GND*%
X165100000Y-87630000D03*
%TO.P,X202,37,Pin_37*%
%TO.N,Bridge_T4*%
X165100000Y-85090000D03*
%TO.P,X202,38,Pin_38*%
%TO.N,Inv_Relay_Ctrl*%
X165100000Y-82550000D03*
%TO.P,X202,39,Pin_39*%
%TO.N,GND*%
X165100000Y-80010000D03*
%TO.P,X202,40,Pin_40*%
%TO.N,Grid_Relay_Ctrl*%
X165100000Y-77470000D03*
%TO.P,X202,41,Pin_41*%
%TO.N,GND*%
X165100000Y-74930000D03*
%TD*%
D13*
%TO.N,GND*%
X151925000Y-127025000D03*
X152800000Y-83850000D03*
X145050000Y-95624500D03*
X133100000Y-117797400D03*
X136700000Y-100600000D03*
X141750000Y-91625000D03*
X149425000Y-88450000D03*
X145875000Y-118725000D03*
X134250000Y-105775000D03*
X154850000Y-74204000D03*
X139450000Y-97125000D03*
X139875000Y-88400000D03*
X143300000Y-84025000D03*
X133500000Y-115297400D03*
X153350000Y-121529000D03*
X123400000Y-122304000D03*
X157900000Y-125754000D03*
X143325000Y-104400000D03*
X150900000Y-74254000D03*
X145625000Y-91775000D03*
%TO.N,AGND*%
X136000000Y-83704000D03*
X137225000Y-86075000D03*
X133900000Y-86004000D03*
X124850000Y-81404000D03*
X133700000Y-88900000D03*
X138650000Y-92325000D03*
X135050000Y-74104000D03*
X130343523Y-104875000D03*
X132387023Y-89987024D03*
X128800000Y-95200000D03*
X127650000Y-97100000D03*
X124900000Y-76054000D03*
X137750000Y-97125000D03*
X131028445Y-91528445D03*
X132936800Y-108804000D03*
X140050000Y-79154000D03*
X127850000Y-81804000D03*
X127225000Y-99125000D03*
X128600000Y-104954000D03*
X129800000Y-75054000D03*
%TO.N,+3V3*%
X137750000Y-117797400D03*
X135400000Y-102775000D03*
X125350000Y-125629000D03*
X125350000Y-124804000D03*
X125350000Y-126454000D03*
X156300000Y-120179000D03*
X158700000Y-117154000D03*
X146196978Y-116646978D03*
X143050000Y-103275000D03*
X145269477Y-122894477D03*
X144475000Y-92925000D03*
X158700000Y-111804000D03*
%TO.N,Net-(U101A-PB10{slash}T2Ch3)*%
X145450000Y-103575000D03*
X154725000Y-100400000D03*
%TO.N,Net-(U101A-PB11{slash}T2Ch4)*%
X139475000Y-100500000D03*
X159712500Y-102212500D03*
%TO.N,Net-(U101A-PA8{slash}T1Ch1)*%
X158875000Y-99125000D03*
X143275000Y-107950000D03*
%TO.N,Net-(U101A-PA9{slash}T1Ch2)*%
X157725000Y-101325000D03*
X142475000Y-107200000D03*
%TO.N,Net-(U101A-PA10{slash}T1Ch3)*%
X156825000Y-100425000D03*
X140839444Y-105985556D03*
%TO.N,Net-(U101A-PA11{slash}T1Ch4)*%
X155725000Y-97900000D03*
X140224500Y-104412500D03*
%TO.N,I2C_Clk*%
X144725500Y-111225000D03*
X151725000Y-115875000D03*
%TO.N,I2C_Dat*%
X150325000Y-116704000D03*
X143584668Y-111409668D03*
%TO.N,Net-(U101A-PB2)*%
X126400000Y-118204000D03*
X137725000Y-98675500D03*
%TO.N,Net-(U101A-PB4)*%
X139400000Y-98125000D03*
X126400000Y-120804000D03*
%TO.N,Net-(U101A-PB5)*%
X146625000Y-99024500D03*
X146650000Y-96250000D03*
%TO.N,Net-(U101A-PA12)*%
X147225000Y-80525000D03*
X140450000Y-99850000D03*
%TO.N,Net-(U101A-PA15)*%
X145200000Y-100650000D03*
X148250000Y-79875000D03*
%TO.N,/TRACE_SWO{slash}PB3*%
X153750000Y-100677000D03*
X146900000Y-100375000D03*
%TO.N,UART_RX*%
X162350000Y-121750000D03*
X162350000Y-120034500D03*
%TO.N,Net-(U101B-PH3{slash}BOOT0)*%
X147475000Y-97075000D03*
X147700000Y-99225000D03*
%TO.N,Net-(U101B-~{RST})*%
X149150000Y-101975000D03*
X141550000Y-97225000D03*
%TO.N,+3V3_ANA*%
X138350000Y-79154000D03*
X137836800Y-108804000D03*
%TD*%
D14*
%TO.N,GND*%
X138700000Y-97125000D02*
X139300000Y-97125000D01*
D15*
%TO.N,AGND*%
X128800000Y-104754000D02*
X128800000Y-82754000D01*
X128800000Y-82754000D02*
X127850000Y-81804000D01*
X128600000Y-104954000D02*
X128800000Y-104754000D01*
D14*
X138187500Y-97125000D02*
X137750000Y-97125000D01*
D16*
%TO.N,Net-(U101A-PB10{slash}T2Ch3)*%
X154725000Y-100400000D02*
X154725000Y-101600000D01*
X154725000Y-101600000D02*
X152750000Y-103575000D01*
X152750000Y-103575000D02*
X145450000Y-103575000D01*
%TO.N,Net-(U101A-PB11{slash}T2Ch4)*%
X150639339Y-108725000D02*
X150614339Y-108750000D01*
X154048528Y-108750000D02*
X151285661Y-108750000D01*
X151285661Y-108750000D02*
X151260661Y-108725000D01*
X139475000Y-106610661D02*
X139475000Y-100500000D01*
X150614339Y-108750000D02*
X141614339Y-108750000D01*
X159675000Y-102250000D02*
X159675000Y-103123528D01*
X141614339Y-108750000D02*
X139475000Y-106610661D01*
X159675000Y-103123528D02*
X154048528Y-108750000D01*
X159712500Y-102212500D02*
X159675000Y-102250000D01*
X151260661Y-108725000D02*
X150639339Y-108725000D01*
%TO.N,Net-(U101A-PA8{slash}T1Ch1)*%
X158875000Y-103075000D02*
X158875000Y-99125000D01*
X154000000Y-107950000D02*
X158875000Y-103075000D01*
X143275000Y-107950000D02*
X154000000Y-107950000D01*
%TO.N,Net-(U101A-PA9{slash}T1Ch2)*%
X153800000Y-107200000D02*
X157725000Y-103275000D01*
X157725000Y-103275000D02*
X157725000Y-101325000D01*
X142475000Y-107200000D02*
X153800000Y-107200000D01*
%TO.N,Net-(U101A-PA10{slash}T1Ch3)*%
X153950000Y-106000000D02*
X156825000Y-103125000D01*
X140853888Y-106000000D02*
X153950000Y-106000000D01*
X140839444Y-105985556D02*
X140853888Y-106000000D01*
X156825000Y-103125000D02*
X156825000Y-100425000D01*
%TO.N,Net-(U101A-PA11{slash}T1Ch4)*%
X140224500Y-104412500D02*
X140962000Y-105150000D01*
X155725000Y-103150000D02*
X155725000Y-97900000D01*
X153725000Y-105150000D02*
X155725000Y-103150000D01*
X140962000Y-105150000D02*
X153725000Y-105150000D01*
D17*
%TO.N,I2C_Clk*%
X151725000Y-115875000D02*
X149375500Y-115875000D01*
X158620000Y-113030000D02*
X165100000Y-113030000D01*
X151725000Y-115875000D02*
X155775000Y-115875000D01*
X149375500Y-115875000D02*
X144725500Y-111225000D01*
X155775000Y-115875000D02*
X158620000Y-113030000D01*
%TO.N,I2C_Dat*%
X150325000Y-116704000D02*
X156596000Y-116704000D01*
X157730000Y-115570000D02*
X165100000Y-115570000D01*
X148879000Y-116704000D02*
X143584668Y-111409668D01*
X150325000Y-116704000D02*
X148879000Y-116704000D01*
X156596000Y-116704000D02*
X157730000Y-115570000D01*
D16*
%TO.N,Net-(U101A-PB2)*%
X137725000Y-106825000D02*
X138586800Y-107686800D01*
X137725000Y-98675500D02*
X137725000Y-106825000D01*
X138586800Y-107686800D02*
X138586800Y-112738200D01*
X138586800Y-112738200D02*
X137521000Y-113804000D01*
X137521000Y-113804000D02*
X130800000Y-113804000D01*
X130800000Y-113804000D02*
X126400000Y-118204000D01*
%TO.N,Net-(U101A-PB4)*%
X139400000Y-98125000D02*
X138600000Y-98925000D01*
X138600000Y-98925000D02*
X138600000Y-106625000D01*
X139375000Y-107400000D02*
X139375000Y-113025000D01*
X138600000Y-106625000D02*
X139375000Y-107400000D01*
X139375000Y-113025000D02*
X131596000Y-120804000D01*
X131596000Y-120804000D02*
X126400000Y-120804000D01*
D18*
%TO.N,Net-(U101A-PB5)*%
X146650000Y-96250000D02*
X146625000Y-96275000D01*
X146625000Y-96275000D02*
X146625000Y-99024500D01*
%TO.N,Net-(U101A-PA12)*%
X147225000Y-84329000D02*
X147225000Y-80525000D01*
X140450000Y-99850000D02*
X140375000Y-99775000D01*
X140375000Y-91179000D02*
X147225000Y-84329000D01*
X140375000Y-99775000D02*
X140375000Y-91179000D01*
%TO.N,Net-(U101A-PA15)*%
X145850000Y-95225000D02*
X148250000Y-92825000D01*
X145200000Y-100650000D02*
X145850000Y-100000000D01*
X145850000Y-100000000D02*
X145850000Y-95225000D01*
X148250000Y-92825000D02*
X148250000Y-79875000D01*
D16*
%TO.N,/TRACE_SWO{slash}PB3*%
X153750000Y-100677000D02*
X147202000Y-100677000D01*
X147202000Y-100677000D02*
X146900000Y-100375000D01*
%TO.N,UART_RX*%
X162350000Y-120034500D02*
X162350000Y-121750000D01*
D18*
%TO.N,Net-(U101B-PH3{slash}BOOT0)*%
X147475000Y-99000000D02*
X147700000Y-99225000D01*
X147475000Y-97075000D02*
X147475000Y-99000000D01*
%TO.N,Net-(U101B-~{RST})*%
X141550000Y-98875000D02*
X144650000Y-101975000D01*
X144650000Y-101975000D02*
X149150000Y-101975000D01*
X141550000Y-97225000D02*
X141550000Y-98875000D01*
%TD*%
M02*
